M48
; DRILL file {KiCad (5.1.10)-1} date 07/21/21 18:09:42
; FORMAT={-:-/ absolute / inch / decimal}
; #@! TF.CreationDate,2021-07-21T18:09:42+02:00
; #@! TF.GenerationSoftware,Kicad,Pcbnew,(5.1.10)-1
FMAT,2
INCH
T1C0.0354
T2C0.0430
T3C0.0500
T4C0.0591
T5C0.0670
T6C0.1350
%
G90
G05
T2
X0.0908Y2.6977
X0.0995Y2.5981
X0.1082Y2.4985
X0.117Y2.3988
X0.1257Y2.2992
X0.1344Y2.1996
X0.1431Y2.1
X0.1518Y2.0004
X0.1605Y1.9007
X0.1692Y1.8011
X0.178Y1.7015
X0.1867Y1.6019
X0.6885Y2.75
X0.6972Y2.6504
X0.706Y2.5507
X0.7147Y2.4511
X0.7234Y2.3515
X0.7321Y2.2519
X0.7408Y2.1523
X0.7495Y2.0526
X0.7582Y1.953
X0.767Y1.8534
X0.7757Y1.7538
X0.7844Y1.6542
T3
X0.3066Y0.74
X0.4753Y0.8709
X0.4753Y0.8709
X0.6869Y0.8419
X1.0149Y2.3529
X1.054Y1.9058
X1.1192Y1.1606
X1.2182Y2.2877
X1.2182Y2.2877
X1.2429Y2.0053
X1.2429Y2.0053
X1.3081Y1.2601
X1.3081Y1.2601
X1.4071Y2.3872
X1.4462Y1.9401
X1.5114Y1.1949
X1.8573Y2.6626
X1.8573Y2.2138
X1.8573Y1.4658
X2.0541Y2.58
X2.0541Y2.58
X2.0541Y2.2965
X2.0541Y2.2965
X2.0541Y1.5485
X2.0541Y1.5485
X2.251Y2.6626
X2.251Y2.2138
X2.251Y1.4658
X2.5659Y2.4395
X2.5659Y1.9907
X2.5659Y1.2427
X2.7628Y2.3569
X2.7628Y2.3569
X2.7628Y2.0734
X2.7628Y2.0734
X2.7628Y1.3254
X2.7628Y1.3254
X2.7688Y0.4618
X2.9596Y2.4395
X2.9596Y1.9907
X2.9596Y1.2427
X2.9804Y0.4907
X2.9804Y0.4907
X3.1491Y0.3599
X3.3179Y1.7624
X3.3179Y1.7624
X3.4006Y1.9592
X3.4006Y1.5655
X3.5297Y0.2213
X3.7431Y0.2131
X3.7431Y0.2131
X3.8865Y0.0549
T4
X3.5581Y3.1364
X3.5581Y2.8608
T5
X0.3263Y0.5904
X0.7446Y0.7025
X0.9823Y2.5002
X1.0475Y1.755
X1.1127Y1.0099
X1.4137Y2.538
X1.4789Y1.7928
X1.5441Y1.0476
X1.8376Y2.8122
X1.8376Y2.0642
X1.8376Y1.3162
X2.2706Y2.8122
X2.2706Y2.0642
X2.2706Y1.3162
X2.5462Y2.5891
X2.5462Y1.8411
X2.5462Y1.0931
X2.7111Y0.3223
X2.9793Y2.5891
X2.9793Y1.8411
X2.9793Y1.0931
X3.1294Y0.2103
X3.4487Y0.0941
X3.5502Y1.9789
X3.5502Y1.5458
X3.8412Y-0.089
T6
X0.5354Y0.6465
X1.198Y2.5191
X1.2632Y1.7739
X1.3284Y1.0287
X2.0541Y2.8122
X2.0541Y2.0642
X2.0541Y1.3162
X2.7628Y2.5891
X2.7628Y1.8411
X2.7628Y1.0931
X2.9203Y0.2663
X3.5502Y1.7624
X3.6449Y0.0026
T1
G00X3.4675Y3.0852
M15
G01X3.4675Y3.0616
M16
G05
G00X3.4675Y2.9671
M15
G01X3.4675Y2.9435
M16
G05
G00X3.4675Y2.8096
M15
G01X3.4675Y2.786
M16
G05
G00X3.4675Y2.7663
M15
G01X3.4675Y2.7427
M16
G05
G00X3.6486Y3.0852
M15
G01X3.6486Y3.0616
M16
G05
G00X3.6486Y2.9671
M15
G01X3.6486Y2.9435
M16
G05
G00X3.6486Y2.8096
M15
G01X3.6486Y2.786
M16
G05
G00X3.6486Y2.7663
M15
G01X3.6486Y2.7427
M16
G05
T0
M30
