%TF.GenerationSoftware,KiCad,Pcbnew,(5.1.10)-1*%
%TF.CreationDate,2021-07-21T18:09:40+02:00*%
%TF.ProjectId,metasepia_pfefferi_alu_bent_large,6d657461-7365-4706-9961-5f7066656666,VERSION_HERE*%
%TF.SameCoordinates,Original*%
%TF.FileFunction,Soldermask,Bot*%
%TF.FilePolarity,Negative*%
%FSLAX46Y46*%
G04 Gerber Fmt 4.6, Leading zero omitted, Abs format (unit mm)*
G04 Created by KiCad (PCBNEW (5.1.10)-1) date 2021-07-21 18:09:40*
%MOMM*%
%LPD*%
G01*
G04 APERTURE LIST*
%ADD10C,3.529000*%
%ADD11C,1.801800*%
%ADD12C,2.132000*%
%ADD13C,1.852600*%
%ADD14C,1.600000*%
%ADD15O,1.700000X2.300000*%
G04 APERTURE END LIST*
D10*
%TO.C,S4*%
X30428800Y63985100D03*
D11*
X24949729Y63505743D03*
X35907871Y64464457D03*
D12*
X25779018Y59763781D03*
X30943019Y58107551D03*
X35740965Y60635339D03*
X30943019Y58107551D03*
%TD*%
D10*
%TO.C,S12*%
X74174500Y6764100D03*
D11*
X79487092Y5340595D03*
X68861908Y8187605D03*
D12*
X79987642Y9140523D03*
X75701532Y12463062D03*
X70328383Y11728713D03*
X75701532Y12463062D03*
%TD*%
D10*
%TO.C,S1*%
X13600100Y16420700D03*
D11*
X18912692Y17844205D03*
X8287508Y14997195D03*
D12*
X17446217Y21385313D03*
X12073068Y22119662D03*
X7786958Y18797123D03*
X12073068Y22119662D03*
%TD*%
D10*
%TO.C,S2*%
X33740700Y26129700D03*
D11*
X39219771Y26609057D03*
X28261629Y25650343D03*
D12*
X38390482Y30351019D03*
X33226481Y32007249D03*
X28428535Y29479461D03*
X33226481Y32007249D03*
%TD*%
D10*
%TO.C,S3*%
X32084700Y45057400D03*
D11*
X37563771Y45536757D03*
X26605629Y44578043D03*
D12*
X36734482Y49278719D03*
X31570481Y50934949D03*
X26772535Y48407161D03*
X31570481Y50934949D03*
%TD*%
D10*
%TO.C,S5*%
X52174500Y33430800D03*
D11*
X57674500Y33430800D03*
X46674500Y33430800D03*
D12*
X57174500Y37230800D03*
X52174500Y39330800D03*
X47174500Y37230800D03*
X52174500Y39330800D03*
%TD*%
D10*
%TO.C,S6*%
X52174500Y52430800D03*
D11*
X57674500Y52430800D03*
X46674500Y52430800D03*
D12*
X57174500Y56230800D03*
X52174500Y58330800D03*
X47174500Y56230800D03*
X52174500Y58330800D03*
%TD*%
D10*
%TO.C,S7*%
X52174500Y71430800D03*
D11*
X46674500Y71430800D03*
X57674500Y71430800D03*
D12*
X47174500Y67630800D03*
X52174500Y65530800D03*
X57174500Y67630800D03*
X52174500Y65530800D03*
%TD*%
D10*
%TO.C,S8*%
X70174500Y27764100D03*
D11*
X75674500Y27764100D03*
X64674500Y27764100D03*
D12*
X75174500Y31564100D03*
X70174500Y33664100D03*
X65174500Y31564100D03*
X70174500Y33664100D03*
%TD*%
D10*
%TO.C,S9*%
X70174500Y46764100D03*
D11*
X75674500Y46764100D03*
X64674500Y46764100D03*
D12*
X75174500Y50564100D03*
X70174500Y52664100D03*
X65174500Y50564100D03*
X70174500Y52664100D03*
%TD*%
D10*
%TO.C,S10*%
X70174500Y65764100D03*
D11*
X64674500Y65764100D03*
X75674500Y65764100D03*
D12*
X65174500Y61964100D03*
X70174500Y59864100D03*
X75174500Y61964100D03*
X70174500Y59864100D03*
%TD*%
D10*
%TO.C,S11*%
X90174500Y44764100D03*
D11*
X90174500Y50264100D03*
X90174500Y39264100D03*
D12*
X86374500Y49764100D03*
X84274500Y44764100D03*
X86374500Y39764100D03*
X84274500Y44764100D03*
%TD*%
D10*
%TO.C,S13*%
X92580700Y64800D03*
D11*
X97565393Y-2259600D03*
X87596007Y2389200D03*
D12*
X98718188Y1395678D03*
X95074148Y5412016D03*
X89655110Y5621861D03*
X95074148Y5412016D03*
%TD*%
%TO.C,C1*%
G36*
G01*
X16534740Y70695968D02*
X18280671Y70848717D01*
G75*
G02*
X18334839Y70803265I4358J-49810D01*
G01*
X18487588Y69057334D01*
G75*
G02*
X18442136Y69003166I-49810J-4358D01*
G01*
X16696205Y68850417D01*
G75*
G02*
X16642037Y68895869I-4358J49810D01*
G01*
X16489288Y70641800D01*
G75*
G02*
X16534740Y70695968I49810J4358D01*
G01*
G37*
D13*
X17709813Y67319232D03*
X17931189Y64788898D03*
X18152565Y62258563D03*
X18373940Y59728229D03*
X18595316Y57197894D03*
X18816691Y54667559D03*
X19038067Y52137225D03*
X19259443Y49606890D03*
X19480818Y47076556D03*
X19702194Y44546221D03*
X19923569Y42015887D03*
X2306431Y68521313D03*
X2527806Y65990979D03*
X2749182Y63460644D03*
X2970557Y60930310D03*
X3191933Y58399975D03*
X3413309Y55869641D03*
X3634684Y53339306D03*
X3856060Y50808971D03*
X4077435Y48278637D03*
X4298811Y45748302D03*
X4520187Y43217968D03*
X4741562Y40687633D03*
%TD*%
D14*
%TO.C,REF\u002A\u002A*%
X90374510Y72664116D03*
X90374510Y79664116D03*
D15*
X92674510Y69964116D03*
X88074510Y71064116D03*
X88074510Y75064116D03*
X88074510Y78064116D03*
X88074510Y69964116D03*
X92674510Y71064116D03*
X92674510Y75064116D03*
X92674510Y78064116D03*
%TD*%
M02*
