%TF.GenerationSoftware,KiCad,Pcbnew,(5.1.10)-1*%
%TF.CreationDate,2021-07-21T18:09:40+02:00*%
%TF.ProjectId,metasepia_pfefferi_alu_bent_large,6d657461-7365-4706-9961-5f7066656666,VERSION_HERE*%
%TF.SameCoordinates,Original*%
%TF.FileFunction,Legend,Top*%
%TF.FilePolarity,Positive*%
%FSLAX46Y46*%
G04 Gerber Fmt 4.6, Leading zero omitted, Abs format (unit mm)*
G04 Created by KiCad (PCBNEW (5.1.10)-1) date 2021-07-21 18:09:40*
%MOMM*%
%LPD*%
G01*
G04 APERTURE LIST*
%ADD10C,0.150000*%
G04 APERTURE END LIST*
D10*
%TO.C,C1*%
X16333958Y68473712D02*
X18864293Y68695087D01*
X16112583Y71004046D02*
X18642917Y71225422D01*
X16112583Y71004046D02*
X16333958Y68473712D01*
X18421542Y73755756D02*
X709200Y72206127D01*
X21299424Y40861407D02*
X18421542Y73755756D01*
X3587083Y39311778D02*
X21299424Y40861407D01*
X709200Y72206127D02*
X3587083Y39311778D01*
X14160432Y69195116D02*
X13861577Y69551377D01*
X13705028Y69155273D02*
X13635304Y69952229D01*
X13938906Y69978791D01*
X14018127Y69947481D01*
X14059397Y69912851D01*
X14103988Y69840270D01*
X14113949Y69726420D01*
X14082639Y69647199D01*
X14048009Y69605928D01*
X13975428Y69561338D01*
X13671826Y69534776D01*
X14444112Y69449379D02*
X14823615Y69482581D01*
X14388133Y69215037D02*
X14584061Y70035234D01*
X14919437Y69261520D01*
X15039464Y70075077D02*
X15298940Y69294722D01*
X15400938Y69877257D01*
X15602542Y69321284D01*
X15722569Y70134841D01*
X14258477Y67418807D02*
X14179256Y67450117D01*
X14065405Y67440156D01*
X13954875Y67392245D01*
X13885615Y67309704D01*
X13854305Y67230483D01*
X13829635Y67075362D01*
X13839596Y66961511D01*
X13890827Y66813030D01*
X13935418Y66740450D01*
X14017959Y66671190D01*
X14135130Y66643200D01*
X14211030Y66649841D01*
X14321561Y66697752D01*
X14356191Y66739022D01*
X14332949Y67004674D01*
X14181148Y66991393D01*
X14704384Y66693004D02*
X14634659Y67489959D01*
X15159787Y66732846D01*
X15090063Y67529802D01*
X15539290Y66766048D02*
X15469565Y67563004D01*
X15659317Y67579605D01*
X15776488Y67551616D01*
X15859029Y67482356D01*
X15903619Y67409775D01*
X15954851Y67261294D01*
X15964811Y67147443D01*
X15940142Y66992322D01*
X15908832Y66913101D01*
X15839572Y66830560D01*
X15729041Y66782649D01*
X15539290Y66766048D01*
X14717033Y64144407D02*
X14418179Y64500669D01*
X14261630Y64104565D02*
X14191906Y64901521D01*
X14495508Y64928082D01*
X14574729Y64896772D01*
X14615999Y64862142D01*
X14660590Y64789562D01*
X14670550Y64675711D01*
X14639241Y64596490D01*
X14604610Y64555220D01*
X14532030Y64510629D01*
X14228428Y64484067D01*
X15017315Y64208919D02*
X15134486Y64180930D01*
X15324238Y64197531D01*
X15396818Y64242122D01*
X15431448Y64283392D01*
X15462758Y64362613D01*
X15456118Y64438513D01*
X15411527Y64511094D01*
X15370256Y64545724D01*
X15291036Y64577034D01*
X15135914Y64601703D01*
X15056694Y64633013D01*
X15015423Y64667643D01*
X14970832Y64740223D01*
X14964192Y64816124D01*
X14995502Y64895345D01*
X15030132Y64936615D01*
X15102712Y64981206D01*
X15292463Y64997807D01*
X15409635Y64969817D01*
X15634016Y65027689D02*
X16089419Y65067531D01*
X15931442Y64250654D02*
X15861718Y65047610D01*
X14242505Y62356246D02*
X14577882Y61582531D01*
X14773809Y62402729D01*
X15557949Y61744758D02*
X15523318Y61703487D01*
X15412788Y61655576D01*
X15336887Y61648936D01*
X15219716Y61676925D01*
X15137175Y61746185D01*
X15092585Y61818766D01*
X15041353Y61967247D01*
X15031393Y62081097D01*
X15056062Y62236219D01*
X15087372Y62315440D01*
X15156632Y62397981D01*
X15267163Y62445891D01*
X15343063Y62452532D01*
X15460234Y62424542D01*
X15501505Y62389912D01*
X16354904Y61814482D02*
X16320274Y61773212D01*
X16209744Y61725301D01*
X16133843Y61718660D01*
X16016672Y61746650D01*
X15934131Y61815910D01*
X15889540Y61888490D01*
X15838309Y62036971D01*
X15828349Y62150822D01*
X15853018Y62305943D01*
X15884328Y62385164D01*
X15953588Y62467705D01*
X16064118Y62515616D01*
X16140019Y62522256D01*
X16257190Y62494267D01*
X16298461Y62459637D01*
X14628481Y59037255D02*
X14558756Y59834211D01*
X14862358Y59860773D01*
X14941579Y59829463D01*
X14982849Y59794833D01*
X15027440Y59722253D01*
X15037401Y59608402D01*
X15006091Y59529181D01*
X14971461Y59487911D01*
X14898881Y59443320D01*
X14595278Y59416758D01*
X15324402Y59824715D02*
X15359032Y59865985D01*
X15431612Y59910576D01*
X15621364Y59927177D01*
X15700584Y59895867D01*
X15741855Y59861237D01*
X15786446Y59788657D01*
X15793086Y59712756D01*
X15765096Y59595585D01*
X15349536Y59100339D01*
X15842889Y59143502D01*
X16601895Y59209907D02*
X16146492Y59170064D01*
X16374193Y59189985D02*
X16304469Y59986941D01*
X16238529Y59866450D01*
X16169269Y59783909D01*
X16096688Y59739318D01*
X14849857Y56506921D02*
X14780132Y57303877D01*
X15083734Y57330439D01*
X15162955Y57299129D01*
X15204225Y57264499D01*
X15248816Y57191919D01*
X15258777Y57078068D01*
X15227467Y56998847D01*
X15192837Y56957577D01*
X15120257Y56912986D01*
X14816654Y56886424D01*
X15545778Y57294381D02*
X15580408Y57335651D01*
X15652988Y57380242D01*
X15842740Y57396843D01*
X15921960Y57365533D01*
X15963231Y57330903D01*
X16007822Y57258323D01*
X16014462Y57182422D01*
X15986472Y57065251D01*
X15570912Y56570005D01*
X16064265Y56613168D01*
X16487894Y57453287D02*
X16563795Y57459927D01*
X16643016Y57428618D01*
X16684286Y57393987D01*
X16728877Y57321407D01*
X16780108Y57172926D01*
X16796709Y56983175D01*
X16772040Y56828054D01*
X16740730Y56748833D01*
X16706100Y56707562D01*
X16633519Y56662972D01*
X16557619Y56656331D01*
X16478398Y56687641D01*
X16437128Y56722271D01*
X16392537Y56794851D01*
X16341306Y56943332D01*
X16324705Y57133084D01*
X16349374Y57288205D01*
X16380684Y57367426D01*
X16415314Y57408696D01*
X16487894Y57453287D01*
X15071232Y53976586D02*
X15001507Y54773542D01*
X15305109Y54800104D01*
X15384330Y54768794D01*
X15425600Y54734164D01*
X15470191Y54661584D01*
X15480152Y54547733D01*
X15448842Y54468512D01*
X15414212Y54427242D01*
X15341632Y54382651D01*
X15038029Y54356089D01*
X16285640Y54082833D02*
X15830237Y54042991D01*
X16057939Y54062912D02*
X15988214Y54859868D01*
X15922274Y54739377D01*
X15853014Y54656836D01*
X15780434Y54612245D01*
X16665143Y54116036D02*
X16816944Y54129316D01*
X16889525Y54173907D01*
X16924155Y54215178D01*
X16990094Y54335669D01*
X17014764Y54490790D01*
X16988202Y54794392D01*
X16943611Y54866973D01*
X16902341Y54901603D01*
X16823120Y54932913D01*
X16671319Y54919632D01*
X16598739Y54875041D01*
X16564109Y54833770D01*
X16532799Y54754550D01*
X16549400Y54564798D01*
X16593991Y54492218D01*
X16635261Y54457588D01*
X16714482Y54426278D01*
X16866283Y54439559D01*
X16938863Y54484150D01*
X16973493Y54525420D01*
X17004803Y54604641D01*
X15292608Y51446252D02*
X15222883Y52243208D01*
X15526485Y52269770D01*
X15605706Y52238460D01*
X15646976Y52203830D01*
X15691567Y52131250D01*
X15701528Y52017399D01*
X15670218Y51938178D01*
X15635588Y51896908D01*
X15563008Y51852317D01*
X15259405Y51825755D01*
X16507016Y51552499D02*
X16051613Y51512657D01*
X16279315Y51532578D02*
X16209590Y52329534D01*
X16143650Y52209043D01*
X16074390Y52126502D01*
X16001810Y52081911D01*
X16922577Y52047745D02*
X16843356Y52079055D01*
X16802086Y52113685D01*
X16757495Y52186265D01*
X16754175Y52224216D01*
X16785485Y52303436D01*
X16820115Y52344707D01*
X16892695Y52389298D01*
X17044496Y52402579D01*
X17123717Y52371269D01*
X17164987Y52336639D01*
X17209578Y52264058D01*
X17212898Y52226108D01*
X17181589Y52146887D01*
X17146958Y52105617D01*
X17074378Y52061026D01*
X16922577Y52047745D01*
X16849997Y52003155D01*
X16815367Y51961884D01*
X16784057Y51882663D01*
X16797338Y51730862D01*
X16841928Y51658282D01*
X16883199Y51623652D01*
X16962420Y51592342D01*
X17114221Y51605623D01*
X17186801Y51650214D01*
X17221431Y51691484D01*
X17252741Y51770705D01*
X17239460Y51922506D01*
X17194869Y51995086D01*
X17153599Y52029716D01*
X17074378Y52061026D01*
X15513984Y48915917D02*
X15444259Y49712873D01*
X15747861Y49739435D01*
X15827082Y49708125D01*
X15868352Y49673495D01*
X15912943Y49600915D01*
X15922904Y49487064D01*
X15891594Y49407843D01*
X15856964Y49366573D01*
X15784384Y49321982D01*
X15480781Y49295420D01*
X16728392Y49022164D02*
X16272989Y48982322D01*
X16500691Y49002243D02*
X16430966Y49799199D01*
X16365026Y49678708D01*
X16295766Y49596167D01*
X16223186Y49551576D01*
X17379723Y49882204D02*
X17000220Y49849002D01*
X16995472Y49466179D01*
X17030102Y49507450D01*
X17102683Y49552040D01*
X17292434Y49568641D01*
X17371655Y49537332D01*
X17412925Y49502701D01*
X17457516Y49430121D01*
X17474117Y49240370D01*
X17442807Y49161149D01*
X17408177Y49119879D01*
X17335597Y49075288D01*
X17145845Y49058687D01*
X17066625Y49089997D01*
X17025354Y49124627D01*
X15735359Y46385583D02*
X15665634Y47182539D01*
X15969236Y47209101D01*
X16048457Y47177791D01*
X16089727Y47143161D01*
X16134318Y47070581D01*
X16144279Y46956730D01*
X16112969Y46877509D01*
X16078339Y46836239D01*
X16005759Y46791648D01*
X15702156Y46765086D01*
X16949767Y46491830D02*
X16494364Y46451988D01*
X16722066Y46471909D02*
X16652341Y47268865D01*
X16586401Y47148374D01*
X16517141Y47065833D01*
X16444561Y47021242D01*
X17586389Y47082898D02*
X17632872Y46551594D01*
X17370076Y47369899D02*
X17230128Y46784044D01*
X17723482Y46827207D01*
X15956735Y43855248D02*
X15887010Y44652204D01*
X16190612Y44678766D01*
X16269833Y44647456D01*
X16311103Y44612826D01*
X16355694Y44540246D01*
X16365655Y44426395D01*
X16334345Y44347174D01*
X16299715Y44305904D01*
X16227135Y44261313D01*
X15923532Y44234751D01*
X17171143Y43961495D02*
X16715740Y43921653D01*
X16943442Y43941574D02*
X16873717Y44738530D01*
X16807777Y44618039D01*
X16738517Y44535498D01*
X16665937Y44490907D01*
X17784524Y44818215D02*
X17632723Y44804934D01*
X17560142Y44760343D01*
X17525512Y44719073D01*
X17459572Y44598582D01*
X17434903Y44443460D01*
X17461465Y44139858D01*
X17506055Y44067278D01*
X17547326Y44032648D01*
X17626547Y44001338D01*
X17778348Y44014619D01*
X17850928Y44059210D01*
X17885558Y44100480D01*
X17916868Y44179701D01*
X17900267Y44369452D01*
X17855676Y44442032D01*
X17814406Y44476663D01*
X17735185Y44507972D01*
X17583384Y44494692D01*
X17510803Y44450101D01*
X17476173Y44408830D01*
X17444864Y44329610D01*
X16178110Y41324914D02*
X16108385Y42121870D01*
X16411987Y42148432D01*
X16491208Y42117122D01*
X16532478Y42082492D01*
X16577069Y42009912D01*
X16587030Y41896061D01*
X16555720Y41816840D01*
X16521090Y41775570D01*
X16448510Y41730979D01*
X16144907Y41704417D01*
X17392518Y41431161D02*
X16937115Y41391319D01*
X17164817Y41411240D02*
X17095092Y42208196D01*
X17029152Y42087705D01*
X16959892Y42005164D01*
X16887312Y41960573D01*
X17816147Y42271280D02*
X17892048Y42277920D01*
X17971269Y42246611D01*
X18012539Y42211980D01*
X18057130Y42139400D01*
X18108361Y41990919D01*
X18124962Y41801168D01*
X18100293Y41646047D01*
X18068983Y41566826D01*
X18034353Y41525555D01*
X17961772Y41480965D01*
X17885872Y41474324D01*
X17806651Y41505634D01*
X17765381Y41540264D01*
X17720790Y41612844D01*
X17669559Y41761325D01*
X17652958Y41951077D01*
X17677627Y42106198D01*
X17708937Y42185419D01*
X17743567Y42226689D01*
X17816147Y42271280D01*
X4179510Y68321898D02*
X4109785Y69118854D01*
X4413387Y69145416D01*
X4492608Y69114106D01*
X4533878Y69079476D01*
X4578469Y69006896D01*
X4588430Y68893045D01*
X4557120Y68813824D01*
X4522490Y68772554D01*
X4449910Y68727963D01*
X4146307Y68701401D01*
X5058542Y69201860D02*
X5134442Y69208500D01*
X5213663Y69177190D01*
X5254934Y69142560D01*
X5299524Y69069980D01*
X5350756Y68921499D01*
X5367357Y68731748D01*
X5342687Y68576626D01*
X5311377Y68497405D01*
X5276747Y68456135D01*
X5204167Y68411544D01*
X5128266Y68404904D01*
X5049046Y68436214D01*
X5007775Y68470844D01*
X4963184Y68543424D01*
X4911953Y68691905D01*
X4895352Y68881656D01*
X4920022Y69036778D01*
X4951331Y69115998D01*
X4985962Y69157269D01*
X5058542Y69201860D01*
X6152924Y68494550D02*
X5697521Y68454707D01*
X5925222Y68474628D02*
X5855498Y69271584D01*
X5789558Y69151093D01*
X5720298Y69068552D01*
X5647717Y69023961D01*
X4400885Y65791564D02*
X4331160Y66588520D01*
X4634762Y66615082D01*
X4713983Y66583772D01*
X4755253Y66549142D01*
X4799844Y66476562D01*
X4809805Y66362711D01*
X4778495Y66283490D01*
X4743865Y66242220D01*
X4671285Y66197629D01*
X4367682Y66171067D01*
X5279917Y66671526D02*
X5355817Y66678166D01*
X5435038Y66646856D01*
X5476309Y66612226D01*
X5520899Y66539646D01*
X5572131Y66391165D01*
X5588732Y66201414D01*
X5564062Y66046292D01*
X5532752Y65967071D01*
X5498122Y65925801D01*
X5425542Y65881210D01*
X5349641Y65874570D01*
X5270421Y65905880D01*
X5229150Y65940510D01*
X5184559Y66013090D01*
X5133328Y66161571D01*
X5116727Y66351322D01*
X5141397Y66506444D01*
X5172706Y66585664D01*
X5207337Y66626935D01*
X5279917Y66671526D01*
X6038922Y66737930D02*
X6114823Y66744570D01*
X6194044Y66713261D01*
X6235314Y66678630D01*
X6279905Y66606050D01*
X6331136Y66457569D01*
X6347737Y66267818D01*
X6323068Y66112697D01*
X6291758Y66033476D01*
X6257128Y65992205D01*
X6184547Y65947615D01*
X6108647Y65940974D01*
X6029426Y65972284D01*
X5988156Y66006914D01*
X5943565Y66079494D01*
X5892334Y66227975D01*
X5875733Y66417727D01*
X5900402Y66572848D01*
X5931712Y66652069D01*
X5966342Y66693339D01*
X6038922Y66737930D01*
X4916384Y64051777D02*
X4837163Y64083087D01*
X4723312Y64073126D01*
X4612782Y64025215D01*
X4543522Y63942674D01*
X4512212Y63863453D01*
X4487542Y63708332D01*
X4497503Y63594481D01*
X4548734Y63446000D01*
X4593325Y63373420D01*
X4675866Y63304160D01*
X4793037Y63276170D01*
X4868937Y63282811D01*
X4979468Y63330722D01*
X5014098Y63371992D01*
X4990856Y63637644D01*
X4839055Y63624363D01*
X5362291Y63325974D02*
X5292566Y64122929D01*
X5817694Y63365816D01*
X5747970Y64162772D01*
X6197197Y63399018D02*
X6127472Y64195974D01*
X6317224Y64212575D01*
X6434395Y64184586D01*
X6516936Y64115326D01*
X6561526Y64042745D01*
X6612758Y63894264D01*
X6622718Y63780413D01*
X6598049Y63625292D01*
X6566739Y63546071D01*
X6497479Y63463530D01*
X6386948Y63415619D01*
X6197197Y63399018D01*
X5137759Y61521443D02*
X5058538Y61552753D01*
X4944687Y61542792D01*
X4834157Y61494881D01*
X4764897Y61412340D01*
X4733587Y61333119D01*
X4708917Y61177998D01*
X4718878Y61064147D01*
X4770109Y60915666D01*
X4814700Y60843086D01*
X4897241Y60773826D01*
X5014412Y60745836D01*
X5090312Y60752477D01*
X5200843Y60800388D01*
X5235473Y60841658D01*
X5212231Y61107310D01*
X5060430Y61094029D01*
X5583666Y60795640D02*
X5513941Y61592595D01*
X6039069Y60835482D01*
X5969345Y61632438D01*
X6418572Y60868684D02*
X6348847Y61665640D01*
X6538599Y61682241D01*
X6655770Y61654252D01*
X6738311Y61584992D01*
X6782901Y61512411D01*
X6834133Y61363930D01*
X6844093Y61250079D01*
X6819424Y61094958D01*
X6788114Y61015737D01*
X6718854Y60933196D01*
X6608323Y60885285D01*
X6418572Y60868684D01*
X5065012Y58200560D02*
X4995287Y58997516D01*
X5298889Y59024078D01*
X5378110Y58992768D01*
X5419380Y58958138D01*
X5463971Y58885558D01*
X5473932Y58771707D01*
X5442622Y58692486D01*
X5407992Y58651216D01*
X5335412Y58606625D01*
X5031809Y58580063D01*
X5944044Y59080522D02*
X6019944Y59087162D01*
X6099165Y59055852D01*
X6140436Y59021222D01*
X6185026Y58948642D01*
X6236258Y58800161D01*
X6252859Y58610410D01*
X6228189Y58455288D01*
X6196879Y58376067D01*
X6162249Y58334797D01*
X6089669Y58290206D01*
X6013768Y58283566D01*
X5934548Y58314876D01*
X5893277Y58349506D01*
X5848686Y58422086D01*
X5797455Y58570567D01*
X5780854Y58760318D01*
X5805524Y58915440D01*
X5836833Y58994660D01*
X5871464Y59035931D01*
X5944044Y59080522D01*
X6519938Y59054424D02*
X6554568Y59095695D01*
X6627149Y59140285D01*
X6816900Y59156887D01*
X6896121Y59125577D01*
X6937391Y59090947D01*
X6981982Y59018366D01*
X6988623Y58942466D01*
X6960633Y58825295D01*
X6545072Y58330049D01*
X7038426Y58373212D01*
X5286388Y55670226D02*
X5216663Y56467182D01*
X5520265Y56493744D01*
X5599486Y56462434D01*
X5640756Y56427804D01*
X5685347Y56355224D01*
X5695308Y56241373D01*
X5663998Y56162152D01*
X5629368Y56120882D01*
X5556788Y56076291D01*
X5253185Y56049729D01*
X6165420Y56550188D02*
X6241320Y56556828D01*
X6320541Y56525518D01*
X6361812Y56490888D01*
X6406402Y56418308D01*
X6457634Y56269827D01*
X6474235Y56080076D01*
X6449565Y55924954D01*
X6418255Y55845733D01*
X6383625Y55804463D01*
X6311045Y55759872D01*
X6235144Y55753232D01*
X6155924Y55784542D01*
X6114653Y55819172D01*
X6070062Y55891752D01*
X6018831Y56040233D01*
X6002230Y56229984D01*
X6026900Y56385106D01*
X6058209Y56464326D01*
X6092840Y56505597D01*
X6165420Y56550188D01*
X6696724Y56596671D02*
X7190077Y56639833D01*
X6950987Y56312990D01*
X7064838Y56322950D01*
X7144059Y56291641D01*
X7185329Y56257010D01*
X7229920Y56184430D01*
X7246521Y55994679D01*
X7215211Y55915458D01*
X7180581Y55874188D01*
X7108001Y55829597D01*
X6880299Y55809676D01*
X6801078Y55840985D01*
X6759808Y55875615D01*
X5507763Y53139891D02*
X5438038Y53936847D01*
X5741640Y53963409D01*
X5820861Y53932099D01*
X5862131Y53897469D01*
X5906722Y53824889D01*
X5916683Y53711038D01*
X5885373Y53631817D01*
X5850743Y53590547D01*
X5778163Y53545956D01*
X5474560Y53519394D01*
X6386795Y54019853D02*
X6462695Y54026493D01*
X6541916Y53995183D01*
X6583187Y53960553D01*
X6627777Y53887973D01*
X6679009Y53739492D01*
X6695610Y53549741D01*
X6670940Y53394619D01*
X6639630Y53315398D01*
X6605000Y53274128D01*
X6532420Y53229537D01*
X6456519Y53222897D01*
X6377299Y53254207D01*
X6336028Y53288837D01*
X6291437Y53361417D01*
X6240206Y53509898D01*
X6223605Y53699649D01*
X6248275Y53854771D01*
X6279584Y53933991D01*
X6314215Y53975262D01*
X6386795Y54019853D01*
X7358793Y53837206D02*
X7405276Y53305902D01*
X7142480Y54124207D02*
X7002532Y53538352D01*
X7495886Y53581515D01*
X5729139Y50609557D02*
X5659414Y51406513D01*
X5963016Y51433075D01*
X6042237Y51401765D01*
X6083507Y51367135D01*
X6128098Y51294555D01*
X6138059Y51180704D01*
X6106749Y51101483D01*
X6072119Y51060213D01*
X5999539Y51015622D01*
X5695936Y50989060D01*
X6608171Y51489519D02*
X6684071Y51496159D01*
X6763292Y51464849D01*
X6804563Y51430219D01*
X6849153Y51357639D01*
X6900385Y51209158D01*
X6916986Y51019407D01*
X6892316Y50864285D01*
X6861006Y50785064D01*
X6826376Y50743794D01*
X6753796Y50699203D01*
X6677895Y50692563D01*
X6598675Y50723873D01*
X6557404Y50758503D01*
X6512813Y50831083D01*
X6461582Y50979564D01*
X6444981Y51169315D01*
X6469651Y51324437D01*
X6500960Y51403657D01*
X6535591Y51444928D01*
X6608171Y51489519D01*
X7594878Y51575844D02*
X7215375Y51542642D01*
X7210627Y51159819D01*
X7245257Y51201090D01*
X7317838Y51245680D01*
X7507589Y51262281D01*
X7586810Y51230972D01*
X7628080Y51196341D01*
X7672671Y51123761D01*
X7689272Y50934010D01*
X7657962Y50854789D01*
X7623332Y50813519D01*
X7550752Y50768928D01*
X7361000Y50752327D01*
X7281780Y50783637D01*
X7240509Y50818267D01*
X5950514Y48079222D02*
X5880789Y48876178D01*
X6184391Y48902740D01*
X6263612Y48871430D01*
X6304882Y48836800D01*
X6349473Y48764220D01*
X6359434Y48650369D01*
X6328124Y48571148D01*
X6293494Y48529878D01*
X6220914Y48485287D01*
X5917311Y48458725D01*
X6829546Y48959184D02*
X6905446Y48965824D01*
X6984667Y48934514D01*
X7025938Y48899884D01*
X7070528Y48827304D01*
X7121760Y48678823D01*
X7138361Y48489072D01*
X7113691Y48333950D01*
X7082381Y48254729D01*
X7047751Y48213459D01*
X6975171Y48168868D01*
X6899270Y48162228D01*
X6820050Y48193538D01*
X6778779Y48228168D01*
X6734188Y48300748D01*
X6682957Y48449229D01*
X6666356Y48638980D01*
X6691026Y48794102D01*
X6722335Y48873322D01*
X6756966Y48914593D01*
X6829546Y48959184D01*
X7778303Y49042189D02*
X7626502Y49028908D01*
X7553921Y48984317D01*
X7519291Y48943047D01*
X7453351Y48822556D01*
X7428682Y48667434D01*
X7455244Y48363832D01*
X7499834Y48291252D01*
X7541105Y48256622D01*
X7620326Y48225312D01*
X7772127Y48238593D01*
X7844707Y48283184D01*
X7879337Y48324454D01*
X7910647Y48403675D01*
X7894046Y48593426D01*
X7849455Y48666006D01*
X7808185Y48700637D01*
X7728964Y48731946D01*
X7577163Y48718666D01*
X7504582Y48674075D01*
X7469952Y48632804D01*
X7438643Y48553584D01*
X6171890Y45548888D02*
X6102165Y46345844D01*
X6405767Y46372406D01*
X6484988Y46341096D01*
X6526258Y46306466D01*
X6570849Y46233886D01*
X6580810Y46120035D01*
X6549500Y46040814D01*
X6514870Y45999544D01*
X6442290Y45954953D01*
X6138687Y45928391D01*
X7050922Y46428850D02*
X7126822Y46435490D01*
X7206043Y46404180D01*
X7247314Y46369550D01*
X7291904Y46296970D01*
X7343136Y46148489D01*
X7359737Y45958738D01*
X7335067Y45803616D01*
X7303757Y45724395D01*
X7269127Y45683125D01*
X7196547Y45638534D01*
X7120646Y45631894D01*
X7041426Y45663204D01*
X7000155Y45697834D01*
X6955564Y45770414D01*
X6904333Y45918895D01*
X6887732Y46108646D01*
X6912402Y46263768D01*
X6943711Y46342988D01*
X6978342Y46384259D01*
X7050922Y46428850D01*
X7582226Y46475333D02*
X8113530Y46521816D01*
X7841702Y45694978D01*
X6393266Y43018553D02*
X6323541Y43815509D01*
X6627143Y43842071D01*
X6706364Y43810761D01*
X6747634Y43776131D01*
X6792225Y43703551D01*
X6802186Y43589700D01*
X6770876Y43510479D01*
X6736246Y43469209D01*
X6663666Y43424618D01*
X6360063Y43398056D01*
X7272298Y43898515D02*
X7348198Y43905155D01*
X7427419Y43873845D01*
X7468690Y43839215D01*
X7513280Y43766635D01*
X7564512Y43618154D01*
X7581113Y43428403D01*
X7556443Y43273281D01*
X7525133Y43194060D01*
X7490503Y43152790D01*
X7417923Y43108199D01*
X7342022Y43101559D01*
X7262802Y43132869D01*
X7221531Y43167499D01*
X7176940Y43240079D01*
X7125709Y43388560D01*
X7109108Y43578311D01*
X7133778Y43733433D01*
X7165087Y43812653D01*
X7199718Y43853924D01*
X7272298Y43898515D01*
X8023235Y43620046D02*
X7944014Y43651356D01*
X7902744Y43685986D01*
X7858153Y43758566D01*
X7854833Y43796517D01*
X7886143Y43875737D01*
X7920773Y43917008D01*
X7993353Y43961599D01*
X8145154Y43974880D01*
X8224375Y43943570D01*
X8265645Y43908940D01*
X8310236Y43836359D01*
X8313556Y43798409D01*
X8282247Y43719188D01*
X8247616Y43677918D01*
X8175036Y43633327D01*
X8023235Y43620046D01*
X7950655Y43575456D01*
X7916025Y43534185D01*
X7884715Y43454964D01*
X7897996Y43303163D01*
X7942586Y43230583D01*
X7983857Y43195953D01*
X8063078Y43164643D01*
X8214879Y43177924D01*
X8287459Y43222515D01*
X8322089Y43263785D01*
X8353399Y43343006D01*
X8340118Y43494807D01*
X8295527Y43567387D01*
X8254257Y43602017D01*
X8175036Y43633327D01*
X6614641Y40488219D02*
X6544916Y41285175D01*
X6848518Y41311737D01*
X6927739Y41280427D01*
X6969009Y41245797D01*
X7013600Y41173217D01*
X7023561Y41059366D01*
X6992251Y40980145D01*
X6957621Y40938875D01*
X6885041Y40894284D01*
X6581438Y40867722D01*
X7493673Y41368181D02*
X7569573Y41374821D01*
X7648794Y41343511D01*
X7690065Y41308881D01*
X7734655Y41236301D01*
X7785887Y41087820D01*
X7802488Y40898069D01*
X7777818Y40742947D01*
X7746508Y40663726D01*
X7711878Y40622456D01*
X7639298Y40577865D01*
X7563397Y40571225D01*
X7484177Y40602535D01*
X7442906Y40637165D01*
X7398315Y40709745D01*
X7347084Y40858226D01*
X7330483Y41047977D01*
X7355153Y41203099D01*
X7386462Y41282319D01*
X7421093Y41323590D01*
X7493673Y41368181D01*
X8208552Y40627669D02*
X8360353Y40640949D01*
X8432934Y40685540D01*
X8467564Y40726811D01*
X8533503Y40847302D01*
X8558173Y41002423D01*
X8531611Y41306025D01*
X8487020Y41378606D01*
X8445750Y41413236D01*
X8366529Y41444546D01*
X8214728Y41431265D01*
X8142148Y41386674D01*
X8107518Y41345403D01*
X8076208Y41266183D01*
X8092809Y41076431D01*
X8137400Y41003851D01*
X8178670Y40969221D01*
X8257891Y40937911D01*
X8409692Y40951192D01*
X8482272Y40995783D01*
X8516902Y41037053D01*
X8548212Y41116274D01*
%TD*%
M02*
