%TF.GenerationSoftware,KiCad,Pcbnew,(5.1.9)-1*%
%TF.CreationDate,2021-06-30T20:34:52+02:00*%
%TF.ProjectId,dosidicus_gigas,646f7369-6469-4637-9573-5f6769676173,VERSION_HERE*%
%TF.SameCoordinates,Original*%
%TF.FileFunction,Soldermask,Top*%
%TF.FilePolarity,Negative*%
%FSLAX46Y46*%
G04 Gerber Fmt 4.6, Leading zero omitted, Abs format (unit mm)*
G04 Created by KiCad (PCBNEW (5.1.9)-1) date 2021-06-30 20:34:52*
%MOMM*%
%LPD*%
G01*
G04 APERTURE LIST*
%ADD10C,0.010000*%
%ADD11C,3.529000*%
%ADD12C,1.801800*%
%ADD13C,2.132000*%
%ADD14C,1.852600*%
%ADD15C,1.600000*%
G04 APERTURE END LIST*
D10*
%TO.C,G\u002A\u002A\u002A*%
G36*
X129804762Y-5302306D02*
G01*
X129710254Y-5270655D01*
X129441321Y-5087579D01*
X129229122Y-4746982D01*
X129075014Y-4251366D01*
X129031421Y-4019525D01*
X128940994Y-3650887D01*
X128795909Y-3247147D01*
X128679091Y-2996356D01*
X128410332Y-2492113D01*
X128896218Y-2044556D01*
X129368707Y-1639718D01*
X129759879Y-1372372D01*
X130078862Y-1236858D01*
X130231929Y-1216434D01*
X130376675Y-1191512D01*
X130484026Y-1103913D01*
X130558887Y-933470D01*
X130606161Y-660016D01*
X130630755Y-263385D01*
X130637572Y276590D01*
X130637005Y449039D01*
X130637077Y938201D01*
X130645567Y1286296D01*
X130665299Y1521494D01*
X130699100Y1671969D01*
X130749794Y1765894D01*
X130771498Y1790070D01*
X130975653Y1892417D01*
X131109452Y1893692D01*
X131247938Y1893252D01*
X131322624Y1990005D01*
X131360717Y2146800D01*
X131383605Y2582330D01*
X131313175Y3041533D01*
X131163606Y3441046D01*
X131131003Y3497557D01*
X130976719Y3680071D01*
X130725176Y3908766D01*
X130423695Y4141668D01*
X130337449Y4201464D01*
X129794439Y4617871D01*
X129379661Y5057976D01*
X129056726Y5557334D01*
X128978028Y5743713D01*
X128929011Y5975259D01*
X128903908Y6293842D01*
X128896958Y6717433D01*
X128896333Y7581199D01*
X129231016Y7923933D01*
X129443902Y8113692D01*
X129636434Y8238155D01*
X129729506Y8266667D01*
X129821936Y8250260D01*
X129862044Y8174062D01*
X129859531Y7997606D01*
X129839431Y7808204D01*
X129792414Y7465658D01*
X129737445Y7248742D01*
X129655621Y7114106D01*
X129528039Y7018402D01*
X129484509Y6994264D01*
X129323821Y6815988D01*
X129275214Y6518231D01*
X129339228Y6108916D01*
X129408643Y5879459D01*
X129476101Y5695408D01*
X129552456Y5540933D01*
X129657725Y5399036D01*
X129811927Y5252719D01*
X130035079Y5084983D01*
X130347198Y4878830D01*
X130768303Y4617261D01*
X131213786Y4346588D01*
X131499239Y4173803D01*
X131437974Y4378735D01*
X131386082Y4530986D01*
X131310118Y4706077D01*
X131192744Y4939477D01*
X131016623Y5266654D01*
X130903229Y5472667D01*
X130692415Y5936350D01*
X130583935Y6364719D01*
X130582742Y6726765D01*
X130666648Y6954488D01*
X130860725Y7128800D01*
X131093677Y7147586D01*
X131336966Y7010653D01*
X131389276Y6959361D01*
X131517826Y6790499D01*
X131532571Y6630751D01*
X131492095Y6490795D01*
X131445812Y6312155D01*
X131481851Y6279228D01*
X131487723Y6282597D01*
X131554103Y6269668D01*
X131555418Y6221997D01*
X131571467Y6055354D01*
X131642268Y5857613D01*
X131737072Y5697416D01*
X131815238Y5642000D01*
X131861040Y5721034D01*
X131891545Y5936259D01*
X131902000Y6237386D01*
X131927846Y6686352D01*
X131999027Y7049086D01*
X132106010Y7308001D01*
X132239260Y7445508D01*
X132389241Y7444020D01*
X132503009Y7346056D01*
X132584976Y7205962D01*
X132624425Y7014619D01*
X132628566Y6724097D01*
X132621403Y6558952D01*
X132616407Y6169562D01*
X132660110Y5850497D01*
X132768031Y5506028D01*
X132809688Y5397533D01*
X132935502Y5028989D01*
X133038685Y4640480D01*
X133088467Y4372000D01*
X133112499Y4216571D01*
X133130521Y4192100D01*
X133143653Y4308256D01*
X133153018Y4574709D01*
X133159552Y4984925D01*
X133171691Y5495894D01*
X133197800Y5879002D01*
X133242796Y6175478D01*
X133311594Y6426552D01*
X133341290Y6508925D01*
X133435007Y6773291D01*
X133496504Y6980889D01*
X133510624Y7060167D01*
X133462904Y7161121D01*
X133334078Y7137427D01*
X133145852Y6998990D01*
X132966931Y6812094D01*
X132777909Y6605635D01*
X132680389Y6527649D01*
X132682006Y6576308D01*
X132790394Y6749784D01*
X132854500Y6839014D01*
X133049572Y7050070D01*
X133265188Y7211912D01*
X133279354Y7219547D01*
X133447255Y7293942D01*
X133528835Y7275881D01*
X133566439Y7203842D01*
X133577665Y7035427D01*
X133536724Y6800248D01*
X133525335Y6760686D01*
X133463353Y6521463D01*
X133471640Y6436204D01*
X133550355Y6504736D01*
X133641003Y6634191D01*
X133877167Y6922234D01*
X134107867Y7063952D01*
X134317775Y7053233D01*
X134442460Y6953780D01*
X134488268Y6854990D01*
X134473928Y6708585D01*
X134391746Y6474481D01*
X134316505Y6297613D01*
X134199078Y5994216D01*
X134118436Y5683660D01*
X134063690Y5311433D01*
X134024888Y4837667D01*
X134002031Y4460936D01*
X133985870Y4152987D01*
X133978087Y3948994D01*
X133979299Y3883633D01*
X134030493Y3932293D01*
X134144116Y4081553D01*
X134213462Y4179967D01*
X134384101Y4497042D01*
X134508703Y4860549D01*
X134570065Y5206635D01*
X134556406Y5452754D01*
X134546441Y5696519D01*
X134600781Y6009922D01*
X134700164Y6322970D01*
X134825325Y6565672D01*
X134880175Y6629098D01*
X135011413Y6731151D01*
X135101992Y6710255D01*
X135197122Y6602853D01*
X135362843Y6455044D01*
X135499050Y6391922D01*
X135642517Y6284774D01*
X135762551Y6048225D01*
X135844357Y5721988D01*
X135863366Y5500583D01*
X135770339Y5500583D01*
X135670376Y6001275D01*
X135639007Y6086500D01*
X135536437Y6278920D01*
X135461734Y6313799D01*
X135437783Y6202858D01*
X135474530Y6002265D01*
X135528404Y5559726D01*
X135480528Y5049580D01*
X135338100Y4533850D01*
X135290384Y4415524D01*
X135108225Y3993381D01*
X135323315Y4195447D01*
X135589839Y4555921D01*
X135741171Y5004882D01*
X135770339Y5500583D01*
X135863366Y5500583D01*
X135873032Y5388000D01*
X135800983Y4895864D01*
X135570126Y4398704D01*
X135176169Y3887471D01*
X135145325Y3854085D01*
X134738333Y3417774D01*
X135181494Y3641635D01*
X135566893Y3906658D01*
X135828330Y4261454D01*
X135985124Y4733351D01*
X135997132Y4795334D01*
X136091237Y5112311D01*
X136236733Y5387529D01*
X136405373Y5578154D01*
X136555470Y5642000D01*
X136755145Y5566207D01*
X136896782Y5366032D01*
X136959578Y5082283D01*
X136948156Y4871674D01*
X136863230Y4556710D01*
X136713609Y4181865D01*
X136531543Y3817460D01*
X136349281Y3533820D01*
X136316181Y3493588D01*
X136236400Y3391299D01*
X136265140Y3361428D01*
X136428289Y3388288D01*
X136474000Y3397952D01*
X136919726Y3543467D01*
X137253508Y3779556D01*
X137455545Y4030052D01*
X137626791Y4407762D01*
X137721815Y4869247D01*
X137731936Y5343002D01*
X137660936Y5721809D01*
X137603428Y5938297D01*
X137614068Y6108368D01*
X137703725Y6312487D01*
X137752748Y6401464D01*
X137951913Y6755832D01*
X138103031Y6569210D01*
X138283551Y6239923D01*
X138305880Y5906855D01*
X138301050Y5891551D01*
X138227648Y5891551D01*
X138226663Y6061407D01*
X138144524Y6271671D01*
X138132783Y6296435D01*
X137985105Y6606119D01*
X137813925Y6335759D01*
X137704282Y6122288D01*
X137695652Y5939603D01*
X137735706Y5798732D01*
X137812082Y5416219D01*
X137819434Y4965508D01*
X137761156Y4527821D01*
X137670765Y4244274D01*
X137411851Y3840840D01*
X137060941Y3530024D01*
X136659219Y3345676D01*
X136548967Y3322226D01*
X136270261Y3246762D01*
X135909988Y3106245D01*
X135512202Y2922926D01*
X135120959Y2719054D01*
X134780314Y2516877D01*
X134534324Y2338645D01*
X134463587Y2269061D01*
X134340063Y2144398D01*
X134275701Y2122000D01*
X134273087Y2133660D01*
X134345859Y2284226D01*
X134544622Y2474130D01*
X134838319Y2679379D01*
X135195897Y2875982D01*
X135292941Y2921563D01*
X135881306Y3273473D01*
X136344570Y3736209D01*
X136675879Y4302592D01*
X136722448Y4418930D01*
X136829703Y4797830D01*
X136861906Y5134951D01*
X136819003Y5391670D01*
X136723963Y5517495D01*
X136545356Y5544452D01*
X136369054Y5421142D01*
X136208520Y5166264D01*
X136077219Y4798516D01*
X136019446Y4539116D01*
X135865247Y4143741D01*
X135567246Y3795396D01*
X135149574Y3519400D01*
X134974084Y3442442D01*
X134428129Y3141172D01*
X134111253Y2859924D01*
X133924942Y2674809D01*
X133834418Y2611304D01*
X133845796Y2673626D01*
X133848390Y2678667D01*
X133953610Y2831255D01*
X134144988Y3065977D01*
X134390128Y3344063D01*
X134534046Y3499238D01*
X134826507Y3822420D01*
X135024949Y4084601D01*
X135162129Y4337039D01*
X135270803Y4630990D01*
X135283742Y4672323D01*
X135398124Y5084674D01*
X135446715Y5406923D01*
X135431599Y5704103D01*
X135354860Y6041246D01*
X135330334Y6125830D01*
X135207596Y6434942D01*
X135078225Y6584862D01*
X134951389Y6584991D01*
X134836258Y6444731D01*
X134742001Y6173485D01*
X134677787Y5780653D01*
X134655483Y5433845D01*
X134614741Y4928880D01*
X134513760Y4533763D01*
X134331641Y4193643D01*
X134057320Y3864000D01*
X133837038Y3599059D01*
X133621545Y3289521D01*
X133559669Y3186667D01*
X133440525Y2996947D01*
X133361527Y2909722D01*
X133342353Y2925254D01*
X133385143Y3057497D01*
X133496856Y3275589D01*
X133612083Y3466770D01*
X133733350Y3668163D01*
X133815519Y3852099D01*
X133869394Y4063371D01*
X133905775Y4346774D01*
X133935466Y4747102D01*
X133940554Y4828849D01*
X133980341Y5324468D01*
X134036632Y5705752D01*
X134120007Y6027591D01*
X134225909Y6309329D01*
X134352675Y6647339D01*
X134391988Y6856453D01*
X134365401Y6937799D01*
X134217276Y6979982D01*
X134020139Y6901568D01*
X133813894Y6726075D01*
X133665383Y6525241D01*
X133532346Y6340756D01*
X133441508Y6303413D01*
X133425617Y6319953D01*
X133381955Y6321059D01*
X133360316Y6186313D01*
X133360120Y6178249D01*
X133357592Y6107667D01*
X133341333Y6107667D01*
X133299000Y6150000D01*
X133256666Y6107667D01*
X133299000Y6065334D01*
X133341333Y6107667D01*
X133357592Y6107667D01*
X133340418Y5628193D01*
X133305124Y5071982D01*
X133257775Y4541980D01*
X133201911Y4070552D01*
X133141070Y3690063D01*
X133078791Y3432879D01*
X133052995Y3369299D01*
X132948871Y3198542D01*
X132873560Y3126239D01*
X132862564Y3129214D01*
X132863611Y3227497D01*
X132911140Y3343183D01*
X132995296Y3636745D01*
X133009718Y4037813D01*
X132958286Y4501399D01*
X132844877Y4982513D01*
X132744988Y5270261D01*
X132607812Y5643554D01*
X132532537Y5946165D01*
X132504619Y6258508D01*
X132507079Y6585641D01*
X132500699Y7022070D01*
X132450595Y7295938D01*
X132356404Y7408373D01*
X132251179Y7384164D01*
X132127146Y7218096D01*
X132044016Y6919102D01*
X132003036Y6518882D01*
X132005454Y6049135D01*
X132052516Y5541560D01*
X132057321Y5515000D01*
X131817333Y5515000D01*
X131775000Y5557334D01*
X131732666Y5515000D01*
X131775000Y5472667D01*
X131817333Y5515000D01*
X132057321Y5515000D01*
X132145470Y5027856D01*
X132156593Y4980470D01*
X132264432Y4476610D01*
X132314264Y4078178D01*
X132308633Y3740310D01*
X132232344Y3740310D01*
X132157197Y3761231D01*
X132083729Y3740934D01*
X131944011Y3726291D01*
X131902528Y3831085D01*
X131902000Y3858295D01*
X131940851Y4010682D01*
X132047611Y4009248D01*
X132121125Y3949675D01*
X132193237Y3937003D01*
X132217486Y4034640D01*
X132197944Y4153052D01*
X132082597Y4164581D01*
X132023760Y4151453D01*
X131869544Y4137714D01*
X131819326Y4227794D01*
X131817333Y4278155D01*
X131850097Y4420660D01*
X131899343Y4456667D01*
X131944694Y4392285D01*
X131930285Y4308500D01*
X131910949Y4223548D01*
X131966928Y4271321D01*
X132014917Y4329667D01*
X132135307Y4514580D01*
X132119087Y4602060D01*
X131965142Y4596233D01*
X131944333Y4591232D01*
X131780284Y4578684D01*
X131732666Y4661724D01*
X131783630Y4806561D01*
X131817333Y4837667D01*
X131893952Y4822721D01*
X131903296Y4779164D01*
X131925384Y4722090D01*
X131983494Y4793099D01*
X132010951Y4930922D01*
X131971350Y4974133D01*
X131926366Y5082009D01*
X131946568Y5137616D01*
X131966402Y5204356D01*
X131900693Y5175526D01*
X131824084Y5156671D01*
X131839932Y5240104D01*
X131825868Y5378637D01*
X131769654Y5420669D01*
X131660497Y5530072D01*
X131648000Y5587951D01*
X131580151Y5723553D01*
X131531691Y5753182D01*
X131428885Y5870798D01*
X131363133Y6088458D01*
X131345208Y6338924D01*
X131385884Y6554957D01*
X131398833Y6582364D01*
X131450331Y6706830D01*
X131402447Y6705554D01*
X131326053Y6721548D01*
X131309333Y6808226D01*
X131253066Y7004907D01*
X131113365Y7085327D01*
X130933883Y7045134D01*
X130758272Y6879973D01*
X130747662Y6864245D01*
X130667376Y6710154D01*
X130647787Y6545976D01*
X130684789Y6306042D01*
X130706632Y6208079D01*
X130804708Y5905811D01*
X130962361Y5544013D01*
X131135485Y5218667D01*
X131306833Y4904531D01*
X131445194Y4602992D01*
X131521475Y4377669D01*
X131522652Y4372000D01*
X131592932Y4133955D01*
X131683069Y3956890D01*
X131689681Y3948667D01*
X131794772Y3795934D01*
X131928259Y3566684D01*
X131972850Y3483000D01*
X132075780Y3310097D01*
X132141487Y3248445D01*
X132153414Y3271334D01*
X132178691Y3452491D01*
X132211885Y3598473D01*
X132232344Y3740310D01*
X132308633Y3740310D01*
X132308501Y3732415D01*
X132249556Y3386560D01*
X132232651Y3316911D01*
X132139969Y2948838D01*
X131870491Y3469400D01*
X131751822Y3686927D01*
X131634125Y3858892D01*
X131487530Y4012608D01*
X131282163Y4175391D01*
X130988153Y4374554D01*
X130632064Y4601801D01*
X130139146Y4927521D01*
X129777644Y5208136D01*
X129525821Y5470778D01*
X129361943Y5742582D01*
X129264273Y6050681D01*
X129216260Y6369196D01*
X129193908Y6648494D01*
X129211818Y6820485D01*
X129288097Y6945744D01*
X129426579Y7072784D01*
X129600402Y7258398D01*
X129698286Y7485174D01*
X129744005Y7737500D01*
X129766644Y8023235D01*
X129730146Y8157162D01*
X129618514Y8146782D01*
X129415745Y7999598D01*
X129334383Y7929564D01*
X129191166Y7793142D01*
X129100991Y7660291D01*
X129046696Y7483470D01*
X129011119Y7215134D01*
X128990540Y6977064D01*
X128977526Y6370831D01*
X129055274Y5872323D01*
X129236207Y5439141D01*
X129532750Y5028886D01*
X129575605Y4980394D01*
X129860602Y4696564D01*
X130190457Y4415049D01*
X130400268Y4260936D01*
X130671523Y4067944D01*
X130910511Y3877009D01*
X131030126Y3765446D01*
X131257159Y3435655D01*
X131418862Y3036183D01*
X131479963Y2660220D01*
X131507763Y2426446D01*
X131572616Y2255334D01*
X131636885Y2178607D01*
X131624218Y2251513D01*
X131616311Y2276500D01*
X131603262Y2497101D01*
X131702907Y2644521D01*
X131824778Y2678667D01*
X131962160Y2608054D01*
X132040841Y2432269D01*
X132046941Y2358781D01*
X131897656Y2358781D01*
X131833791Y2424417D01*
X131827203Y2424667D01*
X131757274Y2352350D01*
X131711803Y2212260D01*
X131697856Y2070490D01*
X131749410Y2067387D01*
X131786599Y2095627D01*
X131879020Y2225641D01*
X131897656Y2358781D01*
X132046941Y2358781D01*
X132059676Y2205390D01*
X132017523Y1981495D01*
X131941716Y1860222D01*
X131789111Y1860222D01*
X131777489Y1910557D01*
X131732666Y1916667D01*
X131662976Y1885689D01*
X131676222Y1860222D01*
X131776702Y1850089D01*
X131789111Y1860222D01*
X131941716Y1860222D01*
X131913237Y1814663D01*
X131843956Y1771923D01*
X131681278Y1794509D01*
X131550146Y1911928D01*
X131440060Y2039303D01*
X131399618Y2037825D01*
X131394000Y1931812D01*
X131471217Y1755267D01*
X131679327Y1563833D01*
X131983016Y1375016D01*
X132346970Y1206322D01*
X132735877Y1075259D01*
X133114423Y999331D01*
X133299000Y987429D01*
X133541459Y992844D01*
X133692042Y1035638D01*
X133806753Y1151451D01*
X133941597Y1375921D01*
X133959476Y1407731D01*
X134146028Y1688890D01*
X134359612Y1939046D01*
X134469884Y2038386D01*
X134786212Y2244979D01*
X135140236Y2423320D01*
X135473829Y2547618D01*
X135717799Y2592141D01*
X136202284Y2666841D01*
X136700241Y2865029D01*
X137147818Y3159546D01*
X137237346Y3238452D01*
X137648072Y3729478D01*
X137905220Y4286700D01*
X138003520Y4883230D01*
X138038374Y5218189D01*
X138108312Y5541904D01*
X138150113Y5666209D01*
X138227648Y5891551D01*
X138301050Y5891551D01*
X138253713Y5741590D01*
X138189391Y5526627D01*
X138139944Y5226655D01*
X138124092Y5043941D01*
X138016820Y4353985D01*
X137777326Y3757870D01*
X137411479Y3265581D01*
X136925151Y2887106D01*
X136823570Y2830950D01*
X136369490Y2593735D01*
X136634190Y2540796D01*
X136801538Y2467000D01*
X136474000Y2467000D01*
X136431666Y2509334D01*
X136389333Y2467000D01*
X136431666Y2424667D01*
X136474000Y2467000D01*
X136801538Y2467000D01*
X136919727Y2414882D01*
X137206749Y2178923D01*
X137331482Y2025603D01*
X137222352Y2025603D01*
X137201751Y2072918D01*
X137116501Y2163812D01*
X137067491Y2145166D01*
X137066666Y2133330D01*
X137126803Y2061718D01*
X137164415Y2035582D01*
X137222352Y2025603D01*
X137331482Y2025603D01*
X137446268Y1884510D01*
X137589300Y1583233D01*
X137595572Y1554620D01*
X137446806Y1554620D01*
X137435797Y1682691D01*
X137393667Y1697790D01*
X137324287Y1714091D01*
X137320666Y1738488D01*
X137265297Y1845810D01*
X137133588Y2007467D01*
X136977136Y2166867D01*
X136847539Y2267414D01*
X136831909Y2274576D01*
X136788077Y2350660D01*
X136788901Y2353371D01*
X136730925Y2381372D01*
X136565395Y2370922D01*
X136563484Y2370623D01*
X136371128Y2370171D01*
X136264753Y2420752D01*
X136144818Y2505390D01*
X136114154Y2509334D01*
X136095683Y2470001D01*
X136174310Y2395257D01*
X136269580Y2297667D01*
X136135333Y2297667D01*
X136093000Y2340000D01*
X136050666Y2297667D01*
X136093000Y2255334D01*
X136135333Y2297667D01*
X136269580Y2297667D01*
X136273870Y2293273D01*
X136227842Y2217954D01*
X136221209Y2213747D01*
X136086081Y2222743D01*
X135947035Y2348990D01*
X135850767Y2457142D01*
X135832063Y2455490D01*
X135837019Y2445236D01*
X135832010Y2382334D01*
X135712000Y2382334D01*
X135669666Y2424667D01*
X135627333Y2382334D01*
X135669666Y2340000D01*
X135712000Y2382334D01*
X135832010Y2382334D01*
X135828510Y2338403D01*
X135724456Y2279233D01*
X135597071Y2292351D01*
X135540185Y2344016D01*
X135467950Y2399877D01*
X135340732Y2390621D01*
X135134017Y2307831D01*
X134823295Y2143087D01*
X134625853Y2030016D01*
X134387788Y1879277D01*
X134301586Y1798445D01*
X134362017Y1794217D01*
X134563852Y1873287D01*
X134698292Y1937271D01*
X135197259Y2100978D01*
X135684957Y2107462D01*
X136135375Y1965874D01*
X136522499Y1685361D01*
X136820320Y1275073D01*
X136868823Y1173864D01*
X136986752Y924108D01*
X137073615Y803734D01*
X137158925Y784003D01*
X137236202Y816108D01*
X137376122Y974958D01*
X137416139Y1136479D01*
X137432225Y1389042D01*
X137446806Y1554620D01*
X137595572Y1554620D01*
X137603079Y1520382D01*
X137613714Y1281667D01*
X137574666Y1281667D01*
X137532333Y1324000D01*
X137490000Y1281667D01*
X137532333Y1239334D01*
X137574666Y1281667D01*
X137613714Y1281667D01*
X137614143Y1272045D01*
X137533832Y1060907D01*
X137437155Y921693D01*
X137235895Y718567D01*
X137065908Y681657D01*
X136923418Y811624D01*
X136829286Y1028206D01*
X136612901Y1471757D01*
X136297943Y1778514D01*
X135882005Y1950013D01*
X135362674Y1987789D01*
X135326722Y1985745D01*
X134847340Y1895149D01*
X134425333Y1701424D01*
X134102107Y1427244D01*
X133980463Y1248506D01*
X133914301Y1087306D01*
X133957149Y997146D01*
X134049190Y944181D01*
X134201319Y790095D01*
X134244485Y663324D01*
X134173313Y663324D01*
X134147701Y758885D01*
X134080751Y820430D01*
X133937834Y859093D01*
X133684319Y886008D01*
X133426000Y903601D01*
X132647807Y1027482D01*
X131953234Y1294277D01*
X131453028Y1616758D01*
X131177802Y1789071D01*
X130970076Y1812732D01*
X130817319Y1688314D01*
X130792952Y1647007D01*
X130741466Y1437679D01*
X130724418Y1065502D01*
X130738131Y596285D01*
X130754512Y42790D01*
X130732519Y-410939D01*
X130660538Y-817901D01*
X130526953Y-1231096D01*
X130320150Y-1703523D01*
X130164703Y-2020333D01*
X129937319Y-2492934D01*
X129781004Y-2874733D01*
X129677256Y-3218629D01*
X129607570Y-3577522D01*
X129598435Y-3639242D01*
X129553644Y-4191910D01*
X129596443Y-4604475D01*
X129725502Y-4875161D01*
X129939492Y-5002193D01*
X130237083Y-4983793D01*
X130520312Y-4870452D01*
X130760255Y-4709438D01*
X131057063Y-4455963D01*
X131366366Y-4153303D01*
X131643789Y-3844731D01*
X131836671Y-3586666D01*
X131921658Y-3415328D01*
X132038324Y-3129987D01*
X132167816Y-2778258D01*
X132237293Y-2574906D01*
X132498562Y-1864443D01*
X132777850Y-1275996D01*
X133101972Y-762477D01*
X133497742Y-276795D01*
X133622979Y-141563D01*
X133912785Y178155D01*
X134089259Y410298D01*
X134167768Y577339D01*
X134173313Y663324D01*
X134244485Y663324D01*
X134256764Y627266D01*
X134246556Y498521D01*
X134174630Y345052D01*
X134022812Y139794D01*
X133772927Y-144316D01*
X133648279Y-278793D01*
X133209375Y-793108D01*
X132873201Y-1281798D01*
X132746653Y-1516553D01*
X132611597Y-1809041D01*
X132545871Y-1992335D01*
X132541828Y-2108066D01*
X132591819Y-2197863D01*
X132616294Y-2226064D01*
X132711079Y-2402468D01*
X132806428Y-2696874D01*
X132891481Y-3058336D01*
X132955373Y-3435907D01*
X132987243Y-3778641D01*
X132985751Y-3947897D01*
X132910975Y-3947897D01*
X132889095Y-3669527D01*
X132839488Y-3326857D01*
X132770465Y-2969450D01*
X132690333Y-2646867D01*
X132613513Y-2422458D01*
X132476122Y-2105000D01*
X132251168Y-2790750D01*
X132117951Y-3150699D01*
X131968408Y-3484340D01*
X131830799Y-3729852D01*
X131806069Y-3764417D01*
X131397470Y-4247824D01*
X130993821Y-4630713D01*
X130610363Y-4905030D01*
X130262338Y-5062723D01*
X129964985Y-5095740D01*
X129733546Y-4996027D01*
X129652661Y-4902226D01*
X129506147Y-4538462D01*
X129459647Y-4070794D01*
X129509388Y-3529120D01*
X129651602Y-2943335D01*
X129882517Y-2343338D01*
X130007346Y-2089923D01*
X130168301Y-1780432D01*
X130293970Y-1530576D01*
X130366809Y-1375662D01*
X130378000Y-1343911D01*
X130307577Y-1302891D01*
X130127966Y-1321506D01*
X129899031Y-1390391D01*
X129722012Y-1492654D01*
X129477334Y-1677717D01*
X129215516Y-1907107D01*
X129194885Y-1926658D01*
X128955625Y-2146387D01*
X128753495Y-2316770D01*
X128627185Y-2405462D01*
X128616951Y-2409794D01*
X128577548Y-2476175D01*
X128618993Y-2637964D01*
X128747251Y-2916965D01*
X128765527Y-2953027D01*
X128920471Y-3316626D01*
X129059239Y-3743769D01*
X129136200Y-4066371D01*
X129255055Y-4556706D01*
X129408200Y-4900571D01*
X129607452Y-5119334D01*
X129765290Y-5203808D01*
X129934953Y-5248598D01*
X130118132Y-5245088D01*
X130346426Y-5184280D01*
X130651433Y-5057177D01*
X131064751Y-4854782D01*
X131157523Y-4807386D01*
X131541007Y-4626684D01*
X131932778Y-4468561D01*
X132267978Y-4358339D01*
X132371762Y-4333320D01*
X132650100Y-4258188D01*
X132841572Y-4169187D01*
X132896820Y-4112405D01*
X132910975Y-3947897D01*
X132985751Y-3947897D01*
X132985658Y-3958355D01*
X132960333Y-4300991D01*
X132367666Y-4435956D01*
X132018972Y-4539607D01*
X131596413Y-4700561D01*
X131172144Y-4890373D01*
X131018527Y-4967794D01*
X130637469Y-5163310D01*
X130364918Y-5285409D01*
X130161519Y-5343201D01*
X129987918Y-5345797D01*
X129804762Y-5302306D01*
G37*
X129804762Y-5302306D02*
X129710254Y-5270655D01*
X129441321Y-5087579D01*
X129229122Y-4746982D01*
X129075014Y-4251366D01*
X129031421Y-4019525D01*
X128940994Y-3650887D01*
X128795909Y-3247147D01*
X128679091Y-2996356D01*
X128410332Y-2492113D01*
X128896218Y-2044556D01*
X129368707Y-1639718D01*
X129759879Y-1372372D01*
X130078862Y-1236858D01*
X130231929Y-1216434D01*
X130376675Y-1191512D01*
X130484026Y-1103913D01*
X130558887Y-933470D01*
X130606161Y-660016D01*
X130630755Y-263385D01*
X130637572Y276590D01*
X130637005Y449039D01*
X130637077Y938201D01*
X130645567Y1286296D01*
X130665299Y1521494D01*
X130699100Y1671969D01*
X130749794Y1765894D01*
X130771498Y1790070D01*
X130975653Y1892417D01*
X131109452Y1893692D01*
X131247938Y1893252D01*
X131322624Y1990005D01*
X131360717Y2146800D01*
X131383605Y2582330D01*
X131313175Y3041533D01*
X131163606Y3441046D01*
X131131003Y3497557D01*
X130976719Y3680071D01*
X130725176Y3908766D01*
X130423695Y4141668D01*
X130337449Y4201464D01*
X129794439Y4617871D01*
X129379661Y5057976D01*
X129056726Y5557334D01*
X128978028Y5743713D01*
X128929011Y5975259D01*
X128903908Y6293842D01*
X128896958Y6717433D01*
X128896333Y7581199D01*
X129231016Y7923933D01*
X129443902Y8113692D01*
X129636434Y8238155D01*
X129729506Y8266667D01*
X129821936Y8250260D01*
X129862044Y8174062D01*
X129859531Y7997606D01*
X129839431Y7808204D01*
X129792414Y7465658D01*
X129737445Y7248742D01*
X129655621Y7114106D01*
X129528039Y7018402D01*
X129484509Y6994264D01*
X129323821Y6815988D01*
X129275214Y6518231D01*
X129339228Y6108916D01*
X129408643Y5879459D01*
X129476101Y5695408D01*
X129552456Y5540933D01*
X129657725Y5399036D01*
X129811927Y5252719D01*
X130035079Y5084983D01*
X130347198Y4878830D01*
X130768303Y4617261D01*
X131213786Y4346588D01*
X131499239Y4173803D01*
X131437974Y4378735D01*
X131386082Y4530986D01*
X131310118Y4706077D01*
X131192744Y4939477D01*
X131016623Y5266654D01*
X130903229Y5472667D01*
X130692415Y5936350D01*
X130583935Y6364719D01*
X130582742Y6726765D01*
X130666648Y6954488D01*
X130860725Y7128800D01*
X131093677Y7147586D01*
X131336966Y7010653D01*
X131389276Y6959361D01*
X131517826Y6790499D01*
X131532571Y6630751D01*
X131492095Y6490795D01*
X131445812Y6312155D01*
X131481851Y6279228D01*
X131487723Y6282597D01*
X131554103Y6269668D01*
X131555418Y6221997D01*
X131571467Y6055354D01*
X131642268Y5857613D01*
X131737072Y5697416D01*
X131815238Y5642000D01*
X131861040Y5721034D01*
X131891545Y5936259D01*
X131902000Y6237386D01*
X131927846Y6686352D01*
X131999027Y7049086D01*
X132106010Y7308001D01*
X132239260Y7445508D01*
X132389241Y7444020D01*
X132503009Y7346056D01*
X132584976Y7205962D01*
X132624425Y7014619D01*
X132628566Y6724097D01*
X132621403Y6558952D01*
X132616407Y6169562D01*
X132660110Y5850497D01*
X132768031Y5506028D01*
X132809688Y5397533D01*
X132935502Y5028989D01*
X133038685Y4640480D01*
X133088467Y4372000D01*
X133112499Y4216571D01*
X133130521Y4192100D01*
X133143653Y4308256D01*
X133153018Y4574709D01*
X133159552Y4984925D01*
X133171691Y5495894D01*
X133197800Y5879002D01*
X133242796Y6175478D01*
X133311594Y6426552D01*
X133341290Y6508925D01*
X133435007Y6773291D01*
X133496504Y6980889D01*
X133510624Y7060167D01*
X133462904Y7161121D01*
X133334078Y7137427D01*
X133145852Y6998990D01*
X132966931Y6812094D01*
X132777909Y6605635D01*
X132680389Y6527649D01*
X132682006Y6576308D01*
X132790394Y6749784D01*
X132854500Y6839014D01*
X133049572Y7050070D01*
X133265188Y7211912D01*
X133279354Y7219547D01*
X133447255Y7293942D01*
X133528835Y7275881D01*
X133566439Y7203842D01*
X133577665Y7035427D01*
X133536724Y6800248D01*
X133525335Y6760686D01*
X133463353Y6521463D01*
X133471640Y6436204D01*
X133550355Y6504736D01*
X133641003Y6634191D01*
X133877167Y6922234D01*
X134107867Y7063952D01*
X134317775Y7053233D01*
X134442460Y6953780D01*
X134488268Y6854990D01*
X134473928Y6708585D01*
X134391746Y6474481D01*
X134316505Y6297613D01*
X134199078Y5994216D01*
X134118436Y5683660D01*
X134063690Y5311433D01*
X134024888Y4837667D01*
X134002031Y4460936D01*
X133985870Y4152987D01*
X133978087Y3948994D01*
X133979299Y3883633D01*
X134030493Y3932293D01*
X134144116Y4081553D01*
X134213462Y4179967D01*
X134384101Y4497042D01*
X134508703Y4860549D01*
X134570065Y5206635D01*
X134556406Y5452754D01*
X134546441Y5696519D01*
X134600781Y6009922D01*
X134700164Y6322970D01*
X134825325Y6565672D01*
X134880175Y6629098D01*
X135011413Y6731151D01*
X135101992Y6710255D01*
X135197122Y6602853D01*
X135362843Y6455044D01*
X135499050Y6391922D01*
X135642517Y6284774D01*
X135762551Y6048225D01*
X135844357Y5721988D01*
X135863366Y5500583D01*
X135770339Y5500583D01*
X135670376Y6001275D01*
X135639007Y6086500D01*
X135536437Y6278920D01*
X135461734Y6313799D01*
X135437783Y6202858D01*
X135474530Y6002265D01*
X135528404Y5559726D01*
X135480528Y5049580D01*
X135338100Y4533850D01*
X135290384Y4415524D01*
X135108225Y3993381D01*
X135323315Y4195447D01*
X135589839Y4555921D01*
X135741171Y5004882D01*
X135770339Y5500583D01*
X135863366Y5500583D01*
X135873032Y5388000D01*
X135800983Y4895864D01*
X135570126Y4398704D01*
X135176169Y3887471D01*
X135145325Y3854085D01*
X134738333Y3417774D01*
X135181494Y3641635D01*
X135566893Y3906658D01*
X135828330Y4261454D01*
X135985124Y4733351D01*
X135997132Y4795334D01*
X136091237Y5112311D01*
X136236733Y5387529D01*
X136405373Y5578154D01*
X136555470Y5642000D01*
X136755145Y5566207D01*
X136896782Y5366032D01*
X136959578Y5082283D01*
X136948156Y4871674D01*
X136863230Y4556710D01*
X136713609Y4181865D01*
X136531543Y3817460D01*
X136349281Y3533820D01*
X136316181Y3493588D01*
X136236400Y3391299D01*
X136265140Y3361428D01*
X136428289Y3388288D01*
X136474000Y3397952D01*
X136919726Y3543467D01*
X137253508Y3779556D01*
X137455545Y4030052D01*
X137626791Y4407762D01*
X137721815Y4869247D01*
X137731936Y5343002D01*
X137660936Y5721809D01*
X137603428Y5938297D01*
X137614068Y6108368D01*
X137703725Y6312487D01*
X137752748Y6401464D01*
X137951913Y6755832D01*
X138103031Y6569210D01*
X138283551Y6239923D01*
X138305880Y5906855D01*
X138301050Y5891551D01*
X138227648Y5891551D01*
X138226663Y6061407D01*
X138144524Y6271671D01*
X138132783Y6296435D01*
X137985105Y6606119D01*
X137813925Y6335759D01*
X137704282Y6122288D01*
X137695652Y5939603D01*
X137735706Y5798732D01*
X137812082Y5416219D01*
X137819434Y4965508D01*
X137761156Y4527821D01*
X137670765Y4244274D01*
X137411851Y3840840D01*
X137060941Y3530024D01*
X136659219Y3345676D01*
X136548967Y3322226D01*
X136270261Y3246762D01*
X135909988Y3106245D01*
X135512202Y2922926D01*
X135120959Y2719054D01*
X134780314Y2516877D01*
X134534324Y2338645D01*
X134463587Y2269061D01*
X134340063Y2144398D01*
X134275701Y2122000D01*
X134273087Y2133660D01*
X134345859Y2284226D01*
X134544622Y2474130D01*
X134838319Y2679379D01*
X135195897Y2875982D01*
X135292941Y2921563D01*
X135881306Y3273473D01*
X136344570Y3736209D01*
X136675879Y4302592D01*
X136722448Y4418930D01*
X136829703Y4797830D01*
X136861906Y5134951D01*
X136819003Y5391670D01*
X136723963Y5517495D01*
X136545356Y5544452D01*
X136369054Y5421142D01*
X136208520Y5166264D01*
X136077219Y4798516D01*
X136019446Y4539116D01*
X135865247Y4143741D01*
X135567246Y3795396D01*
X135149574Y3519400D01*
X134974084Y3442442D01*
X134428129Y3141172D01*
X134111253Y2859924D01*
X133924942Y2674809D01*
X133834418Y2611304D01*
X133845796Y2673626D01*
X133848390Y2678667D01*
X133953610Y2831255D01*
X134144988Y3065977D01*
X134390128Y3344063D01*
X134534046Y3499238D01*
X134826507Y3822420D01*
X135024949Y4084601D01*
X135162129Y4337039D01*
X135270803Y4630990D01*
X135283742Y4672323D01*
X135398124Y5084674D01*
X135446715Y5406923D01*
X135431599Y5704103D01*
X135354860Y6041246D01*
X135330334Y6125830D01*
X135207596Y6434942D01*
X135078225Y6584862D01*
X134951389Y6584991D01*
X134836258Y6444731D01*
X134742001Y6173485D01*
X134677787Y5780653D01*
X134655483Y5433845D01*
X134614741Y4928880D01*
X134513760Y4533763D01*
X134331641Y4193643D01*
X134057320Y3864000D01*
X133837038Y3599059D01*
X133621545Y3289521D01*
X133559669Y3186667D01*
X133440525Y2996947D01*
X133361527Y2909722D01*
X133342353Y2925254D01*
X133385143Y3057497D01*
X133496856Y3275589D01*
X133612083Y3466770D01*
X133733350Y3668163D01*
X133815519Y3852099D01*
X133869394Y4063371D01*
X133905775Y4346774D01*
X133935466Y4747102D01*
X133940554Y4828849D01*
X133980341Y5324468D01*
X134036632Y5705752D01*
X134120007Y6027591D01*
X134225909Y6309329D01*
X134352675Y6647339D01*
X134391988Y6856453D01*
X134365401Y6937799D01*
X134217276Y6979982D01*
X134020139Y6901568D01*
X133813894Y6726075D01*
X133665383Y6525241D01*
X133532346Y6340756D01*
X133441508Y6303413D01*
X133425617Y6319953D01*
X133381955Y6321059D01*
X133360316Y6186313D01*
X133360120Y6178249D01*
X133357592Y6107667D01*
X133341333Y6107667D01*
X133299000Y6150000D01*
X133256666Y6107667D01*
X133299000Y6065334D01*
X133341333Y6107667D01*
X133357592Y6107667D01*
X133340418Y5628193D01*
X133305124Y5071982D01*
X133257775Y4541980D01*
X133201911Y4070552D01*
X133141070Y3690063D01*
X133078791Y3432879D01*
X133052995Y3369299D01*
X132948871Y3198542D01*
X132873560Y3126239D01*
X132862564Y3129214D01*
X132863611Y3227497D01*
X132911140Y3343183D01*
X132995296Y3636745D01*
X133009718Y4037813D01*
X132958286Y4501399D01*
X132844877Y4982513D01*
X132744988Y5270261D01*
X132607812Y5643554D01*
X132532537Y5946165D01*
X132504619Y6258508D01*
X132507079Y6585641D01*
X132500699Y7022070D01*
X132450595Y7295938D01*
X132356404Y7408373D01*
X132251179Y7384164D01*
X132127146Y7218096D01*
X132044016Y6919102D01*
X132003036Y6518882D01*
X132005454Y6049135D01*
X132052516Y5541560D01*
X132057321Y5515000D01*
X131817333Y5515000D01*
X131775000Y5557334D01*
X131732666Y5515000D01*
X131775000Y5472667D01*
X131817333Y5515000D01*
X132057321Y5515000D01*
X132145470Y5027856D01*
X132156593Y4980470D01*
X132264432Y4476610D01*
X132314264Y4078178D01*
X132308633Y3740310D01*
X132232344Y3740310D01*
X132157197Y3761231D01*
X132083729Y3740934D01*
X131944011Y3726291D01*
X131902528Y3831085D01*
X131902000Y3858295D01*
X131940851Y4010682D01*
X132047611Y4009248D01*
X132121125Y3949675D01*
X132193237Y3937003D01*
X132217486Y4034640D01*
X132197944Y4153052D01*
X132082597Y4164581D01*
X132023760Y4151453D01*
X131869544Y4137714D01*
X131819326Y4227794D01*
X131817333Y4278155D01*
X131850097Y4420660D01*
X131899343Y4456667D01*
X131944694Y4392285D01*
X131930285Y4308500D01*
X131910949Y4223548D01*
X131966928Y4271321D01*
X132014917Y4329667D01*
X132135307Y4514580D01*
X132119087Y4602060D01*
X131965142Y4596233D01*
X131944333Y4591232D01*
X131780284Y4578684D01*
X131732666Y4661724D01*
X131783630Y4806561D01*
X131817333Y4837667D01*
X131893952Y4822721D01*
X131903296Y4779164D01*
X131925384Y4722090D01*
X131983494Y4793099D01*
X132010951Y4930922D01*
X131971350Y4974133D01*
X131926366Y5082009D01*
X131946568Y5137616D01*
X131966402Y5204356D01*
X131900693Y5175526D01*
X131824084Y5156671D01*
X131839932Y5240104D01*
X131825868Y5378637D01*
X131769654Y5420669D01*
X131660497Y5530072D01*
X131648000Y5587951D01*
X131580151Y5723553D01*
X131531691Y5753182D01*
X131428885Y5870798D01*
X131363133Y6088458D01*
X131345208Y6338924D01*
X131385884Y6554957D01*
X131398833Y6582364D01*
X131450331Y6706830D01*
X131402447Y6705554D01*
X131326053Y6721548D01*
X131309333Y6808226D01*
X131253066Y7004907D01*
X131113365Y7085327D01*
X130933883Y7045134D01*
X130758272Y6879973D01*
X130747662Y6864245D01*
X130667376Y6710154D01*
X130647787Y6545976D01*
X130684789Y6306042D01*
X130706632Y6208079D01*
X130804708Y5905811D01*
X130962361Y5544013D01*
X131135485Y5218667D01*
X131306833Y4904531D01*
X131445194Y4602992D01*
X131521475Y4377669D01*
X131522652Y4372000D01*
X131592932Y4133955D01*
X131683069Y3956890D01*
X131689681Y3948667D01*
X131794772Y3795934D01*
X131928259Y3566684D01*
X131972850Y3483000D01*
X132075780Y3310097D01*
X132141487Y3248445D01*
X132153414Y3271334D01*
X132178691Y3452491D01*
X132211885Y3598473D01*
X132232344Y3740310D01*
X132308633Y3740310D01*
X132308501Y3732415D01*
X132249556Y3386560D01*
X132232651Y3316911D01*
X132139969Y2948838D01*
X131870491Y3469400D01*
X131751822Y3686927D01*
X131634125Y3858892D01*
X131487530Y4012608D01*
X131282163Y4175391D01*
X130988153Y4374554D01*
X130632064Y4601801D01*
X130139146Y4927521D01*
X129777644Y5208136D01*
X129525821Y5470778D01*
X129361943Y5742582D01*
X129264273Y6050681D01*
X129216260Y6369196D01*
X129193908Y6648494D01*
X129211818Y6820485D01*
X129288097Y6945744D01*
X129426579Y7072784D01*
X129600402Y7258398D01*
X129698286Y7485174D01*
X129744005Y7737500D01*
X129766644Y8023235D01*
X129730146Y8157162D01*
X129618514Y8146782D01*
X129415745Y7999598D01*
X129334383Y7929564D01*
X129191166Y7793142D01*
X129100991Y7660291D01*
X129046696Y7483470D01*
X129011119Y7215134D01*
X128990540Y6977064D01*
X128977526Y6370831D01*
X129055274Y5872323D01*
X129236207Y5439141D01*
X129532750Y5028886D01*
X129575605Y4980394D01*
X129860602Y4696564D01*
X130190457Y4415049D01*
X130400268Y4260936D01*
X130671523Y4067944D01*
X130910511Y3877009D01*
X131030126Y3765446D01*
X131257159Y3435655D01*
X131418862Y3036183D01*
X131479963Y2660220D01*
X131507763Y2426446D01*
X131572616Y2255334D01*
X131636885Y2178607D01*
X131624218Y2251513D01*
X131616311Y2276500D01*
X131603262Y2497101D01*
X131702907Y2644521D01*
X131824778Y2678667D01*
X131962160Y2608054D01*
X132040841Y2432269D01*
X132046941Y2358781D01*
X131897656Y2358781D01*
X131833791Y2424417D01*
X131827203Y2424667D01*
X131757274Y2352350D01*
X131711803Y2212260D01*
X131697856Y2070490D01*
X131749410Y2067387D01*
X131786599Y2095627D01*
X131879020Y2225641D01*
X131897656Y2358781D01*
X132046941Y2358781D01*
X132059676Y2205390D01*
X132017523Y1981495D01*
X131941716Y1860222D01*
X131789111Y1860222D01*
X131777489Y1910557D01*
X131732666Y1916667D01*
X131662976Y1885689D01*
X131676222Y1860222D01*
X131776702Y1850089D01*
X131789111Y1860222D01*
X131941716Y1860222D01*
X131913237Y1814663D01*
X131843956Y1771923D01*
X131681278Y1794509D01*
X131550146Y1911928D01*
X131440060Y2039303D01*
X131399618Y2037825D01*
X131394000Y1931812D01*
X131471217Y1755267D01*
X131679327Y1563833D01*
X131983016Y1375016D01*
X132346970Y1206322D01*
X132735877Y1075259D01*
X133114423Y999331D01*
X133299000Y987429D01*
X133541459Y992844D01*
X133692042Y1035638D01*
X133806753Y1151451D01*
X133941597Y1375921D01*
X133959476Y1407731D01*
X134146028Y1688890D01*
X134359612Y1939046D01*
X134469884Y2038386D01*
X134786212Y2244979D01*
X135140236Y2423320D01*
X135473829Y2547618D01*
X135717799Y2592141D01*
X136202284Y2666841D01*
X136700241Y2865029D01*
X137147818Y3159546D01*
X137237346Y3238452D01*
X137648072Y3729478D01*
X137905220Y4286700D01*
X138003520Y4883230D01*
X138038374Y5218189D01*
X138108312Y5541904D01*
X138150113Y5666209D01*
X138227648Y5891551D01*
X138301050Y5891551D01*
X138253713Y5741590D01*
X138189391Y5526627D01*
X138139944Y5226655D01*
X138124092Y5043941D01*
X138016820Y4353985D01*
X137777326Y3757870D01*
X137411479Y3265581D01*
X136925151Y2887106D01*
X136823570Y2830950D01*
X136369490Y2593735D01*
X136634190Y2540796D01*
X136801538Y2467000D01*
X136474000Y2467000D01*
X136431666Y2509334D01*
X136389333Y2467000D01*
X136431666Y2424667D01*
X136474000Y2467000D01*
X136801538Y2467000D01*
X136919727Y2414882D01*
X137206749Y2178923D01*
X137331482Y2025603D01*
X137222352Y2025603D01*
X137201751Y2072918D01*
X137116501Y2163812D01*
X137067491Y2145166D01*
X137066666Y2133330D01*
X137126803Y2061718D01*
X137164415Y2035582D01*
X137222352Y2025603D01*
X137331482Y2025603D01*
X137446268Y1884510D01*
X137589300Y1583233D01*
X137595572Y1554620D01*
X137446806Y1554620D01*
X137435797Y1682691D01*
X137393667Y1697790D01*
X137324287Y1714091D01*
X137320666Y1738488D01*
X137265297Y1845810D01*
X137133588Y2007467D01*
X136977136Y2166867D01*
X136847539Y2267414D01*
X136831909Y2274576D01*
X136788077Y2350660D01*
X136788901Y2353371D01*
X136730925Y2381372D01*
X136565395Y2370922D01*
X136563484Y2370623D01*
X136371128Y2370171D01*
X136264753Y2420752D01*
X136144818Y2505390D01*
X136114154Y2509334D01*
X136095683Y2470001D01*
X136174310Y2395257D01*
X136269580Y2297667D01*
X136135333Y2297667D01*
X136093000Y2340000D01*
X136050666Y2297667D01*
X136093000Y2255334D01*
X136135333Y2297667D01*
X136269580Y2297667D01*
X136273870Y2293273D01*
X136227842Y2217954D01*
X136221209Y2213747D01*
X136086081Y2222743D01*
X135947035Y2348990D01*
X135850767Y2457142D01*
X135832063Y2455490D01*
X135837019Y2445236D01*
X135832010Y2382334D01*
X135712000Y2382334D01*
X135669666Y2424667D01*
X135627333Y2382334D01*
X135669666Y2340000D01*
X135712000Y2382334D01*
X135832010Y2382334D01*
X135828510Y2338403D01*
X135724456Y2279233D01*
X135597071Y2292351D01*
X135540185Y2344016D01*
X135467950Y2399877D01*
X135340732Y2390621D01*
X135134017Y2307831D01*
X134823295Y2143087D01*
X134625853Y2030016D01*
X134387788Y1879277D01*
X134301586Y1798445D01*
X134362017Y1794217D01*
X134563852Y1873287D01*
X134698292Y1937271D01*
X135197259Y2100978D01*
X135684957Y2107462D01*
X136135375Y1965874D01*
X136522499Y1685361D01*
X136820320Y1275073D01*
X136868823Y1173864D01*
X136986752Y924108D01*
X137073615Y803734D01*
X137158925Y784003D01*
X137236202Y816108D01*
X137376122Y974958D01*
X137416139Y1136479D01*
X137432225Y1389042D01*
X137446806Y1554620D01*
X137595572Y1554620D01*
X137603079Y1520382D01*
X137613714Y1281667D01*
X137574666Y1281667D01*
X137532333Y1324000D01*
X137490000Y1281667D01*
X137532333Y1239334D01*
X137574666Y1281667D01*
X137613714Y1281667D01*
X137614143Y1272045D01*
X137533832Y1060907D01*
X137437155Y921693D01*
X137235895Y718567D01*
X137065908Y681657D01*
X136923418Y811624D01*
X136829286Y1028206D01*
X136612901Y1471757D01*
X136297943Y1778514D01*
X135882005Y1950013D01*
X135362674Y1987789D01*
X135326722Y1985745D01*
X134847340Y1895149D01*
X134425333Y1701424D01*
X134102107Y1427244D01*
X133980463Y1248506D01*
X133914301Y1087306D01*
X133957149Y997146D01*
X134049190Y944181D01*
X134201319Y790095D01*
X134244485Y663324D01*
X134173313Y663324D01*
X134147701Y758885D01*
X134080751Y820430D01*
X133937834Y859093D01*
X133684319Y886008D01*
X133426000Y903601D01*
X132647807Y1027482D01*
X131953234Y1294277D01*
X131453028Y1616758D01*
X131177802Y1789071D01*
X130970076Y1812732D01*
X130817319Y1688314D01*
X130792952Y1647007D01*
X130741466Y1437679D01*
X130724418Y1065502D01*
X130738131Y596285D01*
X130754512Y42790D01*
X130732519Y-410939D01*
X130660538Y-817901D01*
X130526953Y-1231096D01*
X130320150Y-1703523D01*
X130164703Y-2020333D01*
X129937319Y-2492934D01*
X129781004Y-2874733D01*
X129677256Y-3218629D01*
X129607570Y-3577522D01*
X129598435Y-3639242D01*
X129553644Y-4191910D01*
X129596443Y-4604475D01*
X129725502Y-4875161D01*
X129939492Y-5002193D01*
X130237083Y-4983793D01*
X130520312Y-4870452D01*
X130760255Y-4709438D01*
X131057063Y-4455963D01*
X131366366Y-4153303D01*
X131643789Y-3844731D01*
X131836671Y-3586666D01*
X131921658Y-3415328D01*
X132038324Y-3129987D01*
X132167816Y-2778258D01*
X132237293Y-2574906D01*
X132498562Y-1864443D01*
X132777850Y-1275996D01*
X133101972Y-762477D01*
X133497742Y-276795D01*
X133622979Y-141563D01*
X133912785Y178155D01*
X134089259Y410298D01*
X134167768Y577339D01*
X134173313Y663324D01*
X134244485Y663324D01*
X134256764Y627266D01*
X134246556Y498521D01*
X134174630Y345052D01*
X134022812Y139794D01*
X133772927Y-144316D01*
X133648279Y-278793D01*
X133209375Y-793108D01*
X132873201Y-1281798D01*
X132746653Y-1516553D01*
X132611597Y-1809041D01*
X132545871Y-1992335D01*
X132541828Y-2108066D01*
X132591819Y-2197863D01*
X132616294Y-2226064D01*
X132711079Y-2402468D01*
X132806428Y-2696874D01*
X132891481Y-3058336D01*
X132955373Y-3435907D01*
X132987243Y-3778641D01*
X132985751Y-3947897D01*
X132910975Y-3947897D01*
X132889095Y-3669527D01*
X132839488Y-3326857D01*
X132770465Y-2969450D01*
X132690333Y-2646867D01*
X132613513Y-2422458D01*
X132476122Y-2105000D01*
X132251168Y-2790750D01*
X132117951Y-3150699D01*
X131968408Y-3484340D01*
X131830799Y-3729852D01*
X131806069Y-3764417D01*
X131397470Y-4247824D01*
X130993821Y-4630713D01*
X130610363Y-4905030D01*
X130262338Y-5062723D01*
X129964985Y-5095740D01*
X129733546Y-4996027D01*
X129652661Y-4902226D01*
X129506147Y-4538462D01*
X129459647Y-4070794D01*
X129509388Y-3529120D01*
X129651602Y-2943335D01*
X129882517Y-2343338D01*
X130007346Y-2089923D01*
X130168301Y-1780432D01*
X130293970Y-1530576D01*
X130366809Y-1375662D01*
X130378000Y-1343911D01*
X130307577Y-1302891D01*
X130127966Y-1321506D01*
X129899031Y-1390391D01*
X129722012Y-1492654D01*
X129477334Y-1677717D01*
X129215516Y-1907107D01*
X129194885Y-1926658D01*
X128955625Y-2146387D01*
X128753495Y-2316770D01*
X128627185Y-2405462D01*
X128616951Y-2409794D01*
X128577548Y-2476175D01*
X128618993Y-2637964D01*
X128747251Y-2916965D01*
X128765527Y-2953027D01*
X128920471Y-3316626D01*
X129059239Y-3743769D01*
X129136200Y-4066371D01*
X129255055Y-4556706D01*
X129408200Y-4900571D01*
X129607452Y-5119334D01*
X129765290Y-5203808D01*
X129934953Y-5248598D01*
X130118132Y-5245088D01*
X130346426Y-5184280D01*
X130651433Y-5057177D01*
X131064751Y-4854782D01*
X131157523Y-4807386D01*
X131541007Y-4626684D01*
X131932778Y-4468561D01*
X132267978Y-4358339D01*
X132371762Y-4333320D01*
X132650100Y-4258188D01*
X132841572Y-4169187D01*
X132896820Y-4112405D01*
X132910975Y-3947897D01*
X132985751Y-3947897D01*
X132985658Y-3958355D01*
X132960333Y-4300991D01*
X132367666Y-4435956D01*
X132018972Y-4539607D01*
X131596413Y-4700561D01*
X131172144Y-4890373D01*
X131018527Y-4967794D01*
X130637469Y-5163310D01*
X130364918Y-5285409D01*
X130161519Y-5343201D01*
X129987918Y-5345797D01*
X129804762Y-5302306D01*
G36*
X133384745Y1100204D02*
G01*
X133273299Y1217998D01*
X133267518Y1407170D01*
X133359379Y1613603D01*
X133479751Y1741188D01*
X133726398Y1889554D01*
X133902238Y1895307D01*
X133985510Y1796283D01*
X133989104Y1651044D01*
X133744617Y1651044D01*
X133680000Y1640930D01*
X133564549Y1537797D01*
X133533326Y1443984D01*
X133531491Y1349639D01*
X133567188Y1408667D01*
X133670926Y1565687D01*
X133713862Y1605613D01*
X133744617Y1651044D01*
X133989104Y1651044D01*
X133989320Y1642331D01*
X133924214Y1482499D01*
X133825435Y1378819D01*
X133747337Y1377044D01*
X133693095Y1382526D01*
X133708319Y1346675D01*
X133702370Y1230214D01*
X133592579Y1128418D01*
X133441236Y1088734D01*
X133384745Y1100204D01*
G37*
X133384745Y1100204D02*
X133273299Y1217998D01*
X133267518Y1407170D01*
X133359379Y1613603D01*
X133479751Y1741188D01*
X133726398Y1889554D01*
X133902238Y1895307D01*
X133985510Y1796283D01*
X133989104Y1651044D01*
X133744617Y1651044D01*
X133680000Y1640930D01*
X133564549Y1537797D01*
X133533326Y1443984D01*
X133531491Y1349639D01*
X133567188Y1408667D01*
X133670926Y1565687D01*
X133713862Y1605613D01*
X133744617Y1651044D01*
X133989104Y1651044D01*
X133989320Y1642331D01*
X133924214Y1482499D01*
X133825435Y1378819D01*
X133747337Y1377044D01*
X133693095Y1382526D01*
X133708319Y1346675D01*
X133702370Y1230214D01*
X133592579Y1128418D01*
X133441236Y1088734D01*
X133384745Y1100204D01*
G36*
X131056218Y6556214D02*
G01*
X131009612Y6690522D01*
X131032945Y6776723D01*
X131149813Y6825163D01*
X131218506Y6726561D01*
X131224666Y6658000D01*
X131192968Y6520362D01*
X131149058Y6488667D01*
X131056218Y6556214D01*
G37*
X131056218Y6556214D02*
X131009612Y6690522D01*
X131032945Y6776723D01*
X131149813Y6825163D01*
X131218506Y6726561D01*
X131224666Y6658000D01*
X131192968Y6520362D01*
X131149058Y6488667D01*
X131056218Y6556214D01*
G36*
X131057448Y6114019D02*
G01*
X131025671Y6250434D01*
X131054304Y6317668D01*
X131124257Y6392195D01*
X131180618Y6311545D01*
X131188238Y6292143D01*
X131208702Y6136563D01*
X131149002Y6068911D01*
X131057448Y6114019D01*
G37*
X131057448Y6114019D02*
X131025671Y6250434D01*
X131054304Y6317668D01*
X131124257Y6392195D01*
X131180618Y6311545D01*
X131188238Y6292143D01*
X131208702Y6136563D01*
X131149002Y6068911D01*
X131057448Y6114019D01*
G36*
X131141736Y5706468D02*
G01*
X131097124Y5835880D01*
X131131888Y5933320D01*
X131244507Y5930834D01*
X131255191Y5921921D01*
X131284227Y5853667D01*
X131224666Y5853667D01*
X131182333Y5896000D01*
X131140000Y5853667D01*
X131182333Y5811334D01*
X131224666Y5853667D01*
X131284227Y5853667D01*
X131306379Y5801598D01*
X131287925Y5679260D01*
X131233725Y5642000D01*
X131141736Y5706468D01*
G37*
X131141736Y5706468D02*
X131097124Y5835880D01*
X131131888Y5933320D01*
X131244507Y5930834D01*
X131255191Y5921921D01*
X131284227Y5853667D01*
X131224666Y5853667D01*
X131182333Y5896000D01*
X131140000Y5853667D01*
X131182333Y5811334D01*
X131224666Y5853667D01*
X131284227Y5853667D01*
X131306379Y5801598D01*
X131287925Y5679260D01*
X131233725Y5642000D01*
X131141736Y5706468D01*
G36*
X131334875Y5405882D02*
G01*
X131309333Y5477664D01*
X131362606Y5552203D01*
X131469722Y5525706D01*
X131524481Y5467034D01*
X131531840Y5430334D01*
X131478666Y5430334D01*
X131436333Y5472667D01*
X131394000Y5430334D01*
X131436333Y5388000D01*
X131478666Y5430334D01*
X131531840Y5430334D01*
X131547346Y5353013D01*
X131535111Y5331556D01*
X131436084Y5325172D01*
X131334875Y5405882D01*
G37*
X131334875Y5405882D02*
X131309333Y5477664D01*
X131362606Y5552203D01*
X131469722Y5525706D01*
X131524481Y5467034D01*
X131531840Y5430334D01*
X131478666Y5430334D01*
X131436333Y5472667D01*
X131394000Y5430334D01*
X131436333Y5388000D01*
X131478666Y5430334D01*
X131531840Y5430334D01*
X131547346Y5353013D01*
X131535111Y5331556D01*
X131436084Y5325172D01*
X131334875Y5405882D01*
G36*
X131578085Y5032440D02*
G01*
X131563333Y5091667D01*
X131614907Y5208276D01*
X131732001Y5187256D01*
X131760889Y5162222D01*
X131814820Y5038299D01*
X131726698Y4967506D01*
X131690333Y4964667D01*
X131578085Y5032440D01*
G37*
X131578085Y5032440D02*
X131563333Y5091667D01*
X131614907Y5208276D01*
X131732001Y5187256D01*
X131760889Y5162222D01*
X131814820Y5038299D01*
X131726698Y4967506D01*
X131690333Y4964667D01*
X131578085Y5032440D01*
G36*
X136794640Y1733085D02*
G01*
X136754579Y1824172D01*
X136644112Y1979881D01*
X136550839Y2027913D01*
X136417661Y2103111D01*
X136389333Y2162740D01*
X136441610Y2248587D01*
X136574168Y2221801D01*
X136701661Y2128334D01*
X136558666Y2128334D01*
X136516333Y2170667D01*
X136474000Y2128334D01*
X136516333Y2086000D01*
X136558666Y2128334D01*
X136701661Y2128334D01*
X136750600Y2092457D01*
X136791500Y2051437D01*
X136926618Y1874334D01*
X136897333Y1874334D01*
X136855000Y1916667D01*
X136812666Y1874334D01*
X136855000Y1832000D01*
X136897333Y1874334D01*
X136926618Y1874334D01*
X136940051Y1856727D01*
X136976697Y1717812D01*
X136894375Y1662732D01*
X136889407Y1662667D01*
X136794640Y1733085D01*
G37*
X136794640Y1733085D02*
X136754579Y1824172D01*
X136644112Y1979881D01*
X136550839Y2027913D01*
X136417661Y2103111D01*
X136389333Y2162740D01*
X136441610Y2248587D01*
X136574168Y2221801D01*
X136701661Y2128334D01*
X136558666Y2128334D01*
X136516333Y2170667D01*
X136474000Y2128334D01*
X136516333Y2086000D01*
X136558666Y2128334D01*
X136701661Y2128334D01*
X136750600Y2092457D01*
X136791500Y2051437D01*
X136926618Y1874334D01*
X136897333Y1874334D01*
X136855000Y1916667D01*
X136812666Y1874334D01*
X136855000Y1832000D01*
X136897333Y1874334D01*
X136926618Y1874334D01*
X136940051Y1856727D01*
X136976697Y1717812D01*
X136894375Y1662732D01*
X136889407Y1662667D01*
X136794640Y1733085D01*
G36*
X137106874Y1349768D02*
G01*
X137048322Y1393145D01*
X136992442Y1509486D01*
X137046958Y1592158D01*
X137141101Y1637128D01*
X137201351Y1546173D01*
X137202874Y1535667D01*
X137151333Y1535667D01*
X137109000Y1578000D01*
X137066666Y1535667D01*
X137109000Y1493334D01*
X137151333Y1535667D01*
X137202874Y1535667D01*
X137222887Y1397659D01*
X137202715Y1347160D01*
X137106874Y1349768D01*
G37*
X137106874Y1349768D02*
X137048322Y1393145D01*
X136992442Y1509486D01*
X137046958Y1592158D01*
X137141101Y1637128D01*
X137201351Y1546173D01*
X137202874Y1535667D01*
X137151333Y1535667D01*
X137109000Y1578000D01*
X137066666Y1535667D01*
X137109000Y1493334D01*
X137151333Y1535667D01*
X137202874Y1535667D01*
X137222887Y1397659D01*
X137202715Y1347160D01*
X137106874Y1349768D01*
G36*
X137093893Y1034687D02*
G01*
X137108677Y1136237D01*
X137220125Y1219931D01*
X137306491Y1183082D01*
X137320666Y1119389D01*
X137316543Y1112334D01*
X137236000Y1112334D01*
X137193666Y1154667D01*
X137151333Y1112334D01*
X137193666Y1070000D01*
X137236000Y1112334D01*
X137316543Y1112334D01*
X137252497Y1002757D01*
X137186611Y985334D01*
X137093893Y1034687D01*
G37*
X137093893Y1034687D02*
X137108677Y1136237D01*
X137220125Y1219931D01*
X137306491Y1183082D01*
X137320666Y1119389D01*
X137316543Y1112334D01*
X137236000Y1112334D01*
X137193666Y1154667D01*
X137151333Y1112334D01*
X137193666Y1070000D01*
X137236000Y1112334D01*
X137316543Y1112334D01*
X137252497Y1002757D01*
X137186611Y985334D01*
X137093893Y1034687D01*
%TD*%
D11*
%TO.C,S1*%
X13600100Y-579300D03*
D12*
X18912692Y844205D03*
X8287508Y-2002805D03*
D13*
X17446217Y4385313D03*
X12073068Y5119662D03*
%TD*%
D11*
%TO.C,S2*%
X9200200Y15841500D03*
D12*
X14512792Y17265005D03*
X3887608Y14417995D03*
D13*
X13046317Y20806113D03*
X7673168Y21540462D03*
%TD*%
D11*
%TO.C,S3*%
X4800200Y32262200D03*
D12*
X10112792Y33685705D03*
X-512392Y30838695D03*
D13*
X8646317Y37226813D03*
X3273168Y37961162D03*
%TD*%
D11*
%TO.C,S4*%
X29505100Y21014800D03*
D12*
X34984171Y21494157D03*
X24026029Y20535443D03*
D13*
X34154882Y25236119D03*
X28990881Y26892349D03*
%TD*%
D11*
%TO.C,S5*%
X28023400Y37950100D03*
D12*
X33502471Y38429457D03*
X22544329Y37470743D03*
D13*
X32673182Y42171419D03*
X27509181Y43827649D03*
%TD*%
D11*
%TO.C,S6*%
X26541800Y54885400D03*
D12*
X32020871Y55364757D03*
X21062729Y54406043D03*
D13*
X31191582Y59106719D03*
X26027581Y60762949D03*
%TD*%
D11*
%TO.C,S7*%
X48624400Y28293400D03*
D12*
X54124400Y28293400D03*
X43124400Y28293400D03*
D13*
X53624400Y32093400D03*
X48624400Y34193400D03*
%TD*%
D11*
%TO.C,S8*%
X48624400Y45293400D03*
D12*
X54124400Y45293400D03*
X43124400Y45293400D03*
D13*
X53624400Y49093400D03*
X48624400Y51193400D03*
%TD*%
D11*
%TO.C,S9*%
X48624400Y62293400D03*
D12*
X54124400Y62293400D03*
X43124400Y62293400D03*
D13*
X53624400Y66093400D03*
X48624400Y68193400D03*
%TD*%
D11*
%TO.C,S10*%
X67906000Y22562000D03*
D12*
X73385071Y22082643D03*
X62426929Y23041357D03*
D13*
X73218165Y25911761D03*
X68420219Y28439549D03*
%TD*%
D11*
%TO.C,S11*%
X69387700Y39497300D03*
D12*
X74866771Y39017943D03*
X63908629Y39976657D03*
D13*
X74699865Y42847061D03*
X69901919Y45374849D03*
%TD*%
D11*
%TO.C,S12*%
X70869300Y56432700D03*
D12*
X76348371Y55953343D03*
X65390229Y56912057D03*
D13*
X76181465Y59782461D03*
X71383519Y62310249D03*
%TD*%
D11*
%TO.C,S13*%
X85590600Y18170700D03*
D12*
X91069671Y17691343D03*
X80111529Y18650057D03*
D13*
X90902765Y21520461D03*
X86104819Y24048249D03*
%TD*%
D11*
%TO.C,S14*%
X87072200Y35106000D03*
D12*
X92551271Y34626643D03*
X81593129Y35585357D03*
D13*
X92384365Y38455761D03*
X87586419Y40983549D03*
%TD*%
D11*
%TO.C,S15*%
X88553900Y52041300D03*
D12*
X94032971Y51561943D03*
X83074829Y52520657D03*
D13*
X93866065Y55391061D03*
X89068119Y57918849D03*
%TD*%
D11*
%TO.C,S16*%
X99438000Y-7132500D03*
D12*
X104606309Y-9013611D03*
X94269691Y-5251389D03*
D13*
X105436140Y-5271769D03*
X101455919Y-1588314D03*
%TD*%
D11*
%TO.C,S17*%
X251276000Y-579300D03*
D12*
X256588592Y-2002805D03*
X245963408Y844205D03*
D13*
X257089142Y1797123D03*
X252803032Y5119662D03*
%TD*%
D11*
%TO.C,S18*%
X255676000Y15841500D03*
D12*
X260988592Y14417995D03*
X250363408Y17265005D03*
D13*
X261489142Y18217923D03*
X257203032Y21540462D03*
%TD*%
D11*
%TO.C,S19*%
X260076000Y32262200D03*
D12*
X265388592Y30838695D03*
X254763408Y33685705D03*
D13*
X265889142Y34638623D03*
X261603032Y37961162D03*
%TD*%
D11*
%TO.C,S20*%
X235371000Y21014800D03*
D12*
X240850071Y20535443D03*
X229891929Y21494157D03*
D13*
X240683165Y24364561D03*
X235885219Y26892349D03*
%TD*%
D11*
%TO.C,S21*%
X236852000Y37950100D03*
D12*
X242331071Y37470743D03*
X231372929Y38429457D03*
D13*
X242164165Y41299861D03*
X237366219Y43827649D03*
%TD*%
D11*
%TO.C,S22*%
X238334000Y54885400D03*
D12*
X243813071Y54406043D03*
X232854929Y55364757D03*
D13*
X243646165Y58235161D03*
X238848219Y60762949D03*
%TD*%
D11*
%TO.C,S23*%
X216252000Y28293400D03*
D12*
X221752000Y28293400D03*
X210752000Y28293400D03*
D13*
X221252000Y32093400D03*
X216252000Y34193400D03*
%TD*%
D11*
%TO.C,S24*%
X216251540Y45293389D03*
D12*
X221751540Y45293389D03*
X210751540Y45293389D03*
D13*
X221251540Y49093389D03*
X216251540Y51193389D03*
%TD*%
D11*
%TO.C,S25*%
X216252000Y62293400D03*
D12*
X221752000Y62293400D03*
X210752000Y62293400D03*
D13*
X221252000Y66093400D03*
X216252000Y68193400D03*
%TD*%
D11*
%TO.C,S26*%
X196970000Y22562000D03*
D12*
X202449071Y23041357D03*
X191490929Y22082643D03*
D13*
X201619782Y26783319D03*
X196455781Y28439549D03*
%TD*%
D11*
%TO.C,S27*%
X195488000Y39497300D03*
D12*
X200967071Y39976657D03*
X190008929Y39017943D03*
D13*
X200137782Y43718619D03*
X194973781Y45374849D03*
%TD*%
D11*
%TO.C,S28*%
X194007000Y56432700D03*
D12*
X199486071Y56912057D03*
X188527929Y55953343D03*
D13*
X198656782Y60654019D03*
X193492781Y62310249D03*
%TD*%
D11*
%TO.C,S29*%
X179285000Y18170700D03*
D12*
X184764071Y18650057D03*
X173805929Y17691343D03*
D13*
X183934782Y22392019D03*
X178770781Y24048249D03*
%TD*%
D11*
%TO.C,S30*%
X177804000Y35106000D03*
D12*
X183283071Y35585357D03*
X172324929Y34626643D03*
D13*
X182453782Y39327319D03*
X177289781Y40983549D03*
%TD*%
D11*
%TO.C,S31*%
X176322000Y52041300D03*
D12*
X181801071Y52520657D03*
X170842929Y51561943D03*
D13*
X180971782Y56262619D03*
X175807781Y57918849D03*
%TD*%
D11*
%TO.C,S32*%
X165438000Y-7132500D03*
D12*
X170606309Y-5251389D03*
X160269691Y-9013611D03*
D13*
X168836787Y-1851567D03*
X163420081Y-1588314D03*
%TD*%
%TO.C,C1*%
G36*
G01*
X98093329Y40562517D02*
X99839260Y40409768D01*
G75*
G02*
X99884712Y40355600I-4358J-49810D01*
G01*
X99731963Y38609669D01*
G75*
G02*
X99677795Y38564217I-49810J4358D01*
G01*
X97931864Y38716966D01*
G75*
G02*
X97886412Y38771134I4358J49810D01*
G01*
X98039161Y40517065D01*
G75*
G02*
X98093329Y40562517I49810J-4358D01*
G01*
G37*
D14*
X98664187Y37033032D03*
X98442811Y34502698D03*
X98221435Y31972363D03*
X98000060Y29442029D03*
X97778684Y26911694D03*
X97557309Y24381359D03*
X97335933Y21851025D03*
X97114557Y19320690D03*
X96893182Y16790356D03*
X96671806Y14260021D03*
X96450431Y11729687D03*
X114067569Y38235113D03*
X113846194Y35704779D03*
X113624818Y33174444D03*
X113403443Y30644110D03*
X113182067Y28113775D03*
X112960691Y25583441D03*
X112739316Y23053106D03*
X112517940Y20522771D03*
X112296565Y17992437D03*
X112075189Y15462102D03*
X111853813Y12931768D03*
X111632438Y10401433D03*
%TD*%
D15*
%TO.C,T1*%
X119639213Y32156384D03*
X120249303Y39129747D03*
G36*
G01*
X116239732Y29442340D02*
X116292026Y30040056D01*
G75*
G02*
X117212873Y30812739I846765J-74082D01*
G01*
X117212873Y30812739D01*
G75*
G02*
X117985556Y29891892I-74082J-846765D01*
G01*
X117933262Y29294176D01*
G75*
G02*
X117012415Y28521493I-846765J74082D01*
G01*
X117012415Y28521493D01*
G75*
G02*
X116239732Y29442340I74082J846765D01*
G01*
G37*
G36*
G01*
X120918099Y30137238D02*
X120970393Y30734954D01*
G75*
G02*
X121891240Y31507637I846765J-74082D01*
G01*
X121891240Y31507637D01*
G75*
G02*
X122663923Y30586790I-74082J-846765D01*
G01*
X122611629Y29989074D01*
G75*
G02*
X121690782Y29216391I-846765J74082D01*
G01*
X121690782Y29216391D01*
G75*
G02*
X120918099Y30137238I74082J846765D01*
G01*
G37*
G36*
G01*
X121266722Y34122017D02*
X121319016Y34719733D01*
G75*
G02*
X122239863Y35492416I846765J-74082D01*
G01*
X122239863Y35492416D01*
G75*
G02*
X123012546Y34571569I-74082J-846765D01*
G01*
X122960252Y33973853D01*
G75*
G02*
X122039405Y33201170I-846765J74082D01*
G01*
X122039405Y33201170D01*
G75*
G02*
X121266722Y34122017I74082J846765D01*
G01*
G37*
G36*
G01*
X121528190Y37110601D02*
X121580484Y37708317D01*
G75*
G02*
X122501331Y38481000I846765J-74082D01*
G01*
X122501331Y38481000D01*
G75*
G02*
X123274014Y37560153I-74082J-846765D01*
G01*
X123221720Y36962437D01*
G75*
G02*
X122300873Y36189754I-846765J74082D01*
G01*
X122300873Y36189754D01*
G75*
G02*
X121528190Y37110601I74082J846765D01*
G01*
G37*
%TD*%
%TO.C,C2*%
G36*
G01*
X149854733Y39081514D02*
X151600664Y39234263D01*
G75*
G02*
X151654832Y39188811I4358J-49810D01*
G01*
X151807581Y37442880D01*
G75*
G02*
X151762129Y37388712I-49810J-4358D01*
G01*
X150016198Y37235963D01*
G75*
G02*
X149962030Y37281415I-4358J49810D01*
G01*
X149809281Y39027346D01*
G75*
G02*
X149854733Y39081514I49810J4358D01*
G01*
G37*
D14*
X151029806Y35704779D03*
X151251182Y33174444D03*
X151472557Y30644110D03*
X151693933Y28113775D03*
X151915309Y25583441D03*
X152136684Y23053106D03*
X152358060Y20522771D03*
X152579435Y17992437D03*
X152800811Y15462102D03*
X153022187Y12931768D03*
X153243562Y10401433D03*
X165990438Y39563367D03*
X166211813Y37033032D03*
X166433189Y34502698D03*
X166654565Y31972363D03*
X166875940Y29442029D03*
X167097316Y26911694D03*
X167318691Y24381359D03*
X167540067Y21851025D03*
X167761443Y19320690D03*
X167982818Y16790356D03*
X168204194Y14260021D03*
X168425569Y11729687D03*
%TD*%
D15*
%TO.C,T2*%
X145137292Y32147667D03*
X144527201Y39121030D03*
G36*
G01*
X142260746Y28884543D02*
X142208452Y29482259D01*
G75*
G02*
X142981135Y30403106I846765J74082D01*
G01*
X142981135Y30403106D01*
G75*
G02*
X143901982Y29630423I74082J-846765D01*
G01*
X143954276Y29032707D01*
G75*
G02*
X143181593Y28111860I-846765J-74082D01*
G01*
X143181593Y28111860D01*
G75*
G02*
X142260746Y28884543I-74082J846765D01*
G01*
G37*
G36*
G01*
X146747371Y30381274D02*
X146695077Y30978990D01*
G75*
G02*
X147467760Y31899837I846765J74082D01*
G01*
X147467760Y31899837D01*
G75*
G02*
X148388607Y31127154I74082J-846765D01*
G01*
X148440901Y30529438D01*
G75*
G02*
X147668218Y29608591I-846765J-74082D01*
G01*
X147668218Y29608591D01*
G75*
G02*
X146747371Y30381274I-74082J846765D01*
G01*
G37*
G36*
G01*
X146398748Y34366053D02*
X146346454Y34963769D01*
G75*
G02*
X147119137Y35884616I846765J74082D01*
G01*
X147119137Y35884616D01*
G75*
G02*
X148039984Y35111933I74082J-846765D01*
G01*
X148092278Y34514217D01*
G75*
G02*
X147319595Y33593370I-846765J-74082D01*
G01*
X147319595Y33593370D01*
G75*
G02*
X146398748Y34366053I-74082J846765D01*
G01*
G37*
G36*
G01*
X146137280Y37354637D02*
X146084986Y37952353D01*
G75*
G02*
X146857669Y38873200I846765J74082D01*
G01*
X146857669Y38873200D01*
G75*
G02*
X147778516Y38100517I74082J-846765D01*
G01*
X147830810Y37502801D01*
G75*
G02*
X147058127Y36581954I-846765J-74082D01*
G01*
X147058127Y36581954D01*
G75*
G02*
X146137280Y37354637I-74082J846765D01*
G01*
G37*
%TD*%
M02*
