%TF.GenerationSoftware,KiCad,Pcbnew,(5.1.10)-1*%
%TF.CreationDate,2021-07-05T15:56:21+02:00*%
%TF.ProjectId,architeuthis_dux,61726368-6974-4657-9574-6869735f6475,VERSION_HERE*%
%TF.SameCoordinates,Original*%
%TF.FileFunction,Soldermask,Top*%
%TF.FilePolarity,Negative*%
%FSLAX46Y46*%
G04 Gerber Fmt 4.6, Leading zero omitted, Abs format (unit mm)*
G04 Created by KiCad (PCBNEW (5.1.10)-1) date 2021-07-05 15:56:21*
%MOMM*%
%LPD*%
G01*
G04 APERTURE LIST*
%ADD10C,3.529000*%
%ADD11C,1.801800*%
%ADD12C,3.100000*%
%ADD13C,2.132000*%
%ADD14C,1.852600*%
%ADD15C,1.600000*%
G04 APERTURE END LIST*
D10*
%TO.C,S1*%
X13600100Y-579300D03*
D11*
X18912692Y844205D03*
X8287508Y-2002805D03*
D12*
X17459158Y4337017D03*
X12060127Y5167959D03*
X7799899Y1748827D03*
X12060127Y5167959D03*
G36*
G01*
X14255999Y4410482D02*
X13583070Y6921889D01*
G75*
G02*
X13618425Y6983126I48296J12941D01*
G01*
X16129832Y7656055D01*
G75*
G02*
X16191069Y7620700I12941J-48296D01*
G01*
X16863998Y5109293D01*
G75*
G02*
X16828643Y5048056I-48296J-12941D01*
G01*
X14317236Y4375127D01*
G75*
G02*
X14255999Y4410482I-12941J48296D01*
G01*
G37*
G36*
G01*
X3668957Y-703915D02*
X2996028Y1807492D01*
G75*
G02*
X3031383Y1868729I48296J12941D01*
G01*
X5542790Y2541658D01*
G75*
G02*
X5604027Y2506303I12941J-48296D01*
G01*
X6276956Y-5104D01*
G75*
G02*
X6241601Y-66341I-48296J-12941D01*
G01*
X3730194Y-739270D01*
G75*
G02*
X3668957Y-703915I-12941J48296D01*
G01*
G37*
%TD*%
D10*
%TO.C,S2*%
X13600100Y-579300D03*
D11*
X8287508Y-2002805D03*
X18912692Y844205D03*
D13*
X9753983Y-5543913D03*
X15127132Y-6278262D03*
X19413242Y-2955723D03*
X15127132Y-6278262D03*
%TD*%
D10*
%TO.C,S3*%
X9200200Y15841500D03*
D11*
X14512792Y17265005D03*
X3887608Y14417995D03*
D12*
X13059258Y20757817D03*
X7660227Y21588759D03*
X3399999Y18169627D03*
X7660227Y21588759D03*
G36*
G01*
X9856099Y20831282D02*
X9183170Y23342689D01*
G75*
G02*
X9218525Y23403926I48296J12941D01*
G01*
X11729932Y24076855D01*
G75*
G02*
X11791169Y24041500I12941J-48296D01*
G01*
X12464098Y21530093D01*
G75*
G02*
X12428743Y21468856I-48296J-12941D01*
G01*
X9917336Y20795927D01*
G75*
G02*
X9856099Y20831282I-12941J48296D01*
G01*
G37*
G36*
G01*
X-730943Y15716885D02*
X-1403872Y18228292D01*
G75*
G02*
X-1368517Y18289529I48296J12941D01*
G01*
X1142890Y18962458D01*
G75*
G02*
X1204127Y18927103I12941J-48296D01*
G01*
X1877056Y16415696D01*
G75*
G02*
X1841701Y16354459I-48296J-12941D01*
G01*
X-669706Y15681530D01*
G75*
G02*
X-730943Y15716885I-12941J48296D01*
G01*
G37*
%TD*%
D10*
%TO.C,S4*%
X9200200Y15841500D03*
D11*
X3887608Y14417995D03*
X14512792Y17265005D03*
D13*
X5354083Y10876887D03*
X10727232Y10142538D03*
X15013342Y13465077D03*
X10727232Y10142538D03*
%TD*%
D10*
%TO.C,S5*%
X4800200Y32262200D03*
D11*
X10112792Y33685705D03*
X-512392Y30838695D03*
D12*
X8659258Y37178517D03*
X3260227Y38009459D03*
X-1000001Y34590327D03*
X3260227Y38009459D03*
G36*
G01*
X5456099Y37251982D02*
X4783170Y39763389D01*
G75*
G02*
X4818525Y39824626I48296J12941D01*
G01*
X7329932Y40497555D01*
G75*
G02*
X7391169Y40462200I12941J-48296D01*
G01*
X8064098Y37950793D01*
G75*
G02*
X8028743Y37889556I-48296J-12941D01*
G01*
X5517336Y37216627D01*
G75*
G02*
X5456099Y37251982I-12941J48296D01*
G01*
G37*
G36*
G01*
X-5130943Y32137585D02*
X-5803872Y34648992D01*
G75*
G02*
X-5768517Y34710229I48296J12941D01*
G01*
X-3257110Y35383158D01*
G75*
G02*
X-3195873Y35347803I12941J-48296D01*
G01*
X-2522944Y32836396D01*
G75*
G02*
X-2558299Y32775159I-48296J-12941D01*
G01*
X-5069706Y32102230D01*
G75*
G02*
X-5130943Y32137585I-12941J48296D01*
G01*
G37*
%TD*%
D10*
%TO.C,S6*%
X4800200Y32262200D03*
D11*
X-512392Y30838695D03*
X10112792Y33685705D03*
D13*
X954083Y27297587D03*
X6327232Y26563238D03*
X10613342Y29885777D03*
X6327232Y26563238D03*
%TD*%
D10*
%TO.C,S7*%
X29505100Y21014800D03*
D11*
X34984171Y21494157D03*
X24026029Y20535443D03*
D12*
X34159239Y25186309D03*
X28986523Y26942158D03*
X24197292Y24314751D03*
X28986523Y26942158D03*
G36*
G01*
X31017500Y25814880D02*
X30790895Y28404987D01*
G75*
G02*
X30836347Y28459155I49810J4358D01*
G01*
X33426454Y28685760D01*
G75*
G02*
X33480622Y28640308I4358J-49810D01*
G01*
X33707227Y26050201D01*
G75*
G02*
X33661775Y25996033I-49810J-4358D01*
G01*
X31071668Y25769428D01*
G75*
G02*
X31017500Y25814880I-4358J49810D01*
G01*
G37*
G36*
G01*
X19703194Y22616602D02*
X19476589Y25206709D01*
G75*
G02*
X19522041Y25260877I49810J4358D01*
G01*
X22112148Y25487482D01*
G75*
G02*
X22166316Y25442030I4358J-49810D01*
G01*
X22392921Y22851923D01*
G75*
G02*
X22347469Y22797755I-49810J-4358D01*
G01*
X19757362Y22571150D01*
G75*
G02*
X19703194Y22616602I-4358J49810D01*
G01*
G37*
%TD*%
D10*
%TO.C,S8*%
X29505100Y21014800D03*
D11*
X24026029Y20535443D03*
X34984171Y21494157D03*
D13*
X24855318Y16793481D03*
X30019319Y15137251D03*
X34817265Y17665039D03*
X30019319Y15137251D03*
%TD*%
D10*
%TO.C,S9*%
X28023400Y37950100D03*
D11*
X33502471Y38429457D03*
X22544329Y37470743D03*
D12*
X32677539Y42121609D03*
X27504823Y43877458D03*
X22715592Y41250051D03*
X27504823Y43877458D03*
G36*
G01*
X29535800Y42750180D02*
X29309195Y45340287D01*
G75*
G02*
X29354647Y45394455I49810J4358D01*
G01*
X31944754Y45621060D01*
G75*
G02*
X31998922Y45575608I4358J-49810D01*
G01*
X32225527Y42985501D01*
G75*
G02*
X32180075Y42931333I-49810J-4358D01*
G01*
X29589968Y42704728D01*
G75*
G02*
X29535800Y42750180I-4358J49810D01*
G01*
G37*
G36*
G01*
X18221494Y39551902D02*
X17994889Y42142009D01*
G75*
G02*
X18040341Y42196177I49810J4358D01*
G01*
X20630448Y42422782D01*
G75*
G02*
X20684616Y42377330I4358J-49810D01*
G01*
X20911221Y39787223D01*
G75*
G02*
X20865769Y39733055I-49810J-4358D01*
G01*
X18275662Y39506450D01*
G75*
G02*
X18221494Y39551902I-4358J49810D01*
G01*
G37*
%TD*%
D10*
%TO.C,S10*%
X28023400Y37950100D03*
D11*
X22544329Y37470743D03*
X33502471Y38429457D03*
D13*
X23373618Y33728781D03*
X28537619Y32072551D03*
X33335565Y34600339D03*
X28537619Y32072551D03*
%TD*%
D10*
%TO.C,S11*%
X26541800Y54885400D03*
D11*
X32020871Y55364757D03*
X21062729Y54406043D03*
D12*
X31195939Y59056909D03*
X26023223Y60812758D03*
X21233992Y58185351D03*
X26023223Y60812758D03*
G36*
G01*
X28054200Y59685480D02*
X27827595Y62275587D01*
G75*
G02*
X27873047Y62329755I49810J4358D01*
G01*
X30463154Y62556360D01*
G75*
G02*
X30517322Y62510908I4358J-49810D01*
G01*
X30743927Y59920801D01*
G75*
G02*
X30698475Y59866633I-49810J-4358D01*
G01*
X28108368Y59640028D01*
G75*
G02*
X28054200Y59685480I-4358J49810D01*
G01*
G37*
G36*
G01*
X16739894Y56487202D02*
X16513289Y59077309D01*
G75*
G02*
X16558741Y59131477I49810J4358D01*
G01*
X19148848Y59358082D01*
G75*
G02*
X19203016Y59312630I4358J-49810D01*
G01*
X19429621Y56722523D01*
G75*
G02*
X19384169Y56668355I-49810J-4358D01*
G01*
X16794062Y56441750D01*
G75*
G02*
X16739894Y56487202I-4358J49810D01*
G01*
G37*
%TD*%
D10*
%TO.C,S12*%
X26541800Y54885400D03*
D11*
X21062729Y54406043D03*
X32020871Y55364757D03*
D13*
X21892018Y50664081D03*
X27056019Y49007851D03*
X31853965Y51535639D03*
X27056019Y49007851D03*
%TD*%
D10*
%TO.C,S13*%
X48624400Y28293400D03*
D11*
X54124400Y28293400D03*
X43124400Y28293400D03*
D12*
X53624400Y32043400D03*
X48624400Y34243400D03*
X43624400Y32043400D03*
X48624400Y34243400D03*
G36*
G01*
X50549400Y32943400D02*
X50549400Y35543400D01*
G75*
G02*
X50599400Y35593400I50000J0D01*
G01*
X53199400Y35593400D01*
G75*
G02*
X53249400Y35543400I0J-50000D01*
G01*
X53249400Y32943400D01*
G75*
G02*
X53199400Y32893400I-50000J0D01*
G01*
X50599400Y32893400D01*
G75*
G02*
X50549400Y32943400I0J50000D01*
G01*
G37*
G36*
G01*
X38999400Y30743400D02*
X38999400Y33343400D01*
G75*
G02*
X39049400Y33393400I50000J0D01*
G01*
X41649400Y33393400D01*
G75*
G02*
X41699400Y33343400I0J-50000D01*
G01*
X41699400Y30743400D01*
G75*
G02*
X41649400Y30693400I-50000J0D01*
G01*
X39049400Y30693400D01*
G75*
G02*
X38999400Y30743400I0J50000D01*
G01*
G37*
%TD*%
D10*
%TO.C,S14*%
X48624400Y28293400D03*
D11*
X43124400Y28293400D03*
X54124400Y28293400D03*
D13*
X43624400Y24493400D03*
X48624400Y22393400D03*
X53624400Y24493400D03*
X48624400Y22393400D03*
%TD*%
D10*
%TO.C,S15*%
X48624400Y45293400D03*
D11*
X54124400Y45293400D03*
X43124400Y45293400D03*
D12*
X53624400Y49043400D03*
X48624400Y51243400D03*
X43624400Y49043400D03*
X48624400Y51243400D03*
G36*
G01*
X50549400Y49943400D02*
X50549400Y52543400D01*
G75*
G02*
X50599400Y52593400I50000J0D01*
G01*
X53199400Y52593400D01*
G75*
G02*
X53249400Y52543400I0J-50000D01*
G01*
X53249400Y49943400D01*
G75*
G02*
X53199400Y49893400I-50000J0D01*
G01*
X50599400Y49893400D01*
G75*
G02*
X50549400Y49943400I0J50000D01*
G01*
G37*
G36*
G01*
X38999400Y47743400D02*
X38999400Y50343400D01*
G75*
G02*
X39049400Y50393400I50000J0D01*
G01*
X41649400Y50393400D01*
G75*
G02*
X41699400Y50343400I0J-50000D01*
G01*
X41699400Y47743400D01*
G75*
G02*
X41649400Y47693400I-50000J0D01*
G01*
X39049400Y47693400D01*
G75*
G02*
X38999400Y47743400I0J50000D01*
G01*
G37*
%TD*%
D10*
%TO.C,S16*%
X48624400Y45293400D03*
D11*
X43124400Y45293400D03*
X54124400Y45293400D03*
D13*
X43624400Y41493400D03*
X48624400Y39393400D03*
X53624400Y41493400D03*
X48624400Y39393400D03*
%TD*%
D10*
%TO.C,S17*%
X48624400Y62293400D03*
D11*
X54124400Y62293400D03*
X43124400Y62293400D03*
D12*
X53624400Y66043400D03*
X48624400Y68243400D03*
X43624400Y66043400D03*
X48624400Y68243400D03*
G36*
G01*
X50549400Y66943400D02*
X50549400Y69543400D01*
G75*
G02*
X50599400Y69593400I50000J0D01*
G01*
X53199400Y69593400D01*
G75*
G02*
X53249400Y69543400I0J-50000D01*
G01*
X53249400Y66943400D01*
G75*
G02*
X53199400Y66893400I-50000J0D01*
G01*
X50599400Y66893400D01*
G75*
G02*
X50549400Y66943400I0J50000D01*
G01*
G37*
G36*
G01*
X38999400Y64743400D02*
X38999400Y67343400D01*
G75*
G02*
X39049400Y67393400I50000J0D01*
G01*
X41649400Y67393400D01*
G75*
G02*
X41699400Y67343400I0J-50000D01*
G01*
X41699400Y64743400D01*
G75*
G02*
X41649400Y64693400I-50000J0D01*
G01*
X39049400Y64693400D01*
G75*
G02*
X38999400Y64743400I0J50000D01*
G01*
G37*
%TD*%
D10*
%TO.C,S18*%
X48624400Y62293400D03*
D11*
X43124400Y62293400D03*
X54124400Y62293400D03*
D13*
X43624400Y58493400D03*
X48624400Y56393400D03*
X53624400Y58493400D03*
X48624400Y56393400D03*
%TD*%
D10*
%TO.C,S19*%
X67906000Y22562000D03*
D11*
X73385071Y22082643D03*
X62426929Y23041357D03*
D12*
X73213808Y25861951D03*
X68424577Y28489358D03*
X63251861Y26733509D03*
X68424577Y28489358D03*
G36*
G01*
X70228948Y27026530D02*
X70455553Y29616637D01*
G75*
G02*
X70509721Y29662089I49810J-4358D01*
G01*
X73099828Y29435484D01*
G75*
G02*
X73145280Y29381316I-4358J-49810D01*
G01*
X72918675Y26791209D01*
G75*
G02*
X72864507Y26745757I-49810J4358D01*
G01*
X70274400Y26972362D01*
G75*
G02*
X70228948Y27026530I4358J49810D01*
G01*
G37*
G36*
G01*
X58531157Y25841551D02*
X58757762Y28431658D01*
G75*
G02*
X58811930Y28477110I49810J-4358D01*
G01*
X61402037Y28250505D01*
G75*
G02*
X61447489Y28196337I-4358J-49810D01*
G01*
X61220884Y25606230D01*
G75*
G02*
X61166716Y25560778I-49810J4358D01*
G01*
X58576609Y25787383D01*
G75*
G02*
X58531157Y25841551I4358J49810D01*
G01*
G37*
%TD*%
D10*
%TO.C,S20*%
X67906000Y22562000D03*
D11*
X62426929Y23041357D03*
X73385071Y22082643D03*
D13*
X62593835Y19212239D03*
X67391781Y16684451D03*
X72555782Y18340681D03*
X67391781Y16684451D03*
%TD*%
D10*
%TO.C,S21*%
X69387700Y39497300D03*
D11*
X74866771Y39017943D03*
X63908629Y39976657D03*
D12*
X74695508Y42797251D03*
X69906277Y45424658D03*
X64733561Y43668809D03*
X69906277Y45424658D03*
G36*
G01*
X71710648Y43961830D02*
X71937253Y46551937D01*
G75*
G02*
X71991421Y46597389I49810J-4358D01*
G01*
X74581528Y46370784D01*
G75*
G02*
X74626980Y46316616I-4358J-49810D01*
G01*
X74400375Y43726509D01*
G75*
G02*
X74346207Y43681057I-49810J4358D01*
G01*
X71756100Y43907662D01*
G75*
G02*
X71710648Y43961830I4358J49810D01*
G01*
G37*
G36*
G01*
X60012857Y42776851D02*
X60239462Y45366958D01*
G75*
G02*
X60293630Y45412410I49810J-4358D01*
G01*
X62883737Y45185805D01*
G75*
G02*
X62929189Y45131637I-4358J-49810D01*
G01*
X62702584Y42541530D01*
G75*
G02*
X62648416Y42496078I-49810J4358D01*
G01*
X60058309Y42722683D01*
G75*
G02*
X60012857Y42776851I4358J49810D01*
G01*
G37*
%TD*%
D10*
%TO.C,S22*%
X69387700Y39497300D03*
D11*
X63908629Y39976657D03*
X74866771Y39017943D03*
D13*
X64075535Y36147539D03*
X68873481Y33619751D03*
X74037482Y35275981D03*
X68873481Y33619751D03*
%TD*%
D10*
%TO.C,S23*%
X70869300Y56432700D03*
D11*
X76348371Y55953343D03*
X65390229Y56912057D03*
D12*
X76177108Y59732651D03*
X71387877Y62360058D03*
X66215161Y60604209D03*
X71387877Y62360058D03*
G36*
G01*
X73192248Y60897230D02*
X73418853Y63487337D01*
G75*
G02*
X73473021Y63532789I49810J-4358D01*
G01*
X76063128Y63306184D01*
G75*
G02*
X76108580Y63252016I-4358J-49810D01*
G01*
X75881975Y60661909D01*
G75*
G02*
X75827807Y60616457I-49810J4358D01*
G01*
X73237700Y60843062D01*
G75*
G02*
X73192248Y60897230I4358J49810D01*
G01*
G37*
G36*
G01*
X61494457Y59712251D02*
X61721062Y62302358D01*
G75*
G02*
X61775230Y62347810I49810J-4358D01*
G01*
X64365337Y62121205D01*
G75*
G02*
X64410789Y62067037I-4358J-49810D01*
G01*
X64184184Y59476930D01*
G75*
G02*
X64130016Y59431478I-49810J4358D01*
G01*
X61539909Y59658083D01*
G75*
G02*
X61494457Y59712251I4358J49810D01*
G01*
G37*
%TD*%
D10*
%TO.C,S24*%
X70869300Y56432700D03*
D11*
X65390229Y56912057D03*
X76348371Y55953343D03*
D13*
X65557135Y53082939D03*
X70355081Y50555151D03*
X75519082Y52211381D03*
X70355081Y50555151D03*
%TD*%
D10*
%TO.C,S25*%
X85590600Y18170700D03*
D11*
X91069671Y17691343D03*
X80111529Y18650057D03*
D12*
X90898408Y21470651D03*
X86109177Y24098058D03*
X80936461Y22342209D03*
X86109177Y24098058D03*
G36*
G01*
X87913548Y22635230D02*
X88140153Y25225337D01*
G75*
G02*
X88194321Y25270789I49810J-4358D01*
G01*
X90784428Y25044184D01*
G75*
G02*
X90829880Y24990016I-4358J-49810D01*
G01*
X90603275Y22399909D01*
G75*
G02*
X90549107Y22354457I-49810J4358D01*
G01*
X87959000Y22581062D01*
G75*
G02*
X87913548Y22635230I4358J49810D01*
G01*
G37*
G36*
G01*
X76215757Y21450251D02*
X76442362Y24040358D01*
G75*
G02*
X76496530Y24085810I49810J-4358D01*
G01*
X79086637Y23859205D01*
G75*
G02*
X79132089Y23805037I-4358J-49810D01*
G01*
X78905484Y21214930D01*
G75*
G02*
X78851316Y21169478I-49810J4358D01*
G01*
X76261209Y21396083D01*
G75*
G02*
X76215757Y21450251I4358J49810D01*
G01*
G37*
%TD*%
D10*
%TO.C,S26*%
X85590600Y18170700D03*
D11*
X80111529Y18650057D03*
X91069671Y17691343D03*
D13*
X80278435Y14820939D03*
X85076381Y12293151D03*
X90240382Y13949381D03*
X85076381Y12293151D03*
%TD*%
D10*
%TO.C,S27*%
X87072200Y35106000D03*
D11*
X92551271Y34626643D03*
X81593129Y35585357D03*
D12*
X92380008Y38405951D03*
X87590777Y41033358D03*
X82418061Y39277509D03*
X87590777Y41033358D03*
G36*
G01*
X89395148Y39570530D02*
X89621753Y42160637D01*
G75*
G02*
X89675921Y42206089I49810J-4358D01*
G01*
X92266028Y41979484D01*
G75*
G02*
X92311480Y41925316I-4358J-49810D01*
G01*
X92084875Y39335209D01*
G75*
G02*
X92030707Y39289757I-49810J4358D01*
G01*
X89440600Y39516362D01*
G75*
G02*
X89395148Y39570530I4358J49810D01*
G01*
G37*
G36*
G01*
X77697357Y38385551D02*
X77923962Y40975658D01*
G75*
G02*
X77978130Y41021110I49810J-4358D01*
G01*
X80568237Y40794505D01*
G75*
G02*
X80613689Y40740337I-4358J-49810D01*
G01*
X80387084Y38150230D01*
G75*
G02*
X80332916Y38104778I-49810J4358D01*
G01*
X77742809Y38331383D01*
G75*
G02*
X77697357Y38385551I4358J49810D01*
G01*
G37*
%TD*%
D10*
%TO.C,S28*%
X87072200Y35106000D03*
D11*
X81593129Y35585357D03*
X92551271Y34626643D03*
D13*
X81760035Y31756239D03*
X86557981Y29228451D03*
X91721982Y30884681D03*
X86557981Y29228451D03*
%TD*%
D10*
%TO.C,S29*%
X88553900Y52041300D03*
D11*
X94032971Y51561943D03*
X83074829Y52520657D03*
D12*
X93861708Y55341251D03*
X89072477Y57968658D03*
X83899761Y56212809D03*
X89072477Y57968658D03*
G36*
G01*
X90876848Y56505830D02*
X91103453Y59095937D01*
G75*
G02*
X91157621Y59141389I49810J-4358D01*
G01*
X93747728Y58914784D01*
G75*
G02*
X93793180Y58860616I-4358J-49810D01*
G01*
X93566575Y56270509D01*
G75*
G02*
X93512407Y56225057I-49810J4358D01*
G01*
X90922300Y56451662D01*
G75*
G02*
X90876848Y56505830I4358J49810D01*
G01*
G37*
G36*
G01*
X79179057Y55320851D02*
X79405662Y57910958D01*
G75*
G02*
X79459830Y57956410I49810J-4358D01*
G01*
X82049937Y57729805D01*
G75*
G02*
X82095389Y57675637I-4358J-49810D01*
G01*
X81868784Y55085530D01*
G75*
G02*
X81814616Y55040078I-49810J4358D01*
G01*
X79224509Y55266683D01*
G75*
G02*
X79179057Y55320851I4358J49810D01*
G01*
G37*
%TD*%
D10*
%TO.C,S30*%
X88553900Y52041300D03*
D11*
X83074829Y52520657D03*
X94032971Y51561943D03*
D13*
X83241735Y48691539D03*
X88039681Y46163751D03*
X93203682Y47819981D03*
X88039681Y46163751D03*
%TD*%
D10*
%TO.C,S31*%
X83498800Y-5738000D03*
D11*
X88667109Y-7619111D03*
X78330491Y-3856889D03*
D12*
X89479839Y-3924253D03*
X85533820Y-146829D03*
X80082912Y-504052D03*
X85533820Y-146829D03*
G36*
G01*
X86898101Y-2026818D02*
X87787354Y416383D01*
G75*
G02*
X87851440Y446267I46985J-17101D01*
G01*
X90294641Y-442986D01*
G75*
G02*
X90324525Y-507072I-17101J-46985D01*
G01*
X89435272Y-2950273D01*
G75*
G02*
X89371186Y-2980157I-46985J17101D01*
G01*
X86927985Y-2090904D01*
G75*
G02*
X86898101Y-2026818I17101J46985D01*
G01*
G37*
G36*
G01*
X75292207Y-143809D02*
X76181460Y2299392D01*
G75*
G02*
X76245546Y2329276I46985J-17101D01*
G01*
X78688747Y1440023D01*
G75*
G02*
X78718631Y1375937I-17101J-46985D01*
G01*
X77829378Y-1067264D01*
G75*
G02*
X77765292Y-1097148I-46985J17101D01*
G01*
X75322091Y-207895D01*
G75*
G02*
X75292207Y-143809I17101J46985D01*
G01*
G37*
%TD*%
D10*
%TO.C,S32*%
X83498800Y-5738000D03*
D11*
X78330491Y-3856889D03*
X88667109Y-7619111D03*
D13*
X77500660Y-7598731D03*
X81480881Y-11282186D03*
X86897587Y-11018933D03*
X81480881Y-11282186D03*
%TD*%
D10*
%TO.C,S33*%
X101251000Y-14016000D03*
D11*
X106014140Y-16766000D03*
X96487860Y-11266000D03*
D12*
X107456127Y-13268405D03*
X104226000Y-8863149D03*
X98795873Y-8268405D03*
X104226000Y-8863149D03*
G36*
G01*
X105243099Y-10951482D02*
X106543099Y-8699816D01*
G75*
G02*
X106611400Y-8681515I43301J-25000D01*
G01*
X108863066Y-9981515D01*
G75*
G02*
X108881367Y-10049816I-25000J-43301D01*
G01*
X107581367Y-12301482D01*
G75*
G02*
X107513066Y-12319783I-43301J25000D01*
G01*
X105261400Y-11019783D01*
G75*
G02*
X105243099Y-10951482I25000J43301D01*
G01*
G37*
G36*
G01*
X94140506Y-7081738D02*
X95440506Y-4830072D01*
G75*
G02*
X95508807Y-4811771I43301J-25000D01*
G01*
X97760473Y-6111771D01*
G75*
G02*
X97778774Y-6180072I-25000J-43301D01*
G01*
X96478774Y-8431738D01*
G75*
G02*
X96410473Y-8450039I-43301J25000D01*
G01*
X94158807Y-7150039D01*
G75*
G02*
X94140506Y-7081738I25000J43301D01*
G01*
G37*
%TD*%
D10*
%TO.C,S34*%
X101251000Y-14016000D03*
D11*
X96487860Y-11266000D03*
X106014140Y-16766000D03*
D13*
X95020873Y-14806897D03*
X98301000Y-19125550D03*
X103681127Y-19806897D03*
X98301000Y-19125550D03*
%TD*%
%TO.C,C1*%
G36*
G01*
X98093329Y40562517D02*
X99839260Y40409768D01*
G75*
G02*
X99884712Y40355600I-4358J-49810D01*
G01*
X99731963Y38609669D01*
G75*
G02*
X99677795Y38564217I-49810J4358D01*
G01*
X97931864Y38716966D01*
G75*
G02*
X97886412Y38771134I4358J49810D01*
G01*
X98039161Y40517065D01*
G75*
G02*
X98093329Y40562517I49810J-4358D01*
G01*
G37*
D14*
X98664187Y37033032D03*
X98442811Y34502698D03*
X98221435Y31972363D03*
X98000060Y29442029D03*
X97778684Y26911694D03*
X97557309Y24381359D03*
X97335933Y21851025D03*
X97114557Y19320690D03*
X96893182Y16790356D03*
X96671806Y14260021D03*
X96450431Y11729687D03*
X114067569Y38235113D03*
X113846194Y35704779D03*
X113624818Y33174444D03*
X113403443Y30644110D03*
X113182067Y28113775D03*
X112960691Y25583441D03*
X112739316Y23053106D03*
X112517940Y20522771D03*
X112296565Y17992437D03*
X112075189Y15462102D03*
X111853813Y12931768D03*
X111632438Y10401433D03*
%TD*%
D15*
%TO.C,REF\u002A\u002A*%
X119215713Y30185774D03*
X119825803Y37159137D03*
G36*
G01*
X120398728Y27070814D02*
X120451022Y27668530D01*
G75*
G02*
X121371869Y28441213I846765J-74082D01*
G01*
X121371869Y28441213D01*
G75*
G02*
X122144552Y27520366I-74082J-846765D01*
G01*
X122092258Y26922650D01*
G75*
G02*
X121171411Y26149967I-846765J74082D01*
G01*
X121171411Y26149967D01*
G75*
G02*
X120398728Y27070814I74082J846765D01*
G01*
G37*
G36*
G01*
X115912104Y28567544D02*
X115964398Y29165260D01*
G75*
G02*
X116885245Y29937943I846765J-74082D01*
G01*
X116885245Y29937943D01*
G75*
G02*
X117657928Y29017096I-74082J-846765D01*
G01*
X117605634Y28419380D01*
G75*
G02*
X116684787Y27646697I-846765J74082D01*
G01*
X116684787Y27646697D01*
G75*
G02*
X115912104Y28567544I74082J846765D01*
G01*
G37*
G36*
G01*
X116260727Y32552323D02*
X116313021Y33150039D01*
G75*
G02*
X117233868Y33922722I846765J-74082D01*
G01*
X117233868Y33922722D01*
G75*
G02*
X118006551Y33001875I-74082J-846765D01*
G01*
X117954257Y32404159D01*
G75*
G02*
X117033410Y31631476I-846765J74082D01*
G01*
X117033410Y31631476D01*
G75*
G02*
X116260727Y32552323I74082J846765D01*
G01*
G37*
G36*
G01*
X116522194Y35540907D02*
X116574488Y36138623D01*
G75*
G02*
X117495335Y36911306I846765J-74082D01*
G01*
X117495335Y36911306D01*
G75*
G02*
X118268018Y35990459I-74082J-846765D01*
G01*
X118215724Y35392743D01*
G75*
G02*
X117294877Y34620060I-846765J74082D01*
G01*
X117294877Y34620060D01*
G75*
G02*
X116522194Y35540907I74082J846765D01*
G01*
G37*
G36*
G01*
X115816232Y27471730D02*
X115868526Y28069446D01*
G75*
G02*
X116789373Y28842129I846765J-74082D01*
G01*
X116789373Y28842129D01*
G75*
G02*
X117562056Y27921282I-74082J-846765D01*
G01*
X117509762Y27323566D01*
G75*
G02*
X116588915Y26550883I-846765J74082D01*
G01*
X116588915Y26550883D01*
G75*
G02*
X115816232Y27471730I74082J846765D01*
G01*
G37*
G36*
G01*
X120494599Y28166628D02*
X120546893Y28764344D01*
G75*
G02*
X121467740Y29537027I846765J-74082D01*
G01*
X121467740Y29537027D01*
G75*
G02*
X122240423Y28616180I-74082J-846765D01*
G01*
X122188129Y28018464D01*
G75*
G02*
X121267282Y27245781I-846765J74082D01*
G01*
X121267282Y27245781D01*
G75*
G02*
X120494599Y28166628I74082J846765D01*
G01*
G37*
G36*
G01*
X120843222Y32151407D02*
X120895516Y32749123D01*
G75*
G02*
X121816363Y33521806I846765J-74082D01*
G01*
X121816363Y33521806D01*
G75*
G02*
X122589046Y32600959I-74082J-846765D01*
G01*
X122536752Y32003243D01*
G75*
G02*
X121615905Y31230560I-846765J74082D01*
G01*
X121615905Y31230560D01*
G75*
G02*
X120843222Y32151407I74082J846765D01*
G01*
G37*
G36*
G01*
X121104690Y35139991D02*
X121156984Y35737707D01*
G75*
G02*
X122077831Y36510390I846765J-74082D01*
G01*
X122077831Y36510390D01*
G75*
G02*
X122850514Y35589543I-74082J-846765D01*
G01*
X122798220Y34991827D01*
G75*
G02*
X121877373Y34219144I-846765J74082D01*
G01*
X121877373Y34219144D01*
G75*
G02*
X121104690Y35139991I74082J846765D01*
G01*
G37*
%TD*%
M02*
