%TF.GenerationSoftware,KiCad,Pcbnew,(5.1.10)-1*%
%TF.CreationDate,2021-07-07T00:19:35+02:00*%
%TF.ProjectId,architeuthis_dux,61726368-6974-4657-9574-6869735f6475,VERSION_HERE*%
%TF.SameCoordinates,Original*%
%TF.FileFunction,Profile,NP*%
%FSLAX46Y46*%
G04 Gerber Fmt 4.6, Leading zero omitted, Abs format (unit mm)*
G04 Created by KiCad (PCBNEW (5.1.10)-1) date 2021-07-07 00:19:35*
%MOMM*%
%LPD*%
G01*
G04 APERTURE LIST*
%TA.AperFunction,Profile*%
%ADD10C,0.150000*%
%TD*%
G04 APERTURE END LIST*
D10*
X7329890Y-10516604D02*
X6718859Y-10163826D01*
X6718188Y-10163438D02*
G75*
G02*
X5320411Y-8341818I1500002J2598076D01*
G01*
X-6067627Y34158917D02*
X5320411Y-8341818D01*
X21261480Y5575660D02*
X23673002Y-3424257D01*
X23673001Y-3424256D02*
G75*
G02*
X23373300Y-5700714I-2897778J-776458D01*
G01*
X23372915Y-5701385D02*
X23020135Y-6312416D01*
X23019747Y-6313087D02*
G75*
G02*
X21198128Y-7710864I-2598076J1500000D01*
G01*
X21198128Y-7710864D02*
X9607018Y-10816693D01*
X9607018Y-10816691D02*
G75*
G02*
X7330562Y-10516991I-776458J2897776D01*
G01*
X-6067628Y34158917D02*
G75*
G02*
X-5767925Y36435375I2897779J776456D01*
G01*
X-5767538Y36436044D02*
X-5414759Y37047074D01*
X-5414368Y37047747D02*
G75*
G02*
X-3592751Y38445522I2598072J-1499999D01*
G01*
X-3592751Y38445522D02*
X16699654Y43882860D01*
X16244705Y58564257D02*
X17437028Y44935938D01*
X16244706Y58564258D02*
G75*
G02*
X16935156Y60754088I2988584J261468D01*
G01*
X16935652Y60754681D02*
X17389176Y61295170D01*
X17389677Y61295764D02*
G75*
G02*
X19426343Y62355983I2298131J-1928364D01*
G01*
X19426343Y62355983D02*
X37814054Y63964699D01*
X38726898Y64960895D02*
X38726897Y66819240D01*
X38726898Y66819243D02*
G75*
G02*
X39605580Y68940562I3000000J-3D01*
G01*
X39606126Y68941109D02*
X40105030Y69440013D01*
X40105578Y69440560D02*
G75*
G02*
X42226898Y70319240I2121320J-2121320D01*
G01*
X42226898Y70319240D02*
X54226900Y70319240D01*
X54226899Y70319240D02*
G75*
G02*
X56348220Y69440560I0J-3000001D01*
G01*
X56348767Y69440013D02*
X56847674Y68941108D01*
X56848218Y68940560D02*
G75*
G02*
X57726898Y66819240I-2121320J-2121321D01*
G01*
X57726898Y66819240D02*
X57726899Y66522342D01*
X58639742Y65526146D02*
X77189833Y63903225D01*
X77189833Y63903222D02*
G75*
G02*
X79226499Y62843002I-261466J-2988583D01*
G01*
X79226999Y62842411D02*
X79680522Y62301921D01*
X79681019Y62301328D02*
G75*
G02*
X80208631Y61380519I-2298133J-1928363D01*
G01*
X111971633Y-12977030D02*
X115085092Y22609968D01*
X97875625Y42184357D02*
X122780492Y40005465D01*
X122382196Y23979194D02*
X123689532Y38922114D01*
X121298845Y23070154D02*
X116168442Y23519007D01*
X81063390Y60720175D02*
X94874397Y59511869D01*
X94874396Y59511870D02*
G75*
G02*
X96911062Y58451648I-261468J-2988584D01*
G01*
X96911559Y58451053D02*
X97365084Y57910567D01*
X97365583Y57909972D02*
G75*
G02*
X98056033Y55720142I-2298133J-1928362D01*
G01*
X96966587Y43267710D02*
X98056033Y55720142D01*
X22569427Y6774171D02*
X88651435Y-17277713D01*
X111971573Y-13150650D02*
G75*
G02*
X111580883Y-14910038I-2988764J-259387D01*
G01*
X111580884Y-14910038D02*
X106580885Y-23570291D01*
X106580884Y-23570292D02*
G75*
G02*
X104759265Y-24968070I-2598076J1500000D01*
G01*
X104758516Y-24968269D02*
X104077001Y-25150882D01*
X104076254Y-25151083D02*
G75*
G02*
X101799795Y-24851382I-776458J2897779D01*
G01*
X88809414Y-17351380D02*
X101799795Y-24851382D01*
X-6067627Y34158917D02*
G75*
G02*
X-6067627Y34158917I965928J258819D01*
G01*
X17437027Y44935941D02*
G75*
G02*
X16699654Y43882860I-996193J-87157D01*
G01*
X38726898Y64960892D02*
G75*
G02*
X37814054Y63964699I-999999J1D01*
G01*
X58639743Y65526145D02*
G75*
G02*
X57726899Y66522342I87157J996196D01*
G01*
X81063389Y60720176D02*
G75*
G02*
X80208631Y61380519I87156J996194D01*
G01*
X97875623Y42184360D02*
G75*
G02*
X96966587Y43267710I87157J996193D01*
G01*
X122780494Y40005464D02*
G75*
G02*
X123689532Y38922114I-87156J-996194D01*
G01*
X122382195Y23979194D02*
G75*
G02*
X121298845Y23070154I-996195J87155D01*
G01*
X115085091Y22609968D02*
G75*
G02*
X116168442Y23519007I996195J-87156D01*
G01*
X111971573Y-13150649D02*
G75*
G02*
X111971633Y-12977030I996254J86464D01*
G01*
X88651434Y-17277713D02*
G75*
G02*
X88809414Y-17351380I-342021J-939693D01*
G01*
X21261481Y5575659D02*
G75*
G02*
X22569427Y6774171I965926J258819D01*
G01*
X9607018Y-10816693D02*
G75*
G02*
X9607018Y-10816693I-258819J965926D01*
G01*
M02*
