%TF.GenerationSoftware,KiCad,Pcbnew,(5.1.10)-1*%
%TF.CreationDate,2021-07-05T15:56:21+02:00*%
%TF.ProjectId,architeuthis_dux,61726368-6974-4657-9574-6869735f6475,VERSION_HERE*%
%TF.SameCoordinates,Original*%
%TF.FileFunction,Paste,Top*%
%TF.FilePolarity,Positive*%
%FSLAX46Y46*%
G04 Gerber Fmt 4.6, Leading zero omitted, Abs format (unit mm)*
G04 Created by KiCad (PCBNEW (5.1.10)-1) date 2021-07-05 15:56:21*
%MOMM*%
%LPD*%
G01*
G04 APERTURE LIST*
%ADD10C,0.100000*%
%ADD11R,2.600000X2.600000*%
G04 APERTURE END LIST*
D10*
%TO.C,S1*%
G36*
X14304295Y4423423D02*
G01*
X13631366Y6934830D01*
X16142773Y7607759D01*
X16815702Y5096352D01*
X14304295Y4423423D01*
G37*
G36*
X3717253Y-690974D02*
G01*
X3044324Y1820433D01*
X5555731Y2493362D01*
X6228660Y-18045D01*
X3717253Y-690974D01*
G37*
%TD*%
%TO.C,S3*%
G36*
X9904395Y20844223D02*
G01*
X9231466Y23355630D01*
X11742873Y24028559D01*
X12415802Y21517152D01*
X9904395Y20844223D01*
G37*
G36*
X-682647Y15729826D02*
G01*
X-1355576Y18241233D01*
X1155831Y18914162D01*
X1828760Y16402755D01*
X-682647Y15729826D01*
G37*
%TD*%
%TO.C,S5*%
G36*
X5504395Y37264923D02*
G01*
X4831466Y39776330D01*
X7342873Y40449259D01*
X8015802Y37937852D01*
X5504395Y37264923D01*
G37*
G36*
X-5082647Y32150526D02*
G01*
X-5755576Y34661933D01*
X-3244169Y35334862D01*
X-2571240Y32823455D01*
X-5082647Y32150526D01*
G37*
%TD*%
%TO.C,S7*%
G36*
X31067310Y25819238D02*
G01*
X30840705Y28409345D01*
X33430812Y28635950D01*
X33657417Y26045843D01*
X31067310Y25819238D01*
G37*
G36*
X19753004Y22620960D02*
G01*
X19526399Y25211067D01*
X22116506Y25437672D01*
X22343111Y22847565D01*
X19753004Y22620960D01*
G37*
%TD*%
%TO.C,S9*%
G36*
X29585610Y42754538D02*
G01*
X29359005Y45344645D01*
X31949112Y45571250D01*
X32175717Y42981143D01*
X29585610Y42754538D01*
G37*
G36*
X18271304Y39556260D02*
G01*
X18044699Y42146367D01*
X20634806Y42372972D01*
X20861411Y39782865D01*
X18271304Y39556260D01*
G37*
%TD*%
%TO.C,S11*%
G36*
X28104010Y59689838D02*
G01*
X27877405Y62279945D01*
X30467512Y62506550D01*
X30694117Y59916443D01*
X28104010Y59689838D01*
G37*
G36*
X16789704Y56491560D02*
G01*
X16563099Y59081667D01*
X19153206Y59308272D01*
X19379811Y56718165D01*
X16789704Y56491560D01*
G37*
%TD*%
D11*
%TO.C,S13*%
X51899400Y34243400D03*
X40349400Y32043400D03*
%TD*%
%TO.C,S15*%
X51899400Y51243400D03*
X40349400Y49043400D03*
%TD*%
%TO.C,S17*%
X51899400Y68243400D03*
X40349400Y66043400D03*
%TD*%
D10*
%TO.C,S19*%
G36*
X70278758Y27022172D02*
G01*
X70505363Y29612279D01*
X73095470Y29385674D01*
X72868865Y26795567D01*
X70278758Y27022172D01*
G37*
G36*
X58580967Y25837193D02*
G01*
X58807572Y28427300D01*
X61397679Y28200695D01*
X61171074Y25610588D01*
X58580967Y25837193D01*
G37*
%TD*%
%TO.C,S21*%
G36*
X71760458Y43957472D02*
G01*
X71987063Y46547579D01*
X74577170Y46320974D01*
X74350565Y43730867D01*
X71760458Y43957472D01*
G37*
G36*
X60062667Y42772493D02*
G01*
X60289272Y45362600D01*
X62879379Y45135995D01*
X62652774Y42545888D01*
X60062667Y42772493D01*
G37*
%TD*%
%TO.C,S23*%
G36*
X73242058Y60892872D02*
G01*
X73468663Y63482979D01*
X76058770Y63256374D01*
X75832165Y60666267D01*
X73242058Y60892872D01*
G37*
G36*
X61544267Y59707893D02*
G01*
X61770872Y62298000D01*
X64360979Y62071395D01*
X64134374Y59481288D01*
X61544267Y59707893D01*
G37*
%TD*%
%TO.C,S25*%
G36*
X87963358Y22630872D02*
G01*
X88189963Y25220979D01*
X90780070Y24994374D01*
X90553465Y22404267D01*
X87963358Y22630872D01*
G37*
G36*
X76265567Y21445893D02*
G01*
X76492172Y24036000D01*
X79082279Y23809395D01*
X78855674Y21219288D01*
X76265567Y21445893D01*
G37*
%TD*%
%TO.C,S27*%
G36*
X89444958Y39566172D02*
G01*
X89671563Y42156279D01*
X92261670Y41929674D01*
X92035065Y39339567D01*
X89444958Y39566172D01*
G37*
G36*
X77747167Y38381193D02*
G01*
X77973772Y40971300D01*
X80563879Y40744695D01*
X80337274Y38154588D01*
X77747167Y38381193D01*
G37*
%TD*%
%TO.C,S29*%
G36*
X90926658Y56501472D02*
G01*
X91153263Y59091579D01*
X93743370Y58864974D01*
X93516765Y56274867D01*
X90926658Y56501472D01*
G37*
G36*
X79228867Y55316493D02*
G01*
X79455472Y57906600D01*
X82045579Y57679995D01*
X81818974Y55089888D01*
X79228867Y55316493D01*
G37*
%TD*%
%TO.C,S31*%
G36*
X86945086Y-2043919D02*
G01*
X87834339Y399282D01*
X90277540Y-489971D01*
X89388287Y-2933172D01*
X86945086Y-2043919D01*
G37*
G36*
X75339192Y-160910D02*
G01*
X76228445Y2282291D01*
X78671646Y1393038D01*
X77782393Y-1050163D01*
X75339192Y-160910D01*
G37*
%TD*%
%TO.C,S33*%
G36*
X105286400Y-10976482D02*
G01*
X106586400Y-8724816D01*
X108838066Y-10024816D01*
X107538066Y-12276482D01*
X105286400Y-10976482D01*
G37*
G36*
X94183807Y-7106738D02*
G01*
X95483807Y-4855072D01*
X97735473Y-6155072D01*
X96435473Y-8406738D01*
X94183807Y-7106738D01*
G37*
%TD*%
M02*
