%TF.GenerationSoftware,KiCad,Pcbnew,(5.1.10)-1*%
%TF.CreationDate,2021-07-05T15:56:21+02:00*%
%TF.ProjectId,architeuthis_dux,61726368-6974-4657-9574-6869735f6475,VERSION_HERE*%
%TF.SameCoordinates,Original*%
%TF.FileFunction,Soldermask,Bot*%
%TF.FilePolarity,Negative*%
%FSLAX46Y46*%
G04 Gerber Fmt 4.6, Leading zero omitted, Abs format (unit mm)*
G04 Created by KiCad (PCBNEW (5.1.10)-1) date 2021-07-05 15:56:21*
%MOMM*%
%LPD*%
G01*
G04 APERTURE LIST*
%ADD10C,3.529000*%
%ADD11C,1.801800*%
%ADD12C,3.100000*%
%ADD13C,2.132000*%
%ADD14C,1.852600*%
%ADD15C,1.600000*%
G04 APERTURE END LIST*
D10*
%TO.C,S1*%
X13600100Y-579300D03*
D11*
X18912692Y844205D03*
X8287508Y-2002805D03*
D12*
X17459158Y4337017D03*
X12060127Y5167959D03*
G36*
G01*
X7929185Y2715217D02*
X7256256Y5226624D01*
G75*
G02*
X7291611Y5287861I48296J12941D01*
G01*
X9803018Y5960790D01*
G75*
G02*
X9864255Y5925435I12941J-48296D01*
G01*
X10537184Y3414028D01*
G75*
G02*
X10501829Y3352791I-48296J-12941D01*
G01*
X7990422Y2679862D01*
G75*
G02*
X7929185Y2715217I-12941J48296D01*
G01*
G37*
G36*
G01*
X19655030Y3579540D02*
X18982101Y6090947D01*
G75*
G02*
X19017456Y6152184I48296J12941D01*
G01*
X21528863Y6825113D01*
G75*
G02*
X21590100Y6789758I12941J-48296D01*
G01*
X22263029Y4278351D01*
G75*
G02*
X22227674Y4217114I-48296J-12941D01*
G01*
X19716267Y3544185D01*
G75*
G02*
X19655030Y3579540I-12941J48296D01*
G01*
G37*
X7799899Y1748827D03*
X12060127Y5167959D03*
%TD*%
D10*
%TO.C,S2*%
X13600100Y-579300D03*
D11*
X8287508Y-2002805D03*
X18912692Y844205D03*
D13*
X9753983Y-5543913D03*
X15127132Y-6278262D03*
X19413242Y-2955723D03*
X15127132Y-6278262D03*
%TD*%
D10*
%TO.C,S3*%
X9200200Y15841500D03*
D11*
X14512792Y17265005D03*
X3887608Y14417995D03*
D12*
X13059258Y20757817D03*
X7660227Y21588759D03*
G36*
G01*
X3529285Y19136017D02*
X2856356Y21647424D01*
G75*
G02*
X2891711Y21708661I48296J12941D01*
G01*
X5403118Y22381590D01*
G75*
G02*
X5464355Y22346235I12941J-48296D01*
G01*
X6137284Y19834828D01*
G75*
G02*
X6101929Y19773591I-48296J-12941D01*
G01*
X3590522Y19100662D01*
G75*
G02*
X3529285Y19136017I-12941J48296D01*
G01*
G37*
G36*
G01*
X15255130Y20000340D02*
X14582201Y22511747D01*
G75*
G02*
X14617556Y22572984I48296J12941D01*
G01*
X17128963Y23245913D01*
G75*
G02*
X17190200Y23210558I12941J-48296D01*
G01*
X17863129Y20699151D01*
G75*
G02*
X17827774Y20637914I-48296J-12941D01*
G01*
X15316367Y19964985D01*
G75*
G02*
X15255130Y20000340I-12941J48296D01*
G01*
G37*
X3399999Y18169627D03*
X7660227Y21588759D03*
%TD*%
D10*
%TO.C,S4*%
X9200200Y15841500D03*
D11*
X3887608Y14417995D03*
X14512792Y17265005D03*
D13*
X5354083Y10876887D03*
X10727232Y10142538D03*
X15013342Y13465077D03*
X10727232Y10142538D03*
%TD*%
D10*
%TO.C,S5*%
X4800200Y32262200D03*
D11*
X10112792Y33685705D03*
X-512392Y30838695D03*
D12*
X8659258Y37178517D03*
X3260227Y38009459D03*
G36*
G01*
X-870715Y35556717D02*
X-1543644Y38068124D01*
G75*
G02*
X-1508289Y38129361I48296J12941D01*
G01*
X1003118Y38802290D01*
G75*
G02*
X1064355Y38766935I12941J-48296D01*
G01*
X1737284Y36255528D01*
G75*
G02*
X1701929Y36194291I-48296J-12941D01*
G01*
X-809478Y35521362D01*
G75*
G02*
X-870715Y35556717I-12941J48296D01*
G01*
G37*
G36*
G01*
X10855130Y36421040D02*
X10182201Y38932447D01*
G75*
G02*
X10217556Y38993684I48296J12941D01*
G01*
X12728963Y39666613D01*
G75*
G02*
X12790200Y39631258I12941J-48296D01*
G01*
X13463129Y37119851D01*
G75*
G02*
X13427774Y37058614I-48296J-12941D01*
G01*
X10916367Y36385685D01*
G75*
G02*
X10855130Y36421040I-12941J48296D01*
G01*
G37*
X-1000001Y34590327D03*
X3260227Y38009459D03*
%TD*%
D10*
%TO.C,S6*%
X4800200Y32262200D03*
D11*
X-512392Y30838695D03*
X10112792Y33685705D03*
D13*
X954083Y27297587D03*
X6327232Y26563238D03*
X10613342Y29885777D03*
X6327232Y26563238D03*
%TD*%
D10*
%TO.C,S7*%
X29505100Y21014800D03*
D11*
X34984171Y21494157D03*
X24026029Y20535443D03*
D12*
X34159239Y25186309D03*
X28986523Y26942158D03*
G36*
G01*
X24492425Y25244009D02*
X24265820Y27834116D01*
G75*
G02*
X24311272Y27888284I49810J4358D01*
G01*
X26901379Y28114889D01*
G75*
G02*
X26955547Y28069437I4358J-49810D01*
G01*
X27182152Y25479330D01*
G75*
G02*
X27136700Y25425162I-49810J-4358D01*
G01*
X24546593Y25198557D01*
G75*
G02*
X24492425Y25244009I-4358J49810D01*
G01*
G37*
G36*
G01*
X36190216Y24059030D02*
X35963611Y26649137D01*
G75*
G02*
X36009063Y26703305I49810J4358D01*
G01*
X38599170Y26929910D01*
G75*
G02*
X38653338Y26884458I4358J-49810D01*
G01*
X38879943Y24294351D01*
G75*
G02*
X38834491Y24240183I-49810J-4358D01*
G01*
X36244384Y24013578D01*
G75*
G02*
X36190216Y24059030I-4358J49810D01*
G01*
G37*
X24197292Y24314751D03*
X28986523Y26942158D03*
%TD*%
D10*
%TO.C,S8*%
X29505100Y21014800D03*
D11*
X24026029Y20535443D03*
X34984171Y21494157D03*
D13*
X24855318Y16793481D03*
X30019319Y15137251D03*
X34817265Y17665039D03*
X30019319Y15137251D03*
%TD*%
D10*
%TO.C,S9*%
X28023400Y37950100D03*
D11*
X33502471Y38429457D03*
X22544329Y37470743D03*
D12*
X32677539Y42121609D03*
X27504823Y43877458D03*
G36*
G01*
X23010725Y42179309D02*
X22784120Y44769416D01*
G75*
G02*
X22829572Y44823584I49810J4358D01*
G01*
X25419679Y45050189D01*
G75*
G02*
X25473847Y45004737I4358J-49810D01*
G01*
X25700452Y42414630D01*
G75*
G02*
X25655000Y42360462I-49810J-4358D01*
G01*
X23064893Y42133857D01*
G75*
G02*
X23010725Y42179309I-4358J49810D01*
G01*
G37*
G36*
G01*
X34708516Y40994330D02*
X34481911Y43584437D01*
G75*
G02*
X34527363Y43638605I49810J4358D01*
G01*
X37117470Y43865210D01*
G75*
G02*
X37171638Y43819758I4358J-49810D01*
G01*
X37398243Y41229651D01*
G75*
G02*
X37352791Y41175483I-49810J-4358D01*
G01*
X34762684Y40948878D01*
G75*
G02*
X34708516Y40994330I-4358J49810D01*
G01*
G37*
X22715592Y41250051D03*
X27504823Y43877458D03*
%TD*%
D10*
%TO.C,S10*%
X28023400Y37950100D03*
D11*
X22544329Y37470743D03*
X33502471Y38429457D03*
D13*
X23373618Y33728781D03*
X28537619Y32072551D03*
X33335565Y34600339D03*
X28537619Y32072551D03*
%TD*%
D10*
%TO.C,S11*%
X26541800Y54885400D03*
D11*
X32020871Y55364757D03*
X21062729Y54406043D03*
D12*
X31195939Y59056909D03*
X26023223Y60812758D03*
G36*
G01*
X21529125Y59114609D02*
X21302520Y61704716D01*
G75*
G02*
X21347972Y61758884I49810J4358D01*
G01*
X23938079Y61985489D01*
G75*
G02*
X23992247Y61940037I4358J-49810D01*
G01*
X24218852Y59349930D01*
G75*
G02*
X24173400Y59295762I-49810J-4358D01*
G01*
X21583293Y59069157D01*
G75*
G02*
X21529125Y59114609I-4358J49810D01*
G01*
G37*
G36*
G01*
X33226916Y57929630D02*
X33000311Y60519737D01*
G75*
G02*
X33045763Y60573905I49810J4358D01*
G01*
X35635870Y60800510D01*
G75*
G02*
X35690038Y60755058I4358J-49810D01*
G01*
X35916643Y58164951D01*
G75*
G02*
X35871191Y58110783I-49810J-4358D01*
G01*
X33281084Y57884178D01*
G75*
G02*
X33226916Y57929630I-4358J49810D01*
G01*
G37*
X21233992Y58185351D03*
X26023223Y60812758D03*
%TD*%
D10*
%TO.C,S12*%
X26541800Y54885400D03*
D11*
X21062729Y54406043D03*
X32020871Y55364757D03*
D13*
X21892018Y50664081D03*
X27056019Y49007851D03*
X31853965Y51535639D03*
X27056019Y49007851D03*
%TD*%
D10*
%TO.C,S13*%
X48624400Y28293400D03*
D11*
X54124400Y28293400D03*
X43124400Y28293400D03*
D12*
X53624400Y32043400D03*
X48624400Y34243400D03*
G36*
G01*
X43999400Y32943400D02*
X43999400Y35543400D01*
G75*
G02*
X44049400Y35593400I50000J0D01*
G01*
X46649400Y35593400D01*
G75*
G02*
X46699400Y35543400I0J-50000D01*
G01*
X46699400Y32943400D01*
G75*
G02*
X46649400Y32893400I-50000J0D01*
G01*
X44049400Y32893400D01*
G75*
G02*
X43999400Y32943400I0J50000D01*
G01*
G37*
G36*
G01*
X55549400Y30743400D02*
X55549400Y33343400D01*
G75*
G02*
X55599400Y33393400I50000J0D01*
G01*
X58199400Y33393400D01*
G75*
G02*
X58249400Y33343400I0J-50000D01*
G01*
X58249400Y30743400D01*
G75*
G02*
X58199400Y30693400I-50000J0D01*
G01*
X55599400Y30693400D01*
G75*
G02*
X55549400Y30743400I0J50000D01*
G01*
G37*
X43624400Y32043400D03*
X48624400Y34243400D03*
%TD*%
D10*
%TO.C,S14*%
X48624400Y28293400D03*
D11*
X43124400Y28293400D03*
X54124400Y28293400D03*
D13*
X43624400Y24493400D03*
X48624400Y22393400D03*
X53624400Y24493400D03*
X48624400Y22393400D03*
%TD*%
D10*
%TO.C,S15*%
X48624400Y45293400D03*
D11*
X54124400Y45293400D03*
X43124400Y45293400D03*
D12*
X53624400Y49043400D03*
X48624400Y51243400D03*
G36*
G01*
X43999400Y49943400D02*
X43999400Y52543400D01*
G75*
G02*
X44049400Y52593400I50000J0D01*
G01*
X46649400Y52593400D01*
G75*
G02*
X46699400Y52543400I0J-50000D01*
G01*
X46699400Y49943400D01*
G75*
G02*
X46649400Y49893400I-50000J0D01*
G01*
X44049400Y49893400D01*
G75*
G02*
X43999400Y49943400I0J50000D01*
G01*
G37*
G36*
G01*
X55549400Y47743400D02*
X55549400Y50343400D01*
G75*
G02*
X55599400Y50393400I50000J0D01*
G01*
X58199400Y50393400D01*
G75*
G02*
X58249400Y50343400I0J-50000D01*
G01*
X58249400Y47743400D01*
G75*
G02*
X58199400Y47693400I-50000J0D01*
G01*
X55599400Y47693400D01*
G75*
G02*
X55549400Y47743400I0J50000D01*
G01*
G37*
X43624400Y49043400D03*
X48624400Y51243400D03*
%TD*%
D10*
%TO.C,S16*%
X48624400Y45293400D03*
D11*
X43124400Y45293400D03*
X54124400Y45293400D03*
D13*
X43624400Y41493400D03*
X48624400Y39393400D03*
X53624400Y41493400D03*
X48624400Y39393400D03*
%TD*%
D10*
%TO.C,S17*%
X48624400Y62293400D03*
D11*
X54124400Y62293400D03*
X43124400Y62293400D03*
D12*
X53624400Y66043400D03*
X48624400Y68243400D03*
G36*
G01*
X43999400Y66943400D02*
X43999400Y69543400D01*
G75*
G02*
X44049400Y69593400I50000J0D01*
G01*
X46649400Y69593400D01*
G75*
G02*
X46699400Y69543400I0J-50000D01*
G01*
X46699400Y66943400D01*
G75*
G02*
X46649400Y66893400I-50000J0D01*
G01*
X44049400Y66893400D01*
G75*
G02*
X43999400Y66943400I0J50000D01*
G01*
G37*
G36*
G01*
X55549400Y64743400D02*
X55549400Y67343400D01*
G75*
G02*
X55599400Y67393400I50000J0D01*
G01*
X58199400Y67393400D01*
G75*
G02*
X58249400Y67343400I0J-50000D01*
G01*
X58249400Y64743400D01*
G75*
G02*
X58199400Y64693400I-50000J0D01*
G01*
X55599400Y64693400D01*
G75*
G02*
X55549400Y64743400I0J50000D01*
G01*
G37*
X43624400Y66043400D03*
X48624400Y68243400D03*
%TD*%
D10*
%TO.C,S18*%
X48624400Y62293400D03*
D11*
X43124400Y62293400D03*
X54124400Y62293400D03*
D13*
X43624400Y58493400D03*
X48624400Y56393400D03*
X53624400Y58493400D03*
X48624400Y56393400D03*
%TD*%
D10*
%TO.C,S19*%
X67906000Y22562000D03*
D11*
X73385071Y22082643D03*
X62426929Y23041357D03*
D12*
X73213808Y25861951D03*
X68424577Y28489358D03*
G36*
G01*
X63703873Y27597401D02*
X63930478Y30187508D01*
G75*
G02*
X63984646Y30232960I49810J-4358D01*
G01*
X66574753Y30006355D01*
G75*
G02*
X66620205Y29952187I-4358J-49810D01*
G01*
X66393600Y27362080D01*
G75*
G02*
X66339432Y27316628I-49810J4358D01*
G01*
X63749325Y27543233D01*
G75*
G02*
X63703873Y27597401I4358J49810D01*
G01*
G37*
G36*
G01*
X75018179Y24399123D02*
X75244784Y26989230D01*
G75*
G02*
X75298952Y27034682I49810J-4358D01*
G01*
X77889059Y26808077D01*
G75*
G02*
X77934511Y26753909I-4358J-49810D01*
G01*
X77707906Y24163802D01*
G75*
G02*
X77653738Y24118350I-49810J4358D01*
G01*
X75063631Y24344955D01*
G75*
G02*
X75018179Y24399123I4358J49810D01*
G01*
G37*
X63251861Y26733509D03*
X68424577Y28489358D03*
%TD*%
D10*
%TO.C,S20*%
X67906000Y22562000D03*
D11*
X62426929Y23041357D03*
X73385071Y22082643D03*
D13*
X62593835Y19212239D03*
X67391781Y16684451D03*
X72555782Y18340681D03*
X67391781Y16684451D03*
%TD*%
D10*
%TO.C,S21*%
X69387700Y39497300D03*
D11*
X74866771Y39017943D03*
X63908629Y39976657D03*
D12*
X74695508Y42797251D03*
X69906277Y45424658D03*
G36*
G01*
X65185573Y44532701D02*
X65412178Y47122808D01*
G75*
G02*
X65466346Y47168260I49810J-4358D01*
G01*
X68056453Y46941655D01*
G75*
G02*
X68101905Y46887487I-4358J-49810D01*
G01*
X67875300Y44297380D01*
G75*
G02*
X67821132Y44251928I-49810J4358D01*
G01*
X65231025Y44478533D01*
G75*
G02*
X65185573Y44532701I4358J49810D01*
G01*
G37*
G36*
G01*
X76499879Y41334423D02*
X76726484Y43924530D01*
G75*
G02*
X76780652Y43969982I49810J-4358D01*
G01*
X79370759Y43743377D01*
G75*
G02*
X79416211Y43689209I-4358J-49810D01*
G01*
X79189606Y41099102D01*
G75*
G02*
X79135438Y41053650I-49810J4358D01*
G01*
X76545331Y41280255D01*
G75*
G02*
X76499879Y41334423I4358J49810D01*
G01*
G37*
X64733561Y43668809D03*
X69906277Y45424658D03*
%TD*%
D10*
%TO.C,S22*%
X69387700Y39497300D03*
D11*
X63908629Y39976657D03*
X74866771Y39017943D03*
D13*
X64075535Y36147539D03*
X68873481Y33619751D03*
X74037482Y35275981D03*
X68873481Y33619751D03*
%TD*%
D10*
%TO.C,S23*%
X70869300Y56432700D03*
D11*
X76348371Y55953343D03*
X65390229Y56912057D03*
D12*
X76177108Y59732651D03*
X71387877Y62360058D03*
G36*
G01*
X66667173Y61468101D02*
X66893778Y64058208D01*
G75*
G02*
X66947946Y64103660I49810J-4358D01*
G01*
X69538053Y63877055D01*
G75*
G02*
X69583505Y63822887I-4358J-49810D01*
G01*
X69356900Y61232780D01*
G75*
G02*
X69302732Y61187328I-49810J4358D01*
G01*
X66712625Y61413933D01*
G75*
G02*
X66667173Y61468101I4358J49810D01*
G01*
G37*
G36*
G01*
X77981479Y58269823D02*
X78208084Y60859930D01*
G75*
G02*
X78262252Y60905382I49810J-4358D01*
G01*
X80852359Y60678777D01*
G75*
G02*
X80897811Y60624609I-4358J-49810D01*
G01*
X80671206Y58034502D01*
G75*
G02*
X80617038Y57989050I-49810J4358D01*
G01*
X78026931Y58215655D01*
G75*
G02*
X77981479Y58269823I4358J49810D01*
G01*
G37*
X66215161Y60604209D03*
X71387877Y62360058D03*
%TD*%
D10*
%TO.C,S24*%
X70869300Y56432700D03*
D11*
X65390229Y56912057D03*
X76348371Y55953343D03*
D13*
X65557135Y53082939D03*
X70355081Y50555151D03*
X75519082Y52211381D03*
X70355081Y50555151D03*
%TD*%
D10*
%TO.C,S25*%
X85590600Y18170700D03*
D11*
X91069671Y17691343D03*
X80111529Y18650057D03*
D12*
X90898408Y21470651D03*
X86109177Y24098058D03*
G36*
G01*
X81388473Y23206101D02*
X81615078Y25796208D01*
G75*
G02*
X81669246Y25841660I49810J-4358D01*
G01*
X84259353Y25615055D01*
G75*
G02*
X84304805Y25560887I-4358J-49810D01*
G01*
X84078200Y22970780D01*
G75*
G02*
X84024032Y22925328I-49810J4358D01*
G01*
X81433925Y23151933D01*
G75*
G02*
X81388473Y23206101I4358J49810D01*
G01*
G37*
G36*
G01*
X92702779Y20007823D02*
X92929384Y22597930D01*
G75*
G02*
X92983552Y22643382I49810J-4358D01*
G01*
X95573659Y22416777D01*
G75*
G02*
X95619111Y22362609I-4358J-49810D01*
G01*
X95392506Y19772502D01*
G75*
G02*
X95338338Y19727050I-49810J4358D01*
G01*
X92748231Y19953655D01*
G75*
G02*
X92702779Y20007823I4358J49810D01*
G01*
G37*
X80936461Y22342209D03*
X86109177Y24098058D03*
%TD*%
D10*
%TO.C,S26*%
X85590600Y18170700D03*
D11*
X80111529Y18650057D03*
X91069671Y17691343D03*
D13*
X80278435Y14820939D03*
X85076381Y12293151D03*
X90240382Y13949381D03*
X85076381Y12293151D03*
%TD*%
D10*
%TO.C,S27*%
X87072200Y35106000D03*
D11*
X92551271Y34626643D03*
X81593129Y35585357D03*
D12*
X92380008Y38405951D03*
X87590777Y41033358D03*
G36*
G01*
X82870073Y40141401D02*
X83096678Y42731508D01*
G75*
G02*
X83150846Y42776960I49810J-4358D01*
G01*
X85740953Y42550355D01*
G75*
G02*
X85786405Y42496187I-4358J-49810D01*
G01*
X85559800Y39906080D01*
G75*
G02*
X85505632Y39860628I-49810J4358D01*
G01*
X82915525Y40087233D01*
G75*
G02*
X82870073Y40141401I4358J49810D01*
G01*
G37*
G36*
G01*
X94184379Y36943123D02*
X94410984Y39533230D01*
G75*
G02*
X94465152Y39578682I49810J-4358D01*
G01*
X97055259Y39352077D01*
G75*
G02*
X97100711Y39297909I-4358J-49810D01*
G01*
X96874106Y36707802D01*
G75*
G02*
X96819938Y36662350I-49810J4358D01*
G01*
X94229831Y36888955D01*
G75*
G02*
X94184379Y36943123I4358J49810D01*
G01*
G37*
X82418061Y39277509D03*
X87590777Y41033358D03*
%TD*%
D10*
%TO.C,S28*%
X87072200Y35106000D03*
D11*
X81593129Y35585357D03*
X92551271Y34626643D03*
D13*
X81760035Y31756239D03*
X86557981Y29228451D03*
X91721982Y30884681D03*
X86557981Y29228451D03*
%TD*%
D10*
%TO.C,S29*%
X88553900Y52041300D03*
D11*
X94032971Y51561943D03*
X83074829Y52520657D03*
D12*
X93861708Y55341251D03*
X89072477Y57968658D03*
G36*
G01*
X84351773Y57076701D02*
X84578378Y59666808D01*
G75*
G02*
X84632546Y59712260I49810J-4358D01*
G01*
X87222653Y59485655D01*
G75*
G02*
X87268105Y59431487I-4358J-49810D01*
G01*
X87041500Y56841380D01*
G75*
G02*
X86987332Y56795928I-49810J4358D01*
G01*
X84397225Y57022533D01*
G75*
G02*
X84351773Y57076701I4358J49810D01*
G01*
G37*
G36*
G01*
X95666079Y53878423D02*
X95892684Y56468530D01*
G75*
G02*
X95946852Y56513982I49810J-4358D01*
G01*
X98536959Y56287377D01*
G75*
G02*
X98582411Y56233209I-4358J-49810D01*
G01*
X98355806Y53643102D01*
G75*
G02*
X98301638Y53597650I-49810J4358D01*
G01*
X95711531Y53824255D01*
G75*
G02*
X95666079Y53878423I4358J49810D01*
G01*
G37*
X83899761Y56212809D03*
X89072477Y57968658D03*
%TD*%
D10*
%TO.C,S30*%
X88553900Y52041300D03*
D11*
X83074829Y52520657D03*
X94032971Y51561943D03*
D13*
X83241735Y48691539D03*
X88039681Y46163751D03*
X93203682Y47819981D03*
X88039681Y46163751D03*
%TD*%
D10*
%TO.C,S31*%
X83498800Y-5738000D03*
D11*
X88667109Y-7619111D03*
X78330491Y-3856889D03*
D12*
X89479839Y-3924253D03*
X85533820Y-146829D03*
G36*
G01*
X80743115Y213414D02*
X81632368Y2656615D01*
G75*
G02*
X81696454Y2686499I46985J-17101D01*
G01*
X84139655Y1797246D01*
G75*
G02*
X84169539Y1733160I-17101J-46985D01*
G01*
X83280286Y-710041D01*
G75*
G02*
X83216200Y-739925I-46985J17101D01*
G01*
X80772999Y149328D01*
G75*
G02*
X80743115Y213414I17101J46985D01*
G01*
G37*
G36*
G01*
X90844120Y-5804242D02*
X91733373Y-3361041D01*
G75*
G02*
X91797459Y-3331157I46985J-17101D01*
G01*
X94240660Y-4220410D01*
G75*
G02*
X94270544Y-4284496I-17101J-46985D01*
G01*
X93381291Y-6727697D01*
G75*
G02*
X93317205Y-6757581I-46985J17101D01*
G01*
X90874004Y-5868328D01*
G75*
G02*
X90844120Y-5804242I17101J46985D01*
G01*
G37*
X80082912Y-504052D03*
X85533820Y-146829D03*
%TD*%
D10*
%TO.C,S32*%
X83498800Y-5738000D03*
D11*
X78330491Y-3856889D03*
X88667109Y-7619111D03*
D13*
X77500660Y-7598731D03*
X81480881Y-11282186D03*
X86897587Y-11018933D03*
X81480881Y-11282186D03*
%TD*%
D10*
%TO.C,S33*%
X101251000Y-14016000D03*
D11*
X106014140Y-16766000D03*
X96487860Y-11266000D03*
D12*
X107456127Y-13268405D03*
X104226000Y-8863149D03*
G36*
G01*
X99570633Y-7676482D02*
X100870633Y-5424816D01*
G75*
G02*
X100938934Y-5406515I43301J-25000D01*
G01*
X103190600Y-6706515D01*
G75*
G02*
X103208901Y-6774816I-25000J-43301D01*
G01*
X101908901Y-9026482D01*
G75*
G02*
X101840600Y-9044783I-43301J25000D01*
G01*
X99588934Y-7744783D01*
G75*
G02*
X99570633Y-7676482I25000J43301D01*
G01*
G37*
G36*
G01*
X108473226Y-15356738D02*
X109773226Y-13105072D01*
G75*
G02*
X109841527Y-13086771I43301J-25000D01*
G01*
X112093193Y-14386771D01*
G75*
G02*
X112111494Y-14455072I-25000J-43301D01*
G01*
X110811494Y-16706738D01*
G75*
G02*
X110743193Y-16725039I-43301J25000D01*
G01*
X108491527Y-15425039D01*
G75*
G02*
X108473226Y-15356738I25000J43301D01*
G01*
G37*
X98795873Y-8268405D03*
X104226000Y-8863149D03*
%TD*%
D10*
%TO.C,S34*%
X101251000Y-14016000D03*
D11*
X96487860Y-11266000D03*
X106014140Y-16766000D03*
D13*
X95020873Y-14806897D03*
X98301000Y-19125550D03*
X103681127Y-19806897D03*
X98301000Y-19125550D03*
%TD*%
%TO.C,C1*%
G36*
G01*
X98093329Y40562517D02*
X99839260Y40409768D01*
G75*
G02*
X99884712Y40355600I-4358J-49810D01*
G01*
X99731963Y38609669D01*
G75*
G02*
X99677795Y38564217I-49810J4358D01*
G01*
X97931864Y38716966D01*
G75*
G02*
X97886412Y38771134I4358J49810D01*
G01*
X98039161Y40517065D01*
G75*
G02*
X98093329Y40562517I49810J-4358D01*
G01*
G37*
D14*
X98664187Y37033032D03*
X98442811Y34502698D03*
X98221435Y31972363D03*
X98000060Y29442029D03*
X97778684Y26911694D03*
X97557309Y24381359D03*
X97335933Y21851025D03*
X97114557Y19320690D03*
X96893182Y16790356D03*
X96671806Y14260021D03*
X96450431Y11729687D03*
X114067569Y38235113D03*
X113846194Y35704779D03*
X113624818Y33174444D03*
X113403443Y30644110D03*
X113182067Y28113775D03*
X112960691Y25583441D03*
X112739316Y23053106D03*
X112517940Y20522771D03*
X112296565Y17992437D03*
X112075189Y15462102D03*
X111853813Y12931768D03*
X111632438Y10401433D03*
%TD*%
D15*
%TO.C,REF\u002A\u002A*%
X119215713Y30185774D03*
X119825803Y37159137D03*
G36*
G01*
X120398728Y27070814D02*
X120451022Y27668530D01*
G75*
G02*
X121371869Y28441213I846765J-74082D01*
G01*
X121371869Y28441213D01*
G75*
G02*
X122144552Y27520366I-74082J-846765D01*
G01*
X122092258Y26922650D01*
G75*
G02*
X121171411Y26149967I-846765J74082D01*
G01*
X121171411Y26149967D01*
G75*
G02*
X120398728Y27070814I74082J846765D01*
G01*
G37*
G36*
G01*
X115912104Y28567544D02*
X115964398Y29165260D01*
G75*
G02*
X116885245Y29937943I846765J-74082D01*
G01*
X116885245Y29937943D01*
G75*
G02*
X117657928Y29017096I-74082J-846765D01*
G01*
X117605634Y28419380D01*
G75*
G02*
X116684787Y27646697I-846765J74082D01*
G01*
X116684787Y27646697D01*
G75*
G02*
X115912104Y28567544I74082J846765D01*
G01*
G37*
G36*
G01*
X116260727Y32552323D02*
X116313021Y33150039D01*
G75*
G02*
X117233868Y33922722I846765J-74082D01*
G01*
X117233868Y33922722D01*
G75*
G02*
X118006551Y33001875I-74082J-846765D01*
G01*
X117954257Y32404159D01*
G75*
G02*
X117033410Y31631476I-846765J74082D01*
G01*
X117033410Y31631476D01*
G75*
G02*
X116260727Y32552323I74082J846765D01*
G01*
G37*
G36*
G01*
X116522194Y35540907D02*
X116574488Y36138623D01*
G75*
G02*
X117495335Y36911306I846765J-74082D01*
G01*
X117495335Y36911306D01*
G75*
G02*
X118268018Y35990459I-74082J-846765D01*
G01*
X118215724Y35392743D01*
G75*
G02*
X117294877Y34620060I-846765J74082D01*
G01*
X117294877Y34620060D01*
G75*
G02*
X116522194Y35540907I74082J846765D01*
G01*
G37*
G36*
G01*
X115816232Y27471730D02*
X115868526Y28069446D01*
G75*
G02*
X116789373Y28842129I846765J-74082D01*
G01*
X116789373Y28842129D01*
G75*
G02*
X117562056Y27921282I-74082J-846765D01*
G01*
X117509762Y27323566D01*
G75*
G02*
X116588915Y26550883I-846765J74082D01*
G01*
X116588915Y26550883D01*
G75*
G02*
X115816232Y27471730I74082J846765D01*
G01*
G37*
G36*
G01*
X120494599Y28166628D02*
X120546893Y28764344D01*
G75*
G02*
X121467740Y29537027I846765J-74082D01*
G01*
X121467740Y29537027D01*
G75*
G02*
X122240423Y28616180I-74082J-846765D01*
G01*
X122188129Y28018464D01*
G75*
G02*
X121267282Y27245781I-846765J74082D01*
G01*
X121267282Y27245781D01*
G75*
G02*
X120494599Y28166628I74082J846765D01*
G01*
G37*
G36*
G01*
X120843222Y32151407D02*
X120895516Y32749123D01*
G75*
G02*
X121816363Y33521806I846765J-74082D01*
G01*
X121816363Y33521806D01*
G75*
G02*
X122589046Y32600959I-74082J-846765D01*
G01*
X122536752Y32003243D01*
G75*
G02*
X121615905Y31230560I-846765J74082D01*
G01*
X121615905Y31230560D01*
G75*
G02*
X120843222Y32151407I74082J846765D01*
G01*
G37*
G36*
G01*
X121104690Y35139991D02*
X121156984Y35737707D01*
G75*
G02*
X122077831Y36510390I846765J-74082D01*
G01*
X122077831Y36510390D01*
G75*
G02*
X122850514Y35589543I-74082J-846765D01*
G01*
X122798220Y34991827D01*
G75*
G02*
X121877373Y34219144I-846765J74082D01*
G01*
X121877373Y34219144D01*
G75*
G02*
X121104690Y35139991I74082J846765D01*
G01*
G37*
%TD*%
M02*
