%TF.GenerationSoftware,KiCad,Pcbnew,(5.1.10)-1*%
%TF.CreationDate,2021-07-07T00:34:51+02:00*%
%TF.ProjectId,architeuthis_dux,61726368-6974-4657-9574-6869735f6475,VERSION_HERE*%
%TF.SameCoordinates,Original*%
%TF.FileFunction,Paste,Bot*%
%TF.FilePolarity,Positive*%
%FSLAX46Y46*%
G04 Gerber Fmt 4.6, Leading zero omitted, Abs format (unit mm)*
G04 Created by KiCad (PCBNEW (5.1.10)-1) date 2021-07-07 00:34:51*
%MOMM*%
%LPD*%
G01*
G04 APERTURE LIST*
%ADD10C,0.100000*%
%ADD11R,2.600000X2.600000*%
G04 APERTURE END LIST*
D10*
%TO.C,S1*%
G36*
X7580017Y2254009D02*
G01*
X6907088Y4765416D01*
X9418495Y5438345D01*
X10091424Y2926938D01*
X7580017Y2254009D01*
G37*
G36*
X19305862Y3118332D02*
G01*
X18632933Y5629739D01*
X21144340Y6302668D01*
X21817269Y3791261D01*
X19305862Y3118332D01*
G37*
%TD*%
%TO.C,S3*%
G36*
X3180116Y18674809D02*
G01*
X2507187Y21186216D01*
X5018594Y21859145D01*
X5691523Y19347738D01*
X3180116Y18674809D01*
G37*
G36*
X14905961Y19539132D02*
G01*
X14233032Y22050539D01*
X16744439Y22723468D01*
X17417368Y20212061D01*
X14905961Y19539132D01*
G37*
%TD*%
%TO.C,S5*%
G36*
X-1219884Y35095509D02*
G01*
X-1892813Y37606916D01*
X618594Y38279845D01*
X1291523Y35768438D01*
X-1219884Y35095509D01*
G37*
G36*
X10505961Y35959832D02*
G01*
X9833032Y38471239D01*
X12344439Y39144168D01*
X13017368Y36632761D01*
X10505961Y35959832D01*
G37*
%TD*%
%TO.C,S7*%
G36*
X24144771Y24774219D02*
G01*
X23918166Y27364326D01*
X26508273Y27590931D01*
X26734878Y25000824D01*
X24144771Y24774219D01*
G37*
G36*
X35842562Y23589240D02*
G01*
X35615957Y26179347D01*
X38206064Y26405952D01*
X38432669Y23815845D01*
X35842562Y23589240D01*
G37*
%TD*%
%TO.C,S9*%
G36*
X22663070Y41709518D02*
G01*
X22436465Y44299625D01*
X25026572Y44526230D01*
X25253177Y41936123D01*
X22663070Y41709518D01*
G37*
G36*
X34360861Y40524539D02*
G01*
X34134256Y43114646D01*
X36724363Y43341251D01*
X36950968Y40751144D01*
X34360861Y40524539D01*
G37*
%TD*%
%TO.C,S11*%
G36*
X21181470Y58644820D02*
G01*
X20954865Y61234927D01*
X23544972Y61461532D01*
X23771577Y58871425D01*
X21181470Y58644820D01*
G37*
G36*
X32879261Y57459841D02*
G01*
X32652656Y60049948D01*
X35242763Y60276553D01*
X35469368Y57686446D01*
X32879261Y57459841D01*
G37*
%TD*%
D11*
%TO.C,S13*%
X44951936Y33769253D03*
X56501936Y31569253D03*
%TD*%
%TO.C,S15*%
X44951935Y50769253D03*
X56501935Y48569253D03*
%TD*%
%TO.C,S17*%
X44951936Y67769251D03*
X56501936Y65569251D03*
%TD*%
D10*
%TO.C,S19*%
G36*
X63356217Y27118895D02*
G01*
X63582822Y29709002D01*
X66172929Y29482397D01*
X65946324Y26892290D01*
X63356217Y27118895D01*
G37*
G36*
X74670523Y23920617D02*
G01*
X74897128Y26510724D01*
X77487235Y26284119D01*
X77260630Y23694012D01*
X74670523Y23920617D01*
G37*
%TD*%
%TO.C,S21*%
G36*
X64837918Y44054195D02*
G01*
X65064523Y46644302D01*
X67654630Y46417697D01*
X67428025Y43827590D01*
X64837918Y44054195D01*
G37*
G36*
X76152224Y40855917D02*
G01*
X76378829Y43446024D01*
X78968936Y43219419D01*
X78742331Y40629312D01*
X76152224Y40855917D01*
G37*
%TD*%
%TO.C,S23*%
G36*
X66319519Y60989595D02*
G01*
X66546124Y63579702D01*
X69136231Y63353097D01*
X68909626Y60762990D01*
X66319519Y60989595D01*
G37*
G36*
X77633825Y57791317D02*
G01*
X77860430Y60381424D01*
X80450537Y60154819D01*
X80223932Y57564712D01*
X77633825Y57791317D01*
G37*
%TD*%
%TO.C,S25*%
G36*
X81040818Y22727595D02*
G01*
X81267423Y25317702D01*
X83857530Y25091097D01*
X83630925Y22500990D01*
X81040818Y22727595D01*
G37*
G36*
X92355124Y19529317D02*
G01*
X92581729Y22119424D01*
X95171836Y21892819D01*
X94945231Y19302712D01*
X92355124Y19529317D01*
G37*
%TD*%
%TO.C,S27*%
G36*
X82522418Y39662895D02*
G01*
X82749023Y42253002D01*
X85339130Y42026397D01*
X85112525Y39436290D01*
X82522418Y39662895D01*
G37*
G36*
X93836724Y36464617D02*
G01*
X94063329Y39054724D01*
X96653436Y38828119D01*
X96426831Y36238012D01*
X93836724Y36464617D01*
G37*
%TD*%
%TO.C,S29*%
G36*
X84004119Y56598195D02*
G01*
X84230724Y59188302D01*
X86820831Y58961697D01*
X86594226Y56371590D01*
X84004119Y56598195D01*
G37*
G36*
X95318425Y53399917D02*
G01*
X95545030Y55990024D01*
X98135137Y55763419D01*
X97908532Y53173312D01*
X95318425Y53399917D01*
G37*
%TD*%
%TO.C,S31*%
G36*
X80392635Y-277836D02*
G01*
X81281888Y2165365D01*
X83725089Y1276112D01*
X82835836Y-1167089D01*
X80392635Y-277836D01*
G37*
G36*
X90493640Y-6295492D02*
G01*
X91382893Y-3852291D01*
X93826094Y-4741544D01*
X92936841Y-7184745D01*
X90493640Y-6295492D01*
G37*
%TD*%
%TO.C,S33*%
G36*
X99216469Y-8175629D02*
G01*
X100516469Y-5923963D01*
X102768135Y-7223963D01*
X101468135Y-9475629D01*
X99216469Y-8175629D01*
G37*
G36*
X108119062Y-15855885D02*
G01*
X109419062Y-13604219D01*
X111670728Y-14904219D01*
X110370728Y-17155885D01*
X108119062Y-15855885D01*
G37*
%TD*%
M02*
