%TF.GenerationSoftware,KiCad,Pcbnew,(5.1.10)-1*%
%TF.CreationDate,2021-07-08T00:04:35+02:00*%
%TF.ProjectId,architeuthis_dux,61726368-6974-4657-9574-6869735f6475,VERSION_HERE*%
%TF.SameCoordinates,Original*%
%TF.FileFunction,Paste,Top*%
%TF.FilePolarity,Positive*%
%FSLAX46Y46*%
G04 Gerber Fmt 4.6, Leading zero omitted, Abs format (unit mm)*
G04 Created by KiCad (PCBNEW (5.1.10)-1) date 2021-07-08 00:04:35*
%MOMM*%
%LPD*%
G01*
G04 APERTURE LIST*
%ADD10C,0.100000*%
%ADD11R,2.600000X2.600000*%
G04 APERTURE END LIST*
D10*
%TO.C,S1*%
G36*
X13906831Y3949274D02*
G01*
X13233902Y6460681D01*
X15745309Y7133610D01*
X16418238Y4622203D01*
X13906831Y3949274D01*
G37*
G36*
X3319789Y-1165123D02*
G01*
X2646860Y1346284D01*
X5158267Y2019213D01*
X5831196Y-492194D01*
X3319789Y-1165123D01*
G37*
%TD*%
%TO.C,S3*%
G36*
X9506930Y20370074D02*
G01*
X8834001Y22881481D01*
X11345408Y23554410D01*
X12018337Y21043003D01*
X9506930Y20370074D01*
G37*
G36*
X-1080112Y15255677D02*
G01*
X-1753041Y17767084D01*
X758366Y18440013D01*
X1431295Y15928606D01*
X-1080112Y15255677D01*
G37*
%TD*%
%TO.C,S5*%
G36*
X5106930Y36790774D02*
G01*
X4434001Y39302181D01*
X6945408Y39975110D01*
X7618337Y37463703D01*
X5106930Y36790774D01*
G37*
G36*
X-5480112Y31676377D02*
G01*
X-6153041Y34187784D01*
X-3641634Y34860713D01*
X-2968705Y32349306D01*
X-5480112Y31676377D01*
G37*
%TD*%
%TO.C,S7*%
G36*
X30669846Y25345090D02*
G01*
X30443241Y27935197D01*
X33033348Y28161802D01*
X33259953Y25571695D01*
X30669846Y25345090D01*
G37*
G36*
X19355540Y22146812D02*
G01*
X19128935Y24736919D01*
X21719042Y24963524D01*
X21945647Y22373417D01*
X19355540Y22146812D01*
G37*
%TD*%
%TO.C,S9*%
G36*
X29188145Y42280389D02*
G01*
X28961540Y44870496D01*
X31551647Y45097101D01*
X31778252Y42506994D01*
X29188145Y42280389D01*
G37*
G36*
X17873839Y39082111D02*
G01*
X17647234Y41672218D01*
X20237341Y41898823D01*
X20463946Y39308716D01*
X17873839Y39082111D01*
G37*
%TD*%
%TO.C,S11*%
G36*
X27706545Y59215691D02*
G01*
X27479940Y61805798D01*
X30070047Y62032403D01*
X30296652Y59442296D01*
X27706545Y59215691D01*
G37*
G36*
X16392239Y56017413D02*
G01*
X16165634Y58607520D01*
X18755741Y58834125D01*
X18982346Y56244018D01*
X16392239Y56017413D01*
G37*
%TD*%
D11*
%TO.C,S13*%
X51501936Y33769253D03*
X39951936Y31569253D03*
%TD*%
%TO.C,S15*%
X51501935Y50769253D03*
X39951935Y48569253D03*
%TD*%
%TO.C,S17*%
X51501936Y67769251D03*
X39951936Y65569251D03*
%TD*%
D10*
%TO.C,S19*%
G36*
X69881292Y26548024D02*
G01*
X70107897Y29138131D01*
X72698004Y28911526D01*
X72471399Y26321419D01*
X69881292Y26548024D01*
G37*
G36*
X58183501Y25363045D02*
G01*
X58410106Y27953152D01*
X61000213Y27726547D01*
X60773608Y25136440D01*
X58183501Y25363045D01*
G37*
%TD*%
%TO.C,S21*%
G36*
X71362993Y43483324D02*
G01*
X71589598Y46073431D01*
X74179705Y45846826D01*
X73953100Y43256719D01*
X71362993Y43483324D01*
G37*
G36*
X59665202Y42298345D02*
G01*
X59891807Y44888452D01*
X62481914Y44661847D01*
X62255309Y42071740D01*
X59665202Y42298345D01*
G37*
%TD*%
%TO.C,S23*%
G36*
X72844594Y60418724D02*
G01*
X73071199Y63008831D01*
X75661306Y62782226D01*
X75434701Y60192119D01*
X72844594Y60418724D01*
G37*
G36*
X61146803Y59233745D02*
G01*
X61373408Y61823852D01*
X63963515Y61597247D01*
X63736910Y59007140D01*
X61146803Y59233745D01*
G37*
%TD*%
%TO.C,S25*%
G36*
X87565893Y22156724D02*
G01*
X87792498Y24746831D01*
X90382605Y24520226D01*
X90156000Y21930119D01*
X87565893Y22156724D01*
G37*
G36*
X75868102Y20971745D02*
G01*
X76094707Y23561852D01*
X78684814Y23335247D01*
X78458209Y20745140D01*
X75868102Y20971745D01*
G37*
%TD*%
%TO.C,S27*%
G36*
X89047493Y39092024D02*
G01*
X89274098Y41682131D01*
X91864205Y41455526D01*
X91637600Y38865419D01*
X89047493Y39092024D01*
G37*
G36*
X77349702Y37907045D02*
G01*
X77576307Y40497152D01*
X80166414Y40270547D01*
X79939809Y37680440D01*
X77349702Y37907045D01*
G37*
%TD*%
%TO.C,S29*%
G36*
X90529194Y56027324D02*
G01*
X90755799Y58617431D01*
X93345906Y58390826D01*
X93119301Y55800719D01*
X90529194Y56027324D01*
G37*
G36*
X78831403Y54842345D02*
G01*
X79058008Y57432452D01*
X81648115Y57205847D01*
X81421510Y54615740D01*
X78831403Y54842345D01*
G37*
%TD*%
%TO.C,S31*%
G36*
X86547621Y-2518068D02*
G01*
X87436874Y-74867D01*
X89880075Y-964120D01*
X88990822Y-3407321D01*
X86547621Y-2518068D01*
G37*
G36*
X74941727Y-635059D02*
G01*
X75830980Y1808142D01*
X78274181Y918889D01*
X77384928Y-1524312D01*
X74941727Y-635059D01*
G37*
%TD*%
%TO.C,S33*%
G36*
X104888935Y-11450629D02*
G01*
X106188935Y-9198963D01*
X108440601Y-10498963D01*
X107140601Y-12750629D01*
X104888935Y-11450629D01*
G37*
G36*
X93786342Y-7580885D02*
G01*
X95086342Y-5329219D01*
X97338008Y-6629219D01*
X96038008Y-8880885D01*
X93786342Y-7580885D01*
G37*
%TD*%
M02*
