%TF.GenerationSoftware,KiCad,Pcbnew,(5.1.10)-1*%
%TF.CreationDate,2021-07-05T15:56:21+02:00*%
%TF.ProjectId,architeuthis_dux,61726368-6974-4657-9574-6869735f6475,VERSION_HERE*%
%TF.SameCoordinates,Original*%
%TF.FileFunction,Paste,Bot*%
%TF.FilePolarity,Positive*%
%FSLAX46Y46*%
G04 Gerber Fmt 4.6, Leading zero omitted, Abs format (unit mm)*
G04 Created by KiCad (PCBNEW (5.1.10)-1) date 2021-07-05 15:56:21*
%MOMM*%
%LPD*%
G01*
G04 APERTURE LIST*
%ADD10C,0.100000*%
%ADD11R,2.600000X2.600000*%
G04 APERTURE END LIST*
D10*
%TO.C,S1*%
G36*
X7977481Y2728158D02*
G01*
X7304552Y5239565D01*
X9815959Y5912494D01*
X10488888Y3401087D01*
X7977481Y2728158D01*
G37*
G36*
X19703326Y3592481D02*
G01*
X19030397Y6103888D01*
X21541804Y6776817D01*
X22214733Y4265410D01*
X19703326Y3592481D01*
G37*
%TD*%
%TO.C,S3*%
G36*
X3577581Y19148958D02*
G01*
X2904652Y21660365D01*
X5416059Y22333294D01*
X6088988Y19821887D01*
X3577581Y19148958D01*
G37*
G36*
X15303426Y20013281D02*
G01*
X14630497Y22524688D01*
X17141904Y23197617D01*
X17814833Y20686210D01*
X15303426Y20013281D01*
G37*
%TD*%
%TO.C,S5*%
G36*
X-822419Y35569658D02*
G01*
X-1495348Y38081065D01*
X1016059Y38753994D01*
X1688988Y36242587D01*
X-822419Y35569658D01*
G37*
G36*
X10903426Y36433981D02*
G01*
X10230497Y38945388D01*
X12741904Y39618317D01*
X13414833Y37106910D01*
X10903426Y36433981D01*
G37*
%TD*%
%TO.C,S7*%
G36*
X24542235Y25248367D02*
G01*
X24315630Y27838474D01*
X26905737Y28065079D01*
X27132342Y25474972D01*
X24542235Y25248367D01*
G37*
G36*
X36240026Y24063388D02*
G01*
X36013421Y26653495D01*
X38603528Y26880100D01*
X38830133Y24289993D01*
X36240026Y24063388D01*
G37*
%TD*%
%TO.C,S9*%
G36*
X23060535Y42183667D02*
G01*
X22833930Y44773774D01*
X25424037Y45000379D01*
X25650642Y42410272D01*
X23060535Y42183667D01*
G37*
G36*
X34758326Y40998688D02*
G01*
X34531721Y43588795D01*
X37121828Y43815400D01*
X37348433Y41225293D01*
X34758326Y40998688D01*
G37*
%TD*%
%TO.C,S11*%
G36*
X21578935Y59118967D02*
G01*
X21352330Y61709074D01*
X23942437Y61935679D01*
X24169042Y59345572D01*
X21578935Y59118967D01*
G37*
G36*
X33276726Y57933988D02*
G01*
X33050121Y60524095D01*
X35640228Y60750700D01*
X35866833Y58160593D01*
X33276726Y57933988D01*
G37*
%TD*%
D11*
%TO.C,S13*%
X45349400Y34243400D03*
X56899400Y32043400D03*
%TD*%
%TO.C,S15*%
X45349400Y51243400D03*
X56899400Y49043400D03*
%TD*%
%TO.C,S17*%
X45349400Y68243400D03*
X56899400Y66043400D03*
%TD*%
D10*
%TO.C,S19*%
G36*
X63753683Y27593043D02*
G01*
X63980288Y30183150D01*
X66570395Y29956545D01*
X66343790Y27366438D01*
X63753683Y27593043D01*
G37*
G36*
X75067989Y24394765D02*
G01*
X75294594Y26984872D01*
X77884701Y26758267D01*
X77658096Y24168160D01*
X75067989Y24394765D01*
G37*
%TD*%
%TO.C,S21*%
G36*
X65235383Y44528343D02*
G01*
X65461988Y47118450D01*
X68052095Y46891845D01*
X67825490Y44301738D01*
X65235383Y44528343D01*
G37*
G36*
X76549689Y41330065D02*
G01*
X76776294Y43920172D01*
X79366401Y43693567D01*
X79139796Y41103460D01*
X76549689Y41330065D01*
G37*
%TD*%
%TO.C,S23*%
G36*
X66716983Y61463743D02*
G01*
X66943588Y64053850D01*
X69533695Y63827245D01*
X69307090Y61237138D01*
X66716983Y61463743D01*
G37*
G36*
X78031289Y58265465D02*
G01*
X78257894Y60855572D01*
X80848001Y60628967D01*
X80621396Y58038860D01*
X78031289Y58265465D01*
G37*
%TD*%
%TO.C,S25*%
G36*
X81438283Y23201743D02*
G01*
X81664888Y25791850D01*
X84254995Y25565245D01*
X84028390Y22975138D01*
X81438283Y23201743D01*
G37*
G36*
X92752589Y20003465D02*
G01*
X92979194Y22593572D01*
X95569301Y22366967D01*
X95342696Y19776860D01*
X92752589Y20003465D01*
G37*
%TD*%
%TO.C,S27*%
G36*
X82919883Y40137043D02*
G01*
X83146488Y42727150D01*
X85736595Y42500545D01*
X85509990Y39910438D01*
X82919883Y40137043D01*
G37*
G36*
X94234189Y36938765D02*
G01*
X94460794Y39528872D01*
X97050901Y39302267D01*
X96824296Y36712160D01*
X94234189Y36938765D01*
G37*
%TD*%
%TO.C,S29*%
G36*
X84401583Y57072343D02*
G01*
X84628188Y59662450D01*
X87218295Y59435845D01*
X86991690Y56845738D01*
X84401583Y57072343D01*
G37*
G36*
X95715889Y53874065D02*
G01*
X95942494Y56464172D01*
X98532601Y56237567D01*
X98305996Y53647460D01*
X95715889Y53874065D01*
G37*
%TD*%
%TO.C,S31*%
G36*
X80790100Y196313D02*
G01*
X81679353Y2639514D01*
X84122554Y1750261D01*
X83233301Y-692940D01*
X80790100Y196313D01*
G37*
G36*
X90891105Y-5821343D02*
G01*
X91780358Y-3378142D01*
X94223559Y-4267395D01*
X93334306Y-6710596D01*
X90891105Y-5821343D01*
G37*
%TD*%
%TO.C,S33*%
G36*
X99613934Y-7701482D02*
G01*
X100913934Y-5449816D01*
X103165600Y-6749816D01*
X101865600Y-9001482D01*
X99613934Y-7701482D01*
G37*
G36*
X108516527Y-15381738D02*
G01*
X109816527Y-13130072D01*
X112068193Y-14430072D01*
X110768193Y-16681738D01*
X108516527Y-15381738D01*
G37*
%TD*%
M02*
