%TF.GenerationSoftware,KiCad,Pcbnew,(5.1.10)-1*%
%TF.CreationDate,2021-07-07T11:19:17+02:00*%
%TF.ProjectId,architeuthis_dux,61726368-6974-4657-9574-6869735f6475,VERSION_HERE*%
%TF.SameCoordinates,Original*%
%TF.FileFunction,Legend,Top*%
%TF.FilePolarity,Positive*%
%FSLAX46Y46*%
G04 Gerber Fmt 4.6, Leading zero omitted, Abs format (unit mm)*
G04 Created by KiCad (PCBNEW (5.1.10)-1) date 2021-07-07 11:19:17*
%MOMM*%
%LPD*%
G01*
G04 APERTURE LIST*
%ADD10C,0.010000*%
%ADD11C,0.200000*%
%ADD12C,0.150000*%
%ADD13C,0.100000*%
G04 APERTURE END LIST*
D10*
%TO.C,REF\u002A\u002A*%
G36*
X56847616Y24101219D02*
G01*
X56838723Y23997359D01*
X56830778Y23900940D01*
X56823952Y23814319D01*
X56818417Y23739856D01*
X56814346Y23679908D01*
X56811910Y23636833D01*
X56811278Y23612991D01*
X56811832Y23608897D01*
X56824766Y23614103D01*
X56850941Y23628219D01*
X56876483Y23643252D01*
X56996907Y23703708D01*
X57122938Y23741974D01*
X57255237Y23758181D01*
X57394469Y23752462D01*
X57412155Y23750244D01*
X57500878Y23735905D01*
X57576030Y23717347D01*
X57645710Y23691685D01*
X57718016Y23656030D01*
X57784756Y23617427D01*
X57905640Y23531271D01*
X58010114Y23429799D01*
X58097315Y23314772D01*
X58166382Y23187945D01*
X58216453Y23051075D01*
X58246669Y22905920D01*
X58256166Y22754237D01*
X58251898Y22664597D01*
X58228357Y22513597D01*
X58184521Y22372315D01*
X58119443Y22238241D01*
X58053087Y22136719D01*
X57957217Y22024354D01*
X57846853Y21928760D01*
X57724261Y21850826D01*
X57591705Y21791439D01*
X57451454Y21751488D01*
X57305769Y21731858D01*
X57156920Y21733438D01*
X57057446Y21746641D01*
X56915557Y21784030D01*
X56779557Y21842381D01*
X56652641Y21919715D01*
X56538008Y22014062D01*
X56438852Y22123447D01*
X56431288Y22133309D01*
X56359541Y22244104D01*
X56300414Y22367910D01*
X56256428Y22498103D01*
X56230101Y22628052D01*
X56225314Y22675098D01*
X56225185Y22703613D01*
X56227213Y22753698D01*
X56230137Y22803969D01*
X56724586Y22760710D01*
X56726616Y22662611D01*
X56748738Y22566297D01*
X56772564Y22509861D01*
X56831549Y22416080D01*
X56904550Y22338546D01*
X56989067Y22278458D01*
X57082597Y22237017D01*
X57182636Y22215421D01*
X57286685Y22214872D01*
X57360916Y22227739D01*
X57405151Y22240017D01*
X57447414Y22253745D01*
X57464197Y22260083D01*
X57512013Y22287022D01*
X57565174Y22328741D01*
X57617882Y22379798D01*
X57664333Y22434752D01*
X57689080Y22471061D01*
X57713040Y22513380D01*
X57729002Y22550739D01*
X57740017Y22592228D01*
X57749139Y22646945D01*
X57749881Y22652190D01*
X57755872Y22759320D01*
X57741635Y22858832D01*
X57706292Y22955704D01*
X57691076Y22985673D01*
X57633569Y23068906D01*
X57560471Y23137709D01*
X57475141Y23190844D01*
X57380941Y23227070D01*
X57281233Y23245149D01*
X57179379Y23243839D01*
X57078738Y23221902D01*
X57064241Y23216860D01*
X56972009Y23171778D01*
X56892355Y23110272D01*
X56826534Y23035378D01*
X56775798Y22950129D01*
X56741397Y22857561D01*
X56724586Y22760710D01*
X56230137Y22803969D01*
X56231298Y22823947D01*
X56237339Y22912948D01*
X56245235Y23019293D01*
X56254885Y23141574D01*
X56266188Y23278381D01*
X56279042Y23428305D01*
X56280062Y23439997D01*
X56340263Y24129086D01*
X56890486Y24592922D01*
X56847616Y24101219D01*
G37*
X56847616Y24101219D02*
X56838723Y23997359D01*
X56830778Y23900940D01*
X56823952Y23814319D01*
X56818417Y23739856D01*
X56814346Y23679908D01*
X56811910Y23636833D01*
X56811278Y23612991D01*
X56811832Y23608897D01*
X56824766Y23614103D01*
X56850941Y23628219D01*
X56876483Y23643252D01*
X56996907Y23703708D01*
X57122938Y23741974D01*
X57255237Y23758181D01*
X57394469Y23752462D01*
X57412155Y23750244D01*
X57500878Y23735905D01*
X57576030Y23717347D01*
X57645710Y23691685D01*
X57718016Y23656030D01*
X57784756Y23617427D01*
X57905640Y23531271D01*
X58010114Y23429799D01*
X58097315Y23314772D01*
X58166382Y23187945D01*
X58216453Y23051075D01*
X58246669Y22905920D01*
X58256166Y22754237D01*
X58251898Y22664597D01*
X58228357Y22513597D01*
X58184521Y22372315D01*
X58119443Y22238241D01*
X58053087Y22136719D01*
X57957217Y22024354D01*
X57846853Y21928760D01*
X57724261Y21850826D01*
X57591705Y21791439D01*
X57451454Y21751488D01*
X57305769Y21731858D01*
X57156920Y21733438D01*
X57057446Y21746641D01*
X56915557Y21784030D01*
X56779557Y21842381D01*
X56652641Y21919715D01*
X56538008Y22014062D01*
X56438852Y22123447D01*
X56431288Y22133309D01*
X56359541Y22244104D01*
X56300414Y22367910D01*
X56256428Y22498103D01*
X56230101Y22628052D01*
X56225314Y22675098D01*
X56225185Y22703613D01*
X56227213Y22753698D01*
X56230137Y22803969D01*
X56724586Y22760710D01*
X56726616Y22662611D01*
X56748738Y22566297D01*
X56772564Y22509861D01*
X56831549Y22416080D01*
X56904550Y22338546D01*
X56989067Y22278458D01*
X57082597Y22237017D01*
X57182636Y22215421D01*
X57286685Y22214872D01*
X57360916Y22227739D01*
X57405151Y22240017D01*
X57447414Y22253745D01*
X57464197Y22260083D01*
X57512013Y22287022D01*
X57565174Y22328741D01*
X57617882Y22379798D01*
X57664333Y22434752D01*
X57689080Y22471061D01*
X57713040Y22513380D01*
X57729002Y22550739D01*
X57740017Y22592228D01*
X57749139Y22646945D01*
X57749881Y22652190D01*
X57755872Y22759320D01*
X57741635Y22858832D01*
X57706292Y22955704D01*
X57691076Y22985673D01*
X57633569Y23068906D01*
X57560471Y23137709D01*
X57475141Y23190844D01*
X57380941Y23227070D01*
X57281233Y23245149D01*
X57179379Y23243839D01*
X57078738Y23221902D01*
X57064241Y23216860D01*
X56972009Y23171778D01*
X56892355Y23110272D01*
X56826534Y23035378D01*
X56775798Y22950129D01*
X56741397Y22857561D01*
X56724586Y22760710D01*
X56230137Y22803969D01*
X56231298Y22823947D01*
X56237339Y22912948D01*
X56245235Y23019293D01*
X56254885Y23141574D01*
X56266188Y23278381D01*
X56279042Y23428305D01*
X56280062Y23439997D01*
X56340263Y24129086D01*
X56890486Y24592922D01*
X56847616Y24101219D01*
G36*
X55320398Y22688200D02*
G01*
X55341022Y22663446D01*
X55372273Y22625045D01*
X55412357Y22575270D01*
X55459471Y22516393D01*
X55511823Y22450687D01*
X55567610Y22380422D01*
X55625039Y22307871D01*
X55682307Y22235305D01*
X55737620Y22164998D01*
X55789179Y22099219D01*
X55835186Y22040242D01*
X55873843Y21990338D01*
X55903353Y21951779D01*
X55921918Y21926837D01*
X55923968Y21923957D01*
X55949230Y21887983D01*
X55331575Y21942021D01*
X55174230Y22132528D01*
X55125464Y22191747D01*
X55079862Y22247446D01*
X55040150Y22296273D01*
X55009050Y22334877D01*
X54989288Y22359903D01*
X54986428Y22363659D01*
X54955970Y22404283D01*
X55130455Y22550978D01*
X55184289Y22595912D01*
X55232120Y22635218D01*
X55271155Y22666648D01*
X55298599Y22687957D01*
X55311657Y22696901D01*
X55312202Y22697037D01*
X55320398Y22688200D01*
G37*
X55320398Y22688200D02*
X55341022Y22663446D01*
X55372273Y22625045D01*
X55412357Y22575270D01*
X55459471Y22516393D01*
X55511823Y22450687D01*
X55567610Y22380422D01*
X55625039Y22307871D01*
X55682307Y22235305D01*
X55737620Y22164998D01*
X55789179Y22099219D01*
X55835186Y22040242D01*
X55873843Y21990338D01*
X55903353Y21951779D01*
X55921918Y21926837D01*
X55923968Y21923957D01*
X55949230Y21887983D01*
X55331575Y21942021D01*
X55174230Y22132528D01*
X55125464Y22191747D01*
X55079862Y22247446D01*
X55040150Y22296273D01*
X55009050Y22334877D01*
X54989288Y22359903D01*
X54986428Y22363659D01*
X54955970Y22404283D01*
X55130455Y22550978D01*
X55184289Y22595912D01*
X55232120Y22635218D01*
X55271155Y22666648D01*
X55298599Y22687957D01*
X55311657Y22696901D01*
X55312202Y22697037D01*
X55320398Y22688200D01*
G36*
X54552120Y23163500D02*
G01*
X55421970Y23893164D01*
X55708971Y23864949D01*
X55995972Y23836735D01*
X55077006Y23053711D01*
X54949096Y22944722D01*
X54824575Y22838621D01*
X54704768Y22736535D01*
X54590994Y22639589D01*
X54484573Y22548908D01*
X54386827Y22465617D01*
X54299077Y22390844D01*
X54222643Y22325713D01*
X54158846Y22271348D01*
X54109008Y22228876D01*
X54074448Y22199423D01*
X54059500Y22186681D01*
X53960959Y22102674D01*
X54199929Y24834110D01*
X54694494Y24790842D01*
X54552120Y23163500D01*
G37*
X54552120Y23163500D02*
X55421970Y23893164D01*
X55708971Y23864949D01*
X55995972Y23836735D01*
X55077006Y23053711D01*
X54949096Y22944722D01*
X54824575Y22838621D01*
X54704768Y22736535D01*
X54590994Y22639589D01*
X54484573Y22548908D01*
X54386827Y22465617D01*
X54299077Y22390844D01*
X54222643Y22325713D01*
X54158846Y22271348D01*
X54109008Y22228876D01*
X54074448Y22199423D01*
X54059500Y22186681D01*
X53960959Y22102674D01*
X54199929Y24834110D01*
X54694494Y24790842D01*
X54552120Y23163500D01*
D11*
X59459783Y47646665D02*
G75*
G03*
X58340846Y47803922I-2059783J-10596665D01*
G01*
X57211601Y47843356D02*
G75*
G02*
X58340846Y47803922I188399J-10793356D01*
G01*
X57588399Y26256644D02*
G75*
G02*
X56459154Y26296078I-188399J10793356D01*
G01*
X55340217Y26453335D02*
G75*
G03*
X56459154Y26296078I2059783J10596665D01*
G01*
X38798046Y45712278D02*
G75*
G03*
X37406371Y41667631I18601954J-8662278D01*
G01*
X37576463Y31749517D02*
G75*
G02*
X36908276Y35974378I19823537J5300483D01*
G01*
X76001954Y28387724D02*
G75*
G03*
X77393629Y32432369I-18601954J8662276D01*
G01*
X77223538Y42350480D02*
G75*
G02*
X77891724Y38125622I-19823538J-5300480D01*
G01*
X48737724Y18448046D02*
G75*
G03*
X52782369Y17056371I8662276J18601954D01*
G01*
X62700483Y17226463D02*
G75*
G02*
X58475622Y16558276I-5300483J19823537D01*
G01*
X52099517Y56873537D02*
G75*
G02*
X56324378Y57541724I5300483J-19823537D01*
G01*
X66062277Y55651954D02*
G75*
G03*
X62017631Y57043629I-8662277J-18601954D01*
G01*
D12*
%TO.C,C1*%
X99642577Y37713364D02*
X97112242Y37934739D01*
X99863952Y40243698D02*
X97333618Y40465074D01*
X99863952Y40243698D02*
X99642577Y37713364D01*
X115267335Y41445779D02*
X97554993Y42995408D01*
X112389452Y8551430D02*
X115267335Y41445779D01*
X94677111Y10101059D02*
X112389452Y8551430D01*
X97554993Y42995408D02*
X94677111Y10101059D01*
%TO.C,REF\u002A\u002A*%
D13*
X57328530Y41606066D02*
X58324724Y41518910D01*
X57375967Y41601915D02*
X57336830Y41700941D01*
X57353431Y41890693D01*
X57409170Y41981418D01*
X57460758Y42024706D01*
X57559784Y42063843D01*
X57844411Y42038941D01*
X57935136Y41983203D01*
X57978424Y41931615D01*
X58017561Y41832589D01*
X58000960Y41642838D01*
X57945222Y41552112D01*
X57444737Y42934325D02*
X58108867Y42876221D01*
X57407385Y42507385D02*
X57929201Y42461732D01*
X58028227Y42500869D01*
X58083965Y42591594D01*
X58096416Y42733908D01*
X58057279Y42832934D01*
X58013991Y42884522D01*
X58140284Y43781691D02*
X58179422Y43682665D01*
X58162821Y43492913D01*
X58107082Y43402188D01*
X58055494Y43358900D01*
X57956468Y43319763D01*
X57671841Y43344665D01*
X57581116Y43400403D01*
X57537828Y43451991D01*
X57498691Y43551017D01*
X57515292Y43740769D01*
X57571030Y43831494D01*
X58225075Y44204481D02*
X57228880Y44291637D01*
X57853873Y44332559D02*
X58258277Y44583984D01*
X57594147Y44642088D02*
X57940448Y44229383D01*
X56181151Y27762889D02*
X56214353Y28142392D01*
X55861537Y27934254D02*
X56715418Y27859550D01*
X56814444Y27898687D01*
X56870182Y27989412D01*
X56878483Y28084288D01*
X56893299Y28800006D02*
X56932436Y28700980D01*
X56915835Y28511228D01*
X56860097Y28420503D01*
X56761071Y28381366D01*
X56381568Y28414568D01*
X56290843Y28470306D01*
X56251705Y28569332D01*
X56268307Y28759084D01*
X56324045Y28849809D01*
X56423071Y28888946D01*
X56517947Y28880646D01*
X56571320Y28397967D01*
X56318110Y29328338D02*
X56982240Y29270234D01*
X56412986Y29320037D02*
X56369698Y29371625D01*
X56330561Y29470651D01*
X56343012Y29612965D01*
X56398750Y29703690D01*
X56497776Y29742828D01*
X57019592Y29697175D01*
X56384514Y30087343D02*
X56417716Y30466846D01*
X56064900Y30258709D02*
X56918781Y30184004D01*
X57017807Y30223141D01*
X57073546Y30313867D01*
X57081846Y30408742D01*
X57110898Y30740807D02*
X56446768Y30798911D01*
X56114703Y30827963D02*
X56157991Y30776375D01*
X56209579Y30819662D01*
X56166292Y30871250D01*
X56114703Y30827963D01*
X56209579Y30819662D01*
X56488271Y31273289D02*
X57152401Y31215186D01*
X56583147Y31264989D02*
X56539859Y31316577D01*
X56500722Y31415603D01*
X56513173Y31557916D01*
X56568911Y31648642D01*
X56667937Y31687779D01*
X57189753Y31642126D01*
X56604479Y32601549D02*
X57410922Y32530994D01*
X57501647Y32475256D01*
X57544935Y32423668D01*
X57584072Y32324642D01*
X57571622Y32182328D01*
X57515883Y32091603D01*
X57221171Y32547595D02*
X57260308Y32448569D01*
X57243707Y32258818D01*
X57187969Y32168093D01*
X57136380Y32124805D01*
X57037354Y32085668D01*
X56752727Y32110569D01*
X56662002Y32166308D01*
X56618714Y32217896D01*
X56579577Y32316922D01*
X56596178Y32506673D01*
X56651917Y32597399D01*
%TO.C,C1*%
D12*
X100715544Y38531054D02*
X100483095Y38933798D01*
X100260141Y38570897D02*
X100329866Y39367852D01*
X100633468Y39341291D01*
X100706048Y39296700D01*
X100740678Y39255429D01*
X100771988Y39176209D01*
X100762028Y39062358D01*
X100717437Y38989778D01*
X100676166Y38955148D01*
X100596946Y38923838D01*
X100293343Y38950399D01*
X101039068Y38732194D02*
X101418571Y38698992D01*
X100943246Y38511133D02*
X101278623Y39284847D01*
X101474550Y38464650D01*
X101734026Y39245004D02*
X101854053Y38431448D01*
X102055657Y38987421D01*
X102157655Y38404886D01*
X102417131Y39185240D01*
X100503648Y36764706D02*
X100431068Y36809297D01*
X100317217Y36819257D01*
X100200046Y36791268D01*
X100117505Y36722008D01*
X100072915Y36649427D01*
X100021683Y36500946D01*
X100011723Y36387095D01*
X100036392Y36231974D01*
X100067702Y36152753D01*
X100136962Y36070212D01*
X100247493Y36022301D01*
X100323393Y36015661D01*
X100440564Y36043651D01*
X100481835Y36078281D01*
X100505076Y36343933D01*
X100353275Y36357214D01*
X100816747Y35972498D02*
X100886471Y36769454D01*
X101272150Y35932656D01*
X101341875Y36729611D01*
X101651653Y35899453D02*
X101721377Y36696409D01*
X101911129Y36679808D01*
X102021659Y36631897D01*
X102090919Y36549356D01*
X102122229Y36470135D01*
X102146899Y36315014D01*
X102136938Y36201163D01*
X102085707Y36052682D01*
X102041116Y35980102D01*
X101958575Y35910842D01*
X101841404Y35882852D01*
X101651653Y35899453D01*
X100386644Y33460424D02*
X100154195Y33863169D01*
X99931241Y33500267D02*
X100000966Y34297223D01*
X100304568Y34270661D01*
X100377148Y34226070D01*
X100411778Y34184800D01*
X100443088Y34105579D01*
X100433127Y33991728D01*
X100388537Y33919148D01*
X100347266Y33884518D01*
X100268045Y33853208D01*
X99964443Y33879770D01*
X100693567Y33471813D02*
X100804097Y33423902D01*
X100993849Y33407301D01*
X101073069Y33438611D01*
X101114340Y33473241D01*
X101158931Y33545821D01*
X101165571Y33621722D01*
X101134261Y33700942D01*
X101099631Y33742213D01*
X101027051Y33786804D01*
X100878570Y33838035D01*
X100805990Y33882626D01*
X100771360Y33923896D01*
X100740050Y34003117D01*
X100746690Y34079017D01*
X100791281Y34151598D01*
X100832551Y34186228D01*
X100911772Y34217538D01*
X101101524Y34200936D01*
X101212054Y34153026D01*
X101443076Y34171054D02*
X101898479Y34131212D01*
X101601053Y33354177D02*
X101670778Y34151133D01*
X99608813Y31781830D02*
X99804741Y30961632D01*
X100140117Y31735347D01*
X100798088Y30951207D02*
X100756818Y30916577D01*
X100639647Y30888588D01*
X100563746Y30895228D01*
X100453216Y30943139D01*
X100383955Y31025680D01*
X100352646Y31104901D01*
X100327976Y31260022D01*
X100337937Y31373873D01*
X100389168Y31522354D01*
X100433759Y31594934D01*
X100516300Y31664194D01*
X100633471Y31692184D01*
X100709371Y31685543D01*
X100819902Y31637633D01*
X100854532Y31596362D01*
X101595044Y30881483D02*
X101553773Y30846853D01*
X101436602Y30818863D01*
X101360702Y30825504D01*
X101250171Y30873414D01*
X101180911Y30955955D01*
X101149601Y31035176D01*
X101124932Y31190298D01*
X101134893Y31304148D01*
X101186124Y31452629D01*
X101230714Y31525210D01*
X101313255Y31594470D01*
X101430427Y31622459D01*
X101506327Y31615819D01*
X101616858Y31567908D01*
X101651488Y31526637D01*
X99412589Y28446238D02*
X99482314Y29243194D01*
X99785916Y29216632D01*
X99858497Y29172042D01*
X99893127Y29130771D01*
X99924436Y29051551D01*
X99914476Y28937700D01*
X99869885Y28865119D01*
X99828615Y28830489D01*
X99749394Y28799179D01*
X99445792Y28825741D01*
X100234679Y29100889D02*
X100275950Y29135519D01*
X100355170Y29166829D01*
X100544922Y29150228D01*
X100617502Y29105637D01*
X100652132Y29064367D01*
X100683442Y28985146D01*
X100676801Y28909246D01*
X100628891Y28798715D01*
X100133645Y28383154D01*
X100626998Y28339991D01*
X101386004Y28273587D02*
X100930600Y28313430D01*
X101158302Y28293508D02*
X101228027Y29090464D01*
X101142165Y28983254D01*
X101059624Y28913994D01*
X100980404Y28882684D01*
X99191213Y25915904D02*
X99260938Y26712860D01*
X99564540Y26686298D01*
X99637121Y26641708D01*
X99671751Y26600437D01*
X99703060Y26521217D01*
X99693100Y26407366D01*
X99648509Y26334785D01*
X99607239Y26300155D01*
X99528018Y26268845D01*
X99224416Y26295407D01*
X100013303Y26570555D02*
X100054574Y26605185D01*
X100133794Y26636495D01*
X100323546Y26619894D01*
X100396126Y26575303D01*
X100430756Y26534033D01*
X100462066Y26454812D01*
X100455425Y26378912D01*
X100407515Y26268381D01*
X99912269Y25852820D01*
X100405622Y25809657D01*
X100968700Y26563450D02*
X101044601Y26556810D01*
X101117181Y26512219D01*
X101151811Y26470949D01*
X101183121Y26391728D01*
X101207791Y26236607D01*
X101191189Y26046855D01*
X101139958Y25898374D01*
X101095368Y25825794D01*
X101054097Y25791164D01*
X100974876Y25759854D01*
X100898976Y25766495D01*
X100826395Y25811085D01*
X100791765Y25852356D01*
X100760456Y25931577D01*
X100735786Y26086698D01*
X100752387Y26276449D01*
X100803618Y26424930D01*
X100848209Y26497510D01*
X100889480Y26532141D01*
X100968700Y26563450D01*
X98969838Y23385569D02*
X99039563Y24182525D01*
X99343165Y24155963D01*
X99415746Y24111373D01*
X99450376Y24070102D01*
X99481685Y23990882D01*
X99471725Y23877031D01*
X99427134Y23804450D01*
X99385864Y23769820D01*
X99306643Y23738510D01*
X99003041Y23765072D01*
X100184247Y23279322D02*
X99728844Y23319165D01*
X99956546Y23299244D02*
X100026270Y24096200D01*
X99940409Y23988989D01*
X99857868Y23919729D01*
X99778647Y23888419D01*
X100563750Y23246120D02*
X100715551Y23232839D01*
X100794772Y23264149D01*
X100836042Y23298779D01*
X100921904Y23405990D01*
X100973135Y23554471D01*
X100999696Y23858073D01*
X100968387Y23937294D01*
X100933757Y23978564D01*
X100861176Y24023155D01*
X100709375Y24036436D01*
X100630154Y24005126D01*
X100588884Y23970496D01*
X100544293Y23897915D01*
X100527692Y23708164D01*
X100559002Y23628943D01*
X100593632Y23587673D01*
X100666212Y23543082D01*
X100818013Y23529801D01*
X100897234Y23561111D01*
X100938505Y23595741D01*
X100983095Y23668321D01*
X98748462Y20855235D02*
X98818187Y21652191D01*
X99121789Y21625629D01*
X99194370Y21581039D01*
X99229000Y21539768D01*
X99260309Y21460548D01*
X99250349Y21346697D01*
X99205758Y21274116D01*
X99164488Y21239486D01*
X99085267Y21208176D01*
X98781665Y21234738D01*
X99962871Y20748988D02*
X99507468Y20788831D01*
X99735170Y20768910D02*
X99804894Y21565866D01*
X99719033Y21458655D01*
X99636492Y21389395D01*
X99557271Y21358085D01*
X100458117Y21164549D02*
X100385537Y21209140D01*
X100350907Y21250410D01*
X100319597Y21329631D01*
X100322917Y21367581D01*
X100367508Y21440162D01*
X100408778Y21474792D01*
X100487999Y21506102D01*
X100639800Y21492821D01*
X100712381Y21448230D01*
X100747011Y21406960D01*
X100778320Y21327739D01*
X100775000Y21289788D01*
X100730409Y21217208D01*
X100689139Y21182578D01*
X100609918Y21151268D01*
X100458117Y21164549D01*
X100378896Y21133239D01*
X100337626Y21098609D01*
X100293035Y21026029D01*
X100279754Y20874228D01*
X100311064Y20795007D01*
X100345694Y20753737D01*
X100418274Y20709146D01*
X100570076Y20695865D01*
X100649296Y20727175D01*
X100690567Y20761805D01*
X100735158Y20834385D01*
X100748438Y20986186D01*
X100717129Y21065407D01*
X100682499Y21106678D01*
X100609918Y21151268D01*
X98527086Y18324900D02*
X98596811Y19121856D01*
X98900413Y19095294D01*
X98972994Y19050704D01*
X99007624Y19009433D01*
X99038933Y18930213D01*
X99028973Y18816362D01*
X98984382Y18743781D01*
X98943112Y18709151D01*
X98863891Y18677841D01*
X98560289Y18704403D01*
X99741495Y18218653D02*
X99286092Y18258496D01*
X99513794Y18238575D02*
X99583518Y19035531D01*
X99497657Y18928320D01*
X99415116Y18859060D01*
X99335895Y18827750D01*
X100532275Y18952525D02*
X100152772Y18985727D01*
X100081620Y18609545D01*
X100122890Y18644175D01*
X100202111Y18675485D01*
X100391862Y18658884D01*
X100464443Y18614293D01*
X100499073Y18573022D01*
X100530383Y18493802D01*
X100513782Y18304050D01*
X100469191Y18231470D01*
X100427920Y18196840D01*
X100348700Y18165530D01*
X100158948Y18182131D01*
X100086368Y18226722D01*
X100051738Y18267992D01*
X98305711Y15794566D02*
X98375436Y16591522D01*
X98679038Y16564960D01*
X98751619Y16520370D01*
X98786249Y16479099D01*
X98817558Y16399879D01*
X98807598Y16286028D01*
X98763007Y16213447D01*
X98721737Y16178817D01*
X98642516Y16147507D01*
X98338914Y16174069D01*
X99520120Y15688319D02*
X99064717Y15728162D01*
X99292419Y15708241D02*
X99362143Y16505197D01*
X99276282Y16397986D01*
X99193741Y16328726D01*
X99114520Y16297416D01*
X100249708Y16159859D02*
X100203225Y15628556D01*
X100086519Y16480063D02*
X99846964Y15927410D01*
X100340317Y15884247D01*
X98084335Y13264231D02*
X98154060Y14061187D01*
X98457662Y14034625D01*
X98530243Y13990035D01*
X98564873Y13948764D01*
X98596182Y13869544D01*
X98586222Y13755693D01*
X98541631Y13683112D01*
X98500361Y13648482D01*
X98421140Y13617172D01*
X98117538Y13643734D01*
X99298744Y13157984D02*
X98843341Y13197827D01*
X99071043Y13177906D02*
X99140767Y13974862D01*
X99054906Y13867651D01*
X98972365Y13798391D01*
X98893144Y13767081D01*
X100051574Y13895176D02*
X99899773Y13908457D01*
X99820552Y13877147D01*
X99779281Y13842517D01*
X99693420Y13735307D01*
X99642189Y13586826D01*
X99615627Y13283224D01*
X99646937Y13204003D01*
X99681567Y13162733D01*
X99754147Y13118142D01*
X99905949Y13104861D01*
X99985169Y13136171D01*
X100026440Y13170801D01*
X100071031Y13243381D01*
X100087632Y13433133D01*
X100056322Y13512353D01*
X100021692Y13553624D01*
X99949111Y13598215D01*
X99797310Y13611495D01*
X99718090Y13580186D01*
X99676819Y13545556D01*
X99632228Y13472975D01*
X97862960Y10733897D02*
X97932685Y11530853D01*
X98236287Y11504291D01*
X98308868Y11459701D01*
X98343498Y11418430D01*
X98374807Y11339210D01*
X98364847Y11225359D01*
X98320256Y11152778D01*
X98278986Y11118148D01*
X98199765Y11086838D01*
X97896163Y11113400D01*
X99077369Y10627650D02*
X98621966Y10667493D01*
X98849668Y10647572D02*
X98919392Y11444528D01*
X98833531Y11337317D01*
X98750990Y11268057D01*
X98671769Y11236747D01*
X99640447Y11381443D02*
X99716348Y11374803D01*
X99788928Y11330212D01*
X99823558Y11288942D01*
X99854868Y11209721D01*
X99879538Y11054600D01*
X99862936Y10864848D01*
X99811705Y10716367D01*
X99767115Y10643787D01*
X99725844Y10609157D01*
X99646623Y10577847D01*
X99570723Y10584488D01*
X99498142Y10629078D01*
X99463512Y10670349D01*
X99432203Y10749570D01*
X99407533Y10904691D01*
X99424134Y11094442D01*
X99475365Y11242923D01*
X99519956Y11315503D01*
X99561227Y11350134D01*
X99640447Y11381443D01*
X109861560Y37730881D02*
X109931285Y38527837D01*
X110234887Y38501275D01*
X110307468Y38456685D01*
X110342098Y38415414D01*
X110373407Y38336194D01*
X110363447Y38222343D01*
X110318856Y38149762D01*
X110277586Y38115132D01*
X110198365Y38083822D01*
X109894763Y38110384D01*
X110880042Y38444832D02*
X110955942Y38438191D01*
X111028523Y38393601D01*
X111063153Y38352330D01*
X111094463Y38273109D01*
X111119132Y38117988D01*
X111102531Y37928237D01*
X111051300Y37779756D01*
X111006709Y37707175D01*
X110965439Y37672545D01*
X110886218Y37641236D01*
X110810317Y37647876D01*
X110737737Y37692467D01*
X110703107Y37733737D01*
X110671797Y37812958D01*
X110647128Y37968079D01*
X110663729Y38157831D01*
X110714960Y38306312D01*
X110759551Y38378892D01*
X110800821Y38413522D01*
X110880042Y38444832D01*
X111834975Y37558230D02*
X111379571Y37598073D01*
X111607273Y37578151D02*
X111676998Y38375107D01*
X111591136Y38267897D01*
X111508595Y38198637D01*
X111429375Y38167327D01*
X109640185Y35200547D02*
X109709910Y35997503D01*
X110013512Y35970941D01*
X110086093Y35926351D01*
X110120723Y35885080D01*
X110152032Y35805860D01*
X110142072Y35692009D01*
X110097481Y35619428D01*
X110056211Y35584798D01*
X109976990Y35553488D01*
X109673388Y35580050D01*
X110658667Y35914498D02*
X110734567Y35907857D01*
X110807148Y35863267D01*
X110841778Y35821996D01*
X110873088Y35742775D01*
X110897757Y35587654D01*
X110881156Y35397903D01*
X110829925Y35249422D01*
X110785334Y35176841D01*
X110744064Y35142211D01*
X110664843Y35110902D01*
X110588942Y35117542D01*
X110516362Y35162133D01*
X110481732Y35203403D01*
X110450422Y35282624D01*
X110425753Y35437745D01*
X110442354Y35627497D01*
X110493585Y35775978D01*
X110538176Y35848558D01*
X110579446Y35883188D01*
X110658667Y35914498D01*
X111417672Y35848093D02*
X111493573Y35841453D01*
X111566153Y35796862D01*
X111600783Y35755592D01*
X111632093Y35676371D01*
X111656763Y35521250D01*
X111640161Y35331498D01*
X111588930Y35183017D01*
X111544340Y35110437D01*
X111503069Y35075807D01*
X111423848Y35044497D01*
X111347948Y35051138D01*
X111275367Y35095728D01*
X111240737Y35136999D01*
X111209428Y35216220D01*
X111184758Y35371341D01*
X111201359Y35561092D01*
X111252590Y35709573D01*
X111297181Y35782153D01*
X111338452Y35816784D01*
X111417672Y35848093D01*
X109845741Y33397676D02*
X109773161Y33442267D01*
X109659310Y33452227D01*
X109542139Y33424238D01*
X109459598Y33354978D01*
X109415008Y33282397D01*
X109363776Y33133916D01*
X109353816Y33020065D01*
X109378485Y32864944D01*
X109409795Y32785723D01*
X109479055Y32703182D01*
X109589586Y32655271D01*
X109665486Y32648631D01*
X109782657Y32676621D01*
X109823928Y32711251D01*
X109847169Y32976903D01*
X109695368Y32990184D01*
X110158840Y32605468D02*
X110228564Y33402424D01*
X110614243Y32565626D01*
X110683968Y33362581D01*
X110993746Y32532423D02*
X111063470Y33329379D01*
X111253222Y33312778D01*
X111363752Y33264867D01*
X111433012Y33182326D01*
X111464322Y33103105D01*
X111488992Y32947984D01*
X111479031Y32834133D01*
X111427800Y32685652D01*
X111383209Y32613072D01*
X111300668Y32543812D01*
X111183497Y32515822D01*
X110993746Y32532423D01*
X109624366Y30867342D02*
X109551786Y30911933D01*
X109437935Y30921893D01*
X109320764Y30893904D01*
X109238223Y30824644D01*
X109193633Y30752063D01*
X109142401Y30603582D01*
X109132441Y30489731D01*
X109157110Y30334610D01*
X109188420Y30255389D01*
X109257680Y30172848D01*
X109368211Y30124937D01*
X109444111Y30118297D01*
X109561282Y30146287D01*
X109602553Y30180917D01*
X109625794Y30446569D01*
X109473993Y30459850D01*
X109937465Y30075134D02*
X110007189Y30872090D01*
X110392868Y30035292D01*
X110462593Y30832247D01*
X110772371Y30002089D02*
X110842095Y30799045D01*
X111031847Y30782444D01*
X111142377Y30734533D01*
X111211637Y30651992D01*
X111242947Y30572771D01*
X111267617Y30417650D01*
X111257656Y30303799D01*
X111206425Y30155318D01*
X111161834Y30082738D01*
X111079293Y30013478D01*
X110962122Y29985488D01*
X110772371Y30002089D01*
X108976058Y27609543D02*
X109045783Y28406499D01*
X109349385Y28379937D01*
X109421966Y28335347D01*
X109456596Y28294076D01*
X109487905Y28214856D01*
X109477945Y28101005D01*
X109433354Y28028424D01*
X109392084Y27993794D01*
X109312863Y27962484D01*
X109009261Y27989046D01*
X109994540Y28323494D02*
X110070440Y28316853D01*
X110143021Y28272263D01*
X110177651Y28230992D01*
X110208961Y28151771D01*
X110233630Y27996650D01*
X110217029Y27806899D01*
X110165798Y27658418D01*
X110121207Y27585837D01*
X110079937Y27551207D01*
X110000716Y27519898D01*
X109924815Y27526538D01*
X109852235Y27571129D01*
X109817605Y27612399D01*
X109786295Y27691620D01*
X109761626Y27846741D01*
X109778227Y28036493D01*
X109829458Y28184974D01*
X109874049Y28257554D01*
X109915319Y28292184D01*
X109994540Y28323494D01*
X110557154Y28197790D02*
X110598424Y28232420D01*
X110677645Y28263730D01*
X110867396Y28247129D01*
X110939977Y28202538D01*
X110974607Y28161268D01*
X111005916Y28082047D01*
X110999276Y28006146D01*
X110951365Y27895616D01*
X110456119Y27480055D01*
X110949473Y27436892D01*
X108754682Y25079209D02*
X108824407Y25876165D01*
X109128009Y25849603D01*
X109200590Y25805013D01*
X109235220Y25763742D01*
X109266529Y25684522D01*
X109256569Y25570671D01*
X109211978Y25498090D01*
X109170708Y25463460D01*
X109091487Y25432150D01*
X108787885Y25458712D01*
X109773164Y25793160D02*
X109849064Y25786519D01*
X109921645Y25741929D01*
X109956275Y25700658D01*
X109987585Y25621437D01*
X110012254Y25466316D01*
X109995653Y25276565D01*
X109944422Y25128084D01*
X109899831Y25055503D01*
X109858561Y25020873D01*
X109779340Y24989564D01*
X109703439Y24996204D01*
X109630859Y25040795D01*
X109596229Y25082065D01*
X109564919Y25161286D01*
X109540250Y25316407D01*
X109556851Y25506159D01*
X109608082Y25654640D01*
X109652673Y25727220D01*
X109693943Y25761850D01*
X109773164Y25793160D01*
X110304468Y25746677D02*
X110797821Y25703514D01*
X110505608Y25423153D01*
X110619458Y25413193D01*
X110692039Y25368602D01*
X110726669Y25327331D01*
X110757979Y25248111D01*
X110741378Y25058359D01*
X110696787Y24985779D01*
X110655516Y24951149D01*
X110576296Y24919839D01*
X110348594Y24939760D01*
X110276014Y24984351D01*
X110241384Y25025621D01*
X108533307Y22548874D02*
X108603032Y23345830D01*
X108906634Y23319268D01*
X108979215Y23274678D01*
X109013845Y23233407D01*
X109045154Y23154187D01*
X109035194Y23040336D01*
X108990603Y22967755D01*
X108949333Y22933125D01*
X108870112Y22901815D01*
X108566510Y22928377D01*
X109551789Y23262825D02*
X109627689Y23256184D01*
X109700270Y23211594D01*
X109734900Y23170323D01*
X109766210Y23091102D01*
X109790879Y22935981D01*
X109774278Y22746230D01*
X109723047Y22597749D01*
X109678456Y22525168D01*
X109637186Y22490538D01*
X109557965Y22459229D01*
X109482064Y22465869D01*
X109409484Y22510460D01*
X109374854Y22551730D01*
X109343544Y22630951D01*
X109318875Y22786072D01*
X109335476Y22975824D01*
X109386707Y23124305D01*
X109431298Y23196885D01*
X109472568Y23231515D01*
X109551789Y23262825D01*
X110477304Y22914167D02*
X110430821Y22382864D01*
X110314115Y23234371D02*
X110074560Y22681718D01*
X110567913Y22638555D01*
X108311931Y20018540D02*
X108381656Y20815496D01*
X108685258Y20788934D01*
X108757839Y20744344D01*
X108792469Y20703073D01*
X108823778Y20623853D01*
X108813818Y20510002D01*
X108769227Y20437421D01*
X108727957Y20402791D01*
X108648736Y20371481D01*
X108345134Y20398043D01*
X109330413Y20732491D02*
X109406313Y20725850D01*
X109478894Y20681260D01*
X109513524Y20639989D01*
X109544834Y20560768D01*
X109569503Y20405647D01*
X109552902Y20215896D01*
X109501671Y20067415D01*
X109457080Y19994834D01*
X109415810Y19960204D01*
X109336589Y19928895D01*
X109260688Y19935535D01*
X109188108Y19980126D01*
X109153478Y20021396D01*
X109122168Y20100617D01*
X109097499Y20255738D01*
X109114100Y20445490D01*
X109165331Y20593971D01*
X109209922Y20666551D01*
X109251192Y20701181D01*
X109330413Y20732491D01*
X110317120Y20646165D02*
X109937617Y20679367D01*
X109866465Y20303185D01*
X109907735Y20337815D01*
X109986956Y20369125D01*
X110176707Y20352524D01*
X110249288Y20307933D01*
X110283918Y20266662D01*
X110315228Y20187442D01*
X110298627Y19997690D01*
X110254036Y19925110D01*
X110212765Y19890480D01*
X110133545Y19859170D01*
X109943793Y19875771D01*
X109871213Y19920362D01*
X109836583Y19961632D01*
X108090556Y17488205D02*
X108160281Y18285161D01*
X108463883Y18258599D01*
X108536464Y18214009D01*
X108571094Y18172738D01*
X108602403Y18093518D01*
X108592443Y17979667D01*
X108547852Y17907086D01*
X108506582Y17872456D01*
X108427361Y17841146D01*
X108123759Y17867708D01*
X109109038Y18202156D02*
X109184938Y18195515D01*
X109257519Y18150925D01*
X109292149Y18109654D01*
X109323459Y18030433D01*
X109348128Y17875312D01*
X109331527Y17685561D01*
X109280296Y17537080D01*
X109235705Y17464499D01*
X109194435Y17429869D01*
X109115214Y17398560D01*
X109039313Y17405200D01*
X108966733Y17449791D01*
X108932103Y17491061D01*
X108900793Y17570282D01*
X108876124Y17725403D01*
X108892725Y17915155D01*
X108943956Y18063636D01*
X108988547Y18136216D01*
X109029817Y18170846D01*
X109109038Y18202156D01*
X110057795Y18119150D02*
X109905994Y18132431D01*
X109826773Y18101121D01*
X109785502Y18066491D01*
X109699641Y17959281D01*
X109648410Y17810800D01*
X109621848Y17507198D01*
X109653158Y17427977D01*
X109687788Y17386707D01*
X109760368Y17342116D01*
X109912170Y17328835D01*
X109991390Y17360145D01*
X110032661Y17394775D01*
X110077252Y17467355D01*
X110093853Y17657107D01*
X110062543Y17736327D01*
X110027913Y17777598D01*
X109955332Y17822189D01*
X109803531Y17835469D01*
X109724311Y17804160D01*
X109683040Y17769530D01*
X109638449Y17696949D01*
X107869180Y14957871D02*
X107938905Y15754827D01*
X108242507Y15728265D01*
X108315088Y15683675D01*
X108349718Y15642404D01*
X108381027Y15563184D01*
X108371067Y15449333D01*
X108326476Y15376752D01*
X108285206Y15342122D01*
X108205985Y15310812D01*
X107902383Y15337374D01*
X108887662Y15671822D02*
X108963562Y15665181D01*
X109036143Y15620591D01*
X109070773Y15579320D01*
X109102083Y15500099D01*
X109126752Y15344978D01*
X109110151Y15155227D01*
X109058920Y15006746D01*
X109014329Y14934165D01*
X108973059Y14899535D01*
X108893838Y14868226D01*
X108817937Y14874866D01*
X108745357Y14919457D01*
X108710727Y14960727D01*
X108679417Y15039948D01*
X108654748Y15195069D01*
X108671349Y15384821D01*
X108722580Y15533302D01*
X108767171Y15605882D01*
X108808441Y15640512D01*
X108887662Y15671822D01*
X109418966Y15625339D02*
X109950270Y15578856D01*
X109538992Y14811782D01*
X107647804Y12427536D02*
X107717529Y13224492D01*
X108021131Y13197930D01*
X108093712Y13153340D01*
X108128342Y13112069D01*
X108159651Y13032849D01*
X108149691Y12918998D01*
X108105100Y12846417D01*
X108063830Y12811787D01*
X107984609Y12780477D01*
X107681007Y12807039D01*
X108666286Y13141487D02*
X108742186Y13134846D01*
X108814767Y13090256D01*
X108849397Y13048985D01*
X108880707Y12969764D01*
X108905376Y12814643D01*
X108888775Y12624892D01*
X108837544Y12476411D01*
X108792953Y12403830D01*
X108751683Y12369200D01*
X108672462Y12337891D01*
X108596561Y12344531D01*
X108523981Y12389122D01*
X108489351Y12430392D01*
X108458041Y12509613D01*
X108433372Y12664734D01*
X108449973Y12854486D01*
X108501204Y13002967D01*
X108545795Y13075547D01*
X108587065Y13110177D01*
X108666286Y13141487D01*
X109357459Y12736850D02*
X109284879Y12781441D01*
X109250249Y12822711D01*
X109218939Y12901932D01*
X109222259Y12939882D01*
X109266850Y13012463D01*
X109308120Y13047093D01*
X109387341Y13078403D01*
X109539142Y13065122D01*
X109611723Y13020531D01*
X109646353Y12979261D01*
X109677662Y12900040D01*
X109674342Y12862089D01*
X109629751Y12789509D01*
X109588481Y12754879D01*
X109509260Y12723569D01*
X109357459Y12736850D01*
X109278238Y12705540D01*
X109236968Y12670910D01*
X109192377Y12598330D01*
X109179096Y12446529D01*
X109210406Y12367308D01*
X109245036Y12326038D01*
X109317616Y12281447D01*
X109469418Y12268166D01*
X109548638Y12299476D01*
X109589909Y12334106D01*
X109634500Y12406686D01*
X109647780Y12558487D01*
X109616471Y12637708D01*
X109581841Y12678979D01*
X109509260Y12723569D01*
X107426429Y9897202D02*
X107496154Y10694158D01*
X107799756Y10667596D01*
X107872337Y10623006D01*
X107906967Y10581735D01*
X107938276Y10502515D01*
X107928316Y10388664D01*
X107883725Y10316083D01*
X107842455Y10281453D01*
X107763234Y10250143D01*
X107459632Y10276705D01*
X108444911Y10611153D02*
X108520811Y10604512D01*
X108593392Y10559922D01*
X108628022Y10518651D01*
X108659332Y10439430D01*
X108684001Y10284309D01*
X108667400Y10094558D01*
X108616169Y9946077D01*
X108571578Y9873496D01*
X108530308Y9838866D01*
X108451087Y9807557D01*
X108375186Y9814197D01*
X108302606Y9858788D01*
X108267976Y9900058D01*
X108236666Y9979279D01*
X108211997Y10134400D01*
X108228598Y10324152D01*
X108279829Y10472633D01*
X108324420Y10545213D01*
X108365690Y10579843D01*
X108444911Y10611153D01*
X109020341Y9757753D02*
X109172142Y9744472D01*
X109251363Y9775782D01*
X109292633Y9810412D01*
X109378495Y9917623D01*
X109429726Y10066104D01*
X109456287Y10369706D01*
X109424978Y10448927D01*
X109390348Y10490197D01*
X109317767Y10534788D01*
X109165966Y10548069D01*
X109086745Y10516759D01*
X109045475Y10482129D01*
X109000884Y10409548D01*
X108984283Y10219797D01*
X109015593Y10140576D01*
X109050223Y10099306D01*
X109122803Y10054715D01*
X109274604Y10041434D01*
X109353825Y10072744D01*
X109395096Y10107374D01*
X109439686Y10179954D01*
%TD*%
M02*
