M48
; DRILL file {KiCad (5.1.10)-1} date 07/08/21 00:04:38
; FORMAT={-:-/ absolute / inch / decimal}
; #@! TF.CreationDate,2021-07-08T00:04:38+02:00
; #@! TF.GenerationSoftware,Kicad,Pcbnew,(5.1.10)-1
FMAT,2
INCH
T1C0.0354
T2C0.0430
T3C0.0500
T4C0.0866
T5C0.0591
T6C0.0670
T7C0.1181
T8C0.1350
%
G90
G05
T2
X3.7816Y0.4431
X3.7903Y0.5428
X3.799Y0.6424
X3.8078Y0.742
X3.8165Y0.8416
X3.8252Y0.9412
X3.8339Y1.0408
X3.8426Y1.1405
X3.8513Y1.2401
X3.8601Y1.3397
X3.8688Y1.4393
X3.8775Y1.5389
X4.3793Y0.3908
X4.388Y0.4905
X4.3968Y0.5901
X4.4055Y0.6897
X4.4142Y0.7893
X4.4229Y0.8889
X4.4316Y0.9886
X4.4403Y1.0882
X4.4491Y1.1878
X4.4578Y1.2874
X4.4665Y1.387
X4.4752Y1.4867
T3
X0.0219Y1.056
X0.1951Y0.4096
X0.2335Y1.0271
X0.2335Y1.0271
X0.3684Y-0.2369
X0.4022Y1.1579
X0.4067Y0.3806
X0.4067Y0.3806
X0.5754Y0.5115
X0.5799Y-0.2658
X0.5799Y-0.2658
X0.7487Y-0.135
X0.8462Y1.976
X0.9046Y1.3092
X0.9629Y0.6425
X1.0495Y1.9108
X1.0495Y1.9108
X1.1079Y1.244
X1.1079Y1.244
X1.1662Y0.5773
X1.1662Y0.5773
X1.2384Y2.0103
X1.2968Y1.3436
X1.3551Y0.6768
X1.7018Y1.6149
X1.7018Y2.2842
X1.7018Y0.9456
X1.8987Y1.5323
X1.8987Y1.5323
X1.8987Y2.2015
X1.8987Y2.2015
X1.8987Y0.863
X1.8987Y0.863
X2.0955Y1.6149
X2.0955Y2.2842
X2.0955Y0.9456
X2.4487Y0.7377
X2.507Y1.4045
X2.5653Y2.0712
X2.6376Y0.6382
X2.6376Y0.6382
X2.6959Y1.3049
X2.6959Y1.3049
X2.7542Y1.9717
X2.7542Y1.9717
X2.8409Y0.7034
X2.8992Y1.3702
X2.9575Y2.0369
X3.0356Y-0.3178
X3.1449Y0.5648
X3.1923Y-0.4628
X3.1923Y-0.4628
X3.2033Y1.2316
X3.2616Y1.8983
X3.3338Y0.4653
X3.3338Y0.4653
X3.3921Y1.1321
X3.3921Y1.1321
X3.4055Y-0.4525
X3.4505Y1.7988
X3.4505Y1.7988
X3.5371Y0.5305
X3.5955Y1.1973
X3.6538Y1.864
X3.7253Y-0.6016
X3.8545Y-0.7716
X3.8545Y-0.7716
X4.0663Y-0.7985
T4
X1.5127Y1.524
X2.1945Y0.7115
X2.3252Y2.2058
T5
X4.6779Y1.1697
X4.7019Y1.4443
T6
X-0.0358Y1.1955
X-0.0358Y1.1955
X0.1374Y0.549
X0.1374Y0.549
X0.3106Y-0.0975
X0.3106Y-0.0975
X0.3825Y1.3075
X0.3825Y1.3075
X0.5557Y0.6611
X0.5557Y0.6611
X0.7289Y0.0146
X0.7289Y0.0146
X0.8136Y2.1233
X0.8136Y2.1233
X0.8719Y1.4566
X0.8719Y1.4566
X0.9303Y0.7898
X0.9303Y0.7898
X1.245Y2.161
X1.245Y2.161
X1.3033Y1.4943
X1.3033Y1.4943
X1.3617Y0.8276
X1.3617Y0.8276
X1.6822Y1.7645
X1.6822Y1.7645
X1.6822Y2.4338
X1.6822Y2.4338
X1.6822Y1.0952
X1.6822Y1.0952
X2.1152Y1.7645
X2.1152Y1.7645
X2.1152Y2.4338
X2.1152Y2.4338
X2.1152Y1.0952
X2.1152Y1.0952
X2.4421Y0.8885
X2.4421Y0.8885
X2.5004Y1.5552
X2.5004Y1.5552
X2.5588Y2.222
X2.5588Y2.222
X2.8735Y0.8507
X2.8735Y0.8507
X2.9319Y1.5175
X2.9319Y1.5175
X2.9902Y2.1842
X2.9902Y2.1842
X3.0682Y-0.1705
X3.0682Y-0.1705
X3.1383Y0.7156
X3.1383Y0.7156
X3.1967Y1.3823
X3.1967Y1.3823
X3.255Y2.0491
X3.255Y2.0491
X3.4752Y-0.3186
X3.4752Y-0.3186
X3.5698Y0.6778
X3.5698Y0.6778
X3.6281Y1.3446
X3.6281Y1.3446
X3.6864Y2.0113
X3.6864Y2.0113
X3.7831Y-0.4622
X3.7831Y-0.4622
X4.1581Y-0.6787
X4.1581Y-0.6787
T7
X-0.055Y1.3432
X0.1127Y1.4778
X0.1127Y1.4778
X0.1182Y0.6967
X0.2859Y0.8313
X0.2859Y0.8313
X0.2914Y0.0502
X0.3253Y1.4451
X0.4592Y0.1848
X0.4592Y0.1848
X0.4985Y0.7986
X0.6717Y0.1521
X0.8203Y2.2721
X0.8787Y1.6054
X0.937Y0.9386
X1.0089Y2.3755
X1.0089Y2.3755
X1.0672Y1.7088
X1.0672Y1.7088
X1.1256Y1.042
X1.1256Y1.042
X1.2125Y2.3064
X1.2709Y1.6397
X1.3292Y0.9729
X1.7018Y1.9122
X1.7018Y2.5815
X1.7018Y1.2429
X1.8987Y1.9988
X1.8987Y1.9988
X1.8987Y2.6681
X1.8987Y2.6681
X1.8987Y1.3295
X1.8987Y1.3295
X2.0955Y1.9122
X2.0955Y2.5815
X2.0955Y1.2429
X2.4746Y1.0338
X2.5329Y1.7006
X2.5912Y2.3673
X2.6782Y1.103
X2.6782Y1.103
X2.7366Y1.7697
X2.7366Y1.7697
X2.7949Y2.4365
X2.7949Y2.4365
X2.8668Y0.9995
X2.9251Y1.6663
X2.9835Y2.333
X3.1372Y-0.0385
X3.1708Y0.8609
X3.2292Y1.5277
X3.2875Y2.1944
X3.3518Y-0.0244
X3.3518Y-0.0244
X3.3745Y0.9301
X3.3745Y0.9301
X3.4328Y1.5968
X3.4328Y1.5968
X3.4911Y2.2636
X3.4911Y2.2636
X3.5072Y-0.1732
X3.563Y0.8266
X3.6214Y1.4934
X3.6797Y2.1601
X3.874Y-0.3442
X4.0877Y-0.3676
X4.0877Y-0.3676
X4.2149Y-0.541
T8
X0.1733Y1.2515
X0.1733Y1.2515
X0.3466Y0.605
X0.3466Y0.605
X0.5198Y-0.0415
X0.5198Y-0.0415
X1.0293Y2.1422
X1.0293Y2.1422
X1.0876Y1.4754
X1.0876Y1.4754
X1.146Y0.8087
X1.146Y0.8087
X1.8987Y1.7645
X1.8987Y1.7645
X1.8987Y2.4338
X1.8987Y2.4338
X1.8987Y1.0952
X1.8987Y1.0952
X2.6578Y0.8696
X2.6578Y0.8696
X2.7162Y1.5363
X2.7162Y1.5363
X2.7745Y2.2031
X2.7745Y2.2031
X3.2717Y-0.2446
X3.2717Y-0.2446
X3.3541Y0.6967
X3.3541Y0.6967
X3.4124Y1.3635
X3.4124Y1.3635
X3.4707Y2.0302
X3.4707Y2.0302
X3.9706Y-0.5705
X3.9706Y-0.5705
T1
G00X4.5794Y1.0835
M15
G01X4.5774Y1.06
M16
G05
G00X4.5832Y1.1267
M15
G01X4.5812Y1.1031
M16
G05
G00X4.5969Y1.2835
M15
G01X4.5949Y1.26
M16
G05
G00X4.6072Y1.4012
M15
G01X4.6052Y1.3777
M16
G05
G00X4.7599Y1.0677
M15
G01X4.7578Y1.0442
M16
G05
G00X4.7636Y1.1109
M15
G01X4.7616Y1.0873
M16
G05
G00X4.7774Y1.2678
M15
G01X4.7753Y1.2442
M16
G05
G00X4.7876Y1.3854
M15
G01X4.7856Y1.3619
M16
G05
T0
M30
