M48
; DRILL file {KiCad (5.1.10)-1} date 07/05/21 15:56:24
; FORMAT={-:-/ absolute / inch / decimal}
; #@! TF.CreationDate,2021-07-05T15:56:24+02:00
; #@! TF.GenerationSoftware,Kicad,Pcbnew,(5.1.10)-1
FMAT,2
INCH
T1C0.0354
T2C0.0430
T3C0.0500
T4C0.0591
T5C0.0670
T6C0.1181
T7C0.1350
%
G90
G05
T2
X3.7973Y0.4618
X3.806Y0.5614
X3.8147Y0.661
X3.8234Y0.7607
X3.8321Y0.8603
X3.8408Y0.9599
X3.8496Y1.0595
X3.8583Y1.1591
X3.867Y1.2588
X3.8757Y1.3584
X3.8844Y1.458
X3.8931Y1.5576
X4.395Y0.4095
X4.4037Y0.5091
X4.4124Y0.6087
X4.4211Y0.7084
X4.4298Y0.808
X4.4386Y0.9076
X4.4473Y1.0072
X4.456Y1.1068
X4.4647Y1.2065
X4.4734Y1.3061
X4.4821Y1.4057
X4.4908Y1.5053
T3
X0.0376Y1.0747
X0.2108Y0.4282
X0.2491Y1.0458
X0.2491Y1.0458
X0.384Y-0.2183
X0.4178Y1.1766
X0.4223Y0.3993
X0.4223Y0.3993
X0.5911Y0.5301
X0.5956Y-0.2472
X0.5956Y-0.2472
X0.7643Y-0.1164
X0.8619Y1.9946
X0.9202Y1.3279
X0.9786Y0.6612
X1.0652Y1.9294
X1.0652Y1.9294
X1.1235Y1.2627
X1.1235Y1.2627
X1.1819Y0.596
X1.1819Y0.596
X1.2541Y2.029
X1.3124Y1.3622
X1.3708Y0.6955
X1.7175Y2.3029
X1.7175Y1.6336
X1.7175Y0.9643
X1.9143Y2.2202
X1.9143Y2.2202
X1.9143Y1.5509
X1.9143Y1.5509
X1.9143Y0.8816
X1.9143Y0.8816
X2.1112Y2.3029
X2.1112Y1.6336
X2.1112Y0.9643
X2.4643Y0.7564
X2.5227Y1.4231
X2.581Y2.0899
X2.6532Y0.6569
X2.6532Y0.6569
X2.7116Y1.3236
X2.7116Y1.3236
X2.7699Y1.9904
X2.7699Y1.9904
X2.8565Y0.7221
X2.9149Y1.3888
X2.9732Y2.0556
X3.0512Y-0.2992
X3.1606Y0.5835
X3.2079Y-0.4442
X3.2079Y-0.4442
X3.2189Y1.2502
X3.2772Y1.917
X3.3495Y0.484
X3.3495Y0.484
X3.4078Y1.1507
X3.4078Y1.1507
X3.4212Y-0.4338
X3.4661Y1.8175
X3.4661Y1.8175
X3.5528Y0.5492
X3.6111Y1.2159
X3.6694Y1.8827
X3.741Y-0.5829
X3.8701Y-0.753
X3.8701Y-0.753
X4.0819Y-0.7798
T4
X4.6935Y1.1884
X4.7176Y1.463
T5
X-0.0202Y1.2141
X-0.0202Y1.2141
X0.1531Y0.5676
X0.1531Y0.5676
X0.3263Y-0.0789
X0.3263Y-0.0789
X0.3981Y1.3262
X0.3981Y1.3262
X0.5714Y0.6797
X0.5714Y0.6797
X0.7446Y0.0332
X0.7446Y0.0332
X0.8292Y2.142
X0.8292Y2.142
X0.8876Y1.4752
X0.8876Y1.4752
X0.9459Y0.8085
X0.9459Y0.8085
X1.2607Y2.1797
X1.2607Y2.1797
X1.319Y1.513
X1.319Y1.513
X1.3773Y0.8462
X1.3773Y0.8462
X1.6978Y2.4525
X1.6978Y2.4525
X1.6978Y1.7832
X1.6978Y1.7832
X1.6978Y1.1139
X1.6978Y1.1139
X2.1309Y2.4525
X2.1309Y2.4525
X2.1309Y1.7832
X2.1309Y1.7832
X2.1309Y1.1139
X2.1309Y1.1139
X2.4578Y0.9071
X2.4578Y0.9071
X2.5161Y1.5739
X2.5161Y1.5739
X2.5744Y2.2406
X2.5744Y2.2406
X2.8892Y0.8694
X2.8892Y0.8694
X2.9475Y1.5361
X2.9475Y1.5361
X3.0058Y2.2029
X3.0058Y2.2029
X3.0839Y-0.1518
X3.0839Y-0.1518
X3.154Y0.7343
X3.154Y0.7343
X3.2123Y1.401
X3.2123Y1.401
X3.2707Y2.0677
X3.2707Y2.0677
X3.4908Y-0.3
X3.4908Y-0.3
X3.5854Y0.6965
X3.5854Y0.6965
X3.6438Y1.3633
X3.6438Y1.3633
X3.7021Y2.03
X3.7021Y2.03
X3.7987Y-0.4435
X3.7987Y-0.4435
X4.1738Y-0.6601
X4.1738Y-0.6601
T6
X-0.0394Y1.3618
X0.1284Y1.4964
X0.1284Y1.4964
X0.1339Y0.7153
X0.3016Y0.85
X0.3016Y0.85
X0.3071Y0.0689
X0.3409Y1.4637
X0.4748Y0.2035
X0.4748Y0.2035
X0.5141Y0.8172
X0.6874Y0.1707
X0.836Y2.2908
X0.8943Y1.624
X0.9526Y0.9573
X1.0245Y2.3942
X1.0245Y2.3942
X1.0829Y1.7275
X1.0829Y1.7275
X1.1412Y1.0607
X1.1412Y1.0607
X1.2282Y2.3251
X1.2865Y1.6583
X1.3449Y0.9916
X1.7175Y2.6001
X1.7175Y1.9308
X1.7175Y1.2616
X1.9143Y2.6867
X1.9143Y2.6867
X1.9143Y2.0175
X1.9143Y2.0175
X1.9143Y1.3482
X1.9143Y1.3482
X2.1112Y2.6001
X2.1112Y1.9308
X2.1112Y1.2616
X2.4902Y1.0525
X2.5486Y1.7192
X2.6069Y2.386
X2.6939Y1.1216
X2.6939Y1.1216
X2.7522Y1.7884
X2.7522Y1.7884
X2.8105Y2.4551
X2.8105Y2.4551
X2.8824Y1.0182
X2.9408Y1.6849
X2.9991Y2.3517
X3.1529Y-0.0198
X3.1865Y0.8796
X3.2448Y1.5464
X3.3031Y2.2131
X3.3675Y-0.0058
X3.3675Y-0.0058
X3.3901Y0.9487
X3.3901Y0.9487
X3.4485Y1.6155
X3.4485Y1.6155
X3.5068Y2.2822
X3.5068Y2.2822
X3.5228Y-0.1545
X3.5787Y0.8453
X3.637Y1.512
X3.6953Y2.1788
X3.8896Y-0.3255
X4.1034Y-0.3489
X4.1034Y-0.3489
X4.2306Y-0.5224
T7
X0.189Y1.2702
X0.189Y1.2702
X0.3622Y0.6237
X0.3622Y0.6237
X0.5354Y-0.0228
X0.5354Y-0.0228
X1.045Y2.1608
X1.045Y2.1608
X1.1033Y1.4941
X1.1033Y1.4941
X1.1616Y0.8274
X1.1616Y0.8274
X1.9143Y2.4525
X1.9143Y2.4525
X1.9143Y1.7832
X1.9143Y1.7832
X1.9143Y1.1139
X1.9143Y1.1139
X2.6735Y0.8883
X2.6735Y0.8883
X2.7318Y1.555
X2.7318Y1.555
X2.7901Y2.2218
X2.7901Y2.2218
X3.2874Y-0.2259
X3.2874Y-0.2259
X3.3697Y0.7154
X3.3697Y0.7154
X3.428Y1.3821
X3.428Y1.3821
X3.4864Y2.0489
X3.4864Y2.0489
X3.9863Y-0.5518
X3.9863Y-0.5518
T1
G00X4.5951Y1.1022
M15
G01X4.593Y1.0786
M16
G05
G00X4.5989Y1.1453
M15
G01X4.5968Y1.1218
M16
G05
G00X4.6126Y1.3022
M15
G01X4.6105Y1.2787
M16
G05
G00X4.6229Y1.4199
M15
G01X4.6208Y1.3963
M16
G05
G00X4.7755Y1.0864
M15
G01X4.7734Y1.0629
M16
G05
G00X4.7793Y1.1295
M15
G01X4.7772Y1.106
M16
G05
G00X4.793Y1.2864
M15
G01X4.7909Y1.2629
M16
G05
G00X4.8033Y1.4041
M15
G01X4.8012Y1.3805
M16
G05
T0
M30
