%TF.GenerationSoftware,KiCad,Pcbnew,(5.1.10)-1*%
%TF.CreationDate,2021-07-05T15:56:21+02:00*%
%TF.ProjectId,architeuthis_dux,61726368-6974-4657-9574-6869735f6475,VERSION_HERE*%
%TF.SameCoordinates,Original*%
%TF.FileFunction,Profile,NP*%
%FSLAX46Y46*%
G04 Gerber Fmt 4.6, Leading zero omitted, Abs format (unit mm)*
G04 Created by KiCad (PCBNEW (5.1.10)-1) date 2021-07-05 15:56:21*
%MOMM*%
%LPD*%
G01*
G04 APERTURE LIST*
%TA.AperFunction,Profile*%
%ADD10C,0.150000*%
%TD*%
G04 APERTURE END LIST*
D10*
X8072632Y-10860183D02*
X23527445Y-6719078D01*
X24234552Y-5494333D02*
G75*
G02*
X23527445Y-6719078I-965926J-258819D01*
G01*
X22079744Y2547519D02*
X24234552Y-5494333D01*
X-5834247Y37177289D02*
X6847887Y-10153076D01*
X8072631Y-10860182D02*
G75*
G02*
X6847887Y-10153076I-258819J965925D01*
G01*
X-5127140Y38402034D02*
X15966515Y44054062D01*
X-5834247Y37177289D02*
G75*
G02*
X-5127140Y38402034I965926J258819D01*
G01*
X16922378Y61572470D02*
X18178642Y47213307D01*
X17831417Y62655821D02*
X36885830Y64322866D01*
X16922377Y61572471D02*
G75*
G02*
X17831417Y62655821I996195J87155D01*
G01*
X57624363Y68872896D02*
X57624363Y69793388D01*
X56624363Y70793388D02*
G75*
G02*
X57624363Y69793388I0J-1000000D01*
G01*
X56624363Y70793388D02*
X40624363Y70793388D01*
X39624363Y69793388D02*
G75*
G02*
X40624363Y70793388I1000000J0D01*
G01*
X39624363Y69793388D02*
X39624363Y67311450D01*
X80416097Y62289548D02*
X80488727Y63119710D01*
X79579688Y64203061D02*
G75*
G02*
X80488727Y63119710I-87156J-996195D01*
G01*
X60362896Y65884312D02*
X79579688Y64203060D01*
X111291432Y-9331143D02*
X113963382Y21209387D01*
X99767382Y42527773D02*
X120687470Y40697502D01*
X122455874Y26489309D02*
X123414587Y37447451D01*
X119205823Y23762192D02*
X117213433Y23936504D01*
X97040265Y45777824D02*
X98173290Y58728355D01*
X97264251Y59811706D02*
G75*
G02*
X98173290Y58728355I-87156J-996195D01*
G01*
X81325136Y61206197D02*
X97264251Y59811705D01*
X26003581Y6143054D02*
X88884474Y-16743719D01*
X89358414Y-16964721D02*
X103929310Y-25377232D01*
X105295335Y-25011207D02*
G75*
G02*
X103929310Y-25377232I-866025J500000D01*
G01*
X105295336Y-25011207D02*
X112795336Y-12020826D01*
X112429310Y-10654800D02*
G75*
G02*
X112795336Y-12020826I-500000J-866026D01*
G01*
X112429310Y-10654800D02*
X111787627Y-10284324D01*
X22079744Y2547519D02*
G75*
G02*
X26003581Y6143054I2897777J776457D01*
G01*
X88884475Y-16743719D02*
G75*
G02*
X89358414Y-16964721I-1026061J-2819078D01*
G01*
X113963382Y21209387D02*
G75*
G02*
X117213433Y23936504I2988584J-261467D01*
G01*
X122455874Y26489309D02*
G75*
G02*
X119205823Y23762192I-2988584J261467D01*
G01*
X120687470Y40697502D02*
G75*
G02*
X123414587Y37447451I-261467J-2988584D01*
G01*
X99767382Y42527773D02*
G75*
G02*
X97040265Y45777824I261467J2988584D01*
G01*
X60362896Y65884312D02*
G75*
G02*
X57624363Y68872896I261467J2988584D01*
G01*
X39624363Y67311450D02*
G75*
G02*
X36885830Y64322866I-3000000J0D01*
G01*
X18178642Y47213307D02*
G75*
G02*
X15966515Y44054062I-2988584J-261467D01*
G01*
X111787627Y-10284324D02*
G75*
G02*
X111291432Y-9331143I500000J866025D01*
G01*
X113963382Y21209387D02*
G75*
G02*
X113963382Y21209387I996195J-87156D01*
G01*
X122455874Y26489309D02*
G75*
G02*
X122455874Y26489309I-996194J87156D01*
G01*
X120687470Y40697502D02*
G75*
G02*
X120687470Y40697502I-87155J-996195D01*
G01*
X99767382Y42527773D02*
G75*
G02*
X99767382Y42527773I87156J996194D01*
G01*
X81325135Y61206198D02*
G75*
G02*
X80416097Y62289548I87156J996194D01*
G01*
X60362896Y65884312D02*
G75*
G02*
X60362896Y65884312I87156J996195D01*
G01*
X36885830Y64322866D02*
G75*
G02*
X36885830Y64322866I-87155J996194D01*
G01*
X15966515Y44054062D02*
G75*
G02*
X15966515Y44054062I-258819J965926D01*
G01*
X88884474Y-16743719D02*
G75*
G02*
X88884474Y-16743719I-171010J-469846D01*
G01*
X97264251Y59811705D02*
G75*
G02*
X97264251Y59811705I-43578J-498097D01*
G01*
X81325136Y61206197D02*
G75*
G02*
X81325136Y61206197I43578J498098D01*
G01*
X79579688Y64203060D02*
G75*
G02*
X79579688Y64203060I-43578J-498097D01*
G01*
M02*
