%TF.GenerationSoftware,KiCad,Pcbnew,(5.1.9)-1*%
%TF.CreationDate,2021-04-26T15:19:46+02:00*%
%TF.ProjectId,sepia,73657069-612e-46b6-9963-61645f706362,VERSION_HERE*%
%TF.SameCoordinates,Original*%
%TF.FileFunction,Soldermask,Bot*%
%TF.FilePolarity,Negative*%
%FSLAX46Y46*%
G04 Gerber Fmt 4.6, Leading zero omitted, Abs format (unit mm)*
G04 Created by KiCad (PCBNEW (5.1.9)-1) date 2021-04-26 15:19:46*
%MOMM*%
%LPD*%
G01*
G04 APERTURE LIST*
%ADD10C,0.010000*%
%ADD11O,2.300000X1.700000*%
%ADD12C,1.600000*%
%ADD13C,1.852600*%
%ADD14C,1.801800*%
%ADD15C,3.100000*%
%ADD16C,3.529000*%
G04 APERTURE END LIST*
D10*
%TO.C,G\u002A\u002A\u002A*%
G36*
X80876474Y-78585028D02*
G01*
X81154601Y-78520440D01*
X81425493Y-78465153D01*
X81674687Y-78422588D01*
X81829667Y-78402054D01*
X82005642Y-78384637D01*
X82201633Y-78368996D01*
X82406869Y-78355648D01*
X82610579Y-78345112D01*
X82801992Y-78337905D01*
X82970337Y-78334543D01*
X83104843Y-78335544D01*
X83160521Y-78338144D01*
X83313518Y-78358923D01*
X83500859Y-78400389D01*
X83712290Y-78458913D01*
X83937555Y-78530865D01*
X84166395Y-78612616D01*
X84388557Y-78700536D01*
X84593782Y-78790995D01*
X84771815Y-78880366D01*
X84890267Y-78950257D01*
X84967357Y-79002180D01*
X85010292Y-79039373D01*
X85028215Y-79073671D01*
X85030268Y-79116910D01*
X85029386Y-79130344D01*
X85009068Y-79218721D01*
X84958590Y-79322897D01*
X84875609Y-79446179D01*
X84757784Y-79591872D01*
X84602773Y-79763282D01*
X84518851Y-79851146D01*
X84334222Y-80043019D01*
X84181032Y-80206206D01*
X84054498Y-80347640D01*
X83949837Y-80474254D01*
X83862264Y-80592980D01*
X83786999Y-80710752D01*
X83719258Y-80834503D01*
X83654259Y-80971163D01*
X83587218Y-81127669D01*
X83515522Y-81305477D01*
X83456650Y-81453755D01*
X83399151Y-81598308D01*
X83347793Y-81727164D01*
X83307347Y-81828347D01*
X83289535Y-81872698D01*
X83240149Y-81985073D01*
X83184500Y-82088219D01*
X83117893Y-82187084D01*
X83035630Y-82286617D01*
X82933018Y-82391768D01*
X82805358Y-82507484D01*
X82647958Y-82638712D01*
X82456121Y-82790402D01*
X82317148Y-82897417D01*
X82078191Y-83083668D01*
X81878921Y-83247336D01*
X81715615Y-83392222D01*
X81584546Y-83522124D01*
X81481992Y-83640843D01*
X81404230Y-83752180D01*
X81347531Y-83859933D01*
X81328798Y-83905851D01*
X81291572Y-84020356D01*
X81280703Y-84102114D01*
X81296299Y-84161871D01*
X81331792Y-84204605D01*
X81370550Y-84231627D01*
X81414952Y-84239063D01*
X81481971Y-84227906D01*
X81527696Y-84216094D01*
X81616322Y-84187894D01*
X81730804Y-84145759D01*
X81850972Y-84097247D01*
X81891572Y-84079751D01*
X81981753Y-84042690D01*
X82109751Y-83993657D01*
X82265097Y-83936479D01*
X82437329Y-83874980D01*
X82615976Y-83812984D01*
X82693921Y-83786533D01*
X82973683Y-83690690D01*
X83211016Y-83605256D01*
X83412444Y-83527068D01*
X83584495Y-83452967D01*
X83733691Y-83379789D01*
X83866559Y-83304372D01*
X83989624Y-83223555D01*
X84109410Y-83134177D01*
X84210635Y-83051545D01*
X84363567Y-82914161D01*
X84492408Y-82777078D01*
X84604079Y-82630168D01*
X84705501Y-82463301D01*
X84803596Y-82266349D01*
X84899417Y-82043605D01*
X85027340Y-81746714D01*
X85148577Y-81499395D01*
X85262989Y-81301907D01*
X85351738Y-81177186D01*
X85399897Y-81124441D01*
X85467887Y-81059059D01*
X85546105Y-80989149D01*
X85624948Y-80922818D01*
X85694813Y-80868173D01*
X85746097Y-80833320D01*
X85768320Y-80825508D01*
X85772954Y-80854208D01*
X85770170Y-80924761D01*
X85761084Y-81028945D01*
X85746808Y-81158533D01*
X85728460Y-81305303D01*
X85707153Y-81461029D01*
X85684002Y-81617488D01*
X85660121Y-81766455D01*
X85636625Y-81899705D01*
X85614631Y-82009016D01*
X85599418Y-82071692D01*
X85538574Y-82257743D01*
X85452475Y-82471975D01*
X85347172Y-82702564D01*
X85228717Y-82937687D01*
X85103163Y-83165519D01*
X84976563Y-83374237D01*
X84854968Y-83552015D01*
X84814652Y-83604817D01*
X84602366Y-83857652D01*
X84359707Y-84119903D01*
X84096353Y-84382566D01*
X83821981Y-84636636D01*
X83546265Y-84873108D01*
X83278885Y-85082977D01*
X83061517Y-85236290D01*
X82980151Y-85287188D01*
X82870770Y-85351434D01*
X82741969Y-85424409D01*
X82602340Y-85501492D01*
X82460477Y-85578065D01*
X82324977Y-85649510D01*
X82204430Y-85711207D01*
X82107433Y-85758536D01*
X82042579Y-85786878D01*
X82028112Y-85791721D01*
X81997810Y-85778821D01*
X81938133Y-85737063D01*
X81856742Y-85672352D01*
X81761304Y-85590599D01*
X81724350Y-85557561D01*
X81613834Y-85459179D01*
X81533012Y-85391694D01*
X81475237Y-85350513D01*
X81433859Y-85331045D01*
X81402225Y-85328693D01*
X81395184Y-85330209D01*
X81347348Y-85357740D01*
X81330869Y-85387725D01*
X81347663Y-85418226D01*
X81398894Y-85479614D01*
X81481440Y-85568569D01*
X81592180Y-85681773D01*
X81727994Y-85815906D01*
X81790079Y-85876062D01*
X82076730Y-86159276D01*
X82328008Y-86421960D01*
X82542284Y-86662271D01*
X82717931Y-86878369D01*
X82853321Y-87068413D01*
X82875353Y-87103020D01*
X82928647Y-87191722D01*
X82970223Y-87270916D01*
X83005335Y-87353718D01*
X83039235Y-87453240D01*
X83077180Y-87582596D01*
X83098903Y-87661076D01*
X83137834Y-87806410D01*
X83163964Y-87914770D01*
X83179079Y-87997840D01*
X83184969Y-88067306D01*
X83183421Y-88134853D01*
X83179083Y-88185130D01*
X83152335Y-88324615D01*
X83103931Y-88464563D01*
X83041015Y-88588276D01*
X82970733Y-88679057D01*
X82965727Y-88683742D01*
X82881246Y-88736136D01*
X82766402Y-88775949D01*
X82641010Y-88798539D01*
X82524882Y-88799265D01*
X82493771Y-88794305D01*
X82368557Y-88757142D01*
X82239332Y-88696989D01*
X82103909Y-88611617D01*
X81960102Y-88498800D01*
X81805726Y-88356313D01*
X81638593Y-88181928D01*
X81456516Y-87973419D01*
X81257313Y-87728560D01*
X81038794Y-87445124D01*
X80798774Y-87120885D01*
X80654483Y-86921113D01*
X80523103Y-86738176D01*
X80417713Y-86592603D01*
X80334922Y-86480311D01*
X80271340Y-86397222D01*
X80223573Y-86339255D01*
X80188234Y-86302334D01*
X80161930Y-86282376D01*
X80141270Y-86275302D01*
X80122863Y-86277033D01*
X80119816Y-86277880D01*
X80094190Y-86305243D01*
X80052037Y-86373643D01*
X79996076Y-86477102D01*
X79929019Y-86609641D01*
X79853584Y-86765281D01*
X79772485Y-86938047D01*
X79688440Y-87121957D01*
X79604163Y-87311035D01*
X79522370Y-87499303D01*
X79445776Y-87680782D01*
X79377099Y-87849493D01*
X79319052Y-87999461D01*
X79274352Y-88124704D01*
X79258642Y-88173604D01*
X79166427Y-88548439D01*
X79122864Y-88910514D01*
X79127886Y-89261455D01*
X79181428Y-89602887D01*
X79196972Y-89666400D01*
X79237027Y-89812759D01*
X79275144Y-89921047D01*
X79319723Y-90002934D01*
X79379161Y-90070085D01*
X79461858Y-90134168D01*
X79576211Y-90206851D01*
X79593613Y-90217402D01*
X79720900Y-90303346D01*
X79799196Y-90378647D01*
X79828775Y-90445043D01*
X79809917Y-90504267D01*
X79742897Y-90558056D01*
X79654415Y-90598483D01*
X79511240Y-90652977D01*
X79189018Y-90460744D01*
X79028587Y-90361155D01*
X78897099Y-90268119D01*
X78789548Y-90174205D01*
X78700927Y-90071986D01*
X78626230Y-89954034D01*
X78560449Y-89812920D01*
X78498579Y-89641214D01*
X78435613Y-89431491D01*
X78394617Y-89282047D01*
X78330331Y-89021251D01*
X78286920Y-88787944D01*
X78264190Y-88569530D01*
X78261952Y-88353410D01*
X78280012Y-88126989D01*
X78318181Y-87877669D01*
X78369427Y-87623933D01*
X78415609Y-87425569D01*
X78467266Y-87231144D01*
X78527321Y-87031767D01*
X78598690Y-86818544D01*
X78684295Y-86582585D01*
X78787056Y-86314999D01*
X78858368Y-86135052D01*
X78931638Y-85948969D01*
X78985592Y-85804853D01*
X79021643Y-85698296D01*
X79041207Y-85624885D01*
X79045699Y-85580211D01*
X79041350Y-85564714D01*
X78998996Y-85532073D01*
X78947766Y-85545244D01*
X78892885Y-85601238D01*
X78850227Y-85674107D01*
X78821100Y-85738073D01*
X78777490Y-85839074D01*
X78723680Y-85966938D01*
X78663955Y-86111493D01*
X78607610Y-86250131D01*
X78430794Y-86717649D01*
X78290556Y-87154327D01*
X78186598Y-87564267D01*
X78118622Y-87951570D01*
X78086332Y-88320342D01*
X78089429Y-88674683D01*
X78127620Y-89018696D01*
X78200604Y-89356484D01*
X78308087Y-89692149D01*
X78350552Y-89801851D01*
X78452361Y-90018720D01*
X78573201Y-90204159D01*
X78720865Y-90366656D01*
X78903147Y-90514700D01*
X79127841Y-90656775D01*
X79143983Y-90665939D01*
X79252077Y-90730122D01*
X79320220Y-90780262D01*
X79354769Y-90823198D01*
X79362082Y-90865771D01*
X79356021Y-90894049D01*
X79323655Y-90919121D01*
X79250362Y-90938196D01*
X79145758Y-90950445D01*
X79019456Y-90955031D01*
X78881064Y-90951122D01*
X78787032Y-90943404D01*
X78660972Y-90924336D01*
X78533054Y-90891811D01*
X78393170Y-90842237D01*
X78231210Y-90772026D01*
X78037062Y-90677585D01*
X78033442Y-90675759D01*
X77917548Y-90613547D01*
X77829127Y-90554412D01*
X77750197Y-90484153D01*
X77662777Y-90388574D01*
X77648044Y-90371438D01*
X77565933Y-90272075D01*
X77508782Y-90191332D01*
X77466200Y-90111345D01*
X77427795Y-90014251D01*
X77409469Y-89961288D01*
X77362331Y-89806161D01*
X77313455Y-89618000D01*
X77265512Y-89409923D01*
X77221178Y-89195049D01*
X77183124Y-88986497D01*
X77154024Y-88797386D01*
X77136552Y-88640833D01*
X77134530Y-88612014D01*
X77131275Y-88167272D01*
X77173163Y-87706542D01*
X77259149Y-87234989D01*
X77388189Y-86757779D01*
X77559237Y-86280074D01*
X77649173Y-86067365D01*
X77714669Y-85912249D01*
X77755320Y-85796925D01*
X77771906Y-85717325D01*
X77765211Y-85669377D01*
X77736015Y-85649014D01*
X77729726Y-85648086D01*
X77677829Y-85659861D01*
X77624539Y-85708938D01*
X77565880Y-85799858D01*
X77522372Y-85884828D01*
X77364780Y-86238990D01*
X77236759Y-86588527D01*
X77132426Y-86951469D01*
X77046312Y-87343676D01*
X76988521Y-87688814D01*
X76953130Y-88012438D01*
X76940663Y-88324695D01*
X76951645Y-88635735D01*
X76986600Y-88955700D01*
X77046054Y-89294739D01*
X77130533Y-89662997D01*
X77175166Y-89834661D01*
X77292144Y-90271310D01*
X77242375Y-90474550D01*
X77207082Y-90705451D01*
X77209885Y-90856736D01*
X77219178Y-90936151D01*
X77232745Y-91004095D01*
X77254995Y-91073188D01*
X77290341Y-91156043D01*
X77343194Y-91265277D01*
X77374616Y-91327888D01*
X77445436Y-91470004D01*
X77494996Y-91575434D01*
X77525953Y-91652305D01*
X77540970Y-91708743D01*
X77542707Y-91752877D01*
X77533824Y-91792836D01*
X77530210Y-91803249D01*
X77508484Y-91843296D01*
X77469684Y-91870793D01*
X77399640Y-91894366D01*
X77366290Y-91902993D01*
X77250689Y-91929173D01*
X77168565Y-91936270D01*
X77104758Y-91919863D01*
X77044105Y-91875532D01*
X76971449Y-91798857D01*
X76958369Y-91784056D01*
X76837718Y-91628566D01*
X76727119Y-91445868D01*
X76624266Y-91230822D01*
X76526858Y-90978285D01*
X76432593Y-90683117D01*
X76377698Y-90487562D01*
X76281594Y-90107428D01*
X76205901Y-89752475D01*
X76150810Y-89415695D01*
X76116517Y-89090081D01*
X76103212Y-88768623D01*
X76111091Y-88444313D01*
X76140347Y-88110143D01*
X76191173Y-87759105D01*
X76263762Y-87384189D01*
X76358308Y-86978389D01*
X76475005Y-86534696D01*
X76488091Y-86487284D01*
X76534550Y-86314711D01*
X76573590Y-86159999D01*
X76603673Y-86029984D01*
X76623262Y-85931512D01*
X76630820Y-85871422D01*
X76629533Y-85857725D01*
X76592860Y-85821882D01*
X76540894Y-85821865D01*
X76491819Y-85855290D01*
X76476949Y-85877729D01*
X76453840Y-85935635D01*
X76421143Y-86035315D01*
X76380910Y-86169092D01*
X76335191Y-86329288D01*
X76286035Y-86508229D01*
X76235493Y-86698238D01*
X76185616Y-86891640D01*
X76138453Y-87080756D01*
X76096054Y-87257914D01*
X76060469Y-87415433D01*
X76039772Y-87514623D01*
X75970433Y-87921025D01*
X75929615Y-88306719D01*
X75916742Y-88687970D01*
X75931230Y-89081043D01*
X75969700Y-89479305D01*
X75988080Y-89591931D01*
X76021289Y-89750391D01*
X76068722Y-89952117D01*
X76129775Y-90194543D01*
X76203845Y-90475102D01*
X76205464Y-90481120D01*
X76277634Y-90744885D01*
X76341105Y-90965587D01*
X76398481Y-91149688D01*
X76452364Y-91303650D01*
X76505357Y-91433937D01*
X76560063Y-91547013D01*
X76619085Y-91649338D01*
X76685024Y-91747379D01*
X76750787Y-91835169D01*
X76824689Y-91933950D01*
X76866646Y-92002226D01*
X76878636Y-92047312D01*
X76862635Y-92076521D01*
X76821494Y-92096860D01*
X76755975Y-92108107D01*
X76664565Y-92110163D01*
X76600387Y-92105852D01*
X76436689Y-92065599D01*
X76264451Y-91982075D01*
X76091538Y-91860089D01*
X75925816Y-91704446D01*
X75903152Y-91679705D01*
X75789791Y-91548398D01*
X75693296Y-91423020D01*
X75610070Y-91295941D01*
X75536518Y-91159532D01*
X75469048Y-91006164D01*
X75404064Y-90828207D01*
X75337970Y-90618030D01*
X75267172Y-90368006D01*
X75242992Y-90278542D01*
X75178063Y-90029114D01*
X75127453Y-89815004D01*
X75089287Y-89623374D01*
X75061695Y-89441393D01*
X75042803Y-89256224D01*
X75030737Y-89055034D01*
X75023626Y-88824988D01*
X75022509Y-88767441D01*
X75025935Y-88306515D01*
X75054826Y-87879402D01*
X75111355Y-87474769D01*
X75197700Y-87081281D01*
X75316036Y-86687604D01*
X75468537Y-86282404D01*
X75525444Y-86147214D01*
X75578227Y-86019832D01*
X75609814Y-85930032D01*
X75622299Y-85870244D01*
X75617768Y-85832901D01*
X75614158Y-85826084D01*
X75576463Y-85795471D01*
X75521220Y-85804745D01*
X75478246Y-85843034D01*
X75425391Y-85924077D01*
X75365113Y-86041348D01*
X75299870Y-86188323D01*
X75232119Y-86358474D01*
X75164320Y-86545278D01*
X75098929Y-86742207D01*
X75038405Y-86942739D01*
X74985206Y-87140347D01*
X74941790Y-87328506D01*
X74935390Y-87359931D01*
X74874828Y-87748848D01*
X74840025Y-88168843D01*
X74830694Y-88607376D01*
X74846544Y-89051910D01*
X74887285Y-89489910D01*
X74952629Y-89908839D01*
X74999330Y-90128188D01*
X75036293Y-90286507D01*
X75062103Y-90403029D01*
X75077720Y-90485291D01*
X75084097Y-90540833D01*
X75082195Y-90577193D01*
X75072971Y-90601910D01*
X75061497Y-90617728D01*
X75022291Y-90657173D01*
X74985726Y-90667950D01*
X74940022Y-90647698D01*
X74873403Y-90594056D01*
X74852978Y-90575937D01*
X74736703Y-90471938D01*
X74569325Y-89738627D01*
X74524739Y-89540381D01*
X74482490Y-89347048D01*
X74444385Y-89167335D01*
X74412235Y-89009945D01*
X74387851Y-88883585D01*
X74373042Y-88796960D01*
X74372019Y-88789821D01*
X74347907Y-88564846D01*
X74339660Y-88341996D01*
X74348199Y-88113828D01*
X74374449Y-87872903D01*
X74419332Y-87611778D01*
X74483771Y-87323012D01*
X74568689Y-86999164D01*
X74613896Y-86839774D01*
X74664803Y-86661779D01*
X74701883Y-86526095D01*
X74726257Y-86426485D01*
X74739048Y-86356709D01*
X74741374Y-86310529D01*
X74734358Y-86281705D01*
X74719119Y-86263999D01*
X74717544Y-86262852D01*
X74682870Y-86244802D01*
X74650771Y-86245081D01*
X74619446Y-86267645D01*
X74587102Y-86316451D01*
X74551940Y-86395455D01*
X74512164Y-86508617D01*
X74465977Y-86659890D01*
X74411583Y-86853235D01*
X74356249Y-87058510D01*
X74288220Y-87323900D01*
X74233700Y-87563361D01*
X74192834Y-87784014D01*
X74165761Y-87992979D01*
X74152628Y-88197377D01*
X74153575Y-88404328D01*
X74168747Y-88620953D01*
X74198286Y-88854372D01*
X74242335Y-89111706D01*
X74301038Y-89400074D01*
X74374537Y-89726599D01*
X74413131Y-89890636D01*
X74462604Y-90102695D01*
X74498982Y-90267672D01*
X74522629Y-90387472D01*
X74533908Y-90463998D01*
X74533180Y-90499155D01*
X74529626Y-90502061D01*
X74471970Y-90478287D01*
X74397127Y-90415231D01*
X74310016Y-90319348D01*
X74215555Y-90197095D01*
X74118667Y-90054925D01*
X74024266Y-89899295D01*
X73937276Y-89736660D01*
X73920904Y-89703246D01*
X73839941Y-89510117D01*
X73766538Y-89287674D01*
X73704804Y-89052418D01*
X73658842Y-88820850D01*
X73632758Y-88609471D01*
X73628674Y-88528819D01*
X73630833Y-88162676D01*
X73655795Y-87810568D01*
X73705476Y-87460704D01*
X73781788Y-87101292D01*
X73886647Y-86720543D01*
X73959555Y-86490564D01*
X74013952Y-86325407D01*
X74066067Y-86166454D01*
X74112662Y-86023636D01*
X74150500Y-85906883D01*
X74176343Y-85826124D01*
X74180271Y-85813615D01*
X74207801Y-85709721D01*
X74223810Y-85604923D01*
X74227805Y-85491126D01*
X74219295Y-85360235D01*
X74197786Y-85204152D01*
X74162786Y-85014783D01*
X74119083Y-84808009D01*
X74070301Y-84579906D01*
X74063169Y-84543119D01*
X77410408Y-83646230D01*
X77467632Y-83823046D01*
X77511810Y-83926287D01*
X77629062Y-84114845D01*
X77779018Y-84268256D01*
X77956455Y-84385163D01*
X78156146Y-84464211D01*
X78372867Y-84504044D01*
X78601392Y-84503306D01*
X78836496Y-84460642D01*
X79072953Y-84374697D01*
X79131338Y-84346457D01*
X79322658Y-84228650D01*
X79496786Y-84082169D01*
X79640467Y-83919062D01*
X79700028Y-83829509D01*
X79788442Y-83645766D01*
X79833628Y-83463748D01*
X79835906Y-83275397D01*
X79795598Y-83072654D01*
X79736983Y-82904737D01*
X79620951Y-82666954D01*
X79480825Y-82472594D01*
X79314063Y-82319075D01*
X79118120Y-82203817D01*
X78999680Y-82156715D01*
X78841421Y-82107773D01*
X78707440Y-82080920D01*
X78580979Y-82075792D01*
X78445279Y-82092025D01*
X78283586Y-82129256D01*
X78242667Y-82140281D01*
X78110932Y-82178024D01*
X78014346Y-82210864D01*
X77938499Y-82245049D01*
X77868978Y-82286825D01*
X77812467Y-82326791D01*
X77642839Y-82472973D01*
X77504125Y-82636441D01*
X77402845Y-82808209D01*
X77348083Y-82966973D01*
X77333892Y-83104546D01*
X77341145Y-83272960D01*
X77367448Y-83458194D01*
X77410408Y-83646230D01*
X74063169Y-84543119D01*
X74033933Y-84392289D01*
X74009506Y-84236505D01*
X73996540Y-84103904D01*
X73994555Y-83985832D01*
X74003076Y-83873641D01*
X74021624Y-83758677D01*
X74049720Y-83632291D01*
X74053319Y-83617543D01*
X74127779Y-83373521D01*
X74226626Y-83160508D01*
X74357162Y-82966617D01*
X74526687Y-82779965D01*
X74622707Y-82690649D01*
X74772175Y-82564971D01*
X74911190Y-82466609D01*
X75051586Y-82390249D01*
X75205199Y-82330575D01*
X75383863Y-82282271D01*
X75599414Y-82240021D01*
X75641983Y-82232824D01*
X75783101Y-82210128D01*
X75888712Y-82196326D01*
X75973310Y-82191329D01*
X76051386Y-82195049D01*
X76137433Y-82207396D01*
X76245944Y-82228280D01*
X76249945Y-82229087D01*
X76514084Y-82282424D01*
X76427768Y-82394362D01*
X76339296Y-82497081D01*
X76244716Y-82577670D01*
X76125968Y-82650505D01*
X76068951Y-82680041D01*
X75980312Y-82732891D01*
X75938270Y-82781843D01*
X75939463Y-82832213D01*
X75955368Y-82859791D01*
X75977850Y-82876660D01*
X76017045Y-82876830D01*
X76084642Y-82859080D01*
X76140430Y-82840451D01*
X76250792Y-82795665D01*
X76347355Y-82739420D01*
X76439144Y-82663994D01*
X76535184Y-82561671D01*
X76644497Y-82424728D01*
X76676949Y-82381502D01*
X76853999Y-82162829D01*
X77039803Y-81974894D01*
X77244503Y-81809635D01*
X77478243Y-81658995D01*
X77751166Y-81514912D01*
X77792628Y-81495020D01*
X78043289Y-81390736D01*
X78282735Y-81324169D01*
X78523294Y-81293885D01*
X78777291Y-81298446D01*
X79057053Y-81336416D01*
X79094126Y-81343377D01*
X79311588Y-81395426D01*
X79498650Y-81464913D01*
X79666913Y-81558681D01*
X79827978Y-81683563D01*
X79993445Y-81846400D01*
X80046765Y-81904891D01*
X80152381Y-82026502D01*
X80236164Y-82133384D01*
X80303867Y-82236426D01*
X80361242Y-82346513D01*
X80414043Y-82474532D01*
X80468023Y-82631369D01*
X80521481Y-82803235D01*
X80569494Y-82961189D01*
X80605688Y-83076919D01*
X80632867Y-83156849D01*
X80653840Y-83207406D01*
X80671411Y-83235012D01*
X80688386Y-83246093D01*
X80707571Y-83247074D01*
X80714967Y-83246264D01*
X80751931Y-83231716D01*
X80772989Y-83195403D01*
X80777974Y-83131995D01*
X80766717Y-83036163D01*
X80739053Y-82902576D01*
X80699156Y-82742479D01*
X80652005Y-82571432D01*
X80609062Y-82438418D01*
X80566014Y-82331390D01*
X80518721Y-82238610D01*
X80401503Y-82054668D01*
X80260495Y-81870310D01*
X80104317Y-81694421D01*
X79941593Y-81535894D01*
X79780942Y-81403614D01*
X79630987Y-81306471D01*
X79598396Y-81289781D01*
X79494130Y-81249231D01*
X79353748Y-81208173D01*
X79191799Y-81169767D01*
X79022836Y-81137169D01*
X78861409Y-81113537D01*
X78735896Y-81102606D01*
X78536512Y-81101251D01*
X78348831Y-81118896D01*
X78161594Y-81158286D01*
X77963545Y-81222167D01*
X77743425Y-81313287D01*
X77602448Y-81379100D01*
X77333200Y-81522503D01*
X77093184Y-81681706D01*
X76865811Y-81868627D01*
X76700253Y-82027436D01*
X76617377Y-82111274D01*
X76360977Y-82059236D01*
X76104576Y-82007197D01*
X76173549Y-81858863D01*
X76239188Y-81731110D01*
X76328527Y-81576056D01*
X76433594Y-81406119D01*
X76546414Y-81233713D01*
X76659014Y-81071255D01*
X76763421Y-80931162D01*
X76793533Y-80893410D01*
X76907547Y-80764808D01*
X77054110Y-80616798D01*
X77223432Y-80458044D01*
X77405726Y-80297211D01*
X77591202Y-80142967D01*
X77770073Y-80003978D01*
X77914408Y-79901055D01*
X78257938Y-79684214D01*
X78643640Y-79468140D01*
X79063001Y-79257034D01*
X79507508Y-79055100D01*
X79968651Y-78866543D01*
X80143300Y-78800447D01*
X80356361Y-78728448D01*
X80605573Y-78655504D01*
X80876474Y-78585028D01*
G37*
X80876474Y-78585028D02*
X81154601Y-78520440D01*
X81425493Y-78465153D01*
X81674687Y-78422588D01*
X81829667Y-78402054D01*
X82005642Y-78384637D01*
X82201633Y-78368996D01*
X82406869Y-78355648D01*
X82610579Y-78345112D01*
X82801992Y-78337905D01*
X82970337Y-78334543D01*
X83104843Y-78335544D01*
X83160521Y-78338144D01*
X83313518Y-78358923D01*
X83500859Y-78400389D01*
X83712290Y-78458913D01*
X83937555Y-78530865D01*
X84166395Y-78612616D01*
X84388557Y-78700536D01*
X84593782Y-78790995D01*
X84771815Y-78880366D01*
X84890267Y-78950257D01*
X84967357Y-79002180D01*
X85010292Y-79039373D01*
X85028215Y-79073671D01*
X85030268Y-79116910D01*
X85029386Y-79130344D01*
X85009068Y-79218721D01*
X84958590Y-79322897D01*
X84875609Y-79446179D01*
X84757784Y-79591872D01*
X84602773Y-79763282D01*
X84518851Y-79851146D01*
X84334222Y-80043019D01*
X84181032Y-80206206D01*
X84054498Y-80347640D01*
X83949837Y-80474254D01*
X83862264Y-80592980D01*
X83786999Y-80710752D01*
X83719258Y-80834503D01*
X83654259Y-80971163D01*
X83587218Y-81127669D01*
X83515522Y-81305477D01*
X83456650Y-81453755D01*
X83399151Y-81598308D01*
X83347793Y-81727164D01*
X83307347Y-81828347D01*
X83289535Y-81872698D01*
X83240149Y-81985073D01*
X83184500Y-82088219D01*
X83117893Y-82187084D01*
X83035630Y-82286617D01*
X82933018Y-82391768D01*
X82805358Y-82507484D01*
X82647958Y-82638712D01*
X82456121Y-82790402D01*
X82317148Y-82897417D01*
X82078191Y-83083668D01*
X81878921Y-83247336D01*
X81715615Y-83392222D01*
X81584546Y-83522124D01*
X81481992Y-83640843D01*
X81404230Y-83752180D01*
X81347531Y-83859933D01*
X81328798Y-83905851D01*
X81291572Y-84020356D01*
X81280703Y-84102114D01*
X81296299Y-84161871D01*
X81331792Y-84204605D01*
X81370550Y-84231627D01*
X81414952Y-84239063D01*
X81481971Y-84227906D01*
X81527696Y-84216094D01*
X81616322Y-84187894D01*
X81730804Y-84145759D01*
X81850972Y-84097247D01*
X81891572Y-84079751D01*
X81981753Y-84042690D01*
X82109751Y-83993657D01*
X82265097Y-83936479D01*
X82437329Y-83874980D01*
X82615976Y-83812984D01*
X82693921Y-83786533D01*
X82973683Y-83690690D01*
X83211016Y-83605256D01*
X83412444Y-83527068D01*
X83584495Y-83452967D01*
X83733691Y-83379789D01*
X83866559Y-83304372D01*
X83989624Y-83223555D01*
X84109410Y-83134177D01*
X84210635Y-83051545D01*
X84363567Y-82914161D01*
X84492408Y-82777078D01*
X84604079Y-82630168D01*
X84705501Y-82463301D01*
X84803596Y-82266349D01*
X84899417Y-82043605D01*
X85027340Y-81746714D01*
X85148577Y-81499395D01*
X85262989Y-81301907D01*
X85351738Y-81177186D01*
X85399897Y-81124441D01*
X85467887Y-81059059D01*
X85546105Y-80989149D01*
X85624948Y-80922818D01*
X85694813Y-80868173D01*
X85746097Y-80833320D01*
X85768320Y-80825508D01*
X85772954Y-80854208D01*
X85770170Y-80924761D01*
X85761084Y-81028945D01*
X85746808Y-81158533D01*
X85728460Y-81305303D01*
X85707153Y-81461029D01*
X85684002Y-81617488D01*
X85660121Y-81766455D01*
X85636625Y-81899705D01*
X85614631Y-82009016D01*
X85599418Y-82071692D01*
X85538574Y-82257743D01*
X85452475Y-82471975D01*
X85347172Y-82702564D01*
X85228717Y-82937687D01*
X85103163Y-83165519D01*
X84976563Y-83374237D01*
X84854968Y-83552015D01*
X84814652Y-83604817D01*
X84602366Y-83857652D01*
X84359707Y-84119903D01*
X84096353Y-84382566D01*
X83821981Y-84636636D01*
X83546265Y-84873108D01*
X83278885Y-85082977D01*
X83061517Y-85236290D01*
X82980151Y-85287188D01*
X82870770Y-85351434D01*
X82741969Y-85424409D01*
X82602340Y-85501492D01*
X82460477Y-85578065D01*
X82324977Y-85649510D01*
X82204430Y-85711207D01*
X82107433Y-85758536D01*
X82042579Y-85786878D01*
X82028112Y-85791721D01*
X81997810Y-85778821D01*
X81938133Y-85737063D01*
X81856742Y-85672352D01*
X81761304Y-85590599D01*
X81724350Y-85557561D01*
X81613834Y-85459179D01*
X81533012Y-85391694D01*
X81475237Y-85350513D01*
X81433859Y-85331045D01*
X81402225Y-85328693D01*
X81395184Y-85330209D01*
X81347348Y-85357740D01*
X81330869Y-85387725D01*
X81347663Y-85418226D01*
X81398894Y-85479614D01*
X81481440Y-85568569D01*
X81592180Y-85681773D01*
X81727994Y-85815906D01*
X81790079Y-85876062D01*
X82076730Y-86159276D01*
X82328008Y-86421960D01*
X82542284Y-86662271D01*
X82717931Y-86878369D01*
X82853321Y-87068413D01*
X82875353Y-87103020D01*
X82928647Y-87191722D01*
X82970223Y-87270916D01*
X83005335Y-87353718D01*
X83039235Y-87453240D01*
X83077180Y-87582596D01*
X83098903Y-87661076D01*
X83137834Y-87806410D01*
X83163964Y-87914770D01*
X83179079Y-87997840D01*
X83184969Y-88067306D01*
X83183421Y-88134853D01*
X83179083Y-88185130D01*
X83152335Y-88324615D01*
X83103931Y-88464563D01*
X83041015Y-88588276D01*
X82970733Y-88679057D01*
X82965727Y-88683742D01*
X82881246Y-88736136D01*
X82766402Y-88775949D01*
X82641010Y-88798539D01*
X82524882Y-88799265D01*
X82493771Y-88794305D01*
X82368557Y-88757142D01*
X82239332Y-88696989D01*
X82103909Y-88611617D01*
X81960102Y-88498800D01*
X81805726Y-88356313D01*
X81638593Y-88181928D01*
X81456516Y-87973419D01*
X81257313Y-87728560D01*
X81038794Y-87445124D01*
X80798774Y-87120885D01*
X80654483Y-86921113D01*
X80523103Y-86738176D01*
X80417713Y-86592603D01*
X80334922Y-86480311D01*
X80271340Y-86397222D01*
X80223573Y-86339255D01*
X80188234Y-86302334D01*
X80161930Y-86282376D01*
X80141270Y-86275302D01*
X80122863Y-86277033D01*
X80119816Y-86277880D01*
X80094190Y-86305243D01*
X80052037Y-86373643D01*
X79996076Y-86477102D01*
X79929019Y-86609641D01*
X79853584Y-86765281D01*
X79772485Y-86938047D01*
X79688440Y-87121957D01*
X79604163Y-87311035D01*
X79522370Y-87499303D01*
X79445776Y-87680782D01*
X79377099Y-87849493D01*
X79319052Y-87999461D01*
X79274352Y-88124704D01*
X79258642Y-88173604D01*
X79166427Y-88548439D01*
X79122864Y-88910514D01*
X79127886Y-89261455D01*
X79181428Y-89602887D01*
X79196972Y-89666400D01*
X79237027Y-89812759D01*
X79275144Y-89921047D01*
X79319723Y-90002934D01*
X79379161Y-90070085D01*
X79461858Y-90134168D01*
X79576211Y-90206851D01*
X79593613Y-90217402D01*
X79720900Y-90303346D01*
X79799196Y-90378647D01*
X79828775Y-90445043D01*
X79809917Y-90504267D01*
X79742897Y-90558056D01*
X79654415Y-90598483D01*
X79511240Y-90652977D01*
X79189018Y-90460744D01*
X79028587Y-90361155D01*
X78897099Y-90268119D01*
X78789548Y-90174205D01*
X78700927Y-90071986D01*
X78626230Y-89954034D01*
X78560449Y-89812920D01*
X78498579Y-89641214D01*
X78435613Y-89431491D01*
X78394617Y-89282047D01*
X78330331Y-89021251D01*
X78286920Y-88787944D01*
X78264190Y-88569530D01*
X78261952Y-88353410D01*
X78280012Y-88126989D01*
X78318181Y-87877669D01*
X78369427Y-87623933D01*
X78415609Y-87425569D01*
X78467266Y-87231144D01*
X78527321Y-87031767D01*
X78598690Y-86818544D01*
X78684295Y-86582585D01*
X78787056Y-86314999D01*
X78858368Y-86135052D01*
X78931638Y-85948969D01*
X78985592Y-85804853D01*
X79021643Y-85698296D01*
X79041207Y-85624885D01*
X79045699Y-85580211D01*
X79041350Y-85564714D01*
X78998996Y-85532073D01*
X78947766Y-85545244D01*
X78892885Y-85601238D01*
X78850227Y-85674107D01*
X78821100Y-85738073D01*
X78777490Y-85839074D01*
X78723680Y-85966938D01*
X78663955Y-86111493D01*
X78607610Y-86250131D01*
X78430794Y-86717649D01*
X78290556Y-87154327D01*
X78186598Y-87564267D01*
X78118622Y-87951570D01*
X78086332Y-88320342D01*
X78089429Y-88674683D01*
X78127620Y-89018696D01*
X78200604Y-89356484D01*
X78308087Y-89692149D01*
X78350552Y-89801851D01*
X78452361Y-90018720D01*
X78573201Y-90204159D01*
X78720865Y-90366656D01*
X78903147Y-90514700D01*
X79127841Y-90656775D01*
X79143983Y-90665939D01*
X79252077Y-90730122D01*
X79320220Y-90780262D01*
X79354769Y-90823198D01*
X79362082Y-90865771D01*
X79356021Y-90894049D01*
X79323655Y-90919121D01*
X79250362Y-90938196D01*
X79145758Y-90950445D01*
X79019456Y-90955031D01*
X78881064Y-90951122D01*
X78787032Y-90943404D01*
X78660972Y-90924336D01*
X78533054Y-90891811D01*
X78393170Y-90842237D01*
X78231210Y-90772026D01*
X78037062Y-90677585D01*
X78033442Y-90675759D01*
X77917548Y-90613547D01*
X77829127Y-90554412D01*
X77750197Y-90484153D01*
X77662777Y-90388574D01*
X77648044Y-90371438D01*
X77565933Y-90272075D01*
X77508782Y-90191332D01*
X77466200Y-90111345D01*
X77427795Y-90014251D01*
X77409469Y-89961288D01*
X77362331Y-89806161D01*
X77313455Y-89618000D01*
X77265512Y-89409923D01*
X77221178Y-89195049D01*
X77183124Y-88986497D01*
X77154024Y-88797386D01*
X77136552Y-88640833D01*
X77134530Y-88612014D01*
X77131275Y-88167272D01*
X77173163Y-87706542D01*
X77259149Y-87234989D01*
X77388189Y-86757779D01*
X77559237Y-86280074D01*
X77649173Y-86067365D01*
X77714669Y-85912249D01*
X77755320Y-85796925D01*
X77771906Y-85717325D01*
X77765211Y-85669377D01*
X77736015Y-85649014D01*
X77729726Y-85648086D01*
X77677829Y-85659861D01*
X77624539Y-85708938D01*
X77565880Y-85799858D01*
X77522372Y-85884828D01*
X77364780Y-86238990D01*
X77236759Y-86588527D01*
X77132426Y-86951469D01*
X77046312Y-87343676D01*
X76988521Y-87688814D01*
X76953130Y-88012438D01*
X76940663Y-88324695D01*
X76951645Y-88635735D01*
X76986600Y-88955700D01*
X77046054Y-89294739D01*
X77130533Y-89662997D01*
X77175166Y-89834661D01*
X77292144Y-90271310D01*
X77242375Y-90474550D01*
X77207082Y-90705451D01*
X77209885Y-90856736D01*
X77219178Y-90936151D01*
X77232745Y-91004095D01*
X77254995Y-91073188D01*
X77290341Y-91156043D01*
X77343194Y-91265277D01*
X77374616Y-91327888D01*
X77445436Y-91470004D01*
X77494996Y-91575434D01*
X77525953Y-91652305D01*
X77540970Y-91708743D01*
X77542707Y-91752877D01*
X77533824Y-91792836D01*
X77530210Y-91803249D01*
X77508484Y-91843296D01*
X77469684Y-91870793D01*
X77399640Y-91894366D01*
X77366290Y-91902993D01*
X77250689Y-91929173D01*
X77168565Y-91936270D01*
X77104758Y-91919863D01*
X77044105Y-91875532D01*
X76971449Y-91798857D01*
X76958369Y-91784056D01*
X76837718Y-91628566D01*
X76727119Y-91445868D01*
X76624266Y-91230822D01*
X76526858Y-90978285D01*
X76432593Y-90683117D01*
X76377698Y-90487562D01*
X76281594Y-90107428D01*
X76205901Y-89752475D01*
X76150810Y-89415695D01*
X76116517Y-89090081D01*
X76103212Y-88768623D01*
X76111091Y-88444313D01*
X76140347Y-88110143D01*
X76191173Y-87759105D01*
X76263762Y-87384189D01*
X76358308Y-86978389D01*
X76475005Y-86534696D01*
X76488091Y-86487284D01*
X76534550Y-86314711D01*
X76573590Y-86159999D01*
X76603673Y-86029984D01*
X76623262Y-85931512D01*
X76630820Y-85871422D01*
X76629533Y-85857725D01*
X76592860Y-85821882D01*
X76540894Y-85821865D01*
X76491819Y-85855290D01*
X76476949Y-85877729D01*
X76453840Y-85935635D01*
X76421143Y-86035315D01*
X76380910Y-86169092D01*
X76335191Y-86329288D01*
X76286035Y-86508229D01*
X76235493Y-86698238D01*
X76185616Y-86891640D01*
X76138453Y-87080756D01*
X76096054Y-87257914D01*
X76060469Y-87415433D01*
X76039772Y-87514623D01*
X75970433Y-87921025D01*
X75929615Y-88306719D01*
X75916742Y-88687970D01*
X75931230Y-89081043D01*
X75969700Y-89479305D01*
X75988080Y-89591931D01*
X76021289Y-89750391D01*
X76068722Y-89952117D01*
X76129775Y-90194543D01*
X76203845Y-90475102D01*
X76205464Y-90481120D01*
X76277634Y-90744885D01*
X76341105Y-90965587D01*
X76398481Y-91149688D01*
X76452364Y-91303650D01*
X76505357Y-91433937D01*
X76560063Y-91547013D01*
X76619085Y-91649338D01*
X76685024Y-91747379D01*
X76750787Y-91835169D01*
X76824689Y-91933950D01*
X76866646Y-92002226D01*
X76878636Y-92047312D01*
X76862635Y-92076521D01*
X76821494Y-92096860D01*
X76755975Y-92108107D01*
X76664565Y-92110163D01*
X76600387Y-92105852D01*
X76436689Y-92065599D01*
X76264451Y-91982075D01*
X76091538Y-91860089D01*
X75925816Y-91704446D01*
X75903152Y-91679705D01*
X75789791Y-91548398D01*
X75693296Y-91423020D01*
X75610070Y-91295941D01*
X75536518Y-91159532D01*
X75469048Y-91006164D01*
X75404064Y-90828207D01*
X75337970Y-90618030D01*
X75267172Y-90368006D01*
X75242992Y-90278542D01*
X75178063Y-90029114D01*
X75127453Y-89815004D01*
X75089287Y-89623374D01*
X75061695Y-89441393D01*
X75042803Y-89256224D01*
X75030737Y-89055034D01*
X75023626Y-88824988D01*
X75022509Y-88767441D01*
X75025935Y-88306515D01*
X75054826Y-87879402D01*
X75111355Y-87474769D01*
X75197700Y-87081281D01*
X75316036Y-86687604D01*
X75468537Y-86282404D01*
X75525444Y-86147214D01*
X75578227Y-86019832D01*
X75609814Y-85930032D01*
X75622299Y-85870244D01*
X75617768Y-85832901D01*
X75614158Y-85826084D01*
X75576463Y-85795471D01*
X75521220Y-85804745D01*
X75478246Y-85843034D01*
X75425391Y-85924077D01*
X75365113Y-86041348D01*
X75299870Y-86188323D01*
X75232119Y-86358474D01*
X75164320Y-86545278D01*
X75098929Y-86742207D01*
X75038405Y-86942739D01*
X74985206Y-87140347D01*
X74941790Y-87328506D01*
X74935390Y-87359931D01*
X74874828Y-87748848D01*
X74840025Y-88168843D01*
X74830694Y-88607376D01*
X74846544Y-89051910D01*
X74887285Y-89489910D01*
X74952629Y-89908839D01*
X74999330Y-90128188D01*
X75036293Y-90286507D01*
X75062103Y-90403029D01*
X75077720Y-90485291D01*
X75084097Y-90540833D01*
X75082195Y-90577193D01*
X75072971Y-90601910D01*
X75061497Y-90617728D01*
X75022291Y-90657173D01*
X74985726Y-90667950D01*
X74940022Y-90647698D01*
X74873403Y-90594056D01*
X74852978Y-90575937D01*
X74736703Y-90471938D01*
X74569325Y-89738627D01*
X74524739Y-89540381D01*
X74482490Y-89347048D01*
X74444385Y-89167335D01*
X74412235Y-89009945D01*
X74387851Y-88883585D01*
X74373042Y-88796960D01*
X74372019Y-88789821D01*
X74347907Y-88564846D01*
X74339660Y-88341996D01*
X74348199Y-88113828D01*
X74374449Y-87872903D01*
X74419332Y-87611778D01*
X74483771Y-87323012D01*
X74568689Y-86999164D01*
X74613896Y-86839774D01*
X74664803Y-86661779D01*
X74701883Y-86526095D01*
X74726257Y-86426485D01*
X74739048Y-86356709D01*
X74741374Y-86310529D01*
X74734358Y-86281705D01*
X74719119Y-86263999D01*
X74717544Y-86262852D01*
X74682870Y-86244802D01*
X74650771Y-86245081D01*
X74619446Y-86267645D01*
X74587102Y-86316451D01*
X74551940Y-86395455D01*
X74512164Y-86508617D01*
X74465977Y-86659890D01*
X74411583Y-86853235D01*
X74356249Y-87058510D01*
X74288220Y-87323900D01*
X74233700Y-87563361D01*
X74192834Y-87784014D01*
X74165761Y-87992979D01*
X74152628Y-88197377D01*
X74153575Y-88404328D01*
X74168747Y-88620953D01*
X74198286Y-88854372D01*
X74242335Y-89111706D01*
X74301038Y-89400074D01*
X74374537Y-89726599D01*
X74413131Y-89890636D01*
X74462604Y-90102695D01*
X74498982Y-90267672D01*
X74522629Y-90387472D01*
X74533908Y-90463998D01*
X74533180Y-90499155D01*
X74529626Y-90502061D01*
X74471970Y-90478287D01*
X74397127Y-90415231D01*
X74310016Y-90319348D01*
X74215555Y-90197095D01*
X74118667Y-90054925D01*
X74024266Y-89899295D01*
X73937276Y-89736660D01*
X73920904Y-89703246D01*
X73839941Y-89510117D01*
X73766538Y-89287674D01*
X73704804Y-89052418D01*
X73658842Y-88820850D01*
X73632758Y-88609471D01*
X73628674Y-88528819D01*
X73630833Y-88162676D01*
X73655795Y-87810568D01*
X73705476Y-87460704D01*
X73781788Y-87101292D01*
X73886647Y-86720543D01*
X73959555Y-86490564D01*
X74013952Y-86325407D01*
X74066067Y-86166454D01*
X74112662Y-86023636D01*
X74150500Y-85906883D01*
X74176343Y-85826124D01*
X74180271Y-85813615D01*
X74207801Y-85709721D01*
X74223810Y-85604923D01*
X74227805Y-85491126D01*
X74219295Y-85360235D01*
X74197786Y-85204152D01*
X74162786Y-85014783D01*
X74119083Y-84808009D01*
X74070301Y-84579906D01*
X74063169Y-84543119D01*
X77410408Y-83646230D01*
X77467632Y-83823046D01*
X77511810Y-83926287D01*
X77629062Y-84114845D01*
X77779018Y-84268256D01*
X77956455Y-84385163D01*
X78156146Y-84464211D01*
X78372867Y-84504044D01*
X78601392Y-84503306D01*
X78836496Y-84460642D01*
X79072953Y-84374697D01*
X79131338Y-84346457D01*
X79322658Y-84228650D01*
X79496786Y-84082169D01*
X79640467Y-83919062D01*
X79700028Y-83829509D01*
X79788442Y-83645766D01*
X79833628Y-83463748D01*
X79835906Y-83275397D01*
X79795598Y-83072654D01*
X79736983Y-82904737D01*
X79620951Y-82666954D01*
X79480825Y-82472594D01*
X79314063Y-82319075D01*
X79118120Y-82203817D01*
X78999680Y-82156715D01*
X78841421Y-82107773D01*
X78707440Y-82080920D01*
X78580979Y-82075792D01*
X78445279Y-82092025D01*
X78283586Y-82129256D01*
X78242667Y-82140281D01*
X78110932Y-82178024D01*
X78014346Y-82210864D01*
X77938499Y-82245049D01*
X77868978Y-82286825D01*
X77812467Y-82326791D01*
X77642839Y-82472973D01*
X77504125Y-82636441D01*
X77402845Y-82808209D01*
X77348083Y-82966973D01*
X77333892Y-83104546D01*
X77341145Y-83272960D01*
X77367448Y-83458194D01*
X77410408Y-83646230D01*
X74063169Y-84543119D01*
X74033933Y-84392289D01*
X74009506Y-84236505D01*
X73996540Y-84103904D01*
X73994555Y-83985832D01*
X74003076Y-83873641D01*
X74021624Y-83758677D01*
X74049720Y-83632291D01*
X74053319Y-83617543D01*
X74127779Y-83373521D01*
X74226626Y-83160508D01*
X74357162Y-82966617D01*
X74526687Y-82779965D01*
X74622707Y-82690649D01*
X74772175Y-82564971D01*
X74911190Y-82466609D01*
X75051586Y-82390249D01*
X75205199Y-82330575D01*
X75383863Y-82282271D01*
X75599414Y-82240021D01*
X75641983Y-82232824D01*
X75783101Y-82210128D01*
X75888712Y-82196326D01*
X75973310Y-82191329D01*
X76051386Y-82195049D01*
X76137433Y-82207396D01*
X76245944Y-82228280D01*
X76249945Y-82229087D01*
X76514084Y-82282424D01*
X76427768Y-82394362D01*
X76339296Y-82497081D01*
X76244716Y-82577670D01*
X76125968Y-82650505D01*
X76068951Y-82680041D01*
X75980312Y-82732891D01*
X75938270Y-82781843D01*
X75939463Y-82832213D01*
X75955368Y-82859791D01*
X75977850Y-82876660D01*
X76017045Y-82876830D01*
X76084642Y-82859080D01*
X76140430Y-82840451D01*
X76250792Y-82795665D01*
X76347355Y-82739420D01*
X76439144Y-82663994D01*
X76535184Y-82561671D01*
X76644497Y-82424728D01*
X76676949Y-82381502D01*
X76853999Y-82162829D01*
X77039803Y-81974894D01*
X77244503Y-81809635D01*
X77478243Y-81658995D01*
X77751166Y-81514912D01*
X77792628Y-81495020D01*
X78043289Y-81390736D01*
X78282735Y-81324169D01*
X78523294Y-81293885D01*
X78777291Y-81298446D01*
X79057053Y-81336416D01*
X79094126Y-81343377D01*
X79311588Y-81395426D01*
X79498650Y-81464913D01*
X79666913Y-81558681D01*
X79827978Y-81683563D01*
X79993445Y-81846400D01*
X80046765Y-81904891D01*
X80152381Y-82026502D01*
X80236164Y-82133384D01*
X80303867Y-82236426D01*
X80361242Y-82346513D01*
X80414043Y-82474532D01*
X80468023Y-82631369D01*
X80521481Y-82803235D01*
X80569494Y-82961189D01*
X80605688Y-83076919D01*
X80632867Y-83156849D01*
X80653840Y-83207406D01*
X80671411Y-83235012D01*
X80688386Y-83246093D01*
X80707571Y-83247074D01*
X80714967Y-83246264D01*
X80751931Y-83231716D01*
X80772989Y-83195403D01*
X80777974Y-83131995D01*
X80766717Y-83036163D01*
X80739053Y-82902576D01*
X80699156Y-82742479D01*
X80652005Y-82571432D01*
X80609062Y-82438418D01*
X80566014Y-82331390D01*
X80518721Y-82238610D01*
X80401503Y-82054668D01*
X80260495Y-81870310D01*
X80104317Y-81694421D01*
X79941593Y-81535894D01*
X79780942Y-81403614D01*
X79630987Y-81306471D01*
X79598396Y-81289781D01*
X79494130Y-81249231D01*
X79353748Y-81208173D01*
X79191799Y-81169767D01*
X79022836Y-81137169D01*
X78861409Y-81113537D01*
X78735896Y-81102606D01*
X78536512Y-81101251D01*
X78348831Y-81118896D01*
X78161594Y-81158286D01*
X77963545Y-81222167D01*
X77743425Y-81313287D01*
X77602448Y-81379100D01*
X77333200Y-81522503D01*
X77093184Y-81681706D01*
X76865811Y-81868627D01*
X76700253Y-82027436D01*
X76617377Y-82111274D01*
X76360977Y-82059236D01*
X76104576Y-82007197D01*
X76173549Y-81858863D01*
X76239188Y-81731110D01*
X76328527Y-81576056D01*
X76433594Y-81406119D01*
X76546414Y-81233713D01*
X76659014Y-81071255D01*
X76763421Y-80931162D01*
X76793533Y-80893410D01*
X76907547Y-80764808D01*
X77054110Y-80616798D01*
X77223432Y-80458044D01*
X77405726Y-80297211D01*
X77591202Y-80142967D01*
X77770073Y-80003978D01*
X77914408Y-79901055D01*
X78257938Y-79684214D01*
X78643640Y-79468140D01*
X79063001Y-79257034D01*
X79507508Y-79055100D01*
X79968651Y-78866543D01*
X80143300Y-78800447D01*
X80356361Y-78728448D01*
X80605573Y-78655504D01*
X80876474Y-78585028D01*
G36*
X70224805Y-86305119D02*
G01*
X70301286Y-86302851D01*
X70409407Y-86301316D01*
X70539587Y-86300677D01*
X70614925Y-86300759D01*
X70922533Y-86301206D01*
X71187294Y-86299853D01*
X71417157Y-86295793D01*
X71620066Y-86288122D01*
X71803966Y-86275932D01*
X71976805Y-86258318D01*
X72146528Y-86234374D01*
X72321082Y-86203194D01*
X72508413Y-86163872D01*
X72716466Y-86115502D01*
X72953189Y-86057178D01*
X73119529Y-86015191D01*
X73985984Y-85795359D01*
X73866196Y-86152061D01*
X73746407Y-86508763D01*
X73496506Y-86655640D01*
X73246812Y-86798883D01*
X73025452Y-86917101D01*
X72819986Y-87015574D01*
X72617980Y-87099585D01*
X72406998Y-87174417D01*
X72174601Y-87245349D01*
X71985514Y-87297376D01*
X71805573Y-87344196D01*
X71664494Y-87378145D01*
X71552520Y-87401079D01*
X71459893Y-87414849D01*
X71376856Y-87421310D01*
X71327196Y-87422452D01*
X71097460Y-87407556D01*
X70898629Y-87357853D01*
X70725147Y-87269967D01*
X70571463Y-87140517D01*
X70432023Y-86966123D01*
X70345170Y-86824894D01*
X70292113Y-86720196D01*
X70245661Y-86609686D01*
X70208825Y-86503364D01*
X70184616Y-86411225D01*
X70176043Y-86343268D01*
X70186115Y-86309492D01*
X70189544Y-86307958D01*
X70224805Y-86305119D01*
G37*
X70224805Y-86305119D02*
X70301286Y-86302851D01*
X70409407Y-86301316D01*
X70539587Y-86300677D01*
X70614925Y-86300759D01*
X70922533Y-86301206D01*
X71187294Y-86299853D01*
X71417157Y-86295793D01*
X71620066Y-86288122D01*
X71803966Y-86275932D01*
X71976805Y-86258318D01*
X72146528Y-86234374D01*
X72321082Y-86203194D01*
X72508413Y-86163872D01*
X72716466Y-86115502D01*
X72953189Y-86057178D01*
X73119529Y-86015191D01*
X73985984Y-85795359D01*
X73866196Y-86152061D01*
X73746407Y-86508763D01*
X73496506Y-86655640D01*
X73246812Y-86798883D01*
X73025452Y-86917101D01*
X72819986Y-87015574D01*
X72617980Y-87099585D01*
X72406998Y-87174417D01*
X72174601Y-87245349D01*
X71985514Y-87297376D01*
X71805573Y-87344196D01*
X71664494Y-87378145D01*
X71552520Y-87401079D01*
X71459893Y-87414849D01*
X71376856Y-87421310D01*
X71327196Y-87422452D01*
X71097460Y-87407556D01*
X70898629Y-87357853D01*
X70725147Y-87269967D01*
X70571463Y-87140517D01*
X70432023Y-86966123D01*
X70345170Y-86824894D01*
X70292113Y-86720196D01*
X70245661Y-86609686D01*
X70208825Y-86503364D01*
X70184616Y-86411225D01*
X70176043Y-86343268D01*
X70186115Y-86309492D01*
X70189544Y-86307958D01*
X70224805Y-86305119D01*
G36*
X84775439Y-77895436D02*
G01*
X84955244Y-77858966D01*
X85105339Y-77838068D01*
X85174871Y-77834162D01*
X85473337Y-77851940D01*
X85746419Y-77912506D01*
X85997795Y-78017517D01*
X86231149Y-78168622D01*
X86450161Y-78367478D01*
X86511976Y-78434832D01*
X86673221Y-78617316D01*
X86749140Y-78900650D01*
X86781546Y-79024122D01*
X86801482Y-79113392D01*
X86809979Y-79183234D01*
X86808070Y-79248418D01*
X86796786Y-79323717D01*
X86783482Y-79392260D01*
X86726714Y-79618059D01*
X86653176Y-79804017D01*
X86559013Y-79959427D01*
X86535099Y-79990498D01*
X86441784Y-80090813D01*
X86311291Y-80207758D01*
X86151702Y-80334892D01*
X85971095Y-80465769D01*
X85781357Y-80591541D01*
X85573641Y-80730557D01*
X85404883Y-80861953D01*
X85265966Y-80994520D01*
X85147773Y-81137049D01*
X85041187Y-81298332D01*
X85031598Y-81314499D01*
X84963181Y-81439563D01*
X84886835Y-81593199D01*
X84811761Y-81756155D01*
X84747160Y-81909176D01*
X84745692Y-81912875D01*
X84640055Y-82161283D01*
X84534550Y-82368677D01*
X84423092Y-82544463D01*
X84299594Y-82698041D01*
X84157974Y-82838820D01*
X84131340Y-82862435D01*
X83992889Y-82978269D01*
X83857566Y-83079395D01*
X83717851Y-83169611D01*
X83566233Y-83252714D01*
X83395195Y-83332502D01*
X83197220Y-83412771D01*
X82964794Y-83497321D01*
X82693560Y-83588908D01*
X82389372Y-83692741D01*
X82091452Y-83801602D01*
X81814268Y-83910030D01*
X81574495Y-84011577D01*
X81516792Y-84035229D01*
X81493788Y-84034501D01*
X81494369Y-84006955D01*
X81497125Y-83994615D01*
X81532004Y-83904805D01*
X81598890Y-83801194D01*
X81699742Y-83681822D01*
X81836521Y-83544730D01*
X82011186Y-83387960D01*
X82225700Y-83209552D01*
X82482021Y-83007546D01*
X82494125Y-82998212D01*
X82686959Y-82848593D01*
X82843776Y-82724032D01*
X82969641Y-82619711D01*
X83069623Y-82530812D01*
X83148789Y-82452517D01*
X83212205Y-82380004D01*
X83264940Y-82308459D01*
X83312060Y-82233060D01*
X83327872Y-82205389D01*
X83365206Y-82137739D01*
X83398949Y-82073223D01*
X83432242Y-82004647D01*
X83468227Y-81924815D01*
X83510044Y-81826532D01*
X83560837Y-81702603D01*
X83623746Y-81545833D01*
X83701913Y-81349028D01*
X83703152Y-81345901D01*
X83774248Y-81170704D01*
X83840286Y-81020517D01*
X83906349Y-80888019D01*
X83977519Y-80765889D01*
X84058879Y-80646810D01*
X84155511Y-80523461D01*
X84272499Y-80388522D01*
X84414925Y-80234674D01*
X84587871Y-80054598D01*
X84629645Y-80011632D01*
X84782622Y-79853057D01*
X84903414Y-79723440D01*
X84996429Y-79616506D01*
X85066078Y-79525979D01*
X85116770Y-79445586D01*
X85152915Y-79369048D01*
X85178922Y-79290092D01*
X85199201Y-79202442D01*
X85199578Y-79200566D01*
X85219409Y-79088730D01*
X85225522Y-79003281D01*
X85217317Y-78921525D01*
X85194203Y-78820776D01*
X85189112Y-78801495D01*
X85137105Y-78645804D01*
X85075402Y-78527916D01*
X85006865Y-78451496D01*
X84934352Y-78420205D01*
X84894000Y-78423508D01*
X84851559Y-78454697D01*
X84850892Y-78513590D01*
X84891917Y-78599113D01*
X84909869Y-78626254D01*
X84953501Y-78693236D01*
X84983392Y-78746551D01*
X84989833Y-78762388D01*
X84972608Y-78763809D01*
X84919198Y-78743655D01*
X84837598Y-78705430D01*
X84735804Y-78652634D01*
X84721336Y-78644790D01*
X84501721Y-78536721D01*
X84246713Y-78433156D01*
X83950130Y-78331693D01*
X83788178Y-78282140D01*
X83693966Y-78254262D01*
X83974120Y-78141910D01*
X84165266Y-78070712D01*
X84369700Y-78004063D01*
X84576675Y-77944719D01*
X84775439Y-77895436D01*
G37*
X84775439Y-77895436D02*
X84955244Y-77858966D01*
X85105339Y-77838068D01*
X85174871Y-77834162D01*
X85473337Y-77851940D01*
X85746419Y-77912506D01*
X85997795Y-78017517D01*
X86231149Y-78168622D01*
X86450161Y-78367478D01*
X86511976Y-78434832D01*
X86673221Y-78617316D01*
X86749140Y-78900650D01*
X86781546Y-79024122D01*
X86801482Y-79113392D01*
X86809979Y-79183234D01*
X86808070Y-79248418D01*
X86796786Y-79323717D01*
X86783482Y-79392260D01*
X86726714Y-79618059D01*
X86653176Y-79804017D01*
X86559013Y-79959427D01*
X86535099Y-79990498D01*
X86441784Y-80090813D01*
X86311291Y-80207758D01*
X86151702Y-80334892D01*
X85971095Y-80465769D01*
X85781357Y-80591541D01*
X85573641Y-80730557D01*
X85404883Y-80861953D01*
X85265966Y-80994520D01*
X85147773Y-81137049D01*
X85041187Y-81298332D01*
X85031598Y-81314499D01*
X84963181Y-81439563D01*
X84886835Y-81593199D01*
X84811761Y-81756155D01*
X84747160Y-81909176D01*
X84745692Y-81912875D01*
X84640055Y-82161283D01*
X84534550Y-82368677D01*
X84423092Y-82544463D01*
X84299594Y-82698041D01*
X84157974Y-82838820D01*
X84131340Y-82862435D01*
X83992889Y-82978269D01*
X83857566Y-83079395D01*
X83717851Y-83169611D01*
X83566233Y-83252714D01*
X83395195Y-83332502D01*
X83197220Y-83412771D01*
X82964794Y-83497321D01*
X82693560Y-83588908D01*
X82389372Y-83692741D01*
X82091452Y-83801602D01*
X81814268Y-83910030D01*
X81574495Y-84011577D01*
X81516792Y-84035229D01*
X81493788Y-84034501D01*
X81494369Y-84006955D01*
X81497125Y-83994615D01*
X81532004Y-83904805D01*
X81598890Y-83801194D01*
X81699742Y-83681822D01*
X81836521Y-83544730D01*
X82011186Y-83387960D01*
X82225700Y-83209552D01*
X82482021Y-83007546D01*
X82494125Y-82998212D01*
X82686959Y-82848593D01*
X82843776Y-82724032D01*
X82969641Y-82619711D01*
X83069623Y-82530812D01*
X83148789Y-82452517D01*
X83212205Y-82380004D01*
X83264940Y-82308459D01*
X83312060Y-82233060D01*
X83327872Y-82205389D01*
X83365206Y-82137739D01*
X83398949Y-82073223D01*
X83432242Y-82004647D01*
X83468227Y-81924815D01*
X83510044Y-81826532D01*
X83560837Y-81702603D01*
X83623746Y-81545833D01*
X83701913Y-81349028D01*
X83703152Y-81345901D01*
X83774248Y-81170704D01*
X83840286Y-81020517D01*
X83906349Y-80888019D01*
X83977519Y-80765889D01*
X84058879Y-80646810D01*
X84155511Y-80523461D01*
X84272499Y-80388522D01*
X84414925Y-80234674D01*
X84587871Y-80054598D01*
X84629645Y-80011632D01*
X84782622Y-79853057D01*
X84903414Y-79723440D01*
X84996429Y-79616506D01*
X85066078Y-79525979D01*
X85116770Y-79445586D01*
X85152915Y-79369048D01*
X85178922Y-79290092D01*
X85199201Y-79202442D01*
X85199578Y-79200566D01*
X85219409Y-79088730D01*
X85225522Y-79003281D01*
X85217317Y-78921525D01*
X85194203Y-78820776D01*
X85189112Y-78801495D01*
X85137105Y-78645804D01*
X85075402Y-78527916D01*
X85006865Y-78451496D01*
X84934352Y-78420205D01*
X84894000Y-78423508D01*
X84851559Y-78454697D01*
X84850892Y-78513590D01*
X84891917Y-78599113D01*
X84909869Y-78626254D01*
X84953501Y-78693236D01*
X84983392Y-78746551D01*
X84989833Y-78762388D01*
X84972608Y-78763809D01*
X84919198Y-78743655D01*
X84837598Y-78705430D01*
X84735804Y-78652634D01*
X84721336Y-78644790D01*
X84501721Y-78536721D01*
X84246713Y-78433156D01*
X83950130Y-78331693D01*
X83788178Y-78282140D01*
X83693966Y-78254262D01*
X83974120Y-78141910D01*
X84165266Y-78070712D01*
X84369700Y-78004063D01*
X84576675Y-77944719D01*
X84775439Y-77895436D01*
G36*
X78463391Y-82279745D02*
G01*
X78596885Y-82267657D01*
X78727534Y-82279659D01*
X78875060Y-82316407D01*
X78937471Y-82336275D01*
X79132520Y-82426876D01*
X79300894Y-82559478D01*
X79440490Y-82731620D01*
X79549203Y-82940842D01*
X79609739Y-83122619D01*
X79643980Y-83311681D01*
X79638666Y-83481830D01*
X79591452Y-83639709D01*
X79499995Y-83791956D01*
X79361954Y-83945213D01*
X79299119Y-84003046D01*
X79219631Y-84072388D01*
X79157472Y-84121418D01*
X79099304Y-84157072D01*
X79031787Y-84186280D01*
X78941582Y-84215979D01*
X78821468Y-84251327D01*
X78686812Y-84288926D01*
X78587712Y-84312174D01*
X78511634Y-84323081D01*
X78446040Y-84323658D01*
X78399597Y-84318985D01*
X78188859Y-84274931D01*
X78014423Y-84201881D01*
X77868106Y-84095370D01*
X77752697Y-83965865D01*
X77710090Y-83903700D01*
X77675767Y-83838530D01*
X77644614Y-83757693D01*
X77611518Y-83648524D01*
X77585022Y-83550613D01*
X77549631Y-83389277D01*
X77831667Y-83313706D01*
X77861241Y-83401970D01*
X77932094Y-83515648D01*
X77972515Y-83569102D01*
X78078932Y-83675179D01*
X78189853Y-83732771D01*
X78300597Y-83741970D01*
X78406478Y-83702871D01*
X78502814Y-83615567D01*
X78543580Y-83557719D01*
X78589427Y-83483476D01*
X78731171Y-83521782D01*
X78823745Y-83539819D01*
X78908642Y-83544847D01*
X78948115Y-83540154D01*
X79022047Y-83495892D01*
X79081589Y-83412412D01*
X79122637Y-83300243D01*
X79141089Y-83169916D01*
X79136473Y-83056834D01*
X79110394Y-82956180D01*
X79066726Y-82901083D01*
X79010591Y-82891656D01*
X78947108Y-82928017D01*
X78881399Y-83010278D01*
X78858479Y-83050590D01*
X78786919Y-83187073D01*
X78675716Y-83178450D01*
X78533258Y-83182408D01*
X78417477Y-83221907D01*
X78329640Y-83286987D01*
X78248800Y-83362874D01*
X78194482Y-83316628D01*
X78077594Y-83231575D01*
X77979574Y-83190895D01*
X77901828Y-83194861D01*
X77845755Y-83243739D01*
X77842606Y-83248974D01*
X77831667Y-83313706D01*
X77549631Y-83389277D01*
X77538277Y-83337513D01*
X77521596Y-83157710D01*
X77536375Y-83002556D01*
X77584011Y-82863408D01*
X77665903Y-82731621D01*
X77729830Y-82654949D01*
X77860797Y-82528183D01*
X78000959Y-82432579D01*
X78165437Y-82359247D01*
X78307331Y-82315262D01*
X78463391Y-82279745D01*
G37*
X78463391Y-82279745D02*
X78596885Y-82267657D01*
X78727534Y-82279659D01*
X78875060Y-82316407D01*
X78937471Y-82336275D01*
X79132520Y-82426876D01*
X79300894Y-82559478D01*
X79440490Y-82731620D01*
X79549203Y-82940842D01*
X79609739Y-83122619D01*
X79643980Y-83311681D01*
X79638666Y-83481830D01*
X79591452Y-83639709D01*
X79499995Y-83791956D01*
X79361954Y-83945213D01*
X79299119Y-84003046D01*
X79219631Y-84072388D01*
X79157472Y-84121418D01*
X79099304Y-84157072D01*
X79031787Y-84186280D01*
X78941582Y-84215979D01*
X78821468Y-84251327D01*
X78686812Y-84288926D01*
X78587712Y-84312174D01*
X78511634Y-84323081D01*
X78446040Y-84323658D01*
X78399597Y-84318985D01*
X78188859Y-84274931D01*
X78014423Y-84201881D01*
X77868106Y-84095370D01*
X77752697Y-83965865D01*
X77710090Y-83903700D01*
X77675767Y-83838530D01*
X77644614Y-83757693D01*
X77611518Y-83648524D01*
X77585022Y-83550613D01*
X77549631Y-83389277D01*
X77831667Y-83313706D01*
X77861241Y-83401970D01*
X77932094Y-83515648D01*
X77972515Y-83569102D01*
X78078932Y-83675179D01*
X78189853Y-83732771D01*
X78300597Y-83741970D01*
X78406478Y-83702871D01*
X78502814Y-83615567D01*
X78543580Y-83557719D01*
X78589427Y-83483476D01*
X78731171Y-83521782D01*
X78823745Y-83539819D01*
X78908642Y-83544847D01*
X78948115Y-83540154D01*
X79022047Y-83495892D01*
X79081589Y-83412412D01*
X79122637Y-83300243D01*
X79141089Y-83169916D01*
X79136473Y-83056834D01*
X79110394Y-82956180D01*
X79066726Y-82901083D01*
X79010591Y-82891656D01*
X78947108Y-82928017D01*
X78881399Y-83010278D01*
X78858479Y-83050590D01*
X78786919Y-83187073D01*
X78675716Y-83178450D01*
X78533258Y-83182408D01*
X78417477Y-83221907D01*
X78329640Y-83286987D01*
X78248800Y-83362874D01*
X78194482Y-83316628D01*
X78077594Y-83231575D01*
X77979574Y-83190895D01*
X77901828Y-83194861D01*
X77845755Y-83243739D01*
X77842606Y-83248974D01*
X77831667Y-83313706D01*
X77549631Y-83389277D01*
X77538277Y-83337513D01*
X77521596Y-83157710D01*
X77536375Y-83002556D01*
X77584011Y-82863408D01*
X77665903Y-82731621D01*
X77729830Y-82654949D01*
X77860797Y-82528183D01*
X78000959Y-82432579D01*
X78165437Y-82359247D01*
X78307331Y-82315262D01*
X78463391Y-82279745D01*
%TD*%
D11*
%TO.C,REF\u002A\u002A*%
X134721706Y-96449587D03*
X135821706Y-101049587D03*
X139821706Y-101049587D03*
X142821706Y-101049587D03*
X134721706Y-101049587D03*
X135821706Y-96449587D03*
X139821706Y-96449587D03*
X142821706Y-96449587D03*
D12*
X137421706Y-98749587D03*
X137421706Y-98749587D03*
X144421706Y-98749587D03*
%TD*%
%TO.C,*%
G36*
G01*
X143581880Y-63995413D02*
X145334480Y-63995413D01*
G75*
G02*
X145384480Y-64045413I0J-50000D01*
G01*
X145384480Y-65798013D01*
G75*
G02*
X145334480Y-65848013I-50000J0D01*
G01*
X143581880Y-65848013D01*
G75*
G02*
X143531880Y-65798013I0J50000D01*
G01*
X143531880Y-64045413D01*
G75*
G02*
X143581880Y-63995413I50000J0D01*
G01*
G37*
D13*
X144458180Y-67461713D03*
X144458180Y-70001713D03*
X144458180Y-72541713D03*
X144458180Y-75081713D03*
X144458180Y-77621713D03*
X144458180Y-80161713D03*
X144458180Y-82701713D03*
X144458180Y-85241713D03*
X144458180Y-87781713D03*
X144458180Y-90321713D03*
X144458180Y-92861713D03*
X129218180Y-64921713D03*
X129218180Y-67461713D03*
X129218180Y-70001713D03*
X129218180Y-72541713D03*
X129218180Y-75081713D03*
X129218180Y-77621713D03*
X129218180Y-80161713D03*
X129218180Y-82701713D03*
X129218180Y-85241713D03*
X129218180Y-87781713D03*
X129218180Y-90321713D03*
X129218180Y-92861713D03*
%TD*%
D14*
%TO.C,S1*%
X41292162Y-103164571D03*
X51917346Y-100317561D03*
D15*
X50463812Y-96824749D03*
D16*
X46604754Y-101741066D03*
D15*
X45064781Y-95993807D03*
G36*
G01*
X40933839Y-98446549D02*
X40260910Y-95935142D01*
G75*
G02*
X40296265Y-95873905I48296J12941D01*
G01*
X42807672Y-95200976D01*
G75*
G02*
X42868909Y-95236331I12941J-48296D01*
G01*
X43541838Y-97747738D01*
G75*
G02*
X43506483Y-97808975I-48296J-12941D01*
G01*
X40995076Y-98481904D01*
G75*
G02*
X40933839Y-98446549I-12941J48296D01*
G01*
G37*
G36*
G01*
X52659684Y-97582226D02*
X51986755Y-95070819D01*
G75*
G02*
X52022110Y-95009582I48296J12941D01*
G01*
X54533517Y-94336653D01*
G75*
G02*
X54594754Y-94372008I12941J-48296D01*
G01*
X55267683Y-96883415D01*
G75*
G02*
X55232328Y-96944652I-48296J-12941D01*
G01*
X52720921Y-97617581D01*
G75*
G02*
X52659684Y-97582226I-12941J48296D01*
G01*
G37*
X40804553Y-99412939D03*
%TD*%
D14*
%TO.C,S2*%
X36892238Y-86743832D03*
X47517422Y-83896822D03*
D15*
X46063888Y-80404010D03*
D16*
X42204830Y-85320327D03*
D15*
X40664857Y-79573068D03*
G36*
G01*
X36533915Y-82025810D02*
X35860986Y-79514403D01*
G75*
G02*
X35896341Y-79453166I48296J12941D01*
G01*
X38407748Y-78780237D01*
G75*
G02*
X38468985Y-78815592I12941J-48296D01*
G01*
X39141914Y-81326999D01*
G75*
G02*
X39106559Y-81388236I-48296J-12941D01*
G01*
X36595152Y-82061165D01*
G75*
G02*
X36533915Y-82025810I-12941J48296D01*
G01*
G37*
G36*
G01*
X48259760Y-81161487D02*
X47586831Y-78650080D01*
G75*
G02*
X47622186Y-78588843I48296J12941D01*
G01*
X50133593Y-77915914D01*
G75*
G02*
X50194830Y-77951269I12941J-48296D01*
G01*
X50867759Y-80462676D01*
G75*
G02*
X50832404Y-80523913I-48296J-12941D01*
G01*
X48320997Y-81196842D01*
G75*
G02*
X48259760Y-81161487I-12941J48296D01*
G01*
G37*
X36404629Y-82992200D03*
%TD*%
D14*
%TO.C,S3*%
X57338180Y-75391713D03*
X68338180Y-75391713D03*
D15*
X67838180Y-71641713D03*
D16*
X62838180Y-75391713D03*
D15*
X62838180Y-69441713D03*
G36*
G01*
X58213180Y-70741713D02*
X58213180Y-68141713D01*
G75*
G02*
X58263180Y-68091713I50000J0D01*
G01*
X60863180Y-68091713D01*
G75*
G02*
X60913180Y-68141713I0J-50000D01*
G01*
X60913180Y-70741713D01*
G75*
G02*
X60863180Y-70791713I-50000J0D01*
G01*
X58263180Y-70791713D01*
G75*
G02*
X58213180Y-70741713I0J50000D01*
G01*
G37*
G36*
G01*
X69763180Y-72941713D02*
X69763180Y-70341713D01*
G75*
G02*
X69813180Y-70291713I50000J0D01*
G01*
X72413180Y-70291713D01*
G75*
G02*
X72463180Y-70341713I0J-50000D01*
G01*
X72463180Y-72941713D01*
G75*
G02*
X72413180Y-72991713I-50000J0D01*
G01*
X69813180Y-72991713D01*
G75*
G02*
X69763180Y-72941713I0J50000D01*
G01*
G37*
X57838180Y-71641713D03*
%TD*%
D14*
%TO.C,S4*%
X57338180Y-58391713D03*
X68338180Y-58391713D03*
D15*
X67838180Y-54641713D03*
D16*
X62838180Y-58391713D03*
D15*
X62838180Y-52441713D03*
G36*
G01*
X58213180Y-53741713D02*
X58213180Y-51141713D01*
G75*
G02*
X58263180Y-51091713I50000J0D01*
G01*
X60863180Y-51091713D01*
G75*
G02*
X60913180Y-51141713I0J-50000D01*
G01*
X60913180Y-53741713D01*
G75*
G02*
X60863180Y-53791713I-50000J0D01*
G01*
X58263180Y-53791713D01*
G75*
G02*
X58213180Y-53741713I0J50000D01*
G01*
G37*
G36*
G01*
X69763180Y-55941713D02*
X69763180Y-53341713D01*
G75*
G02*
X69813180Y-53291713I50000J0D01*
G01*
X72413180Y-53291713D01*
G75*
G02*
X72463180Y-53341713I0J-50000D01*
G01*
X72463180Y-55941713D01*
G75*
G02*
X72413180Y-55991713I-50000J0D01*
G01*
X69813180Y-55991713D01*
G75*
G02*
X69763180Y-55941713I0J50000D01*
G01*
G37*
X57838180Y-54641713D03*
%TD*%
D14*
%TO.C,S5*%
X57338180Y-41391713D03*
X68338180Y-41391713D03*
D15*
X67838180Y-37641713D03*
D16*
X62838180Y-41391713D03*
D15*
X62838180Y-35441713D03*
G36*
G01*
X58213180Y-36741713D02*
X58213180Y-34141713D01*
G75*
G02*
X58263180Y-34091713I50000J0D01*
G01*
X60863180Y-34091713D01*
G75*
G02*
X60913180Y-34141713I0J-50000D01*
G01*
X60913180Y-36741713D01*
G75*
G02*
X60863180Y-36791713I-50000J0D01*
G01*
X58263180Y-36791713D01*
G75*
G02*
X58213180Y-36741713I0J50000D01*
G01*
G37*
G36*
G01*
X69763180Y-38941713D02*
X69763180Y-36341713D01*
G75*
G02*
X69813180Y-36291713I50000J0D01*
G01*
X72413180Y-36291713D01*
G75*
G02*
X72463180Y-36341713I0J-50000D01*
G01*
X72463180Y-38941713D01*
G75*
G02*
X72413180Y-38991713I-50000J0D01*
G01*
X69813180Y-38991713D01*
G75*
G02*
X69763180Y-38941713I0J50000D01*
G01*
G37*
X57838180Y-37641713D03*
%TD*%
D14*
%TO.C,S6*%
X75338180Y-66891713D03*
X86338180Y-66891713D03*
D15*
X85838180Y-63141713D03*
D16*
X80838180Y-66891713D03*
D15*
X80838180Y-60941713D03*
G36*
G01*
X76213180Y-62241713D02*
X76213180Y-59641713D01*
G75*
G02*
X76263180Y-59591713I50000J0D01*
G01*
X78863180Y-59591713D01*
G75*
G02*
X78913180Y-59641713I0J-50000D01*
G01*
X78913180Y-62241713D01*
G75*
G02*
X78863180Y-62291713I-50000J0D01*
G01*
X76263180Y-62291713D01*
G75*
G02*
X76213180Y-62241713I0J50000D01*
G01*
G37*
G36*
G01*
X87763180Y-64441713D02*
X87763180Y-61841713D01*
G75*
G02*
X87813180Y-61791713I50000J0D01*
G01*
X90413180Y-61791713D01*
G75*
G02*
X90463180Y-61841713I0J-50000D01*
G01*
X90463180Y-64441713D01*
G75*
G02*
X90413180Y-64491713I-50000J0D01*
G01*
X87813180Y-64491713D01*
G75*
G02*
X87763180Y-64441713I0J50000D01*
G01*
G37*
X75838180Y-63141713D03*
%TD*%
D14*
%TO.C,S7*%
X75338180Y-49891713D03*
X86338180Y-49891713D03*
D15*
X85838180Y-46141713D03*
D16*
X80838180Y-49891713D03*
D15*
X80838180Y-43941713D03*
G36*
G01*
X76213180Y-45241713D02*
X76213180Y-42641713D01*
G75*
G02*
X76263180Y-42591713I50000J0D01*
G01*
X78863180Y-42591713D01*
G75*
G02*
X78913180Y-42641713I0J-50000D01*
G01*
X78913180Y-45241713D01*
G75*
G02*
X78863180Y-45291713I-50000J0D01*
G01*
X76263180Y-45291713D01*
G75*
G02*
X76213180Y-45241713I0J50000D01*
G01*
G37*
G36*
G01*
X87763180Y-47441713D02*
X87763180Y-44841713D01*
G75*
G02*
X87813180Y-44791713I50000J0D01*
G01*
X90413180Y-44791713D01*
G75*
G02*
X90463180Y-44841713I0J-50000D01*
G01*
X90463180Y-47441713D01*
G75*
G02*
X90413180Y-47491713I-50000J0D01*
G01*
X87813180Y-47491713D01*
G75*
G02*
X87763180Y-47441713I0J50000D01*
G01*
G37*
X75838180Y-46141713D03*
%TD*%
D14*
%TO.C,S8*%
X75338180Y-32891713D03*
X86338180Y-32891713D03*
D15*
X85838180Y-29141713D03*
D16*
X80838180Y-32891713D03*
D15*
X80838180Y-26941713D03*
G36*
G01*
X76213180Y-28241713D02*
X76213180Y-25641713D01*
G75*
G02*
X76263180Y-25591713I50000J0D01*
G01*
X78863180Y-25591713D01*
G75*
G02*
X78913180Y-25641713I0J-50000D01*
G01*
X78913180Y-28241713D01*
G75*
G02*
X78863180Y-28291713I-50000J0D01*
G01*
X76263180Y-28291713D01*
G75*
G02*
X76213180Y-28241713I0J50000D01*
G01*
G37*
G36*
G01*
X87763180Y-30441713D02*
X87763180Y-27841713D01*
G75*
G02*
X87813180Y-27791713I50000J0D01*
G01*
X90413180Y-27791713D01*
G75*
G02*
X90463180Y-27841713I0J-50000D01*
G01*
X90463180Y-30441713D01*
G75*
G02*
X90413180Y-30491713I-50000J0D01*
G01*
X87813180Y-30491713D01*
G75*
G02*
X87763180Y-30441713I0J50000D01*
G01*
G37*
X75838180Y-29141713D03*
%TD*%
D14*
%TO.C,S9*%
X93338180Y-75391713D03*
X104338180Y-75391713D03*
D15*
X103838180Y-71641713D03*
D16*
X98838180Y-75391713D03*
D15*
X98838180Y-69441713D03*
G36*
G01*
X94213180Y-70741713D02*
X94213180Y-68141713D01*
G75*
G02*
X94263180Y-68091713I50000J0D01*
G01*
X96863180Y-68091713D01*
G75*
G02*
X96913180Y-68141713I0J-50000D01*
G01*
X96913180Y-70741713D01*
G75*
G02*
X96863180Y-70791713I-50000J0D01*
G01*
X94263180Y-70791713D01*
G75*
G02*
X94213180Y-70741713I0J50000D01*
G01*
G37*
G36*
G01*
X105763180Y-72941713D02*
X105763180Y-70341713D01*
G75*
G02*
X105813180Y-70291713I50000J0D01*
G01*
X108413180Y-70291713D01*
G75*
G02*
X108463180Y-70341713I0J-50000D01*
G01*
X108463180Y-72941713D01*
G75*
G02*
X108413180Y-72991713I-50000J0D01*
G01*
X105813180Y-72991713D01*
G75*
G02*
X105763180Y-72941713I0J50000D01*
G01*
G37*
X93838180Y-71641713D03*
%TD*%
D14*
%TO.C,S10*%
X93338180Y-58391713D03*
X104338180Y-58391713D03*
D15*
X103838180Y-54641713D03*
D16*
X98838180Y-58391713D03*
D15*
X98838180Y-52441713D03*
G36*
G01*
X94213180Y-53741713D02*
X94213180Y-51141713D01*
G75*
G02*
X94263180Y-51091713I50000J0D01*
G01*
X96863180Y-51091713D01*
G75*
G02*
X96913180Y-51141713I0J-50000D01*
G01*
X96913180Y-53741713D01*
G75*
G02*
X96863180Y-53791713I-50000J0D01*
G01*
X94263180Y-53791713D01*
G75*
G02*
X94213180Y-53741713I0J50000D01*
G01*
G37*
G36*
G01*
X105763180Y-55941713D02*
X105763180Y-53341713D01*
G75*
G02*
X105813180Y-53291713I50000J0D01*
G01*
X108413180Y-53291713D01*
G75*
G02*
X108463180Y-53341713I0J-50000D01*
G01*
X108463180Y-55941713D01*
G75*
G02*
X108413180Y-55991713I-50000J0D01*
G01*
X105813180Y-55991713D01*
G75*
G02*
X105763180Y-55941713I0J50000D01*
G01*
G37*
X93838180Y-54641713D03*
%TD*%
D14*
%TO.C,S11*%
X93338180Y-41391713D03*
X104338180Y-41391713D03*
D15*
X103838180Y-37641713D03*
D16*
X98838180Y-41391713D03*
D15*
X98838180Y-35441713D03*
G36*
G01*
X94213180Y-36741713D02*
X94213180Y-34141713D01*
G75*
G02*
X94263180Y-34091713I50000J0D01*
G01*
X96863180Y-34091713D01*
G75*
G02*
X96913180Y-34141713I0J-50000D01*
G01*
X96913180Y-36741713D01*
G75*
G02*
X96863180Y-36791713I-50000J0D01*
G01*
X94263180Y-36791713D01*
G75*
G02*
X94213180Y-36741713I0J50000D01*
G01*
G37*
G36*
G01*
X105763180Y-38941713D02*
X105763180Y-36341713D01*
G75*
G02*
X105813180Y-36291713I50000J0D01*
G01*
X108413180Y-36291713D01*
G75*
G02*
X108463180Y-36341713I0J-50000D01*
G01*
X108463180Y-38941713D01*
G75*
G02*
X108413180Y-38991713I-50000J0D01*
G01*
X105813180Y-38991713D01*
G75*
G02*
X105763180Y-38941713I0J50000D01*
G01*
G37*
X93838180Y-37641713D03*
%TD*%
D14*
%TO.C,S12*%
X111338180Y-83891713D03*
X122338180Y-83891713D03*
D15*
X121838180Y-80141713D03*
D16*
X116838180Y-83891713D03*
D15*
X116838180Y-77941713D03*
G36*
G01*
X112213180Y-79241713D02*
X112213180Y-76641713D01*
G75*
G02*
X112263180Y-76591713I50000J0D01*
G01*
X114863180Y-76591713D01*
G75*
G02*
X114913180Y-76641713I0J-50000D01*
G01*
X114913180Y-79241713D01*
G75*
G02*
X114863180Y-79291713I-50000J0D01*
G01*
X112263180Y-79291713D01*
G75*
G02*
X112213180Y-79241713I0J50000D01*
G01*
G37*
G36*
G01*
X123763180Y-81441713D02*
X123763180Y-78841713D01*
G75*
G02*
X123813180Y-78791713I50000J0D01*
G01*
X126413180Y-78791713D01*
G75*
G02*
X126463180Y-78841713I0J-50000D01*
G01*
X126463180Y-81441713D01*
G75*
G02*
X126413180Y-81491713I-50000J0D01*
G01*
X123813180Y-81491713D01*
G75*
G02*
X123763180Y-81441713I0J50000D01*
G01*
G37*
X111838180Y-80141713D03*
%TD*%
D14*
%TO.C,S13*%
X111338180Y-66891713D03*
X122338180Y-66891713D03*
D15*
X121838180Y-63141713D03*
D16*
X116838180Y-66891713D03*
D15*
X116838180Y-60941713D03*
G36*
G01*
X112213180Y-62241713D02*
X112213180Y-59641713D01*
G75*
G02*
X112263180Y-59591713I50000J0D01*
G01*
X114863180Y-59591713D01*
G75*
G02*
X114913180Y-59641713I0J-50000D01*
G01*
X114913180Y-62241713D01*
G75*
G02*
X114863180Y-62291713I-50000J0D01*
G01*
X112263180Y-62291713D01*
G75*
G02*
X112213180Y-62241713I0J50000D01*
G01*
G37*
G36*
G01*
X123763180Y-64441713D02*
X123763180Y-61841713D01*
G75*
G02*
X123813180Y-61791713I50000J0D01*
G01*
X126413180Y-61791713D01*
G75*
G02*
X126463180Y-61841713I0J-50000D01*
G01*
X126463180Y-64441713D01*
G75*
G02*
X126413180Y-64491713I-50000J0D01*
G01*
X123813180Y-64491713D01*
G75*
G02*
X123763180Y-64441713I0J50000D01*
G01*
G37*
X111838180Y-63141713D03*
%TD*%
D14*
%TO.C,S14*%
X111338180Y-49891713D03*
X122338180Y-49891713D03*
D15*
X121838180Y-46141713D03*
D16*
X116838180Y-49891713D03*
D15*
X116838180Y-43941713D03*
G36*
G01*
X112213180Y-45241713D02*
X112213180Y-42641713D01*
G75*
G02*
X112263180Y-42591713I50000J0D01*
G01*
X114863180Y-42591713D01*
G75*
G02*
X114913180Y-42641713I0J-50000D01*
G01*
X114913180Y-45241713D01*
G75*
G02*
X114863180Y-45291713I-50000J0D01*
G01*
X112263180Y-45291713D01*
G75*
G02*
X112213180Y-45241713I0J50000D01*
G01*
G37*
G36*
G01*
X123763180Y-47441713D02*
X123763180Y-44841713D01*
G75*
G02*
X123813180Y-44791713I50000J0D01*
G01*
X126413180Y-44791713D01*
G75*
G02*
X126463180Y-44841713I0J-50000D01*
G01*
X126463180Y-47441713D01*
G75*
G02*
X126413180Y-47491713I-50000J0D01*
G01*
X123813180Y-47491713D01*
G75*
G02*
X123763180Y-47441713I0J50000D01*
G01*
G37*
X111838180Y-46141713D03*
%TD*%
D14*
%TO.C,S15*%
X98025588Y-103718208D03*
X108650772Y-106565218D03*
D15*
X109138381Y-102813586D03*
D16*
X103338180Y-105141713D03*
D15*
X104878153Y-99394454D03*
G36*
G01*
X100074282Y-99453120D02*
X100747211Y-96941713D01*
G75*
G02*
X100808448Y-96906358I48296J-12941D01*
G01*
X103319855Y-97579287D01*
G75*
G02*
X103355210Y-97640524I-12941J-48296D01*
G01*
X102682281Y-100151931D01*
G75*
G02*
X102621044Y-100187286I-48296J12941D01*
G01*
X100109637Y-99514357D01*
G75*
G02*
X100074282Y-99453120I12941J48296D01*
G01*
G37*
G36*
G01*
X110661324Y-104567517D02*
X111334253Y-102056110D01*
G75*
G02*
X111395490Y-102020755I48296J-12941D01*
G01*
X113906897Y-102693684D01*
G75*
G02*
X113942252Y-102754921I-12941J-48296D01*
G01*
X113269323Y-105266328D01*
G75*
G02*
X113208086Y-105301683I-48296J12941D01*
G01*
X110696679Y-104628754D01*
G75*
G02*
X110661324Y-104567517I12941J48296D01*
G01*
G37*
X99479122Y-100225396D03*
%TD*%
D14*
%TO.C,S16*%
X115412253Y-108376951D03*
X126037437Y-111223961D03*
D15*
X126525046Y-107472329D03*
D16*
X120724845Y-109800456D03*
D15*
X122264818Y-104053197D03*
G36*
G01*
X117460947Y-104111863D02*
X118133876Y-101600456D01*
G75*
G02*
X118195113Y-101565101I48296J-12941D01*
G01*
X120706520Y-102238030D01*
G75*
G02*
X120741875Y-102299267I-12941J-48296D01*
G01*
X120068946Y-104810674D01*
G75*
G02*
X120007709Y-104846029I-48296J12941D01*
G01*
X117496302Y-104173100D01*
G75*
G02*
X117460947Y-104111863I12941J48296D01*
G01*
G37*
G36*
G01*
X128047989Y-109226260D02*
X128720918Y-106714853D01*
G75*
G02*
X128782155Y-106679498I48296J-12941D01*
G01*
X131293562Y-107352427D01*
G75*
G02*
X131328917Y-107413664I-12941J-48296D01*
G01*
X130655988Y-109925071D01*
G75*
G02*
X130594751Y-109960426I-48296J12941D01*
G01*
X128083344Y-109287497D01*
G75*
G02*
X128047989Y-109226260I12941J48296D01*
G01*
G37*
X116865787Y-104884139D03*
%TD*%
D14*
%TO.C,S17*%
X132798918Y-113035694D03*
X143424102Y-115882704D03*
D15*
X143911711Y-112131072D03*
D16*
X138111510Y-114459199D03*
D15*
X139651483Y-108711940D03*
G36*
G01*
X134847612Y-108770606D02*
X135520541Y-106259199D01*
G75*
G02*
X135581778Y-106223844I48296J-12941D01*
G01*
X138093185Y-106896773D01*
G75*
G02*
X138128540Y-106958010I-12941J-48296D01*
G01*
X137455611Y-109469417D01*
G75*
G02*
X137394374Y-109504772I-48296J12941D01*
G01*
X134882967Y-108831843D01*
G75*
G02*
X134847612Y-108770606I12941J48296D01*
G01*
G37*
G36*
G01*
X145434654Y-113885003D02*
X146107583Y-111373596D01*
G75*
G02*
X146168820Y-111338241I48296J-12941D01*
G01*
X148680227Y-112011170D01*
G75*
G02*
X148715582Y-112072407I-12941J-48296D01*
G01*
X148042653Y-114583814D01*
G75*
G02*
X147981416Y-114619169I-48296J12941D01*
G01*
X145470009Y-113946240D01*
G75*
G02*
X145434654Y-113885003I12941J48296D01*
G01*
G37*
X134252452Y-109542882D03*
%TD*%
M02*
