%TF.GenerationSoftware,KiCad,Pcbnew,(5.1.9)-1*%
%TF.CreationDate,2021-04-26T15:19:46+02:00*%
%TF.ProjectId,sepia,73657069-612e-46b6-9963-61645f706362,VERSION_HERE*%
%TF.SameCoordinates,Original*%
%TF.FileFunction,Copper,L1,Top*%
%TF.FilePolarity,Positive*%
%FSLAX46Y46*%
G04 Gerber Fmt 4.6, Leading zero omitted, Abs format (unit mm)*
G04 Created by KiCad (PCBNEW (5.1.9)-1) date 2021-04-26 15:19:46*
%MOMM*%
%LPD*%
G01*
G04 APERTURE LIST*
%TA.AperFunction,EtchedComponent*%
%ADD10C,0.010000*%
%TD*%
%TA.AperFunction,ComponentPad*%
%ADD11O,2.200000X1.600000*%
%TD*%
%TA.AperFunction,ComponentPad*%
%ADD12R,1.752600X1.752600*%
%TD*%
%TA.AperFunction,ComponentPad*%
%ADD13C,1.752600*%
%TD*%
%TA.AperFunction,SMDPad,CuDef*%
%ADD14C,0.150000*%
%TD*%
%TA.AperFunction,ComponentPad*%
%ADD15C,0.600000*%
%TD*%
%TA.AperFunction,SMDPad,CuDef*%
%ADD16R,2.600000X2.600000*%
%TD*%
%TA.AperFunction,Conductor*%
%ADD17C,0.250000*%
%TD*%
G04 APERTURE END LIST*
D10*
%TO.C,G\u002A\u002A\u002A*%
G36*
X80876474Y-78585028D02*
G01*
X81154601Y-78520440D01*
X81425493Y-78465153D01*
X81674687Y-78422588D01*
X81829667Y-78402054D01*
X82005642Y-78384637D01*
X82201633Y-78368996D01*
X82406869Y-78355648D01*
X82610579Y-78345112D01*
X82801992Y-78337905D01*
X82970337Y-78334543D01*
X83104843Y-78335544D01*
X83160521Y-78338144D01*
X83313518Y-78358923D01*
X83500859Y-78400389D01*
X83712290Y-78458913D01*
X83937555Y-78530865D01*
X84166395Y-78612616D01*
X84388557Y-78700536D01*
X84593782Y-78790995D01*
X84771815Y-78880366D01*
X84890267Y-78950257D01*
X84967357Y-79002180D01*
X85010292Y-79039373D01*
X85028215Y-79073671D01*
X85030268Y-79116910D01*
X85029386Y-79130344D01*
X85009068Y-79218721D01*
X84958590Y-79322897D01*
X84875609Y-79446179D01*
X84757784Y-79591872D01*
X84602773Y-79763282D01*
X84518851Y-79851146D01*
X84334222Y-80043019D01*
X84181032Y-80206206D01*
X84054498Y-80347640D01*
X83949837Y-80474254D01*
X83862264Y-80592980D01*
X83786999Y-80710752D01*
X83719258Y-80834503D01*
X83654259Y-80971163D01*
X83587218Y-81127669D01*
X83515522Y-81305477D01*
X83456650Y-81453755D01*
X83399151Y-81598308D01*
X83347793Y-81727164D01*
X83307347Y-81828347D01*
X83289535Y-81872698D01*
X83240149Y-81985073D01*
X83184500Y-82088219D01*
X83117893Y-82187084D01*
X83035630Y-82286617D01*
X82933018Y-82391768D01*
X82805358Y-82507484D01*
X82647958Y-82638712D01*
X82456121Y-82790402D01*
X82317148Y-82897417D01*
X82078191Y-83083668D01*
X81878921Y-83247336D01*
X81715615Y-83392222D01*
X81584546Y-83522124D01*
X81481992Y-83640843D01*
X81404230Y-83752180D01*
X81347531Y-83859933D01*
X81328798Y-83905851D01*
X81291572Y-84020356D01*
X81280703Y-84102114D01*
X81296299Y-84161871D01*
X81331792Y-84204605D01*
X81370550Y-84231627D01*
X81414952Y-84239063D01*
X81481971Y-84227906D01*
X81527696Y-84216094D01*
X81616322Y-84187894D01*
X81730804Y-84145759D01*
X81850972Y-84097247D01*
X81891572Y-84079751D01*
X81981753Y-84042690D01*
X82109751Y-83993657D01*
X82265097Y-83936479D01*
X82437329Y-83874980D01*
X82615976Y-83812984D01*
X82693921Y-83786533D01*
X82973683Y-83690690D01*
X83211016Y-83605256D01*
X83412444Y-83527068D01*
X83584495Y-83452967D01*
X83733691Y-83379789D01*
X83866559Y-83304372D01*
X83989624Y-83223555D01*
X84109410Y-83134177D01*
X84210635Y-83051545D01*
X84363567Y-82914161D01*
X84492408Y-82777078D01*
X84604079Y-82630168D01*
X84705501Y-82463301D01*
X84803596Y-82266349D01*
X84899417Y-82043605D01*
X85027340Y-81746714D01*
X85148577Y-81499395D01*
X85262989Y-81301907D01*
X85351738Y-81177186D01*
X85399897Y-81124441D01*
X85467887Y-81059059D01*
X85546105Y-80989149D01*
X85624948Y-80922818D01*
X85694813Y-80868173D01*
X85746097Y-80833320D01*
X85768320Y-80825508D01*
X85772954Y-80854208D01*
X85770170Y-80924761D01*
X85761084Y-81028945D01*
X85746808Y-81158533D01*
X85728460Y-81305303D01*
X85707153Y-81461029D01*
X85684002Y-81617488D01*
X85660121Y-81766455D01*
X85636625Y-81899705D01*
X85614631Y-82009016D01*
X85599418Y-82071692D01*
X85538574Y-82257743D01*
X85452475Y-82471975D01*
X85347172Y-82702564D01*
X85228717Y-82937687D01*
X85103163Y-83165519D01*
X84976563Y-83374237D01*
X84854968Y-83552015D01*
X84814652Y-83604817D01*
X84602366Y-83857652D01*
X84359707Y-84119903D01*
X84096353Y-84382566D01*
X83821981Y-84636636D01*
X83546265Y-84873108D01*
X83278885Y-85082977D01*
X83061517Y-85236290D01*
X82980151Y-85287188D01*
X82870770Y-85351434D01*
X82741969Y-85424409D01*
X82602340Y-85501492D01*
X82460477Y-85578065D01*
X82324977Y-85649510D01*
X82204430Y-85711207D01*
X82107433Y-85758536D01*
X82042579Y-85786878D01*
X82028112Y-85791721D01*
X81997810Y-85778821D01*
X81938133Y-85737063D01*
X81856742Y-85672352D01*
X81761304Y-85590599D01*
X81724350Y-85557561D01*
X81613834Y-85459179D01*
X81533012Y-85391694D01*
X81475237Y-85350513D01*
X81433859Y-85331045D01*
X81402225Y-85328693D01*
X81395184Y-85330209D01*
X81347348Y-85357740D01*
X81330869Y-85387725D01*
X81347663Y-85418226D01*
X81398894Y-85479614D01*
X81481440Y-85568569D01*
X81592180Y-85681773D01*
X81727994Y-85815906D01*
X81790079Y-85876062D01*
X82076730Y-86159276D01*
X82328008Y-86421960D01*
X82542284Y-86662271D01*
X82717931Y-86878369D01*
X82853321Y-87068413D01*
X82875353Y-87103020D01*
X82928647Y-87191722D01*
X82970223Y-87270916D01*
X83005335Y-87353718D01*
X83039235Y-87453240D01*
X83077180Y-87582596D01*
X83098903Y-87661076D01*
X83137834Y-87806410D01*
X83163964Y-87914770D01*
X83179079Y-87997840D01*
X83184969Y-88067306D01*
X83183421Y-88134853D01*
X83179083Y-88185130D01*
X83152335Y-88324615D01*
X83103931Y-88464563D01*
X83041015Y-88588276D01*
X82970733Y-88679057D01*
X82965727Y-88683742D01*
X82881246Y-88736136D01*
X82766402Y-88775949D01*
X82641010Y-88798539D01*
X82524882Y-88799265D01*
X82493771Y-88794305D01*
X82368557Y-88757142D01*
X82239332Y-88696989D01*
X82103909Y-88611617D01*
X81960102Y-88498800D01*
X81805726Y-88356313D01*
X81638593Y-88181928D01*
X81456516Y-87973419D01*
X81257313Y-87728560D01*
X81038794Y-87445124D01*
X80798774Y-87120885D01*
X80654483Y-86921113D01*
X80523103Y-86738176D01*
X80417713Y-86592603D01*
X80334922Y-86480311D01*
X80271340Y-86397222D01*
X80223573Y-86339255D01*
X80188234Y-86302334D01*
X80161930Y-86282376D01*
X80141270Y-86275302D01*
X80122863Y-86277033D01*
X80119816Y-86277880D01*
X80094190Y-86305243D01*
X80052037Y-86373643D01*
X79996076Y-86477102D01*
X79929019Y-86609641D01*
X79853584Y-86765281D01*
X79772485Y-86938047D01*
X79688440Y-87121957D01*
X79604163Y-87311035D01*
X79522370Y-87499303D01*
X79445776Y-87680782D01*
X79377099Y-87849493D01*
X79319052Y-87999461D01*
X79274352Y-88124704D01*
X79258642Y-88173604D01*
X79166427Y-88548439D01*
X79122864Y-88910514D01*
X79127886Y-89261455D01*
X79181428Y-89602887D01*
X79196972Y-89666400D01*
X79237027Y-89812759D01*
X79275144Y-89921047D01*
X79319723Y-90002934D01*
X79379161Y-90070085D01*
X79461858Y-90134168D01*
X79576211Y-90206851D01*
X79593613Y-90217402D01*
X79720900Y-90303346D01*
X79799196Y-90378647D01*
X79828775Y-90445043D01*
X79809917Y-90504267D01*
X79742897Y-90558056D01*
X79654415Y-90598483D01*
X79511240Y-90652977D01*
X79189018Y-90460744D01*
X79028587Y-90361155D01*
X78897099Y-90268119D01*
X78789548Y-90174205D01*
X78700927Y-90071986D01*
X78626230Y-89954034D01*
X78560449Y-89812920D01*
X78498579Y-89641214D01*
X78435613Y-89431491D01*
X78394617Y-89282047D01*
X78330331Y-89021251D01*
X78286920Y-88787944D01*
X78264190Y-88569530D01*
X78261952Y-88353410D01*
X78280012Y-88126989D01*
X78318181Y-87877669D01*
X78369427Y-87623933D01*
X78415609Y-87425569D01*
X78467266Y-87231144D01*
X78527321Y-87031767D01*
X78598690Y-86818544D01*
X78684295Y-86582585D01*
X78787056Y-86314999D01*
X78858368Y-86135052D01*
X78931638Y-85948969D01*
X78985592Y-85804853D01*
X79021643Y-85698296D01*
X79041207Y-85624885D01*
X79045699Y-85580211D01*
X79041350Y-85564714D01*
X78998996Y-85532073D01*
X78947766Y-85545244D01*
X78892885Y-85601238D01*
X78850227Y-85674107D01*
X78821100Y-85738073D01*
X78777490Y-85839074D01*
X78723680Y-85966938D01*
X78663955Y-86111493D01*
X78607610Y-86250131D01*
X78430794Y-86717649D01*
X78290556Y-87154327D01*
X78186598Y-87564267D01*
X78118622Y-87951570D01*
X78086332Y-88320342D01*
X78089429Y-88674683D01*
X78127620Y-89018696D01*
X78200604Y-89356484D01*
X78308087Y-89692149D01*
X78350552Y-89801851D01*
X78452361Y-90018720D01*
X78573201Y-90204159D01*
X78720865Y-90366656D01*
X78903147Y-90514700D01*
X79127841Y-90656775D01*
X79143983Y-90665939D01*
X79252077Y-90730122D01*
X79320220Y-90780262D01*
X79354769Y-90823198D01*
X79362082Y-90865771D01*
X79356021Y-90894049D01*
X79323655Y-90919121D01*
X79250362Y-90938196D01*
X79145758Y-90950445D01*
X79019456Y-90955031D01*
X78881064Y-90951122D01*
X78787032Y-90943404D01*
X78660972Y-90924336D01*
X78533054Y-90891811D01*
X78393170Y-90842237D01*
X78231210Y-90772026D01*
X78037062Y-90677585D01*
X78033442Y-90675759D01*
X77917548Y-90613547D01*
X77829127Y-90554412D01*
X77750197Y-90484153D01*
X77662777Y-90388574D01*
X77648044Y-90371438D01*
X77565933Y-90272075D01*
X77508782Y-90191332D01*
X77466200Y-90111345D01*
X77427795Y-90014251D01*
X77409469Y-89961288D01*
X77362331Y-89806161D01*
X77313455Y-89618000D01*
X77265512Y-89409923D01*
X77221178Y-89195049D01*
X77183124Y-88986497D01*
X77154024Y-88797386D01*
X77136552Y-88640833D01*
X77134530Y-88612014D01*
X77131275Y-88167272D01*
X77173163Y-87706542D01*
X77259149Y-87234989D01*
X77388189Y-86757779D01*
X77559237Y-86280074D01*
X77649173Y-86067365D01*
X77714669Y-85912249D01*
X77755320Y-85796925D01*
X77771906Y-85717325D01*
X77765211Y-85669377D01*
X77736015Y-85649014D01*
X77729726Y-85648086D01*
X77677829Y-85659861D01*
X77624539Y-85708938D01*
X77565880Y-85799858D01*
X77522372Y-85884828D01*
X77364780Y-86238990D01*
X77236759Y-86588527D01*
X77132426Y-86951469D01*
X77046312Y-87343676D01*
X76988521Y-87688814D01*
X76953130Y-88012438D01*
X76940663Y-88324695D01*
X76951645Y-88635735D01*
X76986600Y-88955700D01*
X77046054Y-89294739D01*
X77130533Y-89662997D01*
X77175166Y-89834661D01*
X77292144Y-90271310D01*
X77242375Y-90474550D01*
X77207082Y-90705451D01*
X77209885Y-90856736D01*
X77219178Y-90936151D01*
X77232745Y-91004095D01*
X77254995Y-91073188D01*
X77290341Y-91156043D01*
X77343194Y-91265277D01*
X77374616Y-91327888D01*
X77445436Y-91470004D01*
X77494996Y-91575434D01*
X77525953Y-91652305D01*
X77540970Y-91708743D01*
X77542707Y-91752877D01*
X77533824Y-91792836D01*
X77530210Y-91803249D01*
X77508484Y-91843296D01*
X77469684Y-91870793D01*
X77399640Y-91894366D01*
X77366290Y-91902993D01*
X77250689Y-91929173D01*
X77168565Y-91936270D01*
X77104758Y-91919863D01*
X77044105Y-91875532D01*
X76971449Y-91798857D01*
X76958369Y-91784056D01*
X76837718Y-91628566D01*
X76727119Y-91445868D01*
X76624266Y-91230822D01*
X76526858Y-90978285D01*
X76432593Y-90683117D01*
X76377698Y-90487562D01*
X76281594Y-90107428D01*
X76205901Y-89752475D01*
X76150810Y-89415695D01*
X76116517Y-89090081D01*
X76103212Y-88768623D01*
X76111091Y-88444313D01*
X76140347Y-88110143D01*
X76191173Y-87759105D01*
X76263762Y-87384189D01*
X76358308Y-86978389D01*
X76475005Y-86534696D01*
X76488091Y-86487284D01*
X76534550Y-86314711D01*
X76573590Y-86159999D01*
X76603673Y-86029984D01*
X76623262Y-85931512D01*
X76630820Y-85871422D01*
X76629533Y-85857725D01*
X76592860Y-85821882D01*
X76540894Y-85821865D01*
X76491819Y-85855290D01*
X76476949Y-85877729D01*
X76453840Y-85935635D01*
X76421143Y-86035315D01*
X76380910Y-86169092D01*
X76335191Y-86329288D01*
X76286035Y-86508229D01*
X76235493Y-86698238D01*
X76185616Y-86891640D01*
X76138453Y-87080756D01*
X76096054Y-87257914D01*
X76060469Y-87415433D01*
X76039772Y-87514623D01*
X75970433Y-87921025D01*
X75929615Y-88306719D01*
X75916742Y-88687970D01*
X75931230Y-89081043D01*
X75969700Y-89479305D01*
X75988080Y-89591931D01*
X76021289Y-89750391D01*
X76068722Y-89952117D01*
X76129775Y-90194543D01*
X76203845Y-90475102D01*
X76205464Y-90481120D01*
X76277634Y-90744885D01*
X76341105Y-90965587D01*
X76398481Y-91149688D01*
X76452364Y-91303650D01*
X76505357Y-91433937D01*
X76560063Y-91547013D01*
X76619085Y-91649338D01*
X76685024Y-91747379D01*
X76750787Y-91835169D01*
X76824689Y-91933950D01*
X76866646Y-92002226D01*
X76878636Y-92047312D01*
X76862635Y-92076521D01*
X76821494Y-92096860D01*
X76755975Y-92108107D01*
X76664565Y-92110163D01*
X76600387Y-92105852D01*
X76436689Y-92065599D01*
X76264451Y-91982075D01*
X76091538Y-91860089D01*
X75925816Y-91704446D01*
X75903152Y-91679705D01*
X75789791Y-91548398D01*
X75693296Y-91423020D01*
X75610070Y-91295941D01*
X75536518Y-91159532D01*
X75469048Y-91006164D01*
X75404064Y-90828207D01*
X75337970Y-90618030D01*
X75267172Y-90368006D01*
X75242992Y-90278542D01*
X75178063Y-90029114D01*
X75127453Y-89815004D01*
X75089287Y-89623374D01*
X75061695Y-89441393D01*
X75042803Y-89256224D01*
X75030737Y-89055034D01*
X75023626Y-88824988D01*
X75022509Y-88767441D01*
X75025935Y-88306515D01*
X75054826Y-87879402D01*
X75111355Y-87474769D01*
X75197700Y-87081281D01*
X75316036Y-86687604D01*
X75468537Y-86282404D01*
X75525444Y-86147214D01*
X75578227Y-86019832D01*
X75609814Y-85930032D01*
X75622299Y-85870244D01*
X75617768Y-85832901D01*
X75614158Y-85826084D01*
X75576463Y-85795471D01*
X75521220Y-85804745D01*
X75478246Y-85843034D01*
X75425391Y-85924077D01*
X75365113Y-86041348D01*
X75299870Y-86188323D01*
X75232119Y-86358474D01*
X75164320Y-86545278D01*
X75098929Y-86742207D01*
X75038405Y-86942739D01*
X74985206Y-87140347D01*
X74941790Y-87328506D01*
X74935390Y-87359931D01*
X74874828Y-87748848D01*
X74840025Y-88168843D01*
X74830694Y-88607376D01*
X74846544Y-89051910D01*
X74887285Y-89489910D01*
X74952629Y-89908839D01*
X74999330Y-90128188D01*
X75036293Y-90286507D01*
X75062103Y-90403029D01*
X75077720Y-90485291D01*
X75084097Y-90540833D01*
X75082195Y-90577193D01*
X75072971Y-90601910D01*
X75061497Y-90617728D01*
X75022291Y-90657173D01*
X74985726Y-90667950D01*
X74940022Y-90647698D01*
X74873403Y-90594056D01*
X74852978Y-90575937D01*
X74736703Y-90471938D01*
X74569325Y-89738627D01*
X74524739Y-89540381D01*
X74482490Y-89347048D01*
X74444385Y-89167335D01*
X74412235Y-89009945D01*
X74387851Y-88883585D01*
X74373042Y-88796960D01*
X74372019Y-88789821D01*
X74347907Y-88564846D01*
X74339660Y-88341996D01*
X74348199Y-88113828D01*
X74374449Y-87872903D01*
X74419332Y-87611778D01*
X74483771Y-87323012D01*
X74568689Y-86999164D01*
X74613896Y-86839774D01*
X74664803Y-86661779D01*
X74701883Y-86526095D01*
X74726257Y-86426485D01*
X74739048Y-86356709D01*
X74741374Y-86310529D01*
X74734358Y-86281705D01*
X74719119Y-86263999D01*
X74717544Y-86262852D01*
X74682870Y-86244802D01*
X74650771Y-86245081D01*
X74619446Y-86267645D01*
X74587102Y-86316451D01*
X74551940Y-86395455D01*
X74512164Y-86508617D01*
X74465977Y-86659890D01*
X74411583Y-86853235D01*
X74356249Y-87058510D01*
X74288220Y-87323900D01*
X74233700Y-87563361D01*
X74192834Y-87784014D01*
X74165761Y-87992979D01*
X74152628Y-88197377D01*
X74153575Y-88404328D01*
X74168747Y-88620953D01*
X74198286Y-88854372D01*
X74242335Y-89111706D01*
X74301038Y-89400074D01*
X74374537Y-89726599D01*
X74413131Y-89890636D01*
X74462604Y-90102695D01*
X74498982Y-90267672D01*
X74522629Y-90387472D01*
X74533908Y-90463998D01*
X74533180Y-90499155D01*
X74529626Y-90502061D01*
X74471970Y-90478287D01*
X74397127Y-90415231D01*
X74310016Y-90319348D01*
X74215555Y-90197095D01*
X74118667Y-90054925D01*
X74024266Y-89899295D01*
X73937276Y-89736660D01*
X73920904Y-89703246D01*
X73839941Y-89510117D01*
X73766538Y-89287674D01*
X73704804Y-89052418D01*
X73658842Y-88820850D01*
X73632758Y-88609471D01*
X73628674Y-88528819D01*
X73630833Y-88162676D01*
X73655795Y-87810568D01*
X73705476Y-87460704D01*
X73781788Y-87101292D01*
X73886647Y-86720543D01*
X73959555Y-86490564D01*
X74013952Y-86325407D01*
X74066067Y-86166454D01*
X74112662Y-86023636D01*
X74150500Y-85906883D01*
X74176343Y-85826124D01*
X74180271Y-85813615D01*
X74207801Y-85709721D01*
X74223810Y-85604923D01*
X74227805Y-85491126D01*
X74219295Y-85360235D01*
X74197786Y-85204152D01*
X74162786Y-85014783D01*
X74119083Y-84808009D01*
X74070301Y-84579906D01*
X74063169Y-84543119D01*
X77410408Y-83646230D01*
X77467632Y-83823046D01*
X77511810Y-83926287D01*
X77629062Y-84114845D01*
X77779018Y-84268256D01*
X77956455Y-84385163D01*
X78156146Y-84464211D01*
X78372867Y-84504044D01*
X78601392Y-84503306D01*
X78836496Y-84460642D01*
X79072953Y-84374697D01*
X79131338Y-84346457D01*
X79322658Y-84228650D01*
X79496786Y-84082169D01*
X79640467Y-83919062D01*
X79700028Y-83829509D01*
X79788442Y-83645766D01*
X79833628Y-83463748D01*
X79835906Y-83275397D01*
X79795598Y-83072654D01*
X79736983Y-82904737D01*
X79620951Y-82666954D01*
X79480825Y-82472594D01*
X79314063Y-82319075D01*
X79118120Y-82203817D01*
X78999680Y-82156715D01*
X78841421Y-82107773D01*
X78707440Y-82080920D01*
X78580979Y-82075792D01*
X78445279Y-82092025D01*
X78283586Y-82129256D01*
X78242667Y-82140281D01*
X78110932Y-82178024D01*
X78014346Y-82210864D01*
X77938499Y-82245049D01*
X77868978Y-82286825D01*
X77812467Y-82326791D01*
X77642839Y-82472973D01*
X77504125Y-82636441D01*
X77402845Y-82808209D01*
X77348083Y-82966973D01*
X77333892Y-83104546D01*
X77341145Y-83272960D01*
X77367448Y-83458194D01*
X77410408Y-83646230D01*
X74063169Y-84543119D01*
X74033933Y-84392289D01*
X74009506Y-84236505D01*
X73996540Y-84103904D01*
X73994555Y-83985832D01*
X74003076Y-83873641D01*
X74021624Y-83758677D01*
X74049720Y-83632291D01*
X74053319Y-83617543D01*
X74127779Y-83373521D01*
X74226626Y-83160508D01*
X74357162Y-82966617D01*
X74526687Y-82779965D01*
X74622707Y-82690649D01*
X74772175Y-82564971D01*
X74911190Y-82466609D01*
X75051586Y-82390249D01*
X75205199Y-82330575D01*
X75383863Y-82282271D01*
X75599414Y-82240021D01*
X75641983Y-82232824D01*
X75783101Y-82210128D01*
X75888712Y-82196326D01*
X75973310Y-82191329D01*
X76051386Y-82195049D01*
X76137433Y-82207396D01*
X76245944Y-82228280D01*
X76249945Y-82229087D01*
X76514084Y-82282424D01*
X76427768Y-82394362D01*
X76339296Y-82497081D01*
X76244716Y-82577670D01*
X76125968Y-82650505D01*
X76068951Y-82680041D01*
X75980312Y-82732891D01*
X75938270Y-82781843D01*
X75939463Y-82832213D01*
X75955368Y-82859791D01*
X75977850Y-82876660D01*
X76017045Y-82876830D01*
X76084642Y-82859080D01*
X76140430Y-82840451D01*
X76250792Y-82795665D01*
X76347355Y-82739420D01*
X76439144Y-82663994D01*
X76535184Y-82561671D01*
X76644497Y-82424728D01*
X76676949Y-82381502D01*
X76853999Y-82162829D01*
X77039803Y-81974894D01*
X77244503Y-81809635D01*
X77478243Y-81658995D01*
X77751166Y-81514912D01*
X77792628Y-81495020D01*
X78043289Y-81390736D01*
X78282735Y-81324169D01*
X78523294Y-81293885D01*
X78777291Y-81298446D01*
X79057053Y-81336416D01*
X79094126Y-81343377D01*
X79311588Y-81395426D01*
X79498650Y-81464913D01*
X79666913Y-81558681D01*
X79827978Y-81683563D01*
X79993445Y-81846400D01*
X80046765Y-81904891D01*
X80152381Y-82026502D01*
X80236164Y-82133384D01*
X80303867Y-82236426D01*
X80361242Y-82346513D01*
X80414043Y-82474532D01*
X80468023Y-82631369D01*
X80521481Y-82803235D01*
X80569494Y-82961189D01*
X80605688Y-83076919D01*
X80632867Y-83156849D01*
X80653840Y-83207406D01*
X80671411Y-83235012D01*
X80688386Y-83246093D01*
X80707571Y-83247074D01*
X80714967Y-83246264D01*
X80751931Y-83231716D01*
X80772989Y-83195403D01*
X80777974Y-83131995D01*
X80766717Y-83036163D01*
X80739053Y-82902576D01*
X80699156Y-82742479D01*
X80652005Y-82571432D01*
X80609062Y-82438418D01*
X80566014Y-82331390D01*
X80518721Y-82238610D01*
X80401503Y-82054668D01*
X80260495Y-81870310D01*
X80104317Y-81694421D01*
X79941593Y-81535894D01*
X79780942Y-81403614D01*
X79630987Y-81306471D01*
X79598396Y-81289781D01*
X79494130Y-81249231D01*
X79353748Y-81208173D01*
X79191799Y-81169767D01*
X79022836Y-81137169D01*
X78861409Y-81113537D01*
X78735896Y-81102606D01*
X78536512Y-81101251D01*
X78348831Y-81118896D01*
X78161594Y-81158286D01*
X77963545Y-81222167D01*
X77743425Y-81313287D01*
X77602448Y-81379100D01*
X77333200Y-81522503D01*
X77093184Y-81681706D01*
X76865811Y-81868627D01*
X76700253Y-82027436D01*
X76617377Y-82111274D01*
X76360977Y-82059236D01*
X76104576Y-82007197D01*
X76173549Y-81858863D01*
X76239188Y-81731110D01*
X76328527Y-81576056D01*
X76433594Y-81406119D01*
X76546414Y-81233713D01*
X76659014Y-81071255D01*
X76763421Y-80931162D01*
X76793533Y-80893410D01*
X76907547Y-80764808D01*
X77054110Y-80616798D01*
X77223432Y-80458044D01*
X77405726Y-80297211D01*
X77591202Y-80142967D01*
X77770073Y-80003978D01*
X77914408Y-79901055D01*
X78257938Y-79684214D01*
X78643640Y-79468140D01*
X79063001Y-79257034D01*
X79507508Y-79055100D01*
X79968651Y-78866543D01*
X80143300Y-78800447D01*
X80356361Y-78728448D01*
X80605573Y-78655504D01*
X80876474Y-78585028D01*
G37*
X80876474Y-78585028D02*
X81154601Y-78520440D01*
X81425493Y-78465153D01*
X81674687Y-78422588D01*
X81829667Y-78402054D01*
X82005642Y-78384637D01*
X82201633Y-78368996D01*
X82406869Y-78355648D01*
X82610579Y-78345112D01*
X82801992Y-78337905D01*
X82970337Y-78334543D01*
X83104843Y-78335544D01*
X83160521Y-78338144D01*
X83313518Y-78358923D01*
X83500859Y-78400389D01*
X83712290Y-78458913D01*
X83937555Y-78530865D01*
X84166395Y-78612616D01*
X84388557Y-78700536D01*
X84593782Y-78790995D01*
X84771815Y-78880366D01*
X84890267Y-78950257D01*
X84967357Y-79002180D01*
X85010292Y-79039373D01*
X85028215Y-79073671D01*
X85030268Y-79116910D01*
X85029386Y-79130344D01*
X85009068Y-79218721D01*
X84958590Y-79322897D01*
X84875609Y-79446179D01*
X84757784Y-79591872D01*
X84602773Y-79763282D01*
X84518851Y-79851146D01*
X84334222Y-80043019D01*
X84181032Y-80206206D01*
X84054498Y-80347640D01*
X83949837Y-80474254D01*
X83862264Y-80592980D01*
X83786999Y-80710752D01*
X83719258Y-80834503D01*
X83654259Y-80971163D01*
X83587218Y-81127669D01*
X83515522Y-81305477D01*
X83456650Y-81453755D01*
X83399151Y-81598308D01*
X83347793Y-81727164D01*
X83307347Y-81828347D01*
X83289535Y-81872698D01*
X83240149Y-81985073D01*
X83184500Y-82088219D01*
X83117893Y-82187084D01*
X83035630Y-82286617D01*
X82933018Y-82391768D01*
X82805358Y-82507484D01*
X82647958Y-82638712D01*
X82456121Y-82790402D01*
X82317148Y-82897417D01*
X82078191Y-83083668D01*
X81878921Y-83247336D01*
X81715615Y-83392222D01*
X81584546Y-83522124D01*
X81481992Y-83640843D01*
X81404230Y-83752180D01*
X81347531Y-83859933D01*
X81328798Y-83905851D01*
X81291572Y-84020356D01*
X81280703Y-84102114D01*
X81296299Y-84161871D01*
X81331792Y-84204605D01*
X81370550Y-84231627D01*
X81414952Y-84239063D01*
X81481971Y-84227906D01*
X81527696Y-84216094D01*
X81616322Y-84187894D01*
X81730804Y-84145759D01*
X81850972Y-84097247D01*
X81891572Y-84079751D01*
X81981753Y-84042690D01*
X82109751Y-83993657D01*
X82265097Y-83936479D01*
X82437329Y-83874980D01*
X82615976Y-83812984D01*
X82693921Y-83786533D01*
X82973683Y-83690690D01*
X83211016Y-83605256D01*
X83412444Y-83527068D01*
X83584495Y-83452967D01*
X83733691Y-83379789D01*
X83866559Y-83304372D01*
X83989624Y-83223555D01*
X84109410Y-83134177D01*
X84210635Y-83051545D01*
X84363567Y-82914161D01*
X84492408Y-82777078D01*
X84604079Y-82630168D01*
X84705501Y-82463301D01*
X84803596Y-82266349D01*
X84899417Y-82043605D01*
X85027340Y-81746714D01*
X85148577Y-81499395D01*
X85262989Y-81301907D01*
X85351738Y-81177186D01*
X85399897Y-81124441D01*
X85467887Y-81059059D01*
X85546105Y-80989149D01*
X85624948Y-80922818D01*
X85694813Y-80868173D01*
X85746097Y-80833320D01*
X85768320Y-80825508D01*
X85772954Y-80854208D01*
X85770170Y-80924761D01*
X85761084Y-81028945D01*
X85746808Y-81158533D01*
X85728460Y-81305303D01*
X85707153Y-81461029D01*
X85684002Y-81617488D01*
X85660121Y-81766455D01*
X85636625Y-81899705D01*
X85614631Y-82009016D01*
X85599418Y-82071692D01*
X85538574Y-82257743D01*
X85452475Y-82471975D01*
X85347172Y-82702564D01*
X85228717Y-82937687D01*
X85103163Y-83165519D01*
X84976563Y-83374237D01*
X84854968Y-83552015D01*
X84814652Y-83604817D01*
X84602366Y-83857652D01*
X84359707Y-84119903D01*
X84096353Y-84382566D01*
X83821981Y-84636636D01*
X83546265Y-84873108D01*
X83278885Y-85082977D01*
X83061517Y-85236290D01*
X82980151Y-85287188D01*
X82870770Y-85351434D01*
X82741969Y-85424409D01*
X82602340Y-85501492D01*
X82460477Y-85578065D01*
X82324977Y-85649510D01*
X82204430Y-85711207D01*
X82107433Y-85758536D01*
X82042579Y-85786878D01*
X82028112Y-85791721D01*
X81997810Y-85778821D01*
X81938133Y-85737063D01*
X81856742Y-85672352D01*
X81761304Y-85590599D01*
X81724350Y-85557561D01*
X81613834Y-85459179D01*
X81533012Y-85391694D01*
X81475237Y-85350513D01*
X81433859Y-85331045D01*
X81402225Y-85328693D01*
X81395184Y-85330209D01*
X81347348Y-85357740D01*
X81330869Y-85387725D01*
X81347663Y-85418226D01*
X81398894Y-85479614D01*
X81481440Y-85568569D01*
X81592180Y-85681773D01*
X81727994Y-85815906D01*
X81790079Y-85876062D01*
X82076730Y-86159276D01*
X82328008Y-86421960D01*
X82542284Y-86662271D01*
X82717931Y-86878369D01*
X82853321Y-87068413D01*
X82875353Y-87103020D01*
X82928647Y-87191722D01*
X82970223Y-87270916D01*
X83005335Y-87353718D01*
X83039235Y-87453240D01*
X83077180Y-87582596D01*
X83098903Y-87661076D01*
X83137834Y-87806410D01*
X83163964Y-87914770D01*
X83179079Y-87997840D01*
X83184969Y-88067306D01*
X83183421Y-88134853D01*
X83179083Y-88185130D01*
X83152335Y-88324615D01*
X83103931Y-88464563D01*
X83041015Y-88588276D01*
X82970733Y-88679057D01*
X82965727Y-88683742D01*
X82881246Y-88736136D01*
X82766402Y-88775949D01*
X82641010Y-88798539D01*
X82524882Y-88799265D01*
X82493771Y-88794305D01*
X82368557Y-88757142D01*
X82239332Y-88696989D01*
X82103909Y-88611617D01*
X81960102Y-88498800D01*
X81805726Y-88356313D01*
X81638593Y-88181928D01*
X81456516Y-87973419D01*
X81257313Y-87728560D01*
X81038794Y-87445124D01*
X80798774Y-87120885D01*
X80654483Y-86921113D01*
X80523103Y-86738176D01*
X80417713Y-86592603D01*
X80334922Y-86480311D01*
X80271340Y-86397222D01*
X80223573Y-86339255D01*
X80188234Y-86302334D01*
X80161930Y-86282376D01*
X80141270Y-86275302D01*
X80122863Y-86277033D01*
X80119816Y-86277880D01*
X80094190Y-86305243D01*
X80052037Y-86373643D01*
X79996076Y-86477102D01*
X79929019Y-86609641D01*
X79853584Y-86765281D01*
X79772485Y-86938047D01*
X79688440Y-87121957D01*
X79604163Y-87311035D01*
X79522370Y-87499303D01*
X79445776Y-87680782D01*
X79377099Y-87849493D01*
X79319052Y-87999461D01*
X79274352Y-88124704D01*
X79258642Y-88173604D01*
X79166427Y-88548439D01*
X79122864Y-88910514D01*
X79127886Y-89261455D01*
X79181428Y-89602887D01*
X79196972Y-89666400D01*
X79237027Y-89812759D01*
X79275144Y-89921047D01*
X79319723Y-90002934D01*
X79379161Y-90070085D01*
X79461858Y-90134168D01*
X79576211Y-90206851D01*
X79593613Y-90217402D01*
X79720900Y-90303346D01*
X79799196Y-90378647D01*
X79828775Y-90445043D01*
X79809917Y-90504267D01*
X79742897Y-90558056D01*
X79654415Y-90598483D01*
X79511240Y-90652977D01*
X79189018Y-90460744D01*
X79028587Y-90361155D01*
X78897099Y-90268119D01*
X78789548Y-90174205D01*
X78700927Y-90071986D01*
X78626230Y-89954034D01*
X78560449Y-89812920D01*
X78498579Y-89641214D01*
X78435613Y-89431491D01*
X78394617Y-89282047D01*
X78330331Y-89021251D01*
X78286920Y-88787944D01*
X78264190Y-88569530D01*
X78261952Y-88353410D01*
X78280012Y-88126989D01*
X78318181Y-87877669D01*
X78369427Y-87623933D01*
X78415609Y-87425569D01*
X78467266Y-87231144D01*
X78527321Y-87031767D01*
X78598690Y-86818544D01*
X78684295Y-86582585D01*
X78787056Y-86314999D01*
X78858368Y-86135052D01*
X78931638Y-85948969D01*
X78985592Y-85804853D01*
X79021643Y-85698296D01*
X79041207Y-85624885D01*
X79045699Y-85580211D01*
X79041350Y-85564714D01*
X78998996Y-85532073D01*
X78947766Y-85545244D01*
X78892885Y-85601238D01*
X78850227Y-85674107D01*
X78821100Y-85738073D01*
X78777490Y-85839074D01*
X78723680Y-85966938D01*
X78663955Y-86111493D01*
X78607610Y-86250131D01*
X78430794Y-86717649D01*
X78290556Y-87154327D01*
X78186598Y-87564267D01*
X78118622Y-87951570D01*
X78086332Y-88320342D01*
X78089429Y-88674683D01*
X78127620Y-89018696D01*
X78200604Y-89356484D01*
X78308087Y-89692149D01*
X78350552Y-89801851D01*
X78452361Y-90018720D01*
X78573201Y-90204159D01*
X78720865Y-90366656D01*
X78903147Y-90514700D01*
X79127841Y-90656775D01*
X79143983Y-90665939D01*
X79252077Y-90730122D01*
X79320220Y-90780262D01*
X79354769Y-90823198D01*
X79362082Y-90865771D01*
X79356021Y-90894049D01*
X79323655Y-90919121D01*
X79250362Y-90938196D01*
X79145758Y-90950445D01*
X79019456Y-90955031D01*
X78881064Y-90951122D01*
X78787032Y-90943404D01*
X78660972Y-90924336D01*
X78533054Y-90891811D01*
X78393170Y-90842237D01*
X78231210Y-90772026D01*
X78037062Y-90677585D01*
X78033442Y-90675759D01*
X77917548Y-90613547D01*
X77829127Y-90554412D01*
X77750197Y-90484153D01*
X77662777Y-90388574D01*
X77648044Y-90371438D01*
X77565933Y-90272075D01*
X77508782Y-90191332D01*
X77466200Y-90111345D01*
X77427795Y-90014251D01*
X77409469Y-89961288D01*
X77362331Y-89806161D01*
X77313455Y-89618000D01*
X77265512Y-89409923D01*
X77221178Y-89195049D01*
X77183124Y-88986497D01*
X77154024Y-88797386D01*
X77136552Y-88640833D01*
X77134530Y-88612014D01*
X77131275Y-88167272D01*
X77173163Y-87706542D01*
X77259149Y-87234989D01*
X77388189Y-86757779D01*
X77559237Y-86280074D01*
X77649173Y-86067365D01*
X77714669Y-85912249D01*
X77755320Y-85796925D01*
X77771906Y-85717325D01*
X77765211Y-85669377D01*
X77736015Y-85649014D01*
X77729726Y-85648086D01*
X77677829Y-85659861D01*
X77624539Y-85708938D01*
X77565880Y-85799858D01*
X77522372Y-85884828D01*
X77364780Y-86238990D01*
X77236759Y-86588527D01*
X77132426Y-86951469D01*
X77046312Y-87343676D01*
X76988521Y-87688814D01*
X76953130Y-88012438D01*
X76940663Y-88324695D01*
X76951645Y-88635735D01*
X76986600Y-88955700D01*
X77046054Y-89294739D01*
X77130533Y-89662997D01*
X77175166Y-89834661D01*
X77292144Y-90271310D01*
X77242375Y-90474550D01*
X77207082Y-90705451D01*
X77209885Y-90856736D01*
X77219178Y-90936151D01*
X77232745Y-91004095D01*
X77254995Y-91073188D01*
X77290341Y-91156043D01*
X77343194Y-91265277D01*
X77374616Y-91327888D01*
X77445436Y-91470004D01*
X77494996Y-91575434D01*
X77525953Y-91652305D01*
X77540970Y-91708743D01*
X77542707Y-91752877D01*
X77533824Y-91792836D01*
X77530210Y-91803249D01*
X77508484Y-91843296D01*
X77469684Y-91870793D01*
X77399640Y-91894366D01*
X77366290Y-91902993D01*
X77250689Y-91929173D01*
X77168565Y-91936270D01*
X77104758Y-91919863D01*
X77044105Y-91875532D01*
X76971449Y-91798857D01*
X76958369Y-91784056D01*
X76837718Y-91628566D01*
X76727119Y-91445868D01*
X76624266Y-91230822D01*
X76526858Y-90978285D01*
X76432593Y-90683117D01*
X76377698Y-90487562D01*
X76281594Y-90107428D01*
X76205901Y-89752475D01*
X76150810Y-89415695D01*
X76116517Y-89090081D01*
X76103212Y-88768623D01*
X76111091Y-88444313D01*
X76140347Y-88110143D01*
X76191173Y-87759105D01*
X76263762Y-87384189D01*
X76358308Y-86978389D01*
X76475005Y-86534696D01*
X76488091Y-86487284D01*
X76534550Y-86314711D01*
X76573590Y-86159999D01*
X76603673Y-86029984D01*
X76623262Y-85931512D01*
X76630820Y-85871422D01*
X76629533Y-85857725D01*
X76592860Y-85821882D01*
X76540894Y-85821865D01*
X76491819Y-85855290D01*
X76476949Y-85877729D01*
X76453840Y-85935635D01*
X76421143Y-86035315D01*
X76380910Y-86169092D01*
X76335191Y-86329288D01*
X76286035Y-86508229D01*
X76235493Y-86698238D01*
X76185616Y-86891640D01*
X76138453Y-87080756D01*
X76096054Y-87257914D01*
X76060469Y-87415433D01*
X76039772Y-87514623D01*
X75970433Y-87921025D01*
X75929615Y-88306719D01*
X75916742Y-88687970D01*
X75931230Y-89081043D01*
X75969700Y-89479305D01*
X75988080Y-89591931D01*
X76021289Y-89750391D01*
X76068722Y-89952117D01*
X76129775Y-90194543D01*
X76203845Y-90475102D01*
X76205464Y-90481120D01*
X76277634Y-90744885D01*
X76341105Y-90965587D01*
X76398481Y-91149688D01*
X76452364Y-91303650D01*
X76505357Y-91433937D01*
X76560063Y-91547013D01*
X76619085Y-91649338D01*
X76685024Y-91747379D01*
X76750787Y-91835169D01*
X76824689Y-91933950D01*
X76866646Y-92002226D01*
X76878636Y-92047312D01*
X76862635Y-92076521D01*
X76821494Y-92096860D01*
X76755975Y-92108107D01*
X76664565Y-92110163D01*
X76600387Y-92105852D01*
X76436689Y-92065599D01*
X76264451Y-91982075D01*
X76091538Y-91860089D01*
X75925816Y-91704446D01*
X75903152Y-91679705D01*
X75789791Y-91548398D01*
X75693296Y-91423020D01*
X75610070Y-91295941D01*
X75536518Y-91159532D01*
X75469048Y-91006164D01*
X75404064Y-90828207D01*
X75337970Y-90618030D01*
X75267172Y-90368006D01*
X75242992Y-90278542D01*
X75178063Y-90029114D01*
X75127453Y-89815004D01*
X75089287Y-89623374D01*
X75061695Y-89441393D01*
X75042803Y-89256224D01*
X75030737Y-89055034D01*
X75023626Y-88824988D01*
X75022509Y-88767441D01*
X75025935Y-88306515D01*
X75054826Y-87879402D01*
X75111355Y-87474769D01*
X75197700Y-87081281D01*
X75316036Y-86687604D01*
X75468537Y-86282404D01*
X75525444Y-86147214D01*
X75578227Y-86019832D01*
X75609814Y-85930032D01*
X75622299Y-85870244D01*
X75617768Y-85832901D01*
X75614158Y-85826084D01*
X75576463Y-85795471D01*
X75521220Y-85804745D01*
X75478246Y-85843034D01*
X75425391Y-85924077D01*
X75365113Y-86041348D01*
X75299870Y-86188323D01*
X75232119Y-86358474D01*
X75164320Y-86545278D01*
X75098929Y-86742207D01*
X75038405Y-86942739D01*
X74985206Y-87140347D01*
X74941790Y-87328506D01*
X74935390Y-87359931D01*
X74874828Y-87748848D01*
X74840025Y-88168843D01*
X74830694Y-88607376D01*
X74846544Y-89051910D01*
X74887285Y-89489910D01*
X74952629Y-89908839D01*
X74999330Y-90128188D01*
X75036293Y-90286507D01*
X75062103Y-90403029D01*
X75077720Y-90485291D01*
X75084097Y-90540833D01*
X75082195Y-90577193D01*
X75072971Y-90601910D01*
X75061497Y-90617728D01*
X75022291Y-90657173D01*
X74985726Y-90667950D01*
X74940022Y-90647698D01*
X74873403Y-90594056D01*
X74852978Y-90575937D01*
X74736703Y-90471938D01*
X74569325Y-89738627D01*
X74524739Y-89540381D01*
X74482490Y-89347048D01*
X74444385Y-89167335D01*
X74412235Y-89009945D01*
X74387851Y-88883585D01*
X74373042Y-88796960D01*
X74372019Y-88789821D01*
X74347907Y-88564846D01*
X74339660Y-88341996D01*
X74348199Y-88113828D01*
X74374449Y-87872903D01*
X74419332Y-87611778D01*
X74483771Y-87323012D01*
X74568689Y-86999164D01*
X74613896Y-86839774D01*
X74664803Y-86661779D01*
X74701883Y-86526095D01*
X74726257Y-86426485D01*
X74739048Y-86356709D01*
X74741374Y-86310529D01*
X74734358Y-86281705D01*
X74719119Y-86263999D01*
X74717544Y-86262852D01*
X74682870Y-86244802D01*
X74650771Y-86245081D01*
X74619446Y-86267645D01*
X74587102Y-86316451D01*
X74551940Y-86395455D01*
X74512164Y-86508617D01*
X74465977Y-86659890D01*
X74411583Y-86853235D01*
X74356249Y-87058510D01*
X74288220Y-87323900D01*
X74233700Y-87563361D01*
X74192834Y-87784014D01*
X74165761Y-87992979D01*
X74152628Y-88197377D01*
X74153575Y-88404328D01*
X74168747Y-88620953D01*
X74198286Y-88854372D01*
X74242335Y-89111706D01*
X74301038Y-89400074D01*
X74374537Y-89726599D01*
X74413131Y-89890636D01*
X74462604Y-90102695D01*
X74498982Y-90267672D01*
X74522629Y-90387472D01*
X74533908Y-90463998D01*
X74533180Y-90499155D01*
X74529626Y-90502061D01*
X74471970Y-90478287D01*
X74397127Y-90415231D01*
X74310016Y-90319348D01*
X74215555Y-90197095D01*
X74118667Y-90054925D01*
X74024266Y-89899295D01*
X73937276Y-89736660D01*
X73920904Y-89703246D01*
X73839941Y-89510117D01*
X73766538Y-89287674D01*
X73704804Y-89052418D01*
X73658842Y-88820850D01*
X73632758Y-88609471D01*
X73628674Y-88528819D01*
X73630833Y-88162676D01*
X73655795Y-87810568D01*
X73705476Y-87460704D01*
X73781788Y-87101292D01*
X73886647Y-86720543D01*
X73959555Y-86490564D01*
X74013952Y-86325407D01*
X74066067Y-86166454D01*
X74112662Y-86023636D01*
X74150500Y-85906883D01*
X74176343Y-85826124D01*
X74180271Y-85813615D01*
X74207801Y-85709721D01*
X74223810Y-85604923D01*
X74227805Y-85491126D01*
X74219295Y-85360235D01*
X74197786Y-85204152D01*
X74162786Y-85014783D01*
X74119083Y-84808009D01*
X74070301Y-84579906D01*
X74063169Y-84543119D01*
X77410408Y-83646230D01*
X77467632Y-83823046D01*
X77511810Y-83926287D01*
X77629062Y-84114845D01*
X77779018Y-84268256D01*
X77956455Y-84385163D01*
X78156146Y-84464211D01*
X78372867Y-84504044D01*
X78601392Y-84503306D01*
X78836496Y-84460642D01*
X79072953Y-84374697D01*
X79131338Y-84346457D01*
X79322658Y-84228650D01*
X79496786Y-84082169D01*
X79640467Y-83919062D01*
X79700028Y-83829509D01*
X79788442Y-83645766D01*
X79833628Y-83463748D01*
X79835906Y-83275397D01*
X79795598Y-83072654D01*
X79736983Y-82904737D01*
X79620951Y-82666954D01*
X79480825Y-82472594D01*
X79314063Y-82319075D01*
X79118120Y-82203817D01*
X78999680Y-82156715D01*
X78841421Y-82107773D01*
X78707440Y-82080920D01*
X78580979Y-82075792D01*
X78445279Y-82092025D01*
X78283586Y-82129256D01*
X78242667Y-82140281D01*
X78110932Y-82178024D01*
X78014346Y-82210864D01*
X77938499Y-82245049D01*
X77868978Y-82286825D01*
X77812467Y-82326791D01*
X77642839Y-82472973D01*
X77504125Y-82636441D01*
X77402845Y-82808209D01*
X77348083Y-82966973D01*
X77333892Y-83104546D01*
X77341145Y-83272960D01*
X77367448Y-83458194D01*
X77410408Y-83646230D01*
X74063169Y-84543119D01*
X74033933Y-84392289D01*
X74009506Y-84236505D01*
X73996540Y-84103904D01*
X73994555Y-83985832D01*
X74003076Y-83873641D01*
X74021624Y-83758677D01*
X74049720Y-83632291D01*
X74053319Y-83617543D01*
X74127779Y-83373521D01*
X74226626Y-83160508D01*
X74357162Y-82966617D01*
X74526687Y-82779965D01*
X74622707Y-82690649D01*
X74772175Y-82564971D01*
X74911190Y-82466609D01*
X75051586Y-82390249D01*
X75205199Y-82330575D01*
X75383863Y-82282271D01*
X75599414Y-82240021D01*
X75641983Y-82232824D01*
X75783101Y-82210128D01*
X75888712Y-82196326D01*
X75973310Y-82191329D01*
X76051386Y-82195049D01*
X76137433Y-82207396D01*
X76245944Y-82228280D01*
X76249945Y-82229087D01*
X76514084Y-82282424D01*
X76427768Y-82394362D01*
X76339296Y-82497081D01*
X76244716Y-82577670D01*
X76125968Y-82650505D01*
X76068951Y-82680041D01*
X75980312Y-82732891D01*
X75938270Y-82781843D01*
X75939463Y-82832213D01*
X75955368Y-82859791D01*
X75977850Y-82876660D01*
X76017045Y-82876830D01*
X76084642Y-82859080D01*
X76140430Y-82840451D01*
X76250792Y-82795665D01*
X76347355Y-82739420D01*
X76439144Y-82663994D01*
X76535184Y-82561671D01*
X76644497Y-82424728D01*
X76676949Y-82381502D01*
X76853999Y-82162829D01*
X77039803Y-81974894D01*
X77244503Y-81809635D01*
X77478243Y-81658995D01*
X77751166Y-81514912D01*
X77792628Y-81495020D01*
X78043289Y-81390736D01*
X78282735Y-81324169D01*
X78523294Y-81293885D01*
X78777291Y-81298446D01*
X79057053Y-81336416D01*
X79094126Y-81343377D01*
X79311588Y-81395426D01*
X79498650Y-81464913D01*
X79666913Y-81558681D01*
X79827978Y-81683563D01*
X79993445Y-81846400D01*
X80046765Y-81904891D01*
X80152381Y-82026502D01*
X80236164Y-82133384D01*
X80303867Y-82236426D01*
X80361242Y-82346513D01*
X80414043Y-82474532D01*
X80468023Y-82631369D01*
X80521481Y-82803235D01*
X80569494Y-82961189D01*
X80605688Y-83076919D01*
X80632867Y-83156849D01*
X80653840Y-83207406D01*
X80671411Y-83235012D01*
X80688386Y-83246093D01*
X80707571Y-83247074D01*
X80714967Y-83246264D01*
X80751931Y-83231716D01*
X80772989Y-83195403D01*
X80777974Y-83131995D01*
X80766717Y-83036163D01*
X80739053Y-82902576D01*
X80699156Y-82742479D01*
X80652005Y-82571432D01*
X80609062Y-82438418D01*
X80566014Y-82331390D01*
X80518721Y-82238610D01*
X80401503Y-82054668D01*
X80260495Y-81870310D01*
X80104317Y-81694421D01*
X79941593Y-81535894D01*
X79780942Y-81403614D01*
X79630987Y-81306471D01*
X79598396Y-81289781D01*
X79494130Y-81249231D01*
X79353748Y-81208173D01*
X79191799Y-81169767D01*
X79022836Y-81137169D01*
X78861409Y-81113537D01*
X78735896Y-81102606D01*
X78536512Y-81101251D01*
X78348831Y-81118896D01*
X78161594Y-81158286D01*
X77963545Y-81222167D01*
X77743425Y-81313287D01*
X77602448Y-81379100D01*
X77333200Y-81522503D01*
X77093184Y-81681706D01*
X76865811Y-81868627D01*
X76700253Y-82027436D01*
X76617377Y-82111274D01*
X76360977Y-82059236D01*
X76104576Y-82007197D01*
X76173549Y-81858863D01*
X76239188Y-81731110D01*
X76328527Y-81576056D01*
X76433594Y-81406119D01*
X76546414Y-81233713D01*
X76659014Y-81071255D01*
X76763421Y-80931162D01*
X76793533Y-80893410D01*
X76907547Y-80764808D01*
X77054110Y-80616798D01*
X77223432Y-80458044D01*
X77405726Y-80297211D01*
X77591202Y-80142967D01*
X77770073Y-80003978D01*
X77914408Y-79901055D01*
X78257938Y-79684214D01*
X78643640Y-79468140D01*
X79063001Y-79257034D01*
X79507508Y-79055100D01*
X79968651Y-78866543D01*
X80143300Y-78800447D01*
X80356361Y-78728448D01*
X80605573Y-78655504D01*
X80876474Y-78585028D01*
G36*
X70224805Y-86305119D02*
G01*
X70301286Y-86302851D01*
X70409407Y-86301316D01*
X70539587Y-86300677D01*
X70614925Y-86300759D01*
X70922533Y-86301206D01*
X71187294Y-86299853D01*
X71417157Y-86295793D01*
X71620066Y-86288122D01*
X71803966Y-86275932D01*
X71976805Y-86258318D01*
X72146528Y-86234374D01*
X72321082Y-86203194D01*
X72508413Y-86163872D01*
X72716466Y-86115502D01*
X72953189Y-86057178D01*
X73119529Y-86015191D01*
X73985984Y-85795359D01*
X73866196Y-86152061D01*
X73746407Y-86508763D01*
X73496506Y-86655640D01*
X73246812Y-86798883D01*
X73025452Y-86917101D01*
X72819986Y-87015574D01*
X72617980Y-87099585D01*
X72406998Y-87174417D01*
X72174601Y-87245349D01*
X71985514Y-87297376D01*
X71805573Y-87344196D01*
X71664494Y-87378145D01*
X71552520Y-87401079D01*
X71459893Y-87414849D01*
X71376856Y-87421310D01*
X71327196Y-87422452D01*
X71097460Y-87407556D01*
X70898629Y-87357853D01*
X70725147Y-87269967D01*
X70571463Y-87140517D01*
X70432023Y-86966123D01*
X70345170Y-86824894D01*
X70292113Y-86720196D01*
X70245661Y-86609686D01*
X70208825Y-86503364D01*
X70184616Y-86411225D01*
X70176043Y-86343268D01*
X70186115Y-86309492D01*
X70189544Y-86307958D01*
X70224805Y-86305119D01*
G37*
X70224805Y-86305119D02*
X70301286Y-86302851D01*
X70409407Y-86301316D01*
X70539587Y-86300677D01*
X70614925Y-86300759D01*
X70922533Y-86301206D01*
X71187294Y-86299853D01*
X71417157Y-86295793D01*
X71620066Y-86288122D01*
X71803966Y-86275932D01*
X71976805Y-86258318D01*
X72146528Y-86234374D01*
X72321082Y-86203194D01*
X72508413Y-86163872D01*
X72716466Y-86115502D01*
X72953189Y-86057178D01*
X73119529Y-86015191D01*
X73985984Y-85795359D01*
X73866196Y-86152061D01*
X73746407Y-86508763D01*
X73496506Y-86655640D01*
X73246812Y-86798883D01*
X73025452Y-86917101D01*
X72819986Y-87015574D01*
X72617980Y-87099585D01*
X72406998Y-87174417D01*
X72174601Y-87245349D01*
X71985514Y-87297376D01*
X71805573Y-87344196D01*
X71664494Y-87378145D01*
X71552520Y-87401079D01*
X71459893Y-87414849D01*
X71376856Y-87421310D01*
X71327196Y-87422452D01*
X71097460Y-87407556D01*
X70898629Y-87357853D01*
X70725147Y-87269967D01*
X70571463Y-87140517D01*
X70432023Y-86966123D01*
X70345170Y-86824894D01*
X70292113Y-86720196D01*
X70245661Y-86609686D01*
X70208825Y-86503364D01*
X70184616Y-86411225D01*
X70176043Y-86343268D01*
X70186115Y-86309492D01*
X70189544Y-86307958D01*
X70224805Y-86305119D01*
G36*
X84775439Y-77895436D02*
G01*
X84955244Y-77858966D01*
X85105339Y-77838068D01*
X85174871Y-77834162D01*
X85473337Y-77851940D01*
X85746419Y-77912506D01*
X85997795Y-78017517D01*
X86231149Y-78168622D01*
X86450161Y-78367478D01*
X86511976Y-78434832D01*
X86673221Y-78617316D01*
X86749140Y-78900650D01*
X86781546Y-79024122D01*
X86801482Y-79113392D01*
X86809979Y-79183234D01*
X86808070Y-79248418D01*
X86796786Y-79323717D01*
X86783482Y-79392260D01*
X86726714Y-79618059D01*
X86653176Y-79804017D01*
X86559013Y-79959427D01*
X86535099Y-79990498D01*
X86441784Y-80090813D01*
X86311291Y-80207758D01*
X86151702Y-80334892D01*
X85971095Y-80465769D01*
X85781357Y-80591541D01*
X85573641Y-80730557D01*
X85404883Y-80861953D01*
X85265966Y-80994520D01*
X85147773Y-81137049D01*
X85041187Y-81298332D01*
X85031598Y-81314499D01*
X84963181Y-81439563D01*
X84886835Y-81593199D01*
X84811761Y-81756155D01*
X84747160Y-81909176D01*
X84745692Y-81912875D01*
X84640055Y-82161283D01*
X84534550Y-82368677D01*
X84423092Y-82544463D01*
X84299594Y-82698041D01*
X84157974Y-82838820D01*
X84131340Y-82862435D01*
X83992889Y-82978269D01*
X83857566Y-83079395D01*
X83717851Y-83169611D01*
X83566233Y-83252714D01*
X83395195Y-83332502D01*
X83197220Y-83412771D01*
X82964794Y-83497321D01*
X82693560Y-83588908D01*
X82389372Y-83692741D01*
X82091452Y-83801602D01*
X81814268Y-83910030D01*
X81574495Y-84011577D01*
X81516792Y-84035229D01*
X81493788Y-84034501D01*
X81494369Y-84006955D01*
X81497125Y-83994615D01*
X81532004Y-83904805D01*
X81598890Y-83801194D01*
X81699742Y-83681822D01*
X81836521Y-83544730D01*
X82011186Y-83387960D01*
X82225700Y-83209552D01*
X82482021Y-83007546D01*
X82494125Y-82998212D01*
X82686959Y-82848593D01*
X82843776Y-82724032D01*
X82969641Y-82619711D01*
X83069623Y-82530812D01*
X83148789Y-82452517D01*
X83212205Y-82380004D01*
X83264940Y-82308459D01*
X83312060Y-82233060D01*
X83327872Y-82205389D01*
X83365206Y-82137739D01*
X83398949Y-82073223D01*
X83432242Y-82004647D01*
X83468227Y-81924815D01*
X83510044Y-81826532D01*
X83560837Y-81702603D01*
X83623746Y-81545833D01*
X83701913Y-81349028D01*
X83703152Y-81345901D01*
X83774248Y-81170704D01*
X83840286Y-81020517D01*
X83906349Y-80888019D01*
X83977519Y-80765889D01*
X84058879Y-80646810D01*
X84155511Y-80523461D01*
X84272499Y-80388522D01*
X84414925Y-80234674D01*
X84587871Y-80054598D01*
X84629645Y-80011632D01*
X84782622Y-79853057D01*
X84903414Y-79723440D01*
X84996429Y-79616506D01*
X85066078Y-79525979D01*
X85116770Y-79445586D01*
X85152915Y-79369048D01*
X85178922Y-79290092D01*
X85199201Y-79202442D01*
X85199578Y-79200566D01*
X85219409Y-79088730D01*
X85225522Y-79003281D01*
X85217317Y-78921525D01*
X85194203Y-78820776D01*
X85189112Y-78801495D01*
X85137105Y-78645804D01*
X85075402Y-78527916D01*
X85006865Y-78451496D01*
X84934352Y-78420205D01*
X84894000Y-78423508D01*
X84851559Y-78454697D01*
X84850892Y-78513590D01*
X84891917Y-78599113D01*
X84909869Y-78626254D01*
X84953501Y-78693236D01*
X84983392Y-78746551D01*
X84989833Y-78762388D01*
X84972608Y-78763809D01*
X84919198Y-78743655D01*
X84837598Y-78705430D01*
X84735804Y-78652634D01*
X84721336Y-78644790D01*
X84501721Y-78536721D01*
X84246713Y-78433156D01*
X83950130Y-78331693D01*
X83788178Y-78282140D01*
X83693966Y-78254262D01*
X83974120Y-78141910D01*
X84165266Y-78070712D01*
X84369700Y-78004063D01*
X84576675Y-77944719D01*
X84775439Y-77895436D01*
G37*
X84775439Y-77895436D02*
X84955244Y-77858966D01*
X85105339Y-77838068D01*
X85174871Y-77834162D01*
X85473337Y-77851940D01*
X85746419Y-77912506D01*
X85997795Y-78017517D01*
X86231149Y-78168622D01*
X86450161Y-78367478D01*
X86511976Y-78434832D01*
X86673221Y-78617316D01*
X86749140Y-78900650D01*
X86781546Y-79024122D01*
X86801482Y-79113392D01*
X86809979Y-79183234D01*
X86808070Y-79248418D01*
X86796786Y-79323717D01*
X86783482Y-79392260D01*
X86726714Y-79618059D01*
X86653176Y-79804017D01*
X86559013Y-79959427D01*
X86535099Y-79990498D01*
X86441784Y-80090813D01*
X86311291Y-80207758D01*
X86151702Y-80334892D01*
X85971095Y-80465769D01*
X85781357Y-80591541D01*
X85573641Y-80730557D01*
X85404883Y-80861953D01*
X85265966Y-80994520D01*
X85147773Y-81137049D01*
X85041187Y-81298332D01*
X85031598Y-81314499D01*
X84963181Y-81439563D01*
X84886835Y-81593199D01*
X84811761Y-81756155D01*
X84747160Y-81909176D01*
X84745692Y-81912875D01*
X84640055Y-82161283D01*
X84534550Y-82368677D01*
X84423092Y-82544463D01*
X84299594Y-82698041D01*
X84157974Y-82838820D01*
X84131340Y-82862435D01*
X83992889Y-82978269D01*
X83857566Y-83079395D01*
X83717851Y-83169611D01*
X83566233Y-83252714D01*
X83395195Y-83332502D01*
X83197220Y-83412771D01*
X82964794Y-83497321D01*
X82693560Y-83588908D01*
X82389372Y-83692741D01*
X82091452Y-83801602D01*
X81814268Y-83910030D01*
X81574495Y-84011577D01*
X81516792Y-84035229D01*
X81493788Y-84034501D01*
X81494369Y-84006955D01*
X81497125Y-83994615D01*
X81532004Y-83904805D01*
X81598890Y-83801194D01*
X81699742Y-83681822D01*
X81836521Y-83544730D01*
X82011186Y-83387960D01*
X82225700Y-83209552D01*
X82482021Y-83007546D01*
X82494125Y-82998212D01*
X82686959Y-82848593D01*
X82843776Y-82724032D01*
X82969641Y-82619711D01*
X83069623Y-82530812D01*
X83148789Y-82452517D01*
X83212205Y-82380004D01*
X83264940Y-82308459D01*
X83312060Y-82233060D01*
X83327872Y-82205389D01*
X83365206Y-82137739D01*
X83398949Y-82073223D01*
X83432242Y-82004647D01*
X83468227Y-81924815D01*
X83510044Y-81826532D01*
X83560837Y-81702603D01*
X83623746Y-81545833D01*
X83701913Y-81349028D01*
X83703152Y-81345901D01*
X83774248Y-81170704D01*
X83840286Y-81020517D01*
X83906349Y-80888019D01*
X83977519Y-80765889D01*
X84058879Y-80646810D01*
X84155511Y-80523461D01*
X84272499Y-80388522D01*
X84414925Y-80234674D01*
X84587871Y-80054598D01*
X84629645Y-80011632D01*
X84782622Y-79853057D01*
X84903414Y-79723440D01*
X84996429Y-79616506D01*
X85066078Y-79525979D01*
X85116770Y-79445586D01*
X85152915Y-79369048D01*
X85178922Y-79290092D01*
X85199201Y-79202442D01*
X85199578Y-79200566D01*
X85219409Y-79088730D01*
X85225522Y-79003281D01*
X85217317Y-78921525D01*
X85194203Y-78820776D01*
X85189112Y-78801495D01*
X85137105Y-78645804D01*
X85075402Y-78527916D01*
X85006865Y-78451496D01*
X84934352Y-78420205D01*
X84894000Y-78423508D01*
X84851559Y-78454697D01*
X84850892Y-78513590D01*
X84891917Y-78599113D01*
X84909869Y-78626254D01*
X84953501Y-78693236D01*
X84983392Y-78746551D01*
X84989833Y-78762388D01*
X84972608Y-78763809D01*
X84919198Y-78743655D01*
X84837598Y-78705430D01*
X84735804Y-78652634D01*
X84721336Y-78644790D01*
X84501721Y-78536721D01*
X84246713Y-78433156D01*
X83950130Y-78331693D01*
X83788178Y-78282140D01*
X83693966Y-78254262D01*
X83974120Y-78141910D01*
X84165266Y-78070712D01*
X84369700Y-78004063D01*
X84576675Y-77944719D01*
X84775439Y-77895436D01*
G36*
X78463391Y-82279745D02*
G01*
X78596885Y-82267657D01*
X78727534Y-82279659D01*
X78875060Y-82316407D01*
X78937471Y-82336275D01*
X79132520Y-82426876D01*
X79300894Y-82559478D01*
X79440490Y-82731620D01*
X79549203Y-82940842D01*
X79609739Y-83122619D01*
X79643980Y-83311681D01*
X79638666Y-83481830D01*
X79591452Y-83639709D01*
X79499995Y-83791956D01*
X79361954Y-83945213D01*
X79299119Y-84003046D01*
X79219631Y-84072388D01*
X79157472Y-84121418D01*
X79099304Y-84157072D01*
X79031787Y-84186280D01*
X78941582Y-84215979D01*
X78821468Y-84251327D01*
X78686812Y-84288926D01*
X78587712Y-84312174D01*
X78511634Y-84323081D01*
X78446040Y-84323658D01*
X78399597Y-84318985D01*
X78188859Y-84274931D01*
X78014423Y-84201881D01*
X77868106Y-84095370D01*
X77752697Y-83965865D01*
X77710090Y-83903700D01*
X77675767Y-83838530D01*
X77644614Y-83757693D01*
X77611518Y-83648524D01*
X77585022Y-83550613D01*
X77549631Y-83389277D01*
X77831667Y-83313706D01*
X77861241Y-83401970D01*
X77932094Y-83515648D01*
X77972515Y-83569102D01*
X78078932Y-83675179D01*
X78189853Y-83732771D01*
X78300597Y-83741970D01*
X78406478Y-83702871D01*
X78502814Y-83615567D01*
X78543580Y-83557719D01*
X78589427Y-83483476D01*
X78731171Y-83521782D01*
X78823745Y-83539819D01*
X78908642Y-83544847D01*
X78948115Y-83540154D01*
X79022047Y-83495892D01*
X79081589Y-83412412D01*
X79122637Y-83300243D01*
X79141089Y-83169916D01*
X79136473Y-83056834D01*
X79110394Y-82956180D01*
X79066726Y-82901083D01*
X79010591Y-82891656D01*
X78947108Y-82928017D01*
X78881399Y-83010278D01*
X78858479Y-83050590D01*
X78786919Y-83187073D01*
X78675716Y-83178450D01*
X78533258Y-83182408D01*
X78417477Y-83221907D01*
X78329640Y-83286987D01*
X78248800Y-83362874D01*
X78194482Y-83316628D01*
X78077594Y-83231575D01*
X77979574Y-83190895D01*
X77901828Y-83194861D01*
X77845755Y-83243739D01*
X77842606Y-83248974D01*
X77831667Y-83313706D01*
X77549631Y-83389277D01*
X77538277Y-83337513D01*
X77521596Y-83157710D01*
X77536375Y-83002556D01*
X77584011Y-82863408D01*
X77665903Y-82731621D01*
X77729830Y-82654949D01*
X77860797Y-82528183D01*
X78000959Y-82432579D01*
X78165437Y-82359247D01*
X78307331Y-82315262D01*
X78463391Y-82279745D01*
G37*
X78463391Y-82279745D02*
X78596885Y-82267657D01*
X78727534Y-82279659D01*
X78875060Y-82316407D01*
X78937471Y-82336275D01*
X79132520Y-82426876D01*
X79300894Y-82559478D01*
X79440490Y-82731620D01*
X79549203Y-82940842D01*
X79609739Y-83122619D01*
X79643980Y-83311681D01*
X79638666Y-83481830D01*
X79591452Y-83639709D01*
X79499995Y-83791956D01*
X79361954Y-83945213D01*
X79299119Y-84003046D01*
X79219631Y-84072388D01*
X79157472Y-84121418D01*
X79099304Y-84157072D01*
X79031787Y-84186280D01*
X78941582Y-84215979D01*
X78821468Y-84251327D01*
X78686812Y-84288926D01*
X78587712Y-84312174D01*
X78511634Y-84323081D01*
X78446040Y-84323658D01*
X78399597Y-84318985D01*
X78188859Y-84274931D01*
X78014423Y-84201881D01*
X77868106Y-84095370D01*
X77752697Y-83965865D01*
X77710090Y-83903700D01*
X77675767Y-83838530D01*
X77644614Y-83757693D01*
X77611518Y-83648524D01*
X77585022Y-83550613D01*
X77549631Y-83389277D01*
X77831667Y-83313706D01*
X77861241Y-83401970D01*
X77932094Y-83515648D01*
X77972515Y-83569102D01*
X78078932Y-83675179D01*
X78189853Y-83732771D01*
X78300597Y-83741970D01*
X78406478Y-83702871D01*
X78502814Y-83615567D01*
X78543580Y-83557719D01*
X78589427Y-83483476D01*
X78731171Y-83521782D01*
X78823745Y-83539819D01*
X78908642Y-83544847D01*
X78948115Y-83540154D01*
X79022047Y-83495892D01*
X79081589Y-83412412D01*
X79122637Y-83300243D01*
X79141089Y-83169916D01*
X79136473Y-83056834D01*
X79110394Y-82956180D01*
X79066726Y-82901083D01*
X79010591Y-82891656D01*
X78947108Y-82928017D01*
X78881399Y-83010278D01*
X78858479Y-83050590D01*
X78786919Y-83187073D01*
X78675716Y-83178450D01*
X78533258Y-83182408D01*
X78417477Y-83221907D01*
X78329640Y-83286987D01*
X78248800Y-83362874D01*
X78194482Y-83316628D01*
X78077594Y-83231575D01*
X77979574Y-83190895D01*
X77901828Y-83194861D01*
X77845755Y-83243739D01*
X77842606Y-83248974D01*
X77831667Y-83313706D01*
X77549631Y-83389277D01*
X77538277Y-83337513D01*
X77521596Y-83157710D01*
X77536375Y-83002556D01*
X77584011Y-82863408D01*
X77665903Y-82731621D01*
X77729830Y-82654949D01*
X77860797Y-82528183D01*
X78000959Y-82432579D01*
X78165437Y-82359247D01*
X78307331Y-82315262D01*
X78463391Y-82279745D01*
%TD*%
D11*
%TO.P,REF\u002A\u002A,1*%
%TO.N,GND*%
X134721706Y-96449587D03*
%TO.P,REF\u002A\u002A,2*%
X135821706Y-101049587D03*
%TO.P,REF\u002A\u002A,3*%
%TO.N,P3*%
X139821706Y-101049587D03*
%TO.P,REF\u002A\u002A,4*%
%TO.N,VCC*%
X142821706Y-101049587D03*
%TO.P,REF\u002A\u002A,1*%
%TO.N,GND*%
X134721706Y-101049587D03*
%TO.P,REF\u002A\u002A,2*%
X135821706Y-96449587D03*
%TO.P,REF\u002A\u002A,3*%
%TO.N,P3*%
X139821706Y-96449587D03*
%TO.P,REF\u002A\u002A,4*%
%TO.N,VCC*%
X142821706Y-96449587D03*
%TD*%
D12*
%TO.P,,1*%
%TO.N,RAW*%
X144458180Y-64921713D03*
D13*
%TO.P,,2*%
%TO.N,GND*%
X144458180Y-67461713D03*
%TO.P,,3*%
%TO.N,RST*%
X144458180Y-70001713D03*
%TO.P,,4*%
%TO.N,VCC*%
X144458180Y-72541713D03*
%TO.P,,5*%
%TO.N,P21*%
X144458180Y-75081713D03*
%TO.P,,6*%
%TO.N,P20*%
X144458180Y-77621713D03*
%TO.P,,7*%
%TO.N,P19*%
X144458180Y-80161713D03*
%TO.P,,8*%
%TO.N,P18*%
X144458180Y-82701713D03*
%TO.P,,9*%
%TO.N,P15*%
X144458180Y-85241713D03*
%TO.P,,10*%
%TO.N,P14*%
X144458180Y-87781713D03*
%TO.P,,11*%
%TO.N,P16*%
X144458180Y-90321713D03*
%TO.P,,12*%
%TO.N,P10*%
X144458180Y-92861713D03*
%TO.P,,13*%
%TO.N,P1*%
X129218180Y-64921713D03*
%TO.P,,14*%
%TO.N,P0*%
X129218180Y-67461713D03*
%TO.P,,15*%
%TO.N,GND*%
X129218180Y-70001713D03*
%TO.P,,16*%
X129218180Y-72541713D03*
%TO.P,,17*%
%TO.N,P2*%
X129218180Y-75081713D03*
%TO.P,,18*%
%TO.N,P3*%
X129218180Y-77621713D03*
%TO.P,,19*%
%TO.N,P4*%
X129218180Y-80161713D03*
%TO.P,,20*%
%TO.N,P5*%
X129218180Y-82701713D03*
%TO.P,,21*%
%TO.N,P6*%
X129218180Y-85241713D03*
%TO.P,,22*%
%TO.N,P7*%
X129218180Y-87781713D03*
%TO.P,,23*%
%TO.N,P8*%
X129218180Y-90321713D03*
%TO.P,,24*%
%TO.N,P9*%
X129218180Y-92861713D03*
%TD*%
%TA.AperFunction,SMDPad,CuDef*%
D14*
%TO.P,S1,1*%
%TO.N,P15*%
G36*
X47308949Y-96738343D02*
G01*
X46636020Y-94226936D01*
X49147427Y-93554007D01*
X49820356Y-96065414D01*
X47308949Y-96738343D01*
G37*
%TD.AperFunction*%
%TA.AperFunction,SMDPad,CuDef*%
%TO.P,S1,2*%
%TO.N,GND*%
G36*
X36721907Y-101852740D02*
G01*
X36048978Y-99341333D01*
X38560385Y-98668404D01*
X39233314Y-101179811D01*
X36721907Y-101852740D01*
G37*
%TD.AperFunction*%
%TD*%
D15*
%TO.P,REF\u002A\u002A,1*%
%TO.N,P15*%
X44404792Y-93530696D03*
%TD*%
%TO.P,REF\u002A\u002A,1*%
%TO.N,GND*%
X47704735Y-105846251D03*
%TD*%
%TA.AperFunction,SMDPad,CuDef*%
D14*
%TO.P,S2,1*%
%TO.N,P18*%
G36*
X42909025Y-80317604D02*
G01*
X42236096Y-77806197D01*
X44747503Y-77133268D01*
X45420432Y-79644675D01*
X42909025Y-80317604D01*
G37*
%TD.AperFunction*%
%TA.AperFunction,SMDPad,CuDef*%
%TO.P,S2,2*%
%TO.N,GND*%
G36*
X32321983Y-85432001D02*
G01*
X31649054Y-82920594D01*
X34160461Y-82247665D01*
X34833390Y-84759072D01*
X32321983Y-85432001D01*
G37*
%TD.AperFunction*%
%TD*%
D15*
%TO.P,REF\u002A\u002A,1*%
%TO.N,P18*%
X40004868Y-77109957D03*
%TD*%
%TO.P,REF\u002A\u002A,1*%
%TO.N,GND*%
X43304811Y-89425511D03*
%TD*%
D16*
%TO.P,S3,1*%
%TO.N,P21*%
X66113180Y-69441713D03*
%TO.P,S3,2*%
%TO.N,GND*%
X54563180Y-71641713D03*
%TD*%
D15*
%TO.P,REF\u002A\u002A,1*%
%TO.N,P21*%
X62838180Y-66891713D03*
%TD*%
%TO.P,REF\u002A\u002A,1*%
%TO.N,GND*%
X62838180Y-79641713D03*
%TD*%
D16*
%TO.P,S4,1*%
%TO.N,P20*%
X66113180Y-52441713D03*
%TO.P,S4,2*%
%TO.N,GND*%
X54563180Y-54641713D03*
%TD*%
D15*
%TO.P,REF\u002A\u002A,1*%
%TO.N,P20*%
X62838180Y-49891713D03*
%TD*%
%TO.P,REF\u002A\u002A,1*%
%TO.N,GND*%
X62838180Y-62641713D03*
%TD*%
D16*
%TO.P,S5,1*%
%TO.N,P19*%
X66113180Y-35441713D03*
%TO.P,S5,2*%
%TO.N,GND*%
X54563180Y-37641713D03*
%TD*%
D15*
%TO.P,REF\u002A\u002A,1*%
%TO.N,P19*%
X62838180Y-32891713D03*
%TD*%
%TO.P,REF\u002A\u002A,1*%
%TO.N,GND*%
X62838180Y-45641713D03*
%TD*%
D16*
%TO.P,S6,1*%
%TO.N,P7*%
X84113180Y-60941713D03*
%TO.P,S6,2*%
%TO.N,GND*%
X72563180Y-63141713D03*
%TD*%
D15*
%TO.P,REF\u002A\u002A,1*%
%TO.N,P7*%
X80838180Y-58391713D03*
%TD*%
%TO.P,REF\u002A\u002A,1*%
%TO.N,GND*%
X80838180Y-71141713D03*
%TD*%
D16*
%TO.P,S7,1*%
%TO.N,P8*%
X84113180Y-43941713D03*
%TO.P,S7,2*%
%TO.N,GND*%
X72563180Y-46141713D03*
%TD*%
D15*
%TO.P,REF\u002A\u002A,1*%
%TO.N,P8*%
X80838180Y-41391713D03*
%TD*%
%TO.P,REF\u002A\u002A,1*%
%TO.N,GND*%
X80838180Y-54141713D03*
%TD*%
D16*
%TO.P,S8,1*%
%TO.N,P9*%
X84113180Y-26941713D03*
%TO.P,S8,2*%
%TO.N,GND*%
X72563180Y-29141713D03*
%TD*%
D15*
%TO.P,REF\u002A\u002A,1*%
%TO.N,P9*%
X80838180Y-24391713D03*
%TD*%
%TO.P,REF\u002A\u002A,1*%
%TO.N,GND*%
X80838180Y-37141713D03*
%TD*%
D16*
%TO.P,S9,1*%
%TO.N,P4*%
X102113180Y-69441713D03*
%TO.P,S9,2*%
%TO.N,GND*%
X90563180Y-71641713D03*
%TD*%
D15*
%TO.P,REF\u002A\u002A,1*%
%TO.N,P4*%
X98838180Y-66891713D03*
%TD*%
%TO.P,REF\u002A\u002A,1*%
%TO.N,GND*%
X98838180Y-79641713D03*
%TD*%
D16*
%TO.P,S10,1*%
%TO.N,P5*%
X102113180Y-52441713D03*
%TO.P,S10,2*%
%TO.N,GND*%
X90563180Y-54641713D03*
%TD*%
D15*
%TO.P,REF\u002A\u002A,1*%
%TO.N,P5*%
X98838180Y-49891713D03*
%TD*%
%TO.P,REF\u002A\u002A,1*%
%TO.N,GND*%
X98838180Y-62641713D03*
%TD*%
D16*
%TO.P,S11,1*%
%TO.N,P6*%
X102113180Y-35441713D03*
%TO.P,S11,2*%
%TO.N,GND*%
X90563180Y-37641713D03*
%TD*%
D15*
%TO.P,REF\u002A\u002A,1*%
%TO.N,P6*%
X98838180Y-32891713D03*
%TD*%
%TO.P,REF\u002A\u002A,1*%
%TO.N,GND*%
X98838180Y-45641713D03*
%TD*%
D16*
%TO.P,S12,1*%
%TO.N,P2*%
X120113180Y-77941713D03*
%TO.P,S12,2*%
%TO.N,GND*%
X108563180Y-80141713D03*
%TD*%
D15*
%TO.P,REF\u002A\u002A,1*%
%TO.N,P2*%
X116838180Y-75391713D03*
%TD*%
%TO.P,REF\u002A\u002A,1*%
%TO.N,GND*%
X116838180Y-88141713D03*
%TD*%
D16*
%TO.P,S13,1*%
%TO.N,P0*%
X120113180Y-60941713D03*
%TO.P,S13,2*%
%TO.N,GND*%
X108563180Y-63141713D03*
%TD*%
D15*
%TO.P,REF\u002A\u002A,1*%
%TO.N,P0*%
X116838180Y-58391713D03*
%TD*%
%TO.P,REF\u002A\u002A,1*%
%TO.N,GND*%
X116838180Y-71141713D03*
%TD*%
D16*
%TO.P,S14,1*%
%TO.N,P1*%
X120113180Y-43941713D03*
%TO.P,S14,2*%
%TO.N,GND*%
X108563180Y-46141713D03*
%TD*%
D15*
%TO.P,REF\u002A\u002A,1*%
%TO.N,P1*%
X116838180Y-41391713D03*
%TD*%
%TO.P,REF\u002A\u002A,1*%
%TO.N,GND*%
X116838180Y-54141713D03*
%TD*%
%TA.AperFunction,SMDPad,CuDef*%
D14*
%TO.P,S15,1*%
%TO.N,P14*%
G36*
X106449392Y-101161326D02*
G01*
X107122321Y-98649919D01*
X109633728Y-99322848D01*
X108960799Y-101834255D01*
X106449392Y-101161326D01*
G37*
%TD.AperFunction*%
%TA.AperFunction,SMDPad,CuDef*%
%TO.P,S15,2*%
%TO.N,GND*%
G36*
X94723547Y-100297003D02*
G01*
X95396476Y-97785596D01*
X97907883Y-98458525D01*
X97234954Y-100969932D01*
X94723547Y-100297003D01*
G37*
%TD.AperFunction*%
%TD*%
D15*
%TO.P,REF\u002A\u002A,1*%
%TO.N,P14*%
X105538142Y-96931344D03*
%TD*%
%TO.P,REF\u002A\u002A,1*%
%TO.N,GND*%
X102238199Y-109246898D03*
%TD*%
%TA.AperFunction,SMDPad,CuDef*%
D14*
%TO.P,S16,1*%
%TO.N,P16*%
G36*
X123836057Y-105820069D02*
G01*
X124508986Y-103308662D01*
X127020393Y-103981591D01*
X126347464Y-106492998D01*
X123836057Y-105820069D01*
G37*
%TD.AperFunction*%
%TA.AperFunction,SMDPad,CuDef*%
%TO.P,S16,2*%
%TO.N,GND*%
G36*
X112110212Y-104955746D02*
G01*
X112783141Y-102444339D01*
X115294548Y-103117268D01*
X114621619Y-105628675D01*
X112110212Y-104955746D01*
G37*
%TD.AperFunction*%
%TD*%
D15*
%TO.P,REF\u002A\u002A,1*%
%TO.N,P16*%
X122924807Y-101590087D03*
%TD*%
%TO.P,REF\u002A\u002A,1*%
%TO.N,GND*%
X119624864Y-113905641D03*
%TD*%
%TA.AperFunction,SMDPad,CuDef*%
D14*
%TO.P,S17,1*%
%TO.N,P10*%
G36*
X141222722Y-110478812D02*
G01*
X141895651Y-107967405D01*
X144407058Y-108640334D01*
X143734129Y-111151741D01*
X141222722Y-110478812D01*
G37*
%TD.AperFunction*%
%TA.AperFunction,SMDPad,CuDef*%
%TO.P,S17,2*%
%TO.N,GND*%
G36*
X129496877Y-109614489D02*
G01*
X130169806Y-107103082D01*
X132681213Y-107776011D01*
X132008284Y-110287418D01*
X129496877Y-109614489D01*
G37*
%TD.AperFunction*%
%TD*%
D15*
%TO.P,REF\u002A\u002A,1*%
%TO.N,P10*%
X140311472Y-106248829D03*
%TD*%
%TO.P,REF\u002A\u002A,1*%
%TO.N,GND*%
X137011529Y-118564384D03*
%TD*%
D17*
%TO.N,P15*%
X45105725Y-93349709D02*
X44405427Y-93537352D01*
X48228822Y-95152832D02*
X45105725Y-93349709D01*
%TO.N,GND*%
X134068910Y-112392145D02*
X137018051Y-118594721D01*
X131120682Y-108758612D02*
X134068910Y-112392145D01*
X116676357Y-107709720D02*
X119625499Y-113912297D01*
X113728129Y-104076188D02*
X116676357Y-107709720D01*
X99285540Y-103045673D02*
X102234682Y-109248250D01*
X96337312Y-99412141D02*
X99285540Y-103045673D01*
X42055825Y-101962864D02*
X47711145Y-105859882D01*
X37685818Y-100290247D02*
X42055825Y-101962864D01*
X37650125Y-85535148D02*
X43305445Y-89432166D01*
X33280120Y-83862530D02*
X37650125Y-85535148D01*
X58375420Y-74441298D02*
X62829418Y-79669233D01*
X54587224Y-71694634D02*
X58375420Y-74441298D01*
X58375421Y-57423298D02*
X62829418Y-62651233D01*
X54587225Y-54676632D02*
X58375421Y-57423298D01*
X58375420Y-40430698D02*
X62829418Y-45658633D01*
X54587224Y-37684033D02*
X58375420Y-40430698D01*
X76384022Y-31947099D02*
X80838018Y-37175033D01*
X72595824Y-29200434D02*
X76384022Y-31947099D01*
X76384021Y-48939698D02*
X80838019Y-54167633D01*
X72595824Y-46193033D02*
X76384021Y-48939698D01*
X76384819Y-65920434D02*
X80838817Y-71148369D01*
X72596622Y-63173769D02*
X76384819Y-65920434D01*
X94392621Y-74441299D02*
X98846618Y-79669233D01*
X90604424Y-71694633D02*
X94392621Y-74441299D01*
X94384819Y-57420435D02*
X98838815Y-62648369D01*
X90596621Y-54673770D02*
X94384819Y-57420435D01*
X94384818Y-40420434D02*
X98838816Y-45648369D01*
X90596621Y-37673769D02*
X94384818Y-40420434D01*
X112384818Y-48920433D02*
X116838815Y-54148368D01*
X108596622Y-46173768D02*
X112384818Y-48920433D01*
X112384818Y-65920433D02*
X116838815Y-71148368D01*
X108596621Y-63173768D02*
X112384818Y-65920433D01*
X108596621Y-80173768D02*
X112384818Y-82920432D01*
X112384818Y-82920432D02*
X116838815Y-88148368D01*
X102238834Y-109253554D02*
X119625499Y-113912297D01*
X119625499Y-113912297D02*
X137012166Y-118571040D01*
X33241858Y-83846489D02*
X37641781Y-100267228D01*
X54563816Y-37648367D02*
X54563815Y-71648368D01*
X72563815Y-29148370D02*
X72563817Y-63148369D01*
X90563816Y-37648369D02*
X90563816Y-71648369D01*
X108563815Y-46148368D02*
X108563815Y-80148368D01*
X98838816Y-79648368D02*
X108563815Y-80148368D01*
X80838817Y-71148369D02*
X90563816Y-71648369D01*
X72563817Y-63148369D02*
X72511920Y-77213460D01*
X72511920Y-77213460D02*
X62838815Y-79648368D01*
X43305445Y-89432166D02*
X62838815Y-79648368D01*
X113703015Y-104043163D02*
X116838815Y-88148368D01*
X116838815Y-71148368D02*
X129218815Y-70008368D01*
X129218815Y-70008368D02*
X129218815Y-72548368D01*
X129218815Y-70008368D02*
X144458815Y-67468368D01*
X141317980Y-84641513D02*
X129218180Y-72541713D01*
X141317980Y-97109280D02*
X141317980Y-84641513D01*
X137377673Y-101049587D02*
X141317980Y-97109280D01*
X135821706Y-101049587D02*
X137377673Y-101049587D01*
X135748204Y-101123089D02*
X135821706Y-101049587D01*
X135821706Y-103962589D02*
X131089045Y-108695250D01*
X135821706Y-101049587D02*
X135821706Y-103962589D01*
%TO.N,P18*%
X40705801Y-76928970D02*
X40005504Y-77116613D01*
X43828899Y-78732091D02*
X40705801Y-76928970D01*
%TO.N,P21*%
X63563816Y-66898369D02*
X62838817Y-66898369D01*
X66113815Y-69448368D02*
X63563816Y-66898369D01*
%TO.N,P20*%
X63563819Y-49898371D02*
X62838815Y-49898371D01*
X66113817Y-52448369D02*
X63563819Y-49898371D01*
%TO.N,P19*%
X63563819Y-32898370D02*
X62838815Y-32898370D01*
X66113816Y-35448367D02*
X63563819Y-32898370D01*
%TO.N,P7*%
X81563817Y-58398369D02*
X80838815Y-58398369D01*
X84113817Y-60948369D02*
X81563817Y-58398369D01*
%TO.N,P8*%
X81563815Y-41398370D02*
X80838814Y-41398370D01*
X84113815Y-43948370D02*
X81563815Y-41398370D01*
%TO.N,P9*%
X81563813Y-24398368D02*
X80838814Y-24398368D01*
X84113815Y-26948370D02*
X81563813Y-24398368D01*
%TO.N,P4*%
X99563817Y-66898369D02*
X98838815Y-66898367D01*
X102113815Y-69448370D02*
X99563817Y-66898369D01*
%TO.N,P5*%
X99563816Y-49898368D02*
X98838815Y-49898368D01*
X102113816Y-52448368D02*
X99563816Y-49898368D01*
%TO.N,P6*%
X99563814Y-32898368D02*
X98838815Y-32898368D01*
X102113815Y-35448371D02*
X99563814Y-32898368D01*
%TO.N,P2*%
X117563816Y-75398369D02*
X116838815Y-75398369D01*
X120113815Y-77948368D02*
X117563816Y-75398369D01*
X126358816Y-77948368D02*
X129218815Y-75088370D01*
X120113815Y-77948368D02*
X126358816Y-77948368D01*
%TO.N,P0*%
X117563815Y-58398369D02*
X116838815Y-58398369D01*
X120113815Y-60948368D02*
X117563815Y-58398369D01*
X128859818Y-67468369D02*
X129218815Y-67468368D01*
X122339819Y-60948368D02*
X128859818Y-67468369D01*
X122065922Y-60948368D02*
X122339819Y-60948368D01*
X120113815Y-60948368D02*
X122065922Y-60948368D01*
%TO.N,P1*%
X120113815Y-43948368D02*
X123027788Y-43948370D01*
X125814455Y-46735038D02*
X125814455Y-63786597D01*
X126956227Y-64928369D02*
X129218816Y-64928369D01*
X125814455Y-63786597D02*
X126956227Y-64928369D01*
X123027788Y-43948370D02*
X125789055Y-46709635D01*
X125789055Y-46709635D02*
X125408053Y-46328636D01*
X117563816Y-41398369D02*
X116838815Y-41398369D01*
X120113815Y-43948368D02*
X117563816Y-41398369D01*
%TO.N,P14*%
X106239075Y-97125645D02*
X105538777Y-96938001D01*
X108042196Y-100248742D02*
X106239075Y-97125645D01*
%TO.N,P16*%
X123625738Y-101784386D02*
X122925442Y-101596743D01*
X125428859Y-104907486D02*
X123625738Y-101784386D01*
%TO.N,P10*%
X141012402Y-106443128D02*
X140312107Y-106255484D01*
X142815526Y-109566228D02*
X141012402Y-106443128D01*
%TO.N,VCC*%
X142819549Y-74187634D02*
X144458815Y-72548368D01*
X142821706Y-94098566D02*
X142819550Y-94096410D01*
X142821706Y-96449587D02*
X142821706Y-94098566D01*
X142819550Y-94096410D02*
X142819549Y-74187634D01*
X142819550Y-94262370D02*
X142819550Y-94096410D01*
%TO.N,P3*%
X139821706Y-88225239D02*
X129218180Y-77621713D01*
X139821706Y-96449587D02*
X139821706Y-88225239D01*
%TD*%
M02*
