M48
; DRILL file {KiCad (5.1.9)-1} date 06/26/21 19:41:35
; FORMAT={-:-/ absolute / inch / decimal}
; #@! TF.CreationDate,2021-06-26T19:41:35+02:00
; #@! TF.GenerationSoftware,Kicad,Pcbnew,(5.1.9)-1
FMAT,2
INCH
T1C0.0118
T2C0.0430
T3C0.0500
T4C0.0670
T5C0.1350
%
G90
G05
T1
X3.3206Y0.6956
T2
X3.0403Y1.8952
X3.0403Y1.7952
X3.0403Y1.6952
X3.0403Y1.5952
X3.0403Y1.4952
X3.0403Y1.3952
X3.0403Y1.2952
X3.0403Y1.1952
X3.0403Y1.0952
X3.0403Y0.9952
X3.0403Y0.8952
X3.0403Y0.7952
X3.6403Y1.8952
X3.6403Y1.7952
X3.6403Y1.6952
X3.6403Y1.5952
X3.6403Y1.4952
X3.6403Y1.3952
X3.6403Y1.2952
X3.6403Y1.1952
X3.6403Y1.0952
X3.6403Y0.9952
X3.6403Y0.8952
X3.6403Y0.7952
T3
X0.1333Y0.7172
X0.3021Y0.848
X0.3021Y0.848
X0.3066Y0.0708
X0.4753Y0.2016
X0.4753Y0.2016
X0.5136Y0.8191
X0.6869Y0.1727
X0.8116Y1.7842
X0.87Y1.1174
X1.0005Y1.8837
X1.0005Y1.8837
X1.0588Y1.2169
X1.0588Y1.2169
X1.2038Y1.8185
X1.2622Y1.1517
X1.608Y2.0919
X1.608Y1.4226
X1.8048Y2.1746
X1.8048Y2.1746
X1.8048Y1.5053
X1.8048Y1.5053
X2.0017Y2.0919
X2.0017Y1.4226
X2.3166Y1.8688
X2.3166Y1.1995
X2.5135Y1.9515
X2.5135Y1.9515
X2.5135Y1.2822
X2.5135Y1.2822
X2.7103Y1.8688
X2.7103Y1.1995
X3.7794Y0.4186
X3.9909Y0.4475
X3.9909Y0.4475
X4.1597Y0.3167
T4
X0.1531Y0.5676
X0.3263Y-0.0788
X0.5714Y0.6797
X0.7446Y0.0332
X0.805Y1.6334
X0.8634Y0.9667
X1.2365Y1.6712
X1.2948Y1.0044
X1.5883Y1.9423
X1.5883Y1.273
X2.0214Y1.9423
X2.0214Y1.273
X2.297Y1.7192
X2.297Y1.0499
X2.73Y1.7192
X2.73Y1.0499
X3.7217Y0.2792
X4.14Y0.1671
T5
X0.3622Y0.6237
X0.5354Y-0.0228
X1.0208Y1.6523
X1.0791Y0.9855
X1.8048Y1.9423
X1.8048Y1.273
X2.5135Y1.7192
X2.5135Y1.0499
X3.9308Y0.2231
T0
M30
