%TF.GenerationSoftware,KiCad,Pcbnew,(5.1.9)-1*%
%TF.CreationDate,2021-06-26T19:41:31+02:00*%
%TF.ProjectId,idiosepius_thailandicus_choc,6964696f-7365-4706-9975-735f74686169,VERSION_HERE*%
%TF.SameCoordinates,Original*%
%TF.FileFunction,Profile,NP*%
%FSLAX46Y46*%
G04 Gerber Fmt 4.6, Leading zero omitted, Abs format (unit mm)*
G04 Created by KiCad (PCBNEW (5.1.9)-1) date 2021-06-26 19:41:31*
%MOMM*%
%LPD*%
G01*
G04 APERTURE LIST*
%TA.AperFunction,Profile*%
%ADD10C,0.150000*%
%TD*%
G04 APERTURE END LIST*
D10*
X8072632Y-10860183D02*
X23527445Y-6719078D01*
X24234552Y-5494333D02*
G75*
G02*
X23527445Y-6719078I-965926J-258819D01*
G01*
X20352266Y8994554D02*
X24234552Y-5494333D01*
X-1434323Y20756550D02*
X6847887Y-10153076D01*
X8072631Y-10860182D02*
G75*
G02*
X6847887Y-10153076I-258819J965925D01*
G01*
X-727216Y21981295D02*
X17387354Y26835080D01*
X-1434323Y20756550D02*
G75*
G02*
X-727216Y21981295I965926J258819D01*
G01*
X35277194Y14028953D02*
X21059373Y10219299D01*
X17789497Y31719879D02*
X18124729Y27888161D01*
X17789497Y31719879D02*
X17615186Y33712269D01*
X16307850Y48655189D02*
X17615186Y33712269D01*
X17216889Y49738540D02*
X35929890Y51375715D01*
X16307849Y48655190D02*
G75*
G02*
X17216889Y49738540I996195J87155D01*
G01*
X54842735Y53167217D02*
X54842735Y56833883D01*
X53842735Y57833883D02*
G75*
G02*
X54842735Y56833883I0J-1000000D01*
G01*
X53842735Y57833883D02*
X37842735Y57833883D01*
X36842735Y56833883D02*
G75*
G02*
X37842735Y57833883I1000000J0D01*
G01*
X36842735Y56833883D02*
X36842735Y52371910D01*
X94842735Y26667217D02*
X94842735Y51167217D01*
X94842735Y26667217D02*
X94842735Y19167217D01*
X93842735Y18167217D02*
X93629332Y18167217D01*
X55842735Y52167217D02*
X93842735Y52167217D01*
X35794832Y14028953D02*
X105370179Y-4613705D01*
X106594923Y-3906599D02*
G75*
G02*
X105370179Y-4613705I-965925J258819D01*
G01*
X106594924Y-3906599D02*
X110477210Y10582289D01*
X109770103Y11807034D02*
G75*
G02*
X110477210Y10582289I-258819J-965926D01*
G01*
X93370513Y16201291D02*
X109770103Y11807034D01*
X20352266Y8994554D02*
G75*
G02*
X21059373Y10219299I965926J258819D01*
G01*
X35277194Y14028953D02*
G75*
G02*
X35794832Y14028953I258819J-965926D01*
G01*
X93370513Y16201291D02*
G75*
G02*
X93629332Y18167217I258819J965926D01*
G01*
X94842735Y19167217D02*
G75*
G02*
X93842735Y18167217I-1000000J0D01*
G01*
X93842735Y52167217D02*
G75*
G02*
X94842735Y51167217I0J-1000000D01*
G01*
X55842735Y52167217D02*
G75*
G02*
X54842735Y53167217I0J1000000D01*
G01*
X36842735Y52371909D02*
G75*
G02*
X35929890Y51375715I-1000000J1D01*
G01*
X18124729Y27888161D02*
G75*
G02*
X17387354Y26835080I-996194J-87156D01*
G01*
M02*
