%TF.GenerationSoftware,KiCad,Pcbnew,(5.1.9)-1*%
%TF.CreationDate,2021-06-26T19:40:30+02:00*%
%TF.ProjectId,idiosepius_thailandicus,6964696f-7365-4706-9975-735f74686169,VERSION_HERE*%
%TF.SameCoordinates,Original*%
%TF.FileFunction,Profile,NP*%
%FSLAX46Y46*%
G04 Gerber Fmt 4.6, Leading zero omitted, Abs format (unit mm)*
G04 Created by KiCad (PCBNEW (5.1.9)-1) date 2021-06-26 19:40:30*
%MOMM*%
%LPD*%
G01*
G04 APERTURE LIST*
%TA.AperFunction,Profile*%
%ADD10C,0.150000*%
%TD*%
%TA.AperFunction,Profile*%
%ADD11C,0.120000*%
%TD*%
G04 APERTURE END LIST*
D10*
X8753309Y-10166819D02*
X24208122Y-6025714D01*
X24915231Y-4800967D02*
G75*
G02*
X24208122Y-6025714I-965928J-258819D01*
G01*
X21032942Y9687918D02*
X24915228Y-4800967D01*
X-753646Y21449915D02*
X7528564Y-9459710D01*
X8753307Y-10166817D02*
G75*
G02*
X7528564Y-9459710I-258818J965925D01*
G01*
X-46539Y22674661D02*
X18068031Y27528446D01*
X-753648Y21449916D02*
G75*
G02*
X-46539Y22674661I965927J258818D01*
G01*
X35957870Y14722317D02*
X21740050Y10912664D01*
X18470175Y32413243D02*
X18805405Y28581525D01*
X18470175Y32413243D02*
X18295863Y34405633D01*
X16988527Y49348554D02*
X18295863Y34405633D01*
X17897566Y50431905D02*
X36610567Y52069080D01*
X16988527Y49348554D02*
G75*
G02*
X17897566Y50431905I996195J87156D01*
G01*
X55523412Y53860582D02*
X55523413Y57527248D01*
X54523412Y58527249D02*
G75*
G02*
X55523413Y57527248I0J-1000001D01*
G01*
X54523412Y58527248D02*
X38523412Y58527247D01*
X37523413Y57527248D02*
G75*
G02*
X38523412Y58527247I999999J0D01*
G01*
X37523413Y57527247D02*
X37523412Y53065274D01*
X95523412Y27360583D02*
X95523413Y51860582D01*
X95523412Y27360583D02*
X95523412Y19860581D01*
X94523412Y18860582D02*
X94310009Y18860582D01*
X56523412Y52860582D02*
X94523412Y52860582D01*
X36475509Y14722318D02*
X106050856Y-3920340D01*
X107275600Y-3213234D02*
G75*
G02*
X106050856Y-3920340I-965925J258819D01*
G01*
X107275601Y-3213234D02*
X111157887Y11275655D01*
X110450780Y12500400D02*
G75*
G02*
X111157887Y11275655I-258819J-965926D01*
G01*
X94051190Y16894656D02*
X110450780Y12500399D01*
X21032943Y9687917D02*
G75*
G02*
X21740050Y10912664I965927J258820D01*
G01*
X35957871Y14722318D02*
G75*
G02*
X36475509Y14722318I258819J-965925D01*
G01*
X94051190Y16894656D02*
G75*
G02*
X94310009Y18860582I258819J965926D01*
G01*
X95523412Y19860582D02*
G75*
G02*
X94523412Y18860582I-1000000J0D01*
G01*
X94523413Y52860584D02*
G75*
G02*
X95523413Y51860582I-1J-1000001D01*
G01*
X56523411Y52860581D02*
G75*
G02*
X55523412Y53860582I1J1000000D01*
G01*
X37523412Y53065274D02*
G75*
G02*
X36610567Y52069080I-1000000J1D01*
G01*
X18805404Y28581525D02*
G75*
G02*
X18068031Y27528446I-996192J-87156D01*
G01*
D11*
%TO.C,S1*%
X17127016Y-1814960D02*
X20556052Y-896153D01*
X12780349Y-2979646D02*
X9351313Y-3898454D01*
X17385835Y-2780886D02*
X17127016Y-1814960D01*
X13039168Y-3945572D02*
X17385835Y-2780886D01*
X12780349Y-2979646D02*
X13039168Y-3945572D01*
X9351313Y-3898454D02*
X7914867Y1462435D01*
X19119607Y4464736D02*
X20556052Y-896153D01*
X7914867Y1462435D02*
X19119607Y4464736D01*
%TO.C,S2*%
X12727093Y14605779D02*
X16156129Y15524586D01*
X8380426Y13441093D02*
X4951390Y12522285D01*
X12985912Y13639853D02*
X12727093Y14605779D01*
X8639245Y12475167D02*
X12985912Y13639853D01*
X8380426Y13441093D02*
X8639245Y12475167D01*
X4951390Y12522285D02*
X3514944Y17883174D01*
X14719684Y20885475D02*
X16156129Y15524586D01*
X3514944Y17883174D02*
X14719684Y20885475D01*
%TO.C,S3*%
X30557638Y23332181D02*
X34094129Y23641584D01*
X26074762Y22939980D02*
X22538271Y22630577D01*
X30644794Y22335987D02*
X30557638Y23332181D01*
X26161918Y21943786D02*
X30644794Y22335987D01*
X26074762Y22939980D02*
X26161918Y21943786D01*
X22538271Y22630577D02*
X22054556Y28159458D01*
X33610415Y29170465D02*
X34094129Y23641584D01*
X22054556Y28159458D02*
X33610415Y29170465D01*
%TO.C,S4*%
X29075990Y40267490D02*
X32612481Y40576893D01*
X24593114Y39875289D02*
X21056623Y39565886D01*
X29163146Y39271296D02*
X29075990Y40267490D01*
X24680270Y38879095D02*
X29163146Y39271296D01*
X24593114Y39875289D02*
X24680270Y38879095D01*
X21056623Y39565886D02*
X20572908Y45094767D01*
X32128767Y46105774D02*
X32612481Y40576893D01*
X20572908Y45094767D02*
X32128767Y46105774D01*
%TO.C,S5*%
X48773412Y30427248D02*
X52323412Y30427248D01*
X44273412Y30427248D02*
X40723412Y30427248D01*
X48773412Y29427248D02*
X48773412Y30427248D01*
X44273412Y29427248D02*
X48773412Y29427248D01*
X44273412Y30427248D02*
X44273412Y29427248D01*
X40723412Y30427248D02*
X40723412Y35977248D01*
X52323412Y35977248D02*
X52323412Y30427248D01*
X40723412Y35977248D02*
X52323412Y35977248D01*
%TO.C,S6*%
X48773412Y47427248D02*
X52323412Y47427248D01*
X44273412Y47427248D02*
X40723412Y47427248D01*
X48773412Y46427248D02*
X48773412Y47427248D01*
X44273412Y46427248D02*
X48773412Y46427248D01*
X44273412Y47427248D02*
X44273412Y46427248D01*
X40723412Y47427248D02*
X40723412Y52977248D01*
X52323412Y52977248D02*
X52323412Y47427248D01*
X40723412Y52977248D02*
X52323412Y52977248D01*
%TO.C,S7*%
X66773413Y24760582D02*
X70323413Y24760582D01*
X62273413Y24760582D02*
X58723413Y24760582D01*
X66773413Y23760582D02*
X66773413Y24760582D01*
X62273413Y23760582D02*
X66773413Y23760582D01*
X62273413Y24760582D02*
X62273413Y23760582D01*
X58723413Y24760582D02*
X58723413Y30310582D01*
X70323413Y30310582D02*
X70323413Y24760582D01*
X58723413Y30310582D02*
X70323413Y30310582D01*
%TO.C,S8*%
X66773412Y41760582D02*
X70323412Y41760582D01*
X62273412Y41760582D02*
X58723412Y41760582D01*
X66773412Y40760582D02*
X66773412Y41760582D01*
X62273412Y40760582D02*
X66773412Y40760582D01*
X62273412Y41760582D02*
X62273412Y40760582D01*
X58723412Y41760582D02*
X58723412Y47310582D01*
X70323412Y47310582D02*
X70323412Y41760582D01*
X58723412Y47310582D02*
X70323412Y47310582D01*
%TO.C,S9*%
X102023816Y3266831D02*
X105452852Y2348023D01*
X97677149Y4431517D02*
X94248113Y5350324D01*
X101764997Y2300905D02*
X102023816Y3266831D01*
X97418330Y3465591D02*
X101764997Y2300905D01*
X97677149Y4431517D02*
X97418330Y3465591D01*
X94248113Y5350324D02*
X95684558Y10711213D01*
X106889298Y7708912D02*
X105452852Y2348023D01*
X95684558Y10711213D02*
X106889298Y7708912D01*
%TD*%
M02*
