%TF.GenerationSoftware,KiCad,Pcbnew,(5.1.9)-1*%
%TF.CreationDate,2021-06-26T19:41:31+02:00*%
%TF.ProjectId,idiosepius_thailandicus_choc,6964696f-7365-4706-9975-735f74686169,VERSION_HERE*%
%TF.SameCoordinates,Original*%
%TF.FileFunction,Copper,L1,Top*%
%TF.FilePolarity,Positive*%
%FSLAX46Y46*%
G04 Gerber Fmt 4.6, Leading zero omitted, Abs format (unit mm)*
G04 Created by KiCad (PCBNEW (5.1.9)-1) date 2021-06-26 19:41:31*
%MOMM*%
%LPD*%
G01*
G04 APERTURE LIST*
%TA.AperFunction,ComponentPad*%
%ADD10C,2.032000*%
%TD*%
%TA.AperFunction,ComponentPad*%
%ADD11R,1.752600X1.752600*%
%TD*%
%TA.AperFunction,ComponentPad*%
%ADD12C,1.752600*%
%TD*%
%TA.AperFunction,SMDPad,CuDef*%
%ADD13R,0.635000X1.143000*%
%TD*%
%TA.AperFunction,ComponentPad*%
%ADD14C,0.600000*%
%TD*%
%TA.AperFunction,Conductor*%
%ADD15C,0.250000*%
%TD*%
G04 APERTURE END LIST*
D10*
%TO.P,S1,1*%
%TO.N,GND*%
X17446193Y4385352D03*
%TO.P,S1,2*%
%TO.N,P10*%
X12073044Y5119701D03*
%TO.P,S1,1*%
%TO.N,GND*%
X7786934Y1797162D03*
%TO.P,S1,2*%
%TO.N,P10*%
X12073044Y5119701D03*
%TD*%
%TO.P,S2,1*%
%TO.N,GND*%
X13046270Y20806091D03*
%TO.P,S2,2*%
%TO.N,P16*%
X7673121Y21540440D03*
%TO.P,S2,1*%
%TO.N,GND*%
X3387011Y18217901D03*
%TO.P,S2,2*%
%TO.N,P16*%
X7673121Y21540440D03*
%TD*%
%TO.P,S3,1*%
%TO.N,GND*%
X32058700Y29254140D03*
%TO.P,S3,2*%
%TO.N,P14*%
X26894699Y30910370D03*
%TO.P,S3,1*%
%TO.N,GND*%
X22096753Y28382582D03*
%TO.P,S3,2*%
%TO.N,P14*%
X26894699Y30910370D03*
%TD*%
%TO.P,S4,1*%
%TO.N,GND*%
X30577052Y46189450D03*
%TO.P,S4,2*%
%TO.N,P15*%
X25413051Y47845680D03*
%TO.P,S4,1*%
%TO.N,GND*%
X20615105Y45317892D03*
%TO.P,S4,2*%
%TO.N,P15*%
X25413051Y47845680D03*
%TD*%
%TO.P,S5,1*%
%TO.N,GND*%
X50842735Y36133883D03*
%TO.P,S5,2*%
%TO.N,P18*%
X45842735Y38233883D03*
%TO.P,S5,1*%
%TO.N,GND*%
X40842735Y36133883D03*
%TO.P,S5,2*%
%TO.N,P18*%
X45842735Y38233883D03*
%TD*%
%TO.P,S6,1*%
%TO.N,GND*%
X50842735Y53133883D03*
%TO.P,S6,2*%
%TO.N,P19*%
X45842735Y55233883D03*
%TO.P,S6,1*%
%TO.N,GND*%
X40842735Y53133883D03*
%TO.P,S6,2*%
%TO.N,P19*%
X45842735Y55233883D03*
%TD*%
%TO.P,S7,1*%
%TO.N,GND*%
X68842735Y30467217D03*
%TO.P,S7,2*%
%TO.N,P20*%
X63842735Y32567217D03*
%TO.P,S7,1*%
%TO.N,GND*%
X58842735Y30467217D03*
%TO.P,S7,2*%
%TO.N,P20*%
X63842735Y32567217D03*
%TD*%
%TO.P,S8,1*%
%TO.N,GND*%
X68842735Y47467217D03*
%TO.P,S8,2*%
%TO.N,P21*%
X63842735Y49567217D03*
%TO.P,S8,1*%
%TO.N,GND*%
X58842735Y47467217D03*
%TO.P,S8,2*%
%TO.N,P21*%
X63842735Y49567217D03*
%TD*%
%TO.P,S9,1*%
%TO.N,GND*%
X105655877Y8043640D03*
%TO.P,S9,2*%
%TO.N,P9*%
X101369767Y11366179D03*
%TO.P,S9,1*%
%TO.N,GND*%
X95996618Y10631830D03*
%TO.P,S9,2*%
%TO.N,P9*%
X101369767Y11366179D03*
%TD*%
D11*
%TO.P,C1,1*%
%TO.N,RAW*%
X77222735Y48137217D03*
D12*
%TO.P,C1,2*%
%TO.N,GND*%
X77222735Y45597217D03*
%TO.P,C1,3*%
%TO.N,RST*%
X77222735Y43057217D03*
%TO.P,C1,4*%
%TO.N,VCC*%
X77222735Y40517217D03*
%TO.P,C1,5*%
%TO.N,P21*%
X77222735Y37977217D03*
%TO.P,C1,6*%
%TO.N,P20*%
X77222735Y35437217D03*
%TO.P,C1,7*%
%TO.N,P19*%
X77222735Y32897217D03*
%TO.P,C1,8*%
%TO.N,P18*%
X77222735Y30357217D03*
%TO.P,C1,9*%
%TO.N,P15*%
X77222735Y27817217D03*
%TO.P,C1,10*%
%TO.N,P14*%
X77222735Y25277217D03*
%TO.P,C1,11*%
%TO.N,P16*%
X77222735Y22737217D03*
%TO.P,C1,12*%
%TO.N,P10*%
X77222735Y20197217D03*
%TO.P,C1,13*%
%TO.N,P1*%
X92462735Y48137217D03*
%TO.P,C1,14*%
%TO.N,P0*%
X92462735Y45597217D03*
%TO.P,C1,15*%
%TO.N,GND*%
X92462735Y43057217D03*
%TO.P,C1,16*%
X92462735Y40517217D03*
%TO.P,C1,17*%
%TO.N,P2*%
X92462735Y37977217D03*
%TO.P,C1,18*%
%TO.N,P3*%
X92462735Y35437217D03*
%TO.P,C1,19*%
%TO.N,P4*%
X92462735Y32897217D03*
%TO.P,C1,20*%
%TO.N,P5*%
X92462735Y30357217D03*
%TO.P,C1,21*%
%TO.N,P6*%
X92462735Y27817217D03*
%TO.P,C1,22*%
%TO.N,P7*%
X92462735Y25277217D03*
%TO.P,C1,23*%
%TO.N,P8*%
X92462735Y22737217D03*
%TO.P,C1,24*%
%TO.N,P9*%
X92462735Y20197217D03*
%TD*%
D13*
%TO.P,J1,1*%
%TO.N,GND*%
X84342355Y17667217D03*
%TO.P,J1,2*%
X85343115Y17667217D03*
%TD*%
D14*
%TO.P,REF\u002A\u002A,1*%
%TO.N,GND*%
X84342735Y17667217D03*
%TD*%
D15*
%TO.N,GND*%
X7786934Y1797162D02*
X17446193Y4385352D01*
X3387011Y18217901D02*
X13046270Y20806091D01*
X22096753Y28382582D02*
X32058700Y29254140D01*
X20615105Y45317892D02*
X30577052Y46189450D01*
X40842735Y36133883D02*
X50842735Y36133883D01*
X58842735Y30467217D02*
X68842735Y30467217D01*
X58842735Y47467217D02*
X68842735Y47467217D01*
X40842735Y53133883D02*
X50842735Y53133883D01*
X95996618Y10631830D02*
X105655877Y8043640D01*
X17446193Y4385352D02*
X17446193Y10456193D01*
X17446193Y10456193D02*
X24657217Y17667217D01*
X21518343Y20806091D02*
X24657217Y17667217D01*
X13046270Y20806091D02*
X21518343Y20806091D01*
X38938443Y36133883D02*
X32058700Y29254140D01*
X40842735Y36133883D02*
X38938443Y36133883D01*
X53176069Y36133883D02*
X58842735Y30467217D01*
X50842735Y36133883D02*
X53176069Y36133883D01*
X33898302Y46189450D02*
X40842735Y53133883D01*
X30577052Y46189450D02*
X33898302Y46189450D01*
X56509401Y47467217D02*
X50842735Y53133883D01*
X58842735Y47467217D02*
X56509401Y47467217D01*
X33898302Y46189450D02*
X38938443Y36133883D01*
X53176069Y36133883D02*
X56509401Y47467217D01*
X13046270Y20806091D02*
X22096753Y28382582D01*
X32058700Y29254140D02*
X40842783Y17667217D01*
X24657217Y17667217D02*
X40842783Y17667217D01*
X58842735Y30467217D02*
X50872783Y17667217D01*
X40842783Y17667217D02*
X50872783Y17667217D01*
X68842735Y30467217D02*
X75957217Y17667217D01*
X75957217Y17667217D02*
X84342735Y17667217D01*
X50872783Y17667217D02*
X75957217Y17667217D01*
X85343115Y37476837D02*
X77222735Y45597217D01*
X85343115Y17667217D02*
X85343115Y37476837D01*
X95996618Y10631830D02*
X84370000Y16670000D01*
X84370000Y16670000D02*
X84342355Y17667217D01*
%TD*%
M02*
