%TF.GenerationSoftware,KiCad,Pcbnew,(5.1.9)-1*%
%TF.CreationDate,2021-06-29T13:01:43+02:00*%
%TF.ProjectId,todarodes_pacificus,746f6461-726f-4646-9573-5f7061636966,VERSION_HERE*%
%TF.SameCoordinates,Original*%
%TF.FileFunction,Copper,L2,Bot*%
%TF.FilePolarity,Positive*%
%FSLAX46Y46*%
G04 Gerber Fmt 4.6, Leading zero omitted, Abs format (unit mm)*
G04 Created by KiCad (PCBNEW (5.1.9)-1) date 2021-06-29 13:01:43*
%MOMM*%
%LPD*%
G01*
G04 APERTURE LIST*
%TA.AperFunction,ComponentPad*%
%ADD10C,1.600000*%
%TD*%
%TA.AperFunction,ComponentPad*%
%ADD11C,0.100000*%
%TD*%
%TA.AperFunction,ComponentPad*%
%ADD12C,1.752600*%
%TD*%
%TA.AperFunction,Conductor*%
%ADD13C,0.250000*%
%TD*%
G04 APERTURE END LIST*
D10*
%TO.P,S6,3*%
%TO.N,N/C*%
X54869207Y30490719D03*
%TO.P,S6,4*%
X44269207Y30490719D03*
%TO.P,S6,1*%
%TO.N,P4*%
X44989207Y20640719D03*
%TO.P,S6,2*%
%TO.N,GND*%
X51569207Y20340719D03*
%TO.P,S6,1*%
%TO.N,P4*%
X54149207Y20640719D03*
%TO.P,S6,2*%
%TO.N,GND*%
X47569207Y20340719D03*
%TD*%
%TO.P,S1,3*%
%TO.N,N/C*%
X18434938Y2827957D03*
%TO.P,S1,4*%
X8196125Y84475D03*
%TO.P,S1,1*%
%TO.N,P8*%
X11440959Y-9243545D03*
%TO.P,S1,2*%
%TO.N,GND*%
X17874396Y-7830293D03*
%TO.P,S1,1*%
%TO.N,P8*%
X20288839Y-6872762D03*
%TO.P,S1,2*%
%TO.N,GND*%
X14010693Y-8865570D03*
%TD*%
%TO.P,S2,3*%
%TO.N,N/C*%
X14035013Y19248695D03*
%TO.P,S2,4*%
X3796200Y16505213D03*
%TO.P,S2,1*%
%TO.N,P9*%
X7041034Y7177193D03*
%TO.P,S2,2*%
%TO.N,GND*%
X13474471Y8590445D03*
%TO.P,S2,1*%
%TO.N,P9*%
X15888914Y9547976D03*
%TO.P,S2,2*%
%TO.N,GND*%
X9610768Y7555168D03*
%TD*%
%TO.P,S3,3*%
%TO.N,N/C*%
X35315781Y23655973D03*
%TO.P,S3,4*%
X24756117Y22732122D03*
%TO.P,S3,1*%
%TO.N,P5*%
X26331862Y12982357D03*
%TO.P,S3,2*%
%TO.N,GND*%
X32912969Y13256983D03*
%TO.P,S3,1*%
%TO.N,P5*%
X35457005Y13780703D03*
%TO.P,S3,2*%
%TO.N,GND*%
X28928191Y12908360D03*
%TD*%
%TO.P,S4,3*%
%TO.N,N/C*%
X33834133Y40591282D03*
%TO.P,S4,4*%
X23274469Y39667431D03*
%TO.P,S4,1*%
%TO.N,P16*%
X24850214Y29917666D03*
%TO.P,S4,2*%
%TO.N,GND*%
X31431321Y30192292D03*
%TO.P,S4,1*%
%TO.N,P16*%
X33975357Y30716012D03*
%TO.P,S4,2*%
%TO.N,GND*%
X27446543Y29843669D03*
%TD*%
%TO.P,S5,3*%
%TO.N,N/C*%
X32352486Y57526592D03*
%TO.P,S5,4*%
X21792822Y56602741D03*
%TO.P,S5,1*%
%TO.N,P21*%
X23368567Y46852976D03*
%TO.P,S5,2*%
%TO.N,GND*%
X29949674Y47127602D03*
%TO.P,S5,1*%
%TO.N,P21*%
X32493710Y47651322D03*
%TO.P,S5,2*%
%TO.N,GND*%
X25964896Y46778979D03*
%TD*%
%TO.P,S7,3*%
%TO.N,N/C*%
X54869209Y47490720D03*
%TO.P,S7,4*%
X44269209Y47490720D03*
%TO.P,S7,1*%
%TO.N,P14*%
X44989209Y37640720D03*
%TO.P,S7,2*%
%TO.N,GND*%
X51569209Y37340720D03*
%TO.P,S7,1*%
%TO.N,P14*%
X54149209Y37640720D03*
%TO.P,S7,2*%
%TO.N,GND*%
X47569209Y37340720D03*
%TD*%
%TO.P,S8,3*%
%TO.N,N/C*%
X54869206Y64490719D03*
%TO.P,S8,4*%
X44269206Y64490719D03*
%TO.P,S8,1*%
%TO.N,P20*%
X44989206Y54640719D03*
%TO.P,S8,2*%
%TO.N,GND*%
X51569206Y54340719D03*
%TO.P,S8,1*%
%TO.N,P20*%
X54149206Y54640719D03*
%TO.P,S8,2*%
%TO.N,GND*%
X47569206Y54340719D03*
%TD*%
%TO.P,S9,3*%
%TO.N,N/C*%
X74544678Y24279360D03*
%TO.P,S9,4*%
X63985014Y25203211D03*
%TO.P,S9,1*%
%TO.N,P3*%
X63843790Y15327941D03*
%TO.P,S9,2*%
%TO.N,GND*%
X70372604Y14455598D03*
%TO.P,S9,1*%
%TO.N,P3*%
X72968933Y14529595D03*
%TO.P,S9,2*%
%TO.N,GND*%
X66387826Y14804221D03*
%TD*%
%TO.P,S10,3*%
%TO.N,N/C*%
X76026325Y41214671D03*
%TO.P,S10,4*%
X65466661Y42138522D03*
%TO.P,S10,1*%
%TO.N,P15*%
X65325437Y32263252D03*
%TO.P,S10,2*%
%TO.N,GND*%
X71854251Y31390909D03*
%TO.P,S10,1*%
%TO.N,P15*%
X74450580Y31464906D03*
%TO.P,S10,2*%
%TO.N,GND*%
X67869473Y31739532D03*
%TD*%
%TO.P,S11,3*%
%TO.N,N/C*%
X77507974Y58149980D03*
%TO.P,S11,4*%
X66948310Y59073831D03*
%TO.P,S11,1*%
%TO.N,P19*%
X66807086Y49198561D03*
%TO.P,S11,2*%
%TO.N,GND*%
X73335900Y48326218D03*
%TO.P,S11,1*%
%TO.N,P19*%
X75932229Y48400215D03*
%TO.P,S11,2*%
%TO.N,GND*%
X69351122Y48674841D03*
%TD*%
%TO.P,S12,3*%
%TO.N,N/C*%
X92229241Y19888007D03*
%TO.P,S12,4*%
X81669577Y20811858D03*
%TO.P,S12,1*%
%TO.N,P10*%
X81528353Y10936588D03*
%TO.P,S12,2*%
%TO.N,GND*%
X88057167Y10064245D03*
%TO.P,S12,1*%
%TO.N,P10*%
X90653496Y10138242D03*
%TO.P,S12,2*%
%TO.N,GND*%
X84072389Y10412868D03*
%TD*%
%TO.P,S13,3*%
%TO.N,N/C*%
X93710889Y36823316D03*
%TO.P,S13,4*%
X83151225Y37747167D03*
%TO.P,S13,1*%
%TO.N,P18*%
X83010001Y27871897D03*
%TO.P,S13,2*%
%TO.N,GND*%
X89538815Y26999554D03*
%TO.P,S13,1*%
%TO.N,P18*%
X92135144Y27073551D03*
%TO.P,S13,2*%
%TO.N,GND*%
X85554037Y27348177D03*
%TD*%
%TO.P,S14,3*%
%TO.N,N/C*%
X77649453Y3616800D03*
%TO.P,S14,4*%
X67210491Y5457471D03*
%TO.P,S14,1*%
%TO.N,P7*%
X66209118Y-4367912D03*
%TO.P,S14,2*%
%TO.N,GND*%
X72637058Y-5805959D03*
%TO.P,S14,1*%
%TO.N,P7*%
X75229957Y-5958529D03*
%TO.P,S14,2*%
%TO.N,GND*%
X68697827Y-5111367D03*
%TD*%
%TO.P,S15,3*%
%TO.N,N/C*%
X97130146Y-2559476D03*
%TO.P,S15,4*%
X87169404Y1065938D03*
%TO.P,S15,1*%
%TO.N,P6*%
X84477084Y-8436289D03*
%TO.P,S15,2*%
%TO.N,GND*%
X90557655Y-10968689D03*
%TO.P,S15,1*%
%TO.N,P6*%
X93084668Y-11569194D03*
%TO.P,S15,2*%
%TO.N,GND*%
X86798885Y-9600609D03*
%TD*%
%TA.AperFunction,ComponentPad*%
D11*
%TO.P,C1,1*%
%TO.N,RAW*%
G36*
X14811020Y56590490D02*
G01*
X16556951Y56743239D01*
X16709700Y54997308D01*
X14963769Y54844559D01*
X14811020Y56590490D01*
G37*
%TD.AperFunction*%
D12*
%TO.P,C1,2*%
%TO.N,GND*%
X15981735Y53263564D03*
%TO.P,C1,3*%
%TO.N,RST*%
X16203111Y50733230D03*
%TO.P,C1,4*%
%TO.N,VCC*%
X16424487Y48202895D03*
%TO.P,C1,5*%
%TO.N,P21*%
X16645862Y45672561D03*
%TO.P,C1,6*%
%TO.N,P20*%
X16867238Y43142226D03*
%TO.P,C1,7*%
%TO.N,P19*%
X17088613Y40611891D03*
%TO.P,C1,8*%
%TO.N,P18*%
X17309989Y38081557D03*
%TO.P,C1,9*%
%TO.N,P15*%
X17531365Y35551222D03*
%TO.P,C1,10*%
%TO.N,P14*%
X17752740Y33020888D03*
%TO.P,C1,11*%
%TO.N,P16*%
X17974116Y30490553D03*
%TO.P,C1,12*%
%TO.N,P10*%
X18195491Y27960219D03*
%TO.P,C1,13*%
%TO.N,P1*%
X578353Y54465645D03*
%TO.P,C1,14*%
%TO.N,P0*%
X799728Y51935311D03*
%TO.P,C1,15*%
%TO.N,GND*%
X1021104Y49404976D03*
%TO.P,C1,16*%
X1242479Y46874642D03*
%TO.P,C1,17*%
%TO.N,P2*%
X1463855Y44344307D03*
%TO.P,C1,18*%
%TO.N,P3*%
X1685231Y41813973D03*
%TO.P,C1,19*%
%TO.N,P4*%
X1906606Y39283638D03*
%TO.P,C1,20*%
%TO.N,P5*%
X2127982Y36753303D03*
%TO.P,C1,21*%
%TO.N,P6*%
X2349357Y34222969D03*
%TO.P,C1,22*%
%TO.N,P7*%
X2570733Y31692634D03*
%TO.P,C1,23*%
%TO.N,P8*%
X2792109Y29162300D03*
%TO.P,C1,24*%
%TO.N,P9*%
X3013484Y26631965D03*
%TD*%
%TO.P,REF\u002A\u002A,1*%
%TO.N,GND*%
%TA.AperFunction,ComponentPad*%
G36*
G01*
X100305351Y11803363D02*
X100357645Y12401079D01*
G75*
G02*
X101224326Y13128310I796956J-69725D01*
G01*
X101224326Y13128310D01*
G75*
G02*
X101951557Y12261629I-69725J-796956D01*
G01*
X101899263Y11663913D01*
G75*
G02*
X101032582Y10936682I-796956J69725D01*
G01*
X101032582Y10936682D01*
G75*
G02*
X100305351Y11803363I69725J796956D01*
G01*
G37*
%TD.AperFunction*%
%TO.P,REF\u002A\u002A,2*%
%TA.AperFunction,ComponentPad*%
G36*
G01*
X95818727Y13300093D02*
X95871021Y13897809D01*
G75*
G02*
X96737702Y14625040I796956J-69725D01*
G01*
X96737702Y14625040D01*
G75*
G02*
X97464933Y13758359I-69725J-796956D01*
G01*
X97412639Y13160643D01*
G75*
G02*
X96545958Y12433412I-796956J69725D01*
G01*
X96545958Y12433412D01*
G75*
G02*
X95818727Y13300093I69725J796956D01*
G01*
G37*
%TD.AperFunction*%
%TO.P,REF\u002A\u002A,3*%
%TO.N,P2*%
%TA.AperFunction,ComponentPad*%
G36*
G01*
X96167350Y17284872D02*
X96219644Y17882588D01*
G75*
G02*
X97086325Y18609819I796956J-69725D01*
G01*
X97086325Y18609819D01*
G75*
G02*
X97813556Y17743138I-69725J-796956D01*
G01*
X97761262Y17145422D01*
G75*
G02*
X96894581Y16418191I-796956J69725D01*
G01*
X96894581Y16418191D01*
G75*
G02*
X96167350Y17284872I69725J796956D01*
G01*
G37*
%TD.AperFunction*%
%TO.P,REF\u002A\u002A,4*%
%TO.N,VCC*%
%TA.AperFunction,ComponentPad*%
G36*
G01*
X96428817Y20273456D02*
X96481111Y20871172D01*
G75*
G02*
X97347792Y21598403I796956J-69725D01*
G01*
X97347792Y21598403D01*
G75*
G02*
X98075023Y20731722I-69725J-796956D01*
G01*
X98022729Y20134006D01*
G75*
G02*
X97156048Y19406775I-796956J69725D01*
G01*
X97156048Y19406775D01*
G75*
G02*
X96428817Y20273456I69725J796956D01*
G01*
G37*
%TD.AperFunction*%
%TO.P,REF\u002A\u002A,1*%
%TO.N,GND*%
%TA.AperFunction,ComponentPad*%
G36*
G01*
X95722855Y12204279D02*
X95775149Y12801995D01*
G75*
G02*
X96641830Y13529226I796956J-69725D01*
G01*
X96641830Y13529226D01*
G75*
G02*
X97369061Y12662545I-69725J-796956D01*
G01*
X97316767Y12064829D01*
G75*
G02*
X96450086Y11337598I-796956J69725D01*
G01*
X96450086Y11337598D01*
G75*
G02*
X95722855Y12204279I69725J796956D01*
G01*
G37*
%TD.AperFunction*%
%TO.P,REF\u002A\u002A,2*%
%TA.AperFunction,ComponentPad*%
G36*
G01*
X100401222Y12899177D02*
X100453516Y13496893D01*
G75*
G02*
X101320197Y14224124I796956J-69725D01*
G01*
X101320197Y14224124D01*
G75*
G02*
X102047428Y13357443I-69725J-796956D01*
G01*
X101995134Y12759727D01*
G75*
G02*
X101128453Y12032496I-796956J69725D01*
G01*
X101128453Y12032496D01*
G75*
G02*
X100401222Y12899177I69725J796956D01*
G01*
G37*
%TD.AperFunction*%
%TO.P,REF\u002A\u002A,3*%
%TO.N,P2*%
%TA.AperFunction,ComponentPad*%
G36*
G01*
X100749845Y16883956D02*
X100802139Y17481672D01*
G75*
G02*
X101668820Y18208903I796956J-69725D01*
G01*
X101668820Y18208903D01*
G75*
G02*
X102396051Y17342222I-69725J-796956D01*
G01*
X102343757Y16744506D01*
G75*
G02*
X101477076Y16017275I-796956J69725D01*
G01*
X101477076Y16017275D01*
G75*
G02*
X100749845Y16883956I69725J796956D01*
G01*
G37*
%TD.AperFunction*%
%TO.P,REF\u002A\u002A,4*%
%TO.N,VCC*%
%TA.AperFunction,ComponentPad*%
G36*
G01*
X101011313Y19872540D02*
X101063607Y20470256D01*
G75*
G02*
X101930288Y21197487I796956J-69725D01*
G01*
X101930288Y21197487D01*
G75*
G02*
X102657519Y20330806I-69725J-796956D01*
G01*
X102605225Y19733090D01*
G75*
G02*
X101738544Y19005859I-796956J69725D01*
G01*
X101738544Y19005859D01*
G75*
G02*
X101011313Y19872540I69725J796956D01*
G01*
G37*
%TD.AperFunction*%
%TD*%
D13*
%TO.N,P8*%
X18923260Y-6084345D02*
X20288839Y-6872762D01*
X12229376Y-7877966D02*
X18923260Y-6084345D01*
X11440958Y-9243545D02*
X12229376Y-7877966D01*
%TO.N,P9*%
X14523336Y10336393D02*
X15888914Y9547976D01*
X7829451Y8542772D02*
X14523336Y10336393D01*
X7041034Y7177193D02*
X7829451Y8542772D01*
X17050000Y10709062D02*
X15888914Y9547976D01*
X17050000Y19718579D02*
X17050000Y10709062D01*
X10136614Y26631965D02*
X17050000Y19718579D01*
X3013484Y26631965D02*
X10136614Y26631965D01*
%TO.N,P8*%
X8242689Y29162300D02*
X2792109Y29162300D01*
X17500010Y8867566D02*
X17500009Y19904980D01*
X18688788Y7678788D02*
X17500010Y8867566D01*
X17500009Y19904980D02*
X8242689Y29162300D01*
X21233387Y-3026613D02*
X18688788Y7678788D01*
X21233387Y-5928214D02*
X21233387Y-3026613D01*
X20288839Y-6872762D02*
X21233387Y-5928214D01*
%TO.N,P5*%
X34249080Y14794272D02*
X35457005Y13780703D01*
X27345431Y14190281D02*
X34249080Y14794272D01*
X26331862Y12982356D02*
X27345431Y14190281D01*
X2560916Y36753303D02*
X2127982Y36753303D01*
X26331862Y12982357D02*
X2560916Y36753303D01*
%TO.N,P16*%
X32767432Y31729582D02*
X33975357Y30716013D01*
X25863783Y31125591D02*
X32767432Y31729582D01*
X24850213Y29917666D02*
X25863783Y31125591D01*
X18547003Y29917666D02*
X17974116Y30490553D01*
X24850214Y29917666D02*
X18547003Y29917666D01*
%TO.N,P21*%
X31285785Y48664892D02*
X32493710Y47651323D01*
X24382136Y48060901D02*
X31285785Y48664892D01*
X23368567Y46852976D02*
X24382136Y48060901D01*
X17826277Y46852976D02*
X16645862Y45672561D01*
X23368567Y46852976D02*
X17826277Y46852976D01*
%TO.N,P4*%
X44989207Y20640719D02*
X41159281Y20640719D01*
X41159281Y20640719D02*
X36560000Y25240000D01*
X36560000Y25240000D02*
X24090000Y25240000D01*
X22210000Y23360000D02*
X16590629Y23360000D01*
X24090000Y25240000D02*
X22210000Y23360000D01*
X16590629Y23360000D02*
X4420000Y35530629D01*
X4420000Y36770244D02*
X1906606Y39283638D01*
X4420000Y35530629D02*
X4420000Y36770244D01*
X44989208Y20640720D02*
X46104199Y21755708D01*
X53034218Y21755709D02*
X54149209Y20640719D01*
X46104199Y21755708D02*
X53034218Y21755709D01*
%TO.N,P14*%
X46104199Y38755709D02*
X53034219Y38755709D01*
X53034219Y38755709D02*
X54149208Y37640719D01*
X44989208Y37640719D02*
X46104199Y38755709D01*
X20090020Y35358168D02*
X17752740Y33020888D01*
X22670000Y42000000D02*
X20090020Y39420020D01*
X20090020Y39420020D02*
X20090020Y35358168D01*
X35080000Y42000000D02*
X22670000Y42000000D01*
X39439280Y37640720D02*
X35080000Y42000000D01*
X44989209Y37640720D02*
X39439280Y37640720D01*
%TO.N,P20*%
X53034219Y55755710D02*
X54149208Y54640719D01*
X46104196Y55755709D02*
X53034219Y55755710D01*
X44989209Y54640719D02*
X46104196Y55755709D01*
X44989206Y54640719D02*
X42160719Y54640719D01*
X42160719Y54640719D02*
X32500000Y44980000D01*
X18705012Y44980000D02*
X16867238Y43142226D01*
X32500000Y44980000D02*
X18705012Y44980000D01*
%TO.N,P3*%
X71955365Y15737521D02*
X72968933Y14529596D01*
X65051715Y16341510D02*
X71955365Y15737521D01*
X63843792Y15327942D02*
X65051715Y16341510D01*
X63843790Y15327941D02*
X59310000Y19861731D01*
X59310000Y19861731D02*
X59310000Y30790000D01*
X59310000Y30790000D02*
X57940000Y32160000D01*
X42490000Y32160000D02*
X36020010Y25690010D01*
X57940000Y32160000D02*
X42490000Y32160000D01*
X23840010Y25690010D02*
X21960010Y23810010D01*
X36020010Y25690010D02*
X23840010Y25690010D01*
X21960010Y23810010D02*
X16777029Y23810010D01*
X4870010Y38629194D02*
X1685231Y41813973D01*
X4870010Y35717029D02*
X4870010Y38629194D01*
X16777029Y23810010D02*
X4870010Y35717029D01*
%TO.N,P15*%
X73437010Y32672831D02*
X74450580Y31464906D01*
X66533362Y33276821D02*
X73437010Y32672831D01*
X65325436Y32263253D02*
X66533362Y33276821D01*
X19640010Y37659867D02*
X17531365Y35551222D01*
X22314851Y42450009D02*
X19640010Y39775168D01*
X35840010Y42450010D02*
X22314851Y42450009D01*
X42740000Y49350000D02*
X35840010Y42450010D01*
X55950000Y49350000D02*
X42740000Y49350000D01*
X58300000Y47000000D02*
X55950000Y49350000D01*
X58300000Y36500000D02*
X58300000Y47000000D01*
X19640010Y39775168D02*
X19640010Y37659867D01*
X62536748Y32263252D02*
X58300000Y36500000D01*
X65325437Y32263252D02*
X62536748Y32263252D01*
%TO.N,P19*%
X74918660Y49608140D02*
X75932230Y48400214D01*
X68015011Y50212132D02*
X74918660Y49608140D01*
X66807085Y49198561D02*
X68015011Y50212132D01*
X18448361Y41971639D02*
X17088613Y40611891D01*
X18448361Y44028361D02*
X18448361Y41971639D01*
X18949990Y44529990D02*
X18448361Y44028361D01*
X32686400Y44529990D02*
X18949990Y44529990D01*
X40786410Y52630000D02*
X32686400Y44529990D01*
X60840000Y52630000D02*
X40786410Y52630000D01*
X64271439Y49198561D02*
X60840000Y52630000D01*
X66807086Y49198561D02*
X64271439Y49198561D01*
%TO.N,P10*%
X89639928Y11346166D02*
X90653497Y10138240D01*
X82736279Y11950157D02*
X89639928Y11346166D01*
X81528353Y10936588D02*
X82736279Y11950157D01*
X77550018Y14914923D02*
X81528353Y10936588D01*
X77550018Y25172800D02*
X77550018Y14914923D01*
X74662801Y28060019D02*
X77550018Y25172800D01*
X63949208Y28060020D02*
X74662801Y28060019D01*
X58499200Y33510028D02*
X63949208Y28060020D01*
X41930799Y33510027D02*
X58499200Y33510028D01*
X35460808Y27040038D02*
X41930799Y33510027D01*
X19115672Y27040038D02*
X35460808Y27040038D01*
X18195491Y27960219D02*
X19115672Y27040038D01*
%TO.N,P18*%
X91121575Y28281476D02*
X92135145Y27073551D01*
X84217927Y28885466D02*
X91121575Y28281476D01*
X83010001Y27871897D02*
X84217927Y28885466D01*
X81178103Y27871897D02*
X83010001Y27871897D01*
X79090000Y29960000D02*
X81178103Y27871897D01*
X79090000Y41080000D02*
X79090000Y29960000D01*
X59216410Y46720000D02*
X73450000Y46720000D01*
X56136400Y49800010D02*
X59216410Y46720000D01*
X42553599Y49800009D02*
X56136400Y49800010D01*
X73450000Y46720000D02*
X79090000Y41080000D01*
X35653608Y42900018D02*
X42553599Y49800009D01*
X22128450Y42900018D02*
X35653608Y42900018D01*
X19190000Y39961568D02*
X22128450Y42900018D01*
X19190000Y38620000D02*
X19190000Y39961568D01*
X18651557Y38081557D02*
X19190000Y38620000D01*
X17309989Y38081557D02*
X18651557Y38081557D01*
%TO.N,P7*%
X74325521Y-4666862D02*
X75229958Y-5958530D01*
X67500785Y-3463478D02*
X74325521Y-4666862D01*
X66209118Y-4367913D02*
X67500785Y-3463478D01*
X65034921Y-3193715D02*
X66209118Y-4367912D01*
X2570733Y31692634D02*
X6348765Y31692634D01*
X58911865Y17800000D02*
X65750000Y10961865D01*
X6348765Y31692634D02*
X17950019Y20091380D01*
X17950019Y20091380D02*
X17950019Y16663571D01*
X17950019Y16663571D02*
X23592962Y11020628D01*
X35843749Y11020629D02*
X39273365Y14450245D01*
X65750000Y10961865D02*
X65750000Y2271182D01*
X23592962Y11020628D02*
X35843749Y11020629D01*
X39273365Y14450245D02*
X39273365Y16814422D01*
X39273365Y16814422D02*
X40258943Y17800000D01*
X40258943Y17800000D02*
X58911865Y17800000D01*
X65750000Y2271182D02*
X65034921Y-1784239D01*
X65034921Y-1784239D02*
X65034921Y-3193715D01*
%TO.N,P6*%
X92418270Y-10140097D02*
X93084669Y-11569194D01*
X85906182Y-7769890D02*
X92418270Y-10140097D01*
X84477085Y-8436289D02*
X85906182Y-7769890D01*
X80970000Y-4929205D02*
X84477084Y-8436289D01*
X4454840Y34222969D02*
X18400027Y20277782D01*
X18400027Y20277782D02*
X18400028Y16849972D01*
X2349357Y34222969D02*
X4454840Y34222969D01*
X18400028Y16849972D02*
X23779362Y11470638D01*
X23779362Y11470638D02*
X35657348Y11470638D01*
X38823355Y14636645D02*
X38823355Y17000822D01*
X38823355Y17000822D02*
X40072542Y18250009D01*
X64017678Y13330597D02*
X70639403Y13330597D01*
X40072542Y18250009D02*
X59098265Y18250010D01*
X59098265Y18250010D02*
X64017678Y13330597D01*
X70639403Y13330597D02*
X80970000Y3000000D01*
X35657348Y11470638D02*
X38823355Y14636645D01*
X80970000Y3000000D02*
X80970000Y-4929205D01*
%TO.N,VCC*%
X97251920Y20502589D02*
X94439990Y17690659D01*
X94439990Y17690659D02*
X94439990Y10776400D01*
X94439990Y10776400D02*
X91803600Y8140010D01*
X91803600Y8140010D02*
X79176400Y8140010D01*
X79176400Y8140010D02*
X77100010Y10216400D01*
X77100010Y10216400D02*
X77100009Y24986401D01*
X77100009Y24986401D02*
X74476400Y27610010D01*
X63762810Y27610010D02*
X58312799Y33060019D01*
X74476400Y27610010D02*
X63762810Y27610010D01*
X42117198Y33060018D02*
X35647208Y26590028D01*
X58312799Y33060019D02*
X42117198Y33060018D01*
X35647208Y26590028D02*
X23467208Y26590028D01*
X21870000Y25020000D02*
X21560030Y24710030D01*
X21897180Y25020000D02*
X21870000Y25020000D01*
X23467208Y26590028D02*
X21897180Y25020000D01*
X21560030Y24710030D02*
X17149829Y24710030D01*
X17149829Y24710030D02*
X13740000Y28119859D01*
X13740000Y45518408D02*
X16424487Y48202895D01*
X13740000Y28119859D02*
X13740000Y45518408D01*
X101433500Y20502589D02*
X101834416Y20101673D01*
X97251920Y20502589D02*
X101433500Y20502589D01*
%TO.N,P2*%
X5320020Y40488142D02*
X1463855Y44344307D01*
X16963429Y24260020D02*
X5320020Y35903429D01*
X21773610Y24260020D02*
X16963429Y24260020D01*
X23653609Y26140019D02*
X21773610Y24260020D01*
X5320020Y35903429D02*
X5320020Y40488142D01*
X63576410Y27160000D02*
X58126400Y32610010D01*
X76650000Y24800000D02*
X74290000Y27160000D01*
X91990000Y7690000D02*
X78990000Y7690000D01*
X58126400Y32610010D02*
X42303599Y32610009D01*
X76650000Y10030000D02*
X76650000Y24800000D01*
X42303599Y32610009D02*
X35833610Y26140020D01*
X78990000Y7690000D02*
X76650000Y10030000D01*
X35833610Y26140020D02*
X23653609Y26140019D01*
X74290000Y27160000D02*
X63576410Y27160000D01*
X96990453Y17514005D02*
X94890000Y15413552D01*
X94890000Y10590000D02*
X91990000Y7690000D01*
X94890000Y15413552D02*
X94890000Y10590000D01*
X101172032Y17514005D02*
X101572948Y17113089D01*
X96990453Y17514005D02*
X101172032Y17514005D01*
%TD*%
M02*
