%TF.GenerationSoftware,KiCad,Pcbnew,(5.1.9)-1*%
%TF.CreationDate,2021-06-29T13:01:43+02:00*%
%TF.ProjectId,todarodes_pacificus,746f6461-726f-4646-9573-5f7061636966,VERSION_HERE*%
%TF.SameCoordinates,Original*%
%TF.FileFunction,Legend,Top*%
%TF.FilePolarity,Positive*%
%FSLAX46Y46*%
G04 Gerber Fmt 4.6, Leading zero omitted, Abs format (unit mm)*
G04 Created by KiCad (PCBNEW (5.1.9)-1) date 2021-06-29 13:01:43*
%MOMM*%
%LPD*%
G01*
G04 APERTURE LIST*
%ADD10C,0.150000*%
G04 APERTURE END LIST*
D10*
%TO.C,C1*%
X14605880Y54418044D02*
X17136215Y54639419D01*
X14384505Y56948378D02*
X16914839Y57169754D01*
X14384505Y56948378D02*
X14605880Y54418044D01*
X16693464Y59700088D02*
X-1018878Y58150459D01*
X19571346Y26805739D02*
X16693464Y59700088D01*
X1859005Y25256110D02*
X19571346Y26805739D01*
X-1018878Y58150459D02*
X1859005Y25256110D01*
X12432354Y55139448D02*
X12133499Y55495709D01*
X11976950Y55099605D02*
X11907226Y55896561D01*
X12210828Y55923123D01*
X12290049Y55891813D01*
X12331319Y55857183D01*
X12375910Y55784602D01*
X12385871Y55670752D01*
X12354561Y55591531D01*
X12319931Y55550260D01*
X12247350Y55505670D01*
X11943748Y55479108D01*
X12716034Y55393711D02*
X13095537Y55426913D01*
X12660055Y55159369D02*
X12855983Y55979566D01*
X13191359Y55205852D01*
X13311386Y56019409D02*
X13570862Y55239054D01*
X13672860Y55821589D01*
X13874464Y55265616D01*
X13994491Y56079173D01*
X12530399Y53363139D02*
X12451178Y53394449D01*
X12337327Y53384488D01*
X12226797Y53336577D01*
X12157537Y53254036D01*
X12126227Y53174815D01*
X12101557Y53019694D01*
X12111518Y52905843D01*
X12162749Y52757362D01*
X12207340Y52684782D01*
X12289881Y52615522D01*
X12407052Y52587532D01*
X12482952Y52594173D01*
X12593483Y52642084D01*
X12628113Y52683354D01*
X12604871Y52949006D01*
X12453070Y52935725D01*
X12976306Y52637336D02*
X12906581Y53434291D01*
X13431709Y52677178D01*
X13361985Y53474134D01*
X13811212Y52710380D02*
X13741487Y53507336D01*
X13931239Y53523937D01*
X14048410Y53495948D01*
X14130951Y53426688D01*
X14175541Y53354107D01*
X14226773Y53205626D01*
X14236733Y53091775D01*
X14212064Y52936654D01*
X14180754Y52857433D01*
X14111494Y52774892D01*
X14000963Y52726981D01*
X13811212Y52710380D01*
X12988955Y50088739D02*
X12690101Y50445001D01*
X12533552Y50048897D02*
X12463828Y50845853D01*
X12767430Y50872414D01*
X12846651Y50841104D01*
X12887921Y50806474D01*
X12932512Y50733894D01*
X12942472Y50620043D01*
X12911163Y50540822D01*
X12876532Y50499552D01*
X12803952Y50454961D01*
X12500350Y50428399D01*
X13289237Y50153251D02*
X13406408Y50125262D01*
X13596160Y50141863D01*
X13668740Y50186454D01*
X13703370Y50227724D01*
X13734680Y50306945D01*
X13728040Y50382845D01*
X13683449Y50455426D01*
X13642178Y50490056D01*
X13562958Y50521366D01*
X13407836Y50546035D01*
X13328616Y50577345D01*
X13287345Y50611975D01*
X13242754Y50684555D01*
X13236114Y50760456D01*
X13267424Y50839677D01*
X13302054Y50880947D01*
X13374634Y50925538D01*
X13564385Y50942139D01*
X13681557Y50914149D01*
X13905938Y50972021D02*
X14361341Y51011863D01*
X14203364Y50194986D02*
X14133640Y50991942D01*
X12514427Y48300578D02*
X12849804Y47526863D01*
X13045731Y48347061D01*
X13829871Y47689090D02*
X13795240Y47647819D01*
X13684710Y47599908D01*
X13608809Y47593268D01*
X13491638Y47621257D01*
X13409097Y47690517D01*
X13364507Y47763098D01*
X13313275Y47911579D01*
X13303315Y48025429D01*
X13327984Y48180551D01*
X13359294Y48259772D01*
X13428554Y48342313D01*
X13539085Y48390223D01*
X13614985Y48396864D01*
X13732156Y48368874D01*
X13773427Y48334244D01*
X14626826Y47758814D02*
X14592196Y47717544D01*
X14481666Y47669633D01*
X14405765Y47662992D01*
X14288594Y47690982D01*
X14206053Y47760242D01*
X14161462Y47832822D01*
X14110231Y47981303D01*
X14100271Y48095154D01*
X14124940Y48250275D01*
X14156250Y48329496D01*
X14225510Y48412037D01*
X14336040Y48459948D01*
X14411941Y48466588D01*
X14529112Y48438599D01*
X14570383Y48403969D01*
X12900403Y44981587D02*
X12830678Y45778543D01*
X13134280Y45805105D01*
X13213501Y45773795D01*
X13254771Y45739165D01*
X13299362Y45666585D01*
X13309323Y45552734D01*
X13278013Y45473513D01*
X13243383Y45432243D01*
X13170803Y45387652D01*
X12867200Y45361090D01*
X13596324Y45769047D02*
X13630954Y45810317D01*
X13703534Y45854908D01*
X13893286Y45871509D01*
X13972506Y45840199D01*
X14013777Y45805569D01*
X14058368Y45732989D01*
X14065008Y45657088D01*
X14037018Y45539917D01*
X13621458Y45044671D01*
X14114811Y45087834D01*
X14873817Y45154239D02*
X14418414Y45114396D01*
X14646115Y45134317D02*
X14576391Y45931273D01*
X14510451Y45810782D01*
X14441191Y45728241D01*
X14368610Y45683650D01*
X13121779Y42451253D02*
X13052054Y43248209D01*
X13355656Y43274771D01*
X13434877Y43243461D01*
X13476147Y43208831D01*
X13520738Y43136251D01*
X13530699Y43022400D01*
X13499389Y42943179D01*
X13464759Y42901909D01*
X13392179Y42857318D01*
X13088576Y42830756D01*
X13817700Y43238713D02*
X13852330Y43279983D01*
X13924910Y43324574D01*
X14114662Y43341175D01*
X14193882Y43309865D01*
X14235153Y43275235D01*
X14279744Y43202655D01*
X14286384Y43126754D01*
X14258394Y43009583D01*
X13842834Y42514337D01*
X14336187Y42557500D01*
X14759816Y43397619D02*
X14835717Y43404259D01*
X14914938Y43372950D01*
X14956208Y43338319D01*
X15000799Y43265739D01*
X15052030Y43117258D01*
X15068631Y42927507D01*
X15043962Y42772386D01*
X15012652Y42693165D01*
X14978022Y42651894D01*
X14905441Y42607304D01*
X14829541Y42600663D01*
X14750320Y42631973D01*
X14709050Y42666603D01*
X14664459Y42739183D01*
X14613228Y42887664D01*
X14596627Y43077416D01*
X14621296Y43232537D01*
X14652606Y43311758D01*
X14687236Y43353028D01*
X14759816Y43397619D01*
X13343154Y39920918D02*
X13273429Y40717874D01*
X13577031Y40744436D01*
X13656252Y40713126D01*
X13697522Y40678496D01*
X13742113Y40605916D01*
X13752074Y40492065D01*
X13720764Y40412844D01*
X13686134Y40371574D01*
X13613554Y40326983D01*
X13309951Y40300421D01*
X14557562Y40027165D02*
X14102159Y39987323D01*
X14329861Y40007244D02*
X14260136Y40804200D01*
X14194196Y40683709D01*
X14124936Y40601168D01*
X14052356Y40556577D01*
X14937065Y40060368D02*
X15088866Y40073648D01*
X15161447Y40118239D01*
X15196077Y40159510D01*
X15262016Y40280001D01*
X15286686Y40435122D01*
X15260124Y40738724D01*
X15215533Y40811305D01*
X15174263Y40845935D01*
X15095042Y40877245D01*
X14943241Y40863964D01*
X14870661Y40819373D01*
X14836031Y40778102D01*
X14804721Y40698882D01*
X14821322Y40509130D01*
X14865913Y40436550D01*
X14907183Y40401920D01*
X14986404Y40370610D01*
X15138205Y40383891D01*
X15210785Y40428482D01*
X15245415Y40469752D01*
X15276725Y40548973D01*
X13564530Y37390584D02*
X13494805Y38187540D01*
X13798407Y38214102D01*
X13877628Y38182792D01*
X13918898Y38148162D01*
X13963489Y38075582D01*
X13973450Y37961731D01*
X13942140Y37882510D01*
X13907510Y37841240D01*
X13834930Y37796649D01*
X13531327Y37770087D01*
X14778938Y37496831D02*
X14323535Y37456989D01*
X14551237Y37476910D02*
X14481512Y38273866D01*
X14415572Y38153375D01*
X14346312Y38070834D01*
X14273732Y38026243D01*
X15194499Y37992077D02*
X15115278Y38023387D01*
X15074008Y38058017D01*
X15029417Y38130597D01*
X15026097Y38168548D01*
X15057407Y38247768D01*
X15092037Y38289039D01*
X15164617Y38333630D01*
X15316418Y38346911D01*
X15395639Y38315601D01*
X15436909Y38280971D01*
X15481500Y38208390D01*
X15484820Y38170440D01*
X15453511Y38091219D01*
X15418880Y38049949D01*
X15346300Y38005358D01*
X15194499Y37992077D01*
X15121919Y37947487D01*
X15087289Y37906216D01*
X15055979Y37826995D01*
X15069260Y37675194D01*
X15113850Y37602614D01*
X15155121Y37567984D01*
X15234342Y37536674D01*
X15386143Y37549955D01*
X15458723Y37594546D01*
X15493353Y37635816D01*
X15524663Y37715037D01*
X15511382Y37866838D01*
X15466791Y37939418D01*
X15425521Y37974048D01*
X15346300Y38005358D01*
X13785906Y34860249D02*
X13716181Y35657205D01*
X14019783Y35683767D01*
X14099004Y35652457D01*
X14140274Y35617827D01*
X14184865Y35545247D01*
X14194826Y35431396D01*
X14163516Y35352175D01*
X14128886Y35310905D01*
X14056306Y35266314D01*
X13752703Y35239752D01*
X15000314Y34966496D02*
X14544911Y34926654D01*
X14772613Y34946575D02*
X14702888Y35743531D01*
X14636948Y35623040D01*
X14567688Y35540499D01*
X14495108Y35495908D01*
X15651645Y35826536D02*
X15272142Y35793334D01*
X15267394Y35410511D01*
X15302024Y35451782D01*
X15374605Y35496372D01*
X15564356Y35512973D01*
X15643577Y35481664D01*
X15684847Y35447033D01*
X15729438Y35374453D01*
X15746039Y35184702D01*
X15714729Y35105481D01*
X15680099Y35064211D01*
X15607519Y35019620D01*
X15417767Y35003019D01*
X15338547Y35034329D01*
X15297276Y35068959D01*
X14007281Y32329915D02*
X13937556Y33126871D01*
X14241158Y33153433D01*
X14320379Y33122123D01*
X14361649Y33087493D01*
X14406240Y33014913D01*
X14416201Y32901062D01*
X14384891Y32821841D01*
X14350261Y32780571D01*
X14277681Y32735980D01*
X13974078Y32709418D01*
X15221689Y32436162D02*
X14766286Y32396320D01*
X14993988Y32416241D02*
X14924263Y33213197D01*
X14858323Y33092706D01*
X14789063Y33010165D01*
X14716483Y32965574D01*
X15858311Y33027230D02*
X15904794Y32495926D01*
X15641998Y33314231D02*
X15502050Y32728376D01*
X15995404Y32771539D01*
X14228657Y29799580D02*
X14158932Y30596536D01*
X14462534Y30623098D01*
X14541755Y30591788D01*
X14583025Y30557158D01*
X14627616Y30484578D01*
X14637577Y30370727D01*
X14606267Y30291506D01*
X14571637Y30250236D01*
X14499057Y30205645D01*
X14195454Y30179083D01*
X15443065Y29905827D02*
X14987662Y29865985D01*
X15215364Y29885906D02*
X15145639Y30682862D01*
X15079699Y30562371D01*
X15010439Y30479830D01*
X14937859Y30435239D01*
X16056446Y30762547D02*
X15904645Y30749266D01*
X15832064Y30704675D01*
X15797434Y30663405D01*
X15731494Y30542914D01*
X15706825Y30387792D01*
X15733387Y30084190D01*
X15777977Y30011610D01*
X15819248Y29976980D01*
X15898469Y29945670D01*
X16050270Y29958951D01*
X16122850Y30003542D01*
X16157480Y30044812D01*
X16188790Y30124033D01*
X16172189Y30313784D01*
X16127598Y30386364D01*
X16086328Y30420995D01*
X16007107Y30452304D01*
X15855306Y30439024D01*
X15782725Y30394433D01*
X15748095Y30353162D01*
X15716786Y30273942D01*
X14450032Y27269246D02*
X14380307Y28066202D01*
X14683909Y28092764D01*
X14763130Y28061454D01*
X14804400Y28026824D01*
X14848991Y27954244D01*
X14858952Y27840393D01*
X14827642Y27761172D01*
X14793012Y27719902D01*
X14720432Y27675311D01*
X14416829Y27648749D01*
X15664440Y27375493D02*
X15209037Y27335651D01*
X15436739Y27355572D02*
X15367014Y28152528D01*
X15301074Y28032037D01*
X15231814Y27949496D01*
X15159234Y27904905D01*
X16088069Y28215612D02*
X16163970Y28222252D01*
X16243191Y28190943D01*
X16284461Y28156312D01*
X16329052Y28083732D01*
X16380283Y27935251D01*
X16396884Y27745500D01*
X16372215Y27590379D01*
X16340905Y27511158D01*
X16306275Y27469887D01*
X16233694Y27425297D01*
X16157794Y27418656D01*
X16078573Y27449966D01*
X16037303Y27484596D01*
X15992712Y27557176D01*
X15941481Y27705657D01*
X15924880Y27895409D01*
X15949549Y28050530D01*
X15980859Y28129751D01*
X16015489Y28171021D01*
X16088069Y28215612D01*
X2451432Y54266230D02*
X2381707Y55063186D01*
X2685309Y55089748D01*
X2764530Y55058438D01*
X2805800Y55023808D01*
X2850391Y54951228D01*
X2860352Y54837377D01*
X2829042Y54758156D01*
X2794412Y54716886D01*
X2721832Y54672295D01*
X2418229Y54645733D01*
X3330464Y55146192D02*
X3406364Y55152832D01*
X3485585Y55121522D01*
X3526856Y55086892D01*
X3571446Y55014312D01*
X3622678Y54865831D01*
X3639279Y54676080D01*
X3614609Y54520958D01*
X3583299Y54441737D01*
X3548669Y54400467D01*
X3476089Y54355876D01*
X3400188Y54349236D01*
X3320968Y54380546D01*
X3279697Y54415176D01*
X3235106Y54487756D01*
X3183875Y54636237D01*
X3167274Y54825988D01*
X3191944Y54981110D01*
X3223253Y55060330D01*
X3257884Y55101601D01*
X3330464Y55146192D01*
X4424846Y54438882D02*
X3969443Y54399039D01*
X4197144Y54418960D02*
X4127420Y55215916D01*
X4061480Y55095425D01*
X3992220Y55012884D01*
X3919639Y54968293D01*
X2672807Y51735896D02*
X2603082Y52532852D01*
X2906684Y52559414D01*
X2985905Y52528104D01*
X3027175Y52493474D01*
X3071766Y52420894D01*
X3081727Y52307043D01*
X3050417Y52227822D01*
X3015787Y52186552D01*
X2943207Y52141961D01*
X2639604Y52115399D01*
X3551839Y52615858D02*
X3627739Y52622498D01*
X3706960Y52591188D01*
X3748231Y52556558D01*
X3792821Y52483978D01*
X3844053Y52335497D01*
X3860654Y52145746D01*
X3835984Y51990624D01*
X3804674Y51911403D01*
X3770044Y51870133D01*
X3697464Y51825542D01*
X3621563Y51818902D01*
X3542343Y51850212D01*
X3501072Y51884842D01*
X3456481Y51957422D01*
X3405250Y52105903D01*
X3388649Y52295654D01*
X3413319Y52450776D01*
X3444628Y52529996D01*
X3479259Y52571267D01*
X3551839Y52615858D01*
X4310844Y52682262D02*
X4386745Y52688902D01*
X4465966Y52657593D01*
X4507236Y52622962D01*
X4551827Y52550382D01*
X4603058Y52401901D01*
X4619659Y52212150D01*
X4594990Y52057029D01*
X4563680Y51977808D01*
X4529050Y51936537D01*
X4456469Y51891947D01*
X4380569Y51885306D01*
X4301348Y51916616D01*
X4260078Y51951246D01*
X4215487Y52023826D01*
X4164256Y52172307D01*
X4147655Y52362059D01*
X4172324Y52517180D01*
X4203634Y52596401D01*
X4238264Y52637671D01*
X4310844Y52682262D01*
X3188306Y49996109D02*
X3109085Y50027419D01*
X2995234Y50017458D01*
X2884704Y49969547D01*
X2815444Y49887006D01*
X2784134Y49807785D01*
X2759464Y49652664D01*
X2769425Y49538813D01*
X2820656Y49390332D01*
X2865247Y49317752D01*
X2947788Y49248492D01*
X3064959Y49220502D01*
X3140859Y49227143D01*
X3251390Y49275054D01*
X3286020Y49316324D01*
X3262778Y49581976D01*
X3110977Y49568695D01*
X3634213Y49270306D02*
X3564488Y50067261D01*
X4089616Y49310148D01*
X4019892Y50107104D01*
X4469119Y49343350D02*
X4399394Y50140306D01*
X4589146Y50156907D01*
X4706317Y50128918D01*
X4788858Y50059658D01*
X4833448Y49987077D01*
X4884680Y49838596D01*
X4894640Y49724745D01*
X4869971Y49569624D01*
X4838661Y49490403D01*
X4769401Y49407862D01*
X4658870Y49359951D01*
X4469119Y49343350D01*
X3409681Y47465775D02*
X3330460Y47497085D01*
X3216609Y47487124D01*
X3106079Y47439213D01*
X3036819Y47356672D01*
X3005509Y47277451D01*
X2980839Y47122330D01*
X2990800Y47008479D01*
X3042031Y46859998D01*
X3086622Y46787418D01*
X3169163Y46718158D01*
X3286334Y46690168D01*
X3362234Y46696809D01*
X3472765Y46744720D01*
X3507395Y46785990D01*
X3484153Y47051642D01*
X3332352Y47038361D01*
X3855588Y46739972D02*
X3785863Y47536927D01*
X4310991Y46779814D01*
X4241267Y47576770D01*
X4690494Y46813016D02*
X4620769Y47609972D01*
X4810521Y47626573D01*
X4927692Y47598584D01*
X5010233Y47529324D01*
X5054823Y47456743D01*
X5106055Y47308262D01*
X5116015Y47194411D01*
X5091346Y47039290D01*
X5060036Y46960069D01*
X4990776Y46877528D01*
X4880245Y46829617D01*
X4690494Y46813016D01*
X3336934Y44144892D02*
X3267209Y44941848D01*
X3570811Y44968410D01*
X3650032Y44937100D01*
X3691302Y44902470D01*
X3735893Y44829890D01*
X3745854Y44716039D01*
X3714544Y44636818D01*
X3679914Y44595548D01*
X3607334Y44550957D01*
X3303731Y44524395D01*
X4215966Y45024854D02*
X4291866Y45031494D01*
X4371087Y45000184D01*
X4412358Y44965554D01*
X4456948Y44892974D01*
X4508180Y44744493D01*
X4524781Y44554742D01*
X4500111Y44399620D01*
X4468801Y44320399D01*
X4434171Y44279129D01*
X4361591Y44234538D01*
X4285690Y44227898D01*
X4206470Y44259208D01*
X4165199Y44293838D01*
X4120608Y44366418D01*
X4069377Y44514899D01*
X4052776Y44704650D01*
X4077446Y44859772D01*
X4108755Y44938992D01*
X4143386Y44980263D01*
X4215966Y45024854D01*
X4791860Y44998756D02*
X4826490Y45040027D01*
X4899071Y45084617D01*
X5088822Y45101219D01*
X5168043Y45069909D01*
X5209313Y45035279D01*
X5253904Y44962698D01*
X5260545Y44886798D01*
X5232555Y44769627D01*
X4816994Y44274381D01*
X5310348Y44317544D01*
X3558310Y41614558D02*
X3488585Y42411514D01*
X3792187Y42438076D01*
X3871408Y42406766D01*
X3912678Y42372136D01*
X3957269Y42299556D01*
X3967230Y42185705D01*
X3935920Y42106484D01*
X3901290Y42065214D01*
X3828710Y42020623D01*
X3525107Y41994061D01*
X4437342Y42494520D02*
X4513242Y42501160D01*
X4592463Y42469850D01*
X4633734Y42435220D01*
X4678324Y42362640D01*
X4729556Y42214159D01*
X4746157Y42024408D01*
X4721487Y41869286D01*
X4690177Y41790065D01*
X4655547Y41748795D01*
X4582967Y41704204D01*
X4507066Y41697564D01*
X4427846Y41728874D01*
X4386575Y41763504D01*
X4341984Y41836084D01*
X4290753Y41984565D01*
X4274152Y42174316D01*
X4298822Y42329438D01*
X4330131Y42408658D01*
X4364762Y42449929D01*
X4437342Y42494520D01*
X4968646Y42541003D02*
X5461999Y42584165D01*
X5222909Y42257322D01*
X5336760Y42267282D01*
X5415981Y42235973D01*
X5457251Y42201342D01*
X5501842Y42128762D01*
X5518443Y41939011D01*
X5487133Y41859790D01*
X5452503Y41818520D01*
X5379923Y41773929D01*
X5152221Y41754008D01*
X5073000Y41785317D01*
X5031730Y41819947D01*
X3779685Y39084223D02*
X3709960Y39881179D01*
X4013562Y39907741D01*
X4092783Y39876431D01*
X4134053Y39841801D01*
X4178644Y39769221D01*
X4188605Y39655370D01*
X4157295Y39576149D01*
X4122665Y39534879D01*
X4050085Y39490288D01*
X3746482Y39463726D01*
X4658717Y39964185D02*
X4734617Y39970825D01*
X4813838Y39939515D01*
X4855109Y39904885D01*
X4899699Y39832305D01*
X4950931Y39683824D01*
X4967532Y39494073D01*
X4942862Y39338951D01*
X4911552Y39259730D01*
X4876922Y39218460D01*
X4804342Y39173869D01*
X4728441Y39167229D01*
X4649221Y39198539D01*
X4607950Y39233169D01*
X4563359Y39305749D01*
X4512128Y39454230D01*
X4495527Y39643981D01*
X4520197Y39799103D01*
X4551506Y39878323D01*
X4586137Y39919594D01*
X4658717Y39964185D01*
X5630715Y39781538D02*
X5677198Y39250234D01*
X5414402Y40068539D02*
X5274454Y39482684D01*
X5767808Y39525847D01*
X4001061Y36553889D02*
X3931336Y37350845D01*
X4234938Y37377407D01*
X4314159Y37346097D01*
X4355429Y37311467D01*
X4400020Y37238887D01*
X4409981Y37125036D01*
X4378671Y37045815D01*
X4344041Y37004545D01*
X4271461Y36959954D01*
X3967858Y36933392D01*
X4880093Y37433851D02*
X4955993Y37440491D01*
X5035214Y37409181D01*
X5076485Y37374551D01*
X5121075Y37301971D01*
X5172307Y37153490D01*
X5188908Y36963739D01*
X5164238Y36808617D01*
X5132928Y36729396D01*
X5098298Y36688126D01*
X5025718Y36643535D01*
X4949817Y36636895D01*
X4870597Y36668205D01*
X4829326Y36702835D01*
X4784735Y36775415D01*
X4733504Y36923896D01*
X4716903Y37113647D01*
X4741573Y37268769D01*
X4772882Y37347989D01*
X4807513Y37389260D01*
X4880093Y37433851D01*
X5866800Y37520176D02*
X5487297Y37486974D01*
X5482549Y37104151D01*
X5517179Y37145422D01*
X5589760Y37190012D01*
X5779511Y37206613D01*
X5858732Y37175304D01*
X5900002Y37140673D01*
X5944593Y37068093D01*
X5961194Y36878342D01*
X5929884Y36799121D01*
X5895254Y36757851D01*
X5822674Y36713260D01*
X5632922Y36696659D01*
X5553702Y36727969D01*
X5512431Y36762599D01*
X4222436Y34023554D02*
X4152711Y34820510D01*
X4456313Y34847072D01*
X4535534Y34815762D01*
X4576804Y34781132D01*
X4621395Y34708552D01*
X4631356Y34594701D01*
X4600046Y34515480D01*
X4565416Y34474210D01*
X4492836Y34429619D01*
X4189233Y34403057D01*
X5101468Y34903516D02*
X5177368Y34910156D01*
X5256589Y34878846D01*
X5297860Y34844216D01*
X5342450Y34771636D01*
X5393682Y34623155D01*
X5410283Y34433404D01*
X5385613Y34278282D01*
X5354303Y34199061D01*
X5319673Y34157791D01*
X5247093Y34113200D01*
X5171192Y34106560D01*
X5091972Y34137870D01*
X5050701Y34172500D01*
X5006110Y34245080D01*
X4954879Y34393561D01*
X4938278Y34583312D01*
X4962948Y34738434D01*
X4994257Y34817654D01*
X5028888Y34858925D01*
X5101468Y34903516D01*
X6050225Y34986521D02*
X5898424Y34973240D01*
X5825843Y34928649D01*
X5791213Y34887379D01*
X5725273Y34766888D01*
X5700604Y34611766D01*
X5727166Y34308164D01*
X5771756Y34235584D01*
X5813027Y34200954D01*
X5892248Y34169644D01*
X6044049Y34182925D01*
X6116629Y34227516D01*
X6151259Y34268786D01*
X6182569Y34348007D01*
X6165968Y34537758D01*
X6121377Y34610338D01*
X6080107Y34644969D01*
X6000886Y34676278D01*
X5849085Y34662998D01*
X5776504Y34618407D01*
X5741874Y34577136D01*
X5710565Y34497916D01*
X4443812Y31493220D02*
X4374087Y32290176D01*
X4677689Y32316738D01*
X4756910Y32285428D01*
X4798180Y32250798D01*
X4842771Y32178218D01*
X4852732Y32064367D01*
X4821422Y31985146D01*
X4786792Y31943876D01*
X4714212Y31899285D01*
X4410609Y31872723D01*
X5322844Y32373182D02*
X5398744Y32379822D01*
X5477965Y32348512D01*
X5519236Y32313882D01*
X5563826Y32241302D01*
X5615058Y32092821D01*
X5631659Y31903070D01*
X5606989Y31747948D01*
X5575679Y31668727D01*
X5541049Y31627457D01*
X5468469Y31582866D01*
X5392568Y31576226D01*
X5313348Y31607536D01*
X5272077Y31642166D01*
X5227486Y31714746D01*
X5176255Y31863227D01*
X5159654Y32052978D01*
X5184324Y32208100D01*
X5215633Y32287320D01*
X5250264Y32328591D01*
X5322844Y32373182D01*
X5854148Y32419665D02*
X6385452Y32466148D01*
X6113624Y31639310D01*
X4665188Y28962885D02*
X4595463Y29759841D01*
X4899065Y29786403D01*
X4978286Y29755093D01*
X5019556Y29720463D01*
X5064147Y29647883D01*
X5074108Y29534032D01*
X5042798Y29454811D01*
X5008168Y29413541D01*
X4935588Y29368950D01*
X4631985Y29342388D01*
X5544220Y29842847D02*
X5620120Y29849487D01*
X5699341Y29818177D01*
X5740612Y29783547D01*
X5785202Y29710967D01*
X5836434Y29562486D01*
X5853035Y29372735D01*
X5828365Y29217613D01*
X5797055Y29138392D01*
X5762425Y29097122D01*
X5689845Y29052531D01*
X5613944Y29045891D01*
X5534724Y29077201D01*
X5493453Y29111831D01*
X5448862Y29184411D01*
X5397631Y29332892D01*
X5381030Y29522643D01*
X5405700Y29677765D01*
X5437009Y29756985D01*
X5471640Y29798256D01*
X5544220Y29842847D01*
X6295157Y29564378D02*
X6215936Y29595688D01*
X6174666Y29630318D01*
X6130075Y29702898D01*
X6126755Y29740849D01*
X6158065Y29820069D01*
X6192695Y29861340D01*
X6265275Y29905931D01*
X6417076Y29919212D01*
X6496297Y29887902D01*
X6537567Y29853272D01*
X6582158Y29780691D01*
X6585478Y29742741D01*
X6554169Y29663520D01*
X6519538Y29622250D01*
X6446958Y29577659D01*
X6295157Y29564378D01*
X6222577Y29519788D01*
X6187947Y29478517D01*
X6156637Y29399296D01*
X6169918Y29247495D01*
X6214508Y29174915D01*
X6255779Y29140285D01*
X6335000Y29108975D01*
X6486801Y29122256D01*
X6559381Y29166847D01*
X6594011Y29208117D01*
X6625321Y29287338D01*
X6612040Y29439139D01*
X6567449Y29511719D01*
X6526179Y29546349D01*
X6446958Y29577659D01*
X4886563Y26432551D02*
X4816838Y27229507D01*
X5120440Y27256069D01*
X5199661Y27224759D01*
X5240931Y27190129D01*
X5285522Y27117549D01*
X5295483Y27003698D01*
X5264173Y26924477D01*
X5229543Y26883207D01*
X5156963Y26838616D01*
X4853360Y26812054D01*
X5765595Y27312513D02*
X5841495Y27319153D01*
X5920716Y27287843D01*
X5961987Y27253213D01*
X6006577Y27180633D01*
X6057809Y27032152D01*
X6074410Y26842401D01*
X6049740Y26687279D01*
X6018430Y26608058D01*
X5983800Y26566788D01*
X5911220Y26522197D01*
X5835319Y26515557D01*
X5756099Y26546867D01*
X5714828Y26581497D01*
X5670237Y26654077D01*
X5619006Y26802558D01*
X5602405Y26992309D01*
X5627075Y27147431D01*
X5658384Y27226651D01*
X5693015Y27267922D01*
X5765595Y27312513D01*
X6480474Y26572001D02*
X6632275Y26585281D01*
X6704856Y26629872D01*
X6739486Y26671143D01*
X6805425Y26791634D01*
X6830095Y26946755D01*
X6803533Y27250357D01*
X6758942Y27322938D01*
X6717672Y27357568D01*
X6638451Y27388878D01*
X6486650Y27375597D01*
X6414070Y27331006D01*
X6379440Y27289735D01*
X6348130Y27210515D01*
X6364731Y27020763D01*
X6409322Y26948183D01*
X6450592Y26913553D01*
X6529813Y26882243D01*
X6681614Y26895524D01*
X6754194Y26940115D01*
X6788824Y26981385D01*
X6820134Y27060606D01*
%TD*%
M02*
