M48
; DRILL file {KiCad (5.1.9)-1} date 06/29/21 13:01:46
; FORMAT={-:-/ absolute / inch / decimal}
; #@! TF.CreationDate,2021-06-29T13:01:46+02:00
; #@! TF.GenerationSoftware,Kicad,Pcbnew,(5.1.9)-1
FMAT,2
INCH
T1C0.0354
T2C0.0430
T3C0.0433
T4C0.0591
%
G90
G05
T2
X0.0228Y2.1443
X0.0315Y2.0447
X0.0402Y1.9451
X0.0489Y1.8455
X0.0576Y1.7458
X0.0663Y1.6462
X0.0751Y1.5466
X0.0838Y1.447
X0.0925Y1.3474
X0.1012Y1.2477
X0.1099Y1.1481
X0.1186Y1.0485
X0.6205Y2.1966
X0.6292Y2.097
X0.6379Y1.9974
X0.6466Y1.8978
X0.6553Y1.7981
X0.6641Y1.6985
X0.6728Y1.5989
X0.6815Y1.4993
X0.6902Y1.3997
X0.6989Y1.3
X0.7076Y1.2004
X0.7164Y1.1008
T3
X0.1495Y0.6498
X0.2772Y0.2826
X0.3227Y0.0033
X0.3784Y0.2974
X0.4504Y-0.3639
X0.5305Y0.3382
X0.5516Y-0.349
X0.5526Y0.7578
X0.6255Y0.3759
X0.7037Y-0.3083
X0.7258Y0.1113
X0.7988Y-0.2706
X0.858Y2.2285
X0.9163Y1.5617
X0.92Y1.8446
X0.9747Y0.895
X0.9784Y1.1779
X1.0222Y1.8417
X1.0367Y0.5111
X1.0806Y1.1749
X1.1389Y0.5082
X1.1791Y1.8554
X1.2375Y1.1887
X1.2737Y2.2648
X1.2793Y1.876
X1.2958Y0.5219
X1.3321Y1.5981
X1.3376Y1.2093
X1.3904Y0.9313
X1.3959Y0.5425
X1.7429Y2.539
X1.7429Y1.2004
X1.7429Y1.8697
X1.7712Y2.1512
X1.7712Y0.8126
X1.7712Y1.4819
X1.8728Y2.1394
X1.8728Y0.8008
X1.8728Y1.4701
X2.0303Y2.1394
X2.0303Y0.8008
X2.0303Y1.4701
X2.1319Y2.1512
X2.1319Y0.8126
X2.1319Y1.4819
X2.1602Y2.539
X2.1602Y1.2004
X2.1602Y1.8697
X2.5135Y0.6035
X2.5191Y0.9923
X2.5719Y1.2702
X2.5774Y1.659
X2.6067Y-0.172
X2.6137Y0.5828
X2.6302Y1.937
X2.6358Y2.3257
X2.6461Y0.2149
X2.672Y1.2496
X2.7046Y-0.2012
X2.7304Y1.9163
X2.7706Y0.5691
X2.8289Y1.2359
X2.8597Y-0.2286
X2.8728Y0.572
X2.8872Y1.9026
X2.9311Y1.2388
X2.9348Y0.9559
X2.9618Y-0.2346
X2.9895Y1.9055
X2.9932Y1.6226
X3.0515Y2.2894
X3.0571Y0.1424
X3.2098Y0.4306
X3.2153Y0.8194
X3.2681Y1.0973
X3.2737Y1.4861
X3.3099Y0.41
X3.3259Y-0.3321
X3.3683Y1.0767
X3.4173Y-0.378
X3.4319Y0.042
X3.4668Y0.3962
X3.5252Y1.063
X3.5653Y-0.4318
X3.569Y0.3991
X3.6274Y1.0659
X3.6311Y0.783
X3.6648Y-0.4555
X3.6894Y1.4497
X3.824Y-0.1008
T4
X3.9005Y0.5875
X3.9245Y0.862
T1
G00X3.8021Y0.5013
M15
G01X3.8Y0.4777
M16
G05
G00X3.8058Y0.5444
M15
G01X3.8038Y0.5209
M16
G05
G00X3.8196Y0.7013
M15
G01X3.8175Y0.6778
M16
G05
G00X3.8298Y0.819
M15
G01X3.8278Y0.7954
M16
G05
G00X3.9825Y0.4855
M15
G01X3.9804Y0.462
M16
G05
G00X3.9862Y0.5286
M15
G01X3.9842Y0.5051
M16
G05
G00X4.0Y0.6855
M15
G01X3.9979Y0.662
M16
G05
G00X4.0103Y0.8032
M15
G01X4.0082Y0.7796
M16
G05
T0
M30
