%TF.GenerationSoftware,KiCad,Pcbnew,(5.1.9)-1*%
%TF.CreationDate,2021-06-29T13:01:43+02:00*%
%TF.ProjectId,todarodes_pacificus,746f6461-726f-4646-9573-5f7061636966,VERSION_HERE*%
%TF.SameCoordinates,Original*%
%TF.FileFunction,Copper,L1,Top*%
%TF.FilePolarity,Positive*%
%FSLAX46Y46*%
G04 Gerber Fmt 4.6, Leading zero omitted, Abs format (unit mm)*
G04 Created by KiCad (PCBNEW (5.1.9)-1) date 2021-06-29 13:01:43*
%MOMM*%
%LPD*%
G01*
G04 APERTURE LIST*
%TA.AperFunction,ComponentPad*%
%ADD10C,1.600000*%
%TD*%
%TA.AperFunction,ComponentPad*%
%ADD11C,0.100000*%
%TD*%
%TA.AperFunction,ComponentPad*%
%ADD12C,1.752600*%
%TD*%
%TA.AperFunction,Conductor*%
%ADD13C,0.250000*%
%TD*%
G04 APERTURE END LIST*
D10*
%TO.P,S6,3*%
%TO.N,N/C*%
X54869207Y30490719D03*
%TO.P,S6,4*%
X44269207Y30490719D03*
%TO.P,S6,1*%
%TO.N,P4*%
X44989207Y20640719D03*
%TO.P,S6,2*%
%TO.N,GND*%
X51569207Y20340719D03*
%TO.P,S6,1*%
%TO.N,P4*%
X54149207Y20640719D03*
%TO.P,S6,2*%
%TO.N,GND*%
X47569207Y20340719D03*
%TD*%
%TO.P,S1,3*%
%TO.N,N/C*%
X18434938Y2827957D03*
%TO.P,S1,4*%
X8196125Y84475D03*
%TO.P,S1,1*%
%TO.N,P8*%
X11440959Y-9243545D03*
%TO.P,S1,2*%
%TO.N,GND*%
X17874396Y-7830293D03*
%TO.P,S1,1*%
%TO.N,P8*%
X20288839Y-6872762D03*
%TO.P,S1,2*%
%TO.N,GND*%
X14010693Y-8865570D03*
%TD*%
%TO.P,S2,3*%
%TO.N,N/C*%
X14035013Y19248695D03*
%TO.P,S2,4*%
X3796200Y16505213D03*
%TO.P,S2,1*%
%TO.N,P9*%
X7041034Y7177193D03*
%TO.P,S2,2*%
%TO.N,GND*%
X13474471Y8590445D03*
%TO.P,S2,1*%
%TO.N,P9*%
X15888914Y9547976D03*
%TO.P,S2,2*%
%TO.N,GND*%
X9610768Y7555168D03*
%TD*%
%TO.P,S3,3*%
%TO.N,N/C*%
X35315781Y23655973D03*
%TO.P,S3,4*%
X24756117Y22732122D03*
%TO.P,S3,1*%
%TO.N,P5*%
X26331862Y12982357D03*
%TO.P,S3,2*%
%TO.N,GND*%
X32912969Y13256983D03*
%TO.P,S3,1*%
%TO.N,P5*%
X35457005Y13780703D03*
%TO.P,S3,2*%
%TO.N,GND*%
X28928191Y12908360D03*
%TD*%
%TO.P,S4,3*%
%TO.N,N/C*%
X33834133Y40591282D03*
%TO.P,S4,4*%
X23274469Y39667431D03*
%TO.P,S4,1*%
%TO.N,P16*%
X24850214Y29917666D03*
%TO.P,S4,2*%
%TO.N,GND*%
X31431321Y30192292D03*
%TO.P,S4,1*%
%TO.N,P16*%
X33975357Y30716012D03*
%TO.P,S4,2*%
%TO.N,GND*%
X27446543Y29843669D03*
%TD*%
%TO.P,S5,3*%
%TO.N,N/C*%
X32352486Y57526592D03*
%TO.P,S5,4*%
X21792822Y56602741D03*
%TO.P,S5,1*%
%TO.N,P21*%
X23368567Y46852976D03*
%TO.P,S5,2*%
%TO.N,GND*%
X29949674Y47127602D03*
%TO.P,S5,1*%
%TO.N,P21*%
X32493710Y47651322D03*
%TO.P,S5,2*%
%TO.N,GND*%
X25964896Y46778979D03*
%TD*%
%TO.P,S7,3*%
%TO.N,N/C*%
X54869209Y47490720D03*
%TO.P,S7,4*%
X44269209Y47490720D03*
%TO.P,S7,1*%
%TO.N,P14*%
X44989209Y37640720D03*
%TO.P,S7,2*%
%TO.N,GND*%
X51569209Y37340720D03*
%TO.P,S7,1*%
%TO.N,P14*%
X54149209Y37640720D03*
%TO.P,S7,2*%
%TO.N,GND*%
X47569209Y37340720D03*
%TD*%
%TO.P,S8,3*%
%TO.N,N/C*%
X54869206Y64490719D03*
%TO.P,S8,4*%
X44269206Y64490719D03*
%TO.P,S8,1*%
%TO.N,P20*%
X44989206Y54640719D03*
%TO.P,S8,2*%
%TO.N,GND*%
X51569206Y54340719D03*
%TO.P,S8,1*%
%TO.N,P20*%
X54149206Y54640719D03*
%TO.P,S8,2*%
%TO.N,GND*%
X47569206Y54340719D03*
%TD*%
%TO.P,S9,3*%
%TO.N,N/C*%
X74544678Y24279360D03*
%TO.P,S9,4*%
X63985014Y25203211D03*
%TO.P,S9,1*%
%TO.N,P3*%
X63843790Y15327941D03*
%TO.P,S9,2*%
%TO.N,GND*%
X70372604Y14455598D03*
%TO.P,S9,1*%
%TO.N,P3*%
X72968933Y14529595D03*
%TO.P,S9,2*%
%TO.N,GND*%
X66387826Y14804221D03*
%TD*%
%TO.P,S10,3*%
%TO.N,N/C*%
X76026325Y41214671D03*
%TO.P,S10,4*%
X65466661Y42138522D03*
%TO.P,S10,1*%
%TO.N,P15*%
X65325437Y32263252D03*
%TO.P,S10,2*%
%TO.N,GND*%
X71854251Y31390909D03*
%TO.P,S10,1*%
%TO.N,P15*%
X74450580Y31464906D03*
%TO.P,S10,2*%
%TO.N,GND*%
X67869473Y31739532D03*
%TD*%
%TO.P,S11,3*%
%TO.N,N/C*%
X77507974Y58149980D03*
%TO.P,S11,4*%
X66948310Y59073831D03*
%TO.P,S11,1*%
%TO.N,P19*%
X66807086Y49198561D03*
%TO.P,S11,2*%
%TO.N,GND*%
X73335900Y48326218D03*
%TO.P,S11,1*%
%TO.N,P19*%
X75932229Y48400215D03*
%TO.P,S11,2*%
%TO.N,GND*%
X69351122Y48674841D03*
%TD*%
%TO.P,S12,3*%
%TO.N,N/C*%
X92229241Y19888007D03*
%TO.P,S12,4*%
X81669577Y20811858D03*
%TO.P,S12,1*%
%TO.N,P10*%
X81528353Y10936588D03*
%TO.P,S12,2*%
%TO.N,GND*%
X88057167Y10064245D03*
%TO.P,S12,1*%
%TO.N,P10*%
X90653496Y10138242D03*
%TO.P,S12,2*%
%TO.N,GND*%
X84072389Y10412868D03*
%TD*%
%TO.P,S13,3*%
%TO.N,N/C*%
X93710889Y36823316D03*
%TO.P,S13,4*%
X83151225Y37747167D03*
%TO.P,S13,1*%
%TO.N,P18*%
X83010001Y27871897D03*
%TO.P,S13,2*%
%TO.N,GND*%
X89538815Y26999554D03*
%TO.P,S13,1*%
%TO.N,P18*%
X92135144Y27073551D03*
%TO.P,S13,2*%
%TO.N,GND*%
X85554037Y27348177D03*
%TD*%
%TO.P,S14,3*%
%TO.N,N/C*%
X77649453Y3616800D03*
%TO.P,S14,4*%
X67210491Y5457471D03*
%TO.P,S14,1*%
%TO.N,P7*%
X66209118Y-4367912D03*
%TO.P,S14,2*%
%TO.N,GND*%
X72637058Y-5805959D03*
%TO.P,S14,1*%
%TO.N,P7*%
X75229957Y-5958529D03*
%TO.P,S14,2*%
%TO.N,GND*%
X68697827Y-5111367D03*
%TD*%
%TO.P,S15,3*%
%TO.N,N/C*%
X97130146Y-2559476D03*
%TO.P,S15,4*%
X87169404Y1065938D03*
%TO.P,S15,1*%
%TO.N,P6*%
X84477084Y-8436289D03*
%TO.P,S15,2*%
%TO.N,GND*%
X90557655Y-10968689D03*
%TO.P,S15,1*%
%TO.N,P6*%
X93084668Y-11569194D03*
%TO.P,S15,2*%
%TO.N,GND*%
X86798885Y-9600609D03*
%TD*%
%TA.AperFunction,ComponentPad*%
D11*
%TO.P,C1,1*%
%TO.N,RAW*%
G36*
X14811020Y56590490D02*
G01*
X16556951Y56743239D01*
X16709700Y54997308D01*
X14963769Y54844559D01*
X14811020Y56590490D01*
G37*
%TD.AperFunction*%
D12*
%TO.P,C1,2*%
%TO.N,GND*%
X15981735Y53263564D03*
%TO.P,C1,3*%
%TO.N,RST*%
X16203111Y50733230D03*
%TO.P,C1,4*%
%TO.N,VCC*%
X16424487Y48202895D03*
%TO.P,C1,5*%
%TO.N,P21*%
X16645862Y45672561D03*
%TO.P,C1,6*%
%TO.N,P20*%
X16867238Y43142226D03*
%TO.P,C1,7*%
%TO.N,P19*%
X17088613Y40611891D03*
%TO.P,C1,8*%
%TO.N,P18*%
X17309989Y38081557D03*
%TO.P,C1,9*%
%TO.N,P15*%
X17531365Y35551222D03*
%TO.P,C1,10*%
%TO.N,P14*%
X17752740Y33020888D03*
%TO.P,C1,11*%
%TO.N,P16*%
X17974116Y30490553D03*
%TO.P,C1,12*%
%TO.N,P10*%
X18195491Y27960219D03*
%TO.P,C1,13*%
%TO.N,P1*%
X578353Y54465645D03*
%TO.P,C1,14*%
%TO.N,P0*%
X799728Y51935311D03*
%TO.P,C1,15*%
%TO.N,GND*%
X1021104Y49404976D03*
%TO.P,C1,16*%
X1242479Y46874642D03*
%TO.P,C1,17*%
%TO.N,P2*%
X1463855Y44344307D03*
%TO.P,C1,18*%
%TO.N,P3*%
X1685231Y41813973D03*
%TO.P,C1,19*%
%TO.N,P4*%
X1906606Y39283638D03*
%TO.P,C1,20*%
%TO.N,P5*%
X2127982Y36753303D03*
%TO.P,C1,21*%
%TO.N,P6*%
X2349357Y34222969D03*
%TO.P,C1,22*%
%TO.N,P7*%
X2570733Y31692634D03*
%TO.P,C1,23*%
%TO.N,P8*%
X2792109Y29162300D03*
%TO.P,C1,24*%
%TO.N,P9*%
X3013484Y26631965D03*
%TD*%
%TO.P,REF\u002A\u002A,1*%
%TO.N,GND*%
%TA.AperFunction,ComponentPad*%
G36*
G01*
X100305351Y11803363D02*
X100357645Y12401079D01*
G75*
G02*
X101224326Y13128310I796956J-69725D01*
G01*
X101224326Y13128310D01*
G75*
G02*
X101951557Y12261629I-69725J-796956D01*
G01*
X101899263Y11663913D01*
G75*
G02*
X101032582Y10936682I-796956J69725D01*
G01*
X101032582Y10936682D01*
G75*
G02*
X100305351Y11803363I69725J796956D01*
G01*
G37*
%TD.AperFunction*%
%TO.P,REF\u002A\u002A,2*%
%TA.AperFunction,ComponentPad*%
G36*
G01*
X95818727Y13300093D02*
X95871021Y13897809D01*
G75*
G02*
X96737702Y14625040I796956J-69725D01*
G01*
X96737702Y14625040D01*
G75*
G02*
X97464933Y13758359I-69725J-796956D01*
G01*
X97412639Y13160643D01*
G75*
G02*
X96545958Y12433412I-796956J69725D01*
G01*
X96545958Y12433412D01*
G75*
G02*
X95818727Y13300093I69725J796956D01*
G01*
G37*
%TD.AperFunction*%
%TO.P,REF\u002A\u002A,3*%
%TO.N,P2*%
%TA.AperFunction,ComponentPad*%
G36*
G01*
X96167350Y17284872D02*
X96219644Y17882588D01*
G75*
G02*
X97086325Y18609819I796956J-69725D01*
G01*
X97086325Y18609819D01*
G75*
G02*
X97813556Y17743138I-69725J-796956D01*
G01*
X97761262Y17145422D01*
G75*
G02*
X96894581Y16418191I-796956J69725D01*
G01*
X96894581Y16418191D01*
G75*
G02*
X96167350Y17284872I69725J796956D01*
G01*
G37*
%TD.AperFunction*%
%TO.P,REF\u002A\u002A,4*%
%TO.N,VCC*%
%TA.AperFunction,ComponentPad*%
G36*
G01*
X96428817Y20273456D02*
X96481111Y20871172D01*
G75*
G02*
X97347792Y21598403I796956J-69725D01*
G01*
X97347792Y21598403D01*
G75*
G02*
X98075023Y20731722I-69725J-796956D01*
G01*
X98022729Y20134006D01*
G75*
G02*
X97156048Y19406775I-796956J69725D01*
G01*
X97156048Y19406775D01*
G75*
G02*
X96428817Y20273456I69725J796956D01*
G01*
G37*
%TD.AperFunction*%
%TO.P,REF\u002A\u002A,1*%
%TO.N,GND*%
%TA.AperFunction,ComponentPad*%
G36*
G01*
X95722855Y12204279D02*
X95775149Y12801995D01*
G75*
G02*
X96641830Y13529226I796956J-69725D01*
G01*
X96641830Y13529226D01*
G75*
G02*
X97369061Y12662545I-69725J-796956D01*
G01*
X97316767Y12064829D01*
G75*
G02*
X96450086Y11337598I-796956J69725D01*
G01*
X96450086Y11337598D01*
G75*
G02*
X95722855Y12204279I69725J796956D01*
G01*
G37*
%TD.AperFunction*%
%TO.P,REF\u002A\u002A,2*%
%TA.AperFunction,ComponentPad*%
G36*
G01*
X100401222Y12899177D02*
X100453516Y13496893D01*
G75*
G02*
X101320197Y14224124I796956J-69725D01*
G01*
X101320197Y14224124D01*
G75*
G02*
X102047428Y13357443I-69725J-796956D01*
G01*
X101995134Y12759727D01*
G75*
G02*
X101128453Y12032496I-796956J69725D01*
G01*
X101128453Y12032496D01*
G75*
G02*
X100401222Y12899177I69725J796956D01*
G01*
G37*
%TD.AperFunction*%
%TO.P,REF\u002A\u002A,3*%
%TO.N,P2*%
%TA.AperFunction,ComponentPad*%
G36*
G01*
X100749845Y16883956D02*
X100802139Y17481672D01*
G75*
G02*
X101668820Y18208903I796956J-69725D01*
G01*
X101668820Y18208903D01*
G75*
G02*
X102396051Y17342222I-69725J-796956D01*
G01*
X102343757Y16744506D01*
G75*
G02*
X101477076Y16017275I-796956J69725D01*
G01*
X101477076Y16017275D01*
G75*
G02*
X100749845Y16883956I69725J796956D01*
G01*
G37*
%TD.AperFunction*%
%TO.P,REF\u002A\u002A,4*%
%TO.N,VCC*%
%TA.AperFunction,ComponentPad*%
G36*
G01*
X101011313Y19872540D02*
X101063607Y20470256D01*
G75*
G02*
X101930288Y21197487I796956J-69725D01*
G01*
X101930288Y21197487D01*
G75*
G02*
X102657519Y20330806I-69725J-796956D01*
G01*
X102605225Y19733090D01*
G75*
G02*
X101738544Y19005859I-796956J69725D01*
G01*
X101738544Y19005859D01*
G75*
G02*
X101011313Y19872540I69725J796956D01*
G01*
G37*
%TD.AperFunction*%
%TD*%
D13*
%TO.N,GND*%
X14010691Y-8865568D02*
X17874395Y-7830292D01*
X9610769Y7555171D02*
X13474473Y8590447D01*
X28928190Y12908360D02*
X32912969Y13256982D01*
X27446543Y29843670D02*
X31431322Y30192293D01*
X47569208Y20340720D02*
X51569209Y20340718D01*
X47569208Y37340718D02*
X51569207Y37340719D01*
X25964895Y46778980D02*
X29949672Y47127602D01*
X47569208Y54340719D02*
X51569208Y54340718D01*
X69351121Y48674842D02*
X73335900Y48326217D01*
X67869474Y31739531D02*
X71854251Y31390909D01*
X66387828Y14804222D02*
X70372604Y14455598D01*
X84072390Y10412868D02*
X88057167Y10064244D01*
X85554037Y27348177D02*
X89538815Y26999553D01*
X68697828Y-5111368D02*
X72637058Y-5805958D01*
X86798886Y-9600609D02*
X90557656Y-10968689D01*
X96545955Y12433412D02*
X101128452Y12032497D01*
X17874396Y-7830293D02*
X19594103Y-9550000D01*
X19594103Y-9550000D02*
X20440000Y-9550000D01*
X20440000Y-9550000D02*
X21700000Y-8290000D01*
X21700000Y3392766D02*
X17980000Y7112766D01*
X21700000Y-8290000D02*
X21700000Y3392766D01*
X17980000Y21530000D02*
X9250000Y30260000D01*
X9250000Y38867121D02*
X1242479Y46874642D01*
X9250000Y30260000D02*
X9250000Y38867121D01*
X1242479Y49183601D02*
X1021104Y49404976D01*
X1242479Y46874642D02*
X1242479Y49183601D01*
X12123147Y49404976D02*
X15981735Y53263564D01*
X1021104Y49404976D02*
X12123147Y49404976D01*
X14952150Y7112766D02*
X17980000Y7112766D01*
X13474471Y8590445D02*
X14952150Y7112766D01*
X19132874Y21530000D02*
X17980000Y21530000D01*
X35682052Y25453563D02*
X23056437Y25453563D01*
X23056437Y25453563D02*
X19132874Y21530000D01*
X27446543Y29843669D02*
X23056437Y25453563D01*
X67869473Y31739532D02*
X67069474Y30939533D01*
X47569209Y37340720D02*
X43594245Y33365755D01*
X67069474Y30939533D02*
X61039533Y30939533D01*
X85554037Y27348177D02*
X84275860Y26070000D01*
X65909066Y26070000D02*
X60849533Y31129533D01*
X60849533Y31129533D02*
X61039533Y30939533D01*
X86798885Y-9600609D02*
X85769494Y-10630000D01*
X85769494Y-10630000D02*
X83910000Y-10630000D01*
X83910000Y-10630000D02*
X81710000Y-8430000D01*
X77260000Y26070000D02*
X65909066Y26070000D01*
X84275860Y26070000D02*
X77260000Y26070000D01*
X73335900Y48326218D02*
X78242118Y43420000D01*
X78242118Y43420000D02*
X78242118Y27052118D01*
X76948202Y7880000D02*
X70372604Y14455598D01*
X81539520Y7880000D02*
X76948202Y7880000D01*
X84072389Y10412868D02*
X81539520Y7880000D01*
X81344236Y4790000D02*
X78242118Y7892118D01*
X81344236Y-8064236D02*
X81710000Y-8430000D01*
X81344236Y4790000D02*
X81344236Y-8064236D01*
X74895336Y-8064236D02*
X74615550Y-7784450D01*
X81344236Y-8064236D02*
X74895336Y-8064236D01*
X74615550Y-7784450D02*
X72637058Y-5805959D01*
X78242118Y25087882D02*
X78242118Y7892118D01*
X78242118Y27052118D02*
X78242118Y25087882D01*
X69351122Y48674841D02*
X67126281Y46450000D01*
X59459925Y46450000D02*
X51569206Y54340719D01*
X67126281Y46450000D02*
X59459925Y46450000D01*
X29949674Y47127602D02*
X32347276Y44730000D01*
X37958488Y44730000D02*
X39959244Y46730756D01*
X32347276Y44730000D02*
X37958488Y44730000D01*
X47569206Y54340719D02*
X39959244Y46730756D01*
X19240000Y50005299D02*
X15981735Y53263564D01*
X19240000Y46600000D02*
X19240000Y50005299D01*
X24405917Y45220000D02*
X25964896Y46778979D01*
X20620000Y45220000D02*
X24405917Y45220000D01*
X20620000Y45220000D02*
X19240000Y46600000D01*
X59459925Y32519925D02*
X59459533Y32519533D01*
X59459925Y46450000D02*
X59459925Y32519925D01*
X59459533Y32519533D02*
X60849533Y31129533D01*
X42748023Y32519533D02*
X42109245Y31880755D01*
X59459533Y32519533D02*
X42748023Y32519533D01*
X43594245Y33365755D02*
X42109245Y31880755D01*
X37958488Y27729998D02*
X37504245Y27275755D01*
X37504245Y27275755D02*
X35682052Y25453563D01*
X42109245Y31880755D02*
X37504245Y27275755D01*
X27119831Y11100000D02*
X17980000Y11100000D01*
X28928191Y12908360D02*
X27119831Y11100000D01*
X17980000Y11100000D02*
X17980000Y21530000D01*
X17980000Y7112766D02*
X17980000Y11100000D01*
X47569207Y20340719D02*
X45748488Y18520000D01*
X45748488Y18520000D02*
X41850000Y18520000D01*
X37958488Y22411512D02*
X37958488Y28498488D01*
X41850000Y18520000D02*
X37958488Y22411512D01*
X37958488Y28498488D02*
X37958488Y27729998D01*
X37958488Y44730000D02*
X37958488Y28498488D01*
X59459533Y18930467D02*
X59459533Y32519533D01*
X53389926Y18520000D02*
X45748488Y18520000D01*
X51569207Y20340719D02*
X53389926Y18520000D01*
X53389926Y18520000D02*
X59429066Y18520000D01*
X59459533Y18930467D02*
X59459533Y17990467D01*
X59459533Y17990467D02*
X59459533Y18550467D01*
X64903605Y13320000D02*
X66387826Y14804221D01*
X63750000Y13320000D02*
X64903605Y13320000D01*
X59459533Y17610467D02*
X63750000Y13320000D01*
X59459533Y17990467D02*
X59459533Y17610467D01*
X32912969Y13256983D02*
X34539952Y11630000D01*
X34539952Y11630000D02*
X35690000Y11630000D01*
X37958488Y13898488D02*
X37958488Y22411512D01*
X35690000Y11630000D02*
X37958488Y13898488D01*
X88057167Y10064245D02*
X90121412Y8000000D01*
X92112546Y8000000D02*
X96545958Y12433412D01*
X90121412Y8000000D02*
X92112546Y8000000D01*
%TD*%
M02*
