%TF.GenerationSoftware,KiCad,Pcbnew,(5.1.9)-1*%
%TF.CreationDate,2021-06-26T19:41:31+02:00*%
%TF.ProjectId,idiosepius_thailandicus_choc,6964696f-7365-4706-9975-735f74686169,VERSION_HERE*%
%TF.SameCoordinates,Original*%
%TF.FileFunction,Legend,Top*%
%TF.FilePolarity,Positive*%
%FSLAX46Y46*%
G04 Gerber Fmt 4.6, Leading zero omitted, Abs format (unit mm)*
G04 Created by KiCad (PCBNEW (5.1.9)-1) date 2021-06-26 19:41:31*
%MOMM*%
%LPD*%
G01*
G04 APERTURE LIST*
%ADD10C,0.150000*%
G04 APERTURE END LIST*
D10*
%TO.C,C1*%
X75952735Y51947217D02*
X75952735Y18927217D01*
X75952735Y18927217D02*
X93732735Y18927217D01*
X93732735Y18927217D02*
X93732735Y51947217D01*
X93732735Y51947217D02*
X75952735Y51947217D01*
X78492735Y49407217D02*
X78492735Y46867217D01*
X78492735Y49407217D02*
X75952735Y49407217D01*
X78492735Y46867217D02*
X75952735Y46867217D01*
X79490354Y47775312D02*
X79223687Y48156264D01*
X79033211Y47775312D02*
X79033211Y48575312D01*
X79337973Y48575312D01*
X79414163Y48537217D01*
X79452258Y48499121D01*
X79490354Y48422931D01*
X79490354Y48308645D01*
X79452258Y48232455D01*
X79414163Y48194359D01*
X79337973Y48156264D01*
X79033211Y48156264D01*
X79795115Y48003883D02*
X80176068Y48003883D01*
X79718925Y47775312D02*
X79985592Y48575312D01*
X80252258Y47775312D01*
X80442735Y48575312D02*
X80633211Y47775312D01*
X80785592Y48346740D01*
X80937973Y47775312D01*
X81128449Y48575312D01*
X79433211Y45997217D02*
X79357020Y46035312D01*
X79242735Y46035312D01*
X79128449Y45997217D01*
X79052258Y45921026D01*
X79014163Y45844836D01*
X78976068Y45692455D01*
X78976068Y45578169D01*
X79014163Y45425788D01*
X79052258Y45349597D01*
X79128449Y45273407D01*
X79242735Y45235312D01*
X79318925Y45235312D01*
X79433211Y45273407D01*
X79471306Y45311502D01*
X79471306Y45578169D01*
X79318925Y45578169D01*
X79814163Y45235312D02*
X79814163Y46035312D01*
X80271306Y45235312D01*
X80271306Y46035312D01*
X80652258Y45235312D02*
X80652258Y46035312D01*
X80842735Y46035312D01*
X80957020Y45997217D01*
X81033211Y45921026D01*
X81071306Y45844836D01*
X81109401Y45692455D01*
X81109401Y45578169D01*
X81071306Y45425788D01*
X81033211Y45349597D01*
X80957020Y45273407D01*
X80842735Y45235312D01*
X80652258Y45235312D01*
X79604639Y42695312D02*
X79337973Y43076264D01*
X79147496Y42695312D02*
X79147496Y43495312D01*
X79452258Y43495312D01*
X79528449Y43457217D01*
X79566544Y43419121D01*
X79604639Y43342931D01*
X79604639Y43228645D01*
X79566544Y43152455D01*
X79528449Y43114359D01*
X79452258Y43076264D01*
X79147496Y43076264D01*
X79909401Y42733407D02*
X80023687Y42695312D01*
X80214163Y42695312D01*
X80290354Y42733407D01*
X80328449Y42771502D01*
X80366544Y42847693D01*
X80366544Y42923883D01*
X80328449Y43000074D01*
X80290354Y43038169D01*
X80214163Y43076264D01*
X80061782Y43114359D01*
X79985592Y43152455D01*
X79947496Y43190550D01*
X79909401Y43266740D01*
X79909401Y43342931D01*
X79947496Y43419121D01*
X79985592Y43457217D01*
X80061782Y43495312D01*
X80252258Y43495312D01*
X80366544Y43457217D01*
X80595115Y43495312D02*
X81052258Y43495312D01*
X80823687Y42695312D02*
X80823687Y43495312D01*
X78976068Y40955312D02*
X79242735Y40155312D01*
X79509401Y40955312D01*
X80233211Y40231502D02*
X80195115Y40193407D01*
X80080830Y40155312D01*
X80004639Y40155312D01*
X79890354Y40193407D01*
X79814163Y40269597D01*
X79776068Y40345788D01*
X79737973Y40498169D01*
X79737973Y40612455D01*
X79776068Y40764836D01*
X79814163Y40841026D01*
X79890354Y40917217D01*
X80004639Y40955312D01*
X80080830Y40955312D01*
X80195115Y40917217D01*
X80233211Y40879121D01*
X81033211Y40231502D02*
X80995115Y40193407D01*
X80880830Y40155312D01*
X80804639Y40155312D01*
X80690354Y40193407D01*
X80614163Y40269597D01*
X80576068Y40345788D01*
X80537973Y40498169D01*
X80537973Y40612455D01*
X80576068Y40764836D01*
X80614163Y40841026D01*
X80690354Y40917217D01*
X80804639Y40955312D01*
X80880830Y40955312D01*
X80995115Y40917217D01*
X81033211Y40879121D01*
X79071306Y37615312D02*
X79071306Y38415312D01*
X79376068Y38415312D01*
X79452258Y38377217D01*
X79490354Y38339121D01*
X79528449Y38262931D01*
X79528449Y38148645D01*
X79490354Y38072455D01*
X79452258Y38034359D01*
X79376068Y37996264D01*
X79071306Y37996264D01*
X79833211Y38339121D02*
X79871306Y38377217D01*
X79947496Y38415312D01*
X80137973Y38415312D01*
X80214163Y38377217D01*
X80252258Y38339121D01*
X80290354Y38262931D01*
X80290354Y38186740D01*
X80252258Y38072455D01*
X79795115Y37615312D01*
X80290354Y37615312D01*
X81052258Y37615312D02*
X80595115Y37615312D01*
X80823687Y37615312D02*
X80823687Y38415312D01*
X80747496Y38301026D01*
X80671306Y38224836D01*
X80595115Y38186740D01*
X79071306Y35075312D02*
X79071306Y35875312D01*
X79376068Y35875312D01*
X79452258Y35837217D01*
X79490354Y35799121D01*
X79528449Y35722931D01*
X79528449Y35608645D01*
X79490354Y35532455D01*
X79452258Y35494359D01*
X79376068Y35456264D01*
X79071306Y35456264D01*
X79833211Y35799121D02*
X79871306Y35837217D01*
X79947496Y35875312D01*
X80137973Y35875312D01*
X80214163Y35837217D01*
X80252258Y35799121D01*
X80290354Y35722931D01*
X80290354Y35646740D01*
X80252258Y35532455D01*
X79795115Y35075312D01*
X80290354Y35075312D01*
X80785592Y35875312D02*
X80861782Y35875312D01*
X80937973Y35837217D01*
X80976068Y35799121D01*
X81014163Y35722931D01*
X81052258Y35570550D01*
X81052258Y35380074D01*
X81014163Y35227693D01*
X80976068Y35151502D01*
X80937973Y35113407D01*
X80861782Y35075312D01*
X80785592Y35075312D01*
X80709401Y35113407D01*
X80671306Y35151502D01*
X80633211Y35227693D01*
X80595115Y35380074D01*
X80595115Y35570550D01*
X80633211Y35722931D01*
X80671306Y35799121D01*
X80709401Y35837217D01*
X80785592Y35875312D01*
X79071306Y32535312D02*
X79071306Y33335312D01*
X79376068Y33335312D01*
X79452258Y33297217D01*
X79490354Y33259121D01*
X79528449Y33182931D01*
X79528449Y33068645D01*
X79490354Y32992455D01*
X79452258Y32954359D01*
X79376068Y32916264D01*
X79071306Y32916264D01*
X80290354Y32535312D02*
X79833211Y32535312D01*
X80061782Y32535312D02*
X80061782Y33335312D01*
X79985592Y33221026D01*
X79909401Y33144836D01*
X79833211Y33106740D01*
X80671306Y32535312D02*
X80823687Y32535312D01*
X80899877Y32573407D01*
X80937973Y32611502D01*
X81014163Y32725788D01*
X81052258Y32878169D01*
X81052258Y33182931D01*
X81014163Y33259121D01*
X80976068Y33297217D01*
X80899877Y33335312D01*
X80747496Y33335312D01*
X80671306Y33297217D01*
X80633211Y33259121D01*
X80595115Y33182931D01*
X80595115Y32992455D01*
X80633211Y32916264D01*
X80671306Y32878169D01*
X80747496Y32840074D01*
X80899877Y32840074D01*
X80976068Y32878169D01*
X81014163Y32916264D01*
X81052258Y32992455D01*
X79071306Y29995312D02*
X79071306Y30795312D01*
X79376068Y30795312D01*
X79452258Y30757217D01*
X79490354Y30719121D01*
X79528449Y30642931D01*
X79528449Y30528645D01*
X79490354Y30452455D01*
X79452258Y30414359D01*
X79376068Y30376264D01*
X79071306Y30376264D01*
X80290354Y29995312D02*
X79833211Y29995312D01*
X80061782Y29995312D02*
X80061782Y30795312D01*
X79985592Y30681026D01*
X79909401Y30604836D01*
X79833211Y30566740D01*
X80747496Y30452455D02*
X80671306Y30490550D01*
X80633211Y30528645D01*
X80595115Y30604836D01*
X80595115Y30642931D01*
X80633211Y30719121D01*
X80671306Y30757217D01*
X80747496Y30795312D01*
X80899877Y30795312D01*
X80976068Y30757217D01*
X81014163Y30719121D01*
X81052258Y30642931D01*
X81052258Y30604836D01*
X81014163Y30528645D01*
X80976068Y30490550D01*
X80899877Y30452455D01*
X80747496Y30452455D01*
X80671306Y30414359D01*
X80633211Y30376264D01*
X80595115Y30300074D01*
X80595115Y30147693D01*
X80633211Y30071502D01*
X80671306Y30033407D01*
X80747496Y29995312D01*
X80899877Y29995312D01*
X80976068Y30033407D01*
X81014163Y30071502D01*
X81052258Y30147693D01*
X81052258Y30300074D01*
X81014163Y30376264D01*
X80976068Y30414359D01*
X80899877Y30452455D01*
X79071306Y27455312D02*
X79071306Y28255312D01*
X79376068Y28255312D01*
X79452258Y28217217D01*
X79490354Y28179121D01*
X79528449Y28102931D01*
X79528449Y27988645D01*
X79490354Y27912455D01*
X79452258Y27874359D01*
X79376068Y27836264D01*
X79071306Y27836264D01*
X80290354Y27455312D02*
X79833211Y27455312D01*
X80061782Y27455312D02*
X80061782Y28255312D01*
X79985592Y28141026D01*
X79909401Y28064836D01*
X79833211Y28026740D01*
X81014163Y28255312D02*
X80633211Y28255312D01*
X80595115Y27874359D01*
X80633211Y27912455D01*
X80709401Y27950550D01*
X80899877Y27950550D01*
X80976068Y27912455D01*
X81014163Y27874359D01*
X81052258Y27798169D01*
X81052258Y27607693D01*
X81014163Y27531502D01*
X80976068Y27493407D01*
X80899877Y27455312D01*
X80709401Y27455312D01*
X80633211Y27493407D01*
X80595115Y27531502D01*
X79071306Y24915312D02*
X79071306Y25715312D01*
X79376068Y25715312D01*
X79452258Y25677217D01*
X79490354Y25639121D01*
X79528449Y25562931D01*
X79528449Y25448645D01*
X79490354Y25372455D01*
X79452258Y25334359D01*
X79376068Y25296264D01*
X79071306Y25296264D01*
X80290354Y24915312D02*
X79833211Y24915312D01*
X80061782Y24915312D02*
X80061782Y25715312D01*
X79985592Y25601026D01*
X79909401Y25524836D01*
X79833211Y25486740D01*
X80976068Y25448645D02*
X80976068Y24915312D01*
X80785592Y25753407D02*
X80595115Y25181978D01*
X81090354Y25181978D01*
X79071306Y22375312D02*
X79071306Y23175312D01*
X79376068Y23175312D01*
X79452258Y23137217D01*
X79490354Y23099121D01*
X79528449Y23022931D01*
X79528449Y22908645D01*
X79490354Y22832455D01*
X79452258Y22794359D01*
X79376068Y22756264D01*
X79071306Y22756264D01*
X80290354Y22375312D02*
X79833211Y22375312D01*
X80061782Y22375312D02*
X80061782Y23175312D01*
X79985592Y23061026D01*
X79909401Y22984836D01*
X79833211Y22946740D01*
X80976068Y23175312D02*
X80823687Y23175312D01*
X80747496Y23137217D01*
X80709401Y23099121D01*
X80633211Y22984836D01*
X80595115Y22832455D01*
X80595115Y22527693D01*
X80633211Y22451502D01*
X80671306Y22413407D01*
X80747496Y22375312D01*
X80899877Y22375312D01*
X80976068Y22413407D01*
X81014163Y22451502D01*
X81052258Y22527693D01*
X81052258Y22718169D01*
X81014163Y22794359D01*
X80976068Y22832455D01*
X80899877Y22870550D01*
X80747496Y22870550D01*
X80671306Y22832455D01*
X80633211Y22794359D01*
X80595115Y22718169D01*
X79071306Y19835312D02*
X79071306Y20635312D01*
X79376068Y20635312D01*
X79452258Y20597217D01*
X79490354Y20559121D01*
X79528449Y20482931D01*
X79528449Y20368645D01*
X79490354Y20292455D01*
X79452258Y20254359D01*
X79376068Y20216264D01*
X79071306Y20216264D01*
X80290354Y19835312D02*
X79833211Y19835312D01*
X80061782Y19835312D02*
X80061782Y20635312D01*
X79985592Y20521026D01*
X79909401Y20444836D01*
X79833211Y20406740D01*
X80785592Y20635312D02*
X80861782Y20635312D01*
X80937973Y20597217D01*
X80976068Y20559121D01*
X81014163Y20482931D01*
X81052258Y20330550D01*
X81052258Y20140074D01*
X81014163Y19987693D01*
X80976068Y19911502D01*
X80937973Y19873407D01*
X80861782Y19835312D01*
X80785592Y19835312D01*
X80709401Y19873407D01*
X80671306Y19911502D01*
X80633211Y19987693D01*
X80595115Y20140074D01*
X80595115Y20330550D01*
X80633211Y20482931D01*
X80671306Y20559121D01*
X80709401Y20597217D01*
X80785592Y20635312D01*
X88671306Y47775312D02*
X88671306Y48575312D01*
X88976068Y48575312D01*
X89052258Y48537217D01*
X89090354Y48499121D01*
X89128449Y48422931D01*
X89128449Y48308645D01*
X89090354Y48232455D01*
X89052258Y48194359D01*
X88976068Y48156264D01*
X88671306Y48156264D01*
X89623687Y48575312D02*
X89699877Y48575312D01*
X89776068Y48537217D01*
X89814163Y48499121D01*
X89852258Y48422931D01*
X89890354Y48270550D01*
X89890354Y48080074D01*
X89852258Y47927693D01*
X89814163Y47851502D01*
X89776068Y47813407D01*
X89699877Y47775312D01*
X89623687Y47775312D01*
X89547496Y47813407D01*
X89509401Y47851502D01*
X89471306Y47927693D01*
X89433211Y48080074D01*
X89433211Y48270550D01*
X89471306Y48422931D01*
X89509401Y48499121D01*
X89547496Y48537217D01*
X89623687Y48575312D01*
X90652258Y47775312D02*
X90195115Y47775312D01*
X90423687Y47775312D02*
X90423687Y48575312D01*
X90347496Y48461026D01*
X90271306Y48384836D01*
X90195115Y48346740D01*
X88671306Y45235312D02*
X88671306Y46035312D01*
X88976068Y46035312D01*
X89052258Y45997217D01*
X89090354Y45959121D01*
X89128449Y45882931D01*
X89128449Y45768645D01*
X89090354Y45692455D01*
X89052258Y45654359D01*
X88976068Y45616264D01*
X88671306Y45616264D01*
X89623687Y46035312D02*
X89699877Y46035312D01*
X89776068Y45997217D01*
X89814163Y45959121D01*
X89852258Y45882931D01*
X89890354Y45730550D01*
X89890354Y45540074D01*
X89852258Y45387693D01*
X89814163Y45311502D01*
X89776068Y45273407D01*
X89699877Y45235312D01*
X89623687Y45235312D01*
X89547496Y45273407D01*
X89509401Y45311502D01*
X89471306Y45387693D01*
X89433211Y45540074D01*
X89433211Y45730550D01*
X89471306Y45882931D01*
X89509401Y45959121D01*
X89547496Y45997217D01*
X89623687Y46035312D01*
X90385592Y46035312D02*
X90461782Y46035312D01*
X90537973Y45997217D01*
X90576068Y45959121D01*
X90614163Y45882931D01*
X90652258Y45730550D01*
X90652258Y45540074D01*
X90614163Y45387693D01*
X90576068Y45311502D01*
X90537973Y45273407D01*
X90461782Y45235312D01*
X90385592Y45235312D01*
X90309401Y45273407D01*
X90271306Y45311502D01*
X90233211Y45387693D01*
X90195115Y45540074D01*
X90195115Y45730550D01*
X90233211Y45882931D01*
X90271306Y45959121D01*
X90309401Y45997217D01*
X90385592Y46035312D01*
X89033211Y43457217D02*
X88957020Y43495312D01*
X88842735Y43495312D01*
X88728449Y43457217D01*
X88652258Y43381026D01*
X88614163Y43304836D01*
X88576068Y43152455D01*
X88576068Y43038169D01*
X88614163Y42885788D01*
X88652258Y42809597D01*
X88728449Y42733407D01*
X88842735Y42695312D01*
X88918925Y42695312D01*
X89033211Y42733407D01*
X89071306Y42771502D01*
X89071306Y43038169D01*
X88918925Y43038169D01*
X89414163Y42695312D02*
X89414163Y43495312D01*
X89871306Y42695312D01*
X89871306Y43495312D01*
X90252258Y42695312D02*
X90252258Y43495312D01*
X90442735Y43495312D01*
X90557020Y43457217D01*
X90633211Y43381026D01*
X90671306Y43304836D01*
X90709401Y43152455D01*
X90709401Y43038169D01*
X90671306Y42885788D01*
X90633211Y42809597D01*
X90557020Y42733407D01*
X90442735Y42695312D01*
X90252258Y42695312D01*
X89033211Y40917217D02*
X88957020Y40955312D01*
X88842735Y40955312D01*
X88728449Y40917217D01*
X88652258Y40841026D01*
X88614163Y40764836D01*
X88576068Y40612455D01*
X88576068Y40498169D01*
X88614163Y40345788D01*
X88652258Y40269597D01*
X88728449Y40193407D01*
X88842735Y40155312D01*
X88918925Y40155312D01*
X89033211Y40193407D01*
X89071306Y40231502D01*
X89071306Y40498169D01*
X88918925Y40498169D01*
X89414163Y40155312D02*
X89414163Y40955312D01*
X89871306Y40155312D01*
X89871306Y40955312D01*
X90252258Y40155312D02*
X90252258Y40955312D01*
X90442735Y40955312D01*
X90557020Y40917217D01*
X90633211Y40841026D01*
X90671306Y40764836D01*
X90709401Y40612455D01*
X90709401Y40498169D01*
X90671306Y40345788D01*
X90633211Y40269597D01*
X90557020Y40193407D01*
X90442735Y40155312D01*
X90252258Y40155312D01*
X88671306Y37615312D02*
X88671306Y38415312D01*
X88976068Y38415312D01*
X89052258Y38377217D01*
X89090354Y38339121D01*
X89128449Y38262931D01*
X89128449Y38148645D01*
X89090354Y38072455D01*
X89052258Y38034359D01*
X88976068Y37996264D01*
X88671306Y37996264D01*
X89623687Y38415312D02*
X89699877Y38415312D01*
X89776068Y38377217D01*
X89814163Y38339121D01*
X89852258Y38262931D01*
X89890354Y38110550D01*
X89890354Y37920074D01*
X89852258Y37767693D01*
X89814163Y37691502D01*
X89776068Y37653407D01*
X89699877Y37615312D01*
X89623687Y37615312D01*
X89547496Y37653407D01*
X89509401Y37691502D01*
X89471306Y37767693D01*
X89433211Y37920074D01*
X89433211Y38110550D01*
X89471306Y38262931D01*
X89509401Y38339121D01*
X89547496Y38377217D01*
X89623687Y38415312D01*
X90195115Y38339121D02*
X90233211Y38377217D01*
X90309401Y38415312D01*
X90499877Y38415312D01*
X90576068Y38377217D01*
X90614163Y38339121D01*
X90652258Y38262931D01*
X90652258Y38186740D01*
X90614163Y38072455D01*
X90157020Y37615312D01*
X90652258Y37615312D01*
X88671306Y35075312D02*
X88671306Y35875312D01*
X88976068Y35875312D01*
X89052258Y35837217D01*
X89090354Y35799121D01*
X89128449Y35722931D01*
X89128449Y35608645D01*
X89090354Y35532455D01*
X89052258Y35494359D01*
X88976068Y35456264D01*
X88671306Y35456264D01*
X89623687Y35875312D02*
X89699877Y35875312D01*
X89776068Y35837217D01*
X89814163Y35799121D01*
X89852258Y35722931D01*
X89890354Y35570550D01*
X89890354Y35380074D01*
X89852258Y35227693D01*
X89814163Y35151502D01*
X89776068Y35113407D01*
X89699877Y35075312D01*
X89623687Y35075312D01*
X89547496Y35113407D01*
X89509401Y35151502D01*
X89471306Y35227693D01*
X89433211Y35380074D01*
X89433211Y35570550D01*
X89471306Y35722931D01*
X89509401Y35799121D01*
X89547496Y35837217D01*
X89623687Y35875312D01*
X90157020Y35875312D02*
X90652258Y35875312D01*
X90385592Y35570550D01*
X90499877Y35570550D01*
X90576068Y35532455D01*
X90614163Y35494359D01*
X90652258Y35418169D01*
X90652258Y35227693D01*
X90614163Y35151502D01*
X90576068Y35113407D01*
X90499877Y35075312D01*
X90271306Y35075312D01*
X90195115Y35113407D01*
X90157020Y35151502D01*
X88671306Y32535312D02*
X88671306Y33335312D01*
X88976068Y33335312D01*
X89052258Y33297217D01*
X89090354Y33259121D01*
X89128449Y33182931D01*
X89128449Y33068645D01*
X89090354Y32992455D01*
X89052258Y32954359D01*
X88976068Y32916264D01*
X88671306Y32916264D01*
X89623687Y33335312D02*
X89699877Y33335312D01*
X89776068Y33297217D01*
X89814163Y33259121D01*
X89852258Y33182931D01*
X89890354Y33030550D01*
X89890354Y32840074D01*
X89852258Y32687693D01*
X89814163Y32611502D01*
X89776068Y32573407D01*
X89699877Y32535312D01*
X89623687Y32535312D01*
X89547496Y32573407D01*
X89509401Y32611502D01*
X89471306Y32687693D01*
X89433211Y32840074D01*
X89433211Y33030550D01*
X89471306Y33182931D01*
X89509401Y33259121D01*
X89547496Y33297217D01*
X89623687Y33335312D01*
X90576068Y33068645D02*
X90576068Y32535312D01*
X90385592Y33373407D02*
X90195115Y32801978D01*
X90690354Y32801978D01*
X88671306Y29995312D02*
X88671306Y30795312D01*
X88976068Y30795312D01*
X89052258Y30757217D01*
X89090354Y30719121D01*
X89128449Y30642931D01*
X89128449Y30528645D01*
X89090354Y30452455D01*
X89052258Y30414359D01*
X88976068Y30376264D01*
X88671306Y30376264D01*
X89623687Y30795312D02*
X89699877Y30795312D01*
X89776068Y30757217D01*
X89814163Y30719121D01*
X89852258Y30642931D01*
X89890354Y30490550D01*
X89890354Y30300074D01*
X89852258Y30147693D01*
X89814163Y30071502D01*
X89776068Y30033407D01*
X89699877Y29995312D01*
X89623687Y29995312D01*
X89547496Y30033407D01*
X89509401Y30071502D01*
X89471306Y30147693D01*
X89433211Y30300074D01*
X89433211Y30490550D01*
X89471306Y30642931D01*
X89509401Y30719121D01*
X89547496Y30757217D01*
X89623687Y30795312D01*
X90614163Y30795312D02*
X90233211Y30795312D01*
X90195115Y30414359D01*
X90233211Y30452455D01*
X90309401Y30490550D01*
X90499877Y30490550D01*
X90576068Y30452455D01*
X90614163Y30414359D01*
X90652258Y30338169D01*
X90652258Y30147693D01*
X90614163Y30071502D01*
X90576068Y30033407D01*
X90499877Y29995312D01*
X90309401Y29995312D01*
X90233211Y30033407D01*
X90195115Y30071502D01*
X88671306Y27455312D02*
X88671306Y28255312D01*
X88976068Y28255312D01*
X89052258Y28217217D01*
X89090354Y28179121D01*
X89128449Y28102931D01*
X89128449Y27988645D01*
X89090354Y27912455D01*
X89052258Y27874359D01*
X88976068Y27836264D01*
X88671306Y27836264D01*
X89623687Y28255312D02*
X89699877Y28255312D01*
X89776068Y28217217D01*
X89814163Y28179121D01*
X89852258Y28102931D01*
X89890354Y27950550D01*
X89890354Y27760074D01*
X89852258Y27607693D01*
X89814163Y27531502D01*
X89776068Y27493407D01*
X89699877Y27455312D01*
X89623687Y27455312D01*
X89547496Y27493407D01*
X89509401Y27531502D01*
X89471306Y27607693D01*
X89433211Y27760074D01*
X89433211Y27950550D01*
X89471306Y28102931D01*
X89509401Y28179121D01*
X89547496Y28217217D01*
X89623687Y28255312D01*
X90576068Y28255312D02*
X90423687Y28255312D01*
X90347496Y28217217D01*
X90309401Y28179121D01*
X90233211Y28064836D01*
X90195115Y27912455D01*
X90195115Y27607693D01*
X90233211Y27531502D01*
X90271306Y27493407D01*
X90347496Y27455312D01*
X90499877Y27455312D01*
X90576068Y27493407D01*
X90614163Y27531502D01*
X90652258Y27607693D01*
X90652258Y27798169D01*
X90614163Y27874359D01*
X90576068Y27912455D01*
X90499877Y27950550D01*
X90347496Y27950550D01*
X90271306Y27912455D01*
X90233211Y27874359D01*
X90195115Y27798169D01*
X88671306Y24915312D02*
X88671306Y25715312D01*
X88976068Y25715312D01*
X89052258Y25677217D01*
X89090354Y25639121D01*
X89128449Y25562931D01*
X89128449Y25448645D01*
X89090354Y25372455D01*
X89052258Y25334359D01*
X88976068Y25296264D01*
X88671306Y25296264D01*
X89623687Y25715312D02*
X89699877Y25715312D01*
X89776068Y25677217D01*
X89814163Y25639121D01*
X89852258Y25562931D01*
X89890354Y25410550D01*
X89890354Y25220074D01*
X89852258Y25067693D01*
X89814163Y24991502D01*
X89776068Y24953407D01*
X89699877Y24915312D01*
X89623687Y24915312D01*
X89547496Y24953407D01*
X89509401Y24991502D01*
X89471306Y25067693D01*
X89433211Y25220074D01*
X89433211Y25410550D01*
X89471306Y25562931D01*
X89509401Y25639121D01*
X89547496Y25677217D01*
X89623687Y25715312D01*
X90157020Y25715312D02*
X90690354Y25715312D01*
X90347496Y24915312D01*
X88671306Y22375312D02*
X88671306Y23175312D01*
X88976068Y23175312D01*
X89052258Y23137217D01*
X89090354Y23099121D01*
X89128449Y23022931D01*
X89128449Y22908645D01*
X89090354Y22832455D01*
X89052258Y22794359D01*
X88976068Y22756264D01*
X88671306Y22756264D01*
X89623687Y23175312D02*
X89699877Y23175312D01*
X89776068Y23137217D01*
X89814163Y23099121D01*
X89852258Y23022931D01*
X89890354Y22870550D01*
X89890354Y22680074D01*
X89852258Y22527693D01*
X89814163Y22451502D01*
X89776068Y22413407D01*
X89699877Y22375312D01*
X89623687Y22375312D01*
X89547496Y22413407D01*
X89509401Y22451502D01*
X89471306Y22527693D01*
X89433211Y22680074D01*
X89433211Y22870550D01*
X89471306Y23022931D01*
X89509401Y23099121D01*
X89547496Y23137217D01*
X89623687Y23175312D01*
X90347496Y22832455D02*
X90271306Y22870550D01*
X90233211Y22908645D01*
X90195115Y22984836D01*
X90195115Y23022931D01*
X90233211Y23099121D01*
X90271306Y23137217D01*
X90347496Y23175312D01*
X90499877Y23175312D01*
X90576068Y23137217D01*
X90614163Y23099121D01*
X90652258Y23022931D01*
X90652258Y22984836D01*
X90614163Y22908645D01*
X90576068Y22870550D01*
X90499877Y22832455D01*
X90347496Y22832455D01*
X90271306Y22794359D01*
X90233211Y22756264D01*
X90195115Y22680074D01*
X90195115Y22527693D01*
X90233211Y22451502D01*
X90271306Y22413407D01*
X90347496Y22375312D01*
X90499877Y22375312D01*
X90576068Y22413407D01*
X90614163Y22451502D01*
X90652258Y22527693D01*
X90652258Y22680074D01*
X90614163Y22756264D01*
X90576068Y22794359D01*
X90499877Y22832455D01*
X88671306Y19835312D02*
X88671306Y20635312D01*
X88976068Y20635312D01*
X89052258Y20597217D01*
X89090354Y20559121D01*
X89128449Y20482931D01*
X89128449Y20368645D01*
X89090354Y20292455D01*
X89052258Y20254359D01*
X88976068Y20216264D01*
X88671306Y20216264D01*
X89623687Y20635312D02*
X89699877Y20635312D01*
X89776068Y20597217D01*
X89814163Y20559121D01*
X89852258Y20482931D01*
X89890354Y20330550D01*
X89890354Y20140074D01*
X89852258Y19987693D01*
X89814163Y19911502D01*
X89776068Y19873407D01*
X89699877Y19835312D01*
X89623687Y19835312D01*
X89547496Y19873407D01*
X89509401Y19911502D01*
X89471306Y19987693D01*
X89433211Y20140074D01*
X89433211Y20330550D01*
X89471306Y20482931D01*
X89509401Y20559121D01*
X89547496Y20597217D01*
X89623687Y20635312D01*
X90271306Y19835312D02*
X90423687Y19835312D01*
X90499877Y19873407D01*
X90537973Y19911502D01*
X90614163Y20025788D01*
X90652258Y20178169D01*
X90652258Y20482931D01*
X90614163Y20559121D01*
X90576068Y20597217D01*
X90499877Y20635312D01*
X90347496Y20635312D01*
X90271306Y20597217D01*
X90233211Y20559121D01*
X90195115Y20482931D01*
X90195115Y20292455D01*
X90233211Y20216264D01*
X90271306Y20178169D01*
X90347496Y20140074D01*
X90499877Y20140074D01*
X90576068Y20178169D01*
X90614163Y20216264D01*
X90652258Y20292455D01*
%TD*%
M02*
