%TF.GenerationSoftware,KiCad,Pcbnew,(5.1.9)-1*%
%TF.CreationDate,2021-06-26T19:40:30+02:00*%
%TF.ProjectId,idiosepius_thailandicus,6964696f-7365-4706-9975-735f74686169,VERSION_HERE*%
%TF.SameCoordinates,Original*%
%TF.FileFunction,Legend,Top*%
%TF.FilePolarity,Positive*%
%FSLAX46Y46*%
G04 Gerber Fmt 4.6, Leading zero omitted, Abs format (unit mm)*
G04 Created by KiCad (PCBNEW (5.1.9)-1) date 2021-06-26 19:40:30*
%MOMM*%
%LPD*%
G01*
G04 APERTURE LIST*
%ADD10C,0.150000*%
G04 APERTURE END LIST*
D10*
%TO.C,C1*%
X76633412Y52640581D02*
X76633412Y19620581D01*
X76633412Y19620581D02*
X94413412Y19620581D01*
X94413412Y19620581D02*
X94413412Y52640581D01*
X94413412Y52640581D02*
X76633412Y52640581D01*
X79173412Y50100581D02*
X79173412Y47560581D01*
X79173412Y50100581D02*
X76633412Y50100581D01*
X79173412Y47560581D02*
X76633412Y47560581D01*
X80171031Y48468676D02*
X79904364Y48849628D01*
X79713888Y48468676D02*
X79713888Y49268676D01*
X80018650Y49268676D01*
X80094840Y49230581D01*
X80132935Y49192485D01*
X80171031Y49116295D01*
X80171031Y49002009D01*
X80132935Y48925819D01*
X80094840Y48887723D01*
X80018650Y48849628D01*
X79713888Y48849628D01*
X80475792Y48697247D02*
X80856745Y48697247D01*
X80399602Y48468676D02*
X80666269Y49268676D01*
X80932935Y48468676D01*
X81123412Y49268676D02*
X81313888Y48468676D01*
X81466269Y49040104D01*
X81618650Y48468676D01*
X81809126Y49268676D01*
X80113888Y46690581D02*
X80037697Y46728676D01*
X79923412Y46728676D01*
X79809126Y46690581D01*
X79732935Y46614390D01*
X79694840Y46538200D01*
X79656745Y46385819D01*
X79656745Y46271533D01*
X79694840Y46119152D01*
X79732935Y46042961D01*
X79809126Y45966771D01*
X79923412Y45928676D01*
X79999602Y45928676D01*
X80113888Y45966771D01*
X80151983Y46004866D01*
X80151983Y46271533D01*
X79999602Y46271533D01*
X80494840Y45928676D02*
X80494840Y46728676D01*
X80951983Y45928676D01*
X80951983Y46728676D01*
X81332935Y45928676D02*
X81332935Y46728676D01*
X81523412Y46728676D01*
X81637697Y46690581D01*
X81713888Y46614390D01*
X81751983Y46538200D01*
X81790078Y46385819D01*
X81790078Y46271533D01*
X81751983Y46119152D01*
X81713888Y46042961D01*
X81637697Y45966771D01*
X81523412Y45928676D01*
X81332935Y45928676D01*
X80285316Y43388676D02*
X80018650Y43769628D01*
X79828173Y43388676D02*
X79828173Y44188676D01*
X80132935Y44188676D01*
X80209126Y44150581D01*
X80247221Y44112485D01*
X80285316Y44036295D01*
X80285316Y43922009D01*
X80247221Y43845819D01*
X80209126Y43807723D01*
X80132935Y43769628D01*
X79828173Y43769628D01*
X80590078Y43426771D02*
X80704364Y43388676D01*
X80894840Y43388676D01*
X80971031Y43426771D01*
X81009126Y43464866D01*
X81047221Y43541057D01*
X81047221Y43617247D01*
X81009126Y43693438D01*
X80971031Y43731533D01*
X80894840Y43769628D01*
X80742459Y43807723D01*
X80666269Y43845819D01*
X80628173Y43883914D01*
X80590078Y43960104D01*
X80590078Y44036295D01*
X80628173Y44112485D01*
X80666269Y44150581D01*
X80742459Y44188676D01*
X80932935Y44188676D01*
X81047221Y44150581D01*
X81275792Y44188676D02*
X81732935Y44188676D01*
X81504364Y43388676D02*
X81504364Y44188676D01*
X79656745Y41648676D02*
X79923412Y40848676D01*
X80190078Y41648676D01*
X80913888Y40924866D02*
X80875792Y40886771D01*
X80761507Y40848676D01*
X80685316Y40848676D01*
X80571031Y40886771D01*
X80494840Y40962961D01*
X80456745Y41039152D01*
X80418650Y41191533D01*
X80418650Y41305819D01*
X80456745Y41458200D01*
X80494840Y41534390D01*
X80571031Y41610581D01*
X80685316Y41648676D01*
X80761507Y41648676D01*
X80875792Y41610581D01*
X80913888Y41572485D01*
X81713888Y40924866D02*
X81675792Y40886771D01*
X81561507Y40848676D01*
X81485316Y40848676D01*
X81371031Y40886771D01*
X81294840Y40962961D01*
X81256745Y41039152D01*
X81218650Y41191533D01*
X81218650Y41305819D01*
X81256745Y41458200D01*
X81294840Y41534390D01*
X81371031Y41610581D01*
X81485316Y41648676D01*
X81561507Y41648676D01*
X81675792Y41610581D01*
X81713888Y41572485D01*
X79751983Y38308676D02*
X79751983Y39108676D01*
X80056745Y39108676D01*
X80132935Y39070581D01*
X80171031Y39032485D01*
X80209126Y38956295D01*
X80209126Y38842009D01*
X80171031Y38765819D01*
X80132935Y38727723D01*
X80056745Y38689628D01*
X79751983Y38689628D01*
X80513888Y39032485D02*
X80551983Y39070581D01*
X80628173Y39108676D01*
X80818650Y39108676D01*
X80894840Y39070581D01*
X80932935Y39032485D01*
X80971031Y38956295D01*
X80971031Y38880104D01*
X80932935Y38765819D01*
X80475792Y38308676D01*
X80971031Y38308676D01*
X81732935Y38308676D02*
X81275792Y38308676D01*
X81504364Y38308676D02*
X81504364Y39108676D01*
X81428173Y38994390D01*
X81351983Y38918200D01*
X81275792Y38880104D01*
X79751983Y35768676D02*
X79751983Y36568676D01*
X80056745Y36568676D01*
X80132935Y36530581D01*
X80171031Y36492485D01*
X80209126Y36416295D01*
X80209126Y36302009D01*
X80171031Y36225819D01*
X80132935Y36187723D01*
X80056745Y36149628D01*
X79751983Y36149628D01*
X80513888Y36492485D02*
X80551983Y36530581D01*
X80628173Y36568676D01*
X80818650Y36568676D01*
X80894840Y36530581D01*
X80932935Y36492485D01*
X80971031Y36416295D01*
X80971031Y36340104D01*
X80932935Y36225819D01*
X80475792Y35768676D01*
X80971031Y35768676D01*
X81466269Y36568676D02*
X81542459Y36568676D01*
X81618650Y36530581D01*
X81656745Y36492485D01*
X81694840Y36416295D01*
X81732935Y36263914D01*
X81732935Y36073438D01*
X81694840Y35921057D01*
X81656745Y35844866D01*
X81618650Y35806771D01*
X81542459Y35768676D01*
X81466269Y35768676D01*
X81390078Y35806771D01*
X81351983Y35844866D01*
X81313888Y35921057D01*
X81275792Y36073438D01*
X81275792Y36263914D01*
X81313888Y36416295D01*
X81351983Y36492485D01*
X81390078Y36530581D01*
X81466269Y36568676D01*
X79751983Y33228676D02*
X79751983Y34028676D01*
X80056745Y34028676D01*
X80132935Y33990581D01*
X80171031Y33952485D01*
X80209126Y33876295D01*
X80209126Y33762009D01*
X80171031Y33685819D01*
X80132935Y33647723D01*
X80056745Y33609628D01*
X79751983Y33609628D01*
X80971031Y33228676D02*
X80513888Y33228676D01*
X80742459Y33228676D02*
X80742459Y34028676D01*
X80666269Y33914390D01*
X80590078Y33838200D01*
X80513888Y33800104D01*
X81351983Y33228676D02*
X81504364Y33228676D01*
X81580554Y33266771D01*
X81618650Y33304866D01*
X81694840Y33419152D01*
X81732935Y33571533D01*
X81732935Y33876295D01*
X81694840Y33952485D01*
X81656745Y33990581D01*
X81580554Y34028676D01*
X81428173Y34028676D01*
X81351983Y33990581D01*
X81313888Y33952485D01*
X81275792Y33876295D01*
X81275792Y33685819D01*
X81313888Y33609628D01*
X81351983Y33571533D01*
X81428173Y33533438D01*
X81580554Y33533438D01*
X81656745Y33571533D01*
X81694840Y33609628D01*
X81732935Y33685819D01*
X79751983Y30688676D02*
X79751983Y31488676D01*
X80056745Y31488676D01*
X80132935Y31450581D01*
X80171031Y31412485D01*
X80209126Y31336295D01*
X80209126Y31222009D01*
X80171031Y31145819D01*
X80132935Y31107723D01*
X80056745Y31069628D01*
X79751983Y31069628D01*
X80971031Y30688676D02*
X80513888Y30688676D01*
X80742459Y30688676D02*
X80742459Y31488676D01*
X80666269Y31374390D01*
X80590078Y31298200D01*
X80513888Y31260104D01*
X81428173Y31145819D02*
X81351983Y31183914D01*
X81313888Y31222009D01*
X81275792Y31298200D01*
X81275792Y31336295D01*
X81313888Y31412485D01*
X81351983Y31450581D01*
X81428173Y31488676D01*
X81580554Y31488676D01*
X81656745Y31450581D01*
X81694840Y31412485D01*
X81732935Y31336295D01*
X81732935Y31298200D01*
X81694840Y31222009D01*
X81656745Y31183914D01*
X81580554Y31145819D01*
X81428173Y31145819D01*
X81351983Y31107723D01*
X81313888Y31069628D01*
X81275792Y30993438D01*
X81275792Y30841057D01*
X81313888Y30764866D01*
X81351983Y30726771D01*
X81428173Y30688676D01*
X81580554Y30688676D01*
X81656745Y30726771D01*
X81694840Y30764866D01*
X81732935Y30841057D01*
X81732935Y30993438D01*
X81694840Y31069628D01*
X81656745Y31107723D01*
X81580554Y31145819D01*
X79751983Y28148676D02*
X79751983Y28948676D01*
X80056745Y28948676D01*
X80132935Y28910581D01*
X80171031Y28872485D01*
X80209126Y28796295D01*
X80209126Y28682009D01*
X80171031Y28605819D01*
X80132935Y28567723D01*
X80056745Y28529628D01*
X79751983Y28529628D01*
X80971031Y28148676D02*
X80513888Y28148676D01*
X80742459Y28148676D02*
X80742459Y28948676D01*
X80666269Y28834390D01*
X80590078Y28758200D01*
X80513888Y28720104D01*
X81694840Y28948676D02*
X81313888Y28948676D01*
X81275792Y28567723D01*
X81313888Y28605819D01*
X81390078Y28643914D01*
X81580554Y28643914D01*
X81656745Y28605819D01*
X81694840Y28567723D01*
X81732935Y28491533D01*
X81732935Y28301057D01*
X81694840Y28224866D01*
X81656745Y28186771D01*
X81580554Y28148676D01*
X81390078Y28148676D01*
X81313888Y28186771D01*
X81275792Y28224866D01*
X79751983Y25608676D02*
X79751983Y26408676D01*
X80056745Y26408676D01*
X80132935Y26370581D01*
X80171031Y26332485D01*
X80209126Y26256295D01*
X80209126Y26142009D01*
X80171031Y26065819D01*
X80132935Y26027723D01*
X80056745Y25989628D01*
X79751983Y25989628D01*
X80971031Y25608676D02*
X80513888Y25608676D01*
X80742459Y25608676D02*
X80742459Y26408676D01*
X80666269Y26294390D01*
X80590078Y26218200D01*
X80513888Y26180104D01*
X81656745Y26142009D02*
X81656745Y25608676D01*
X81466269Y26446771D02*
X81275792Y25875342D01*
X81771031Y25875342D01*
X79751983Y23068676D02*
X79751983Y23868676D01*
X80056745Y23868676D01*
X80132935Y23830581D01*
X80171031Y23792485D01*
X80209126Y23716295D01*
X80209126Y23602009D01*
X80171031Y23525819D01*
X80132935Y23487723D01*
X80056745Y23449628D01*
X79751983Y23449628D01*
X80971031Y23068676D02*
X80513888Y23068676D01*
X80742459Y23068676D02*
X80742459Y23868676D01*
X80666269Y23754390D01*
X80590078Y23678200D01*
X80513888Y23640104D01*
X81656745Y23868676D02*
X81504364Y23868676D01*
X81428173Y23830581D01*
X81390078Y23792485D01*
X81313888Y23678200D01*
X81275792Y23525819D01*
X81275792Y23221057D01*
X81313888Y23144866D01*
X81351983Y23106771D01*
X81428173Y23068676D01*
X81580554Y23068676D01*
X81656745Y23106771D01*
X81694840Y23144866D01*
X81732935Y23221057D01*
X81732935Y23411533D01*
X81694840Y23487723D01*
X81656745Y23525819D01*
X81580554Y23563914D01*
X81428173Y23563914D01*
X81351983Y23525819D01*
X81313888Y23487723D01*
X81275792Y23411533D01*
X79751983Y20528676D02*
X79751983Y21328676D01*
X80056745Y21328676D01*
X80132935Y21290581D01*
X80171031Y21252485D01*
X80209126Y21176295D01*
X80209126Y21062009D01*
X80171031Y20985819D01*
X80132935Y20947723D01*
X80056745Y20909628D01*
X79751983Y20909628D01*
X80971031Y20528676D02*
X80513888Y20528676D01*
X80742459Y20528676D02*
X80742459Y21328676D01*
X80666269Y21214390D01*
X80590078Y21138200D01*
X80513888Y21100104D01*
X81466269Y21328676D02*
X81542459Y21328676D01*
X81618650Y21290581D01*
X81656745Y21252485D01*
X81694840Y21176295D01*
X81732935Y21023914D01*
X81732935Y20833438D01*
X81694840Y20681057D01*
X81656745Y20604866D01*
X81618650Y20566771D01*
X81542459Y20528676D01*
X81466269Y20528676D01*
X81390078Y20566771D01*
X81351983Y20604866D01*
X81313888Y20681057D01*
X81275792Y20833438D01*
X81275792Y21023914D01*
X81313888Y21176295D01*
X81351983Y21252485D01*
X81390078Y21290581D01*
X81466269Y21328676D01*
X89351983Y48468676D02*
X89351983Y49268676D01*
X89656745Y49268676D01*
X89732935Y49230581D01*
X89771031Y49192485D01*
X89809126Y49116295D01*
X89809126Y49002009D01*
X89771031Y48925819D01*
X89732935Y48887723D01*
X89656745Y48849628D01*
X89351983Y48849628D01*
X90304364Y49268676D02*
X90380554Y49268676D01*
X90456745Y49230581D01*
X90494840Y49192485D01*
X90532935Y49116295D01*
X90571031Y48963914D01*
X90571031Y48773438D01*
X90532935Y48621057D01*
X90494840Y48544866D01*
X90456745Y48506771D01*
X90380554Y48468676D01*
X90304364Y48468676D01*
X90228173Y48506771D01*
X90190078Y48544866D01*
X90151983Y48621057D01*
X90113888Y48773438D01*
X90113888Y48963914D01*
X90151983Y49116295D01*
X90190078Y49192485D01*
X90228173Y49230581D01*
X90304364Y49268676D01*
X91332935Y48468676D02*
X90875792Y48468676D01*
X91104364Y48468676D02*
X91104364Y49268676D01*
X91028173Y49154390D01*
X90951983Y49078200D01*
X90875792Y49040104D01*
X89351983Y45928676D02*
X89351983Y46728676D01*
X89656745Y46728676D01*
X89732935Y46690581D01*
X89771031Y46652485D01*
X89809126Y46576295D01*
X89809126Y46462009D01*
X89771031Y46385819D01*
X89732935Y46347723D01*
X89656745Y46309628D01*
X89351983Y46309628D01*
X90304364Y46728676D02*
X90380554Y46728676D01*
X90456745Y46690581D01*
X90494840Y46652485D01*
X90532935Y46576295D01*
X90571031Y46423914D01*
X90571031Y46233438D01*
X90532935Y46081057D01*
X90494840Y46004866D01*
X90456745Y45966771D01*
X90380554Y45928676D01*
X90304364Y45928676D01*
X90228173Y45966771D01*
X90190078Y46004866D01*
X90151983Y46081057D01*
X90113888Y46233438D01*
X90113888Y46423914D01*
X90151983Y46576295D01*
X90190078Y46652485D01*
X90228173Y46690581D01*
X90304364Y46728676D01*
X91066269Y46728676D02*
X91142459Y46728676D01*
X91218650Y46690581D01*
X91256745Y46652485D01*
X91294840Y46576295D01*
X91332935Y46423914D01*
X91332935Y46233438D01*
X91294840Y46081057D01*
X91256745Y46004866D01*
X91218650Y45966771D01*
X91142459Y45928676D01*
X91066269Y45928676D01*
X90990078Y45966771D01*
X90951983Y46004866D01*
X90913888Y46081057D01*
X90875792Y46233438D01*
X90875792Y46423914D01*
X90913888Y46576295D01*
X90951983Y46652485D01*
X90990078Y46690581D01*
X91066269Y46728676D01*
X89713888Y44150581D02*
X89637697Y44188676D01*
X89523412Y44188676D01*
X89409126Y44150581D01*
X89332935Y44074390D01*
X89294840Y43998200D01*
X89256745Y43845819D01*
X89256745Y43731533D01*
X89294840Y43579152D01*
X89332935Y43502961D01*
X89409126Y43426771D01*
X89523412Y43388676D01*
X89599602Y43388676D01*
X89713888Y43426771D01*
X89751983Y43464866D01*
X89751983Y43731533D01*
X89599602Y43731533D01*
X90094840Y43388676D02*
X90094840Y44188676D01*
X90551983Y43388676D01*
X90551983Y44188676D01*
X90932935Y43388676D02*
X90932935Y44188676D01*
X91123412Y44188676D01*
X91237697Y44150581D01*
X91313888Y44074390D01*
X91351983Y43998200D01*
X91390078Y43845819D01*
X91390078Y43731533D01*
X91351983Y43579152D01*
X91313888Y43502961D01*
X91237697Y43426771D01*
X91123412Y43388676D01*
X90932935Y43388676D01*
X89713888Y41610581D02*
X89637697Y41648676D01*
X89523412Y41648676D01*
X89409126Y41610581D01*
X89332935Y41534390D01*
X89294840Y41458200D01*
X89256745Y41305819D01*
X89256745Y41191533D01*
X89294840Y41039152D01*
X89332935Y40962961D01*
X89409126Y40886771D01*
X89523412Y40848676D01*
X89599602Y40848676D01*
X89713888Y40886771D01*
X89751983Y40924866D01*
X89751983Y41191533D01*
X89599602Y41191533D01*
X90094840Y40848676D02*
X90094840Y41648676D01*
X90551983Y40848676D01*
X90551983Y41648676D01*
X90932935Y40848676D02*
X90932935Y41648676D01*
X91123412Y41648676D01*
X91237697Y41610581D01*
X91313888Y41534390D01*
X91351983Y41458200D01*
X91390078Y41305819D01*
X91390078Y41191533D01*
X91351983Y41039152D01*
X91313888Y40962961D01*
X91237697Y40886771D01*
X91123412Y40848676D01*
X90932935Y40848676D01*
X89351983Y38308676D02*
X89351983Y39108676D01*
X89656745Y39108676D01*
X89732935Y39070581D01*
X89771031Y39032485D01*
X89809126Y38956295D01*
X89809126Y38842009D01*
X89771031Y38765819D01*
X89732935Y38727723D01*
X89656745Y38689628D01*
X89351983Y38689628D01*
X90304364Y39108676D02*
X90380554Y39108676D01*
X90456745Y39070581D01*
X90494840Y39032485D01*
X90532935Y38956295D01*
X90571031Y38803914D01*
X90571031Y38613438D01*
X90532935Y38461057D01*
X90494840Y38384866D01*
X90456745Y38346771D01*
X90380554Y38308676D01*
X90304364Y38308676D01*
X90228173Y38346771D01*
X90190078Y38384866D01*
X90151983Y38461057D01*
X90113888Y38613438D01*
X90113888Y38803914D01*
X90151983Y38956295D01*
X90190078Y39032485D01*
X90228173Y39070581D01*
X90304364Y39108676D01*
X90875792Y39032485D02*
X90913888Y39070581D01*
X90990078Y39108676D01*
X91180554Y39108676D01*
X91256745Y39070581D01*
X91294840Y39032485D01*
X91332935Y38956295D01*
X91332935Y38880104D01*
X91294840Y38765819D01*
X90837697Y38308676D01*
X91332935Y38308676D01*
X89351983Y35768676D02*
X89351983Y36568676D01*
X89656745Y36568676D01*
X89732935Y36530581D01*
X89771031Y36492485D01*
X89809126Y36416295D01*
X89809126Y36302009D01*
X89771031Y36225819D01*
X89732935Y36187723D01*
X89656745Y36149628D01*
X89351983Y36149628D01*
X90304364Y36568676D02*
X90380554Y36568676D01*
X90456745Y36530581D01*
X90494840Y36492485D01*
X90532935Y36416295D01*
X90571031Y36263914D01*
X90571031Y36073438D01*
X90532935Y35921057D01*
X90494840Y35844866D01*
X90456745Y35806771D01*
X90380554Y35768676D01*
X90304364Y35768676D01*
X90228173Y35806771D01*
X90190078Y35844866D01*
X90151983Y35921057D01*
X90113888Y36073438D01*
X90113888Y36263914D01*
X90151983Y36416295D01*
X90190078Y36492485D01*
X90228173Y36530581D01*
X90304364Y36568676D01*
X90837697Y36568676D02*
X91332935Y36568676D01*
X91066269Y36263914D01*
X91180554Y36263914D01*
X91256745Y36225819D01*
X91294840Y36187723D01*
X91332935Y36111533D01*
X91332935Y35921057D01*
X91294840Y35844866D01*
X91256745Y35806771D01*
X91180554Y35768676D01*
X90951983Y35768676D01*
X90875792Y35806771D01*
X90837697Y35844866D01*
X89351983Y33228676D02*
X89351983Y34028676D01*
X89656745Y34028676D01*
X89732935Y33990581D01*
X89771031Y33952485D01*
X89809126Y33876295D01*
X89809126Y33762009D01*
X89771031Y33685819D01*
X89732935Y33647723D01*
X89656745Y33609628D01*
X89351983Y33609628D01*
X90304364Y34028676D02*
X90380554Y34028676D01*
X90456745Y33990581D01*
X90494840Y33952485D01*
X90532935Y33876295D01*
X90571031Y33723914D01*
X90571031Y33533438D01*
X90532935Y33381057D01*
X90494840Y33304866D01*
X90456745Y33266771D01*
X90380554Y33228676D01*
X90304364Y33228676D01*
X90228173Y33266771D01*
X90190078Y33304866D01*
X90151983Y33381057D01*
X90113888Y33533438D01*
X90113888Y33723914D01*
X90151983Y33876295D01*
X90190078Y33952485D01*
X90228173Y33990581D01*
X90304364Y34028676D01*
X91256745Y33762009D02*
X91256745Y33228676D01*
X91066269Y34066771D02*
X90875792Y33495342D01*
X91371031Y33495342D01*
X89351983Y30688676D02*
X89351983Y31488676D01*
X89656745Y31488676D01*
X89732935Y31450581D01*
X89771031Y31412485D01*
X89809126Y31336295D01*
X89809126Y31222009D01*
X89771031Y31145819D01*
X89732935Y31107723D01*
X89656745Y31069628D01*
X89351983Y31069628D01*
X90304364Y31488676D02*
X90380554Y31488676D01*
X90456745Y31450581D01*
X90494840Y31412485D01*
X90532935Y31336295D01*
X90571031Y31183914D01*
X90571031Y30993438D01*
X90532935Y30841057D01*
X90494840Y30764866D01*
X90456745Y30726771D01*
X90380554Y30688676D01*
X90304364Y30688676D01*
X90228173Y30726771D01*
X90190078Y30764866D01*
X90151983Y30841057D01*
X90113888Y30993438D01*
X90113888Y31183914D01*
X90151983Y31336295D01*
X90190078Y31412485D01*
X90228173Y31450581D01*
X90304364Y31488676D01*
X91294840Y31488676D02*
X90913888Y31488676D01*
X90875792Y31107723D01*
X90913888Y31145819D01*
X90990078Y31183914D01*
X91180554Y31183914D01*
X91256745Y31145819D01*
X91294840Y31107723D01*
X91332935Y31031533D01*
X91332935Y30841057D01*
X91294840Y30764866D01*
X91256745Y30726771D01*
X91180554Y30688676D01*
X90990078Y30688676D01*
X90913888Y30726771D01*
X90875792Y30764866D01*
X89351983Y28148676D02*
X89351983Y28948676D01*
X89656745Y28948676D01*
X89732935Y28910581D01*
X89771031Y28872485D01*
X89809126Y28796295D01*
X89809126Y28682009D01*
X89771031Y28605819D01*
X89732935Y28567723D01*
X89656745Y28529628D01*
X89351983Y28529628D01*
X90304364Y28948676D02*
X90380554Y28948676D01*
X90456745Y28910581D01*
X90494840Y28872485D01*
X90532935Y28796295D01*
X90571031Y28643914D01*
X90571031Y28453438D01*
X90532935Y28301057D01*
X90494840Y28224866D01*
X90456745Y28186771D01*
X90380554Y28148676D01*
X90304364Y28148676D01*
X90228173Y28186771D01*
X90190078Y28224866D01*
X90151983Y28301057D01*
X90113888Y28453438D01*
X90113888Y28643914D01*
X90151983Y28796295D01*
X90190078Y28872485D01*
X90228173Y28910581D01*
X90304364Y28948676D01*
X91256745Y28948676D02*
X91104364Y28948676D01*
X91028173Y28910581D01*
X90990078Y28872485D01*
X90913888Y28758200D01*
X90875792Y28605819D01*
X90875792Y28301057D01*
X90913888Y28224866D01*
X90951983Y28186771D01*
X91028173Y28148676D01*
X91180554Y28148676D01*
X91256745Y28186771D01*
X91294840Y28224866D01*
X91332935Y28301057D01*
X91332935Y28491533D01*
X91294840Y28567723D01*
X91256745Y28605819D01*
X91180554Y28643914D01*
X91028173Y28643914D01*
X90951983Y28605819D01*
X90913888Y28567723D01*
X90875792Y28491533D01*
X89351983Y25608676D02*
X89351983Y26408676D01*
X89656745Y26408676D01*
X89732935Y26370581D01*
X89771031Y26332485D01*
X89809126Y26256295D01*
X89809126Y26142009D01*
X89771031Y26065819D01*
X89732935Y26027723D01*
X89656745Y25989628D01*
X89351983Y25989628D01*
X90304364Y26408676D02*
X90380554Y26408676D01*
X90456745Y26370581D01*
X90494840Y26332485D01*
X90532935Y26256295D01*
X90571031Y26103914D01*
X90571031Y25913438D01*
X90532935Y25761057D01*
X90494840Y25684866D01*
X90456745Y25646771D01*
X90380554Y25608676D01*
X90304364Y25608676D01*
X90228173Y25646771D01*
X90190078Y25684866D01*
X90151983Y25761057D01*
X90113888Y25913438D01*
X90113888Y26103914D01*
X90151983Y26256295D01*
X90190078Y26332485D01*
X90228173Y26370581D01*
X90304364Y26408676D01*
X90837697Y26408676D02*
X91371031Y26408676D01*
X91028173Y25608676D01*
X89351983Y23068676D02*
X89351983Y23868676D01*
X89656745Y23868676D01*
X89732935Y23830581D01*
X89771031Y23792485D01*
X89809126Y23716295D01*
X89809126Y23602009D01*
X89771031Y23525819D01*
X89732935Y23487723D01*
X89656745Y23449628D01*
X89351983Y23449628D01*
X90304364Y23868676D02*
X90380554Y23868676D01*
X90456745Y23830581D01*
X90494840Y23792485D01*
X90532935Y23716295D01*
X90571031Y23563914D01*
X90571031Y23373438D01*
X90532935Y23221057D01*
X90494840Y23144866D01*
X90456745Y23106771D01*
X90380554Y23068676D01*
X90304364Y23068676D01*
X90228173Y23106771D01*
X90190078Y23144866D01*
X90151983Y23221057D01*
X90113888Y23373438D01*
X90113888Y23563914D01*
X90151983Y23716295D01*
X90190078Y23792485D01*
X90228173Y23830581D01*
X90304364Y23868676D01*
X91028173Y23525819D02*
X90951983Y23563914D01*
X90913888Y23602009D01*
X90875792Y23678200D01*
X90875792Y23716295D01*
X90913888Y23792485D01*
X90951983Y23830581D01*
X91028173Y23868676D01*
X91180554Y23868676D01*
X91256745Y23830581D01*
X91294840Y23792485D01*
X91332935Y23716295D01*
X91332935Y23678200D01*
X91294840Y23602009D01*
X91256745Y23563914D01*
X91180554Y23525819D01*
X91028173Y23525819D01*
X90951983Y23487723D01*
X90913888Y23449628D01*
X90875792Y23373438D01*
X90875792Y23221057D01*
X90913888Y23144866D01*
X90951983Y23106771D01*
X91028173Y23068676D01*
X91180554Y23068676D01*
X91256745Y23106771D01*
X91294840Y23144866D01*
X91332935Y23221057D01*
X91332935Y23373438D01*
X91294840Y23449628D01*
X91256745Y23487723D01*
X91180554Y23525819D01*
X89351983Y20528676D02*
X89351983Y21328676D01*
X89656745Y21328676D01*
X89732935Y21290581D01*
X89771031Y21252485D01*
X89809126Y21176295D01*
X89809126Y21062009D01*
X89771031Y20985819D01*
X89732935Y20947723D01*
X89656745Y20909628D01*
X89351983Y20909628D01*
X90304364Y21328676D02*
X90380554Y21328676D01*
X90456745Y21290581D01*
X90494840Y21252485D01*
X90532935Y21176295D01*
X90571031Y21023914D01*
X90571031Y20833438D01*
X90532935Y20681057D01*
X90494840Y20604866D01*
X90456745Y20566771D01*
X90380554Y20528676D01*
X90304364Y20528676D01*
X90228173Y20566771D01*
X90190078Y20604866D01*
X90151983Y20681057D01*
X90113888Y20833438D01*
X90113888Y21023914D01*
X90151983Y21176295D01*
X90190078Y21252485D01*
X90228173Y21290581D01*
X90304364Y21328676D01*
X90951983Y20528676D02*
X91104364Y20528676D01*
X91180554Y20566771D01*
X91218650Y20604866D01*
X91294840Y20719152D01*
X91332935Y20871533D01*
X91332935Y21176295D01*
X91294840Y21252485D01*
X91256745Y21290581D01*
X91180554Y21328676D01*
X91028173Y21328676D01*
X90951983Y21290581D01*
X90913888Y21252485D01*
X90875792Y21176295D01*
X90875792Y20985819D01*
X90913888Y20909628D01*
X90951983Y20871533D01*
X91028173Y20833438D01*
X91180554Y20833438D01*
X91256745Y20871533D01*
X91294840Y20909628D01*
X91332935Y20985819D01*
%TD*%
M02*
