%TF.GenerationSoftware,KiCad,Pcbnew,(5.1.9)-1*%
%TF.CreationDate,2021-06-26T19:40:30+02:00*%
%TF.ProjectId,idiosepius_thailandicus,6964696f-7365-4706-9975-735f74686169,VERSION_HERE*%
%TF.SameCoordinates,Original*%
%TF.FileFunction,Copper,L2,Bot*%
%TF.FilePolarity,Positive*%
%FSLAX46Y46*%
G04 Gerber Fmt 4.6, Leading zero omitted, Abs format (unit mm)*
G04 Created by KiCad (PCBNEW (5.1.9)-1) date 2021-06-26 19:40:30*
%MOMM*%
%LPD*%
G01*
G04 APERTURE LIST*
%TA.AperFunction,ComponentPad*%
%ADD10C,1.600000*%
%TD*%
%TA.AperFunction,ComponentPad*%
%ADD11R,1.752600X1.752600*%
%TD*%
%TA.AperFunction,ComponentPad*%
%ADD12C,1.752600*%
%TD*%
%TA.AperFunction,SMDPad,CuDef*%
%ADD13R,0.635000X1.143000*%
%TD*%
%TA.AperFunction,ComponentPad*%
%ADD14C,0.600000*%
%TD*%
%TA.AperFunction,Conductor*%
%ADD15C,0.250000*%
%TD*%
G04 APERTURE END LIST*
D10*
%TO.P,S1,3*%
%TO.N,N/C*%
X18170769Y6073993D03*
%TO.P,S1,4*%
X7931956Y3330511D03*
%TO.P,S1,1*%
%TO.N,GND*%
X11176790Y-5997509D03*
%TO.P,S1,2*%
%TO.N,P10*%
X17610227Y-4584257D03*
%TO.P,S1,1*%
%TO.N,GND*%
X20024670Y-3626726D03*
%TO.P,S1,2*%
%TO.N,P10*%
X13746524Y-5619534D03*
%TD*%
%TO.P,S2,3*%
%TO.N,N/C*%
X13770846Y22494732D03*
%TO.P,S2,4*%
X3532033Y19751250D03*
%TO.P,S2,1*%
%TO.N,GND*%
X6776867Y10423230D03*
%TO.P,S2,2*%
%TO.N,P16*%
X13210304Y11836482D03*
%TO.P,S2,1*%
%TO.N,GND*%
X15624747Y12794013D03*
%TO.P,S2,2*%
%TO.N,P16*%
X9346601Y10801205D03*
%TD*%
%TO.P,S3,3*%
%TO.N,N/C*%
X32955437Y30920037D03*
%TO.P,S3,4*%
X22395773Y29996186D03*
%TO.P,S3,1*%
%TO.N,GND*%
X23971518Y20246421D03*
%TO.P,S3,2*%
%TO.N,P14*%
X30552625Y20521047D03*
%TO.P,S3,1*%
%TO.N,GND*%
X33096661Y21044767D03*
%TO.P,S3,2*%
%TO.N,P14*%
X26567847Y20172424D03*
%TD*%
%TO.P,S4,3*%
%TO.N,N/C*%
X31473789Y47855346D03*
%TO.P,S4,4*%
X20914125Y46931495D03*
%TO.P,S4,1*%
%TO.N,GND*%
X22489870Y37181730D03*
%TO.P,S4,2*%
%TO.N,P15*%
X29070977Y37456356D03*
%TO.P,S4,1*%
%TO.N,GND*%
X31615013Y37980076D03*
%TO.P,S4,2*%
%TO.N,P15*%
X25086199Y37107733D03*
%TD*%
%TO.P,S5,3*%
%TO.N,N/C*%
X51823412Y37777248D03*
%TO.P,S5,4*%
X41223412Y37777248D03*
%TO.P,S5,1*%
%TO.N,GND*%
X41943412Y27927248D03*
%TO.P,S5,2*%
%TO.N,P18*%
X48523412Y27627248D03*
%TO.P,S5,1*%
%TO.N,GND*%
X51103412Y27927248D03*
%TO.P,S5,2*%
%TO.N,P18*%
X44523412Y27627248D03*
%TD*%
%TO.P,S6,3*%
%TO.N,N/C*%
X51823412Y54777248D03*
%TO.P,S6,4*%
X41223412Y54777248D03*
%TO.P,S6,1*%
%TO.N,GND*%
X41943412Y44927248D03*
%TO.P,S6,2*%
%TO.N,P19*%
X48523412Y44627248D03*
%TO.P,S6,1*%
%TO.N,GND*%
X51103412Y44927248D03*
%TO.P,S6,2*%
%TO.N,P19*%
X44523412Y44627248D03*
%TD*%
%TO.P,S7,3*%
%TO.N,N/C*%
X69823413Y32110582D03*
%TO.P,S7,4*%
X59223413Y32110582D03*
%TO.P,S7,1*%
%TO.N,GND*%
X59943413Y22260582D03*
%TO.P,S7,2*%
%TO.N,P20*%
X66523413Y21960582D03*
%TO.P,S7,1*%
%TO.N,GND*%
X69103413Y22260582D03*
%TO.P,S7,2*%
%TO.N,P20*%
X62523413Y21960582D03*
%TD*%
%TO.P,S8,3*%
%TO.N,N/C*%
X69823412Y49110582D03*
%TO.P,S8,4*%
X59223412Y49110582D03*
%TO.P,S8,1*%
%TO.N,GND*%
X59943412Y39260582D03*
%TO.P,S8,2*%
%TO.N,P21*%
X66523412Y38960582D03*
%TO.P,S8,1*%
%TO.N,GND*%
X69103412Y39260582D03*
%TO.P,S8,2*%
%TO.N,P21*%
X62523412Y38960582D03*
%TD*%
%TO.P,S9,3*%
%TO.N,N/C*%
X106872209Y9576988D03*
%TO.P,S9,4*%
X96633396Y12320470D03*
%TO.P,S9,1*%
%TO.N,GND*%
X94779495Y2619751D03*
%TO.P,S9,2*%
%TO.N,P9*%
X101057641Y626943D03*
%TO.P,S9,1*%
%TO.N,GND*%
X103627375Y248968D03*
%TO.P,S9,2*%
%TO.N,P9*%
X97193938Y1662220D03*
%TD*%
D11*
%TO.P,C1,1*%
%TO.N,RAW*%
X77903412Y48830581D03*
D12*
%TO.P,C1,2*%
%TO.N,GND*%
X77903412Y46290581D03*
%TO.P,C1,3*%
%TO.N,RST*%
X77903412Y43750581D03*
%TO.P,C1,4*%
%TO.N,VCC*%
X77903412Y41210581D03*
%TO.P,C1,5*%
%TO.N,P21*%
X77903412Y38670581D03*
%TO.P,C1,6*%
%TO.N,P20*%
X77903412Y36130581D03*
%TO.P,C1,7*%
%TO.N,P19*%
X77903412Y33590581D03*
%TO.P,C1,8*%
%TO.N,P18*%
X77903412Y31050581D03*
%TO.P,C1,9*%
%TO.N,P15*%
X77903412Y28510581D03*
%TO.P,C1,10*%
%TO.N,P14*%
X77903412Y25970581D03*
%TO.P,C1,11*%
%TO.N,P16*%
X77903412Y23430581D03*
%TO.P,C1,12*%
%TO.N,P10*%
X77903412Y20890581D03*
%TO.P,C1,13*%
%TO.N,P1*%
X93143412Y48830581D03*
%TO.P,C1,14*%
%TO.N,P0*%
X93143412Y46290581D03*
%TO.P,C1,15*%
%TO.N,GND*%
X93143412Y43750581D03*
%TO.P,C1,16*%
X93143412Y41210581D03*
%TO.P,C1,17*%
%TO.N,P2*%
X93143412Y38670581D03*
%TO.P,C1,18*%
%TO.N,P3*%
X93143412Y36130581D03*
%TO.P,C1,19*%
%TO.N,P4*%
X93143412Y33590581D03*
%TO.P,C1,20*%
%TO.N,P5*%
X93143412Y31050581D03*
%TO.P,C1,21*%
%TO.N,P6*%
X93143412Y28510581D03*
%TO.P,C1,22*%
%TO.N,P7*%
X93143412Y25970581D03*
%TO.P,C1,23*%
%TO.N,P8*%
X93143412Y23430581D03*
%TO.P,C1,24*%
%TO.N,P9*%
X93143412Y20890581D03*
%TD*%
D13*
%TO.P,J2,1*%
%TO.N,GND*%
X85023032Y18360582D03*
%TO.P,J2,2*%
%TO.N,P0*%
X86023792Y18360582D03*
%TD*%
D14*
%TO.P,REF\u002A\u002A,1*%
%TO.N,GND*%
X85023412Y18360582D03*
%TD*%
D15*
%TO.N,P10*%
X13746524Y-5619534D02*
X17610228Y-4584257D01*
X76366415Y19353585D02*
X77903412Y20890581D01*
X18245970Y-5220000D02*
X20610000Y-5220000D01*
X17610227Y-4584257D02*
X18245970Y-5220000D01*
X20595531Y11415531D02*
X24650000Y15470000D01*
X20610000Y-5220000D02*
X21790000Y-4040000D01*
X76366415Y17126415D02*
X76366415Y19353585D01*
X24650000Y15470000D02*
X74710000Y15470000D01*
X74710000Y15470000D02*
X76366415Y17126415D01*
X21790000Y-4040000D02*
X21790000Y-1970000D01*
X20595531Y11415531D02*
X18941011Y9751011D01*
X21790000Y-1970000D02*
X18941011Y9751011D01*
%TO.N,P16*%
X9346602Y10801206D02*
X13210305Y11836482D01*
X13210304Y11836482D02*
X14066786Y10980000D01*
X19523590Y10980000D02*
X24463600Y15920010D01*
X14066786Y10980000D02*
X19523590Y10980000D01*
X24463600Y15920010D02*
X74523600Y15920010D01*
X75916405Y21443574D02*
X77903412Y23430581D01*
X75916405Y17312815D02*
X75916405Y21443574D01*
X74523600Y15920010D02*
X75916405Y17312815D01*
%TO.N,P14*%
X26567847Y20172423D02*
X30552625Y20521047D01*
X30552625Y20521047D02*
X30552625Y17137395D01*
X30552625Y17137395D02*
X31320000Y16370020D01*
X31320000Y16370020D02*
X74337200Y16370020D01*
X75466395Y23533564D02*
X77903412Y25970581D01*
X75466395Y17499215D02*
X75466395Y23533564D01*
X74337200Y16370020D02*
X75466395Y17499215D01*
%TO.N,P15*%
X25086199Y37107732D02*
X29070978Y37456355D01*
X29070977Y37456356D02*
X35670000Y30857333D01*
X35670000Y17530000D02*
X36379970Y16820030D01*
X35670000Y30857333D02*
X35670000Y17530000D01*
X36379970Y16820030D02*
X74150800Y16820030D01*
X75016385Y25623554D02*
X77903412Y28510581D01*
X75016385Y17685615D02*
X75016385Y25623554D01*
X74150800Y16820030D02*
X75016385Y17685615D01*
%TO.N,P18*%
X44523412Y27627247D02*
X48523412Y27627248D01*
X48523412Y27627248D02*
X48523412Y18056628D01*
X48523412Y18056628D02*
X49310000Y17270040D01*
X49310000Y17270040D02*
X73964400Y17270040D01*
X73964400Y17270040D02*
X74566375Y17872015D01*
X74566375Y27713544D02*
X77903412Y31050581D01*
X74566375Y17872015D02*
X74566375Y27713544D01*
%TO.N,P19*%
X44523411Y44627247D02*
X48523412Y44627248D01*
X48523412Y44627248D02*
X54610660Y38540000D01*
X54610660Y18369340D02*
X55259950Y17720050D01*
X54610660Y38540000D02*
X54610660Y18369340D01*
X55259950Y17720050D02*
X73778000Y17720050D01*
X73778000Y17720050D02*
X74116365Y18058415D01*
X74116365Y29803534D02*
X74116365Y28636365D01*
X77903412Y33590581D02*
X74116365Y29803534D01*
X74116365Y28636365D02*
X74116365Y29041460D01*
X74116365Y18058415D02*
X74116365Y28636365D01*
%TO.N,P20*%
X62523412Y21960583D02*
X66523412Y21960582D01*
X66523413Y21960582D02*
X66523413Y18696647D01*
X66523413Y18696647D02*
X67050000Y18170060D01*
X67050000Y18170060D02*
X73591600Y18170060D01*
X73591600Y18170060D02*
X73666355Y18244815D01*
X77903412Y36130581D02*
X73666355Y31893524D01*
X73666355Y28796355D02*
X73666356Y29989935D01*
X73666355Y31893524D02*
X73666355Y28796355D01*
X73666355Y18244815D02*
X73666355Y28796355D01*
%TO.N,P21*%
X62523412Y38960581D02*
X66523411Y38960581D01*
X66523412Y38960582D02*
X68833994Y36650000D01*
X75882831Y36650000D02*
X77903412Y38670581D01*
X68833994Y36650000D02*
X75882831Y36650000D01*
%TO.N,P9*%
X97193937Y1662221D02*
X101057640Y626944D01*
X97193938Y1662220D02*
X96431718Y900000D01*
X96431718Y900000D02*
X93010000Y900000D01*
X93010000Y900000D02*
X89970000Y3940000D01*
X89970000Y17717169D02*
X93143412Y20890581D01*
X89970000Y3940000D02*
X89970000Y17717169D01*
%TO.N,P0*%
X86023792Y39170961D02*
X93143412Y46290581D01*
X86023792Y18360582D02*
X86023792Y39170961D01*
%TD*%
M02*
