%TF.GenerationSoftware,KiCad,Pcbnew,(5.1.9)-1*%
%TF.CreationDate,2021-06-26T19:40:30+02:00*%
%TF.ProjectId,idiosepius_thailandicus,6964696f-7365-4706-9975-735f74686169,VERSION_HERE*%
%TF.SameCoordinates,Original*%
%TF.FileFunction,Copper,L1,Top*%
%TF.FilePolarity,Positive*%
%FSLAX46Y46*%
G04 Gerber Fmt 4.6, Leading zero omitted, Abs format (unit mm)*
G04 Created by KiCad (PCBNEW (5.1.9)-1) date 2021-06-26 19:40:30*
%MOMM*%
%LPD*%
G01*
G04 APERTURE LIST*
%TA.AperFunction,ComponentPad*%
%ADD10C,1.600000*%
%TD*%
%TA.AperFunction,ComponentPad*%
%ADD11R,1.752600X1.752600*%
%TD*%
%TA.AperFunction,ComponentPad*%
%ADD12C,1.752600*%
%TD*%
%TA.AperFunction,SMDPad,CuDef*%
%ADD13R,0.635000X1.143000*%
%TD*%
%TA.AperFunction,ComponentPad*%
%ADD14C,0.600000*%
%TD*%
%TA.AperFunction,Conductor*%
%ADD15C,0.250000*%
%TD*%
G04 APERTURE END LIST*
D10*
%TO.P,S1,3*%
%TO.N,N/C*%
X18170769Y6073993D03*
%TO.P,S1,4*%
X7931956Y3330511D03*
%TO.P,S1,1*%
%TO.N,GND*%
X11176790Y-5997509D03*
%TO.P,S1,2*%
%TO.N,P10*%
X17610227Y-4584257D03*
%TO.P,S1,1*%
%TO.N,GND*%
X20024670Y-3626726D03*
%TO.P,S1,2*%
%TO.N,P10*%
X13746524Y-5619534D03*
%TD*%
%TO.P,S2,3*%
%TO.N,N/C*%
X13770846Y22494732D03*
%TO.P,S2,4*%
X3532033Y19751250D03*
%TO.P,S2,1*%
%TO.N,GND*%
X6776867Y10423230D03*
%TO.P,S2,2*%
%TO.N,P16*%
X13210304Y11836482D03*
%TO.P,S2,1*%
%TO.N,GND*%
X15624747Y12794013D03*
%TO.P,S2,2*%
%TO.N,P16*%
X9346601Y10801205D03*
%TD*%
%TO.P,S3,3*%
%TO.N,N/C*%
X32955437Y30920037D03*
%TO.P,S3,4*%
X22395773Y29996186D03*
%TO.P,S3,1*%
%TO.N,GND*%
X23971518Y20246421D03*
%TO.P,S3,2*%
%TO.N,P14*%
X30552625Y20521047D03*
%TO.P,S3,1*%
%TO.N,GND*%
X33096661Y21044767D03*
%TO.P,S3,2*%
%TO.N,P14*%
X26567847Y20172424D03*
%TD*%
%TO.P,S4,3*%
%TO.N,N/C*%
X31473789Y47855346D03*
%TO.P,S4,4*%
X20914125Y46931495D03*
%TO.P,S4,1*%
%TO.N,GND*%
X22489870Y37181730D03*
%TO.P,S4,2*%
%TO.N,P15*%
X29070977Y37456356D03*
%TO.P,S4,1*%
%TO.N,GND*%
X31615013Y37980076D03*
%TO.P,S4,2*%
%TO.N,P15*%
X25086199Y37107733D03*
%TD*%
%TO.P,S5,3*%
%TO.N,N/C*%
X51823412Y37777248D03*
%TO.P,S5,4*%
X41223412Y37777248D03*
%TO.P,S5,1*%
%TO.N,GND*%
X41943412Y27927248D03*
%TO.P,S5,2*%
%TO.N,P18*%
X48523412Y27627248D03*
%TO.P,S5,1*%
%TO.N,GND*%
X51103412Y27927248D03*
%TO.P,S5,2*%
%TO.N,P18*%
X44523412Y27627248D03*
%TD*%
%TO.P,S6,3*%
%TO.N,N/C*%
X51823412Y54777248D03*
%TO.P,S6,4*%
X41223412Y54777248D03*
%TO.P,S6,1*%
%TO.N,GND*%
X41943412Y44927248D03*
%TO.P,S6,2*%
%TO.N,P19*%
X48523412Y44627248D03*
%TO.P,S6,1*%
%TO.N,GND*%
X51103412Y44927248D03*
%TO.P,S6,2*%
%TO.N,P19*%
X44523412Y44627248D03*
%TD*%
%TO.P,S7,3*%
%TO.N,N/C*%
X69823413Y32110582D03*
%TO.P,S7,4*%
X59223413Y32110582D03*
%TO.P,S7,1*%
%TO.N,GND*%
X59943413Y22260582D03*
%TO.P,S7,2*%
%TO.N,P20*%
X66523413Y21960582D03*
%TO.P,S7,1*%
%TO.N,GND*%
X69103413Y22260582D03*
%TO.P,S7,2*%
%TO.N,P20*%
X62523413Y21960582D03*
%TD*%
%TO.P,S8,3*%
%TO.N,N/C*%
X69823412Y49110582D03*
%TO.P,S8,4*%
X59223412Y49110582D03*
%TO.P,S8,1*%
%TO.N,GND*%
X59943412Y39260582D03*
%TO.P,S8,2*%
%TO.N,P21*%
X66523412Y38960582D03*
%TO.P,S8,1*%
%TO.N,GND*%
X69103412Y39260582D03*
%TO.P,S8,2*%
%TO.N,P21*%
X62523412Y38960582D03*
%TD*%
%TO.P,S9,3*%
%TO.N,N/C*%
X106872209Y9576988D03*
%TO.P,S9,4*%
X96633396Y12320470D03*
%TO.P,S9,1*%
%TO.N,GND*%
X94779495Y2619751D03*
%TO.P,S9,2*%
%TO.N,P9*%
X101057641Y626943D03*
%TO.P,S9,1*%
%TO.N,GND*%
X103627375Y248968D03*
%TO.P,S9,2*%
%TO.N,P9*%
X97193938Y1662220D03*
%TD*%
D11*
%TO.P,C1,1*%
%TO.N,RAW*%
X77903412Y48830581D03*
D12*
%TO.P,C1,2*%
%TO.N,GND*%
X77903412Y46290581D03*
%TO.P,C1,3*%
%TO.N,RST*%
X77903412Y43750581D03*
%TO.P,C1,4*%
%TO.N,VCC*%
X77903412Y41210581D03*
%TO.P,C1,5*%
%TO.N,P21*%
X77903412Y38670581D03*
%TO.P,C1,6*%
%TO.N,P20*%
X77903412Y36130581D03*
%TO.P,C1,7*%
%TO.N,P19*%
X77903412Y33590581D03*
%TO.P,C1,8*%
%TO.N,P18*%
X77903412Y31050581D03*
%TO.P,C1,9*%
%TO.N,P15*%
X77903412Y28510581D03*
%TO.P,C1,10*%
%TO.N,P14*%
X77903412Y25970581D03*
%TO.P,C1,11*%
%TO.N,P16*%
X77903412Y23430581D03*
%TO.P,C1,12*%
%TO.N,P10*%
X77903412Y20890581D03*
%TO.P,C1,13*%
%TO.N,P1*%
X93143412Y48830581D03*
%TO.P,C1,14*%
%TO.N,P0*%
X93143412Y46290581D03*
%TO.P,C1,15*%
%TO.N,GND*%
X93143412Y43750581D03*
%TO.P,C1,16*%
X93143412Y41210581D03*
%TO.P,C1,17*%
%TO.N,P2*%
X93143412Y38670581D03*
%TO.P,C1,18*%
%TO.N,P3*%
X93143412Y36130581D03*
%TO.P,C1,19*%
%TO.N,P4*%
X93143412Y33590581D03*
%TO.P,C1,20*%
%TO.N,P5*%
X93143412Y31050581D03*
%TO.P,C1,21*%
%TO.N,P6*%
X93143412Y28510581D03*
%TO.P,C1,22*%
%TO.N,P7*%
X93143412Y25970581D03*
%TO.P,C1,23*%
%TO.N,P8*%
X93143412Y23430581D03*
%TO.P,C1,24*%
%TO.N,P9*%
X93143412Y20890581D03*
%TD*%
D13*
%TO.P,J1,1*%
%TO.N,GND*%
X85023032Y18360582D03*
%TO.P,J1,2*%
X86023792Y18360582D03*
%TD*%
D14*
%TO.P,REF\u002A\u002A,1*%
%TO.N,GND*%
X85023412Y18360582D03*
%TD*%
D15*
%TO.N,GND*%
X49988421Y29042238D02*
X51103412Y27927247D01*
X43058403Y29042238D02*
X49988421Y29042238D01*
X41943413Y27927248D02*
X43058403Y29042238D01*
X49988421Y46042239D02*
X51103412Y44927248D01*
X43058402Y46042238D02*
X49988421Y46042239D01*
X41943412Y44927248D02*
X43058402Y46042238D01*
X67988422Y40375572D02*
X69103412Y39260582D01*
X61058402Y40375572D02*
X67988422Y40375572D01*
X59943412Y39260581D02*
X61058402Y40375572D01*
X67988423Y23375572D02*
X69103412Y22260581D01*
X61058402Y23375572D02*
X67988423Y23375572D01*
X59943411Y22260581D02*
X61058402Y23375572D01*
X102838957Y1614547D02*
X103627375Y248970D01*
X96145073Y3408168D02*
X102838957Y1614547D01*
X94779495Y2619751D02*
X96145073Y3408168D01*
X31888736Y22058336D02*
X33096660Y21044767D01*
X24985087Y21454345D02*
X31888736Y22058336D01*
X23971517Y20246420D02*
X24985087Y21454345D01*
X30407088Y38993645D02*
X31615013Y37980075D01*
X23503439Y38389653D02*
X30407088Y38993645D01*
X22489870Y37181729D02*
X23503439Y38389653D01*
X14259169Y13582430D02*
X15624748Y12794013D01*
X7565284Y11788809D02*
X14259169Y13582430D01*
X6776867Y10423230D02*
X7565284Y11788809D01*
X18659092Y-2838310D02*
X20024671Y-3626727D01*
X11965207Y-4631931D02*
X18659092Y-2838310D01*
X11176790Y-5997509D02*
X11965207Y-4631931D01*
X85023032Y12376214D02*
X85023032Y18360582D01*
X94779495Y2619751D02*
X85023032Y12376214D01*
X22360000Y13200000D02*
X24630000Y15470000D01*
X82132450Y15470000D02*
X85023032Y18360582D01*
X22360000Y13190000D02*
X22360000Y13200000D01*
X20024670Y-3626726D02*
X21730334Y-1921062D01*
X15624747Y12794013D02*
X17778760Y10640000D01*
X19810000Y10640000D02*
X20855000Y11685000D01*
X20855000Y11685000D02*
X22360000Y13190000D01*
X20595531Y11425531D02*
X20855000Y11685000D01*
X23971518Y16208482D02*
X24710000Y15470000D01*
X23971518Y20246421D02*
X23971518Y16208482D01*
X24630000Y15470000D02*
X24710000Y15470000D01*
X35060931Y21044767D02*
X41943412Y27927248D01*
X33096661Y21044767D02*
X35060931Y21044767D01*
X56770078Y22260582D02*
X51103412Y27927248D01*
X59943413Y22260582D02*
X56770078Y22260582D01*
X56770078Y39260582D02*
X51103412Y44927248D01*
X59943412Y39260582D02*
X56770078Y39260582D01*
X31615013Y37980076D02*
X34996240Y37980076D01*
X22489870Y37181730D02*
X19960000Y34651860D01*
X19960000Y24257939D02*
X23971518Y20246421D01*
X19960000Y34651860D02*
X19960000Y24257939D01*
X37063082Y32807578D02*
X41943412Y27927248D01*
X37063082Y40046918D02*
X37063082Y32807578D01*
X34996240Y37980076D02*
X37063082Y40046918D01*
X37063082Y40046918D02*
X41943412Y44927248D01*
X56770078Y25433917D02*
X59943413Y22260582D01*
X56770078Y39260582D02*
X56770078Y25433917D01*
X41943412Y18036588D02*
X44510000Y15470000D01*
X41943412Y27927248D02*
X41943412Y18036588D01*
X24710000Y15470000D02*
X44510000Y15470000D01*
X59943413Y18016587D02*
X62490000Y15470000D01*
X59943413Y22260582D02*
X59943413Y18016587D01*
X62490000Y15470000D02*
X82132450Y15470000D01*
X44510000Y15470000D02*
X62490000Y15470000D01*
X78939419Y46290581D02*
X77903412Y46290581D01*
X86023792Y39206208D02*
X78939419Y46290581D01*
X86023792Y18360582D02*
X86023792Y39206208D01*
X21730334Y-1921062D02*
X18730000Y10640000D01*
X18730000Y10640000D02*
X19810000Y10640000D01*
X17778760Y10640000D02*
X18730000Y10640000D01*
%TD*%
M02*
