M48
; DRILL file {KiCad (5.1.9)-1} date 06/26/21 19:40:37
; FORMAT={-:-/ absolute / inch / decimal}
; #@! TF.CreationDate,2021-06-26T19:40:37+02:00
; #@! TF.GenerationSoftware,Kicad,Pcbnew,(5.1.9)-1
FMAT,2
INCH
T1C0.0118
T2C0.0430
T3C0.0433
%
G90
G05
T1
X3.3474Y0.7229
T2
X3.0671Y1.9225
X3.0671Y1.8225
X3.0671Y1.7225
X3.0671Y1.6225
X3.0671Y1.5225
X3.0671Y1.4225
X3.0671Y1.3225
X3.0671Y1.2225
X3.0671Y1.1225
X3.0671Y1.0225
X3.0671Y0.9225
X3.0671Y0.8225
X3.6671Y1.9225
X3.6671Y1.8225
X3.6671Y1.7225
X3.6671Y1.6225
X3.6671Y1.5225
X3.6671Y1.4225
X3.6671Y1.3225
X3.6671Y1.2225
X3.6671Y1.1225
X3.6671Y1.0225
X3.6671Y0.9225
X3.6671Y0.8225
T3
X0.1391Y0.7776
X0.2668Y0.4104
X0.3123Y0.1311
X0.368Y0.4252
X0.44Y-0.2361
X0.5201Y0.466
X0.5412Y-0.2212
X0.5422Y0.8856
X0.6151Y0.5037
X0.6933Y-0.1805
X0.7154Y0.2391
X0.7884Y-0.1428
X0.8234Y1.8477
X0.8817Y1.181
X0.8854Y1.4638
X0.9438Y0.7971
X0.9876Y1.4609
X1.046Y0.7942
X1.1445Y1.4747
X1.2029Y0.8079
X1.2391Y1.8841
X1.2447Y1.4953
X1.2975Y1.2173
X1.303Y0.8285
X1.623Y2.1566
X1.623Y1.4873
X1.6513Y1.7688
X1.6513Y1.0995
X1.7529Y1.757
X1.7529Y1.0877
X1.9104Y1.757
X1.9104Y1.0877
X2.0119Y1.7688
X2.0119Y1.0995
X2.0403Y2.1566
X2.0403Y1.4873
X2.3316Y1.9335
X2.3316Y1.2642
X2.36Y1.5457
X2.36Y0.8764
X2.4616Y1.5339
X2.4616Y0.8646
X2.619Y1.5339
X2.619Y0.8646
X2.7206Y1.5457
X2.7206Y0.8764
X2.749Y1.9335
X2.749Y1.2642
X3.7315Y0.1031
X3.8045Y0.4851
X3.8265Y0.0654
X3.9786Y0.0247
X4.0798Y0.0098
X4.2076Y0.377
T0
M30
