M48
; DRILL file {KiCad (5.1.9)-1} date 07/01/21 17:15:00
; FORMAT={-:-/ absolute / inch / decimal}
; #@! TF.CreationDate,2021-07-01T17:15:00+02:00
; #@! TF.GenerationSoftware,Kicad,Pcbnew,(5.1.9)-1
FMAT,2
INCH
T1C0.0354
T2C0.0430
T3C0.0500
T4C0.0591
T5C0.0670
T6C0.1350
%
G90
G05
T2
X3.7973Y0.4618
X3.806Y0.5614
X3.8147Y0.661
X3.8234Y0.7607
X3.8321Y0.8603
X3.8408Y0.9599
X3.8496Y1.0595
X3.8583Y1.1591
X3.867Y1.2588
X3.8757Y1.3584
X3.8844Y1.458
X3.8931Y1.5576
X4.395Y0.4095
X4.4037Y0.5091
X4.4124Y0.6087
X4.4211Y0.7084
X4.4298Y0.808
X4.4386Y0.9076
X4.4473Y1.0072
X4.456Y1.1068
X4.4647Y1.2065
X4.4734Y1.3061
X4.4821Y1.4057
X4.4908Y1.5053
T3
X0.1289Y1.4945
X0.3021Y0.848
X0.3404Y1.4656
X0.4753Y0.2016
X0.5136Y0.8191
X0.6869Y0.1727
X1.0247Y2.3922
X1.083Y1.7255
X1.1414Y1.0588
X1.228Y2.327
X1.2863Y1.6603
X1.3447Y0.9935
X1.9143Y2.6848
X1.9143Y2.0155
X1.9143Y1.3462
X2.1112Y2.6021
X2.1112Y1.9328
X2.1112Y1.2635
X2.6937Y1.1197
X2.752Y1.7864
X2.8104Y2.4532
X2.8826Y1.0201
X2.9409Y1.6869
X2.9993Y2.3536
X3.39Y0.9468
X3.4483Y1.6135
X3.5066Y2.2803
X3.5788Y0.8473
X3.6372Y1.514
X3.6955Y2.1808
X3.9943Y-0.0625
X4.151Y-0.2075
T4
X4.6708Y1.266
X4.6949Y1.5405
T5
X-0.0202Y1.2141
X0.1531Y0.5676
X0.3263Y-0.0789
X0.3981Y1.3262
X0.5714Y0.6797
X0.7446Y0.0332
X0.8292Y2.142
X0.8876Y1.4752
X0.9459Y0.8085
X1.2607Y2.1797
X1.319Y1.513
X1.3773Y0.8462
X1.6978Y2.4525
X1.6978Y1.7832
X1.6978Y1.1139
X2.1309Y2.4525
X2.1309Y1.7832
X2.1309Y1.1139
X2.4578Y0.9071
X2.5161Y1.5739
X2.5744Y2.2406
X2.8892Y0.8694
X2.9475Y1.5361
X3.0058Y2.2029
X3.154Y0.7343
X3.2123Y1.401
X3.2707Y2.0677
X3.5854Y0.6965
X3.6438Y1.3633
X3.7021Y2.03
X3.7114Y-0.2067
X4.1184Y-0.3549
T6
X0.189Y1.2702
X0.3622Y0.6237
X0.5354Y-0.0228
X1.045Y2.1608
X1.1033Y1.4941
X1.1616Y0.8274
X1.9143Y2.4525
X1.9143Y1.7832
X1.9143Y1.1139
X2.6735Y0.8883
X2.7318Y1.555
X2.7901Y2.2218
X3.3697Y0.7154
X3.428Y1.3821
X3.4864Y2.0489
X3.9149Y-0.2808
T1
G00X4.5724Y1.1798
M15
G01X4.5703Y1.1562
M16
G05
G00X4.5762Y1.2229
M15
G01X4.5741Y1.1994
M16
G05
G00X4.5899Y1.3798
M15
G01X4.5878Y1.3563
M16
G05
G00X4.6002Y1.4974
M15
G01X4.5981Y1.4739
M16
G05
G00X4.7528Y1.164
M15
G01X4.7507Y1.1404
M16
G05
G00X4.7566Y1.2071
M15
G01X4.7545Y1.1836
M16
G05
G00X4.7703Y1.364
M15
G01X4.7682Y1.3405
M16
G05
G00X4.7806Y1.4817
M15
G01X4.7785Y1.4581
M16
G05
T0
M30
