%TF.GenerationSoftware,KiCad,Pcbnew,(5.1.9)-1*%
%TF.CreationDate,2021-06-29T12:17:40+02:00*%
%TF.ProjectId,metasepia_pfefferi,6d657461-7365-4706-9961-5f7066656666,VERSION_HERE*%
%TF.SameCoordinates,Original*%
%TF.FileFunction,Legend,Top*%
%TF.FilePolarity,Positive*%
%FSLAX46Y46*%
G04 Gerber Fmt 4.6, Leading zero omitted, Abs format (unit mm)*
G04 Created by KiCad (PCBNEW (5.1.9)-1) date 2021-06-29 12:17:40*
%MOMM*%
%LPD*%
G01*
G04 APERTURE LIST*
%ADD10C,0.150000*%
G04 APERTURE END LIST*
D10*
%TO.C,C1*%
X14597441Y57637023D02*
X17127776Y57858398D01*
X14376066Y60167357D02*
X16906400Y60388733D01*
X14376066Y60167357D02*
X14597441Y57637023D01*
X16685025Y62919067D02*
X-1027317Y61369438D01*
X19562907Y30024718D02*
X16685025Y62919067D01*
X1850566Y28475089D02*
X19562907Y30024718D01*
X-1027317Y61369438D02*
X1850566Y28475089D01*
X12423915Y58358427D02*
X12125060Y58714688D01*
X11968511Y58318584D02*
X11898787Y59115540D01*
X12202389Y59142102D01*
X12281610Y59110792D01*
X12322880Y59076162D01*
X12367471Y59003581D01*
X12377432Y58889731D01*
X12346122Y58810510D01*
X12311492Y58769239D01*
X12238911Y58724649D01*
X11935309Y58698087D01*
X12707595Y58612690D02*
X13087098Y58645892D01*
X12651616Y58378348D02*
X12847544Y59198545D01*
X13182920Y58424831D01*
X13302947Y59238388D02*
X13562423Y58458033D01*
X13664421Y59040568D01*
X13866025Y58484595D01*
X13986052Y59298152D01*
X12521960Y56582118D02*
X12442739Y56613428D01*
X12328888Y56603467D01*
X12218358Y56555556D01*
X12149098Y56473015D01*
X12117788Y56393794D01*
X12093118Y56238673D01*
X12103079Y56124822D01*
X12154310Y55976341D01*
X12198901Y55903761D01*
X12281442Y55834501D01*
X12398613Y55806511D01*
X12474513Y55813152D01*
X12585044Y55861063D01*
X12619674Y55902333D01*
X12596432Y56167985D01*
X12444631Y56154704D01*
X12967867Y55856315D02*
X12898142Y56653270D01*
X13423270Y55896157D01*
X13353546Y56693113D01*
X13802773Y55929359D02*
X13733048Y56726315D01*
X13922800Y56742916D01*
X14039971Y56714927D01*
X14122512Y56645667D01*
X14167102Y56573086D01*
X14218334Y56424605D01*
X14228294Y56310754D01*
X14203625Y56155633D01*
X14172315Y56076412D01*
X14103055Y55993871D01*
X13992524Y55945960D01*
X13802773Y55929359D01*
X12980516Y53307718D02*
X12681662Y53663980D01*
X12525113Y53267876D02*
X12455389Y54064832D01*
X12758991Y54091393D01*
X12838212Y54060083D01*
X12879482Y54025453D01*
X12924073Y53952873D01*
X12934033Y53839022D01*
X12902724Y53759801D01*
X12868093Y53718531D01*
X12795513Y53673940D01*
X12491911Y53647378D01*
X13280798Y53372230D02*
X13397969Y53344241D01*
X13587721Y53360842D01*
X13660301Y53405433D01*
X13694931Y53446703D01*
X13726241Y53525924D01*
X13719601Y53601824D01*
X13675010Y53674405D01*
X13633739Y53709035D01*
X13554519Y53740345D01*
X13399397Y53765014D01*
X13320177Y53796324D01*
X13278906Y53830954D01*
X13234315Y53903534D01*
X13227675Y53979435D01*
X13258985Y54058656D01*
X13293615Y54099926D01*
X13366195Y54144517D01*
X13555946Y54161118D01*
X13673118Y54133128D01*
X13897499Y54191000D02*
X14352902Y54230842D01*
X14194925Y53413965D02*
X14125201Y54210921D01*
X12505988Y51519557D02*
X12841365Y50745842D01*
X13037292Y51566040D01*
X13821432Y50908069D02*
X13786801Y50866798D01*
X13676271Y50818887D01*
X13600370Y50812247D01*
X13483199Y50840236D01*
X13400658Y50909496D01*
X13356068Y50982077D01*
X13304836Y51130558D01*
X13294876Y51244408D01*
X13319545Y51399530D01*
X13350855Y51478751D01*
X13420115Y51561292D01*
X13530646Y51609202D01*
X13606546Y51615843D01*
X13723717Y51587853D01*
X13764988Y51553223D01*
X14618387Y50977793D02*
X14583757Y50936523D01*
X14473227Y50888612D01*
X14397326Y50881971D01*
X14280155Y50909961D01*
X14197614Y50979221D01*
X14153023Y51051801D01*
X14101792Y51200282D01*
X14091832Y51314133D01*
X14116501Y51469254D01*
X14147811Y51548475D01*
X14217071Y51631016D01*
X14327601Y51678927D01*
X14403502Y51685567D01*
X14520673Y51657578D01*
X14561944Y51622948D01*
X12891964Y48200566D02*
X12822239Y48997522D01*
X13125841Y49024084D01*
X13205062Y48992774D01*
X13246332Y48958144D01*
X13290923Y48885564D01*
X13300884Y48771713D01*
X13269574Y48692492D01*
X13234944Y48651222D01*
X13162364Y48606631D01*
X12858761Y48580069D01*
X13587885Y48988026D02*
X13622515Y49029296D01*
X13695095Y49073887D01*
X13884847Y49090488D01*
X13964067Y49059178D01*
X14005338Y49024548D01*
X14049929Y48951968D01*
X14056569Y48876067D01*
X14028579Y48758896D01*
X13613019Y48263650D01*
X14106372Y48306813D01*
X14865378Y48373218D02*
X14409975Y48333375D01*
X14637676Y48353296D02*
X14567952Y49150252D01*
X14502012Y49029761D01*
X14432752Y48947220D01*
X14360171Y48902629D01*
X13113340Y45670232D02*
X13043615Y46467188D01*
X13347217Y46493750D01*
X13426438Y46462440D01*
X13467708Y46427810D01*
X13512299Y46355230D01*
X13522260Y46241379D01*
X13490950Y46162158D01*
X13456320Y46120888D01*
X13383740Y46076297D01*
X13080137Y46049735D01*
X13809261Y46457692D02*
X13843891Y46498962D01*
X13916471Y46543553D01*
X14106223Y46560154D01*
X14185443Y46528844D01*
X14226714Y46494214D01*
X14271305Y46421634D01*
X14277945Y46345733D01*
X14249955Y46228562D01*
X13834395Y45733316D01*
X14327748Y45776479D01*
X14751377Y46616598D02*
X14827278Y46623238D01*
X14906499Y46591929D01*
X14947769Y46557298D01*
X14992360Y46484718D01*
X15043591Y46336237D01*
X15060192Y46146486D01*
X15035523Y45991365D01*
X15004213Y45912144D01*
X14969583Y45870873D01*
X14897002Y45826283D01*
X14821102Y45819642D01*
X14741881Y45850952D01*
X14700611Y45885582D01*
X14656020Y45958162D01*
X14604789Y46106643D01*
X14588188Y46296395D01*
X14612857Y46451516D01*
X14644167Y46530737D01*
X14678797Y46572007D01*
X14751377Y46616598D01*
X13334715Y43139897D02*
X13264990Y43936853D01*
X13568592Y43963415D01*
X13647813Y43932105D01*
X13689083Y43897475D01*
X13733674Y43824895D01*
X13743635Y43711044D01*
X13712325Y43631823D01*
X13677695Y43590553D01*
X13605115Y43545962D01*
X13301512Y43519400D01*
X14549123Y43246144D02*
X14093720Y43206302D01*
X14321422Y43226223D02*
X14251697Y44023179D01*
X14185757Y43902688D01*
X14116497Y43820147D01*
X14043917Y43775556D01*
X14928626Y43279347D02*
X15080427Y43292627D01*
X15153008Y43337218D01*
X15187638Y43378489D01*
X15253577Y43498980D01*
X15278247Y43654101D01*
X15251685Y43957703D01*
X15207094Y44030284D01*
X15165824Y44064914D01*
X15086603Y44096224D01*
X14934802Y44082943D01*
X14862222Y44038352D01*
X14827592Y43997081D01*
X14796282Y43917861D01*
X14812883Y43728109D01*
X14857474Y43655529D01*
X14898744Y43620899D01*
X14977965Y43589589D01*
X15129766Y43602870D01*
X15202346Y43647461D01*
X15236976Y43688731D01*
X15268286Y43767952D01*
X13556091Y40609563D02*
X13486366Y41406519D01*
X13789968Y41433081D01*
X13869189Y41401771D01*
X13910459Y41367141D01*
X13955050Y41294561D01*
X13965011Y41180710D01*
X13933701Y41101489D01*
X13899071Y41060219D01*
X13826491Y41015628D01*
X13522888Y40989066D01*
X14770499Y40715810D02*
X14315096Y40675968D01*
X14542798Y40695889D02*
X14473073Y41492845D01*
X14407133Y41372354D01*
X14337873Y41289813D01*
X14265293Y41245222D01*
X15186060Y41211056D02*
X15106839Y41242366D01*
X15065569Y41276996D01*
X15020978Y41349576D01*
X15017658Y41387527D01*
X15048968Y41466747D01*
X15083598Y41508018D01*
X15156178Y41552609D01*
X15307979Y41565890D01*
X15387200Y41534580D01*
X15428470Y41499950D01*
X15473061Y41427369D01*
X15476381Y41389419D01*
X15445072Y41310198D01*
X15410441Y41268928D01*
X15337861Y41224337D01*
X15186060Y41211056D01*
X15113480Y41166466D01*
X15078850Y41125195D01*
X15047540Y41045974D01*
X15060821Y40894173D01*
X15105411Y40821593D01*
X15146682Y40786963D01*
X15225903Y40755653D01*
X15377704Y40768934D01*
X15450284Y40813525D01*
X15484914Y40854795D01*
X15516224Y40934016D01*
X15502943Y41085817D01*
X15458352Y41158397D01*
X15417082Y41193027D01*
X15337861Y41224337D01*
X13777467Y38079228D02*
X13707742Y38876184D01*
X14011344Y38902746D01*
X14090565Y38871436D01*
X14131835Y38836806D01*
X14176426Y38764226D01*
X14186387Y38650375D01*
X14155077Y38571154D01*
X14120447Y38529884D01*
X14047867Y38485293D01*
X13744264Y38458731D01*
X14991875Y38185475D02*
X14536472Y38145633D01*
X14764174Y38165554D02*
X14694449Y38962510D01*
X14628509Y38842019D01*
X14559249Y38759478D01*
X14486669Y38714887D01*
X15643206Y39045515D02*
X15263703Y39012313D01*
X15258955Y38629490D01*
X15293585Y38670761D01*
X15366166Y38715351D01*
X15555917Y38731952D01*
X15635138Y38700643D01*
X15676408Y38666012D01*
X15720999Y38593432D01*
X15737600Y38403681D01*
X15706290Y38324460D01*
X15671660Y38283190D01*
X15599080Y38238599D01*
X15409328Y38221998D01*
X15330108Y38253308D01*
X15288837Y38287938D01*
X13998842Y35548894D02*
X13929117Y36345850D01*
X14232719Y36372412D01*
X14311940Y36341102D01*
X14353210Y36306472D01*
X14397801Y36233892D01*
X14407762Y36120041D01*
X14376452Y36040820D01*
X14341822Y35999550D01*
X14269242Y35954959D01*
X13965639Y35928397D01*
X15213250Y35655141D02*
X14757847Y35615299D01*
X14985549Y35635220D02*
X14915824Y36432176D01*
X14849884Y36311685D01*
X14780624Y36229144D01*
X14708044Y36184553D01*
X15849872Y36246209D02*
X15896355Y35714905D01*
X15633559Y36533210D02*
X15493611Y35947355D01*
X15986965Y35990518D01*
X14220218Y33018559D02*
X14150493Y33815515D01*
X14454095Y33842077D01*
X14533316Y33810767D01*
X14574586Y33776137D01*
X14619177Y33703557D01*
X14629138Y33589706D01*
X14597828Y33510485D01*
X14563198Y33469215D01*
X14490618Y33424624D01*
X14187015Y33398062D01*
X15434626Y33124806D02*
X14979223Y33084964D01*
X15206925Y33104885D02*
X15137200Y33901841D01*
X15071260Y33781350D01*
X15002000Y33698809D01*
X14929420Y33654218D01*
X16048007Y33981526D02*
X15896206Y33968245D01*
X15823625Y33923654D01*
X15788995Y33882384D01*
X15723055Y33761893D01*
X15698386Y33606771D01*
X15724948Y33303169D01*
X15769538Y33230589D01*
X15810809Y33195959D01*
X15890030Y33164649D01*
X16041831Y33177930D01*
X16114411Y33222521D01*
X16149041Y33263791D01*
X16180351Y33343012D01*
X16163750Y33532763D01*
X16119159Y33605343D01*
X16077889Y33639974D01*
X15998668Y33671283D01*
X15846867Y33658003D01*
X15774286Y33613412D01*
X15739656Y33572141D01*
X15708347Y33492921D01*
X14441593Y30488225D02*
X14371868Y31285181D01*
X14675470Y31311743D01*
X14754691Y31280433D01*
X14795961Y31245803D01*
X14840552Y31173223D01*
X14850513Y31059372D01*
X14819203Y30980151D01*
X14784573Y30938881D01*
X14711993Y30894290D01*
X14408390Y30867728D01*
X15656001Y30594472D02*
X15200598Y30554630D01*
X15428300Y30574551D02*
X15358575Y31371507D01*
X15292635Y31251016D01*
X15223375Y31168475D01*
X15150795Y31123884D01*
X16079630Y31434591D02*
X16155531Y31441231D01*
X16234752Y31409922D01*
X16276022Y31375291D01*
X16320613Y31302711D01*
X16371844Y31154230D01*
X16388445Y30964479D01*
X16363776Y30809358D01*
X16332466Y30730137D01*
X16297836Y30688866D01*
X16225255Y30644276D01*
X16149355Y30637635D01*
X16070134Y30668945D01*
X16028864Y30703575D01*
X15984273Y30776155D01*
X15933042Y30924636D01*
X15916441Y31114388D01*
X15941110Y31269509D01*
X15972420Y31348730D01*
X16007050Y31390000D01*
X16079630Y31434591D01*
X2442993Y57485209D02*
X2373268Y58282165D01*
X2676870Y58308727D01*
X2756091Y58277417D01*
X2797361Y58242787D01*
X2841952Y58170207D01*
X2851913Y58056356D01*
X2820603Y57977135D01*
X2785973Y57935865D01*
X2713393Y57891274D01*
X2409790Y57864712D01*
X3322025Y58365171D02*
X3397925Y58371811D01*
X3477146Y58340501D01*
X3518417Y58305871D01*
X3563007Y58233291D01*
X3614239Y58084810D01*
X3630840Y57895059D01*
X3606170Y57739937D01*
X3574860Y57660716D01*
X3540230Y57619446D01*
X3467650Y57574855D01*
X3391749Y57568215D01*
X3312529Y57599525D01*
X3271258Y57634155D01*
X3226667Y57706735D01*
X3175436Y57855216D01*
X3158835Y58044967D01*
X3183505Y58200089D01*
X3214814Y58279309D01*
X3249445Y58320580D01*
X3322025Y58365171D01*
X4416407Y57657861D02*
X3961004Y57618018D01*
X4188705Y57637939D02*
X4118981Y58434895D01*
X4053041Y58314404D01*
X3983781Y58231863D01*
X3911200Y58187272D01*
X2664368Y54954875D02*
X2594643Y55751831D01*
X2898245Y55778393D01*
X2977466Y55747083D01*
X3018736Y55712453D01*
X3063327Y55639873D01*
X3073288Y55526022D01*
X3041978Y55446801D01*
X3007348Y55405531D01*
X2934768Y55360940D01*
X2631165Y55334378D01*
X3543400Y55834837D02*
X3619300Y55841477D01*
X3698521Y55810167D01*
X3739792Y55775537D01*
X3784382Y55702957D01*
X3835614Y55554476D01*
X3852215Y55364725D01*
X3827545Y55209603D01*
X3796235Y55130382D01*
X3761605Y55089112D01*
X3689025Y55044521D01*
X3613124Y55037881D01*
X3533904Y55069191D01*
X3492633Y55103821D01*
X3448042Y55176401D01*
X3396811Y55324882D01*
X3380210Y55514633D01*
X3404880Y55669755D01*
X3436189Y55748975D01*
X3470820Y55790246D01*
X3543400Y55834837D01*
X4302405Y55901241D02*
X4378306Y55907881D01*
X4457527Y55876572D01*
X4498797Y55841941D01*
X4543388Y55769361D01*
X4594619Y55620880D01*
X4611220Y55431129D01*
X4586551Y55276008D01*
X4555241Y55196787D01*
X4520611Y55155516D01*
X4448030Y55110926D01*
X4372130Y55104285D01*
X4292909Y55135595D01*
X4251639Y55170225D01*
X4207048Y55242805D01*
X4155817Y55391286D01*
X4139216Y55581038D01*
X4163885Y55736159D01*
X4195195Y55815380D01*
X4229825Y55856650D01*
X4302405Y55901241D01*
X3179867Y53215088D02*
X3100646Y53246398D01*
X2986795Y53236437D01*
X2876265Y53188526D01*
X2807005Y53105985D01*
X2775695Y53026764D01*
X2751025Y52871643D01*
X2760986Y52757792D01*
X2812217Y52609311D01*
X2856808Y52536731D01*
X2939349Y52467471D01*
X3056520Y52439481D01*
X3132420Y52446122D01*
X3242951Y52494033D01*
X3277581Y52535303D01*
X3254339Y52800955D01*
X3102538Y52787674D01*
X3625774Y52489285D02*
X3556049Y53286240D01*
X4081177Y52529127D01*
X4011453Y53326083D01*
X4460680Y52562329D02*
X4390955Y53359285D01*
X4580707Y53375886D01*
X4697878Y53347897D01*
X4780419Y53278637D01*
X4825009Y53206056D01*
X4876241Y53057575D01*
X4886201Y52943724D01*
X4861532Y52788603D01*
X4830222Y52709382D01*
X4760962Y52626841D01*
X4650431Y52578930D01*
X4460680Y52562329D01*
X3401242Y50684754D02*
X3322021Y50716064D01*
X3208170Y50706103D01*
X3097640Y50658192D01*
X3028380Y50575651D01*
X2997070Y50496430D01*
X2972400Y50341309D01*
X2982361Y50227458D01*
X3033592Y50078977D01*
X3078183Y50006397D01*
X3160724Y49937137D01*
X3277895Y49909147D01*
X3353795Y49915788D01*
X3464326Y49963699D01*
X3498956Y50004969D01*
X3475714Y50270621D01*
X3323913Y50257340D01*
X3847149Y49958951D02*
X3777424Y50755906D01*
X4302552Y49998793D01*
X4232828Y50795749D01*
X4682055Y50031995D02*
X4612330Y50828951D01*
X4802082Y50845552D01*
X4919253Y50817563D01*
X5001794Y50748303D01*
X5046384Y50675722D01*
X5097616Y50527241D01*
X5107576Y50413390D01*
X5082907Y50258269D01*
X5051597Y50179048D01*
X4982337Y50096507D01*
X4871806Y50048596D01*
X4682055Y50031995D01*
X3328495Y47363871D02*
X3258770Y48160827D01*
X3562372Y48187389D01*
X3641593Y48156079D01*
X3682863Y48121449D01*
X3727454Y48048869D01*
X3737415Y47935018D01*
X3706105Y47855797D01*
X3671475Y47814527D01*
X3598895Y47769936D01*
X3295292Y47743374D01*
X4207527Y48243833D02*
X4283427Y48250473D01*
X4362648Y48219163D01*
X4403919Y48184533D01*
X4448509Y48111953D01*
X4499741Y47963472D01*
X4516342Y47773721D01*
X4491672Y47618599D01*
X4460362Y47539378D01*
X4425732Y47498108D01*
X4353152Y47453517D01*
X4277251Y47446877D01*
X4198031Y47478187D01*
X4156760Y47512817D01*
X4112169Y47585397D01*
X4060938Y47733878D01*
X4044337Y47923629D01*
X4069007Y48078751D01*
X4100316Y48157971D01*
X4134947Y48199242D01*
X4207527Y48243833D01*
X4783421Y48217735D02*
X4818051Y48259006D01*
X4890632Y48303596D01*
X5080383Y48320198D01*
X5159604Y48288888D01*
X5200874Y48254258D01*
X5245465Y48181677D01*
X5252106Y48105777D01*
X5224116Y47988606D01*
X4808555Y47493360D01*
X5301909Y47536523D01*
X3549871Y44833537D02*
X3480146Y45630493D01*
X3783748Y45657055D01*
X3862969Y45625745D01*
X3904239Y45591115D01*
X3948830Y45518535D01*
X3958791Y45404684D01*
X3927481Y45325463D01*
X3892851Y45284193D01*
X3820271Y45239602D01*
X3516668Y45213040D01*
X4428903Y45713499D02*
X4504803Y45720139D01*
X4584024Y45688829D01*
X4625295Y45654199D01*
X4669885Y45581619D01*
X4721117Y45433138D01*
X4737718Y45243387D01*
X4713048Y45088265D01*
X4681738Y45009044D01*
X4647108Y44967774D01*
X4574528Y44923183D01*
X4498627Y44916543D01*
X4419407Y44947853D01*
X4378136Y44982483D01*
X4333545Y45055063D01*
X4282314Y45203544D01*
X4265713Y45393295D01*
X4290383Y45548417D01*
X4321692Y45627637D01*
X4356323Y45668908D01*
X4428903Y45713499D01*
X4960207Y45759982D02*
X5453560Y45803144D01*
X5214470Y45476301D01*
X5328321Y45486261D01*
X5407542Y45454952D01*
X5448812Y45420321D01*
X5493403Y45347741D01*
X5510004Y45157990D01*
X5478694Y45078769D01*
X5444064Y45037499D01*
X5371484Y44992908D01*
X5143782Y44972987D01*
X5064561Y45004296D01*
X5023291Y45038926D01*
X3771246Y42303202D02*
X3701521Y43100158D01*
X4005123Y43126720D01*
X4084344Y43095410D01*
X4125614Y43060780D01*
X4170205Y42988200D01*
X4180166Y42874349D01*
X4148856Y42795128D01*
X4114226Y42753858D01*
X4041646Y42709267D01*
X3738043Y42682705D01*
X4650278Y43183164D02*
X4726178Y43189804D01*
X4805399Y43158494D01*
X4846670Y43123864D01*
X4891260Y43051284D01*
X4942492Y42902803D01*
X4959093Y42713052D01*
X4934423Y42557930D01*
X4903113Y42478709D01*
X4868483Y42437439D01*
X4795903Y42392848D01*
X4720002Y42386208D01*
X4640782Y42417518D01*
X4599511Y42452148D01*
X4554920Y42524728D01*
X4503689Y42673209D01*
X4487088Y42862960D01*
X4511758Y43018082D01*
X4543067Y43097302D01*
X4577698Y43138573D01*
X4650278Y43183164D01*
X5622276Y43000517D02*
X5668759Y42469213D01*
X5405963Y43287518D02*
X5266015Y42701663D01*
X5759369Y42744826D01*
X3992622Y39772868D02*
X3922897Y40569824D01*
X4226499Y40596386D01*
X4305720Y40565076D01*
X4346990Y40530446D01*
X4391581Y40457866D01*
X4401542Y40344015D01*
X4370232Y40264794D01*
X4335602Y40223524D01*
X4263022Y40178933D01*
X3959419Y40152371D01*
X4871654Y40652830D02*
X4947554Y40659470D01*
X5026775Y40628160D01*
X5068046Y40593530D01*
X5112636Y40520950D01*
X5163868Y40372469D01*
X5180469Y40182718D01*
X5155799Y40027596D01*
X5124489Y39948375D01*
X5089859Y39907105D01*
X5017279Y39862514D01*
X4941378Y39855874D01*
X4862158Y39887184D01*
X4820887Y39921814D01*
X4776296Y39994394D01*
X4725065Y40142875D01*
X4708464Y40332626D01*
X4733134Y40487748D01*
X4764443Y40566968D01*
X4799074Y40608239D01*
X4871654Y40652830D01*
X5858361Y40739155D02*
X5478858Y40705953D01*
X5474110Y40323130D01*
X5508740Y40364401D01*
X5581321Y40408991D01*
X5771072Y40425592D01*
X5850293Y40394283D01*
X5891563Y40359652D01*
X5936154Y40287072D01*
X5952755Y40097321D01*
X5921445Y40018100D01*
X5886815Y39976830D01*
X5814235Y39932239D01*
X5624483Y39915638D01*
X5545263Y39946948D01*
X5503992Y39981578D01*
X4213997Y37242533D02*
X4144272Y38039489D01*
X4447874Y38066051D01*
X4527095Y38034741D01*
X4568365Y38000111D01*
X4612956Y37927531D01*
X4622917Y37813680D01*
X4591607Y37734459D01*
X4556977Y37693189D01*
X4484397Y37648598D01*
X4180794Y37622036D01*
X5093029Y38122495D02*
X5168929Y38129135D01*
X5248150Y38097825D01*
X5289421Y38063195D01*
X5334011Y37990615D01*
X5385243Y37842134D01*
X5401844Y37652383D01*
X5377174Y37497261D01*
X5345864Y37418040D01*
X5311234Y37376770D01*
X5238654Y37332179D01*
X5162753Y37325539D01*
X5083533Y37356849D01*
X5042262Y37391479D01*
X4997671Y37464059D01*
X4946440Y37612540D01*
X4929839Y37802291D01*
X4954509Y37957413D01*
X4985818Y38036633D01*
X5020449Y38077904D01*
X5093029Y38122495D01*
X6041786Y38205500D02*
X5889985Y38192219D01*
X5817404Y38147628D01*
X5782774Y38106358D01*
X5716834Y37985867D01*
X5692165Y37830745D01*
X5718727Y37527143D01*
X5763317Y37454563D01*
X5804588Y37419933D01*
X5883809Y37388623D01*
X6035610Y37401904D01*
X6108190Y37446495D01*
X6142820Y37487765D01*
X6174130Y37566986D01*
X6157529Y37756737D01*
X6112938Y37829317D01*
X6071668Y37863948D01*
X5992447Y37895257D01*
X5840646Y37881977D01*
X5768065Y37837386D01*
X5733435Y37796115D01*
X5702126Y37716895D01*
X4435373Y34712199D02*
X4365648Y35509155D01*
X4669250Y35535717D01*
X4748471Y35504407D01*
X4789741Y35469777D01*
X4834332Y35397197D01*
X4844293Y35283346D01*
X4812983Y35204125D01*
X4778353Y35162855D01*
X4705773Y35118264D01*
X4402170Y35091702D01*
X5314405Y35592161D02*
X5390305Y35598801D01*
X5469526Y35567491D01*
X5510797Y35532861D01*
X5555387Y35460281D01*
X5606619Y35311800D01*
X5623220Y35122049D01*
X5598550Y34966927D01*
X5567240Y34887706D01*
X5532610Y34846436D01*
X5460030Y34801845D01*
X5384129Y34795205D01*
X5304909Y34826515D01*
X5263638Y34861145D01*
X5219047Y34933725D01*
X5167816Y35082206D01*
X5151215Y35271957D01*
X5175885Y35427079D01*
X5207194Y35506299D01*
X5241825Y35547570D01*
X5314405Y35592161D01*
X5845709Y35638644D02*
X6377013Y35685127D01*
X6105185Y34858289D01*
X4656749Y32181864D02*
X4587024Y32978820D01*
X4890626Y33005382D01*
X4969847Y32974072D01*
X5011117Y32939442D01*
X5055708Y32866862D01*
X5065669Y32753011D01*
X5034359Y32673790D01*
X4999729Y32632520D01*
X4927149Y32587929D01*
X4623546Y32561367D01*
X5535781Y33061826D02*
X5611681Y33068466D01*
X5690902Y33037156D01*
X5732173Y33002526D01*
X5776763Y32929946D01*
X5827995Y32781465D01*
X5844596Y32591714D01*
X5819926Y32436592D01*
X5788616Y32357371D01*
X5753986Y32316101D01*
X5681406Y32271510D01*
X5605505Y32264870D01*
X5526285Y32296180D01*
X5485014Y32330810D01*
X5440423Y32403390D01*
X5389192Y32551871D01*
X5372591Y32741622D01*
X5397261Y32896744D01*
X5428570Y32975964D01*
X5463201Y33017235D01*
X5535781Y33061826D01*
X6286718Y32783357D02*
X6207497Y32814667D01*
X6166227Y32849297D01*
X6121636Y32921877D01*
X6118316Y32959828D01*
X6149626Y33039048D01*
X6184256Y33080319D01*
X6256836Y33124910D01*
X6408637Y33138191D01*
X6487858Y33106881D01*
X6529128Y33072251D01*
X6573719Y32999670D01*
X6577039Y32961720D01*
X6545730Y32882499D01*
X6511099Y32841229D01*
X6438519Y32796638D01*
X6286718Y32783357D01*
X6214138Y32738767D01*
X6179508Y32697496D01*
X6148198Y32618275D01*
X6161479Y32466474D01*
X6206069Y32393894D01*
X6247340Y32359264D01*
X6326561Y32327954D01*
X6478362Y32341235D01*
X6550942Y32385826D01*
X6585572Y32427096D01*
X6616882Y32506317D01*
X6603601Y32658118D01*
X6559010Y32730698D01*
X6517740Y32765328D01*
X6438519Y32796638D01*
X4878124Y29651530D02*
X4808399Y30448486D01*
X5112001Y30475048D01*
X5191222Y30443738D01*
X5232492Y30409108D01*
X5277083Y30336528D01*
X5287044Y30222677D01*
X5255734Y30143456D01*
X5221104Y30102186D01*
X5148524Y30057595D01*
X4844921Y30031033D01*
X5757156Y30531492D02*
X5833056Y30538132D01*
X5912277Y30506822D01*
X5953548Y30472192D01*
X5998138Y30399612D01*
X6049370Y30251131D01*
X6065971Y30061380D01*
X6041301Y29906258D01*
X6009991Y29827037D01*
X5975361Y29785767D01*
X5902781Y29741176D01*
X5826880Y29734536D01*
X5747660Y29765846D01*
X5706389Y29800476D01*
X5661798Y29873056D01*
X5610567Y30021537D01*
X5593966Y30211288D01*
X5618636Y30366410D01*
X5649945Y30445630D01*
X5684576Y30486901D01*
X5757156Y30531492D01*
X6472035Y29790980D02*
X6623836Y29804260D01*
X6696417Y29848851D01*
X6731047Y29890122D01*
X6796986Y30010613D01*
X6821656Y30165734D01*
X6795094Y30469336D01*
X6750503Y30541917D01*
X6709233Y30576547D01*
X6630012Y30607857D01*
X6478211Y30594576D01*
X6405631Y30549985D01*
X6371001Y30508714D01*
X6339691Y30429494D01*
X6356292Y30239742D01*
X6400883Y30167162D01*
X6442153Y30132532D01*
X6521374Y30101222D01*
X6673175Y30114503D01*
X6745755Y30159094D01*
X6780385Y30200364D01*
X6811695Y30279585D01*
%TD*%
M02*
