M48
; DRILL file {KiCad (5.1.10)-1} date 07/02/21 19:59:26
; FORMAT={-:-/ absolute / inch / decimal}
; #@! TF.CreationDate,2021-07-02T19:59:26+02:00
; #@! TF.GenerationSoftware,Kicad,Pcbnew,(5.1.10)-1
FMAT,2
INCH
T1C0.0354
T2C0.0430
T3C0.0500
T4C0.0591
T5C0.0670
T6C0.1350
%
G90
G05
T2
X0.0285Y2.5204
X0.0372Y2.4208
X0.0459Y2.3212
X0.0546Y2.2216
X0.0633Y2.122
X0.072Y2.0223
X0.0808Y1.9227
X0.0895Y1.8231
X0.0982Y1.7235
X0.1069Y1.6239
X0.1156Y1.5242
X0.1243Y1.4246
X0.6262Y2.5727
X0.6349Y2.4731
X0.6436Y2.3735
X0.6523Y2.2739
X0.6611Y2.1742
X0.6698Y2.0746
X0.6785Y1.975
X0.6872Y1.8754
X0.6959Y1.7758
X0.7046Y1.6761
X0.7133Y1.5765
X0.7221Y1.4769
T3
X0.3066Y0.74
X0.4753Y0.8709
X0.4753Y0.8709
X0.6869Y0.8419
X0.9265Y2.4737
X0.9848Y1.807
X1.0432Y1.1402
X1.1154Y2.5732
X1.1154Y2.5732
X1.1737Y1.9065
X1.1737Y1.9065
X1.2321Y1.2397
X1.2321Y1.2397
X1.3187Y2.508
X1.377Y1.8413
X1.4354Y1.1745
X1.7812Y2.784
X1.7812Y2.1147
X1.7812Y1.4454
X1.9781Y2.8667
X1.9781Y2.8667
X1.9781Y2.1974
X1.9781Y2.1974
X1.9781Y1.5281
X1.9781Y1.5281
X2.1749Y2.784
X2.1749Y2.1147
X2.1749Y1.4454
X2.4899Y2.5609
X2.4899Y1.8916
X2.4899Y1.2223
X2.614Y0.4414
X2.6867Y2.6436
X2.6867Y2.6436
X2.6867Y1.9743
X2.6867Y1.9743
X2.6867Y1.305
X2.6867Y1.305
X2.8256Y0.4703
X2.8256Y0.4703
X2.8836Y2.5609
X2.8836Y1.8916
X2.8836Y1.2223
X2.9943Y0.3395
X3.1985Y1.8916
X3.3749Y0.201
X3.3954Y1.9743
X3.3954Y1.9743
X3.5883Y0.1927
X3.5883Y0.1927
X3.5922Y1.8916
X3.7317Y0.0346
T4
X3.4033Y2.7026
X3.4033Y2.427
T5
X0.3263Y0.5904
X0.7446Y0.7025
X0.9199Y2.323
X0.9783Y1.6562
X1.0366Y0.9895
X1.3514Y2.3607
X1.4097Y1.694
X1.468Y1.0272
X1.7615Y2.6344
X1.7615Y1.9651
X1.7615Y1.2958
X2.1946Y2.6344
X2.1946Y1.9651
X2.1946Y1.2958
X2.4702Y2.4113
X2.4702Y1.742
X2.4702Y1.0727
X2.5563Y0.302
X2.9033Y2.4113
X2.9033Y1.742
X2.9033Y1.0727
X2.9746Y0.1899
X3.1788Y1.742
X3.2939Y0.0737
X3.6119Y1.742
X3.6864Y-0.1093
T6
X0.5354Y0.6465
X1.1357Y2.3418
X1.194Y1.6751
X1.2523Y1.0083
X1.9781Y2.6344
X1.9781Y1.9651
X1.9781Y1.2958
X2.6867Y2.4113
X2.6867Y1.742
X2.6867Y1.0727
X2.7655Y0.2459
X3.3954Y1.742
X3.4901Y-0.0178
T1
G00X3.3127Y2.6514
M15
G01X3.3127Y2.6278
M16
G05
G00X3.3127Y2.5333
M15
G01X3.3127Y2.5097
M16
G05
G00X3.3127Y2.3758
M15
G01X3.3127Y2.3522
M16
G05
G00X3.3127Y2.3325
M15
G01X3.3127Y2.3089
M16
G05
G00X3.4938Y2.6514
M15
G01X3.4938Y2.6278
M16
G05
G00X3.4938Y2.5333
M15
G01X3.4938Y2.5097
M16
G05
G00X3.4938Y2.3758
M15
G01X3.4938Y2.3522
M16
G05
G00X3.4938Y2.3325
M15
G01X3.4938Y2.3089
M16
G05
T0
M30
