%TF.GenerationSoftware,KiCad,Pcbnew,(5.1.10)-1*%
%TF.CreationDate,2021-07-02T19:59:24+02:00*%
%TF.ProjectId,newidea,6e657769-6465-4612-9e6b-696361645f70,VERSION_HERE*%
%TF.SameCoordinates,Original*%
%TF.FileFunction,Profile,NP*%
%FSLAX46Y46*%
G04 Gerber Fmt 4.6, Leading zero omitted, Abs format (unit mm)*
G04 Created by KiCad (PCBNEW (5.1.10)-1) date 2021-07-02 19:59:24*
%MOMM*%
%LPD*%
G01*
G04 APERTURE LIST*
%TA.AperFunction,Profile*%
%ADD10C,0.150000*%
%TD*%
G04 APERTURE END LIST*
D10*
X8072632Y6139817D02*
X23527445Y10280922D01*
X24234552Y11505667D02*
G75*
G02*
X23527445Y10280922I-965926J-258819D01*
G01*
X24234552Y11505667D02*
X23257169Y15153307D01*
X5113222Y22946541D02*
X3672708Y22560556D01*
X2965601Y21335811D02*
G75*
G02*
X3672708Y22560556I965926J258819D01*
G01*
X2965601Y21335811D02*
X6847887Y6846924D01*
X8072631Y6139818D02*
G75*
G02*
X6847887Y6846924I-258819J965925D01*
G01*
X24135939Y16408321D02*
X40519223Y17841673D01*
X41428261Y18925023D02*
G75*
G02*
X40519223Y17841673I-996194J-87156D01*
G01*
X41428262Y18925023D02*
X41043227Y23325988D01*
X5254111Y30817493D02*
X5850598Y23999622D01*
X4170761Y31726532D02*
X3174566Y31639376D01*
X-697768Y64426645D02*
X2091216Y32548415D01*
X37456192Y64325988D02*
X37157630Y67738563D01*
X36074281Y68647602D02*
G75*
G02*
X37157630Y67738563I87155J-996194D01*
G01*
X211271Y65509996D02*
X36074280Y68647602D01*
X42039422Y24413144D02*
X58242658Y24413144D01*
X38452387Y63413144D02*
X40242658Y63413144D01*
X59242658Y70746477D02*
X59242658Y74413144D01*
X58242658Y75413144D02*
G75*
G02*
X59242658Y74413144I0J-1000000D01*
G01*
X58242658Y75413144D02*
X42242658Y75413144D01*
X41242658Y74413144D02*
G75*
G02*
X42242658Y75413144I1000000J0D01*
G01*
X41242658Y64413144D02*
X41242658Y74413144D01*
X60242658Y18746477D02*
X62971312Y18746477D01*
X59242658Y23413144D02*
X59242658Y19746477D01*
X60242658Y18746477D02*
G75*
G02*
X59242658Y19746477I0J1000000D01*
G01*
X60242658Y69746477D02*
X94242658Y69746477D01*
X95242658Y6488211D02*
X95242658Y68746477D01*
X60315290Y106660D02*
X76736029Y-4293263D01*
X59608183Y1331405D02*
X63937238Y17487658D01*
X60315290Y106660D02*
G75*
G02*
X59608183Y1331405I258819J965926D01*
G01*
X76899828Y-4352881D02*
X92307060Y-11537392D01*
X93635987Y-11053703D02*
G75*
G02*
X92307060Y-11537392I-906308J422619D01*
G01*
X93635987Y-11053702D02*
X99975260Y2540914D01*
X99491572Y3869840D02*
G75*
G02*
X99975260Y2540914I-422619J-906307D01*
G01*
X99491571Y3869841D02*
X95820040Y5581903D01*
X23257169Y15153307D02*
G75*
G02*
X24135939Y16408321I965926J258819D01*
G01*
X41043227Y23325988D02*
G75*
G02*
X42039422Y24413144I996195J87156D01*
G01*
X58242658Y24413144D02*
G75*
G02*
X59242658Y23413144I0J-1000000D01*
G01*
X62971312Y18746477D02*
G75*
G02*
X63937238Y17487658I0J-1000000D01*
G01*
X76736029Y-4293263D02*
G75*
G02*
X76899828Y-4352881I-258819J-965926D01*
G01*
X95820040Y5581903D02*
G75*
G02*
X95242658Y6488211I422618J906308D01*
G01*
X94242658Y69746477D02*
G75*
G02*
X95242658Y68746477I0J-1000000D01*
G01*
X60242658Y69746477D02*
G75*
G02*
X59242658Y70746477I0J1000000D01*
G01*
X41242658Y64413144D02*
G75*
G02*
X40242658Y63413144I-1000000J0D01*
G01*
X38452387Y63413144D02*
G75*
G02*
X37456192Y64325988I0J1000000D01*
G01*
X-697768Y64426645D02*
G75*
G02*
X211271Y65509996I996195J87156D01*
G01*
X3174567Y31639376D02*
G75*
G02*
X2091216Y32548415I-87156J996195D01*
G01*
X4170761Y31726531D02*
G75*
G02*
X5254111Y30817493I87156J-996194D01*
G01*
X5850598Y23999623D02*
G75*
G02*
X5113222Y22946541I-996195J-87156D01*
G01*
M02*
