%TF.GenerationSoftware,KiCad,Pcbnew,(5.1.10)-1*%
%TF.CreationDate,2021-07-02T19:59:24+02:00*%
%TF.ProjectId,newidea,6e657769-6465-4612-9e6b-696361645f70,VERSION_HERE*%
%TF.SameCoordinates,Original*%
%TF.FileFunction,Legend,Top*%
%TF.FilePolarity,Positive*%
%FSLAX46Y46*%
G04 Gerber Fmt 4.6, Leading zero omitted, Abs format (unit mm)*
G04 Created by KiCad (PCBNEW (5.1.10)-1) date 2021-07-02 19:59:24*
%MOMM*%
%LPD*%
G01*
G04 APERTURE LIST*
%ADD10C,0.150000*%
G04 APERTURE END LIST*
D10*
%TO.C,C1*%
X14750701Y63971336D02*
X17281036Y64192711D01*
X14529326Y66501670D02*
X17059660Y66723046D01*
X14529326Y66501670D02*
X14750701Y63971336D01*
X16838285Y69253380D02*
X-874057Y67703751D01*
X19716167Y36359031D02*
X16838285Y69253380D01*
X2003826Y34809402D02*
X19716167Y36359031D01*
X-874057Y67703751D02*
X2003826Y34809402D01*
X12577175Y64692740D02*
X12278320Y65049001D01*
X12121771Y64652897D02*
X12052047Y65449853D01*
X12355649Y65476415D01*
X12434870Y65445105D01*
X12476140Y65410475D01*
X12520731Y65337894D01*
X12530692Y65224044D01*
X12499382Y65144823D01*
X12464752Y65103552D01*
X12392171Y65058962D01*
X12088569Y65032400D01*
X12860855Y64947003D02*
X13240358Y64980205D01*
X12804876Y64712661D02*
X13000804Y65532858D01*
X13336180Y64759144D01*
X13456207Y65572701D02*
X13715683Y64792346D01*
X13817681Y65374881D01*
X14019285Y64818908D01*
X14139312Y65632465D01*
X12675220Y62916431D02*
X12595999Y62947741D01*
X12482148Y62937780D01*
X12371618Y62889869D01*
X12302358Y62807328D01*
X12271048Y62728107D01*
X12246378Y62572986D01*
X12256339Y62459135D01*
X12307570Y62310654D01*
X12352161Y62238074D01*
X12434702Y62168814D01*
X12551873Y62140824D01*
X12627773Y62147465D01*
X12738304Y62195376D01*
X12772934Y62236646D01*
X12749692Y62502298D01*
X12597891Y62489017D01*
X13121127Y62190628D02*
X13051402Y62987583D01*
X13576530Y62230470D01*
X13506806Y63027426D01*
X13956033Y62263672D02*
X13886308Y63060628D01*
X14076060Y63077229D01*
X14193231Y63049240D01*
X14275772Y62979980D01*
X14320362Y62907399D01*
X14371594Y62758918D01*
X14381554Y62645067D01*
X14356885Y62489946D01*
X14325575Y62410725D01*
X14256315Y62328184D01*
X14145784Y62280273D01*
X13956033Y62263672D01*
X13133776Y59642031D02*
X12834922Y59998293D01*
X12678373Y59602189D02*
X12608649Y60399145D01*
X12912251Y60425706D01*
X12991472Y60394396D01*
X13032742Y60359766D01*
X13077333Y60287186D01*
X13087293Y60173335D01*
X13055984Y60094114D01*
X13021353Y60052844D01*
X12948773Y60008253D01*
X12645171Y59981691D01*
X13434058Y59706543D02*
X13551229Y59678554D01*
X13740981Y59695155D01*
X13813561Y59739746D01*
X13848191Y59781016D01*
X13879501Y59860237D01*
X13872861Y59936137D01*
X13828270Y60008718D01*
X13786999Y60043348D01*
X13707779Y60074658D01*
X13552657Y60099327D01*
X13473437Y60130637D01*
X13432166Y60165267D01*
X13387575Y60237847D01*
X13380935Y60313748D01*
X13412245Y60392969D01*
X13446875Y60434239D01*
X13519455Y60478830D01*
X13709206Y60495431D01*
X13826378Y60467441D01*
X14050759Y60525313D02*
X14506162Y60565155D01*
X14348185Y59748278D02*
X14278461Y60545234D01*
X12659248Y57853870D02*
X12994625Y57080155D01*
X13190552Y57900353D01*
X13974692Y57242382D02*
X13940061Y57201111D01*
X13829531Y57153200D01*
X13753630Y57146560D01*
X13636459Y57174549D01*
X13553918Y57243809D01*
X13509328Y57316390D01*
X13458096Y57464871D01*
X13448136Y57578721D01*
X13472805Y57733843D01*
X13504115Y57813064D01*
X13573375Y57895605D01*
X13683906Y57943515D01*
X13759806Y57950156D01*
X13876977Y57922166D01*
X13918248Y57887536D01*
X14771647Y57312106D02*
X14737017Y57270836D01*
X14626487Y57222925D01*
X14550586Y57216284D01*
X14433415Y57244274D01*
X14350874Y57313534D01*
X14306283Y57386114D01*
X14255052Y57534595D01*
X14245092Y57648446D01*
X14269761Y57803567D01*
X14301071Y57882788D01*
X14370331Y57965329D01*
X14480861Y58013240D01*
X14556762Y58019880D01*
X14673933Y57991891D01*
X14715204Y57957261D01*
X13045224Y54534879D02*
X12975499Y55331835D01*
X13279101Y55358397D01*
X13358322Y55327087D01*
X13399592Y55292457D01*
X13444183Y55219877D01*
X13454144Y55106026D01*
X13422834Y55026805D01*
X13388204Y54985535D01*
X13315624Y54940944D01*
X13012021Y54914382D01*
X13741145Y55322339D02*
X13775775Y55363609D01*
X13848355Y55408200D01*
X14038107Y55424801D01*
X14117327Y55393491D01*
X14158598Y55358861D01*
X14203189Y55286281D01*
X14209829Y55210380D01*
X14181839Y55093209D01*
X13766279Y54597963D01*
X14259632Y54641126D01*
X15018638Y54707531D02*
X14563235Y54667688D01*
X14790936Y54687609D02*
X14721212Y55484565D01*
X14655272Y55364074D01*
X14586012Y55281533D01*
X14513431Y55236942D01*
X13266600Y52004545D02*
X13196875Y52801501D01*
X13500477Y52828063D01*
X13579698Y52796753D01*
X13620968Y52762123D01*
X13665559Y52689543D01*
X13675520Y52575692D01*
X13644210Y52496471D01*
X13609580Y52455201D01*
X13537000Y52410610D01*
X13233397Y52384048D01*
X13962521Y52792005D02*
X13997151Y52833275D01*
X14069731Y52877866D01*
X14259483Y52894467D01*
X14338703Y52863157D01*
X14379974Y52828527D01*
X14424565Y52755947D01*
X14431205Y52680046D01*
X14403215Y52562875D01*
X13987655Y52067629D01*
X14481008Y52110792D01*
X14904637Y52950911D02*
X14980538Y52957551D01*
X15059759Y52926242D01*
X15101029Y52891611D01*
X15145620Y52819031D01*
X15196851Y52670550D01*
X15213452Y52480799D01*
X15188783Y52325678D01*
X15157473Y52246457D01*
X15122843Y52205186D01*
X15050262Y52160596D01*
X14974362Y52153955D01*
X14895141Y52185265D01*
X14853871Y52219895D01*
X14809280Y52292475D01*
X14758049Y52440956D01*
X14741448Y52630708D01*
X14766117Y52785829D01*
X14797427Y52865050D01*
X14832057Y52906320D01*
X14904637Y52950911D01*
X13487975Y49474210D02*
X13418250Y50271166D01*
X13721852Y50297728D01*
X13801073Y50266418D01*
X13842343Y50231788D01*
X13886934Y50159208D01*
X13896895Y50045357D01*
X13865585Y49966136D01*
X13830955Y49924866D01*
X13758375Y49880275D01*
X13454772Y49853713D01*
X14702383Y49580457D02*
X14246980Y49540615D01*
X14474682Y49560536D02*
X14404957Y50357492D01*
X14339017Y50237001D01*
X14269757Y50154460D01*
X14197177Y50109869D01*
X15081886Y49613660D02*
X15233687Y49626940D01*
X15306268Y49671531D01*
X15340898Y49712802D01*
X15406837Y49833293D01*
X15431507Y49988414D01*
X15404945Y50292016D01*
X15360354Y50364597D01*
X15319084Y50399227D01*
X15239863Y50430537D01*
X15088062Y50417256D01*
X15015482Y50372665D01*
X14980852Y50331394D01*
X14949542Y50252174D01*
X14966143Y50062422D01*
X15010734Y49989842D01*
X15052004Y49955212D01*
X15131225Y49923902D01*
X15283026Y49937183D01*
X15355606Y49981774D01*
X15390236Y50023044D01*
X15421546Y50102265D01*
X13709351Y46943876D02*
X13639626Y47740832D01*
X13943228Y47767394D01*
X14022449Y47736084D01*
X14063719Y47701454D01*
X14108310Y47628874D01*
X14118271Y47515023D01*
X14086961Y47435802D01*
X14052331Y47394532D01*
X13979751Y47349941D01*
X13676148Y47323379D01*
X14923759Y47050123D02*
X14468356Y47010281D01*
X14696058Y47030202D02*
X14626333Y47827158D01*
X14560393Y47706667D01*
X14491133Y47624126D01*
X14418553Y47579535D01*
X15339320Y47545369D02*
X15260099Y47576679D01*
X15218829Y47611309D01*
X15174238Y47683889D01*
X15170918Y47721840D01*
X15202228Y47801060D01*
X15236858Y47842331D01*
X15309438Y47886922D01*
X15461239Y47900203D01*
X15540460Y47868893D01*
X15581730Y47834263D01*
X15626321Y47761682D01*
X15629641Y47723732D01*
X15598332Y47644511D01*
X15563701Y47603241D01*
X15491121Y47558650D01*
X15339320Y47545369D01*
X15266740Y47500779D01*
X15232110Y47459508D01*
X15200800Y47380287D01*
X15214081Y47228486D01*
X15258671Y47155906D01*
X15299942Y47121276D01*
X15379163Y47089966D01*
X15530964Y47103247D01*
X15603544Y47147838D01*
X15638174Y47189108D01*
X15669484Y47268329D01*
X15656203Y47420130D01*
X15611612Y47492710D01*
X15570342Y47527340D01*
X15491121Y47558650D01*
X13930727Y44413541D02*
X13861002Y45210497D01*
X14164604Y45237059D01*
X14243825Y45205749D01*
X14285095Y45171119D01*
X14329686Y45098539D01*
X14339647Y44984688D01*
X14308337Y44905467D01*
X14273707Y44864197D01*
X14201127Y44819606D01*
X13897524Y44793044D01*
X15145135Y44519788D02*
X14689732Y44479946D01*
X14917434Y44499867D02*
X14847709Y45296823D01*
X14781769Y45176332D01*
X14712509Y45093791D01*
X14639929Y45049200D01*
X15796466Y45379828D02*
X15416963Y45346626D01*
X15412215Y44963803D01*
X15446845Y45005074D01*
X15519426Y45049664D01*
X15709177Y45066265D01*
X15788398Y45034956D01*
X15829668Y45000325D01*
X15874259Y44927745D01*
X15890860Y44737994D01*
X15859550Y44658773D01*
X15824920Y44617503D01*
X15752340Y44572912D01*
X15562588Y44556311D01*
X15483368Y44587621D01*
X15442097Y44622251D01*
X14152102Y41883207D02*
X14082377Y42680163D01*
X14385979Y42706725D01*
X14465200Y42675415D01*
X14506470Y42640785D01*
X14551061Y42568205D01*
X14561022Y42454354D01*
X14529712Y42375133D01*
X14495082Y42333863D01*
X14422502Y42289272D01*
X14118899Y42262710D01*
X15366510Y41989454D02*
X14911107Y41949612D01*
X15138809Y41969533D02*
X15069084Y42766489D01*
X15003144Y42645998D01*
X14933884Y42563457D01*
X14861304Y42518866D01*
X16003132Y42580522D02*
X16049615Y42049218D01*
X15786819Y42867523D02*
X15646871Y42281668D01*
X16140225Y42324831D01*
X14373478Y39352872D02*
X14303753Y40149828D01*
X14607355Y40176390D01*
X14686576Y40145080D01*
X14727846Y40110450D01*
X14772437Y40037870D01*
X14782398Y39924019D01*
X14751088Y39844798D01*
X14716458Y39803528D01*
X14643878Y39758937D01*
X14340275Y39732375D01*
X15587886Y39459119D02*
X15132483Y39419277D01*
X15360185Y39439198D02*
X15290460Y40236154D01*
X15224520Y40115663D01*
X15155260Y40033122D01*
X15082680Y39988531D01*
X16201267Y40315839D02*
X16049466Y40302558D01*
X15976885Y40257967D01*
X15942255Y40216697D01*
X15876315Y40096206D01*
X15851646Y39941084D01*
X15878208Y39637482D01*
X15922798Y39564902D01*
X15964069Y39530272D01*
X16043290Y39498962D01*
X16195091Y39512243D01*
X16267671Y39556834D01*
X16302301Y39598104D01*
X16333611Y39677325D01*
X16317010Y39867076D01*
X16272419Y39939656D01*
X16231149Y39974287D01*
X16151928Y40005596D01*
X16000127Y39992316D01*
X15927546Y39947725D01*
X15892916Y39906454D01*
X15861607Y39827234D01*
X14594853Y36822538D02*
X14525128Y37619494D01*
X14828730Y37646056D01*
X14907951Y37614746D01*
X14949221Y37580116D01*
X14993812Y37507536D01*
X15003773Y37393685D01*
X14972463Y37314464D01*
X14937833Y37273194D01*
X14865253Y37228603D01*
X14561650Y37202041D01*
X15809261Y36928785D02*
X15353858Y36888943D01*
X15581560Y36908864D02*
X15511835Y37705820D01*
X15445895Y37585329D01*
X15376635Y37502788D01*
X15304055Y37458197D01*
X16232890Y37768904D02*
X16308791Y37775544D01*
X16388012Y37744235D01*
X16429282Y37709604D01*
X16473873Y37637024D01*
X16525104Y37488543D01*
X16541705Y37298792D01*
X16517036Y37143671D01*
X16485726Y37064450D01*
X16451096Y37023179D01*
X16378515Y36978589D01*
X16302615Y36971948D01*
X16223394Y37003258D01*
X16182124Y37037888D01*
X16137533Y37110468D01*
X16086302Y37258949D01*
X16069701Y37448701D01*
X16094370Y37603822D01*
X16125680Y37683043D01*
X16160310Y37724313D01*
X16232890Y37768904D01*
X2596253Y63819522D02*
X2526528Y64616478D01*
X2830130Y64643040D01*
X2909351Y64611730D01*
X2950621Y64577100D01*
X2995212Y64504520D01*
X3005173Y64390669D01*
X2973863Y64311448D01*
X2939233Y64270178D01*
X2866653Y64225587D01*
X2563050Y64199025D01*
X3475285Y64699484D02*
X3551185Y64706124D01*
X3630406Y64674814D01*
X3671677Y64640184D01*
X3716267Y64567604D01*
X3767499Y64419123D01*
X3784100Y64229372D01*
X3759430Y64074250D01*
X3728120Y63995029D01*
X3693490Y63953759D01*
X3620910Y63909168D01*
X3545009Y63902528D01*
X3465789Y63933838D01*
X3424518Y63968468D01*
X3379927Y64041048D01*
X3328696Y64189529D01*
X3312095Y64379280D01*
X3336765Y64534402D01*
X3368074Y64613622D01*
X3402705Y64654893D01*
X3475285Y64699484D01*
X4569667Y63992174D02*
X4114264Y63952331D01*
X4341965Y63972252D02*
X4272241Y64769208D01*
X4206301Y64648717D01*
X4137041Y64566176D01*
X4064460Y64521585D01*
X2817628Y61289188D02*
X2747903Y62086144D01*
X3051505Y62112706D01*
X3130726Y62081396D01*
X3171996Y62046766D01*
X3216587Y61974186D01*
X3226548Y61860335D01*
X3195238Y61781114D01*
X3160608Y61739844D01*
X3088028Y61695253D01*
X2784425Y61668691D01*
X3696660Y62169150D02*
X3772560Y62175790D01*
X3851781Y62144480D01*
X3893052Y62109850D01*
X3937642Y62037270D01*
X3988874Y61888789D01*
X4005475Y61699038D01*
X3980805Y61543916D01*
X3949495Y61464695D01*
X3914865Y61423425D01*
X3842285Y61378834D01*
X3766384Y61372194D01*
X3687164Y61403504D01*
X3645893Y61438134D01*
X3601302Y61510714D01*
X3550071Y61659195D01*
X3533470Y61848946D01*
X3558140Y62004068D01*
X3589449Y62083288D01*
X3624080Y62124559D01*
X3696660Y62169150D01*
X4455665Y62235554D02*
X4531566Y62242194D01*
X4610787Y62210885D01*
X4652057Y62176254D01*
X4696648Y62103674D01*
X4747879Y61955193D01*
X4764480Y61765442D01*
X4739811Y61610321D01*
X4708501Y61531100D01*
X4673871Y61489829D01*
X4601290Y61445239D01*
X4525390Y61438598D01*
X4446169Y61469908D01*
X4404899Y61504538D01*
X4360308Y61577118D01*
X4309077Y61725599D01*
X4292476Y61915351D01*
X4317145Y62070472D01*
X4348455Y62149693D01*
X4383085Y62190963D01*
X4455665Y62235554D01*
X3333127Y59549401D02*
X3253906Y59580711D01*
X3140055Y59570750D01*
X3029525Y59522839D01*
X2960265Y59440298D01*
X2928955Y59361077D01*
X2904285Y59205956D01*
X2914246Y59092105D01*
X2965477Y58943624D01*
X3010068Y58871044D01*
X3092609Y58801784D01*
X3209780Y58773794D01*
X3285680Y58780435D01*
X3396211Y58828346D01*
X3430841Y58869616D01*
X3407599Y59135268D01*
X3255798Y59121987D01*
X3779034Y58823598D02*
X3709309Y59620553D01*
X4234437Y58863440D01*
X4164713Y59660396D01*
X4613940Y58896642D02*
X4544215Y59693598D01*
X4733967Y59710199D01*
X4851138Y59682210D01*
X4933679Y59612950D01*
X4978269Y59540369D01*
X5029501Y59391888D01*
X5039461Y59278037D01*
X5014792Y59122916D01*
X4983482Y59043695D01*
X4914222Y58961154D01*
X4803691Y58913243D01*
X4613940Y58896642D01*
X3554502Y57019067D02*
X3475281Y57050377D01*
X3361430Y57040416D01*
X3250900Y56992505D01*
X3181640Y56909964D01*
X3150330Y56830743D01*
X3125660Y56675622D01*
X3135621Y56561771D01*
X3186852Y56413290D01*
X3231443Y56340710D01*
X3313984Y56271450D01*
X3431155Y56243460D01*
X3507055Y56250101D01*
X3617586Y56298012D01*
X3652216Y56339282D01*
X3628974Y56604934D01*
X3477173Y56591653D01*
X4000409Y56293264D02*
X3930684Y57090219D01*
X4455812Y56333106D01*
X4386088Y57130062D01*
X4835315Y56366308D02*
X4765590Y57163264D01*
X4955342Y57179865D01*
X5072513Y57151876D01*
X5155054Y57082616D01*
X5199644Y57010035D01*
X5250876Y56861554D01*
X5260836Y56747703D01*
X5236167Y56592582D01*
X5204857Y56513361D01*
X5135597Y56430820D01*
X5025066Y56382909D01*
X4835315Y56366308D01*
X3481755Y53698184D02*
X3412030Y54495140D01*
X3715632Y54521702D01*
X3794853Y54490392D01*
X3836123Y54455762D01*
X3880714Y54383182D01*
X3890675Y54269331D01*
X3859365Y54190110D01*
X3824735Y54148840D01*
X3752155Y54104249D01*
X3448552Y54077687D01*
X4360787Y54578146D02*
X4436687Y54584786D01*
X4515908Y54553476D01*
X4557179Y54518846D01*
X4601769Y54446266D01*
X4653001Y54297785D01*
X4669602Y54108034D01*
X4644932Y53952912D01*
X4613622Y53873691D01*
X4578992Y53832421D01*
X4506412Y53787830D01*
X4430511Y53781190D01*
X4351291Y53812500D01*
X4310020Y53847130D01*
X4265429Y53919710D01*
X4214198Y54068191D01*
X4197597Y54257942D01*
X4222267Y54413064D01*
X4253576Y54492284D01*
X4288207Y54533555D01*
X4360787Y54578146D01*
X4936681Y54552048D02*
X4971311Y54593319D01*
X5043892Y54637909D01*
X5233643Y54654511D01*
X5312864Y54623201D01*
X5354134Y54588571D01*
X5398725Y54515990D01*
X5405366Y54440090D01*
X5377376Y54322919D01*
X4961815Y53827673D01*
X5455169Y53870836D01*
X3703131Y51167850D02*
X3633406Y51964806D01*
X3937008Y51991368D01*
X4016229Y51960058D01*
X4057499Y51925428D01*
X4102090Y51852848D01*
X4112051Y51738997D01*
X4080741Y51659776D01*
X4046111Y51618506D01*
X3973531Y51573915D01*
X3669928Y51547353D01*
X4582163Y52047812D02*
X4658063Y52054452D01*
X4737284Y52023142D01*
X4778555Y51988512D01*
X4823145Y51915932D01*
X4874377Y51767451D01*
X4890978Y51577700D01*
X4866308Y51422578D01*
X4834998Y51343357D01*
X4800368Y51302087D01*
X4727788Y51257496D01*
X4651887Y51250856D01*
X4572667Y51282166D01*
X4531396Y51316796D01*
X4486805Y51389376D01*
X4435574Y51537857D01*
X4418973Y51727608D01*
X4443643Y51882730D01*
X4474952Y51961950D01*
X4509583Y52003221D01*
X4582163Y52047812D01*
X5113467Y52094295D02*
X5606820Y52137457D01*
X5367730Y51810614D01*
X5481581Y51820574D01*
X5560802Y51789265D01*
X5602072Y51754634D01*
X5646663Y51682054D01*
X5663264Y51492303D01*
X5631954Y51413082D01*
X5597324Y51371812D01*
X5524744Y51327221D01*
X5297042Y51307300D01*
X5217821Y51338609D01*
X5176551Y51373239D01*
X3924506Y48637515D02*
X3854781Y49434471D01*
X4158383Y49461033D01*
X4237604Y49429723D01*
X4278874Y49395093D01*
X4323465Y49322513D01*
X4333426Y49208662D01*
X4302116Y49129441D01*
X4267486Y49088171D01*
X4194906Y49043580D01*
X3891303Y49017018D01*
X4803538Y49517477D02*
X4879438Y49524117D01*
X4958659Y49492807D01*
X4999930Y49458177D01*
X5044520Y49385597D01*
X5095752Y49237116D01*
X5112353Y49047365D01*
X5087683Y48892243D01*
X5056373Y48813022D01*
X5021743Y48771752D01*
X4949163Y48727161D01*
X4873262Y48720521D01*
X4794042Y48751831D01*
X4752771Y48786461D01*
X4708180Y48859041D01*
X4656949Y49007522D01*
X4640348Y49197273D01*
X4665018Y49352395D01*
X4696327Y49431615D01*
X4730958Y49472886D01*
X4803538Y49517477D01*
X5775536Y49334830D02*
X5822019Y48803526D01*
X5559223Y49621831D02*
X5419275Y49035976D01*
X5912629Y49079139D01*
X4145882Y46107181D02*
X4076157Y46904137D01*
X4379759Y46930699D01*
X4458980Y46899389D01*
X4500250Y46864759D01*
X4544841Y46792179D01*
X4554802Y46678328D01*
X4523492Y46599107D01*
X4488862Y46557837D01*
X4416282Y46513246D01*
X4112679Y46486684D01*
X5024914Y46987143D02*
X5100814Y46993783D01*
X5180035Y46962473D01*
X5221306Y46927843D01*
X5265896Y46855263D01*
X5317128Y46706782D01*
X5333729Y46517031D01*
X5309059Y46361909D01*
X5277749Y46282688D01*
X5243119Y46241418D01*
X5170539Y46196827D01*
X5094638Y46190187D01*
X5015418Y46221497D01*
X4974147Y46256127D01*
X4929556Y46328707D01*
X4878325Y46477188D01*
X4861724Y46666939D01*
X4886394Y46822061D01*
X4917703Y46901281D01*
X4952334Y46942552D01*
X5024914Y46987143D01*
X6011621Y47073468D02*
X5632118Y47040266D01*
X5627370Y46657443D01*
X5662000Y46698714D01*
X5734581Y46743304D01*
X5924332Y46759905D01*
X6003553Y46728596D01*
X6044823Y46693965D01*
X6089414Y46621385D01*
X6106015Y46431634D01*
X6074705Y46352413D01*
X6040075Y46311143D01*
X5967495Y46266552D01*
X5777743Y46249951D01*
X5698523Y46281261D01*
X5657252Y46315891D01*
X4367257Y43576846D02*
X4297532Y44373802D01*
X4601134Y44400364D01*
X4680355Y44369054D01*
X4721625Y44334424D01*
X4766216Y44261844D01*
X4776177Y44147993D01*
X4744867Y44068772D01*
X4710237Y44027502D01*
X4637657Y43982911D01*
X4334054Y43956349D01*
X5246289Y44456808D02*
X5322189Y44463448D01*
X5401410Y44432138D01*
X5442681Y44397508D01*
X5487271Y44324928D01*
X5538503Y44176447D01*
X5555104Y43986696D01*
X5530434Y43831574D01*
X5499124Y43752353D01*
X5464494Y43711083D01*
X5391914Y43666492D01*
X5316013Y43659852D01*
X5236793Y43691162D01*
X5195522Y43725792D01*
X5150931Y43798372D01*
X5099700Y43946853D01*
X5083099Y44136604D01*
X5107769Y44291726D01*
X5139078Y44370946D01*
X5173709Y44412217D01*
X5246289Y44456808D01*
X6195046Y44539813D02*
X6043245Y44526532D01*
X5970664Y44481941D01*
X5936034Y44440671D01*
X5870094Y44320180D01*
X5845425Y44165058D01*
X5871987Y43861456D01*
X5916577Y43788876D01*
X5957848Y43754246D01*
X6037069Y43722936D01*
X6188870Y43736217D01*
X6261450Y43780808D01*
X6296080Y43822078D01*
X6327390Y43901299D01*
X6310789Y44091050D01*
X6266198Y44163630D01*
X6224928Y44198261D01*
X6145707Y44229570D01*
X5993906Y44216290D01*
X5921325Y44171699D01*
X5886695Y44130428D01*
X5855386Y44051208D01*
X4588633Y41046512D02*
X4518908Y41843468D01*
X4822510Y41870030D01*
X4901731Y41838720D01*
X4943001Y41804090D01*
X4987592Y41731510D01*
X4997553Y41617659D01*
X4966243Y41538438D01*
X4931613Y41497168D01*
X4859033Y41452577D01*
X4555430Y41426015D01*
X5467665Y41926474D02*
X5543565Y41933114D01*
X5622786Y41901804D01*
X5664057Y41867174D01*
X5708647Y41794594D01*
X5759879Y41646113D01*
X5776480Y41456362D01*
X5751810Y41301240D01*
X5720500Y41222019D01*
X5685870Y41180749D01*
X5613290Y41136158D01*
X5537389Y41129518D01*
X5458169Y41160828D01*
X5416898Y41195458D01*
X5372307Y41268038D01*
X5321076Y41416519D01*
X5304475Y41606270D01*
X5329145Y41761392D01*
X5360454Y41840612D01*
X5395085Y41881883D01*
X5467665Y41926474D01*
X5998969Y41972957D02*
X6530273Y42019440D01*
X6258445Y41192602D01*
X4810009Y38516177D02*
X4740284Y39313133D01*
X5043886Y39339695D01*
X5123107Y39308385D01*
X5164377Y39273755D01*
X5208968Y39201175D01*
X5218929Y39087324D01*
X5187619Y39008103D01*
X5152989Y38966833D01*
X5080409Y38922242D01*
X4776806Y38895680D01*
X5689041Y39396139D02*
X5764941Y39402779D01*
X5844162Y39371469D01*
X5885433Y39336839D01*
X5930023Y39264259D01*
X5981255Y39115778D01*
X5997856Y38926027D01*
X5973186Y38770905D01*
X5941876Y38691684D01*
X5907246Y38650414D01*
X5834666Y38605823D01*
X5758765Y38599183D01*
X5679545Y38630493D01*
X5638274Y38665123D01*
X5593683Y38737703D01*
X5542452Y38886184D01*
X5525851Y39075935D01*
X5550521Y39231057D01*
X5581830Y39310277D01*
X5616461Y39351548D01*
X5689041Y39396139D01*
X6439978Y39117670D02*
X6360757Y39148980D01*
X6319487Y39183610D01*
X6274896Y39256190D01*
X6271576Y39294141D01*
X6302886Y39373361D01*
X6337516Y39414632D01*
X6410096Y39459223D01*
X6561897Y39472504D01*
X6641118Y39441194D01*
X6682388Y39406564D01*
X6726979Y39333983D01*
X6730299Y39296033D01*
X6698990Y39216812D01*
X6664359Y39175542D01*
X6591779Y39130951D01*
X6439978Y39117670D01*
X6367398Y39073080D01*
X6332768Y39031809D01*
X6301458Y38952588D01*
X6314739Y38800787D01*
X6359329Y38728207D01*
X6400600Y38693577D01*
X6479821Y38662267D01*
X6631622Y38675548D01*
X6704202Y38720139D01*
X6738832Y38761409D01*
X6770142Y38840630D01*
X6756861Y38992431D01*
X6712270Y39065011D01*
X6671000Y39099641D01*
X6591779Y39130951D01*
X5031384Y35985843D02*
X4961659Y36782799D01*
X5265261Y36809361D01*
X5344482Y36778051D01*
X5385752Y36743421D01*
X5430343Y36670841D01*
X5440304Y36556990D01*
X5408994Y36477769D01*
X5374364Y36436499D01*
X5301784Y36391908D01*
X4998181Y36365346D01*
X5910416Y36865805D02*
X5986316Y36872445D01*
X6065537Y36841135D01*
X6106808Y36806505D01*
X6151398Y36733925D01*
X6202630Y36585444D01*
X6219231Y36395693D01*
X6194561Y36240571D01*
X6163251Y36161350D01*
X6128621Y36120080D01*
X6056041Y36075489D01*
X5980140Y36068849D01*
X5900920Y36100159D01*
X5859649Y36134789D01*
X5815058Y36207369D01*
X5763827Y36355850D01*
X5747226Y36545601D01*
X5771896Y36700723D01*
X5803205Y36779943D01*
X5837836Y36821214D01*
X5910416Y36865805D01*
X6625295Y36125293D02*
X6777096Y36138573D01*
X6849677Y36183164D01*
X6884307Y36224435D01*
X6950246Y36344926D01*
X6974916Y36500047D01*
X6948354Y36803649D01*
X6903763Y36876230D01*
X6862493Y36910860D01*
X6783272Y36942170D01*
X6631471Y36928889D01*
X6558891Y36884298D01*
X6524261Y36843027D01*
X6492951Y36763807D01*
X6509552Y36574055D01*
X6554143Y36501475D01*
X6595413Y36466845D01*
X6674634Y36435535D01*
X6826435Y36448816D01*
X6899015Y36493407D01*
X6933645Y36534677D01*
X6964955Y36613898D01*
%TD*%
M02*
