%TF.GenerationSoftware,KiCad,Pcbnew,(5.1.9)-1*%
%TF.CreationDate,2021-04-26T16:03:13+02:00*%
%TF.ProjectId,sepia,73657069-612e-46b6-9963-61645f706362,VERSION_HERE*%
%TF.SameCoordinates,Original*%
%TF.FileFunction,Legend,Top*%
%TF.FilePolarity,Positive*%
%FSLAX46Y46*%
G04 Gerber Fmt 4.6, Leading zero omitted, Abs format (unit mm)*
G04 Created by KiCad (PCBNEW (5.1.9)-1) date 2021-04-26 16:03:13*
%MOMM*%
%LPD*%
G01*
G04 APERTURE LIST*
%ADD10C,0.381000*%
%ADD11C,0.150000*%
G04 APERTURE END LIST*
D10*
%TO.C,*%
X130488180Y-63651713D02*
X130488180Y-66191713D01*
X130488180Y-66191713D02*
X127948180Y-66191713D01*
D11*
X141890560Y-65682189D02*
X141414370Y-66015522D01*
X141890560Y-66253617D02*
X140890560Y-66253617D01*
X140890560Y-65872665D01*
X140938180Y-65777427D01*
X140985799Y-65729808D01*
X141081037Y-65682189D01*
X141223894Y-65682189D01*
X141319132Y-65729808D01*
X141366751Y-65777427D01*
X141414370Y-65872665D01*
X141414370Y-66253617D01*
X141604846Y-65301236D02*
X141604846Y-64825046D01*
X141890560Y-65396474D02*
X140890560Y-65063141D01*
X141890560Y-64729808D01*
X140890560Y-64491713D02*
X141890560Y-64253617D01*
X141176275Y-64063141D01*
X141890560Y-63872665D01*
X140890560Y-63634570D01*
X131790560Y-66229808D02*
X131790560Y-65658379D01*
X132790560Y-65944093D02*
X131790560Y-65944093D01*
X131790560Y-65420284D02*
X132790560Y-64753617D01*
X131790560Y-64753617D02*
X132790560Y-65420284D01*
X131790560Y-64182189D02*
X131790560Y-64086951D01*
X131838180Y-63991713D01*
X131885799Y-63944093D01*
X131981037Y-63896474D01*
X132171513Y-63848855D01*
X132409608Y-63848855D01*
X132600084Y-63896474D01*
X132695322Y-63944093D01*
X132742941Y-63991713D01*
X132790560Y-64086951D01*
X132790560Y-64182189D01*
X132742941Y-64277427D01*
X132695322Y-64325046D01*
X132600084Y-64372665D01*
X132409608Y-64420284D01*
X132171513Y-64420284D01*
X131981037Y-64372665D01*
X131885799Y-64325046D01*
X131838180Y-64277427D01*
X131790560Y-64182189D01*
%TD*%
M02*
