%TF.GenerationSoftware,KiCad,Pcbnew,(5.1.9)-1*%
%TF.CreationDate,2021-04-26T15:19:46+02:00*%
%TF.ProjectId,sepia,73657069-612e-46b6-9963-61645f706362,VERSION_HERE*%
%TF.SameCoordinates,Original*%
%TF.FileFunction,Paste,Top*%
%TF.FilePolarity,Positive*%
%FSLAX46Y46*%
G04 Gerber Fmt 4.6, Leading zero omitted, Abs format (unit mm)*
G04 Created by KiCad (PCBNEW (5.1.9)-1) date 2021-04-26 15:19:46*
%MOMM*%
%LPD*%
G01*
G04 APERTURE LIST*
%ADD10C,0.150000*%
%ADD11R,2.600000X2.600000*%
G04 APERTURE END LIST*
D10*
%TO.C,S1*%
G36*
X47308949Y-96738343D02*
G01*
X46636020Y-94226936D01*
X49147427Y-93554007D01*
X49820356Y-96065414D01*
X47308949Y-96738343D01*
G37*
G36*
X36721907Y-101852740D02*
G01*
X36048978Y-99341333D01*
X38560385Y-98668404D01*
X39233314Y-101179811D01*
X36721907Y-101852740D01*
G37*
%TD*%
%TO.C,S2*%
G36*
X42909025Y-80317604D02*
G01*
X42236096Y-77806197D01*
X44747503Y-77133268D01*
X45420432Y-79644675D01*
X42909025Y-80317604D01*
G37*
G36*
X32321983Y-85432001D02*
G01*
X31649054Y-82920594D01*
X34160461Y-82247665D01*
X34833390Y-84759072D01*
X32321983Y-85432001D01*
G37*
%TD*%
D11*
%TO.C,S3*%
X66113180Y-69441713D03*
X54563180Y-71641713D03*
%TD*%
%TO.C,S4*%
X66113180Y-52441713D03*
X54563180Y-54641713D03*
%TD*%
%TO.C,S5*%
X66113180Y-35441713D03*
X54563180Y-37641713D03*
%TD*%
%TO.C,S6*%
X84113180Y-60941713D03*
X72563180Y-63141713D03*
%TD*%
%TO.C,S7*%
X84113180Y-43941713D03*
X72563180Y-46141713D03*
%TD*%
%TO.C,S8*%
X84113180Y-26941713D03*
X72563180Y-29141713D03*
%TD*%
%TO.C,S9*%
X102113180Y-69441713D03*
X90563180Y-71641713D03*
%TD*%
%TO.C,S10*%
X102113180Y-52441713D03*
X90563180Y-54641713D03*
%TD*%
%TO.C,S11*%
X102113180Y-35441713D03*
X90563180Y-37641713D03*
%TD*%
%TO.C,S12*%
X120113180Y-77941713D03*
X108563180Y-80141713D03*
%TD*%
%TO.C,S13*%
X120113180Y-60941713D03*
X108563180Y-63141713D03*
%TD*%
%TO.C,S14*%
X120113180Y-43941713D03*
X108563180Y-46141713D03*
%TD*%
D10*
%TO.C,S15*%
G36*
X106449392Y-101161326D02*
G01*
X107122321Y-98649919D01*
X109633728Y-99322848D01*
X108960799Y-101834255D01*
X106449392Y-101161326D01*
G37*
G36*
X94723547Y-100297003D02*
G01*
X95396476Y-97785596D01*
X97907883Y-98458525D01*
X97234954Y-100969932D01*
X94723547Y-100297003D01*
G37*
%TD*%
%TO.C,S16*%
G36*
X123836057Y-105820069D02*
G01*
X124508986Y-103308662D01*
X127020393Y-103981591D01*
X126347464Y-106492998D01*
X123836057Y-105820069D01*
G37*
G36*
X112110212Y-104955746D02*
G01*
X112783141Y-102444339D01*
X115294548Y-103117268D01*
X114621619Y-105628675D01*
X112110212Y-104955746D01*
G37*
%TD*%
%TO.C,S17*%
G36*
X141222722Y-110478812D02*
G01*
X141895651Y-107967405D01*
X144407058Y-108640334D01*
X143734129Y-111151741D01*
X141222722Y-110478812D01*
G37*
G36*
X129496877Y-109614489D02*
G01*
X130169806Y-107103082D01*
X132681213Y-107776011D01*
X132008284Y-110287418D01*
X129496877Y-109614489D01*
G37*
%TD*%
M02*
