M48
; DRILL file {KiCad (5.1.9)-1} date 04/26/21 16:03:15
; FORMAT={-:-/ absolute / inch / decimal}
; #@! TF.CreationDate,2021-04-26T16:03:15+02:00
; #@! TF.GenerationSoftware,Kicad,Pcbnew,(5.1.9)-1
FMAT,2
INCH
T1C0.0118
T2C0.0354
T3C0.0430
T4C0.0591
T5C0.0670
T6C0.1181
T7C0.1350
%
G90
G05
T1
X1.575Y-3.0358
X1.7049Y-3.5207
X1.7482Y-3.6823
X1.8781Y-4.1672
X2.4739Y-1.2949
X2.4739Y-1.7969
X2.4739Y-1.9642
X2.4739Y-2.4662
X2.4739Y-2.6335
X2.4739Y-3.1355
X3.1826Y-0.9603
X3.1826Y-1.4623
X3.1826Y-1.6296
X3.1826Y-2.1316
X3.1826Y-2.2989
X3.1826Y-2.8009
X3.8913Y-1.2949
X3.8913Y-1.7969
X3.8913Y-1.9642
X3.8913Y-2.4662
X3.8913Y-2.6335
X3.8913Y-3.1355
X4.0251Y-4.3011
X4.155Y-3.8162
X4.5999Y-1.6296
X4.5999Y-2.1316
X4.5999Y-2.2989
X4.5999Y-2.8009
X4.5999Y-2.9682
X4.5999Y-3.4701
X4.7096Y-4.4845
X4.8396Y-3.9996
X5.3942Y-4.6679
X5.5241Y-4.183
T3
X5.0873Y-2.556
X5.0873Y-2.656
X5.0873Y-2.756
X5.0873Y-2.856
X5.0873Y-2.956
X5.0873Y-3.056
X5.0873Y-3.156
X5.0873Y-3.256
X5.0873Y-3.356
X5.0873Y-3.456
X5.0873Y-3.556
X5.0873Y-3.656
X5.6873Y-2.556
X5.6873Y-2.656
X5.6873Y-2.756
X5.6873Y-2.856
X5.6873Y-2.956
X5.6873Y-3.056
X5.6873Y-3.156
X5.6873Y-3.256
X5.6873Y-3.356
X5.6873Y-3.456
X5.6873Y-3.556
X5.6873Y-3.656
T4
X5.4103Y-3.8878
X5.4103Y-3.8878
X5.6859Y-3.8878
T5
X1.4525Y-3.4151
X1.6257Y-4.0616
X1.8708Y-3.303
X2.044Y-3.9495
X2.2574Y-1.6296
X2.2574Y-2.2989
X2.2574Y-2.9682
X2.6905Y-1.6296
X2.6905Y-2.2989
X2.6905Y-2.9682
X2.9661Y-1.2949
X2.9661Y-1.9642
X2.9661Y-2.6335
X3.3991Y-1.2949
X3.3991Y-1.9642
X3.3991Y-2.6335
X3.6747Y-1.6296
X3.6747Y-2.2989
X3.6747Y-2.9682
X3.8593Y-4.0834
X4.1078Y-1.6296
X4.1078Y-2.2989
X4.1078Y-2.9682
X4.2776Y-4.1955
X4.3834Y-1.9642
X4.3834Y-2.6335
X4.3834Y-3.3028
X4.5438Y-4.2668
X4.8165Y-1.9642
X4.8165Y-2.6335
X4.8165Y-3.3028
X4.9621Y-4.3789
X5.2283Y-4.4502
X5.6466Y-4.5623
T6
X1.4333Y-3.2674
X1.601Y-3.1328
X1.6065Y-3.9139
X1.7742Y-3.7793
X1.8135Y-3.1655
X1.9868Y-3.812
X2.2771Y-1.482
X2.2771Y-2.1512
X2.2771Y-2.8205
X2.4739Y-1.3953
X2.4739Y-2.0646
X2.4739Y-2.7339
X2.6708Y-1.482
X2.6708Y-2.1512
X2.6708Y-2.8205
X2.9858Y-1.1473
X2.9858Y-1.8166
X2.9858Y-2.4859
X3.1826Y-1.0607
X3.1826Y-1.73
X3.1826Y-2.3993
X3.3795Y-1.1473
X3.3795Y-1.8166
X3.3795Y-2.4859
X3.6944Y-1.482
X3.6944Y-2.1512
X3.6944Y-2.8205
X3.8913Y-1.3953
X3.8913Y-2.0646
X3.8913Y-2.7339
X3.9165Y-3.9459
X4.0881Y-1.482
X4.0881Y-2.1512
X4.0881Y-2.8205
X4.1291Y-3.9132
X4.2968Y-4.0478
X4.4031Y-1.8166
X4.4031Y-2.4859
X4.4031Y-3.1552
X4.5999Y-1.73
X4.5999Y-2.3993
X4.5999Y-3.0686
X4.601Y-4.1293
X4.7968Y-1.8166
X4.7968Y-2.4859
X4.7968Y-3.1552
X4.8136Y-4.0966
X4.9813Y-4.2312
X5.2855Y-4.3127
X5.4981Y-4.28
X5.6658Y-4.4146
T7
X1.6616Y-3.3591
X1.8348Y-4.0056
X2.4739Y-1.6296
X2.4739Y-2.2989
X2.4739Y-2.9682
X3.1826Y-1.2949
X3.1826Y-1.9642
X3.1826Y-2.6335
X3.8913Y-1.6296
X3.8913Y-2.2989
X3.8913Y-2.9682
X4.0684Y-4.1394
X4.5999Y-1.9642
X4.5999Y-2.6335
X4.5999Y-3.3028
X4.7529Y-4.3229
X5.4375Y-4.5063
T2
G00X5.3158Y-3.7972
M15
G01X5.2922Y-3.7972
M16
G05
G00X5.3158Y-3.9783
M15
G01X5.2922Y-3.9783
M16
G05
G00X5.3591Y-3.7972
M15
G01X5.3355Y-3.7972
M16
G05
G00X5.3591Y-3.9783
M15
G01X5.3355Y-3.9783
M16
G05
G00X5.5166Y-3.7972
M15
G01X5.493Y-3.7972
M16
G05
G00X5.5166Y-3.9783
M15
G01X5.493Y-3.9783
M16
G05
G00X5.6347Y-3.7972
M15
G01X5.6111Y-3.7972
M16
G05
G00X5.6347Y-3.9783
M15
G01X5.6111Y-3.9783
M16
G05
T0
M30
