%TF.GenerationSoftware,KiCad,Pcbnew,(5.1.9)-1*%
%TF.CreationDate,2021-04-26T15:19:46+02:00*%
%TF.ProjectId,sepia,73657069-612e-46b6-9963-61645f706362,VERSION_HERE*%
%TF.SameCoordinates,Original*%
%TF.FileFunction,Legend,Bot*%
%TF.FilePolarity,Positive*%
%FSLAX46Y46*%
G04 Gerber Fmt 4.6, Leading zero omitted, Abs format (unit mm)*
G04 Created by KiCad (PCBNEW (5.1.9)-1) date 2021-04-26 15:19:46*
%MOMM*%
%LPD*%
G01*
G04 APERTURE LIST*
%ADD10C,0.150000*%
G04 APERTURE END LIST*
%TO.C,*%
D10*
X131690560Y-63753617D02*
X131690560Y-64325046D01*
X132690560Y-64039332D02*
X131690560Y-64039332D01*
X131690560Y-64563141D02*
X132690560Y-65229808D01*
X131690560Y-65229808D02*
X132690560Y-64563141D01*
X131690560Y-65801236D02*
X131690560Y-65896474D01*
X131738180Y-65991713D01*
X131785799Y-66039332D01*
X131881037Y-66086951D01*
X132071513Y-66134570D01*
X132309608Y-66134570D01*
X132500084Y-66086951D01*
X132595322Y-66039332D01*
X132642941Y-65991713D01*
X132690560Y-65896474D01*
X132690560Y-65801236D01*
X132642941Y-65705998D01*
X132595322Y-65658379D01*
X132500084Y-65610760D01*
X132309608Y-65563141D01*
X132071513Y-65563141D01*
X131881037Y-65610760D01*
X131785799Y-65658379D01*
X131738180Y-65705998D01*
X131690560Y-65801236D01*
X141990560Y-64301236D02*
X141514370Y-63967903D01*
X141990560Y-63729808D02*
X140990560Y-63729808D01*
X140990560Y-64110760D01*
X141038180Y-64205998D01*
X141085799Y-64253617D01*
X141181037Y-64301236D01*
X141323894Y-64301236D01*
X141419132Y-64253617D01*
X141466751Y-64205998D01*
X141514370Y-64110760D01*
X141514370Y-63729808D01*
X141704846Y-64682189D02*
X141704846Y-65158379D01*
X141990560Y-64586951D02*
X140990560Y-64920284D01*
X141990560Y-65253617D01*
X140990560Y-65491713D02*
X141990560Y-65729808D01*
X141276275Y-65920284D01*
X141990560Y-66110760D01*
X140990560Y-66348855D01*
%TD*%
M02*
