%TF.GenerationSoftware,KiCad,Pcbnew,(5.1.9)-1*%
%TF.CreationDate,2021-04-26T16:03:13+02:00*%
%TF.ProjectId,sepia,73657069-612e-46b6-9963-61645f706362,VERSION_HERE*%
%TF.SameCoordinates,Original*%
%TF.FileFunction,Paste,Bot*%
%TF.FilePolarity,Positive*%
%FSLAX46Y46*%
G04 Gerber Fmt 4.6, Leading zero omitted, Abs format (unit mm)*
G04 Created by KiCad (PCBNEW (5.1.9)-1) date 2021-04-26 16:03:13*
%MOMM*%
%LPD*%
G01*
G04 APERTURE LIST*
%ADD10C,0.150000*%
%ADD11R,2.600000X2.600000*%
G04 APERTURE END LIST*
D10*
%TO.C,S1*%
G36*
X40982135Y-98433608D02*
G01*
X40309206Y-95922201D01*
X42820613Y-95249272D01*
X43493542Y-97760679D01*
X40982135Y-98433608D01*
G37*
G36*
X52707980Y-97569285D02*
G01*
X52035051Y-95057878D01*
X54546458Y-94384949D01*
X55219387Y-96896356D01*
X52707980Y-97569285D01*
G37*
%TD*%
%TO.C,S2*%
G36*
X36582211Y-82012869D02*
G01*
X35909282Y-79501462D01*
X38420689Y-78828533D01*
X39093618Y-81339940D01*
X36582211Y-82012869D01*
G37*
G36*
X48308056Y-81148546D02*
G01*
X47635127Y-78637139D01*
X50146534Y-77964210D01*
X50819463Y-80475617D01*
X48308056Y-81148546D01*
G37*
%TD*%
D11*
%TO.C,S3*%
X59563180Y-69441713D03*
X71113180Y-71641713D03*
%TD*%
%TO.C,S4*%
X59563180Y-52441713D03*
X71113180Y-54641713D03*
%TD*%
%TO.C,S5*%
X59563180Y-35441713D03*
X71113180Y-37641713D03*
%TD*%
%TO.C,S6*%
X77563180Y-60941713D03*
X89113180Y-63141713D03*
%TD*%
%TO.C,S7*%
X77563180Y-43941713D03*
X89113180Y-46141713D03*
%TD*%
%TO.C,S8*%
X77563180Y-26941713D03*
X89113180Y-29141713D03*
%TD*%
%TO.C,S9*%
X95563180Y-69441713D03*
X107113180Y-71641713D03*
%TD*%
%TO.C,S10*%
X95563180Y-52441713D03*
X107113180Y-54641713D03*
%TD*%
%TO.C,S11*%
X95563180Y-35441713D03*
X107113180Y-37641713D03*
%TD*%
%TO.C,S12*%
X113563180Y-77941713D03*
X125113180Y-80141713D03*
%TD*%
%TO.C,S13*%
X113563180Y-60941713D03*
X125113180Y-63141713D03*
%TD*%
%TO.C,S14*%
X113563180Y-43941713D03*
X125113180Y-46141713D03*
%TD*%
D10*
%TO.C,S15*%
G36*
X100122578Y-99466061D02*
G01*
X100795507Y-96954654D01*
X103306914Y-97627583D01*
X102633985Y-100138990D01*
X100122578Y-99466061D01*
G37*
G36*
X110709620Y-104580458D02*
G01*
X111382549Y-102069051D01*
X113893956Y-102741980D01*
X113221027Y-105253387D01*
X110709620Y-104580458D01*
G37*
%TD*%
%TO.C,S16*%
G36*
X117509243Y-104124804D02*
G01*
X118182172Y-101613397D01*
X120693579Y-102286326D01*
X120020650Y-104797733D01*
X117509243Y-104124804D01*
G37*
G36*
X128096285Y-109239201D02*
G01*
X128769214Y-106727794D01*
X131280621Y-107400723D01*
X130607692Y-109912130D01*
X128096285Y-109239201D01*
G37*
%TD*%
%TO.C,S17*%
G36*
X134895908Y-108783547D02*
G01*
X135568837Y-106272140D01*
X138080244Y-106945069D01*
X137407315Y-109456476D01*
X134895908Y-108783547D01*
G37*
G36*
X145482950Y-113897944D02*
G01*
X146155879Y-111386537D01*
X148667286Y-112059466D01*
X147994357Y-114570873D01*
X145482950Y-113897944D01*
G37*
%TD*%
M02*
