M48
; DRILL file {KiCad (5.1.10)-1} date 07/20/21 22:45:35
; FORMAT={-:-/ absolute / inch / decimal}
; #@! TF.CreationDate,2021-07-20T22:45:35+02:00
; #@! TF.GenerationSoftware,Kicad,Pcbnew,(5.1.10)-1
FMAT,2
INCH
T1C0.0354
T2C0.0430
T3C0.0433
T4C0.0500
T5C0.0591
T6C0.0670
T7C0.1350
%
G90
G05
T2
X0.9956Y2.7586
X1.0043Y2.659
X1.013Y2.5594
X1.0218Y2.4597
X1.0305Y2.3601
X1.0392Y2.2605
X1.0479Y2.1609
X1.0566Y2.0613
X1.0653Y1.9616
X1.0741Y1.862
X1.0828Y1.7624
X1.0915Y1.6628
X1.5933Y2.8109
X1.602Y2.7113
X1.6108Y2.6117
X1.6195Y2.512
X1.6282Y2.4124
X1.6369Y2.3128
X1.6456Y2.2132
X1.6543Y2.1136
X1.6631Y2.0139
X1.6718Y1.9143
X1.6805Y1.8147
X1.6892Y1.7151
T3
X1.9522Y2.3594
X2.0142Y1.9755
X2.1164Y1.9726
X2.2733Y1.9863
X2.3679Y2.3957
X2.3735Y2.0069
X2.7517Y2.6682
X2.7801Y2.2804
X2.8817Y2.2686
X3.0391Y2.2686
X3.1407Y2.2804
X3.1691Y2.6682
X3.4604Y2.4451
X3.4887Y2.0573
X3.5903Y2.0455
X3.7478Y2.0455
X3.8494Y2.0573
X3.8777Y2.4451
T4
X1.1178Y1.2103
X1.2865Y1.3411
X1.2865Y1.3411
X1.4981Y1.3122
X1.9089Y2.9899
X2.0255Y1.6564
X2.0978Y3.0894
X2.0978Y3.0894
X2.2144Y1.7559
X2.2144Y1.7559
X2.3011Y3.0242
X2.4177Y1.6907
X2.7636Y3.3001
X2.7636Y1.9615
X2.9604Y3.3828
X2.9604Y3.3828
X2.9604Y2.0442
X2.9604Y2.0442
X3.1573Y3.3001
X3.1573Y1.9615
X3.4722Y3.077
X3.4722Y1.7384
X3.6691Y3.1597
X3.6691Y3.1597
X3.6691Y1.8211
X3.6691Y1.8211
X3.8659Y3.077
X3.8659Y1.7384
X4.1279Y0.863
X4.1809Y2.2739
X4.3394Y0.892
X4.3394Y0.892
X4.3777Y2.3566
X4.3777Y2.3566
X4.5082Y0.7611
X4.5746Y2.2739
X4.8888Y0.6226
X5.1021Y0.6144
X5.1021Y0.6144
X5.2456Y0.4562
T5
X4.2084Y2.9038
X4.2084Y2.6282
T6
X1.1375Y1.0607
X1.5558Y1.1728
X1.9023Y2.8391
X2.0189Y1.5056
X2.3337Y2.8769
X2.4504Y1.5434
X2.7439Y3.1505
X2.7439Y1.8119
X3.1769Y3.1505
X3.1769Y1.8119
X3.4525Y2.9274
X3.4525Y1.5888
X3.8856Y2.9274
X3.8856Y1.5888
X4.0701Y0.7236
X4.1612Y2.1243
X4.4885Y0.6115
X4.5943Y2.1243
X4.8077Y0.4953
X5.2002Y0.3123
T7
X1.3467Y1.1168
X2.118Y2.858
X2.2347Y1.5245
X2.9604Y3.1505
X2.9604Y1.8119
X3.6691Y2.9274
X3.6691Y1.5888
X4.2793Y0.6676
X4.3777Y2.1243
X5.004Y0.4038
T1
G00X4.1179Y2.8526
M15
G01X4.1179Y2.829
M16
G05
G00X4.1179Y2.7345
M15
G01X4.1179Y2.7109
M16
G05
G00X4.1179Y2.577
M15
G01X4.1179Y2.5534
M16
G05
G00X4.1179Y2.5337
M15
G01X4.1179Y2.5101
M16
G05
G00X4.299Y2.8526
M15
G01X4.299Y2.829
M16
G05
G00X4.299Y2.7345
M15
G01X4.299Y2.7109
M16
G05
G00X4.299Y2.577
M15
G01X4.299Y2.5534
M16
G05
G00X4.299Y2.5337
M15
G01X4.299Y2.5101
M16
G05
T0
M30
