%TF.GenerationSoftware,KiCad,Pcbnew,(5.1.10)-1*%
%TF.CreationDate,2021-07-20T22:45:32+02:00*%
%TF.ProjectId,metasepia_pfefferi_v2,6d657461-7365-4706-9961-5f7066656666,VERSION_HERE*%
%TF.SameCoordinates,Original*%
%TF.FileFunction,Legend,Top*%
%TF.FilePolarity,Positive*%
%FSLAX46Y46*%
G04 Gerber Fmt 4.6, Leading zero omitted, Abs format (unit mm)*
G04 Created by KiCad (PCBNEW (5.1.10)-1) date 2021-07-20 22:45:32*
%MOMM*%
%LPD*%
G01*
G04 APERTURE LIST*
%ADD10C,0.150000*%
G04 APERTURE END LIST*
D10*
%TO.C,MCU1*%
X23691361Y73753346D02*
X26569244Y40858997D01*
X26569244Y40858997D02*
X44281585Y42408626D01*
X44281585Y42408626D02*
X41403703Y75302975D01*
X41403703Y75302975D02*
X23691361Y73753346D01*
X39094744Y72551265D02*
X39316119Y70020931D01*
X39094744Y72551265D02*
X41625078Y72772641D01*
X39316119Y70020931D02*
X41846454Y70242306D01*
X37142593Y70742335D02*
X36843738Y71098596D01*
X36687189Y70702492D02*
X36617465Y71499448D01*
X36921067Y71526010D01*
X37000288Y71494700D01*
X37041558Y71460070D01*
X37086149Y71387489D01*
X37096110Y71273639D01*
X37064800Y71194418D01*
X37030170Y71153147D01*
X36957589Y71108557D01*
X36653987Y71081995D01*
X37426273Y70996598D02*
X37805776Y71029800D01*
X37370294Y70762256D02*
X37566222Y71582453D01*
X37901598Y70808739D01*
X38021625Y71622296D02*
X38281101Y70841941D01*
X38383099Y71424476D01*
X38584703Y70868503D01*
X38704730Y71682060D01*
X37240638Y68966026D02*
X37161417Y68997336D01*
X37047566Y68987375D01*
X36937036Y68939464D01*
X36867776Y68856923D01*
X36836466Y68777702D01*
X36811796Y68622581D01*
X36821757Y68508730D01*
X36872988Y68360249D01*
X36917579Y68287669D01*
X37000120Y68218409D01*
X37117291Y68190419D01*
X37193191Y68197060D01*
X37303722Y68244971D01*
X37338352Y68286241D01*
X37315110Y68551893D01*
X37163309Y68538612D01*
X37686545Y68240223D02*
X37616820Y69037178D01*
X38141948Y68280065D01*
X38072224Y69077021D01*
X38521451Y68313267D02*
X38451726Y69110223D01*
X38641478Y69126824D01*
X38758649Y69098835D01*
X38841190Y69029575D01*
X38885780Y68956994D01*
X38937012Y68808513D01*
X38946972Y68694662D01*
X38922303Y68539541D01*
X38890993Y68460320D01*
X38821733Y68377779D01*
X38711202Y68329868D01*
X38521451Y68313267D01*
X37699194Y65691626D02*
X37400340Y66047888D01*
X37243791Y65651784D02*
X37174067Y66448740D01*
X37477669Y66475301D01*
X37556890Y66443991D01*
X37598160Y66409361D01*
X37642751Y66336781D01*
X37652711Y66222930D01*
X37621402Y66143709D01*
X37586771Y66102439D01*
X37514191Y66057848D01*
X37210589Y66031286D01*
X37999476Y65756138D02*
X38116647Y65728149D01*
X38306399Y65744750D01*
X38378979Y65789341D01*
X38413609Y65830611D01*
X38444919Y65909832D01*
X38438279Y65985732D01*
X38393688Y66058313D01*
X38352417Y66092943D01*
X38273197Y66124253D01*
X38118075Y66148922D01*
X38038855Y66180232D01*
X37997584Y66214862D01*
X37952993Y66287442D01*
X37946353Y66363343D01*
X37977663Y66442564D01*
X38012293Y66483834D01*
X38084873Y66528425D01*
X38274624Y66545026D01*
X38391796Y66517036D01*
X38616177Y66574908D02*
X39071580Y66614750D01*
X38913603Y65797873D02*
X38843879Y66594829D01*
X37224666Y63903465D02*
X37560043Y63129750D01*
X37755970Y63949948D01*
X38540110Y63291977D02*
X38505479Y63250706D01*
X38394949Y63202795D01*
X38319048Y63196155D01*
X38201877Y63224144D01*
X38119336Y63293404D01*
X38074746Y63365985D01*
X38023514Y63514466D01*
X38013554Y63628316D01*
X38038223Y63783438D01*
X38069533Y63862659D01*
X38138793Y63945200D01*
X38249324Y63993110D01*
X38325224Y63999751D01*
X38442395Y63971761D01*
X38483666Y63937131D01*
X39337065Y63361701D02*
X39302435Y63320431D01*
X39191905Y63272520D01*
X39116004Y63265879D01*
X38998833Y63293869D01*
X38916292Y63363129D01*
X38871701Y63435709D01*
X38820470Y63584190D01*
X38810510Y63698041D01*
X38835179Y63853162D01*
X38866489Y63932383D01*
X38935749Y64014924D01*
X39046279Y64062835D01*
X39122180Y64069475D01*
X39239351Y64041486D01*
X39280622Y64006856D01*
X37610642Y60584474D02*
X37540917Y61381430D01*
X37844519Y61407992D01*
X37923740Y61376682D01*
X37965010Y61342052D01*
X38009601Y61269472D01*
X38019562Y61155621D01*
X37988252Y61076400D01*
X37953622Y61035130D01*
X37881042Y60990539D01*
X37577439Y60963977D01*
X38306563Y61371934D02*
X38341193Y61413204D01*
X38413773Y61457795D01*
X38603525Y61474396D01*
X38682745Y61443086D01*
X38724016Y61408456D01*
X38768607Y61335876D01*
X38775247Y61259975D01*
X38747257Y61142804D01*
X38331697Y60647558D01*
X38825050Y60690721D01*
X39584056Y60757126D02*
X39128653Y60717283D01*
X39356354Y60737204D02*
X39286630Y61534160D01*
X39220690Y61413669D01*
X39151430Y61331128D01*
X39078849Y61286537D01*
X37832018Y58054140D02*
X37762293Y58851096D01*
X38065895Y58877658D01*
X38145116Y58846348D01*
X38186386Y58811718D01*
X38230977Y58739138D01*
X38240938Y58625287D01*
X38209628Y58546066D01*
X38174998Y58504796D01*
X38102418Y58460205D01*
X37798815Y58433643D01*
X38527939Y58841600D02*
X38562569Y58882870D01*
X38635149Y58927461D01*
X38824901Y58944062D01*
X38904121Y58912752D01*
X38945392Y58878122D01*
X38989983Y58805542D01*
X38996623Y58729641D01*
X38968633Y58612470D01*
X38553073Y58117224D01*
X39046426Y58160387D01*
X39470055Y59000506D02*
X39545956Y59007146D01*
X39625177Y58975837D01*
X39666447Y58941206D01*
X39711038Y58868626D01*
X39762269Y58720145D01*
X39778870Y58530394D01*
X39754201Y58375273D01*
X39722891Y58296052D01*
X39688261Y58254781D01*
X39615680Y58210191D01*
X39539780Y58203550D01*
X39460559Y58234860D01*
X39419289Y58269490D01*
X39374698Y58342070D01*
X39323467Y58490551D01*
X39306866Y58680303D01*
X39331535Y58835424D01*
X39362845Y58914645D01*
X39397475Y58955915D01*
X39470055Y59000506D01*
X38053393Y55523805D02*
X37983668Y56320761D01*
X38287270Y56347323D01*
X38366491Y56316013D01*
X38407761Y56281383D01*
X38452352Y56208803D01*
X38462313Y56094952D01*
X38431003Y56015731D01*
X38396373Y55974461D01*
X38323793Y55929870D01*
X38020190Y55903308D01*
X39267801Y55630052D02*
X38812398Y55590210D01*
X39040100Y55610131D02*
X38970375Y56407087D01*
X38904435Y56286596D01*
X38835175Y56204055D01*
X38762595Y56159464D01*
X39647304Y55663255D02*
X39799105Y55676535D01*
X39871686Y55721126D01*
X39906316Y55762397D01*
X39972255Y55882888D01*
X39996925Y56038009D01*
X39970363Y56341611D01*
X39925772Y56414192D01*
X39884502Y56448822D01*
X39805281Y56480132D01*
X39653480Y56466851D01*
X39580900Y56422260D01*
X39546270Y56380989D01*
X39514960Y56301769D01*
X39531561Y56112017D01*
X39576152Y56039437D01*
X39617422Y56004807D01*
X39696643Y55973497D01*
X39848444Y55986778D01*
X39921024Y56031369D01*
X39955654Y56072639D01*
X39986964Y56151860D01*
X38274769Y52993471D02*
X38205044Y53790427D01*
X38508646Y53816989D01*
X38587867Y53785679D01*
X38629137Y53751049D01*
X38673728Y53678469D01*
X38683689Y53564618D01*
X38652379Y53485397D01*
X38617749Y53444127D01*
X38545169Y53399536D01*
X38241566Y53372974D01*
X39489177Y53099718D02*
X39033774Y53059876D01*
X39261476Y53079797D02*
X39191751Y53876753D01*
X39125811Y53756262D01*
X39056551Y53673721D01*
X38983971Y53629130D01*
X39904738Y53594964D02*
X39825517Y53626274D01*
X39784247Y53660904D01*
X39739656Y53733484D01*
X39736336Y53771435D01*
X39767646Y53850655D01*
X39802276Y53891926D01*
X39874856Y53936517D01*
X40026657Y53949798D01*
X40105878Y53918488D01*
X40147148Y53883858D01*
X40191739Y53811277D01*
X40195059Y53773327D01*
X40163750Y53694106D01*
X40129119Y53652836D01*
X40056539Y53608245D01*
X39904738Y53594964D01*
X39832158Y53550374D01*
X39797528Y53509103D01*
X39766218Y53429882D01*
X39779499Y53278081D01*
X39824089Y53205501D01*
X39865360Y53170871D01*
X39944581Y53139561D01*
X40096382Y53152842D01*
X40168962Y53197433D01*
X40203592Y53238703D01*
X40234902Y53317924D01*
X40221621Y53469725D01*
X40177030Y53542305D01*
X40135760Y53576935D01*
X40056539Y53608245D01*
X38496145Y50463136D02*
X38426420Y51260092D01*
X38730022Y51286654D01*
X38809243Y51255344D01*
X38850513Y51220714D01*
X38895104Y51148134D01*
X38905065Y51034283D01*
X38873755Y50955062D01*
X38839125Y50913792D01*
X38766545Y50869201D01*
X38462942Y50842639D01*
X39710553Y50569383D02*
X39255150Y50529541D01*
X39482852Y50549462D02*
X39413127Y51346418D01*
X39347187Y51225927D01*
X39277927Y51143386D01*
X39205347Y51098795D01*
X40361884Y51429423D02*
X39982381Y51396221D01*
X39977633Y51013398D01*
X40012263Y51054669D01*
X40084844Y51099259D01*
X40274595Y51115860D01*
X40353816Y51084551D01*
X40395086Y51049920D01*
X40439677Y50977340D01*
X40456278Y50787589D01*
X40424968Y50708368D01*
X40390338Y50667098D01*
X40317758Y50622507D01*
X40128006Y50605906D01*
X40048786Y50637216D01*
X40007515Y50671846D01*
X38717520Y47932802D02*
X38647795Y48729758D01*
X38951397Y48756320D01*
X39030618Y48725010D01*
X39071888Y48690380D01*
X39116479Y48617800D01*
X39126440Y48503949D01*
X39095130Y48424728D01*
X39060500Y48383458D01*
X38987920Y48338867D01*
X38684317Y48312305D01*
X39931928Y48039049D02*
X39476525Y47999207D01*
X39704227Y48019128D02*
X39634502Y48816084D01*
X39568562Y48695593D01*
X39499302Y48613052D01*
X39426722Y48568461D01*
X40568550Y48630117D02*
X40615033Y48098813D01*
X40352237Y48917118D02*
X40212289Y48331263D01*
X40705643Y48374426D01*
X38938896Y45402467D02*
X38869171Y46199423D01*
X39172773Y46225985D01*
X39251994Y46194675D01*
X39293264Y46160045D01*
X39337855Y46087465D01*
X39347816Y45973614D01*
X39316506Y45894393D01*
X39281876Y45853123D01*
X39209296Y45808532D01*
X38905693Y45781970D01*
X40153304Y45508714D02*
X39697901Y45468872D01*
X39925603Y45488793D02*
X39855878Y46285749D01*
X39789938Y46165258D01*
X39720678Y46082717D01*
X39648098Y46038126D01*
X40766685Y46365434D02*
X40614884Y46352153D01*
X40542303Y46307562D01*
X40507673Y46266292D01*
X40441733Y46145801D01*
X40417064Y45990679D01*
X40443626Y45687077D01*
X40488216Y45614497D01*
X40529487Y45579867D01*
X40608708Y45548557D01*
X40760509Y45561838D01*
X40833089Y45606429D01*
X40867719Y45647699D01*
X40899029Y45726920D01*
X40882428Y45916671D01*
X40837837Y45989251D01*
X40796567Y46023882D01*
X40717346Y46055191D01*
X40565545Y46041911D01*
X40492964Y45997320D01*
X40458334Y45956049D01*
X40427025Y45876829D01*
X39160271Y42872133D02*
X39090546Y43669089D01*
X39394148Y43695651D01*
X39473369Y43664341D01*
X39514639Y43629711D01*
X39559230Y43557131D01*
X39569191Y43443280D01*
X39537881Y43364059D01*
X39503251Y43322789D01*
X39430671Y43278198D01*
X39127068Y43251636D01*
X40374679Y42978380D02*
X39919276Y42938538D01*
X40146978Y42958459D02*
X40077253Y43755415D01*
X40011313Y43634924D01*
X39942053Y43552383D01*
X39869473Y43507792D01*
X40798308Y43818499D02*
X40874209Y43825139D01*
X40953430Y43793830D01*
X40994700Y43759199D01*
X41039291Y43686619D01*
X41090522Y43538138D01*
X41107123Y43348387D01*
X41082454Y43193266D01*
X41051144Y43114045D01*
X41016514Y43072774D01*
X40943933Y43028184D01*
X40868033Y43021543D01*
X40788812Y43052853D01*
X40747542Y43087483D01*
X40702951Y43160063D01*
X40651720Y43308544D01*
X40635119Y43498296D01*
X40659788Y43653417D01*
X40691098Y43732638D01*
X40725728Y43773908D01*
X40798308Y43818499D01*
X27161671Y69869117D02*
X27091946Y70666073D01*
X27395548Y70692635D01*
X27474769Y70661325D01*
X27516039Y70626695D01*
X27560630Y70554115D01*
X27570591Y70440264D01*
X27539281Y70361043D01*
X27504651Y70319773D01*
X27432071Y70275182D01*
X27128468Y70248620D01*
X28040703Y70749079D02*
X28116603Y70755719D01*
X28195824Y70724409D01*
X28237095Y70689779D01*
X28281685Y70617199D01*
X28332917Y70468718D01*
X28349518Y70278967D01*
X28324848Y70123845D01*
X28293538Y70044624D01*
X28258908Y70003354D01*
X28186328Y69958763D01*
X28110427Y69952123D01*
X28031207Y69983433D01*
X27989936Y70018063D01*
X27945345Y70090643D01*
X27894114Y70239124D01*
X27877513Y70428875D01*
X27902183Y70583997D01*
X27933492Y70663217D01*
X27968123Y70704488D01*
X28040703Y70749079D01*
X29135085Y70041769D02*
X28679682Y70001926D01*
X28907383Y70021847D02*
X28837659Y70818803D01*
X28771719Y70698312D01*
X28702459Y70615771D01*
X28629878Y70571180D01*
X27383046Y67338783D02*
X27313321Y68135739D01*
X27616923Y68162301D01*
X27696144Y68130991D01*
X27737414Y68096361D01*
X27782005Y68023781D01*
X27791966Y67909930D01*
X27760656Y67830709D01*
X27726026Y67789439D01*
X27653446Y67744848D01*
X27349843Y67718286D01*
X28262078Y68218745D02*
X28337978Y68225385D01*
X28417199Y68194075D01*
X28458470Y68159445D01*
X28503060Y68086865D01*
X28554292Y67938384D01*
X28570893Y67748633D01*
X28546223Y67593511D01*
X28514913Y67514290D01*
X28480283Y67473020D01*
X28407703Y67428429D01*
X28331802Y67421789D01*
X28252582Y67453099D01*
X28211311Y67487729D01*
X28166720Y67560309D01*
X28115489Y67708790D01*
X28098888Y67898541D01*
X28123558Y68053663D01*
X28154867Y68132883D01*
X28189498Y68174154D01*
X28262078Y68218745D01*
X29021083Y68285149D02*
X29096984Y68291789D01*
X29176205Y68260480D01*
X29217475Y68225849D01*
X29262066Y68153269D01*
X29313297Y68004788D01*
X29329898Y67815037D01*
X29305229Y67659916D01*
X29273919Y67580695D01*
X29239289Y67539424D01*
X29166708Y67494834D01*
X29090808Y67488193D01*
X29011587Y67519503D01*
X28970317Y67554133D01*
X28925726Y67626713D01*
X28874495Y67775194D01*
X28857894Y67964946D01*
X28882563Y68120067D01*
X28913873Y68199288D01*
X28948503Y68240558D01*
X29021083Y68285149D01*
X27898545Y65598996D02*
X27819324Y65630306D01*
X27705473Y65620345D01*
X27594943Y65572434D01*
X27525683Y65489893D01*
X27494373Y65410672D01*
X27469703Y65255551D01*
X27479664Y65141700D01*
X27530895Y64993219D01*
X27575486Y64920639D01*
X27658027Y64851379D01*
X27775198Y64823389D01*
X27851098Y64830030D01*
X27961629Y64877941D01*
X27996259Y64919211D01*
X27973017Y65184863D01*
X27821216Y65171582D01*
X28344452Y64873193D02*
X28274727Y65670148D01*
X28799855Y64913035D01*
X28730131Y65709991D01*
X29179358Y64946237D02*
X29109633Y65743193D01*
X29299385Y65759794D01*
X29416556Y65731805D01*
X29499097Y65662545D01*
X29543687Y65589964D01*
X29594919Y65441483D01*
X29604879Y65327632D01*
X29580210Y65172511D01*
X29548900Y65093290D01*
X29479640Y65010749D01*
X29369109Y64962838D01*
X29179358Y64946237D01*
X28119920Y63068662D02*
X28040699Y63099972D01*
X27926848Y63090011D01*
X27816318Y63042100D01*
X27747058Y62959559D01*
X27715748Y62880338D01*
X27691078Y62725217D01*
X27701039Y62611366D01*
X27752270Y62462885D01*
X27796861Y62390305D01*
X27879402Y62321045D01*
X27996573Y62293055D01*
X28072473Y62299696D01*
X28183004Y62347607D01*
X28217634Y62388877D01*
X28194392Y62654529D01*
X28042591Y62641248D01*
X28565827Y62342859D02*
X28496102Y63139814D01*
X29021230Y62382701D01*
X28951506Y63179657D01*
X29400733Y62415903D02*
X29331008Y63212859D01*
X29520760Y63229460D01*
X29637931Y63201471D01*
X29720472Y63132211D01*
X29765062Y63059630D01*
X29816294Y62911149D01*
X29826254Y62797298D01*
X29801585Y62642177D01*
X29770275Y62562956D01*
X29701015Y62480415D01*
X29590484Y62432504D01*
X29400733Y62415903D01*
X28047173Y59747779D02*
X27977448Y60544735D01*
X28281050Y60571297D01*
X28360271Y60539987D01*
X28401541Y60505357D01*
X28446132Y60432777D01*
X28456093Y60318926D01*
X28424783Y60239705D01*
X28390153Y60198435D01*
X28317573Y60153844D01*
X28013970Y60127282D01*
X28926205Y60627741D02*
X29002105Y60634381D01*
X29081326Y60603071D01*
X29122597Y60568441D01*
X29167187Y60495861D01*
X29218419Y60347380D01*
X29235020Y60157629D01*
X29210350Y60002507D01*
X29179040Y59923286D01*
X29144410Y59882016D01*
X29071830Y59837425D01*
X28995929Y59830785D01*
X28916709Y59862095D01*
X28875438Y59896725D01*
X28830847Y59969305D01*
X28779616Y60117786D01*
X28763015Y60307537D01*
X28787685Y60462659D01*
X28818994Y60541879D01*
X28853625Y60583150D01*
X28926205Y60627741D01*
X29502099Y60601643D02*
X29536729Y60642914D01*
X29609310Y60687504D01*
X29799061Y60704106D01*
X29878282Y60672796D01*
X29919552Y60638166D01*
X29964143Y60565585D01*
X29970784Y60489685D01*
X29942794Y60372514D01*
X29527233Y59877268D01*
X30020587Y59920431D01*
X28268549Y57217445D02*
X28198824Y58014401D01*
X28502426Y58040963D01*
X28581647Y58009653D01*
X28622917Y57975023D01*
X28667508Y57902443D01*
X28677469Y57788592D01*
X28646159Y57709371D01*
X28611529Y57668101D01*
X28538949Y57623510D01*
X28235346Y57596948D01*
X29147581Y58097407D02*
X29223481Y58104047D01*
X29302702Y58072737D01*
X29343973Y58038107D01*
X29388563Y57965527D01*
X29439795Y57817046D01*
X29456396Y57627295D01*
X29431726Y57472173D01*
X29400416Y57392952D01*
X29365786Y57351682D01*
X29293206Y57307091D01*
X29217305Y57300451D01*
X29138085Y57331761D01*
X29096814Y57366391D01*
X29052223Y57438971D01*
X29000992Y57587452D01*
X28984391Y57777203D01*
X29009061Y57932325D01*
X29040370Y58011545D01*
X29075001Y58052816D01*
X29147581Y58097407D01*
X29678885Y58143890D02*
X30172238Y58187052D01*
X29933148Y57860209D01*
X30046999Y57870169D01*
X30126220Y57838860D01*
X30167490Y57804229D01*
X30212081Y57731649D01*
X30228682Y57541898D01*
X30197372Y57462677D01*
X30162742Y57421407D01*
X30090162Y57376816D01*
X29862460Y57356895D01*
X29783239Y57388204D01*
X29741969Y57422834D01*
X28489924Y54687110D02*
X28420199Y55484066D01*
X28723801Y55510628D01*
X28803022Y55479318D01*
X28844292Y55444688D01*
X28888883Y55372108D01*
X28898844Y55258257D01*
X28867534Y55179036D01*
X28832904Y55137766D01*
X28760324Y55093175D01*
X28456721Y55066613D01*
X29368956Y55567072D02*
X29444856Y55573712D01*
X29524077Y55542402D01*
X29565348Y55507772D01*
X29609938Y55435192D01*
X29661170Y55286711D01*
X29677771Y55096960D01*
X29653101Y54941838D01*
X29621791Y54862617D01*
X29587161Y54821347D01*
X29514581Y54776756D01*
X29438680Y54770116D01*
X29359460Y54801426D01*
X29318189Y54836056D01*
X29273598Y54908636D01*
X29222367Y55057117D01*
X29205766Y55246868D01*
X29230436Y55401990D01*
X29261745Y55481210D01*
X29296376Y55522481D01*
X29368956Y55567072D01*
X30340954Y55384425D02*
X30387437Y54853121D01*
X30124641Y55671426D02*
X29984693Y55085571D01*
X30478047Y55128734D01*
X28711300Y52156776D02*
X28641575Y52953732D01*
X28945177Y52980294D01*
X29024398Y52948984D01*
X29065668Y52914354D01*
X29110259Y52841774D01*
X29120220Y52727923D01*
X29088910Y52648702D01*
X29054280Y52607432D01*
X28981700Y52562841D01*
X28678097Y52536279D01*
X29590332Y53036738D02*
X29666232Y53043378D01*
X29745453Y53012068D01*
X29786724Y52977438D01*
X29831314Y52904858D01*
X29882546Y52756377D01*
X29899147Y52566626D01*
X29874477Y52411504D01*
X29843167Y52332283D01*
X29808537Y52291013D01*
X29735957Y52246422D01*
X29660056Y52239782D01*
X29580836Y52271092D01*
X29539565Y52305722D01*
X29494974Y52378302D01*
X29443743Y52526783D01*
X29427142Y52716534D01*
X29451812Y52871656D01*
X29483121Y52950876D01*
X29517752Y52992147D01*
X29590332Y53036738D01*
X30577039Y53123063D02*
X30197536Y53089861D01*
X30192788Y52707038D01*
X30227418Y52748309D01*
X30299999Y52792899D01*
X30489750Y52809500D01*
X30568971Y52778191D01*
X30610241Y52743560D01*
X30654832Y52670980D01*
X30671433Y52481229D01*
X30640123Y52402008D01*
X30605493Y52360738D01*
X30532913Y52316147D01*
X30343161Y52299546D01*
X30263941Y52330856D01*
X30222670Y52365486D01*
X28932675Y49626441D02*
X28862950Y50423397D01*
X29166552Y50449959D01*
X29245773Y50418649D01*
X29287043Y50384019D01*
X29331634Y50311439D01*
X29341595Y50197588D01*
X29310285Y50118367D01*
X29275655Y50077097D01*
X29203075Y50032506D01*
X28899472Y50005944D01*
X29811707Y50506403D02*
X29887607Y50513043D01*
X29966828Y50481733D01*
X30008099Y50447103D01*
X30052689Y50374523D01*
X30103921Y50226042D01*
X30120522Y50036291D01*
X30095852Y49881169D01*
X30064542Y49801948D01*
X30029912Y49760678D01*
X29957332Y49716087D01*
X29881431Y49709447D01*
X29802211Y49740757D01*
X29760940Y49775387D01*
X29716349Y49847967D01*
X29665118Y49996448D01*
X29648517Y50186199D01*
X29673187Y50341321D01*
X29704496Y50420541D01*
X29739127Y50461812D01*
X29811707Y50506403D01*
X30760464Y50589408D02*
X30608663Y50576127D01*
X30536082Y50531536D01*
X30501452Y50490266D01*
X30435512Y50369775D01*
X30410843Y50214653D01*
X30437405Y49911051D01*
X30481995Y49838471D01*
X30523266Y49803841D01*
X30602487Y49772531D01*
X30754288Y49785812D01*
X30826868Y49830403D01*
X30861498Y49871673D01*
X30892808Y49950894D01*
X30876207Y50140645D01*
X30831616Y50213225D01*
X30790346Y50247856D01*
X30711125Y50279165D01*
X30559324Y50265885D01*
X30486743Y50221294D01*
X30452113Y50180023D01*
X30420804Y50100803D01*
X29154051Y47096107D02*
X29084326Y47893063D01*
X29387928Y47919625D01*
X29467149Y47888315D01*
X29508419Y47853685D01*
X29553010Y47781105D01*
X29562971Y47667254D01*
X29531661Y47588033D01*
X29497031Y47546763D01*
X29424451Y47502172D01*
X29120848Y47475610D01*
X30033083Y47976069D02*
X30108983Y47982709D01*
X30188204Y47951399D01*
X30229475Y47916769D01*
X30274065Y47844189D01*
X30325297Y47695708D01*
X30341898Y47505957D01*
X30317228Y47350835D01*
X30285918Y47271614D01*
X30251288Y47230344D01*
X30178708Y47185753D01*
X30102807Y47179113D01*
X30023587Y47210423D01*
X29982316Y47245053D01*
X29937725Y47317633D01*
X29886494Y47466114D01*
X29869893Y47655865D01*
X29894563Y47810987D01*
X29925872Y47890207D01*
X29960503Y47931478D01*
X30033083Y47976069D01*
X30564387Y48022552D02*
X31095691Y48069035D01*
X30823863Y47242197D01*
X29375427Y44565772D02*
X29305702Y45362728D01*
X29609304Y45389290D01*
X29688525Y45357980D01*
X29729795Y45323350D01*
X29774386Y45250770D01*
X29784347Y45136919D01*
X29753037Y45057698D01*
X29718407Y45016428D01*
X29645827Y44971837D01*
X29342224Y44945275D01*
X30254459Y45445734D02*
X30330359Y45452374D01*
X30409580Y45421064D01*
X30450851Y45386434D01*
X30495441Y45313854D01*
X30546673Y45165373D01*
X30563274Y44975622D01*
X30538604Y44820500D01*
X30507294Y44741279D01*
X30472664Y44700009D01*
X30400084Y44655418D01*
X30324183Y44648778D01*
X30244963Y44680088D01*
X30203692Y44714718D01*
X30159101Y44787298D01*
X30107870Y44935779D01*
X30091269Y45125530D01*
X30115939Y45280652D01*
X30147248Y45359872D01*
X30181879Y45401143D01*
X30254459Y45445734D01*
X31005396Y45167265D02*
X30926175Y45198575D01*
X30884905Y45233205D01*
X30840314Y45305785D01*
X30836994Y45343736D01*
X30868304Y45422956D01*
X30902934Y45464227D01*
X30975514Y45508818D01*
X31127315Y45522099D01*
X31206536Y45490789D01*
X31247806Y45456159D01*
X31292397Y45383578D01*
X31295717Y45345628D01*
X31264408Y45266407D01*
X31229777Y45225137D01*
X31157197Y45180546D01*
X31005396Y45167265D01*
X30932816Y45122675D01*
X30898186Y45081404D01*
X30866876Y45002183D01*
X30880157Y44850382D01*
X30924747Y44777802D01*
X30966018Y44743172D01*
X31045239Y44711862D01*
X31197040Y44725143D01*
X31269620Y44769734D01*
X31304250Y44811004D01*
X31335560Y44890225D01*
X31322279Y45042026D01*
X31277688Y45114606D01*
X31236418Y45149236D01*
X31157197Y45180546D01*
X29596802Y42035438D02*
X29527077Y42832394D01*
X29830679Y42858956D01*
X29909900Y42827646D01*
X29951170Y42793016D01*
X29995761Y42720436D01*
X30005722Y42606585D01*
X29974412Y42527364D01*
X29939782Y42486094D01*
X29867202Y42441503D01*
X29563599Y42414941D01*
X30475834Y42915400D02*
X30551734Y42922040D01*
X30630955Y42890730D01*
X30672226Y42856100D01*
X30716816Y42783520D01*
X30768048Y42635039D01*
X30784649Y42445288D01*
X30759979Y42290166D01*
X30728669Y42210945D01*
X30694039Y42169675D01*
X30621459Y42125084D01*
X30545558Y42118444D01*
X30466338Y42149754D01*
X30425067Y42184384D01*
X30380476Y42256964D01*
X30329245Y42405445D01*
X30312644Y42595196D01*
X30337314Y42750318D01*
X30368623Y42829538D01*
X30403254Y42870809D01*
X30475834Y42915400D01*
X31190713Y42174888D02*
X31342514Y42188168D01*
X31415095Y42232759D01*
X31449725Y42274030D01*
X31515664Y42394521D01*
X31540334Y42549642D01*
X31513772Y42853244D01*
X31469181Y42925825D01*
X31427911Y42960455D01*
X31348690Y42991765D01*
X31196889Y42978484D01*
X31124309Y42933893D01*
X31089679Y42892622D01*
X31058369Y42813402D01*
X31074970Y42623650D01*
X31119561Y42551070D01*
X31160831Y42516440D01*
X31240052Y42485130D01*
X31391853Y42498411D01*
X31464433Y42543002D01*
X31499063Y42584272D01*
X31530373Y42663493D01*
%TD*%
M02*
