%TF.GenerationSoftware,KiCad,Pcbnew,(5.1.10)-1*%
%TF.CreationDate,2021-07-20T22:45:32+02:00*%
%TF.ProjectId,metasepia_pfefferi_v2,6d657461-7365-4706-9961-5f7066656666,VERSION_HERE*%
%TF.SameCoordinates,Original*%
%TF.FileFunction,Soldermask,Bot*%
%TF.FilePolarity,Negative*%
%FSLAX46Y46*%
G04 Gerber Fmt 4.6, Leading zero omitted, Abs format (unit mm)*
G04 Created by KiCad (PCBNEW (5.1.10)-1) date 2021-07-20 22:45:32*
%MOMM*%
%LPD*%
G01*
G04 APERTURE LIST*
%ADD10C,0.010000*%
%ADD11C,1.700000*%
%ADD12C,3.529000*%
%ADD13C,1.801800*%
%ADD14C,2.132000*%
%ADD15C,1.852600*%
%ADD16C,1.600000*%
%ADD17O,1.700000X2.300000*%
G04 APERTURE END LIST*
D10*
%TO.C,G\u002A\u002A\u002A*%
G36*
X108339673Y33387801D02*
G01*
X108452661Y33204518D01*
X108536949Y33062442D01*
X108783499Y32741954D01*
X109021993Y32589145D01*
X109235155Y32491804D01*
X109279976Y32411544D01*
X109156526Y32347799D01*
X109054693Y32325847D01*
X108857005Y32329754D01*
X108629501Y32423156D01*
X108361830Y32598445D01*
X108133052Y32771285D01*
X107970167Y32909026D01*
X107911430Y32976891D01*
X107947056Y33075380D01*
X108044391Y33227669D01*
X108161222Y33377229D01*
X108255336Y33467531D01*
X108281343Y33472250D01*
X108339673Y33387801D01*
G37*
X108339673Y33387801D02*
X108452661Y33204518D01*
X108536949Y33062442D01*
X108783499Y32741954D01*
X109021993Y32589145D01*
X109235155Y32491804D01*
X109279976Y32411544D01*
X109156526Y32347799D01*
X109054693Y32325847D01*
X108857005Y32329754D01*
X108629501Y32423156D01*
X108361830Y32598445D01*
X108133052Y32771285D01*
X107970167Y32909026D01*
X107911430Y32976891D01*
X107947056Y33075380D01*
X108044391Y33227669D01*
X108161222Y33377229D01*
X108255336Y33467531D01*
X108281343Y33472250D01*
X108339673Y33387801D01*
G36*
X107661184Y40445158D02*
G01*
X108130871Y40346802D01*
X108608647Y40094341D01*
X108911473Y39853928D01*
X109120701Y39657561D01*
X109264225Y39508356D01*
X109311349Y39438254D01*
X109311194Y39438007D01*
X109223029Y39443103D01*
X109038479Y39508769D01*
X108808400Y39611949D01*
X108583651Y39729589D01*
X108415088Y39838632D01*
X108399630Y39851248D01*
X108205610Y39940557D01*
X108048679Y39879984D01*
X107972719Y39702571D01*
X107902535Y39551941D01*
X107748741Y39350497D01*
X107656507Y39252420D01*
X107335510Y38833025D01*
X107162192Y38369281D01*
X107145944Y37889080D01*
X107163528Y37787994D01*
X107213224Y37559301D01*
X107234511Y37489835D01*
X107233022Y37572947D01*
X107221326Y37719765D01*
X107228620Y37862041D01*
X107781088Y37959456D01*
X107836510Y37805417D01*
X107891458Y37757926D01*
X108132972Y37678144D01*
X108393562Y37765025D01*
X108634305Y37973287D01*
X108803957Y38234051D01*
X108833795Y38476959D01*
X108721253Y38669905D01*
X108691826Y38692628D01*
X108483286Y38752288D01*
X108255251Y38648851D01*
X108066675Y38461360D01*
X107856270Y38171927D01*
X107781088Y37959456D01*
X107228620Y37862041D01*
X107244983Y38181154D01*
X107410272Y38578584D01*
X107705563Y38923739D01*
X107948307Y39196865D01*
X108056894Y39450466D01*
X108066584Y39523783D01*
X108123387Y39750137D01*
X108242892Y39820088D01*
X108416337Y39730747D01*
X108487128Y39662416D01*
X108647485Y39536213D01*
X108777200Y39498631D01*
X108969897Y39457658D01*
X109199857Y39302143D01*
X109427067Y39068221D01*
X109611515Y38792022D01*
X109651215Y38709359D01*
X109765738Y38474276D01*
X109867197Y38313523D01*
X109909064Y38274320D01*
X109975586Y38177022D01*
X110037473Y37976449D01*
X110050180Y37912590D01*
X110075149Y37696462D01*
X110035719Y37592448D01*
X109918223Y37550505D01*
X109712298Y37460997D01*
X109497046Y37289535D01*
X109317361Y37083168D01*
X109218139Y36888943D01*
X109212716Y36811178D01*
X109295607Y36765721D01*
X109491362Y36726202D01*
X109595118Y36714667D01*
X109879571Y36650448D01*
X110206185Y36494076D01*
X110567874Y36259573D01*
X110895114Y36015675D01*
X111124161Y35799770D01*
X111304660Y35557272D01*
X111466343Y35271728D01*
X111621685Y34962328D01*
X111708360Y34734974D01*
X111743210Y34525556D01*
X111743074Y34269963D01*
X111741160Y34225499D01*
X111718455Y33952991D01*
X111682868Y33753599D01*
X111653817Y33686023D01*
X111558025Y33701400D01*
X111343090Y33785646D01*
X111037236Y33924223D01*
X110668685Y34102590D01*
X110265663Y34306210D01*
X109856393Y34520543D01*
X109469098Y34731050D01*
X109132001Y34923193D01*
X108873326Y35082431D01*
X108721297Y35194225D01*
X108715732Y35199550D01*
X108569500Y35384593D01*
X108485726Y35618023D01*
X108447144Y35867284D01*
X108411974Y36109330D01*
X108374522Y36256843D01*
X108351742Y36280318D01*
X108337620Y36182534D01*
X108341907Y35961866D01*
X108363530Y35663638D01*
X108367240Y35624772D01*
X108381679Y35053937D01*
X108324985Y34466297D01*
X108206452Y33922844D01*
X108043499Y33500075D01*
X107748628Y33098011D01*
X107343755Y32779057D01*
X106868380Y32558294D01*
X106361998Y32450800D01*
X105864104Y32471655D01*
X105573556Y32557073D01*
X105232738Y32714264D01*
X105014902Y32866739D01*
X104879054Y33052032D01*
X104795568Y33269439D01*
X104754381Y33612092D01*
X104825198Y33884100D01*
X104926534Y34062802D01*
X105028834Y34149090D01*
X105097161Y34128087D01*
X105099966Y34001115D01*
X105137886Y33895356D01*
X105284093Y33865140D01*
X105501438Y33899281D01*
X105752769Y33986592D01*
X106000939Y34115889D01*
X106208796Y34275984D01*
X106280377Y34356538D01*
X106392782Y34531121D01*
X106535381Y34787660D01*
X106686973Y35082969D01*
X106826358Y35373859D01*
X106932336Y35617144D01*
X106983707Y35769637D01*
X106985147Y35792228D01*
X106938944Y35801139D01*
X106842996Y35692567D01*
X106719159Y35502478D01*
X106589295Y35266841D01*
X106475260Y35021620D01*
X106412155Y34849428D01*
X106248991Y34496105D01*
X106019687Y34231216D01*
X105754254Y34071394D01*
X105482705Y34033265D01*
X105235047Y34133461D01*
X105190235Y34172322D01*
X105122710Y34244307D01*
X105093681Y34317047D01*
X105115132Y34415586D01*
X105199054Y34564965D01*
X105357433Y34790226D01*
X105602256Y35116411D01*
X105710194Y35258540D01*
X106035809Y35697039D01*
X106267393Y36037921D01*
X106421341Y36311942D01*
X106514049Y36549856D01*
X106561914Y36782419D01*
X106571640Y36874440D01*
X106580699Y37014489D01*
X106562422Y37007808D01*
X106502501Y36847978D01*
X106500565Y36842575D01*
X106345903Y36570067D01*
X106081798Y36353733D01*
X105795565Y36211664D01*
X105387973Y36115939D01*
X104965181Y36171229D01*
X104517209Y36381025D01*
X104034071Y36748820D01*
X103896006Y36875946D01*
X103745760Y37012821D01*
X103677788Y37035274D01*
X103651902Y36945832D01*
X103645690Y36891683D01*
X103573373Y36731602D01*
X103445214Y36698329D01*
X103321227Y36795172D01*
X103285991Y36871850D01*
X103274471Y37164788D01*
X103412897Y37460407D01*
X103535628Y37598155D01*
X103690275Y37711729D01*
X103867542Y37746036D01*
X104063975Y37732005D01*
X104280376Y37683694D01*
X104472192Y37574560D01*
X104688903Y37372167D01*
X104802442Y37247966D01*
X105057822Y36985775D01*
X105261074Y36859411D01*
X105454147Y36863906D01*
X105678990Y36994293D01*
X105839856Y37125106D01*
X106012283Y37292750D01*
X106180754Y37505837D01*
X106367140Y37796604D01*
X106593314Y38197291D01*
X106692862Y38382488D01*
X106725339Y38544407D01*
X106665786Y38653119D01*
X106557633Y38666692D01*
X106473948Y38593863D01*
X106360785Y38479677D01*
X106277274Y38517809D01*
X106212816Y38715794D01*
X106198731Y38789485D01*
X106196486Y38967406D01*
X106855209Y39083556D01*
X106866080Y39078768D01*
X106961002Y39144570D01*
X107110274Y39297136D01*
X107161049Y39356223D01*
X107366986Y39565439D01*
X107635633Y39791464D01*
X107767464Y39888062D01*
X107956413Y40027670D01*
X108051521Y40117744D01*
X108042940Y40137964D01*
X107895196Y40071455D01*
X107671878Y39919911D01*
X107417128Y39718050D01*
X107175089Y39500593D01*
X107007293Y39323452D01*
X106890338Y39167213D01*
X106855209Y39083556D01*
X106196486Y38967406D01*
X106192714Y39266628D01*
X106340089Y39694324D01*
X106627271Y40051270D01*
X107040674Y40316169D01*
X107215949Y40384289D01*
X107661184Y40445158D01*
G37*
X107661184Y40445158D02*
X108130871Y40346802D01*
X108608647Y40094341D01*
X108911473Y39853928D01*
X109120701Y39657561D01*
X109264225Y39508356D01*
X109311349Y39438254D01*
X109311194Y39438007D01*
X109223029Y39443103D01*
X109038479Y39508769D01*
X108808400Y39611949D01*
X108583651Y39729589D01*
X108415088Y39838632D01*
X108399630Y39851248D01*
X108205610Y39940557D01*
X108048679Y39879984D01*
X107972719Y39702571D01*
X107902535Y39551941D01*
X107748741Y39350497D01*
X107656507Y39252420D01*
X107335510Y38833025D01*
X107162192Y38369281D01*
X107145944Y37889080D01*
X107163528Y37787994D01*
X107213224Y37559301D01*
X107234511Y37489835D01*
X107233022Y37572947D01*
X107221326Y37719765D01*
X107228620Y37862041D01*
X107781088Y37959456D01*
X107836510Y37805417D01*
X107891458Y37757926D01*
X108132972Y37678144D01*
X108393562Y37765025D01*
X108634305Y37973287D01*
X108803957Y38234051D01*
X108833795Y38476959D01*
X108721253Y38669905D01*
X108691826Y38692628D01*
X108483286Y38752288D01*
X108255251Y38648851D01*
X108066675Y38461360D01*
X107856270Y38171927D01*
X107781088Y37959456D01*
X107228620Y37862041D01*
X107244983Y38181154D01*
X107410272Y38578584D01*
X107705563Y38923739D01*
X107948307Y39196865D01*
X108056894Y39450466D01*
X108066584Y39523783D01*
X108123387Y39750137D01*
X108242892Y39820088D01*
X108416337Y39730747D01*
X108487128Y39662416D01*
X108647485Y39536213D01*
X108777200Y39498631D01*
X108969897Y39457658D01*
X109199857Y39302143D01*
X109427067Y39068221D01*
X109611515Y38792022D01*
X109651215Y38709359D01*
X109765738Y38474276D01*
X109867197Y38313523D01*
X109909064Y38274320D01*
X109975586Y38177022D01*
X110037473Y37976449D01*
X110050180Y37912590D01*
X110075149Y37696462D01*
X110035719Y37592448D01*
X109918223Y37550505D01*
X109712298Y37460997D01*
X109497046Y37289535D01*
X109317361Y37083168D01*
X109218139Y36888943D01*
X109212716Y36811178D01*
X109295607Y36765721D01*
X109491362Y36726202D01*
X109595118Y36714667D01*
X109879571Y36650448D01*
X110206185Y36494076D01*
X110567874Y36259573D01*
X110895114Y36015675D01*
X111124161Y35799770D01*
X111304660Y35557272D01*
X111466343Y35271728D01*
X111621685Y34962328D01*
X111708360Y34734974D01*
X111743210Y34525556D01*
X111743074Y34269963D01*
X111741160Y34225499D01*
X111718455Y33952991D01*
X111682868Y33753599D01*
X111653817Y33686023D01*
X111558025Y33701400D01*
X111343090Y33785646D01*
X111037236Y33924223D01*
X110668685Y34102590D01*
X110265663Y34306210D01*
X109856393Y34520543D01*
X109469098Y34731050D01*
X109132001Y34923193D01*
X108873326Y35082431D01*
X108721297Y35194225D01*
X108715732Y35199550D01*
X108569500Y35384593D01*
X108485726Y35618023D01*
X108447144Y35867284D01*
X108411974Y36109330D01*
X108374522Y36256843D01*
X108351742Y36280318D01*
X108337620Y36182534D01*
X108341907Y35961866D01*
X108363530Y35663638D01*
X108367240Y35624772D01*
X108381679Y35053937D01*
X108324985Y34466297D01*
X108206452Y33922844D01*
X108043499Y33500075D01*
X107748628Y33098011D01*
X107343755Y32779057D01*
X106868380Y32558294D01*
X106361998Y32450800D01*
X105864104Y32471655D01*
X105573556Y32557073D01*
X105232738Y32714264D01*
X105014902Y32866739D01*
X104879054Y33052032D01*
X104795568Y33269439D01*
X104754381Y33612092D01*
X104825198Y33884100D01*
X104926534Y34062802D01*
X105028834Y34149090D01*
X105097161Y34128087D01*
X105099966Y34001115D01*
X105137886Y33895356D01*
X105284093Y33865140D01*
X105501438Y33899281D01*
X105752769Y33986592D01*
X106000939Y34115889D01*
X106208796Y34275984D01*
X106280377Y34356538D01*
X106392782Y34531121D01*
X106535381Y34787660D01*
X106686973Y35082969D01*
X106826358Y35373859D01*
X106932336Y35617144D01*
X106983707Y35769637D01*
X106985147Y35792228D01*
X106938944Y35801139D01*
X106842996Y35692567D01*
X106719159Y35502478D01*
X106589295Y35266841D01*
X106475260Y35021620D01*
X106412155Y34849428D01*
X106248991Y34496105D01*
X106019687Y34231216D01*
X105754254Y34071394D01*
X105482705Y34033265D01*
X105235047Y34133461D01*
X105190235Y34172322D01*
X105122710Y34244307D01*
X105093681Y34317047D01*
X105115132Y34415586D01*
X105199054Y34564965D01*
X105357433Y34790226D01*
X105602256Y35116411D01*
X105710194Y35258540D01*
X106035809Y35697039D01*
X106267393Y36037921D01*
X106421341Y36311942D01*
X106514049Y36549856D01*
X106561914Y36782419D01*
X106571640Y36874440D01*
X106580699Y37014489D01*
X106562422Y37007808D01*
X106502501Y36847978D01*
X106500565Y36842575D01*
X106345903Y36570067D01*
X106081798Y36353733D01*
X105795565Y36211664D01*
X105387973Y36115939D01*
X104965181Y36171229D01*
X104517209Y36381025D01*
X104034071Y36748820D01*
X103896006Y36875946D01*
X103745760Y37012821D01*
X103677788Y37035274D01*
X103651902Y36945832D01*
X103645690Y36891683D01*
X103573373Y36731602D01*
X103445214Y36698329D01*
X103321227Y36795172D01*
X103285991Y36871850D01*
X103274471Y37164788D01*
X103412897Y37460407D01*
X103535628Y37598155D01*
X103690275Y37711729D01*
X103867542Y37746036D01*
X104063975Y37732005D01*
X104280376Y37683694D01*
X104472192Y37574560D01*
X104688903Y37372167D01*
X104802442Y37247966D01*
X105057822Y36985775D01*
X105261074Y36859411D01*
X105454147Y36863906D01*
X105678990Y36994293D01*
X105839856Y37125106D01*
X106012283Y37292750D01*
X106180754Y37505837D01*
X106367140Y37796604D01*
X106593314Y38197291D01*
X106692862Y38382488D01*
X106725339Y38544407D01*
X106665786Y38653119D01*
X106557633Y38666692D01*
X106473948Y38593863D01*
X106360785Y38479677D01*
X106277274Y38517809D01*
X106212816Y38715794D01*
X106198731Y38789485D01*
X106196486Y38967406D01*
X106855209Y39083556D01*
X106866080Y39078768D01*
X106961002Y39144570D01*
X107110274Y39297136D01*
X107161049Y39356223D01*
X107366986Y39565439D01*
X107635633Y39791464D01*
X107767464Y39888062D01*
X107956413Y40027670D01*
X108051521Y40117744D01*
X108042940Y40137964D01*
X107895196Y40071455D01*
X107671878Y39919911D01*
X107417128Y39718050D01*
X107175089Y39500593D01*
X107007293Y39323452D01*
X106890338Y39167213D01*
X106855209Y39083556D01*
X106196486Y38967406D01*
X106192714Y39266628D01*
X106340089Y39694324D01*
X106627271Y40051270D01*
X107040674Y40316169D01*
X107215949Y40384289D01*
X107661184Y40445158D01*
G36*
X106204922Y36182634D02*
G01*
X106061772Y36008538D01*
X105827512Y35756189D01*
X105513041Y35438011D01*
X105190021Y35124323D01*
X104843388Y34780114D01*
X104621311Y34527035D01*
X104514064Y34353053D01*
X104501870Y34273158D01*
X104561988Y34144638D01*
X104617412Y34122618D01*
X104668424Y34079857D01*
X104644899Y33957931D01*
X104568654Y33816928D01*
X104472312Y33722968D01*
X104361271Y33714848D01*
X104331481Y33776755D01*
X104347790Y34072602D01*
X104476804Y34473737D01*
X104712771Y34964443D01*
X104861735Y35226171D01*
X105063627Y35555616D01*
X105217313Y35769862D01*
X105355331Y35902556D01*
X105510213Y35987342D01*
X105644535Y36035700D01*
X105907747Y36129438D01*
X106122941Y36219982D01*
X106174300Y36246369D01*
X106246065Y36266051D01*
X106204922Y36182634D01*
G37*
X106204922Y36182634D02*
X106061772Y36008538D01*
X105827512Y35756189D01*
X105513041Y35438011D01*
X105190021Y35124323D01*
X104843388Y34780114D01*
X104621311Y34527035D01*
X104514064Y34353053D01*
X104501870Y34273158D01*
X104561988Y34144638D01*
X104617412Y34122618D01*
X104668424Y34079857D01*
X104644899Y33957931D01*
X104568654Y33816928D01*
X104472312Y33722968D01*
X104361271Y33714848D01*
X104331481Y33776755D01*
X104347790Y34072602D01*
X104476804Y34473737D01*
X104712771Y34964443D01*
X104861735Y35226171D01*
X105063627Y35555616D01*
X105217313Y35769862D01*
X105355331Y35902556D01*
X105510213Y35987342D01*
X105644535Y36035700D01*
X105907747Y36129438D01*
X106122941Y36219982D01*
X106174300Y36246369D01*
X106246065Y36266051D01*
X106204922Y36182634D01*
G36*
X104974435Y35746835D02*
G01*
X104865196Y35538836D01*
X104746451Y35323952D01*
X104453090Y34859645D01*
X104126780Y34485973D01*
X103851792Y34243089D01*
X103574417Y34018480D01*
X103398496Y33883074D01*
X103294210Y33819114D01*
X103231740Y33808836D01*
X103181268Y33834483D01*
X103174119Y33839469D01*
X103095857Y33985052D01*
X103110538Y34200031D01*
X103197482Y34428245D01*
X103336016Y34613530D01*
X103490023Y34697584D01*
X103657223Y34769536D01*
X103908449Y34926089D01*
X104202985Y35137330D01*
X104500117Y35373349D01*
X104759129Y35604230D01*
X104852363Y35698444D01*
X104963837Y35811856D01*
X105005922Y35832913D01*
X104974435Y35746835D01*
G37*
X104974435Y35746835D02*
X104865196Y35538836D01*
X104746451Y35323952D01*
X104453090Y34859645D01*
X104126780Y34485973D01*
X103851792Y34243089D01*
X103574417Y34018480D01*
X103398496Y33883074D01*
X103294210Y33819114D01*
X103231740Y33808836D01*
X103181268Y33834483D01*
X103174119Y33839469D01*
X103095857Y33985052D01*
X103110538Y34200031D01*
X103197482Y34428245D01*
X103336016Y34613530D01*
X103490023Y34697584D01*
X103657223Y34769536D01*
X103908449Y34926089D01*
X104202985Y35137330D01*
X104500117Y35373349D01*
X104759129Y35604230D01*
X104852363Y35698444D01*
X104963837Y35811856D01*
X105005922Y35832913D01*
X104974435Y35746835D01*
G36*
X114681471Y45102010D02*
G01*
X114738253Y44893989D01*
X114802153Y44583424D01*
X114858900Y44246336D01*
X114923860Y43856549D01*
X114989259Y43522906D01*
X115046783Y43284713D01*
X115082906Y43187194D01*
X115087631Y43089181D01*
X114988661Y42935565D01*
X114772350Y42707495D01*
X114654955Y42595898D01*
X114328179Y42290472D01*
X114113837Y42087967D01*
X114000434Y41975916D01*
X113976472Y41941854D01*
X114030454Y41973312D01*
X114150882Y42057825D01*
X114173836Y42074215D01*
X114351471Y42220610D01*
X114609832Y42458261D01*
X114914365Y42754391D01*
X115230514Y43076228D01*
X115232806Y43078619D01*
X115615323Y43462837D01*
X115911289Y43721743D01*
X116137064Y43864498D01*
X116309005Y43900263D01*
X116443471Y43838202D01*
X116493193Y43784551D01*
X116536345Y43695681D01*
X116524406Y43578022D01*
X116445358Y43400339D01*
X116287183Y43131397D01*
X116171012Y42947214D01*
X115984299Y42636140D01*
X115844021Y42366694D01*
X115769178Y42177360D01*
X115762925Y42120688D01*
X115792792Y42034611D01*
X115818787Y42114604D01*
X115819022Y42115860D01*
X115871412Y42284736D01*
X115961811Y42502047D01*
X116049392Y42656063D01*
X116163123Y42735067D01*
X116361439Y42769402D01*
X116493967Y42778371D01*
X116809348Y42821210D01*
X117017202Y42918486D01*
X117078076Y42971712D01*
X117261626Y43109465D01*
X117409601Y43170077D01*
X117567714Y43240009D01*
X117783918Y43384731D01*
X117890976Y43470366D01*
X118083910Y43615051D01*
X118224626Y43685264D01*
X118264665Y43681521D01*
X118292504Y43566044D01*
X118296977Y43350165D01*
X118292281Y43264688D01*
X118238799Y42997485D01*
X118100162Y42758127D01*
X117926492Y42563998D01*
X117727704Y42353828D01*
X117576127Y42178369D01*
X117521667Y42103182D01*
X117395340Y41985453D01*
X117254147Y41913851D01*
X117144392Y41868693D01*
X117184196Y41860822D01*
X117325074Y41877288D01*
X117540259Y41879042D01*
X117601750Y41816739D01*
X117505575Y41705416D01*
X117389824Y41631962D01*
X117210240Y41517654D01*
X117172991Y41462394D01*
X117279239Y41477583D01*
X117377591Y41511734D01*
X117528337Y41550545D01*
X117572363Y41488826D01*
X117568728Y41426048D01*
X117549083Y41215679D01*
X117534670Y41013600D01*
X117476626Y40763635D01*
X117362981Y40523645D01*
X117200513Y40164701D01*
X117158850Y39807188D01*
X117243709Y39502397D01*
X117248286Y39494575D01*
X117350844Y39312563D01*
X117356911Y39227084D01*
X117255698Y39188633D01*
X117178576Y39174592D01*
X116993189Y39080451D01*
X116774740Y38878590D01*
X116686692Y38773539D01*
X116491296Y38553033D01*
X116349824Y38479995D01*
X116239398Y38550975D01*
X116163968Y38694785D01*
X116143707Y38721623D01*
X116167224Y38610737D01*
X116196788Y38501787D01*
X116296706Y38148674D01*
X116021851Y38234515D01*
X115802469Y38287359D01*
X115645021Y38298525D01*
X115639293Y38297488D01*
X115635356Y38266759D01*
X115765004Y38220763D01*
X115799622Y38212290D01*
X116067654Y38149959D01*
X115883604Y37979791D01*
X115665084Y37815299D01*
X115333049Y37609432D01*
X114930728Y37384886D01*
X114501350Y37164354D01*
X114088144Y36970530D01*
X113734340Y36826109D01*
X113602435Y36782216D01*
X113292493Y36677835D01*
X113024601Y36565843D01*
X112880904Y36486034D01*
X112628902Y36380349D01*
X112471103Y36372253D01*
X112258192Y36373837D01*
X111966191Y36349452D01*
X111815368Y36328943D01*
X111492168Y36305176D01*
X111179746Y36324155D01*
X111069863Y36346264D01*
X110849530Y36435713D01*
X110722839Y36586684D01*
X110657696Y36756031D01*
X110625492Y36814930D01*
X113595759Y37338668D01*
X113624587Y37298766D01*
X113681482Y37246875D01*
X113877746Y37147178D01*
X114047152Y37185608D01*
X114141485Y37347367D01*
X114146867Y37389725D01*
X114135573Y37593254D01*
X114099904Y37703843D01*
X114066284Y37707365D01*
X114070999Y37577581D01*
X114071957Y37570947D01*
X114048781Y37351186D01*
X113921728Y37244542D01*
X113722848Y37276104D01*
X113706195Y37284601D01*
X113595759Y37338668D01*
X110625492Y36814930D01*
X110472139Y37095395D01*
X110281447Y37280253D01*
X110171965Y37374727D01*
X112454471Y37777194D01*
X112481222Y37747198D01*
X112486438Y37748016D01*
X112658873Y37822872D01*
X112720478Y37869315D01*
X112799824Y37967458D01*
X112761495Y37989360D01*
X112639336Y37934382D01*
X112550457Y37872524D01*
X112454471Y37777194D01*
X110171965Y37374727D01*
X110134519Y37407039D01*
X110091096Y37486912D01*
X110107224Y37497859D01*
X110152909Y37584097D01*
X110149747Y37791273D01*
X110125300Y37946928D01*
X113728990Y38582356D01*
X113769216Y38580217D01*
X113889159Y38654575D01*
X113938908Y38720904D01*
X113962488Y38850186D01*
X113866561Y38935330D01*
X113728075Y38976959D01*
X113675574Y38956047D01*
X113694426Y38908495D01*
X113728725Y38910182D01*
X113823234Y38867313D01*
X113844343Y38748713D01*
X113779661Y38636608D01*
X113770849Y38630656D01*
X113728990Y38582356D01*
X110125300Y37946928D01*
X110104349Y38080332D01*
X110023331Y38412219D01*
X109992603Y38505960D01*
X114908106Y39372696D01*
X115191667Y39606191D01*
X115362255Y39764478D01*
X115406620Y39868030D01*
X115359008Y39938284D01*
X115211626Y40014640D01*
X115148997Y40019025D01*
X115131315Y39979687D01*
X115194552Y39942270D01*
X115267978Y39883155D01*
X115238048Y39781752D01*
X115121001Y39628032D01*
X114908106Y39372696D01*
X109992603Y38505960D01*
X109913304Y38747877D01*
X109882011Y38827878D01*
X109823530Y38936710D01*
X114651990Y39788098D01*
X114707691Y39777941D01*
X114878744Y39848699D01*
X114944388Y39898291D01*
X114998850Y39972366D01*
X114936836Y39969571D01*
X114789798Y39895453D01*
X114735937Y39861536D01*
X114651990Y39788098D01*
X109823530Y38936710D01*
X109726347Y39117561D01*
X109625393Y39243248D01*
X116335218Y40426371D01*
X116445068Y40502400D01*
X116592702Y40637123D01*
X116653169Y40725506D01*
X116623442Y40833230D01*
X116492280Y40909092D01*
X116355277Y40916893D01*
X116352117Y40881663D01*
X116435697Y40840739D01*
X116540631Y40786712D01*
X116532091Y40707050D01*
X116438497Y40581074D01*
X116332822Y40446448D01*
X116335218Y40426371D01*
X109625393Y39243248D01*
X109477902Y39426871D01*
X109114754Y39784734D01*
X108511414Y40338000D01*
X108527846Y40368417D01*
X109045240Y40459647D01*
X109128228Y40523693D01*
X109201121Y40597164D01*
X109376768Y40752585D01*
X109519597Y40793079D01*
X109615874Y40772703D01*
X109790443Y40730061D01*
X109870746Y40726569D01*
X109849399Y40759380D01*
X109707304Y40818926D01*
X109686665Y40825953D01*
X109424909Y40853269D01*
X109212267Y40731259D01*
X109066359Y40526566D01*
X109045240Y40459647D01*
X108527846Y40368417D01*
X108701518Y40689888D01*
X108849804Y40920605D01*
X109022568Y41059295D01*
X109290333Y41161790D01*
X109302106Y41165352D01*
X109632812Y41292564D01*
X109963155Y41461175D01*
X110052872Y41517261D01*
X110258312Y41668999D01*
X110355131Y41807306D01*
X110379346Y42003882D01*
X110374960Y42158431D01*
X110376853Y42554808D01*
X110419299Y42834673D01*
X110498301Y42976195D01*
X110526961Y42988155D01*
X110635009Y42940652D01*
X110782136Y42805546D01*
X110788860Y42797910D01*
X110956461Y42612037D01*
X111173996Y42378628D01*
X111271782Y42275881D01*
X111576050Y41958775D01*
X111449628Y41722886D01*
X111351937Y41462073D01*
X111312586Y41232291D01*
X111247472Y40983544D01*
X111118256Y40772199D01*
X111016682Y40638904D01*
X111008099Y40580916D01*
X111016248Y40581219D01*
X111142778Y40677969D01*
X111163877Y40713776D01*
X116811609Y41709624D01*
X116895922Y41710723D01*
X117001364Y41745123D01*
X116997636Y41773813D01*
X116882531Y41774040D01*
X116836663Y41752217D01*
X116811609Y41709624D01*
X111163877Y40713776D01*
X111271183Y40895883D01*
X111377825Y41188726D01*
X111419590Y41370210D01*
X111515708Y41667060D01*
X111662442Y41806142D01*
X111850061Y41784055D01*
X112068833Y41597398D01*
X112069024Y41597173D01*
X112247796Y41424084D01*
X112411755Y41321423D01*
X112442121Y41312956D01*
X112541003Y41304270D01*
X112486847Y41347636D01*
X112446554Y41370539D01*
X112299753Y41486119D01*
X112116308Y41671907D01*
X112068032Y41727292D01*
X111835849Y42002172D01*
X112089682Y42182466D01*
X112337569Y42311758D01*
X112643777Y42412661D01*
X112731112Y42431105D01*
X113094069Y42530660D01*
X113381821Y42701566D01*
X113614534Y42967633D01*
X113812375Y43352668D01*
X113995512Y43880479D01*
X114015290Y43947132D01*
X114159417Y44378825D01*
X114315237Y44744577D01*
X114467659Y45014710D01*
X114601591Y45159543D01*
X114639523Y45174848D01*
X114681471Y45102010D01*
G37*
X114681471Y45102010D02*
X114738253Y44893989D01*
X114802153Y44583424D01*
X114858900Y44246336D01*
X114923860Y43856549D01*
X114989259Y43522906D01*
X115046783Y43284713D01*
X115082906Y43187194D01*
X115087631Y43089181D01*
X114988661Y42935565D01*
X114772350Y42707495D01*
X114654955Y42595898D01*
X114328179Y42290472D01*
X114113837Y42087967D01*
X114000434Y41975916D01*
X113976472Y41941854D01*
X114030454Y41973312D01*
X114150882Y42057825D01*
X114173836Y42074215D01*
X114351471Y42220610D01*
X114609832Y42458261D01*
X114914365Y42754391D01*
X115230514Y43076228D01*
X115232806Y43078619D01*
X115615323Y43462837D01*
X115911289Y43721743D01*
X116137064Y43864498D01*
X116309005Y43900263D01*
X116443471Y43838202D01*
X116493193Y43784551D01*
X116536345Y43695681D01*
X116524406Y43578022D01*
X116445358Y43400339D01*
X116287183Y43131397D01*
X116171012Y42947214D01*
X115984299Y42636140D01*
X115844021Y42366694D01*
X115769178Y42177360D01*
X115762925Y42120688D01*
X115792792Y42034611D01*
X115818787Y42114604D01*
X115819022Y42115860D01*
X115871412Y42284736D01*
X115961811Y42502047D01*
X116049392Y42656063D01*
X116163123Y42735067D01*
X116361439Y42769402D01*
X116493967Y42778371D01*
X116809348Y42821210D01*
X117017202Y42918486D01*
X117078076Y42971712D01*
X117261626Y43109465D01*
X117409601Y43170077D01*
X117567714Y43240009D01*
X117783918Y43384731D01*
X117890976Y43470366D01*
X118083910Y43615051D01*
X118224626Y43685264D01*
X118264665Y43681521D01*
X118292504Y43566044D01*
X118296977Y43350165D01*
X118292281Y43264688D01*
X118238799Y42997485D01*
X118100162Y42758127D01*
X117926492Y42563998D01*
X117727704Y42353828D01*
X117576127Y42178369D01*
X117521667Y42103182D01*
X117395340Y41985453D01*
X117254147Y41913851D01*
X117144392Y41868693D01*
X117184196Y41860822D01*
X117325074Y41877288D01*
X117540259Y41879042D01*
X117601750Y41816739D01*
X117505575Y41705416D01*
X117389824Y41631962D01*
X117210240Y41517654D01*
X117172991Y41462394D01*
X117279239Y41477583D01*
X117377591Y41511734D01*
X117528337Y41550545D01*
X117572363Y41488826D01*
X117568728Y41426048D01*
X117549083Y41215679D01*
X117534670Y41013600D01*
X117476626Y40763635D01*
X117362981Y40523645D01*
X117200513Y40164701D01*
X117158850Y39807188D01*
X117243709Y39502397D01*
X117248286Y39494575D01*
X117350844Y39312563D01*
X117356911Y39227084D01*
X117255698Y39188633D01*
X117178576Y39174592D01*
X116993189Y39080451D01*
X116774740Y38878590D01*
X116686692Y38773539D01*
X116491296Y38553033D01*
X116349824Y38479995D01*
X116239398Y38550975D01*
X116163968Y38694785D01*
X116143707Y38721623D01*
X116167224Y38610737D01*
X116196788Y38501787D01*
X116296706Y38148674D01*
X116021851Y38234515D01*
X115802469Y38287359D01*
X115645021Y38298525D01*
X115639293Y38297488D01*
X115635356Y38266759D01*
X115765004Y38220763D01*
X115799622Y38212290D01*
X116067654Y38149959D01*
X115883604Y37979791D01*
X115665084Y37815299D01*
X115333049Y37609432D01*
X114930728Y37384886D01*
X114501350Y37164354D01*
X114088144Y36970530D01*
X113734340Y36826109D01*
X113602435Y36782216D01*
X113292493Y36677835D01*
X113024601Y36565843D01*
X112880904Y36486034D01*
X112628902Y36380349D01*
X112471103Y36372253D01*
X112258192Y36373837D01*
X111966191Y36349452D01*
X111815368Y36328943D01*
X111492168Y36305176D01*
X111179746Y36324155D01*
X111069863Y36346264D01*
X110849530Y36435713D01*
X110722839Y36586684D01*
X110657696Y36756031D01*
X110625492Y36814930D01*
X113595759Y37338668D01*
X113624587Y37298766D01*
X113681482Y37246875D01*
X113877746Y37147178D01*
X114047152Y37185608D01*
X114141485Y37347367D01*
X114146867Y37389725D01*
X114135573Y37593254D01*
X114099904Y37703843D01*
X114066284Y37707365D01*
X114070999Y37577581D01*
X114071957Y37570947D01*
X114048781Y37351186D01*
X113921728Y37244542D01*
X113722848Y37276104D01*
X113706195Y37284601D01*
X113595759Y37338668D01*
X110625492Y36814930D01*
X110472139Y37095395D01*
X110281447Y37280253D01*
X110171965Y37374727D01*
X112454471Y37777194D01*
X112481222Y37747198D01*
X112486438Y37748016D01*
X112658873Y37822872D01*
X112720478Y37869315D01*
X112799824Y37967458D01*
X112761495Y37989360D01*
X112639336Y37934382D01*
X112550457Y37872524D01*
X112454471Y37777194D01*
X110171965Y37374727D01*
X110134519Y37407039D01*
X110091096Y37486912D01*
X110107224Y37497859D01*
X110152909Y37584097D01*
X110149747Y37791273D01*
X110125300Y37946928D01*
X113728990Y38582356D01*
X113769216Y38580217D01*
X113889159Y38654575D01*
X113938908Y38720904D01*
X113962488Y38850186D01*
X113866561Y38935330D01*
X113728075Y38976959D01*
X113675574Y38956047D01*
X113694426Y38908495D01*
X113728725Y38910182D01*
X113823234Y38867313D01*
X113844343Y38748713D01*
X113779661Y38636608D01*
X113770849Y38630656D01*
X113728990Y38582356D01*
X110125300Y37946928D01*
X110104349Y38080332D01*
X110023331Y38412219D01*
X109992603Y38505960D01*
X114908106Y39372696D01*
X115191667Y39606191D01*
X115362255Y39764478D01*
X115406620Y39868030D01*
X115359008Y39938284D01*
X115211626Y40014640D01*
X115148997Y40019025D01*
X115131315Y39979687D01*
X115194552Y39942270D01*
X115267978Y39883155D01*
X115238048Y39781752D01*
X115121001Y39628032D01*
X114908106Y39372696D01*
X109992603Y38505960D01*
X109913304Y38747877D01*
X109882011Y38827878D01*
X109823530Y38936710D01*
X114651990Y39788098D01*
X114707691Y39777941D01*
X114878744Y39848699D01*
X114944388Y39898291D01*
X114998850Y39972366D01*
X114936836Y39969571D01*
X114789798Y39895453D01*
X114735937Y39861536D01*
X114651990Y39788098D01*
X109823530Y38936710D01*
X109726347Y39117561D01*
X109625393Y39243248D01*
X116335218Y40426371D01*
X116445068Y40502400D01*
X116592702Y40637123D01*
X116653169Y40725506D01*
X116623442Y40833230D01*
X116492280Y40909092D01*
X116355277Y40916893D01*
X116352117Y40881663D01*
X116435697Y40840739D01*
X116540631Y40786712D01*
X116532091Y40707050D01*
X116438497Y40581074D01*
X116332822Y40446448D01*
X116335218Y40426371D01*
X109625393Y39243248D01*
X109477902Y39426871D01*
X109114754Y39784734D01*
X108511414Y40338000D01*
X108527846Y40368417D01*
X109045240Y40459647D01*
X109128228Y40523693D01*
X109201121Y40597164D01*
X109376768Y40752585D01*
X109519597Y40793079D01*
X109615874Y40772703D01*
X109790443Y40730061D01*
X109870746Y40726569D01*
X109849399Y40759380D01*
X109707304Y40818926D01*
X109686665Y40825953D01*
X109424909Y40853269D01*
X109212267Y40731259D01*
X109066359Y40526566D01*
X109045240Y40459647D01*
X108527846Y40368417D01*
X108701518Y40689888D01*
X108849804Y40920605D01*
X109022568Y41059295D01*
X109290333Y41161790D01*
X109302106Y41165352D01*
X109632812Y41292564D01*
X109963155Y41461175D01*
X110052872Y41517261D01*
X110258312Y41668999D01*
X110355131Y41807306D01*
X110379346Y42003882D01*
X110374960Y42158431D01*
X110376853Y42554808D01*
X110419299Y42834673D01*
X110498301Y42976195D01*
X110526961Y42988155D01*
X110635009Y42940652D01*
X110782136Y42805546D01*
X110788860Y42797910D01*
X110956461Y42612037D01*
X111173996Y42378628D01*
X111271782Y42275881D01*
X111576050Y41958775D01*
X111449628Y41722886D01*
X111351937Y41462073D01*
X111312586Y41232291D01*
X111247472Y40983544D01*
X111118256Y40772199D01*
X111016682Y40638904D01*
X111008099Y40580916D01*
X111016248Y40581219D01*
X111142778Y40677969D01*
X111163877Y40713776D01*
X116811609Y41709624D01*
X116895922Y41710723D01*
X117001364Y41745123D01*
X116997636Y41773813D01*
X116882531Y41774040D01*
X116836663Y41752217D01*
X116811609Y41709624D01*
X111163877Y40713776D01*
X111271183Y40895883D01*
X111377825Y41188726D01*
X111419590Y41370210D01*
X111515708Y41667060D01*
X111662442Y41806142D01*
X111850061Y41784055D01*
X112068833Y41597398D01*
X112069024Y41597173D01*
X112247796Y41424084D01*
X112411755Y41321423D01*
X112442121Y41312956D01*
X112541003Y41304270D01*
X112486847Y41347636D01*
X112446554Y41370539D01*
X112299753Y41486119D01*
X112116308Y41671907D01*
X112068032Y41727292D01*
X111835849Y42002172D01*
X112089682Y42182466D01*
X112337569Y42311758D01*
X112643777Y42412661D01*
X112731112Y42431105D01*
X113094069Y42530660D01*
X113381821Y42701566D01*
X113614534Y42967633D01*
X113812375Y43352668D01*
X113995512Y43880479D01*
X114015290Y43947132D01*
X114159417Y44378825D01*
X114315237Y44744577D01*
X114467659Y45014710D01*
X114601591Y45159543D01*
X114639523Y45174848D01*
X114681471Y45102010D01*
G36*
X110013845Y37284078D02*
G01*
X110245156Y37137225D01*
X110460099Y36946276D01*
X110571185Y36767968D01*
X110581218Y36631561D01*
X110493001Y36566312D01*
X110309334Y36601480D01*
X110199088Y36656257D01*
X109967108Y36747023D01*
X109676634Y36809436D01*
X109612881Y36816621D01*
X109250863Y36848744D01*
X109464971Y37092141D01*
X109655107Y37278879D01*
X109820830Y37341862D01*
X110013845Y37284078D01*
G37*
X110013845Y37284078D02*
X110245156Y37137225D01*
X110460099Y36946276D01*
X110571185Y36767968D01*
X110581218Y36631561D01*
X110493001Y36566312D01*
X110309334Y36601480D01*
X110199088Y36656257D01*
X109967108Y36747023D01*
X109676634Y36809436D01*
X109612881Y36816621D01*
X109250863Y36848744D01*
X109464971Y37092141D01*
X109655107Y37278879D01*
X109820830Y37341862D01*
X110013845Y37284078D01*
G36*
X106586122Y38481113D02*
G01*
X106557787Y38419507D01*
X106275270Y37880379D01*
X106017965Y37480416D01*
X105818676Y37253772D01*
X105623492Y37117641D01*
X105411015Y37022611D01*
X105231866Y36984950D01*
X105136671Y37020931D01*
X105132824Y37033331D01*
X105190936Y37114710D01*
X105349323Y37230269D01*
X105389577Y37254232D01*
X105589298Y37405544D01*
X105827339Y37636844D01*
X105997096Y37831324D01*
X106200418Y38080625D01*
X106381740Y38295665D01*
X106481049Y38407317D01*
X106580490Y38505921D01*
X106586122Y38481113D01*
G37*
X106586122Y38481113D02*
X106557787Y38419507D01*
X106275270Y37880379D01*
X106017965Y37480416D01*
X105818676Y37253772D01*
X105623492Y37117641D01*
X105411015Y37022611D01*
X105231866Y36984950D01*
X105136671Y37020931D01*
X105132824Y37033331D01*
X105190936Y37114710D01*
X105349323Y37230269D01*
X105389577Y37254232D01*
X105589298Y37405544D01*
X105827339Y37636844D01*
X105997096Y37831324D01*
X106200418Y38080625D01*
X106381740Y38295665D01*
X106481049Y38407317D01*
X106580490Y38505921D01*
X106586122Y38481113D01*
G36*
X107145859Y40915597D02*
G01*
X107214022Y40855200D01*
X107377783Y40685922D01*
X107400889Y40586073D01*
X107280871Y40527208D01*
X107183793Y40507263D01*
X107008468Y40491589D01*
X106947130Y40559623D01*
X106946641Y40701871D01*
X106971373Y40920355D01*
X107028160Y40986081D01*
X107145859Y40915597D01*
G37*
X107145859Y40915597D02*
X107214022Y40855200D01*
X107377783Y40685922D01*
X107400889Y40586073D01*
X107280871Y40527208D01*
X107183793Y40507263D01*
X107008468Y40491589D01*
X106947130Y40559623D01*
X106946641Y40701871D01*
X106971373Y40920355D01*
X107028160Y40986081D01*
X107145859Y40915597D01*
G36*
X108743395Y38461928D02*
G01*
X108745422Y38453187D01*
X108705521Y38260261D01*
X108522618Y38028683D01*
X108338116Y37870671D01*
X108210917Y37780139D01*
X108193334Y37798762D01*
X108236528Y37881368D01*
X108376134Y38046846D01*
X108463456Y38109294D01*
X108594716Y38243980D01*
X108659424Y38383603D01*
X108708321Y38504597D01*
X108743395Y38461928D01*
G37*
X108743395Y38461928D02*
X108745422Y38453187D01*
X108705521Y38260261D01*
X108522618Y38028683D01*
X108338116Y37870671D01*
X108210917Y37780139D01*
X108193334Y37798762D01*
X108236528Y37881368D01*
X108376134Y38046846D01*
X108463456Y38109294D01*
X108594716Y38243980D01*
X108659424Y38383603D01*
X108708321Y38504597D01*
X108743395Y38461928D01*
G36*
X108418812Y38596254D02*
G01*
X108425736Y38492566D01*
X108372090Y38367664D01*
X108256113Y38222819D01*
X108120429Y38098034D01*
X108007664Y38033313D01*
X107961406Y38056797D01*
X108002664Y38161653D01*
X108116026Y38330071D01*
X108257807Y38502061D01*
X108352937Y38594410D01*
X108418812Y38596254D01*
G37*
X108418812Y38596254D02*
X108425736Y38492566D01*
X108372090Y38367664D01*
X108256113Y38222819D01*
X108120429Y38098034D01*
X108007664Y38033313D01*
X107961406Y38056797D01*
X108002664Y38161653D01*
X108116026Y38330071D01*
X108257807Y38502061D01*
X108352937Y38594410D01*
X108418812Y38596254D01*
%TD*%
D11*
%TO.C,S6*%
X80494181Y67773257D03*
X69894181Y67773257D03*
X70614181Y57923257D03*
X77194181Y57623257D03*
X79774181Y57923257D03*
X73194181Y57623257D03*
%TD*%
D12*
%TO.C,S1*%
X34204932Y28366167D03*
D13*
X39517524Y29789672D03*
X28892340Y26942662D03*
D14*
X38051049Y33330780D03*
X32677900Y34065129D03*
X28391790Y30742590D03*
X32677900Y34065129D03*
%TD*%
D12*
%TO.C,S2*%
X56760365Y38722194D03*
D13*
X62239436Y39201551D03*
X51281294Y38242837D03*
D14*
X61410147Y42943513D03*
X56246146Y44599743D03*
X51448200Y42071955D03*
X56246146Y44599743D03*
%TD*%
D11*
%TO.C,S3*%
X60144559Y60851355D03*
X49584895Y59927504D03*
X51160640Y50177739D03*
X57741747Y50452365D03*
X60285783Y50976085D03*
X53756969Y50103742D03*
%TD*%
D12*
%TO.C,S4*%
X53797069Y72592816D03*
D13*
X59276140Y73072173D03*
X48317998Y72113459D03*
D14*
X58446851Y76814135D03*
X53282850Y78470365D03*
X48484904Y75942577D03*
X53282850Y78470365D03*
%TD*%
D12*
%TO.C,S5*%
X75194181Y46023257D03*
D13*
X80694181Y46023257D03*
X69694181Y46023257D03*
D14*
X80194181Y49823257D03*
X75194181Y51923257D03*
X70194181Y49823257D03*
X75194181Y51923257D03*
%TD*%
D12*
%TO.C,S7*%
X75194181Y80023257D03*
D13*
X80694181Y80023257D03*
X69694181Y80023257D03*
D14*
X80194181Y83823257D03*
X75194181Y85923257D03*
X70194181Y83823257D03*
X75194181Y85923257D03*
%TD*%
D12*
%TO.C,S8*%
X93194181Y40356591D03*
D13*
X98694181Y40356591D03*
X87694181Y40356591D03*
D14*
X98194181Y44156591D03*
X93194181Y46256591D03*
X88194181Y44156591D03*
X93194181Y46256591D03*
%TD*%
D11*
%TO.C,S9*%
X98494181Y62106591D03*
X87894181Y62106591D03*
X88614181Y52256591D03*
X95194181Y51956591D03*
X97774181Y52256591D03*
X91194181Y51956591D03*
%TD*%
D12*
%TO.C,S10*%
X93194181Y74356591D03*
D13*
X98694181Y74356591D03*
X87694181Y74356591D03*
D14*
X98194181Y78156591D03*
X93194181Y80256591D03*
X88194181Y78156591D03*
X93194181Y80256591D03*
%TD*%
D12*
%TO.C,S11*%
X111194181Y53956591D03*
D13*
X116694181Y53956591D03*
X105694181Y53956591D03*
D14*
X116194181Y57756591D03*
X111194181Y59856591D03*
X106194181Y57756591D03*
X111194181Y59856591D03*
%TD*%
D12*
%TO.C,S12*%
X108694181Y16956590D03*
D13*
X114006773Y15533085D03*
X103381589Y18380095D03*
D14*
X114507323Y19333013D03*
X110221213Y22655552D03*
X104848064Y21921203D03*
X110221213Y22655552D03*
%TD*%
D12*
%TO.C,S13*%
X127100376Y10257284D03*
D13*
X132085069Y7932884D03*
X122115683Y12581684D03*
D14*
X133237864Y11588162D03*
X129593824Y15604500D03*
X124174786Y15814345D03*
X129593824Y15604500D03*
%TD*%
%TO.C,MCU1*%
G36*
G01*
X39516901Y72243187D02*
X41262832Y72395936D01*
G75*
G02*
X41317000Y72350484I4358J-49810D01*
G01*
X41469749Y70604553D01*
G75*
G02*
X41424297Y70550385I-49810J-4358D01*
G01*
X39678366Y70397636D01*
G75*
G02*
X39624198Y70443088I-4358J49810D01*
G01*
X39471449Y72189019D01*
G75*
G02*
X39516901Y72243187I49810J4358D01*
G01*
G37*
D15*
X40691974Y68866451D03*
X40913350Y66336117D03*
X41134726Y63805782D03*
X41356101Y61275448D03*
X41577477Y58745113D03*
X41798852Y56214778D03*
X42020228Y53684444D03*
X42241604Y51154109D03*
X42462979Y48623775D03*
X42684355Y46093440D03*
X42905730Y43563106D03*
X25288592Y70068532D03*
X25509967Y67538198D03*
X25731343Y65007863D03*
X25952718Y62477529D03*
X26174094Y59947194D03*
X26395470Y57416860D03*
X26616845Y54886525D03*
X26838221Y52356190D03*
X27059596Y49825856D03*
X27280972Y47295521D03*
X27502348Y44765187D03*
X27723723Y42234852D03*
%TD*%
D16*
%TO.C,REF\u002A\u002A*%
X106894182Y66756591D03*
X106894182Y73756591D03*
D17*
X109194182Y64056591D03*
X104594182Y65156591D03*
X104594182Y69156591D03*
X104594182Y72156591D03*
X104594182Y64056591D03*
X109194182Y65156591D03*
X109194182Y69156591D03*
X109194182Y72156591D03*
%TD*%
M02*
