%TF.GenerationSoftware,KiCad,Pcbnew,(5.1.10)-1*%
%TF.CreationDate,2021-07-20T22:45:32+02:00*%
%TF.ProjectId,metasepia_pfefferi_v2,6d657461-7365-4706-9961-5f7066656666,VERSION_HERE*%
%TF.SameCoordinates,Original*%
%TF.FileFunction,Copper,L2,Bot*%
%TF.FilePolarity,Positive*%
%FSLAX46Y46*%
G04 Gerber Fmt 4.6, Leading zero omitted, Abs format (unit mm)*
G04 Created by KiCad (PCBNEW (5.1.10)-1) date 2021-07-20 22:45:32*
%MOMM*%
%LPD*%
G01*
G04 APERTURE LIST*
%TA.AperFunction,EtchedComponent*%
%ADD10C,0.010000*%
%TD*%
%TA.AperFunction,ComponentPad*%
%ADD11C,1.600000*%
%TD*%
%TA.AperFunction,ComponentPad*%
%ADD12C,2.032000*%
%TD*%
%TA.AperFunction,ComponentPad*%
%ADD13C,0.100000*%
%TD*%
%TA.AperFunction,ComponentPad*%
%ADD14C,1.752600*%
%TD*%
%TA.AperFunction,ComponentPad*%
%ADD15O,1.600000X2.200000*%
%TD*%
%TA.AperFunction,Conductor*%
%ADD16C,0.250000*%
%TD*%
G04 APERTURE END LIST*
D10*
%TO.C,G\u002A\u002A\u002A*%
G36*
X108339673Y33387801D02*
G01*
X108452661Y33204518D01*
X108536949Y33062442D01*
X108783499Y32741954D01*
X109021993Y32589145D01*
X109235155Y32491804D01*
X109279976Y32411544D01*
X109156526Y32347799D01*
X109054693Y32325847D01*
X108857005Y32329754D01*
X108629501Y32423156D01*
X108361830Y32598445D01*
X108133052Y32771285D01*
X107970167Y32909026D01*
X107911430Y32976891D01*
X107947056Y33075380D01*
X108044391Y33227669D01*
X108161222Y33377229D01*
X108255336Y33467531D01*
X108281343Y33472250D01*
X108339673Y33387801D01*
G37*
X108339673Y33387801D02*
X108452661Y33204518D01*
X108536949Y33062442D01*
X108783499Y32741954D01*
X109021993Y32589145D01*
X109235155Y32491804D01*
X109279976Y32411544D01*
X109156526Y32347799D01*
X109054693Y32325847D01*
X108857005Y32329754D01*
X108629501Y32423156D01*
X108361830Y32598445D01*
X108133052Y32771285D01*
X107970167Y32909026D01*
X107911430Y32976891D01*
X107947056Y33075380D01*
X108044391Y33227669D01*
X108161222Y33377229D01*
X108255336Y33467531D01*
X108281343Y33472250D01*
X108339673Y33387801D01*
G36*
X107661184Y40445158D02*
G01*
X108130871Y40346802D01*
X108608647Y40094341D01*
X108911473Y39853928D01*
X109120701Y39657561D01*
X109264225Y39508356D01*
X109311349Y39438254D01*
X109311194Y39438007D01*
X109223029Y39443103D01*
X109038479Y39508769D01*
X108808400Y39611949D01*
X108583651Y39729589D01*
X108415088Y39838632D01*
X108399630Y39851248D01*
X108205610Y39940557D01*
X108048679Y39879984D01*
X107972719Y39702571D01*
X107902535Y39551941D01*
X107748741Y39350497D01*
X107656507Y39252420D01*
X107335510Y38833025D01*
X107162192Y38369281D01*
X107145944Y37889080D01*
X107163528Y37787994D01*
X107213224Y37559301D01*
X107234511Y37489835D01*
X107233022Y37572947D01*
X107221326Y37719765D01*
X107228620Y37862041D01*
X107781088Y37959456D01*
X107836510Y37805417D01*
X107891458Y37757926D01*
X108132972Y37678144D01*
X108393562Y37765025D01*
X108634305Y37973287D01*
X108803957Y38234051D01*
X108833795Y38476959D01*
X108721253Y38669905D01*
X108691826Y38692628D01*
X108483286Y38752288D01*
X108255251Y38648851D01*
X108066675Y38461360D01*
X107856270Y38171927D01*
X107781088Y37959456D01*
X107228620Y37862041D01*
X107244983Y38181154D01*
X107410272Y38578584D01*
X107705563Y38923739D01*
X107948307Y39196865D01*
X108056894Y39450466D01*
X108066584Y39523783D01*
X108123387Y39750137D01*
X108242892Y39820088D01*
X108416337Y39730747D01*
X108487128Y39662416D01*
X108647485Y39536213D01*
X108777200Y39498631D01*
X108969897Y39457658D01*
X109199857Y39302143D01*
X109427067Y39068221D01*
X109611515Y38792022D01*
X109651215Y38709359D01*
X109765738Y38474276D01*
X109867197Y38313523D01*
X109909064Y38274320D01*
X109975586Y38177022D01*
X110037473Y37976449D01*
X110050180Y37912590D01*
X110075149Y37696462D01*
X110035719Y37592448D01*
X109918223Y37550505D01*
X109712298Y37460997D01*
X109497046Y37289535D01*
X109317361Y37083168D01*
X109218139Y36888943D01*
X109212716Y36811178D01*
X109295607Y36765721D01*
X109491362Y36726202D01*
X109595118Y36714667D01*
X109879571Y36650448D01*
X110206185Y36494076D01*
X110567874Y36259573D01*
X110895114Y36015675D01*
X111124161Y35799770D01*
X111304660Y35557272D01*
X111466343Y35271728D01*
X111621685Y34962328D01*
X111708360Y34734974D01*
X111743210Y34525556D01*
X111743074Y34269963D01*
X111741160Y34225499D01*
X111718455Y33952991D01*
X111682868Y33753599D01*
X111653817Y33686023D01*
X111558025Y33701400D01*
X111343090Y33785646D01*
X111037236Y33924223D01*
X110668685Y34102590D01*
X110265663Y34306210D01*
X109856393Y34520543D01*
X109469098Y34731050D01*
X109132001Y34923193D01*
X108873326Y35082431D01*
X108721297Y35194225D01*
X108715732Y35199550D01*
X108569500Y35384593D01*
X108485726Y35618023D01*
X108447144Y35867284D01*
X108411974Y36109330D01*
X108374522Y36256843D01*
X108351742Y36280318D01*
X108337620Y36182534D01*
X108341907Y35961866D01*
X108363530Y35663638D01*
X108367240Y35624772D01*
X108381679Y35053937D01*
X108324985Y34466297D01*
X108206452Y33922844D01*
X108043499Y33500075D01*
X107748628Y33098011D01*
X107343755Y32779057D01*
X106868380Y32558294D01*
X106361998Y32450800D01*
X105864104Y32471655D01*
X105573556Y32557073D01*
X105232738Y32714264D01*
X105014902Y32866739D01*
X104879054Y33052032D01*
X104795568Y33269439D01*
X104754381Y33612092D01*
X104825198Y33884100D01*
X104926534Y34062802D01*
X105028834Y34149090D01*
X105097161Y34128087D01*
X105099966Y34001115D01*
X105137886Y33895356D01*
X105284093Y33865140D01*
X105501438Y33899281D01*
X105752769Y33986592D01*
X106000939Y34115889D01*
X106208796Y34275984D01*
X106280377Y34356538D01*
X106392782Y34531121D01*
X106535381Y34787660D01*
X106686973Y35082969D01*
X106826358Y35373859D01*
X106932336Y35617144D01*
X106983707Y35769637D01*
X106985147Y35792228D01*
X106938944Y35801139D01*
X106842996Y35692567D01*
X106719159Y35502478D01*
X106589295Y35266841D01*
X106475260Y35021620D01*
X106412155Y34849428D01*
X106248991Y34496105D01*
X106019687Y34231216D01*
X105754254Y34071394D01*
X105482705Y34033265D01*
X105235047Y34133461D01*
X105190235Y34172322D01*
X105122710Y34244307D01*
X105093681Y34317047D01*
X105115132Y34415586D01*
X105199054Y34564965D01*
X105357433Y34790226D01*
X105602256Y35116411D01*
X105710194Y35258540D01*
X106035809Y35697039D01*
X106267393Y36037921D01*
X106421341Y36311942D01*
X106514049Y36549856D01*
X106561914Y36782419D01*
X106571640Y36874440D01*
X106580699Y37014489D01*
X106562422Y37007808D01*
X106502501Y36847978D01*
X106500565Y36842575D01*
X106345903Y36570067D01*
X106081798Y36353733D01*
X105795565Y36211664D01*
X105387973Y36115939D01*
X104965181Y36171229D01*
X104517209Y36381025D01*
X104034071Y36748820D01*
X103896006Y36875946D01*
X103745760Y37012821D01*
X103677788Y37035274D01*
X103651902Y36945832D01*
X103645690Y36891683D01*
X103573373Y36731602D01*
X103445214Y36698329D01*
X103321227Y36795172D01*
X103285991Y36871850D01*
X103274471Y37164788D01*
X103412897Y37460407D01*
X103535628Y37598155D01*
X103690275Y37711729D01*
X103867542Y37746036D01*
X104063975Y37732005D01*
X104280376Y37683694D01*
X104472192Y37574560D01*
X104688903Y37372167D01*
X104802442Y37247966D01*
X105057822Y36985775D01*
X105261074Y36859411D01*
X105454147Y36863906D01*
X105678990Y36994293D01*
X105839856Y37125106D01*
X106012283Y37292750D01*
X106180754Y37505837D01*
X106367140Y37796604D01*
X106593314Y38197291D01*
X106692862Y38382488D01*
X106725339Y38544407D01*
X106665786Y38653119D01*
X106557633Y38666692D01*
X106473948Y38593863D01*
X106360785Y38479677D01*
X106277274Y38517809D01*
X106212816Y38715794D01*
X106198731Y38789485D01*
X106196486Y38967406D01*
X106855209Y39083556D01*
X106866080Y39078768D01*
X106961002Y39144570D01*
X107110274Y39297136D01*
X107161049Y39356223D01*
X107366986Y39565439D01*
X107635633Y39791464D01*
X107767464Y39888062D01*
X107956413Y40027670D01*
X108051521Y40117744D01*
X108042940Y40137964D01*
X107895196Y40071455D01*
X107671878Y39919911D01*
X107417128Y39718050D01*
X107175089Y39500593D01*
X107007293Y39323452D01*
X106890338Y39167213D01*
X106855209Y39083556D01*
X106196486Y38967406D01*
X106192714Y39266628D01*
X106340089Y39694324D01*
X106627271Y40051270D01*
X107040674Y40316169D01*
X107215949Y40384289D01*
X107661184Y40445158D01*
G37*
X107661184Y40445158D02*
X108130871Y40346802D01*
X108608647Y40094341D01*
X108911473Y39853928D01*
X109120701Y39657561D01*
X109264225Y39508356D01*
X109311349Y39438254D01*
X109311194Y39438007D01*
X109223029Y39443103D01*
X109038479Y39508769D01*
X108808400Y39611949D01*
X108583651Y39729589D01*
X108415088Y39838632D01*
X108399630Y39851248D01*
X108205610Y39940557D01*
X108048679Y39879984D01*
X107972719Y39702571D01*
X107902535Y39551941D01*
X107748741Y39350497D01*
X107656507Y39252420D01*
X107335510Y38833025D01*
X107162192Y38369281D01*
X107145944Y37889080D01*
X107163528Y37787994D01*
X107213224Y37559301D01*
X107234511Y37489835D01*
X107233022Y37572947D01*
X107221326Y37719765D01*
X107228620Y37862041D01*
X107781088Y37959456D01*
X107836510Y37805417D01*
X107891458Y37757926D01*
X108132972Y37678144D01*
X108393562Y37765025D01*
X108634305Y37973287D01*
X108803957Y38234051D01*
X108833795Y38476959D01*
X108721253Y38669905D01*
X108691826Y38692628D01*
X108483286Y38752288D01*
X108255251Y38648851D01*
X108066675Y38461360D01*
X107856270Y38171927D01*
X107781088Y37959456D01*
X107228620Y37862041D01*
X107244983Y38181154D01*
X107410272Y38578584D01*
X107705563Y38923739D01*
X107948307Y39196865D01*
X108056894Y39450466D01*
X108066584Y39523783D01*
X108123387Y39750137D01*
X108242892Y39820088D01*
X108416337Y39730747D01*
X108487128Y39662416D01*
X108647485Y39536213D01*
X108777200Y39498631D01*
X108969897Y39457658D01*
X109199857Y39302143D01*
X109427067Y39068221D01*
X109611515Y38792022D01*
X109651215Y38709359D01*
X109765738Y38474276D01*
X109867197Y38313523D01*
X109909064Y38274320D01*
X109975586Y38177022D01*
X110037473Y37976449D01*
X110050180Y37912590D01*
X110075149Y37696462D01*
X110035719Y37592448D01*
X109918223Y37550505D01*
X109712298Y37460997D01*
X109497046Y37289535D01*
X109317361Y37083168D01*
X109218139Y36888943D01*
X109212716Y36811178D01*
X109295607Y36765721D01*
X109491362Y36726202D01*
X109595118Y36714667D01*
X109879571Y36650448D01*
X110206185Y36494076D01*
X110567874Y36259573D01*
X110895114Y36015675D01*
X111124161Y35799770D01*
X111304660Y35557272D01*
X111466343Y35271728D01*
X111621685Y34962328D01*
X111708360Y34734974D01*
X111743210Y34525556D01*
X111743074Y34269963D01*
X111741160Y34225499D01*
X111718455Y33952991D01*
X111682868Y33753599D01*
X111653817Y33686023D01*
X111558025Y33701400D01*
X111343090Y33785646D01*
X111037236Y33924223D01*
X110668685Y34102590D01*
X110265663Y34306210D01*
X109856393Y34520543D01*
X109469098Y34731050D01*
X109132001Y34923193D01*
X108873326Y35082431D01*
X108721297Y35194225D01*
X108715732Y35199550D01*
X108569500Y35384593D01*
X108485726Y35618023D01*
X108447144Y35867284D01*
X108411974Y36109330D01*
X108374522Y36256843D01*
X108351742Y36280318D01*
X108337620Y36182534D01*
X108341907Y35961866D01*
X108363530Y35663638D01*
X108367240Y35624772D01*
X108381679Y35053937D01*
X108324985Y34466297D01*
X108206452Y33922844D01*
X108043499Y33500075D01*
X107748628Y33098011D01*
X107343755Y32779057D01*
X106868380Y32558294D01*
X106361998Y32450800D01*
X105864104Y32471655D01*
X105573556Y32557073D01*
X105232738Y32714264D01*
X105014902Y32866739D01*
X104879054Y33052032D01*
X104795568Y33269439D01*
X104754381Y33612092D01*
X104825198Y33884100D01*
X104926534Y34062802D01*
X105028834Y34149090D01*
X105097161Y34128087D01*
X105099966Y34001115D01*
X105137886Y33895356D01*
X105284093Y33865140D01*
X105501438Y33899281D01*
X105752769Y33986592D01*
X106000939Y34115889D01*
X106208796Y34275984D01*
X106280377Y34356538D01*
X106392782Y34531121D01*
X106535381Y34787660D01*
X106686973Y35082969D01*
X106826358Y35373859D01*
X106932336Y35617144D01*
X106983707Y35769637D01*
X106985147Y35792228D01*
X106938944Y35801139D01*
X106842996Y35692567D01*
X106719159Y35502478D01*
X106589295Y35266841D01*
X106475260Y35021620D01*
X106412155Y34849428D01*
X106248991Y34496105D01*
X106019687Y34231216D01*
X105754254Y34071394D01*
X105482705Y34033265D01*
X105235047Y34133461D01*
X105190235Y34172322D01*
X105122710Y34244307D01*
X105093681Y34317047D01*
X105115132Y34415586D01*
X105199054Y34564965D01*
X105357433Y34790226D01*
X105602256Y35116411D01*
X105710194Y35258540D01*
X106035809Y35697039D01*
X106267393Y36037921D01*
X106421341Y36311942D01*
X106514049Y36549856D01*
X106561914Y36782419D01*
X106571640Y36874440D01*
X106580699Y37014489D01*
X106562422Y37007808D01*
X106502501Y36847978D01*
X106500565Y36842575D01*
X106345903Y36570067D01*
X106081798Y36353733D01*
X105795565Y36211664D01*
X105387973Y36115939D01*
X104965181Y36171229D01*
X104517209Y36381025D01*
X104034071Y36748820D01*
X103896006Y36875946D01*
X103745760Y37012821D01*
X103677788Y37035274D01*
X103651902Y36945832D01*
X103645690Y36891683D01*
X103573373Y36731602D01*
X103445214Y36698329D01*
X103321227Y36795172D01*
X103285991Y36871850D01*
X103274471Y37164788D01*
X103412897Y37460407D01*
X103535628Y37598155D01*
X103690275Y37711729D01*
X103867542Y37746036D01*
X104063975Y37732005D01*
X104280376Y37683694D01*
X104472192Y37574560D01*
X104688903Y37372167D01*
X104802442Y37247966D01*
X105057822Y36985775D01*
X105261074Y36859411D01*
X105454147Y36863906D01*
X105678990Y36994293D01*
X105839856Y37125106D01*
X106012283Y37292750D01*
X106180754Y37505837D01*
X106367140Y37796604D01*
X106593314Y38197291D01*
X106692862Y38382488D01*
X106725339Y38544407D01*
X106665786Y38653119D01*
X106557633Y38666692D01*
X106473948Y38593863D01*
X106360785Y38479677D01*
X106277274Y38517809D01*
X106212816Y38715794D01*
X106198731Y38789485D01*
X106196486Y38967406D01*
X106855209Y39083556D01*
X106866080Y39078768D01*
X106961002Y39144570D01*
X107110274Y39297136D01*
X107161049Y39356223D01*
X107366986Y39565439D01*
X107635633Y39791464D01*
X107767464Y39888062D01*
X107956413Y40027670D01*
X108051521Y40117744D01*
X108042940Y40137964D01*
X107895196Y40071455D01*
X107671878Y39919911D01*
X107417128Y39718050D01*
X107175089Y39500593D01*
X107007293Y39323452D01*
X106890338Y39167213D01*
X106855209Y39083556D01*
X106196486Y38967406D01*
X106192714Y39266628D01*
X106340089Y39694324D01*
X106627271Y40051270D01*
X107040674Y40316169D01*
X107215949Y40384289D01*
X107661184Y40445158D01*
G36*
X106204922Y36182634D02*
G01*
X106061772Y36008538D01*
X105827512Y35756189D01*
X105513041Y35438011D01*
X105190021Y35124323D01*
X104843388Y34780114D01*
X104621311Y34527035D01*
X104514064Y34353053D01*
X104501870Y34273158D01*
X104561988Y34144638D01*
X104617412Y34122618D01*
X104668424Y34079857D01*
X104644899Y33957931D01*
X104568654Y33816928D01*
X104472312Y33722968D01*
X104361271Y33714848D01*
X104331481Y33776755D01*
X104347790Y34072602D01*
X104476804Y34473737D01*
X104712771Y34964443D01*
X104861735Y35226171D01*
X105063627Y35555616D01*
X105217313Y35769862D01*
X105355331Y35902556D01*
X105510213Y35987342D01*
X105644535Y36035700D01*
X105907747Y36129438D01*
X106122941Y36219982D01*
X106174300Y36246369D01*
X106246065Y36266051D01*
X106204922Y36182634D01*
G37*
X106204922Y36182634D02*
X106061772Y36008538D01*
X105827512Y35756189D01*
X105513041Y35438011D01*
X105190021Y35124323D01*
X104843388Y34780114D01*
X104621311Y34527035D01*
X104514064Y34353053D01*
X104501870Y34273158D01*
X104561988Y34144638D01*
X104617412Y34122618D01*
X104668424Y34079857D01*
X104644899Y33957931D01*
X104568654Y33816928D01*
X104472312Y33722968D01*
X104361271Y33714848D01*
X104331481Y33776755D01*
X104347790Y34072602D01*
X104476804Y34473737D01*
X104712771Y34964443D01*
X104861735Y35226171D01*
X105063627Y35555616D01*
X105217313Y35769862D01*
X105355331Y35902556D01*
X105510213Y35987342D01*
X105644535Y36035700D01*
X105907747Y36129438D01*
X106122941Y36219982D01*
X106174300Y36246369D01*
X106246065Y36266051D01*
X106204922Y36182634D01*
G36*
X104974435Y35746835D02*
G01*
X104865196Y35538836D01*
X104746451Y35323952D01*
X104453090Y34859645D01*
X104126780Y34485973D01*
X103851792Y34243089D01*
X103574417Y34018480D01*
X103398496Y33883074D01*
X103294210Y33819114D01*
X103231740Y33808836D01*
X103181268Y33834483D01*
X103174119Y33839469D01*
X103095857Y33985052D01*
X103110538Y34200031D01*
X103197482Y34428245D01*
X103336016Y34613530D01*
X103490023Y34697584D01*
X103657223Y34769536D01*
X103908449Y34926089D01*
X104202985Y35137330D01*
X104500117Y35373349D01*
X104759129Y35604230D01*
X104852363Y35698444D01*
X104963837Y35811856D01*
X105005922Y35832913D01*
X104974435Y35746835D01*
G37*
X104974435Y35746835D02*
X104865196Y35538836D01*
X104746451Y35323952D01*
X104453090Y34859645D01*
X104126780Y34485973D01*
X103851792Y34243089D01*
X103574417Y34018480D01*
X103398496Y33883074D01*
X103294210Y33819114D01*
X103231740Y33808836D01*
X103181268Y33834483D01*
X103174119Y33839469D01*
X103095857Y33985052D01*
X103110538Y34200031D01*
X103197482Y34428245D01*
X103336016Y34613530D01*
X103490023Y34697584D01*
X103657223Y34769536D01*
X103908449Y34926089D01*
X104202985Y35137330D01*
X104500117Y35373349D01*
X104759129Y35604230D01*
X104852363Y35698444D01*
X104963837Y35811856D01*
X105005922Y35832913D01*
X104974435Y35746835D01*
G36*
X114681471Y45102010D02*
G01*
X114738253Y44893989D01*
X114802153Y44583424D01*
X114858900Y44246336D01*
X114923860Y43856549D01*
X114989259Y43522906D01*
X115046783Y43284713D01*
X115082906Y43187194D01*
X115087631Y43089181D01*
X114988661Y42935565D01*
X114772350Y42707495D01*
X114654955Y42595898D01*
X114328179Y42290472D01*
X114113837Y42087967D01*
X114000434Y41975916D01*
X113976472Y41941854D01*
X114030454Y41973312D01*
X114150882Y42057825D01*
X114173836Y42074215D01*
X114351471Y42220610D01*
X114609832Y42458261D01*
X114914365Y42754391D01*
X115230514Y43076228D01*
X115232806Y43078619D01*
X115615323Y43462837D01*
X115911289Y43721743D01*
X116137064Y43864498D01*
X116309005Y43900263D01*
X116443471Y43838202D01*
X116493193Y43784551D01*
X116536345Y43695681D01*
X116524406Y43578022D01*
X116445358Y43400339D01*
X116287183Y43131397D01*
X116171012Y42947214D01*
X115984299Y42636140D01*
X115844021Y42366694D01*
X115769178Y42177360D01*
X115762925Y42120688D01*
X115792792Y42034611D01*
X115818787Y42114604D01*
X115819022Y42115860D01*
X115871412Y42284736D01*
X115961811Y42502047D01*
X116049392Y42656063D01*
X116163123Y42735067D01*
X116361439Y42769402D01*
X116493967Y42778371D01*
X116809348Y42821210D01*
X117017202Y42918486D01*
X117078076Y42971712D01*
X117261626Y43109465D01*
X117409601Y43170077D01*
X117567714Y43240009D01*
X117783918Y43384731D01*
X117890976Y43470366D01*
X118083910Y43615051D01*
X118224626Y43685264D01*
X118264665Y43681521D01*
X118292504Y43566044D01*
X118296977Y43350165D01*
X118292281Y43264688D01*
X118238799Y42997485D01*
X118100162Y42758127D01*
X117926492Y42563998D01*
X117727704Y42353828D01*
X117576127Y42178369D01*
X117521667Y42103182D01*
X117395340Y41985453D01*
X117254147Y41913851D01*
X117144392Y41868693D01*
X117184196Y41860822D01*
X117325074Y41877288D01*
X117540259Y41879042D01*
X117601750Y41816739D01*
X117505575Y41705416D01*
X117389824Y41631962D01*
X117210240Y41517654D01*
X117172991Y41462394D01*
X117279239Y41477583D01*
X117377591Y41511734D01*
X117528337Y41550545D01*
X117572363Y41488826D01*
X117568728Y41426048D01*
X117549083Y41215679D01*
X117534670Y41013600D01*
X117476626Y40763635D01*
X117362981Y40523645D01*
X117200513Y40164701D01*
X117158850Y39807188D01*
X117243709Y39502397D01*
X117248286Y39494575D01*
X117350844Y39312563D01*
X117356911Y39227084D01*
X117255698Y39188633D01*
X117178576Y39174592D01*
X116993189Y39080451D01*
X116774740Y38878590D01*
X116686692Y38773539D01*
X116491296Y38553033D01*
X116349824Y38479995D01*
X116239398Y38550975D01*
X116163968Y38694785D01*
X116143707Y38721623D01*
X116167224Y38610737D01*
X116196788Y38501787D01*
X116296706Y38148674D01*
X116021851Y38234515D01*
X115802469Y38287359D01*
X115645021Y38298525D01*
X115639293Y38297488D01*
X115635356Y38266759D01*
X115765004Y38220763D01*
X115799622Y38212290D01*
X116067654Y38149959D01*
X115883604Y37979791D01*
X115665084Y37815299D01*
X115333049Y37609432D01*
X114930728Y37384886D01*
X114501350Y37164354D01*
X114088144Y36970530D01*
X113734340Y36826109D01*
X113602435Y36782216D01*
X113292493Y36677835D01*
X113024601Y36565843D01*
X112880904Y36486034D01*
X112628902Y36380349D01*
X112471103Y36372253D01*
X112258192Y36373837D01*
X111966191Y36349452D01*
X111815368Y36328943D01*
X111492168Y36305176D01*
X111179746Y36324155D01*
X111069863Y36346264D01*
X110849530Y36435713D01*
X110722839Y36586684D01*
X110657696Y36756031D01*
X110625492Y36814930D01*
X113595759Y37338668D01*
X113624587Y37298766D01*
X113681482Y37246875D01*
X113877746Y37147178D01*
X114047152Y37185608D01*
X114141485Y37347367D01*
X114146867Y37389725D01*
X114135573Y37593254D01*
X114099904Y37703843D01*
X114066284Y37707365D01*
X114070999Y37577581D01*
X114071957Y37570947D01*
X114048781Y37351186D01*
X113921728Y37244542D01*
X113722848Y37276104D01*
X113706195Y37284601D01*
X113595759Y37338668D01*
X110625492Y36814930D01*
X110472139Y37095395D01*
X110281447Y37280253D01*
X110171965Y37374727D01*
X112454471Y37777194D01*
X112481222Y37747198D01*
X112486438Y37748016D01*
X112658873Y37822872D01*
X112720478Y37869315D01*
X112799824Y37967458D01*
X112761495Y37989360D01*
X112639336Y37934382D01*
X112550457Y37872524D01*
X112454471Y37777194D01*
X110171965Y37374727D01*
X110134519Y37407039D01*
X110091096Y37486912D01*
X110107224Y37497859D01*
X110152909Y37584097D01*
X110149747Y37791273D01*
X110125300Y37946928D01*
X113728990Y38582356D01*
X113769216Y38580217D01*
X113889159Y38654575D01*
X113938908Y38720904D01*
X113962488Y38850186D01*
X113866561Y38935330D01*
X113728075Y38976959D01*
X113675574Y38956047D01*
X113694426Y38908495D01*
X113728725Y38910182D01*
X113823234Y38867313D01*
X113844343Y38748713D01*
X113779661Y38636608D01*
X113770849Y38630656D01*
X113728990Y38582356D01*
X110125300Y37946928D01*
X110104349Y38080332D01*
X110023331Y38412219D01*
X109992603Y38505960D01*
X114908106Y39372696D01*
X115191667Y39606191D01*
X115362255Y39764478D01*
X115406620Y39868030D01*
X115359008Y39938284D01*
X115211626Y40014640D01*
X115148997Y40019025D01*
X115131315Y39979687D01*
X115194552Y39942270D01*
X115267978Y39883155D01*
X115238048Y39781752D01*
X115121001Y39628032D01*
X114908106Y39372696D01*
X109992603Y38505960D01*
X109913304Y38747877D01*
X109882011Y38827878D01*
X109823530Y38936710D01*
X114651990Y39788098D01*
X114707691Y39777941D01*
X114878744Y39848699D01*
X114944388Y39898291D01*
X114998850Y39972366D01*
X114936836Y39969571D01*
X114789798Y39895453D01*
X114735937Y39861536D01*
X114651990Y39788098D01*
X109823530Y38936710D01*
X109726347Y39117561D01*
X109625393Y39243248D01*
X116335218Y40426371D01*
X116445068Y40502400D01*
X116592702Y40637123D01*
X116653169Y40725506D01*
X116623442Y40833230D01*
X116492280Y40909092D01*
X116355277Y40916893D01*
X116352117Y40881663D01*
X116435697Y40840739D01*
X116540631Y40786712D01*
X116532091Y40707050D01*
X116438497Y40581074D01*
X116332822Y40446448D01*
X116335218Y40426371D01*
X109625393Y39243248D01*
X109477902Y39426871D01*
X109114754Y39784734D01*
X108511414Y40338000D01*
X108527846Y40368417D01*
X109045240Y40459647D01*
X109128228Y40523693D01*
X109201121Y40597164D01*
X109376768Y40752585D01*
X109519597Y40793079D01*
X109615874Y40772703D01*
X109790443Y40730061D01*
X109870746Y40726569D01*
X109849399Y40759380D01*
X109707304Y40818926D01*
X109686665Y40825953D01*
X109424909Y40853269D01*
X109212267Y40731259D01*
X109066359Y40526566D01*
X109045240Y40459647D01*
X108527846Y40368417D01*
X108701518Y40689888D01*
X108849804Y40920605D01*
X109022568Y41059295D01*
X109290333Y41161790D01*
X109302106Y41165352D01*
X109632812Y41292564D01*
X109963155Y41461175D01*
X110052872Y41517261D01*
X110258312Y41668999D01*
X110355131Y41807306D01*
X110379346Y42003882D01*
X110374960Y42158431D01*
X110376853Y42554808D01*
X110419299Y42834673D01*
X110498301Y42976195D01*
X110526961Y42988155D01*
X110635009Y42940652D01*
X110782136Y42805546D01*
X110788860Y42797910D01*
X110956461Y42612037D01*
X111173996Y42378628D01*
X111271782Y42275881D01*
X111576050Y41958775D01*
X111449628Y41722886D01*
X111351937Y41462073D01*
X111312586Y41232291D01*
X111247472Y40983544D01*
X111118256Y40772199D01*
X111016682Y40638904D01*
X111008099Y40580916D01*
X111016248Y40581219D01*
X111142778Y40677969D01*
X111163877Y40713776D01*
X116811609Y41709624D01*
X116895922Y41710723D01*
X117001364Y41745123D01*
X116997636Y41773813D01*
X116882531Y41774040D01*
X116836663Y41752217D01*
X116811609Y41709624D01*
X111163877Y40713776D01*
X111271183Y40895883D01*
X111377825Y41188726D01*
X111419590Y41370210D01*
X111515708Y41667060D01*
X111662442Y41806142D01*
X111850061Y41784055D01*
X112068833Y41597398D01*
X112069024Y41597173D01*
X112247796Y41424084D01*
X112411755Y41321423D01*
X112442121Y41312956D01*
X112541003Y41304270D01*
X112486847Y41347636D01*
X112446554Y41370539D01*
X112299753Y41486119D01*
X112116308Y41671907D01*
X112068032Y41727292D01*
X111835849Y42002172D01*
X112089682Y42182466D01*
X112337569Y42311758D01*
X112643777Y42412661D01*
X112731112Y42431105D01*
X113094069Y42530660D01*
X113381821Y42701566D01*
X113614534Y42967633D01*
X113812375Y43352668D01*
X113995512Y43880479D01*
X114015290Y43947132D01*
X114159417Y44378825D01*
X114315237Y44744577D01*
X114467659Y45014710D01*
X114601591Y45159543D01*
X114639523Y45174848D01*
X114681471Y45102010D01*
G37*
X114681471Y45102010D02*
X114738253Y44893989D01*
X114802153Y44583424D01*
X114858900Y44246336D01*
X114923860Y43856549D01*
X114989259Y43522906D01*
X115046783Y43284713D01*
X115082906Y43187194D01*
X115087631Y43089181D01*
X114988661Y42935565D01*
X114772350Y42707495D01*
X114654955Y42595898D01*
X114328179Y42290472D01*
X114113837Y42087967D01*
X114000434Y41975916D01*
X113976472Y41941854D01*
X114030454Y41973312D01*
X114150882Y42057825D01*
X114173836Y42074215D01*
X114351471Y42220610D01*
X114609832Y42458261D01*
X114914365Y42754391D01*
X115230514Y43076228D01*
X115232806Y43078619D01*
X115615323Y43462837D01*
X115911289Y43721743D01*
X116137064Y43864498D01*
X116309005Y43900263D01*
X116443471Y43838202D01*
X116493193Y43784551D01*
X116536345Y43695681D01*
X116524406Y43578022D01*
X116445358Y43400339D01*
X116287183Y43131397D01*
X116171012Y42947214D01*
X115984299Y42636140D01*
X115844021Y42366694D01*
X115769178Y42177360D01*
X115762925Y42120688D01*
X115792792Y42034611D01*
X115818787Y42114604D01*
X115819022Y42115860D01*
X115871412Y42284736D01*
X115961811Y42502047D01*
X116049392Y42656063D01*
X116163123Y42735067D01*
X116361439Y42769402D01*
X116493967Y42778371D01*
X116809348Y42821210D01*
X117017202Y42918486D01*
X117078076Y42971712D01*
X117261626Y43109465D01*
X117409601Y43170077D01*
X117567714Y43240009D01*
X117783918Y43384731D01*
X117890976Y43470366D01*
X118083910Y43615051D01*
X118224626Y43685264D01*
X118264665Y43681521D01*
X118292504Y43566044D01*
X118296977Y43350165D01*
X118292281Y43264688D01*
X118238799Y42997485D01*
X118100162Y42758127D01*
X117926492Y42563998D01*
X117727704Y42353828D01*
X117576127Y42178369D01*
X117521667Y42103182D01*
X117395340Y41985453D01*
X117254147Y41913851D01*
X117144392Y41868693D01*
X117184196Y41860822D01*
X117325074Y41877288D01*
X117540259Y41879042D01*
X117601750Y41816739D01*
X117505575Y41705416D01*
X117389824Y41631962D01*
X117210240Y41517654D01*
X117172991Y41462394D01*
X117279239Y41477583D01*
X117377591Y41511734D01*
X117528337Y41550545D01*
X117572363Y41488826D01*
X117568728Y41426048D01*
X117549083Y41215679D01*
X117534670Y41013600D01*
X117476626Y40763635D01*
X117362981Y40523645D01*
X117200513Y40164701D01*
X117158850Y39807188D01*
X117243709Y39502397D01*
X117248286Y39494575D01*
X117350844Y39312563D01*
X117356911Y39227084D01*
X117255698Y39188633D01*
X117178576Y39174592D01*
X116993189Y39080451D01*
X116774740Y38878590D01*
X116686692Y38773539D01*
X116491296Y38553033D01*
X116349824Y38479995D01*
X116239398Y38550975D01*
X116163968Y38694785D01*
X116143707Y38721623D01*
X116167224Y38610737D01*
X116196788Y38501787D01*
X116296706Y38148674D01*
X116021851Y38234515D01*
X115802469Y38287359D01*
X115645021Y38298525D01*
X115639293Y38297488D01*
X115635356Y38266759D01*
X115765004Y38220763D01*
X115799622Y38212290D01*
X116067654Y38149959D01*
X115883604Y37979791D01*
X115665084Y37815299D01*
X115333049Y37609432D01*
X114930728Y37384886D01*
X114501350Y37164354D01*
X114088144Y36970530D01*
X113734340Y36826109D01*
X113602435Y36782216D01*
X113292493Y36677835D01*
X113024601Y36565843D01*
X112880904Y36486034D01*
X112628902Y36380349D01*
X112471103Y36372253D01*
X112258192Y36373837D01*
X111966191Y36349452D01*
X111815368Y36328943D01*
X111492168Y36305176D01*
X111179746Y36324155D01*
X111069863Y36346264D01*
X110849530Y36435713D01*
X110722839Y36586684D01*
X110657696Y36756031D01*
X110625492Y36814930D01*
X113595759Y37338668D01*
X113624587Y37298766D01*
X113681482Y37246875D01*
X113877746Y37147178D01*
X114047152Y37185608D01*
X114141485Y37347367D01*
X114146867Y37389725D01*
X114135573Y37593254D01*
X114099904Y37703843D01*
X114066284Y37707365D01*
X114070999Y37577581D01*
X114071957Y37570947D01*
X114048781Y37351186D01*
X113921728Y37244542D01*
X113722848Y37276104D01*
X113706195Y37284601D01*
X113595759Y37338668D01*
X110625492Y36814930D01*
X110472139Y37095395D01*
X110281447Y37280253D01*
X110171965Y37374727D01*
X112454471Y37777194D01*
X112481222Y37747198D01*
X112486438Y37748016D01*
X112658873Y37822872D01*
X112720478Y37869315D01*
X112799824Y37967458D01*
X112761495Y37989360D01*
X112639336Y37934382D01*
X112550457Y37872524D01*
X112454471Y37777194D01*
X110171965Y37374727D01*
X110134519Y37407039D01*
X110091096Y37486912D01*
X110107224Y37497859D01*
X110152909Y37584097D01*
X110149747Y37791273D01*
X110125300Y37946928D01*
X113728990Y38582356D01*
X113769216Y38580217D01*
X113889159Y38654575D01*
X113938908Y38720904D01*
X113962488Y38850186D01*
X113866561Y38935330D01*
X113728075Y38976959D01*
X113675574Y38956047D01*
X113694426Y38908495D01*
X113728725Y38910182D01*
X113823234Y38867313D01*
X113844343Y38748713D01*
X113779661Y38636608D01*
X113770849Y38630656D01*
X113728990Y38582356D01*
X110125300Y37946928D01*
X110104349Y38080332D01*
X110023331Y38412219D01*
X109992603Y38505960D01*
X114908106Y39372696D01*
X115191667Y39606191D01*
X115362255Y39764478D01*
X115406620Y39868030D01*
X115359008Y39938284D01*
X115211626Y40014640D01*
X115148997Y40019025D01*
X115131315Y39979687D01*
X115194552Y39942270D01*
X115267978Y39883155D01*
X115238048Y39781752D01*
X115121001Y39628032D01*
X114908106Y39372696D01*
X109992603Y38505960D01*
X109913304Y38747877D01*
X109882011Y38827878D01*
X109823530Y38936710D01*
X114651990Y39788098D01*
X114707691Y39777941D01*
X114878744Y39848699D01*
X114944388Y39898291D01*
X114998850Y39972366D01*
X114936836Y39969571D01*
X114789798Y39895453D01*
X114735937Y39861536D01*
X114651990Y39788098D01*
X109823530Y38936710D01*
X109726347Y39117561D01*
X109625393Y39243248D01*
X116335218Y40426371D01*
X116445068Y40502400D01*
X116592702Y40637123D01*
X116653169Y40725506D01*
X116623442Y40833230D01*
X116492280Y40909092D01*
X116355277Y40916893D01*
X116352117Y40881663D01*
X116435697Y40840739D01*
X116540631Y40786712D01*
X116532091Y40707050D01*
X116438497Y40581074D01*
X116332822Y40446448D01*
X116335218Y40426371D01*
X109625393Y39243248D01*
X109477902Y39426871D01*
X109114754Y39784734D01*
X108511414Y40338000D01*
X108527846Y40368417D01*
X109045240Y40459647D01*
X109128228Y40523693D01*
X109201121Y40597164D01*
X109376768Y40752585D01*
X109519597Y40793079D01*
X109615874Y40772703D01*
X109790443Y40730061D01*
X109870746Y40726569D01*
X109849399Y40759380D01*
X109707304Y40818926D01*
X109686665Y40825953D01*
X109424909Y40853269D01*
X109212267Y40731259D01*
X109066359Y40526566D01*
X109045240Y40459647D01*
X108527846Y40368417D01*
X108701518Y40689888D01*
X108849804Y40920605D01*
X109022568Y41059295D01*
X109290333Y41161790D01*
X109302106Y41165352D01*
X109632812Y41292564D01*
X109963155Y41461175D01*
X110052872Y41517261D01*
X110258312Y41668999D01*
X110355131Y41807306D01*
X110379346Y42003882D01*
X110374960Y42158431D01*
X110376853Y42554808D01*
X110419299Y42834673D01*
X110498301Y42976195D01*
X110526961Y42988155D01*
X110635009Y42940652D01*
X110782136Y42805546D01*
X110788860Y42797910D01*
X110956461Y42612037D01*
X111173996Y42378628D01*
X111271782Y42275881D01*
X111576050Y41958775D01*
X111449628Y41722886D01*
X111351937Y41462073D01*
X111312586Y41232291D01*
X111247472Y40983544D01*
X111118256Y40772199D01*
X111016682Y40638904D01*
X111008099Y40580916D01*
X111016248Y40581219D01*
X111142778Y40677969D01*
X111163877Y40713776D01*
X116811609Y41709624D01*
X116895922Y41710723D01*
X117001364Y41745123D01*
X116997636Y41773813D01*
X116882531Y41774040D01*
X116836663Y41752217D01*
X116811609Y41709624D01*
X111163877Y40713776D01*
X111271183Y40895883D01*
X111377825Y41188726D01*
X111419590Y41370210D01*
X111515708Y41667060D01*
X111662442Y41806142D01*
X111850061Y41784055D01*
X112068833Y41597398D01*
X112069024Y41597173D01*
X112247796Y41424084D01*
X112411755Y41321423D01*
X112442121Y41312956D01*
X112541003Y41304270D01*
X112486847Y41347636D01*
X112446554Y41370539D01*
X112299753Y41486119D01*
X112116308Y41671907D01*
X112068032Y41727292D01*
X111835849Y42002172D01*
X112089682Y42182466D01*
X112337569Y42311758D01*
X112643777Y42412661D01*
X112731112Y42431105D01*
X113094069Y42530660D01*
X113381821Y42701566D01*
X113614534Y42967633D01*
X113812375Y43352668D01*
X113995512Y43880479D01*
X114015290Y43947132D01*
X114159417Y44378825D01*
X114315237Y44744577D01*
X114467659Y45014710D01*
X114601591Y45159543D01*
X114639523Y45174848D01*
X114681471Y45102010D01*
G36*
X110013845Y37284078D02*
G01*
X110245156Y37137225D01*
X110460099Y36946276D01*
X110571185Y36767968D01*
X110581218Y36631561D01*
X110493001Y36566312D01*
X110309334Y36601480D01*
X110199088Y36656257D01*
X109967108Y36747023D01*
X109676634Y36809436D01*
X109612881Y36816621D01*
X109250863Y36848744D01*
X109464971Y37092141D01*
X109655107Y37278879D01*
X109820830Y37341862D01*
X110013845Y37284078D01*
G37*
X110013845Y37284078D02*
X110245156Y37137225D01*
X110460099Y36946276D01*
X110571185Y36767968D01*
X110581218Y36631561D01*
X110493001Y36566312D01*
X110309334Y36601480D01*
X110199088Y36656257D01*
X109967108Y36747023D01*
X109676634Y36809436D01*
X109612881Y36816621D01*
X109250863Y36848744D01*
X109464971Y37092141D01*
X109655107Y37278879D01*
X109820830Y37341862D01*
X110013845Y37284078D01*
G36*
X106586122Y38481113D02*
G01*
X106557787Y38419507D01*
X106275270Y37880379D01*
X106017965Y37480416D01*
X105818676Y37253772D01*
X105623492Y37117641D01*
X105411015Y37022611D01*
X105231866Y36984950D01*
X105136671Y37020931D01*
X105132824Y37033331D01*
X105190936Y37114710D01*
X105349323Y37230269D01*
X105389577Y37254232D01*
X105589298Y37405544D01*
X105827339Y37636844D01*
X105997096Y37831324D01*
X106200418Y38080625D01*
X106381740Y38295665D01*
X106481049Y38407317D01*
X106580490Y38505921D01*
X106586122Y38481113D01*
G37*
X106586122Y38481113D02*
X106557787Y38419507D01*
X106275270Y37880379D01*
X106017965Y37480416D01*
X105818676Y37253772D01*
X105623492Y37117641D01*
X105411015Y37022611D01*
X105231866Y36984950D01*
X105136671Y37020931D01*
X105132824Y37033331D01*
X105190936Y37114710D01*
X105349323Y37230269D01*
X105389577Y37254232D01*
X105589298Y37405544D01*
X105827339Y37636844D01*
X105997096Y37831324D01*
X106200418Y38080625D01*
X106381740Y38295665D01*
X106481049Y38407317D01*
X106580490Y38505921D01*
X106586122Y38481113D01*
G36*
X107145859Y40915597D02*
G01*
X107214022Y40855200D01*
X107377783Y40685922D01*
X107400889Y40586073D01*
X107280871Y40527208D01*
X107183793Y40507263D01*
X107008468Y40491589D01*
X106947130Y40559623D01*
X106946641Y40701871D01*
X106971373Y40920355D01*
X107028160Y40986081D01*
X107145859Y40915597D01*
G37*
X107145859Y40915597D02*
X107214022Y40855200D01*
X107377783Y40685922D01*
X107400889Y40586073D01*
X107280871Y40527208D01*
X107183793Y40507263D01*
X107008468Y40491589D01*
X106947130Y40559623D01*
X106946641Y40701871D01*
X106971373Y40920355D01*
X107028160Y40986081D01*
X107145859Y40915597D01*
G36*
X108743395Y38461928D02*
G01*
X108745422Y38453187D01*
X108705521Y38260261D01*
X108522618Y38028683D01*
X108338116Y37870671D01*
X108210917Y37780139D01*
X108193334Y37798762D01*
X108236528Y37881368D01*
X108376134Y38046846D01*
X108463456Y38109294D01*
X108594716Y38243980D01*
X108659424Y38383603D01*
X108708321Y38504597D01*
X108743395Y38461928D01*
G37*
X108743395Y38461928D02*
X108745422Y38453187D01*
X108705521Y38260261D01*
X108522618Y38028683D01*
X108338116Y37870671D01*
X108210917Y37780139D01*
X108193334Y37798762D01*
X108236528Y37881368D01*
X108376134Y38046846D01*
X108463456Y38109294D01*
X108594716Y38243980D01*
X108659424Y38383603D01*
X108708321Y38504597D01*
X108743395Y38461928D01*
G36*
X108418812Y38596254D02*
G01*
X108425736Y38492566D01*
X108372090Y38367664D01*
X108256113Y38222819D01*
X108120429Y38098034D01*
X108007664Y38033313D01*
X107961406Y38056797D01*
X108002664Y38161653D01*
X108116026Y38330071D01*
X108257807Y38502061D01*
X108352937Y38594410D01*
X108418812Y38596254D01*
G37*
X108418812Y38596254D02*
X108425736Y38492566D01*
X108372090Y38367664D01*
X108256113Y38222819D01*
X108120429Y38098034D01*
X108007664Y38033313D01*
X107961406Y38056797D01*
X108002664Y38161653D01*
X108116026Y38330071D01*
X108257807Y38502061D01*
X108352937Y38594410D01*
X108418812Y38596254D01*
%TD*%
D11*
%TO.P,S6,3*%
%TO.N,N/C*%
X80494181Y67773257D03*
%TO.P,S6,4*%
X69894181Y67773257D03*
%TO.P,S6,1*%
%TO.N,P14*%
X70614181Y57923257D03*
%TO.P,S6,2*%
%TO.N,GND*%
X77194181Y57623257D03*
%TO.P,S6,1*%
%TO.N,P14*%
X79774181Y57923257D03*
%TO.P,S6,2*%
%TO.N,GND*%
X73194181Y57623257D03*
%TD*%
D12*
%TO.P,S1,1*%
%TO.N,P9*%
X38051049Y33330780D03*
%TO.P,S1,2*%
%TO.N,GND*%
X32677900Y34065129D03*
%TO.P,S1,1*%
%TO.N,P9*%
X28391790Y30742590D03*
%TO.P,S1,2*%
%TO.N,GND*%
X32677900Y34065129D03*
%TD*%
%TO.P,S2,1*%
%TO.N,P6*%
X61410147Y42943513D03*
%TO.P,S2,2*%
%TO.N,GND*%
X56246146Y44599743D03*
%TO.P,S2,1*%
%TO.N,P6*%
X51448200Y42071955D03*
%TO.P,S2,2*%
%TO.N,GND*%
X56246146Y44599743D03*
%TD*%
D11*
%TO.P,S3,3*%
%TO.N,N/C*%
X60144559Y60851355D03*
%TO.P,S3,4*%
X49584895Y59927504D03*
%TO.P,S3,1*%
%TO.N,P16*%
X51160640Y50177739D03*
%TO.P,S3,2*%
%TO.N,GND*%
X57741747Y50452365D03*
%TO.P,S3,1*%
%TO.N,P16*%
X60285783Y50976085D03*
%TO.P,S3,2*%
%TO.N,GND*%
X53756969Y50103742D03*
%TD*%
D12*
%TO.P,S4,1*%
%TO.N,P21*%
X58446851Y76814135D03*
%TO.P,S4,2*%
%TO.N,GND*%
X53282850Y78470365D03*
%TO.P,S4,1*%
%TO.N,P21*%
X48484904Y75942577D03*
%TO.P,S4,2*%
%TO.N,GND*%
X53282850Y78470365D03*
%TD*%
%TO.P,S5,1*%
%TO.N,P5*%
X80194181Y49823257D03*
%TO.P,S5,2*%
%TO.N,GND*%
X75194181Y51923257D03*
%TO.P,S5,1*%
%TO.N,P5*%
X70194181Y49823257D03*
%TO.P,S5,2*%
%TO.N,GND*%
X75194181Y51923257D03*
%TD*%
%TO.P,S7,1*%
%TO.N,P20*%
X80194181Y83823257D03*
%TO.P,S7,2*%
%TO.N,GND*%
X75194181Y85923257D03*
%TO.P,S7,1*%
%TO.N,P20*%
X70194181Y83823257D03*
%TO.P,S7,2*%
%TO.N,GND*%
X75194181Y85923257D03*
%TD*%
%TO.P,S8,1*%
%TO.N,P4*%
X98194181Y44156591D03*
%TO.P,S8,2*%
%TO.N,GND*%
X93194181Y46256591D03*
%TO.P,S8,1*%
%TO.N,P4*%
X88194181Y44156591D03*
%TO.P,S8,2*%
%TO.N,GND*%
X93194181Y46256591D03*
%TD*%
D11*
%TO.P,S9,3*%
%TO.N,N/C*%
X98494181Y62106591D03*
%TO.P,S9,4*%
X87894181Y62106591D03*
%TO.P,S9,1*%
%TO.N,P15*%
X88614181Y52256591D03*
%TO.P,S9,2*%
%TO.N,GND*%
X95194181Y51956591D03*
%TO.P,S9,1*%
%TO.N,P15*%
X97774181Y52256591D03*
%TO.P,S9,2*%
%TO.N,GND*%
X91194181Y51956591D03*
%TD*%
D12*
%TO.P,S10,1*%
%TO.N,P19*%
X98194181Y78156591D03*
%TO.P,S10,2*%
%TO.N,GND*%
X93194181Y80256591D03*
%TO.P,S10,1*%
%TO.N,P19*%
X88194181Y78156591D03*
%TO.P,S10,2*%
%TO.N,GND*%
X93194181Y80256591D03*
%TD*%
%TO.P,S11,1*%
%TO.N,P18*%
X116194181Y57756591D03*
%TO.P,S11,2*%
%TO.N,GND*%
X111194181Y59856591D03*
%TO.P,S11,1*%
%TO.N,P18*%
X106194181Y57756591D03*
%TO.P,S11,2*%
%TO.N,GND*%
X111194181Y59856591D03*
%TD*%
%TO.P,S12,1*%
%TO.N,P8*%
X114507323Y19333013D03*
%TO.P,S12,2*%
%TO.N,GND*%
X110221213Y22655552D03*
%TO.P,S12,1*%
%TO.N,P8*%
X104848064Y21921203D03*
%TO.P,S12,2*%
%TO.N,GND*%
X110221213Y22655552D03*
%TD*%
%TO.P,S13,1*%
%TO.N,P7*%
X133237864Y11588162D03*
%TO.P,S13,2*%
%TO.N,GND*%
X129593824Y15604500D03*
%TO.P,S13,1*%
%TO.N,P7*%
X124174786Y15814345D03*
%TO.P,S13,2*%
%TO.N,GND*%
X129593824Y15604500D03*
%TD*%
%TA.AperFunction,ComponentPad*%
D13*
%TO.P,MCU1,1*%
%TO.N,RAW*%
G36*
X39521259Y72193377D02*
G01*
X41267190Y72346126D01*
X41419939Y70600195D01*
X39674008Y70447446D01*
X39521259Y72193377D01*
G37*
%TD.AperFunction*%
D14*
%TO.P,MCU1,2*%
%TO.N,GND*%
X40691974Y68866451D03*
%TO.P,MCU1,3*%
%TO.N,RST*%
X40913350Y66336117D03*
%TO.P,MCU1,4*%
%TO.N,VCC*%
X41134726Y63805782D03*
%TO.P,MCU1,5*%
%TO.N,P21*%
X41356101Y61275448D03*
%TO.P,MCU1,6*%
%TO.N,P20*%
X41577477Y58745113D03*
%TO.P,MCU1,7*%
%TO.N,P19*%
X41798852Y56214778D03*
%TO.P,MCU1,8*%
%TO.N,P18*%
X42020228Y53684444D03*
%TO.P,MCU1,9*%
%TO.N,P15*%
X42241604Y51154109D03*
%TO.P,MCU1,10*%
%TO.N,P14*%
X42462979Y48623775D03*
%TO.P,MCU1,11*%
%TO.N,P16*%
X42684355Y46093440D03*
%TO.P,MCU1,12*%
%TO.N,P10*%
X42905730Y43563106D03*
%TO.P,MCU1,13*%
%TO.N,P1*%
X25288592Y70068532D03*
%TO.P,MCU1,14*%
%TO.N,P0*%
X25509967Y67538198D03*
%TO.P,MCU1,15*%
%TO.N,GND*%
X25731343Y65007863D03*
%TO.P,MCU1,16*%
X25952718Y62477529D03*
%TO.P,MCU1,17*%
%TO.N,P2*%
X26174094Y59947194D03*
%TO.P,MCU1,18*%
%TO.N,P3*%
X26395470Y57416860D03*
%TO.P,MCU1,19*%
%TO.N,P4*%
X26616845Y54886525D03*
%TO.P,MCU1,20*%
%TO.N,P5*%
X26838221Y52356190D03*
%TO.P,MCU1,21*%
%TO.N,P6*%
X27059596Y49825856D03*
%TO.P,MCU1,22*%
%TO.N,P7*%
X27280972Y47295521D03*
%TO.P,MCU1,23*%
%TO.N,P8*%
X27502348Y44765187D03*
%TO.P,MCU1,24*%
%TO.N,P9*%
X27723723Y42234852D03*
%TD*%
D15*
%TO.P,REF\u002A\u002A,1*%
%TO.N,GND*%
X109194182Y64056591D03*
%TO.P,REF\u002A\u002A,2*%
X104594182Y65156591D03*
%TO.P,REF\u002A\u002A,3*%
%TO.N,P3*%
X104594182Y69156591D03*
%TO.P,REF\u002A\u002A,4*%
%TO.N,VCC*%
X104594182Y72156591D03*
%TO.P,REF\u002A\u002A,1*%
%TO.N,GND*%
X104594182Y64056591D03*
%TO.P,REF\u002A\u002A,2*%
X109194182Y65156591D03*
%TO.P,REF\u002A\u002A,3*%
%TO.N,P3*%
X109194182Y69156591D03*
%TO.P,REF\u002A\u002A,4*%
%TO.N,VCC*%
X109194182Y72156591D03*
%TD*%
D16*
%TO.N,GND*%
X94566780Y65830733D02*
X94681213Y65901016D01*
X94668877Y65810405D02*
X94566780Y65830733D01*
X94681213Y65901016D02*
X94668877Y65810405D01*
X45526695Y57517349D02*
X45528468Y57518861D01*
X45528468Y57515576D02*
X45526695Y57517349D01*
X45528468Y57518861D02*
X45528468Y57515576D01*
X110221213Y24183783D02*
X110182448Y24476338D01*
X110270946Y24410260D02*
X110221213Y24183783D01*
X110182448Y24476338D02*
X110270946Y24410260D01*
X70768448Y69998380D02*
X70236337Y69945971D01*
X122621928Y19191885D02*
X122304423Y19223158D01*
X94732100Y65334750D02*
X94788693Y65465593D01*
X94843515Y65320594D02*
X94732100Y65334750D01*
X94788693Y65465593D02*
X94843515Y65320594D01*
X63152717Y64738697D02*
X62908395Y64897579D01*
X63106940Y64973339D02*
X63152717Y64738697D01*
X62908395Y64897579D02*
X63106940Y64973339D01*
X81515776Y52112642D02*
X81698217Y52175741D01*
X81560618Y52014505D02*
X81515776Y52112642D01*
X81698217Y52175741D02*
X81560618Y52014505D01*
X100007885Y46239981D02*
X100062110Y46223531D01*
X66687384Y51923257D02*
X66759062Y51923257D01*
X66735169Y51923257D02*
X66687384Y51923257D01*
X66759062Y51923257D02*
X66735169Y51923257D01*
X88205270Y65864794D02*
X88413629Y65693798D01*
X49994593Y44481287D02*
X50001772Y44488466D01*
X49991004Y44477698D02*
X49994593Y44481287D01*
X50001772Y44488466D02*
X49991004Y44477698D01*
X100426748Y63601481D02*
X100444305Y63423236D01*
X98733490Y65156591D02*
X98980254Y65156591D01*
X98907115Y65139025D02*
X98733490Y65156591D01*
X98980254Y65156591D02*
X98907115Y65139025D01*
X99801060Y65156591D02*
X99855244Y65156591D01*
X99826000Y65127354D02*
X99801060Y65156591D01*
X99855244Y65156591D02*
X99826000Y65127354D01*
X99198686Y65071962D02*
X99126795Y65094176D01*
X99210210Y65110996D02*
X99198686Y65071962D01*
X99126795Y65094176D02*
X99210210Y65110996D01*
X45474855Y57495480D02*
X45465282Y57490363D01*
X121049663Y19409283D02*
X121354966Y19316670D01*
X88637745Y65544049D02*
X88875459Y65416987D01*
X63894914Y49547669D02*
X63866917Y49455377D01*
X76072915Y51923257D02*
X75487092Y51923257D01*
X63592539Y49049233D02*
X63609796Y49066490D01*
X63583910Y49040604D02*
X63592539Y49049233D01*
X63609796Y49066490D02*
X63583910Y49040604D01*
X74132713Y69998380D02*
X74354344Y70120197D01*
X74364810Y69998380D02*
X74132713Y69998380D01*
X74354344Y70120197D02*
X74364810Y69998380D01*
X81165748Y69998380D02*
X81217311Y69998380D01*
X81200123Y69998380D02*
X81165748Y69998380D01*
X81217311Y69998380D02*
X81200123Y69998380D01*
X84071686Y55416279D02*
X84036307Y55057083D01*
X100403911Y45870893D02*
X100394335Y45895344D01*
X100416527Y45873106D02*
X100403911Y45870893D01*
X100394335Y45895344D02*
X100416527Y45873106D01*
X100308762Y46050820D02*
X100288710Y46074349D01*
X100322107Y46055006D02*
X100308762Y46050820D01*
X100288710Y46074349D02*
X100322107Y46055006D01*
X32677900Y39336761D02*
X32677900Y39553005D01*
X32787413Y39336714D02*
X32677900Y39336761D01*
X32677900Y39553005D02*
X32787413Y39336714D01*
X27599861Y62450491D02*
X27325349Y62477529D01*
X95899724Y76863799D02*
X96045743Y76382438D01*
X49947928Y44434622D02*
X49969466Y44456160D01*
X49962287Y44448981D02*
X49947928Y44434622D01*
X49969466Y44456160D02*
X49962287Y44448981D01*
X100601024Y35930116D02*
X100756235Y35418454D01*
X109899218Y25333080D02*
X109818109Y25482640D01*
X109954106Y25444727D02*
X109899218Y25333080D01*
X109818109Y25482640D02*
X109954106Y25444727D01*
X101509955Y34008341D02*
X101849156Y33595024D01*
X81483717Y69998380D02*
X81500904Y69998380D01*
X81475123Y69998380D02*
X81483717Y69998380D01*
X81500904Y69998380D02*
X81475123Y69998380D01*
X75419511Y70709827D02*
X75585685Y70802697D01*
X75572061Y70699412D02*
X75419511Y70709827D01*
X75585685Y70802697D02*
X75572061Y70699412D01*
X75812854Y70500123D02*
X75694077Y70631523D01*
X75801506Y70663446D02*
X75812854Y70500123D01*
X75694077Y70631523D02*
X75801506Y70663446D01*
X54805161Y65139878D02*
X54982780Y65227778D01*
X54980623Y65139878D02*
X54805161Y65139878D01*
X54982780Y65227778D02*
X54980623Y65139878D01*
X46381093Y64057787D02*
X46175227Y63806938D01*
X100353759Y46031376D02*
X100353504Y46043328D01*
X100372191Y46039806D02*
X100353759Y46031376D01*
X100353504Y46043328D02*
X100372191Y46039806D01*
X63554824Y49011518D02*
X63572793Y49029487D01*
X63545840Y49002534D02*
X63554824Y49011518D01*
X63572793Y49029487D02*
X63545840Y49002534D01*
X100416736Y46030507D02*
X100396490Y46039264D01*
X100418927Y46047747D02*
X100416736Y46030507D01*
X100396490Y46039264D02*
X100418927Y46047747D01*
X58874077Y44800184D02*
X58545291Y44700448D01*
X75780438Y70935108D02*
X75944033Y71070727D01*
X75837778Y70844498D02*
X75780438Y70935108D01*
X75944033Y71070727D02*
X75837778Y70844498D01*
X55232031Y65139878D02*
X55290147Y65203565D01*
X55423674Y65139878D02*
X55232031Y65139878D01*
X55290147Y65203565D02*
X55423674Y65139878D01*
X76971122Y72170633D02*
X76637872Y71764566D01*
X56220205Y67305091D02*
X56072684Y67029098D01*
X55080541Y65325213D02*
X55138799Y65463861D01*
X55198833Y65311388D02*
X55080541Y65325213D01*
X55138799Y65463861D02*
X55198833Y65311388D01*
X89250503Y46256591D02*
X89330913Y46296131D01*
X89329676Y46256591D02*
X89250503Y46256591D01*
X89330913Y46296131D02*
X89329676Y46256591D01*
X99952309Y46251036D02*
X99895917Y46256591D01*
X110375657Y24638305D02*
X110332106Y24762365D01*
X110482127Y24787235D02*
X110375657Y24638305D01*
X110332106Y24762365D02*
X110482127Y24787235D01*
X33179295Y40685411D02*
X32961995Y40766233D01*
X33054200Y40858667D02*
X33179295Y40685411D01*
X32961995Y40766233D02*
X33054200Y40858667D01*
X45512638Y57531397D02*
X45515241Y57536255D01*
X45515014Y57529852D02*
X45512638Y57531397D01*
X45515241Y57536255D02*
X45515014Y57529852D01*
X82215861Y51454105D02*
X82033574Y51548525D01*
X82254951Y51564773D02*
X82215861Y51454105D01*
X82033574Y51548525D02*
X82254951Y51564773D01*
X81449342Y69998380D02*
X81475123Y69998380D01*
X81440748Y69998380D02*
X81449342Y69998380D01*
X81440748Y69998380D02*
X81440748Y69998380D01*
X81466529Y69998380D02*
X81440748Y69998380D01*
X81475123Y69998380D02*
X81466529Y69998380D01*
X81475123Y69998380D02*
X81475123Y69998380D01*
X53692305Y48627475D02*
X53628265Y48416365D01*
X63558024Y49014718D02*
X63583910Y49040604D01*
X63575281Y49031975D02*
X63558024Y49014718D01*
X63583910Y49040604D02*
X63575281Y49031975D01*
X53984988Y65416987D02*
X54153589Y65482499D01*
X53999394Y65330203D02*
X53984988Y65416987D01*
X54153589Y65482499D02*
X53999394Y65330203D01*
X67021094Y51923257D02*
X67033281Y51923257D01*
X67015000Y51923257D02*
X67021094Y51923257D01*
X67033281Y51923257D02*
X67015000Y51923257D01*
X84223560Y69145521D02*
X84219314Y69222152D01*
X84338175Y69211182D02*
X84223560Y69145521D01*
X84219314Y69222152D02*
X84338175Y69211182D01*
X55874586Y75656989D02*
X56126635Y75185439D01*
X32491034Y58409185D02*
X32489598Y58434526D01*
X32529034Y58428267D02*
X32491034Y58409185D01*
X32489598Y58434526D02*
X32529034Y58428267D01*
X127910473Y15633391D02*
X128203812Y15604500D01*
X66917500Y51923257D02*
X66954063Y51923257D01*
X66941875Y51923257D02*
X66917500Y51923257D01*
X66954063Y51923257D02*
X66941875Y51923257D01*
X66547035Y51909698D02*
X66502772Y51896271D01*
X84995634Y69074429D02*
X84778074Y69176098D01*
X84853596Y69195733D02*
X84995634Y69074429D01*
X84778074Y69176098D02*
X84853596Y69195733D01*
X89124483Y65313839D02*
X89382418Y65235595D01*
X32709022Y59988527D02*
X32677900Y59672531D01*
X72839046Y55790440D02*
X72726005Y55652699D01*
X33512175Y61686652D02*
X33310739Y61441202D01*
X87410547Y46503797D02*
X87562214Y46422729D01*
X113869852Y25066248D02*
X114381514Y24911037D01*
X77868247Y74069526D02*
X77714802Y73563688D01*
X94792194Y65622620D02*
X94737711Y65741741D01*
X94814958Y65743389D02*
X94792194Y65622620D01*
X94737711Y65741741D02*
X94814958Y65743389D01*
X84592954Y69320633D02*
X84591112Y69377307D01*
X84667038Y69330849D02*
X84592954Y69320633D01*
X84591112Y69377307D02*
X84667038Y69330849D01*
X45518068Y57521558D02*
X45514012Y57523182D01*
X45516098Y57525053D02*
X45518068Y57521558D01*
X45514012Y57523182D02*
X45516098Y57525053D01*
X122934839Y19129643D02*
X123240142Y19037030D01*
X81234498Y69998380D02*
X81268873Y69998380D01*
X81217311Y69998380D02*
X81234498Y69998380D01*
X81268873Y69998380D02*
X81217311Y69998380D01*
X63937136Y64351976D02*
X64134722Y64478931D01*
X64051560Y64192918D02*
X63937136Y64351976D01*
X64134722Y64478931D02*
X64051560Y64192918D01*
X48027758Y65044761D02*
X47717223Y64950561D01*
X89403849Y46475445D02*
X89378263Y46531385D01*
X89414539Y46532160D02*
X89403849Y46475445D01*
X89378263Y46531385D02*
X89414539Y46532160D01*
X68706275Y69481831D02*
X68234725Y69229782D01*
X77341091Y83579652D02*
X77564773Y83161174D01*
X45528468Y57502377D02*
X45526278Y57509728D01*
X45528468Y57508391D02*
X45528468Y57502377D01*
X45526278Y57509728D02*
X45528468Y57508391D01*
X88877734Y46372046D02*
X88947621Y46399416D01*
X88884061Y46335984D02*
X88877734Y46372046D01*
X88947621Y46399416D02*
X88884061Y46335984D01*
X126334100Y16378959D02*
X126561952Y16191965D01*
X66380785Y51831067D02*
X66345030Y51801724D01*
X67063750Y51923257D02*
X67088125Y51923257D01*
X67051563Y51923257D02*
X67063750Y51923257D01*
X67088125Y51923257D02*
X67051563Y51923257D01*
X90844545Y48363258D02*
X90673941Y48044080D01*
X45628421Y41070163D02*
X45698237Y41177542D01*
X45848337Y41054312D02*
X45628421Y41070163D01*
X45698237Y41177542D02*
X45848337Y41054312D01*
X55340863Y44599743D02*
X54978750Y44599743D01*
X62136613Y65139878D02*
X62626606Y65205551D01*
X62515776Y65062991D02*
X62136613Y65139878D01*
X62626606Y65205551D02*
X62515776Y65062991D01*
X92609480Y65156591D02*
X93141620Y65254051D01*
X93006706Y65156591D02*
X92609480Y65156591D01*
X93141620Y65254051D02*
X93006706Y65156591D01*
X73141952Y56430880D02*
X73090227Y56260366D01*
X82928735Y69998380D02*
X83291201Y69929586D01*
X83178261Y69943755D02*
X82928735Y69998380D01*
X83291201Y69929586D02*
X83178261Y69943755D01*
X45560275Y62322311D02*
X45528468Y61999364D01*
X87806672Y66263392D02*
X88003573Y66066491D01*
X109714217Y61372720D02*
X109879747Y61171022D01*
X89375628Y46340257D02*
X89402205Y46401703D01*
X89427951Y46333609D02*
X89375628Y46340257D01*
X89402205Y46401703D02*
X89427951Y46333609D01*
X99807960Y65038170D02*
X99825984Y65089539D01*
X99848386Y65068130D02*
X99807960Y65038170D01*
X99825984Y65089539D02*
X99848386Y65068130D01*
X73194181Y56782972D02*
X73176715Y56605643D01*
X83708524Y53989298D02*
X83550074Y53692858D01*
X87721099Y46356917D02*
X87885667Y46306996D01*
X88396749Y46256591D02*
X88627848Y46298916D01*
X88569257Y46256591D02*
X88396749Y46256591D01*
X88627848Y46298916D02*
X88569257Y46256591D01*
X74433798Y70316934D02*
X74649842Y70388879D01*
X74431938Y70212130D02*
X74433798Y70316934D01*
X74649842Y70388879D02*
X74431938Y70212130D01*
X57502794Y44599743D02*
X57147845Y44599743D01*
X73022038Y56095743D02*
X72938041Y55938597D01*
X32826763Y57922054D02*
X32864763Y57941136D01*
X32866199Y57915795D02*
X32826763Y57922054D01*
X32864763Y57941136D02*
X32866199Y57915795D01*
X72898512Y69998380D02*
X73636840Y70116061D01*
X73440338Y69998380D02*
X72898512Y69998380D01*
X73636840Y70116061D02*
X73440338Y69998380D01*
X45523338Y57555367D02*
X45524684Y57559724D01*
X45525703Y57554668D02*
X45523338Y57555367D01*
X45524684Y57559724D02*
X45525703Y57554668D01*
X33535271Y40155955D02*
X33433104Y40431602D01*
X33728389Y40243718D02*
X33535271Y40155955D01*
X33433104Y40431602D02*
X33728389Y40243718D01*
X119961642Y20061417D02*
X120208264Y19859020D01*
X67790150Y68932727D02*
X67376832Y68593526D01*
X32886444Y57964510D02*
X32892401Y57998187D01*
X32915394Y57960794D02*
X32886444Y57964510D01*
X32892401Y57998187D02*
X32915394Y57960794D01*
X99749518Y64783540D02*
X99681173Y64837799D01*
X99725379Y64849380D02*
X99749518Y64783540D01*
X99681173Y64837799D02*
X99725379Y64849380D01*
X82790797Y51052262D02*
X82513101Y51264977D01*
X82642659Y51283769D02*
X82790797Y51052262D01*
X82513101Y51264977D02*
X82642659Y51283769D01*
X76776445Y84340990D02*
X77077469Y83974191D01*
X110117954Y24766482D02*
X110065537Y24931551D01*
X110207292Y24809181D02*
X110117954Y24766482D01*
X110065537Y24931551D02*
X110207292Y24809181D01*
X89646781Y65183010D02*
X89915026Y65156591D01*
X89442021Y46256591D02*
X89467987Y46285228D01*
X89527087Y46256591D02*
X89442021Y46256591D01*
X89467987Y46285228D02*
X89527087Y46256591D01*
X43714902Y40015162D02*
X44246471Y40185659D01*
X44130932Y40055270D02*
X43714902Y40015162D01*
X44246471Y40185659D02*
X44130932Y40055270D01*
X83965892Y54703084D02*
X83861119Y54357692D01*
X60045782Y45502476D02*
X59780191Y45284511D01*
X56590775Y73655379D02*
X56643184Y73123268D01*
X83975115Y69234335D02*
X83883491Y69384511D01*
X84060503Y69276891D02*
X83975115Y69234335D01*
X83883491Y69384511D02*
X84060503Y69276891D01*
X126807035Y16028206D02*
X127066989Y15889258D01*
X25949077Y64685469D02*
X25952718Y64648516D01*
X95013177Y46256591D02*
X94493464Y46256591D01*
X28416058Y62199923D02*
X28669480Y62064466D01*
X45505857Y57521983D02*
X45509146Y57526125D01*
X45509847Y57523446D02*
X45505857Y57521983D01*
X45509146Y57526125D02*
X45509847Y57523446D01*
X47417415Y64826376D02*
X47131224Y64673404D01*
X100339814Y63948543D02*
X100391806Y63777148D01*
X100444305Y36986640D02*
X100496713Y36454529D01*
X100444305Y45702060D02*
X100429224Y45784401D01*
X100444305Y45763525D02*
X100444305Y45702060D01*
X100429224Y45784401D02*
X100444305Y45763525D01*
X93511171Y65156591D02*
X93661976Y65252674D01*
X93685339Y65156591D02*
X93511171Y65156591D01*
X93661976Y65252674D02*
X93685339Y65156591D01*
X127339311Y15776459D02*
X127621377Y15690895D01*
X100434868Y46060939D02*
X100444305Y46080413D01*
X100444305Y46052383D02*
X100434868Y46060939D01*
X100444305Y46080413D02*
X100444305Y46052383D01*
X63438027Y48894721D02*
X63491933Y48948627D01*
X63473964Y48930658D02*
X63438027Y48894721D01*
X63491933Y48948627D02*
X63473964Y48930658D01*
X50016131Y44502825D02*
X50026900Y44513594D01*
X50023310Y44510004D02*
X50016131Y44502825D01*
X50026900Y44513594D02*
X50023310Y44510004D01*
X55898821Y66768894D02*
X55700290Y66526984D01*
X53756969Y49063396D02*
X53735345Y48843847D01*
X66996719Y51923257D02*
X67015000Y51923257D01*
X66990625Y51923257D02*
X66996719Y51923257D01*
X66990625Y51923257D02*
X66990625Y51923257D01*
X67008906Y51923257D02*
X66990625Y51923257D01*
X67015000Y51923257D02*
X67008906Y51923257D01*
X67015000Y51923257D02*
X67015000Y51923257D01*
X109270660Y62310544D02*
X109346403Y62060853D01*
X48668979Y65139878D02*
X48346032Y65108070D01*
X100960851Y34924467D02*
X101212900Y34452916D01*
X82398804Y51630147D02*
X82503699Y51776732D01*
X82539286Y51562668D02*
X82398804Y51630147D01*
X82503699Y51776732D02*
X82539286Y51562668D01*
X81557635Y51745666D02*
X81364299Y51803040D01*
X81510062Y51885249D02*
X81557635Y51745666D01*
X81364299Y51803040D02*
X81510062Y51885249D01*
X76062976Y69998380D02*
X76128512Y70057014D01*
X76298822Y69998380D02*
X76062976Y69998380D01*
X76128512Y70057014D02*
X76298822Y69998380D01*
X109614116Y25787854D02*
X109420658Y26023522D01*
X109743954Y25786305D02*
X109614116Y25787854D01*
X109420658Y26023522D02*
X109743954Y25786305D01*
X64914717Y66205528D02*
X65328215Y66544909D01*
X64905620Y65978744D02*
X64914717Y66205528D01*
X65328215Y66544909D02*
X64905620Y65978744D01*
X114875500Y24706421D02*
X115347050Y24454372D01*
X83658140Y69788128D02*
X83700299Y69808363D01*
X83804993Y69767172D02*
X83658140Y69788128D01*
X83700299Y69808363D02*
X83804993Y69767172D01*
X34019293Y39899464D02*
X34094609Y40092025D01*
X34481281Y40015162D02*
X34019293Y39899464D01*
X34094609Y40092025D02*
X34481281Y40015162D01*
X45528468Y57547205D02*
X45526758Y57552693D01*
X45528468Y57551748D02*
X45528468Y57547205D01*
X45526758Y57552693D02*
X45528468Y57551748D01*
X66794901Y51923257D02*
X66830741Y51923257D01*
X66818794Y51923257D02*
X66794901Y51923257D01*
X66830741Y51923257D02*
X66818794Y51923257D01*
X33134332Y61177189D02*
X32984652Y60897158D01*
X89437276Y46667949D02*
X89508683Y46728803D01*
X89449981Y46627447D02*
X89437276Y46667949D01*
X89508683Y46728803D02*
X89449981Y46627447D01*
X87134618Y46708441D02*
X87267556Y46599341D01*
X88793960Y46256591D02*
X88860659Y46299087D01*
X88870992Y46256591D02*
X88793960Y46256591D01*
X88860659Y46299087D02*
X88870992Y46256591D01*
X63330215Y48786909D02*
X63366152Y48822846D01*
X63312246Y48768940D02*
X63330215Y48786909D01*
X63366152Y48822846D02*
X63312246Y48768940D01*
X81337623Y69998380D02*
X81389186Y69998380D01*
X81371998Y69998380D02*
X81337623Y69998380D01*
X81389186Y69998380D02*
X81371998Y69998380D01*
X32398816Y58447087D02*
X32357442Y58495617D01*
X32426322Y58456703D02*
X32398816Y58447087D01*
X32357442Y58495617D02*
X32426322Y58456703D01*
X100131368Y46194843D02*
X100170755Y46173790D01*
X83567985Y69740081D02*
X83478844Y69806033D01*
X83608603Y69785903D02*
X83567985Y69740081D01*
X83478844Y69806033D02*
X83608603Y69785903D01*
X50146566Y44594095D02*
X50128130Y44588502D01*
X27870402Y62396677D02*
X28134365Y62316604D01*
X124081541Y18587293D02*
X124328163Y18384896D01*
X56528634Y68149802D02*
X56415187Y67775820D01*
X96143879Y75889082D02*
X96193184Y75388483D01*
X53543842Y48212548D02*
X53439847Y48017988D01*
X82520993Y52066409D02*
X82444825Y52250057D01*
X82560836Y52248430D02*
X82520993Y52066409D01*
X82444825Y52250057D02*
X82560836Y52248430D01*
X77976673Y81803322D02*
X78023184Y81331100D01*
X33464477Y57547912D02*
X33576076Y57514059D01*
X75853967Y70165519D02*
X75881962Y70299754D01*
X75976611Y70173460D02*
X75853967Y70165519D01*
X75881962Y70299754D02*
X75976611Y70173460D01*
X50039392Y44526086D02*
X50044847Y44531541D01*
X50037668Y44524362D02*
X50039392Y44526086D01*
X50037668Y44524362D02*
X50037668Y44524362D01*
X50043052Y44529746D02*
X50037668Y44524362D01*
X50044847Y44531541D02*
X50043052Y44529746D01*
X50044847Y44531541D02*
X50044847Y44531541D01*
X94871526Y78579243D02*
X95190639Y78190402D01*
X66972344Y51923257D02*
X66990625Y51923257D01*
X66984531Y51923257D02*
X66972344Y51923257D01*
X66990625Y51923257D02*
X66984531Y51923257D01*
X69711924Y69841659D02*
X69200262Y69686448D01*
X46418125Y40986707D02*
X46586517Y41073211D01*
X46377012Y40917156D02*
X46418125Y40986707D01*
X46586517Y41073211D02*
X46377012Y40917156D01*
X32579717Y58429097D02*
X32627227Y58449598D01*
X32625697Y58417272D02*
X32579717Y58429097D01*
X32627227Y58449598D02*
X32625697Y58417272D01*
X59494515Y45093629D02*
X59191504Y44931666D01*
X52818778Y65139878D02*
X53387107Y65243274D01*
X53242642Y65139878D02*
X52818778Y65139878D01*
X53387107Y65243274D02*
X53242642Y65139878D01*
X95470104Y77772155D02*
X95707226Y77328530D01*
X94465659Y65156591D02*
X94636883Y65240788D01*
X94634249Y65156591D02*
X94465659Y65156591D01*
X94636883Y65240788D02*
X94634249Y65156591D01*
X45492271Y57508397D02*
X45483880Y57501511D01*
X32463397Y58352134D02*
X32440404Y58389527D01*
X32469354Y58385811D02*
X32463397Y58352134D01*
X32440404Y58389527D02*
X32469354Y58385811D01*
X26770446Y62521894D02*
X26993489Y62477529D01*
X32863140Y60603802D02*
X32770968Y60299950D01*
X69256197Y52288100D02*
X69032358Y52168455D01*
X77746359Y82722787D02*
X77884101Y82268712D01*
X63923184Y63326958D02*
X63788811Y63825625D01*
X63963292Y63742342D02*
X63923184Y63326958D01*
X63788811Y63825625D02*
X63963292Y63742342D01*
X66842687Y51923257D02*
X66866580Y51923257D01*
X66830741Y51923257D02*
X66842687Y51923257D01*
X66866580Y51923257D02*
X66830741Y51923257D01*
X45434219Y57480941D02*
X45423417Y57479878D01*
X82644467Y52686210D02*
X82874664Y52878116D01*
X82682540Y52555855D02*
X82644467Y52686210D01*
X82874664Y52878116D02*
X82682540Y52555855D01*
X50110330Y44581129D02*
X50093339Y44572047D01*
X93700582Y65417633D02*
X93858595Y65479518D01*
X93714887Y65336097D02*
X93700582Y65417633D01*
X93858595Y65479518D02*
X93714887Y65336097D01*
X33093401Y57759658D02*
X33164453Y57701347D01*
X63923184Y49738240D02*
X63913730Y49642260D01*
X53317282Y47834557D02*
X53177329Y47664023D01*
X100339989Y46004927D02*
X100329114Y46022633D01*
X100343134Y46020725D02*
X100339989Y46004927D01*
X100329114Y46022633D02*
X100343134Y46020725D01*
X90472874Y47743161D02*
X90243279Y47463399D01*
X50059205Y44545899D02*
X50066384Y44553078D01*
X50055616Y44542310D02*
X50059205Y44545899D01*
X50066384Y44553078D02*
X50055616Y44542310D01*
X88054493Y46273415D02*
X88225323Y46256591D01*
X45527403Y57573038D02*
X45528468Y57583561D01*
X45528468Y57568605D02*
X45527403Y57573038D01*
X45528468Y57583561D02*
X45528468Y57568605D01*
X32677900Y41406219D02*
X32677900Y41831477D01*
X32830718Y41309294D02*
X32677900Y41406219D01*
X32677900Y41831477D02*
X32830718Y41309294D01*
X66460038Y51878570D02*
X66419245Y51856765D01*
X66638434Y51923257D02*
X66592402Y51918723D01*
X33690455Y57491308D02*
X33806514Y57479878D01*
X99698874Y64952507D02*
X99756527Y64985022D01*
X99729729Y64918093D02*
X99698874Y64952507D01*
X99756527Y64985022D02*
X99729729Y64918093D01*
X95794149Y67178974D02*
X95658090Y66924426D01*
X120473537Y19681770D02*
X120754906Y19531375D01*
X32677900Y57831329D02*
X32670280Y57887309D01*
X32697095Y57872886D02*
X32677900Y57831329D01*
X32670280Y57887309D02*
X32697095Y57872886D01*
X92934322Y46256591D02*
X92414609Y46256591D01*
X109194182Y62826126D02*
X109219757Y62566456D01*
X63801877Y49298357D02*
X63779145Y49255829D01*
X91194181Y49759075D02*
X91158707Y49398906D01*
X100207890Y46148979D02*
X100242413Y46120646D01*
X64397079Y65112318D02*
X64381281Y65422368D01*
X64524966Y65362995D02*
X64397079Y65112318D01*
X64381281Y65422368D02*
X64524966Y65362995D01*
X84071686Y68908595D02*
X84036497Y69075296D01*
X84124879Y69040652D02*
X84071686Y68908595D01*
X84036497Y69075296D02*
X84124879Y69040652D01*
X96193184Y68700592D02*
X96157289Y68336154D01*
X91894895Y46256591D02*
X91375182Y46256591D01*
X93973750Y46256591D02*
X93454037Y46256591D01*
X99973710Y64559349D02*
X100087334Y64420897D01*
X25899341Y64824470D02*
X25916844Y64791723D01*
X55238330Y76514882D02*
X55577531Y76101564D01*
X28908405Y61904822D02*
X29130532Y61722527D01*
X81543873Y69998380D02*
X81578248Y69998380D01*
X81526686Y69998380D02*
X81543873Y69998380D01*
X81578248Y69998380D02*
X81526686Y69998380D01*
X50032284Y44518978D02*
X50037668Y44524362D01*
X50035873Y44522567D02*
X50032284Y44518978D01*
X50037668Y44524362D02*
X50035873Y44522567D01*
X44651928Y40157333D02*
X44779702Y40291218D01*
X44823368Y40208411D02*
X44651928Y40157333D01*
X44779702Y40291218D02*
X44823368Y40208411D01*
X121667877Y19254429D02*
X121985382Y19223158D01*
X123534898Y18914939D02*
X123816268Y18764544D01*
X45994939Y63537119D02*
X45841967Y63250928D01*
X115791625Y24157317D02*
X116204943Y23818116D01*
X81414967Y69998380D02*
X81440748Y69998380D01*
X81432154Y69998380D02*
X81414967Y69998380D01*
X81440748Y69998380D02*
X81432154Y69998380D01*
X75629461Y69998380D02*
X75778818Y70079078D01*
X75784297Y69998380D02*
X75629461Y69998380D01*
X75778818Y70079078D02*
X75784297Y69998380D01*
X77510594Y73070686D02*
X77262966Y72607408D01*
X63111159Y65314040D02*
X63374199Y65397792D01*
X63180144Y65171746D02*
X63111159Y65314040D01*
X63374199Y65397792D02*
X63180144Y65171746D01*
X63752355Y49215733D02*
X63721763Y49178457D01*
X50184636Y44599743D02*
X50165463Y44597854D01*
X77244561Y51923257D02*
X76658738Y51923257D01*
X63603752Y64222294D02*
X63447765Y64443648D01*
X63720271Y64348007D02*
X63603752Y64222294D01*
X63447765Y64443648D02*
X63720271Y64348007D01*
X63258340Y48715034D02*
X63312246Y48768940D01*
X63294277Y48750971D02*
X63258340Y48715034D01*
X63312246Y48768940D02*
X63294277Y48750971D01*
X99973826Y65156591D02*
X100073051Y65156591D01*
X99951750Y65120465D02*
X99973826Y65156591D01*
X100073051Y65156591D02*
X99951750Y65120465D01*
X100186841Y64271975D02*
X100271272Y64114016D01*
X25931054Y64757419D02*
X25941833Y64721887D01*
X45490130Y41336330D02*
X45528468Y41535638D01*
X45605562Y41316241D02*
X45490130Y41336330D01*
X45528468Y41535638D02*
X45605562Y41316241D01*
X46109556Y40874404D02*
X46076620Y40959754D01*
X46191691Y40947795D02*
X46109556Y40874404D01*
X46076620Y40959754D02*
X46191691Y40947795D01*
X53781138Y65139878D02*
X53942641Y65242061D01*
X53966713Y65139878D02*
X53781138Y65139878D01*
X53942641Y65242061D02*
X53966713Y65139878D01*
X110061374Y25491676D02*
X110093167Y25576971D01*
X110239644Y25505777D02*
X110061374Y25491676D01*
X110093167Y25576971D02*
X110239644Y25505777D01*
X84472552Y69230727D02*
X84552791Y69277513D01*
X84555882Y69227440D02*
X84472552Y69230727D01*
X84552791Y69277513D02*
X84555882Y69227440D01*
X25952718Y63518300D02*
X25997083Y63295258D01*
X69663431Y52590125D02*
X69467233Y52429110D01*
X113345440Y25170561D02*
X112813329Y25222970D01*
X56331252Y74691453D02*
X56486463Y74179791D01*
X83363330Y53413376D02*
X83150092Y53153544D01*
X78023184Y75114023D02*
X77971372Y74587969D01*
X110665252Y24949727D02*
X110729369Y25104721D01*
X110797605Y25034544D02*
X110665252Y24949727D01*
X110729369Y25104721D02*
X110797605Y25034544D01*
X56792895Y44599743D02*
X56437946Y44599743D01*
X26371258Y62735264D02*
X26560345Y62608921D01*
X99258401Y65156591D02*
X99333359Y65156591D01*
X99242794Y65128395D02*
X99258401Y65156591D01*
X99333359Y65156591D02*
X99242794Y65128395D01*
X63518886Y48975580D02*
X63545840Y49002534D01*
X63536855Y48993549D02*
X63518886Y48975580D01*
X63545840Y49002534D02*
X63536855Y48993549D01*
X32654708Y57951481D02*
X32634045Y58008042D01*
X32684820Y57959183D02*
X32654708Y57951481D01*
X32634045Y58008042D02*
X32684820Y57959183D01*
X58208313Y44633419D02*
X57866387Y44599743D01*
X45292706Y40951046D02*
X45413677Y41146302D01*
X45463690Y41040203D02*
X45292706Y40951046D01*
X45413677Y41146302D02*
X45463690Y41040203D01*
X68306054Y51948134D02*
X68053466Y51923257D01*
X46861405Y64493116D02*
X46610556Y64287250D01*
X54896523Y65847816D02*
X55018362Y65922276D01*
X55005574Y65826999D02*
X54896523Y65847816D01*
X55018362Y65922276D02*
X55005574Y65826999D01*
X32658704Y58477436D02*
X32677900Y58518994D01*
X32685519Y58463012D02*
X32658704Y58477436D01*
X32677900Y58518994D02*
X32685519Y58463012D01*
X95497736Y66684439D02*
X95314632Y66461326D01*
X32728571Y57900723D02*
X32730101Y57933048D01*
X32776081Y57921223D02*
X32728571Y57900723D01*
X32730101Y57933048D02*
X32776081Y57921223D01*
X45717783Y62951120D02*
X45623583Y62640585D01*
X94873477Y65156591D02*
X94928768Y65217571D01*
X95054618Y65156591D02*
X94873477Y65156591D01*
X94928768Y65217571D02*
X95054618Y65156591D01*
X45455253Y57486209D02*
X45444866Y57483059D01*
X111053602Y25145336D02*
X111108653Y25245812D01*
X111360459Y25222970D02*
X111053602Y25145336D01*
X111108653Y25245812D02*
X111360459Y25222970D01*
X87412869Y66657195D02*
X87609770Y66460294D01*
X73729623Y51923257D02*
X73143800Y51923257D01*
X74901269Y51923257D02*
X74315446Y51923257D01*
X33387821Y39553437D02*
X33519097Y39885040D01*
X33655917Y39738312D02*
X33387821Y39553437D01*
X33519097Y39885040D02*
X33655917Y39738312D01*
X96085847Y67976989D02*
X95979544Y67626556D01*
X55208866Y66059378D02*
X55368616Y66195310D01*
X55238775Y65968802D02*
X55208866Y66059378D01*
X55368616Y66195310D02*
X55238775Y65968802D01*
X110733696Y25228544D02*
X110664017Y25342166D01*
X110829147Y25297163D02*
X110733696Y25228544D01*
X110664017Y25342166D02*
X110829147Y25297163D01*
X32721753Y58342278D02*
X32670978Y58391136D01*
X32701091Y58398839D02*
X32721753Y58342278D01*
X32670978Y58391136D02*
X32701091Y58398839D01*
X32998355Y57854704D02*
X32929475Y57893618D01*
X32956981Y57903234D02*
X32998355Y57854704D01*
X32929475Y57893618D02*
X32956981Y57903234D01*
X99594198Y64895410D02*
X99514023Y64938366D01*
X99619673Y64934614D02*
X99594198Y64895410D01*
X99514023Y64938366D02*
X99619673Y64934614D01*
X26084110Y63085156D02*
X26210453Y62896070D01*
X50046642Y44533336D02*
X50050231Y44536925D01*
X50044847Y44531541D02*
X50046642Y44533336D01*
X50050231Y44536925D02*
X50044847Y44531541D01*
X87005157Y67064907D02*
X87206032Y66864032D01*
X81011061Y69998380D02*
X81114186Y69998380D01*
X81079811Y69998380D02*
X81011061Y69998380D01*
X81114186Y69998380D02*
X81079811Y69998380D01*
X45523106Y57515991D02*
X45521289Y57518441D01*
X45524403Y57517349D02*
X45523106Y57515991D01*
X45521289Y57518441D02*
X45524403Y57517349D01*
X82191035Y52394298D02*
X82367159Y52494982D01*
X82344669Y52357466D02*
X82191035Y52394298D01*
X82367159Y52494982D02*
X82344669Y52357466D01*
X33240879Y57650281D02*
X33321942Y57606952D01*
X32937103Y39041097D02*
X32893514Y39234035D01*
X33058004Y39223620D02*
X32937103Y39041097D01*
X32893514Y39234035D02*
X33058004Y39223620D01*
X94863372Y66032539D02*
X95015426Y66162120D01*
X94890427Y65946294D02*
X94863372Y66032539D01*
X95015426Y66162120D02*
X94890427Y65946294D01*
X86603406Y67466658D02*
X86804281Y67265783D01*
X49980235Y44466929D02*
X49991004Y44477698D01*
X49987414Y44474108D02*
X49980235Y44466929D01*
X49991004Y44477698D02*
X49987414Y44474108D01*
X109446255Y61819789D02*
X109569255Y61589673D01*
X46001784Y40696526D02*
X46084765Y40800859D01*
X46106305Y40749805D02*
X46001784Y40696526D01*
X46084765Y40800859D02*
X46106305Y40749805D01*
X56065088Y44599743D02*
X55702975Y44599743D01*
X32677900Y40666620D02*
X32677900Y40896126D01*
X32802573Y40769788D02*
X32677900Y40666620D01*
X32677900Y40896126D02*
X32802573Y40769788D01*
X44770225Y40464475D02*
X44909080Y40567420D01*
X44809382Y40385638D02*
X44770225Y40464475D01*
X44909080Y40567420D02*
X44809382Y40385638D01*
X25855157Y64884046D02*
X25878713Y64855343D01*
X50077320Y44561343D02*
X50062427Y44549121D01*
X89297992Y46573177D02*
X89351731Y46606183D01*
X89345938Y46563631D02*
X89297992Y46573177D01*
X89351731Y46606183D02*
X89345938Y46563631D01*
X32677900Y38234130D02*
X32677900Y38754781D01*
X32754794Y38610776D02*
X32677900Y38234130D01*
X32677900Y38754781D02*
X32754794Y38610776D01*
X68797868Y52071327D02*
X68554988Y51997650D01*
X100444305Y45989278D02*
X100431276Y46015773D01*
X100444305Y46015366D02*
X100444305Y45989278D01*
X100431276Y46015773D02*
X100444305Y46015366D01*
X80577837Y51923257D02*
X81047630Y51995404D01*
X80937509Y51887879D02*
X80577837Y51923257D01*
X81047630Y51995404D02*
X80937509Y51887879D01*
X100444305Y45841584D02*
X100429436Y45864919D01*
X100444305Y45868535D02*
X100444305Y45841584D01*
X100429436Y45864919D02*
X100444305Y45868535D01*
X63096621Y48553315D02*
X63204434Y48661128D01*
X63168496Y48625190D02*
X63096621Y48553315D01*
X63204434Y48661128D02*
X63168496Y48625190D01*
X91088101Y49043948D02*
X90983043Y48697620D01*
X55139740Y65629688D02*
X55080022Y65755027D01*
X55162296Y65758036D02*
X55139740Y65629688D01*
X55080022Y65755027D02*
X55162296Y65758036D01*
X56643184Y68922031D02*
X56604877Y68533103D01*
X63653025Y49109719D02*
X63687373Y49144067D01*
X63635851Y49092545D02*
X63653025Y49109719D01*
X63687373Y49144067D02*
X63635851Y49092545D01*
X64118602Y65706134D02*
X64376296Y65845767D01*
X64307068Y65608234D02*
X64118602Y65706134D01*
X64376296Y65845767D02*
X64307068Y65608234D01*
X66954063Y51923257D02*
X66990625Y51923257D01*
X66941875Y51923257D02*
X66972344Y51923257D01*
X66990625Y51923257D02*
X66990625Y51923257D01*
X100403911Y45870893D02*
X100429224Y45784401D01*
X100444305Y45763525D02*
X100444305Y45841584D01*
X100416527Y45873106D02*
X100429436Y45864919D01*
X49991004Y44477698D02*
X49969466Y44456160D01*
X49962287Y44448981D02*
X49980235Y44466929D01*
X49994593Y44481287D02*
X49991004Y44477698D01*
X32709022Y59988527D02*
X32770968Y60299950D01*
X109270660Y62310544D02*
X109219757Y62566456D01*
X45526278Y57509728D02*
X45523106Y57515991D01*
X45528468Y57515576D02*
X45528468Y57508391D01*
X45526695Y57517349D02*
X45524403Y57517349D01*
X127910473Y15633391D02*
X127621377Y15690895D01*
X68306054Y51948134D02*
X68554988Y51997650D01*
X45524684Y57559724D02*
X45527403Y57573038D01*
X45525703Y57554668D02*
X45526758Y57552693D01*
X45528468Y57551748D02*
X45528468Y57568605D01*
X76072915Y51923257D02*
X76658738Y51923257D01*
X77976673Y81803322D02*
X77884101Y82268712D01*
X33310739Y61441202D02*
X33134332Y61177189D01*
X45474855Y57495480D02*
X45483880Y57501511D01*
X73729623Y51923257D02*
X74315446Y51923257D01*
X82215861Y51454105D02*
X82513101Y51264977D01*
X82642659Y51283769D02*
X82539286Y51562668D01*
X82254951Y51564773D02*
X82398804Y51630147D01*
X109818109Y25482640D02*
X109614116Y25787854D01*
X109954106Y25444727D02*
X110061374Y25491676D01*
X109743954Y25786305D02*
X110093167Y25576971D01*
X50093339Y44572047D02*
X50077320Y44561343D01*
X81217311Y69998380D02*
X81114186Y69998380D01*
X81165748Y69998380D02*
X81079811Y69998380D01*
X81217311Y69998380D02*
X81234498Y69998380D01*
X74433798Y70316934D02*
X73636840Y70116061D01*
X74132713Y69998380D02*
X73440338Y69998380D01*
X74354344Y70120197D02*
X74431938Y70212130D01*
X32677900Y41406219D02*
X32677900Y40896126D01*
X32961995Y40766233D02*
X32802573Y40769788D01*
X33054200Y40858667D02*
X32830718Y41309294D01*
X33164453Y57701347D02*
X33240879Y57650281D01*
X55018362Y65922276D02*
X55208866Y66059378D01*
X55005574Y65826999D02*
X55080022Y65755027D01*
X55238775Y65968802D02*
X55162296Y65758036D01*
X93141620Y65254051D02*
X93700582Y65417633D01*
X93006706Y65156591D02*
X93511171Y65156591D01*
X93661976Y65252674D02*
X93714887Y65336097D01*
X63609796Y49066490D02*
X63635851Y49092545D01*
X63583910Y49040604D02*
X63583910Y49040604D01*
X63575281Y49031975D02*
X63653025Y49109719D01*
X96045743Y76382438D02*
X96143879Y75889082D01*
X122621928Y19191885D02*
X122934839Y19129643D01*
X45560275Y62322311D02*
X45623583Y62640585D01*
X100087334Y64420897D02*
X100186841Y64271975D01*
X121354966Y19316670D02*
X121667877Y19254429D01*
X32670280Y57887309D02*
X32654708Y57951481D01*
X32697095Y57872886D02*
X32728571Y57900723D01*
X32684820Y57959183D02*
X32730101Y57933048D01*
X55874586Y75656989D02*
X55577531Y76101564D01*
X59780191Y45284511D02*
X59494515Y45093629D01*
X100170755Y46173790D02*
X100207890Y46148979D01*
X73141952Y56430880D02*
X73176715Y56605643D01*
X89382418Y65235595D02*
X89646781Y65183010D01*
X63788811Y63825625D02*
X63603752Y64222294D01*
X64051560Y64192918D02*
X63963292Y63742342D01*
X63937136Y64351976D02*
X63720271Y64348007D01*
X94493464Y46256591D02*
X93973750Y46256591D01*
X56072684Y67029098D02*
X55898821Y66768894D01*
X56528634Y68149802D02*
X56604877Y68533103D01*
X82644467Y52686210D02*
X82367159Y52494982D01*
X82444825Y52250057D02*
X82344669Y52357466D01*
X82560836Y52248430D02*
X82682540Y52555855D01*
X84592954Y69320633D02*
X84552791Y69277513D01*
X84778074Y69176098D02*
X84555882Y69227440D01*
X84853596Y69195733D02*
X84667038Y69330849D01*
X91158707Y49398906D02*
X91088101Y49043948D01*
X26770446Y62521894D02*
X26560345Y62608921D01*
X66759062Y51923257D02*
X66830741Y51923257D01*
X66735169Y51923257D02*
X66794901Y51923257D01*
X66830741Y51923257D02*
X66842687Y51923257D01*
X83975115Y69234335D02*
X84036497Y69075296D01*
X84223560Y69145521D02*
X84124879Y69040652D01*
X84219314Y69222152D02*
X84060503Y69276891D01*
X32864763Y57941136D02*
X32886444Y57964510D01*
X32866199Y57915795D02*
X32929475Y57893618D01*
X32915394Y57960794D02*
X32956981Y57903234D01*
X53439847Y48017988D02*
X53317282Y47834557D01*
X94681213Y65901016D02*
X94863372Y66032539D01*
X94668877Y65810405D02*
X94737711Y65741741D01*
X94814958Y65743389D02*
X94890427Y65946294D01*
X77868247Y74069526D02*
X77971372Y74587969D01*
X100601024Y35930116D02*
X100496713Y36454529D01*
X25899341Y64824470D02*
X25878713Y64855343D01*
X67033281Y51923257D02*
X67051563Y51923257D01*
X67015000Y51923257D02*
X67015000Y51923257D01*
X67063750Y51923257D02*
X67015000Y51923257D01*
X87885667Y46306996D02*
X88054493Y46273415D01*
X110182448Y24476338D02*
X110117954Y24766482D01*
X110270946Y24410260D02*
X110375657Y24638305D01*
X110332106Y24762365D02*
X110207292Y24809181D01*
X69256197Y52288100D02*
X69467233Y52429110D01*
X88877734Y46372046D02*
X88627848Y46298916D01*
X88569257Y46256591D02*
X88793960Y46256591D01*
X88884061Y46335984D02*
X88860659Y46299087D01*
X120208264Y19859020D02*
X120473537Y19681770D01*
X27599861Y62450491D02*
X27870402Y62396677D01*
X57147845Y44599743D02*
X56792895Y44599743D01*
X50055616Y44542310D02*
X50050231Y44536925D01*
X50044847Y44531541D02*
X50044847Y44531541D01*
X50044847Y44531541D02*
X50059205Y44545899D01*
X113869852Y25066248D02*
X113345440Y25170561D01*
X96157289Y68336154D02*
X96085847Y67976989D01*
X100308762Y46050820D02*
X100329114Y46022633D01*
X100353759Y46031376D02*
X100343134Y46020725D01*
X100322107Y46055006D02*
X100353504Y46043328D01*
X32627227Y58449598D02*
X32658704Y58477436D01*
X32625697Y58417272D02*
X32670978Y58391136D01*
X32685519Y58463012D02*
X32701091Y58398839D01*
X81500904Y69998380D02*
X81526686Y69998380D01*
X81475123Y69998380D02*
X81475123Y69998380D01*
X81475123Y69998380D02*
X81543873Y69998380D01*
X33576076Y57514059D02*
X33690455Y57491308D01*
X77341091Y83579652D02*
X77077469Y83974191D01*
X83550074Y53692858D02*
X83363330Y53413376D01*
X110729369Y25104721D02*
X110733696Y25228544D01*
X110797605Y25034544D02*
X111053602Y25145336D01*
X111108653Y25245812D02*
X110829147Y25297163D01*
X58545291Y44700448D02*
X58208313Y44633419D01*
X76971122Y72170633D02*
X77262966Y72607408D01*
X115347050Y24454372D02*
X115791625Y24157317D01*
X92414609Y46256591D02*
X91894895Y46256591D01*
X64914717Y66205528D02*
X64376296Y65845767D01*
X64381281Y65422368D02*
X64307068Y65608234D01*
X64905620Y65978744D02*
X64524966Y65362995D01*
X100416736Y46030507D02*
X100431276Y46015773D01*
X100444305Y46052383D02*
X100444305Y46015366D01*
X100418927Y46047747D02*
X100434868Y46060939D01*
X63894914Y49547669D02*
X63913730Y49642260D01*
X54982780Y65227778D02*
X55080541Y65325213D01*
X54980623Y65139878D02*
X55232031Y65139878D01*
X55290147Y65203565D02*
X55198833Y65311388D01*
X46109556Y40874404D02*
X46084765Y40800859D01*
X46377012Y40917156D02*
X46106305Y40749805D01*
X46418125Y40986707D02*
X46191691Y40947795D01*
X53692305Y48627475D02*
X53735345Y48843847D01*
X28669480Y62064466D02*
X28908405Y61904822D01*
X98980254Y65156591D02*
X99258401Y65156591D01*
X98907115Y65139025D02*
X99126795Y65094176D01*
X99210210Y65110996D02*
X99242794Y65128395D01*
X47131224Y64673404D02*
X46861405Y64493116D01*
X56590775Y73655379D02*
X56486463Y74179791D01*
X75853967Y70165519D02*
X75778818Y70079078D01*
X76062976Y69998380D02*
X75784297Y69998380D01*
X76128512Y70057014D02*
X75976611Y70173460D01*
X72839046Y55790440D02*
X72938041Y55938597D01*
X100426748Y63601481D02*
X100391806Y63777148D01*
X32398816Y58447087D02*
X32440404Y58389527D01*
X32491034Y58409185D02*
X32469354Y58385811D01*
X32489598Y58434526D02*
X32426322Y58456703D01*
X87806672Y66263392D02*
X87609770Y66460294D01*
X55340863Y44599743D02*
X55702975Y44599743D01*
X46175227Y63806938D02*
X45994939Y63537119D01*
X25949077Y64685469D02*
X25941833Y64721887D01*
X44246471Y40185659D02*
X44770225Y40464475D01*
X44130932Y40055270D02*
X44651928Y40157333D01*
X44779702Y40291218D02*
X44809382Y40385638D01*
X66380785Y51831067D02*
X66419245Y51856765D01*
X126561952Y16191965D02*
X126807035Y16028206D01*
X68234725Y69229782D02*
X67790150Y68932727D01*
X83291201Y69929586D02*
X83700299Y69808363D01*
X83178261Y69943755D02*
X83478844Y69806033D01*
X83658140Y69788128D02*
X83608603Y69785903D01*
X89437276Y46667949D02*
X89351731Y46606183D01*
X89378263Y46531385D02*
X89345938Y46563631D01*
X89414539Y46532160D02*
X89449981Y46627447D01*
X45512638Y57531397D02*
X45509146Y57526125D01*
X45514012Y57523182D02*
X45509847Y57523446D01*
X45515014Y57529852D02*
X45516098Y57525053D01*
X53984988Y65416987D02*
X53387107Y65243274D01*
X53242642Y65139878D02*
X53781138Y65139878D01*
X53999394Y65330203D02*
X53942641Y65242061D01*
X32677900Y39336761D02*
X32677900Y38754781D01*
X32937103Y39041097D02*
X32754794Y38610776D01*
X32787413Y39336714D02*
X32893514Y39234035D01*
X94732100Y65334750D02*
X94636883Y65240788D01*
X94634249Y65156591D02*
X94873477Y65156591D01*
X94843515Y65320594D02*
X94928768Y65217571D01*
X62626606Y65205551D02*
X63111159Y65314040D01*
X62908395Y64897579D02*
X62515776Y65062991D01*
X63106940Y64973339D02*
X63180144Y65171746D01*
X70236337Y69945971D02*
X69711924Y69841659D01*
X63779145Y49255829D02*
X63752355Y49215733D01*
X88413629Y65693798D02*
X88637745Y65544049D01*
X90673941Y48044080D02*
X90472874Y47743161D01*
X81515776Y52112642D02*
X81047630Y51995404D01*
X81364299Y51803040D02*
X80937509Y51887879D01*
X81560618Y52014505D02*
X81510062Y51885249D01*
X63545840Y49002534D02*
X63491933Y48948627D01*
X63473964Y48930658D02*
X63518886Y48975580D01*
X63554824Y49011518D02*
X63545840Y49002534D01*
X75585685Y70802697D02*
X75780438Y70935108D01*
X75572061Y70699412D02*
X75694077Y70631523D01*
X75801506Y70663446D02*
X75837778Y70844498D01*
X89330913Y46296131D02*
X89375628Y46340257D01*
X89329676Y46256591D02*
X89442021Y46256591D01*
X89427951Y46333609D02*
X89467987Y46285228D01*
X109714217Y61372720D02*
X109569255Y61589673D01*
X50146566Y44594095D02*
X50165463Y44597854D01*
X25997083Y63295258D02*
X26084110Y63085156D01*
X84036307Y55057083D02*
X83965892Y54703084D01*
X66547035Y51909698D02*
X66592402Y51918723D01*
X50026900Y44513594D02*
X50037668Y44524362D01*
X50023310Y44510004D02*
X50032284Y44518978D01*
X50037668Y44524362D02*
X50037668Y44524362D01*
X87410547Y46503797D02*
X87267556Y46599341D01*
X95190639Y78190402D02*
X95470104Y77772155D01*
X63312246Y48768940D02*
X63204434Y48661128D01*
X63258340Y48715034D02*
X63168496Y48625190D01*
X63330215Y48786909D02*
X63312246Y48768940D01*
X101509955Y34008341D02*
X101212900Y34452916D01*
X45434219Y57480941D02*
X45444866Y57483059D01*
X124081541Y18587293D02*
X123816268Y18764544D01*
X99855244Y65156591D02*
X99973826Y65156591D01*
X99826000Y65127354D02*
X99825984Y65089539D01*
X99848386Y65068130D02*
X99951750Y65120465D01*
X45490130Y41336330D02*
X45413677Y41146302D01*
X45628421Y41070163D02*
X45463690Y41040203D01*
X45698237Y41177542D02*
X45605562Y41316241D01*
X100007885Y46239981D02*
X99952309Y46251036D01*
X95658090Y66924426D02*
X95497736Y66684439D01*
X81440748Y69998380D02*
X81389186Y69998380D01*
X81371998Y69998380D02*
X81414967Y69998380D01*
X81440748Y69998380D02*
X81440748Y69998380D01*
X33535271Y40155955D02*
X33519097Y39885040D01*
X34019293Y39899464D02*
X33655917Y39738312D01*
X33728389Y40243718D02*
X34094609Y40092025D01*
X87005157Y67064907D02*
X86804281Y67265783D01*
X48027758Y65044761D02*
X48346032Y65108070D01*
X99681173Y64837799D02*
X99594198Y64895410D01*
X99725379Y64849380D02*
X99729729Y64918093D01*
X99698874Y64952507D02*
X99619673Y64934614D01*
X50128130Y44588502D02*
X50110330Y44581129D01*
X25916844Y64791723D02*
X25931054Y64757419D01*
X90844545Y48363258D02*
X90983043Y48697620D01*
X100062110Y46223531D02*
X100131368Y46194843D01*
X63374199Y65397792D02*
X64118602Y65706134D01*
X63152717Y64738697D02*
X63447765Y64443648D01*
X64134722Y64478931D02*
X64397079Y65112318D01*
X28416058Y62199923D02*
X28134365Y62316604D01*
X95899724Y76863799D02*
X95707226Y77328530D01*
X32677900Y39553005D02*
X32677900Y40666620D01*
X33387821Y39553437D02*
X33058004Y39223620D01*
X33179295Y40685411D02*
X33433104Y40431602D01*
X75487092Y51923257D02*
X74901269Y51923257D01*
X92934322Y46256591D02*
X93454037Y46256591D01*
X123240142Y19037030D02*
X123534898Y18914939D01*
X99801060Y65156591D02*
X99333359Y65156591D01*
X99198686Y65071962D02*
X99514023Y64938366D01*
X99807960Y65038170D02*
X99756527Y64985022D01*
X77714802Y73563688D02*
X77510594Y73070686D01*
X109346403Y62060853D02*
X109446255Y61819789D01*
X56126635Y75185439D02*
X56331252Y74691453D01*
X88875459Y65416987D02*
X89124483Y65313839D01*
X83708524Y53989298D02*
X83861119Y54357692D01*
X66502772Y51896271D02*
X66460038Y51878570D01*
X100756235Y35418454D02*
X100960851Y34924467D01*
X33464477Y57547912D02*
X33321942Y57606952D01*
X73090227Y56260366D02*
X73022038Y56095743D01*
X56437946Y44599743D02*
X56065088Y44599743D01*
X66996719Y51923257D02*
X66866580Y51923257D01*
X66917500Y51923257D02*
X66818794Y51923257D01*
X67021094Y51923257D02*
X67008906Y51923257D01*
X58874077Y44800184D02*
X59191504Y44931666D01*
X45515241Y57536255D02*
X45523338Y57555367D01*
X45518068Y57521558D02*
X45521289Y57518441D01*
X45528468Y57518861D02*
X45528468Y57547205D01*
X68706275Y69481831D02*
X69200262Y69686448D01*
X50001772Y44488466D02*
X50039392Y44526086D01*
X50016131Y44502825D02*
X49987414Y44474108D01*
X50043052Y44529746D02*
X50046642Y44533336D01*
X77564773Y83161174D02*
X77746359Y82722787D01*
X75419511Y70709827D02*
X74649842Y70388879D01*
X74364810Y69998380D02*
X75629461Y69998380D01*
X75812854Y70500123D02*
X75881962Y70299754D01*
X87562214Y46422729D02*
X87721099Y46356917D01*
X53628265Y48416365D02*
X53543842Y48212548D01*
X94566780Y65830733D02*
X93858595Y65479518D01*
X93685339Y65156591D02*
X94465659Y65156591D01*
X94788693Y65465593D02*
X94792194Y65622620D01*
X84591112Y69377307D02*
X83804993Y69767172D01*
X83883491Y69384511D02*
X83567985Y69740081D01*
X84338175Y69211182D02*
X84472552Y69230727D01*
X32984652Y60897158D02*
X32863140Y60603802D01*
X69032358Y52168455D02*
X68797868Y52071327D01*
X88947621Y46399416D02*
X89297992Y46573177D01*
X89250503Y46256591D02*
X88870992Y46256591D01*
X89403849Y46475445D02*
X89402205Y46401703D01*
X95794149Y67178974D02*
X95979544Y67626556D01*
X81698217Y52175741D02*
X82191035Y52394298D01*
X82033574Y51548525D02*
X81557635Y51745666D01*
X82503699Y51776732D02*
X82520993Y52066409D01*
X127066989Y15889258D02*
X127339311Y15776459D01*
X109899218Y25333080D02*
X110065537Y24931551D01*
X110482127Y24787235D02*
X110665252Y24949727D01*
X110239644Y25505777D02*
X110664017Y25342166D01*
X56220205Y67305091D02*
X56415187Y67775820D01*
X100394335Y45895344D02*
X100339989Y46004927D01*
X100444305Y45989278D02*
X100444305Y45868535D01*
X100372191Y46039806D02*
X100396490Y46039264D01*
X114381514Y24911037D02*
X114875500Y24706421D01*
X47717223Y64950561D02*
X47417415Y64826376D01*
X45465282Y57490363D02*
X45455253Y57486209D01*
X81449342Y69998380D02*
X81268873Y69998380D01*
X81200123Y69998380D02*
X81337623Y69998380D01*
X81483717Y69998380D02*
X81466529Y69998380D01*
X32463397Y58352134D02*
X32634045Y58008042D01*
X32826763Y57922054D02*
X32776081Y57921223D01*
X32892401Y57998187D02*
X32721753Y58342278D01*
X32529034Y58428267D02*
X32579717Y58429097D01*
X63866917Y49455377D02*
X63801877Y49298357D01*
X45292706Y40951046D02*
X44909080Y40567420D01*
X44823368Y40208411D02*
X46001784Y40696526D01*
X45848337Y41054312D02*
X46076620Y40959754D01*
X26371258Y62735264D02*
X26210453Y62896070D01*
X54153589Y65482499D02*
X54896523Y65847816D01*
X54805161Y65139878D02*
X53966713Y65139878D01*
X55138799Y65463861D02*
X55139740Y65629688D01*
X100339814Y63948543D02*
X100271272Y64114016D01*
X45841967Y63250928D02*
X45717783Y62951120D01*
X63558024Y49014718D02*
X63366152Y48822846D01*
X63438027Y48894721D02*
X63294277Y48750971D01*
X63592539Y49049233D02*
X63572793Y49029487D01*
X87412869Y66657195D02*
X87206032Y66864032D01*
X121049663Y19409283D02*
X120754906Y19531375D01*
X27325349Y62477529D02*
X26993489Y62477529D01*
X32357442Y58495617D02*
X29130532Y61722527D01*
X54978750Y44599743D02*
X50184636Y44599743D01*
X43714902Y40015162D02*
X34481281Y40015162D01*
X32677900Y38234130D02*
X32677900Y34065129D01*
X32677900Y41831477D02*
X32677900Y57831329D01*
X57502794Y44599743D02*
X57866387Y44599743D01*
X77244561Y51923257D02*
X80577837Y51923257D01*
X82790797Y51052262D02*
X87134618Y46708441D01*
X109194182Y62826126D02*
X109194182Y64056591D01*
X109879747Y61171022D02*
X111194181Y59856591D01*
X67376832Y68593526D02*
X65328215Y66544909D01*
X46381093Y64057787D02*
X46610556Y64287250D01*
X53756969Y49063396D02*
X53756969Y50103742D01*
X49947928Y44434622D02*
X46586517Y41073211D01*
X53177329Y47664023D02*
X50066384Y44553078D01*
X50035873Y44522567D02*
X50062427Y44549121D01*
X73194181Y56782972D02*
X73194181Y57623257D01*
X67088125Y51923257D02*
X68053466Y51923257D01*
X72726005Y55652699D02*
X69663431Y52590125D01*
X66687384Y51923257D02*
X66638434Y51923257D01*
X66984531Y51923257D02*
X73143800Y51923257D01*
X89508683Y46728803D02*
X90243279Y47463399D01*
X91194181Y49759075D02*
X91194181Y51956591D01*
X88396749Y46256591D02*
X88225323Y46256591D01*
X89527087Y46256591D02*
X91375182Y46256591D01*
X82928735Y69998380D02*
X81578248Y69998380D01*
X81432154Y69998380D02*
X81801686Y69998380D01*
X84995634Y69074429D02*
X86603406Y67466658D01*
X88205270Y65864794D02*
X88003573Y66066491D01*
X76776445Y84340990D02*
X75194181Y85923257D01*
X75944033Y71070727D02*
X76637872Y71764566D01*
X78023184Y81331100D02*
X78023184Y75114023D01*
X70768448Y69998380D02*
X72898512Y69998380D01*
X76298822Y69998380D02*
X81011061Y69998380D01*
X55238330Y76514882D02*
X53282850Y78470365D01*
X55700290Y66526984D02*
X55368616Y66195310D01*
X56643184Y73123268D02*
X56643184Y68922031D01*
X48668979Y65139878D02*
X52818778Y65139878D01*
X55423674Y65139878D02*
X62136613Y65139878D01*
X33512175Y61686652D02*
X40691974Y68866451D01*
X32677900Y59672531D02*
X32677900Y58518994D01*
X25855157Y64884046D02*
X25731343Y65007863D01*
X25952718Y64648516D02*
X25952718Y63518300D01*
X94871526Y78579243D02*
X93194181Y80256591D01*
X95314632Y66461326D02*
X95015426Y66162120D01*
X96193184Y75388483D02*
X96193184Y68700592D01*
X92609480Y65156591D02*
X89915026Y65156591D01*
X101849156Y33595024D02*
X109420658Y26023522D01*
X110221213Y24183783D02*
X110221213Y22655552D01*
X100444305Y36986640D02*
X100444305Y45702060D01*
X99895917Y46256591D02*
X95013177Y46256591D01*
X100288710Y46074349D02*
X100242413Y46120646D01*
X128203812Y15604500D02*
X129593824Y15604500D01*
X122304423Y19223158D02*
X121985382Y19223158D01*
X126334100Y16378959D02*
X124328163Y18384896D01*
X112813329Y25222970D02*
X111360459Y25222970D01*
X119961642Y20061417D02*
X116204943Y23818116D01*
X82874664Y52878116D02*
X83150092Y53153544D01*
X84071686Y55416279D02*
X84071686Y68908595D01*
X63721763Y49178457D02*
X63687373Y49144067D01*
X63923184Y63326958D02*
X63923184Y49738240D01*
X60045782Y45502476D02*
X63096621Y48553315D01*
X66345030Y51801724D02*
X63536855Y48993549D01*
X99749518Y64783540D02*
X99973710Y64559349D01*
X100444305Y63423236D02*
X100444305Y46080413D01*
X98733490Y65156591D02*
X95054618Y65156591D01*
X100073051Y65156591D02*
X104594182Y65156591D01*
X33093401Y57759658D02*
X32998355Y57854704D01*
X45505857Y57521983D02*
X45492271Y57508397D01*
X45423417Y57479878D02*
X33806514Y57479878D01*
X45528468Y57502377D02*
X45528468Y41535638D01*
X45528468Y61999364D02*
X45528468Y57583561D01*
%TO.N,P21*%
X43665114Y70392279D02*
X43509903Y69880617D01*
X43029577Y63225287D02*
X42871673Y62929870D01*
X42685574Y62651353D02*
X42473071Y62392418D01*
X44121779Y71357816D02*
X43869730Y70886265D01*
X43255001Y63855305D02*
X43157765Y63534759D01*
X43405592Y69356205D02*
X43353184Y68824094D01*
X44758035Y72215708D02*
X44418834Y71802390D01*
X43353184Y64517196D02*
X43320351Y64183839D01*
X42871673Y62929870D02*
X42685574Y62651353D01*
X43509903Y69880617D02*
X43405592Y69356205D01*
X44121779Y71357816D02*
X44418834Y71802390D01*
X43255001Y63855305D02*
X43320351Y64183839D01*
X43665114Y70392279D02*
X43869730Y70886265D01*
X43029577Y63225287D02*
X43157765Y63534759D01*
X44758035Y72215708D02*
X48484904Y75942577D01*
X42473071Y62392418D02*
X41356101Y61275448D01*
X43353184Y68824094D02*
X43353184Y64517196D01*
%TD*%
M02*
