%TF.GenerationSoftware,KiCad,Pcbnew,(5.1.10)-1*%
%TF.CreationDate,2021-07-02T19:59:24+02:00*%
%TF.ProjectId,newidea,6e657769-6465-4612-9e6b-696361645f70,VERSION_HERE*%
%TF.SameCoordinates,Original*%
%TF.FileFunction,Soldermask,Bot*%
%TF.FilePolarity,Negative*%
%FSLAX46Y46*%
G04 Gerber Fmt 4.6, Leading zero omitted, Abs format (unit mm)*
G04 Created by KiCad (PCBNEW (5.1.10)-1) date 2021-07-02 19:59:24*
%MOMM*%
%LPD*%
G01*
G04 APERTURE LIST*
%ADD10C,0.010000*%
%ADD11C,3.529000*%
%ADD12C,1.801800*%
%ADD13C,2.132000*%
%ADD14C,1.852600*%
%ADD15C,1.600000*%
%ADD16O,1.700000X2.300000*%
G04 APERTURE END LIST*
D10*
%TO.C,G\u002A\u002A\u002A*%
G36*
X82437758Y24007982D02*
G01*
X82517202Y23807864D01*
X82575539Y23653310D01*
X82762691Y23294878D01*
X82971026Y23102976D01*
X83164047Y22970099D01*
X83194250Y22883275D01*
X83061606Y22841936D01*
X82957508Y22838000D01*
X82763502Y22876176D01*
X82555674Y23007665D01*
X82322508Y23226771D01*
X82127219Y23436712D01*
X81990727Y23600645D01*
X81944667Y23677679D01*
X81996854Y23768485D01*
X82119155Y23901558D01*
X82260182Y24028559D01*
X82368547Y24101146D01*
X82394978Y24101278D01*
X82437758Y24007982D01*
G37*
X82437758Y24007982D02*
X82517202Y23807864D01*
X82575539Y23653310D01*
X82762691Y23294878D01*
X82971026Y23102976D01*
X83164047Y22970099D01*
X83194250Y22883275D01*
X83061606Y22841936D01*
X82957508Y22838000D01*
X82763502Y22876176D01*
X82555674Y23007665D01*
X82322508Y23226771D01*
X82127219Y23436712D01*
X81990727Y23600645D01*
X81944667Y23677679D01*
X81996854Y23768485D01*
X82119155Y23901558D01*
X82260182Y24028559D01*
X82368547Y24101146D01*
X82394978Y24101278D01*
X82437758Y24007982D01*
G36*
X82995074Y31075941D02*
G01*
X83440546Y30897519D01*
X83867224Y30565928D01*
X84123702Y30276583D01*
X84295653Y30046867D01*
X84411087Y29875006D01*
X84445322Y29797786D01*
X84445126Y29797570D01*
X84359186Y29817898D01*
X84188842Y29914613D01*
X83980176Y30056178D01*
X83779269Y30211058D01*
X83632202Y30347715D01*
X83619170Y30362824D01*
X83443605Y30484467D01*
X83278540Y30452065D01*
X83172927Y30290538D01*
X83077653Y30154384D01*
X82891215Y29982706D01*
X82783351Y29902135D01*
X82394403Y29544852D01*
X82143190Y29118250D01*
X82043803Y28648166D01*
X82043566Y28545562D01*
X82052795Y28311714D01*
X82061696Y28239607D01*
X82074662Y28321715D01*
X82088638Y28468333D01*
X82120528Y28607181D01*
X82681518Y28607181D01*
X82709350Y28445858D01*
X82755216Y28389547D01*
X82979207Y28269039D01*
X83250925Y28309349D01*
X83524175Y28472642D01*
X83736531Y28699985D01*
X83808096Y28934021D01*
X83730768Y29143579D01*
X83705734Y29171067D01*
X83510722Y29266033D01*
X83268190Y29203765D01*
X83049921Y29051868D01*
X82792453Y28803369D01*
X82681518Y28607181D01*
X82120528Y28607181D01*
X82192056Y28918605D01*
X82423846Y29281295D01*
X82774587Y29569929D01*
X83061071Y29796754D01*
X83212045Y30027646D01*
X83234320Y30098167D01*
X83329566Y30311218D01*
X83459402Y30359354D01*
X83614698Y30241252D01*
X83672548Y30161667D01*
X83808554Y30009535D01*
X83929772Y29950000D01*
X84112427Y29876187D01*
X84311888Y29683103D01*
X84495026Y29413280D01*
X84628711Y29109248D01*
X84653453Y29020947D01*
X84725415Y28769549D01*
X84797418Y28593620D01*
X84831841Y28547742D01*
X84880457Y28440371D01*
X84906575Y28232099D01*
X84908000Y28167003D01*
X84895059Y27949823D01*
X84838166Y27854236D01*
X84715172Y27833333D01*
X84496833Y27780944D01*
X84255077Y27649465D01*
X84042286Y27477435D01*
X83910845Y27303390D01*
X83892000Y27227748D01*
X83965739Y27168588D01*
X84151657Y27095677D01*
X84251834Y27066300D01*
X84520814Y26953662D01*
X84815312Y26742950D01*
X85130785Y26449203D01*
X85410701Y26152186D01*
X85598777Y25899787D01*
X85734425Y25629630D01*
X85844067Y25320348D01*
X85943322Y24988674D01*
X85989201Y24749723D01*
X85987156Y24537435D01*
X85942639Y24285748D01*
X85933033Y24242292D01*
X85863353Y23977867D01*
X85793682Y23787684D01*
X85753338Y23726179D01*
X85661671Y23757956D01*
X85464631Y23878246D01*
X85187487Y24067828D01*
X84855509Y24307484D01*
X84493968Y24577994D01*
X84128134Y24860140D01*
X83783277Y25134702D01*
X83484666Y25382462D01*
X83257573Y25584199D01*
X83127266Y25720695D01*
X83122710Y25726905D01*
X83010832Y25934530D01*
X82968866Y26178961D01*
X82974154Y26431134D01*
X82981549Y26675610D01*
X82970281Y26827386D01*
X82951924Y26854460D01*
X82921036Y26760614D01*
X82886939Y26542554D01*
X82856447Y26245102D01*
X82853352Y26206182D01*
X82768447Y25641512D01*
X82610572Y25072644D01*
X82399470Y24558031D01*
X82165579Y24169981D01*
X81805370Y23825229D01*
X81351263Y23581426D01*
X80844775Y23446565D01*
X80327419Y23428636D01*
X79840711Y23535633D01*
X79569410Y23670206D01*
X79261066Y23884192D01*
X79073016Y24072177D01*
X78971408Y24278245D01*
X78926942Y24506846D01*
X78945882Y24851445D01*
X79062857Y25107024D01*
X79193685Y25265414D01*
X79309414Y25332627D01*
X79373056Y25300078D01*
X79353770Y25174548D01*
X79372749Y25063811D01*
X79511488Y25008666D01*
X79731459Y25004546D01*
X79994134Y25046888D01*
X80260985Y25131126D01*
X80493485Y25252695D01*
X80577966Y25319595D01*
X80718980Y25472007D01*
X80903960Y25699887D01*
X81104529Y25964385D01*
X81292309Y26226652D01*
X81438923Y26447838D01*
X81515993Y26589094D01*
X81521334Y26611092D01*
X81477381Y26627890D01*
X81364037Y26537629D01*
X81209073Y26371932D01*
X81040264Y26162426D01*
X80885379Y25940732D01*
X80793332Y25782114D01*
X80571293Y25462492D01*
X80299475Y25241446D01*
X80010322Y25130143D01*
X79736277Y25139748D01*
X79509780Y25281427D01*
X79472397Y25327479D01*
X79418398Y25410096D01*
X79402441Y25486772D01*
X79440678Y25580089D01*
X79549264Y25712626D01*
X79744353Y25906962D01*
X80042098Y26185679D01*
X80173077Y26306905D01*
X80569890Y26682200D01*
X80857149Y26977689D01*
X81056341Y27220814D01*
X81188954Y27439015D01*
X81276476Y27659733D01*
X81302034Y27748667D01*
X81335274Y27885016D01*
X81316115Y27881610D01*
X81229350Y27734613D01*
X81226505Y27729629D01*
X81026872Y27488117D01*
X80729213Y27320931D01*
X80422659Y27230724D01*
X80004637Y27207231D01*
X79597869Y27335098D01*
X79193133Y27619497D01*
X78781202Y28065600D01*
X78667310Y28214769D01*
X78543115Y28375655D01*
X78480074Y28409570D01*
X78439050Y28325982D01*
X78423529Y28273734D01*
X78324513Y28128643D01*
X78192524Y28118130D01*
X78087237Y28235032D01*
X78065851Y28316664D01*
X78105374Y28607152D01*
X78293031Y28874242D01*
X78437817Y28988585D01*
X78609837Y29073580D01*
X78790368Y29076584D01*
X78981380Y29028656D01*
X79186105Y28943501D01*
X79356055Y28802716D01*
X79534329Y28565767D01*
X79624576Y28423737D01*
X79830547Y28121183D01*
X80008768Y27961444D01*
X80199689Y27932344D01*
X80443757Y28021707D01*
X80624895Y28122598D01*
X80823813Y28257754D01*
X81026727Y28438349D01*
X81260773Y28692333D01*
X81553089Y29047658D01*
X81683284Y29212755D01*
X81743384Y29366574D01*
X81703614Y29483976D01*
X81599461Y29516123D01*
X81504400Y29458933D01*
X81373128Y29366132D01*
X81297508Y29418186D01*
X81268409Y29624356D01*
X81267334Y29699373D01*
X81296019Y29874981D01*
X81964904Y29874981D01*
X81974778Y29868378D01*
X82079684Y29916697D01*
X82253181Y30041024D01*
X82313445Y30090397D01*
X82552584Y30260674D01*
X82856398Y30436615D01*
X83003000Y30508853D01*
X83213321Y30613529D01*
X83322626Y30685720D01*
X83317686Y30707123D01*
X83160638Y30667279D01*
X82914397Y30556816D01*
X82628464Y30402259D01*
X82352341Y30230135D01*
X82156334Y30084823D01*
X82014026Y29951267D01*
X81964904Y29874981D01*
X81296019Y29874981D01*
X81344263Y30170313D01*
X81563668Y30565919D01*
X81908470Y30867574D01*
X82361592Y31056662D01*
X82546033Y31093311D01*
X82995074Y31075941D01*
G37*
X82995074Y31075941D02*
X83440546Y30897519D01*
X83867224Y30565928D01*
X84123702Y30276583D01*
X84295653Y30046867D01*
X84411087Y29875006D01*
X84445322Y29797786D01*
X84445126Y29797570D01*
X84359186Y29817898D01*
X84188842Y29914613D01*
X83980176Y30056178D01*
X83779269Y30211058D01*
X83632202Y30347715D01*
X83619170Y30362824D01*
X83443605Y30484467D01*
X83278540Y30452065D01*
X83172927Y30290538D01*
X83077653Y30154384D01*
X82891215Y29982706D01*
X82783351Y29902135D01*
X82394403Y29544852D01*
X82143190Y29118250D01*
X82043803Y28648166D01*
X82043566Y28545562D01*
X82052795Y28311714D01*
X82061696Y28239607D01*
X82074662Y28321715D01*
X82088638Y28468333D01*
X82120528Y28607181D01*
X82681518Y28607181D01*
X82709350Y28445858D01*
X82755216Y28389547D01*
X82979207Y28269039D01*
X83250925Y28309349D01*
X83524175Y28472642D01*
X83736531Y28699985D01*
X83808096Y28934021D01*
X83730768Y29143579D01*
X83705734Y29171067D01*
X83510722Y29266033D01*
X83268190Y29203765D01*
X83049921Y29051868D01*
X82792453Y28803369D01*
X82681518Y28607181D01*
X82120528Y28607181D01*
X82192056Y28918605D01*
X82423846Y29281295D01*
X82774587Y29569929D01*
X83061071Y29796754D01*
X83212045Y30027646D01*
X83234320Y30098167D01*
X83329566Y30311218D01*
X83459402Y30359354D01*
X83614698Y30241252D01*
X83672548Y30161667D01*
X83808554Y30009535D01*
X83929772Y29950000D01*
X84112427Y29876187D01*
X84311888Y29683103D01*
X84495026Y29413280D01*
X84628711Y29109248D01*
X84653453Y29020947D01*
X84725415Y28769549D01*
X84797418Y28593620D01*
X84831841Y28547742D01*
X84880457Y28440371D01*
X84906575Y28232099D01*
X84908000Y28167003D01*
X84895059Y27949823D01*
X84838166Y27854236D01*
X84715172Y27833333D01*
X84496833Y27780944D01*
X84255077Y27649465D01*
X84042286Y27477435D01*
X83910845Y27303390D01*
X83892000Y27227748D01*
X83965739Y27168588D01*
X84151657Y27095677D01*
X84251834Y27066300D01*
X84520814Y26953662D01*
X84815312Y26742950D01*
X85130785Y26449203D01*
X85410701Y26152186D01*
X85598777Y25899787D01*
X85734425Y25629630D01*
X85844067Y25320348D01*
X85943322Y24988674D01*
X85989201Y24749723D01*
X85987156Y24537435D01*
X85942639Y24285748D01*
X85933033Y24242292D01*
X85863353Y23977867D01*
X85793682Y23787684D01*
X85753338Y23726179D01*
X85661671Y23757956D01*
X85464631Y23878246D01*
X85187487Y24067828D01*
X84855509Y24307484D01*
X84493968Y24577994D01*
X84128134Y24860140D01*
X83783277Y25134702D01*
X83484666Y25382462D01*
X83257573Y25584199D01*
X83127266Y25720695D01*
X83122710Y25726905D01*
X83010832Y25934530D01*
X82968866Y26178961D01*
X82974154Y26431134D01*
X82981549Y26675610D01*
X82970281Y26827386D01*
X82951924Y26854460D01*
X82921036Y26760614D01*
X82886939Y26542554D01*
X82856447Y26245102D01*
X82853352Y26206182D01*
X82768447Y25641512D01*
X82610572Y25072644D01*
X82399470Y24558031D01*
X82165579Y24169981D01*
X81805370Y23825229D01*
X81351263Y23581426D01*
X80844775Y23446565D01*
X80327419Y23428636D01*
X79840711Y23535633D01*
X79569410Y23670206D01*
X79261066Y23884192D01*
X79073016Y24072177D01*
X78971408Y24278245D01*
X78926942Y24506846D01*
X78945882Y24851445D01*
X79062857Y25107024D01*
X79193685Y25265414D01*
X79309414Y25332627D01*
X79373056Y25300078D01*
X79353770Y25174548D01*
X79372749Y25063811D01*
X79511488Y25008666D01*
X79731459Y25004546D01*
X79994134Y25046888D01*
X80260985Y25131126D01*
X80493485Y25252695D01*
X80577966Y25319595D01*
X80718980Y25472007D01*
X80903960Y25699887D01*
X81104529Y25964385D01*
X81292309Y26226652D01*
X81438923Y26447838D01*
X81515993Y26589094D01*
X81521334Y26611092D01*
X81477381Y26627890D01*
X81364037Y26537629D01*
X81209073Y26371932D01*
X81040264Y26162426D01*
X80885379Y25940732D01*
X80793332Y25782114D01*
X80571293Y25462492D01*
X80299475Y25241446D01*
X80010322Y25130143D01*
X79736277Y25139748D01*
X79509780Y25281427D01*
X79472397Y25327479D01*
X79418398Y25410096D01*
X79402441Y25486772D01*
X79440678Y25580089D01*
X79549264Y25712626D01*
X79744353Y25906962D01*
X80042098Y26185679D01*
X80173077Y26306905D01*
X80569890Y26682200D01*
X80857149Y26977689D01*
X81056341Y27220814D01*
X81188954Y27439015D01*
X81276476Y27659733D01*
X81302034Y27748667D01*
X81335274Y27885016D01*
X81316115Y27881610D01*
X81229350Y27734613D01*
X81226505Y27729629D01*
X81026872Y27488117D01*
X80729213Y27320931D01*
X80422659Y27230724D01*
X80004637Y27207231D01*
X79597869Y27335098D01*
X79193133Y27619497D01*
X78781202Y28065600D01*
X78667310Y28214769D01*
X78543115Y28375655D01*
X78480074Y28409570D01*
X78439050Y28325982D01*
X78423529Y28273734D01*
X78324513Y28128643D01*
X78192524Y28118130D01*
X78087237Y28235032D01*
X78065851Y28316664D01*
X78105374Y28607152D01*
X78293031Y28874242D01*
X78437817Y28988585D01*
X78609837Y29073580D01*
X78790368Y29076584D01*
X78981380Y29028656D01*
X79186105Y28943501D01*
X79356055Y28802716D01*
X79534329Y28565767D01*
X79624576Y28423737D01*
X79830547Y28121183D01*
X80008768Y27961444D01*
X80199689Y27932344D01*
X80443757Y28021707D01*
X80624895Y28122598D01*
X80823813Y28257754D01*
X81026727Y28438349D01*
X81260773Y28692333D01*
X81553089Y29047658D01*
X81683284Y29212755D01*
X81743384Y29366574D01*
X81703614Y29483976D01*
X81599461Y29516123D01*
X81504400Y29458933D01*
X81373128Y29366132D01*
X81297508Y29418186D01*
X81268409Y29624356D01*
X81267334Y29699373D01*
X81296019Y29874981D01*
X81964904Y29874981D01*
X81974778Y29868378D01*
X82079684Y29916697D01*
X82253181Y30041024D01*
X82313445Y30090397D01*
X82552584Y30260674D01*
X82856398Y30436615D01*
X83003000Y30508853D01*
X83213321Y30613529D01*
X83322626Y30685720D01*
X83317686Y30707123D01*
X83160638Y30667279D01*
X82914397Y30556816D01*
X82628464Y30402259D01*
X82352341Y30230135D01*
X82156334Y30084823D01*
X82014026Y29951267D01*
X81964904Y29874981D01*
X81296019Y29874981D01*
X81344263Y30170313D01*
X81563668Y30565919D01*
X81908470Y30867574D01*
X82361592Y31056662D01*
X82546033Y31093311D01*
X82995074Y31075941D01*
G36*
X80820756Y27131051D02*
G01*
X80649549Y26984458D01*
X80375028Y26776622D01*
X80010084Y26517885D01*
X79637500Y26265054D01*
X79236362Y25986267D01*
X78973712Y25775596D01*
X78837882Y25622880D01*
X78812000Y25546317D01*
X78848888Y25409310D01*
X78899646Y25378000D01*
X78942457Y25327030D01*
X78898118Y25211042D01*
X78798546Y25085421D01*
X78687352Y25009618D01*
X78576588Y25020903D01*
X78558000Y25087043D01*
X78625435Y25375563D01*
X78822145Y25748201D01*
X79139737Y26190477D01*
X79331887Y26422361D01*
X79587919Y26711743D01*
X79776474Y26896047D01*
X79935437Y27002758D01*
X80102689Y27059361D01*
X80243368Y27083660D01*
X80518858Y27130267D01*
X80746506Y27182068D01*
X80801667Y27199135D01*
X80875759Y27206057D01*
X80820756Y27131051D01*
G37*
X80820756Y27131051D02*
X80649549Y26984458D01*
X80375028Y26776622D01*
X80010084Y26517885D01*
X79637500Y26265054D01*
X79236362Y25986267D01*
X78973712Y25775596D01*
X78837882Y25622880D01*
X78812000Y25546317D01*
X78848888Y25409310D01*
X78899646Y25378000D01*
X78942457Y25327030D01*
X78898118Y25211042D01*
X78798546Y25085421D01*
X78687352Y25009618D01*
X78576588Y25020903D01*
X78558000Y25087043D01*
X78625435Y25375563D01*
X78822145Y25748201D01*
X79139737Y26190477D01*
X79331887Y26422361D01*
X79587919Y26711743D01*
X79776474Y26896047D01*
X79935437Y27002758D01*
X80102689Y27059361D01*
X80243368Y27083660D01*
X80518858Y27130267D01*
X80746506Y27182068D01*
X80801667Y27199135D01*
X80875759Y27206057D01*
X80820756Y27131051D01*
G36*
X79533287Y26915545D02*
G01*
X79389589Y26729675D01*
X79235334Y26538675D01*
X78865804Y26132364D01*
X78479564Y25821032D01*
X78166577Y25629589D01*
X77854413Y25456558D01*
X77657652Y25353758D01*
X77543843Y25308878D01*
X77480538Y25309604D01*
X77435286Y25343626D01*
X77429111Y25349778D01*
X77377319Y25506739D01*
X77429107Y25715903D01*
X77554359Y25925552D01*
X77722963Y26083966D01*
X77889226Y26140000D01*
X78066380Y26181825D01*
X78340975Y26292374D01*
X78667718Y26449261D01*
X79001320Y26630097D01*
X79296489Y26812494D01*
X79404667Y26889087D01*
X79534141Y26981418D01*
X79579243Y26994848D01*
X79533287Y26915545D01*
G37*
X79533287Y26915545D02*
X79389589Y26729675D01*
X79235334Y26538675D01*
X78865804Y26132364D01*
X78479564Y25821032D01*
X78166577Y25629589D01*
X77854413Y25456558D01*
X77657652Y25353758D01*
X77543843Y25308878D01*
X77480538Y25309604D01*
X77435286Y25343626D01*
X77429111Y25349778D01*
X77377319Y25506739D01*
X77429107Y25715903D01*
X77554359Y25925552D01*
X77722963Y26083966D01*
X77889226Y26140000D01*
X78066380Y26181825D01*
X78340975Y26292374D01*
X78667718Y26449261D01*
X79001320Y26630097D01*
X79296489Y26812494D01*
X79404667Y26889087D01*
X79534141Y26981418D01*
X79579243Y26994848D01*
X79533287Y26915545D01*
G36*
X90717361Y34442985D02*
G01*
X90737157Y34228264D01*
X90746158Y33911321D01*
X90743508Y33569500D01*
X90739795Y33174355D01*
X90746264Y32834424D01*
X90761552Y32589861D01*
X90780193Y32487551D01*
X90767826Y32390206D01*
X90643684Y32256110D01*
X90391056Y32069067D01*
X90256066Y31979551D01*
X89881217Y31735509D01*
X89634967Y31573300D01*
X89503830Y31482644D01*
X89474317Y31453260D01*
X89532941Y31474867D01*
X89666215Y31537184D01*
X89691667Y31549339D01*
X89892024Y31662664D01*
X90187728Y31851840D01*
X90539057Y32090590D01*
X90906289Y32352639D01*
X90908961Y32354595D01*
X91352386Y32666553D01*
X91688814Y32870131D01*
X91935948Y32971512D01*
X92111488Y32976877D01*
X92233134Y32892409D01*
X92272784Y32830939D01*
X92299848Y32735926D01*
X92267659Y32622127D01*
X92158958Y32460870D01*
X91956485Y32223481D01*
X91810096Y32062269D01*
X91572202Y31788343D01*
X91387266Y31547350D01*
X91280683Y31373888D01*
X91264684Y31319163D01*
X91279150Y31229208D01*
X91318640Y31303471D01*
X91319090Y31304667D01*
X91400009Y31461880D01*
X91526770Y31660192D01*
X91639765Y31796660D01*
X91765488Y31854715D01*
X91966753Y31854091D01*
X92098825Y31839910D01*
X92416854Y31827333D01*
X92638442Y31887038D01*
X92707633Y31928885D01*
X92912315Y32032672D01*
X93068567Y32066667D01*
X93236422Y32108081D01*
X93474472Y32213061D01*
X93594774Y32278804D01*
X93809901Y32387789D01*
X93960672Y32432500D01*
X93999452Y32421861D01*
X94006816Y32303304D01*
X93973734Y32089928D01*
X93954267Y32006565D01*
X93855198Y31752709D01*
X93677103Y31541061D01*
X93472361Y31380039D01*
X93240098Y31207581D01*
X93060355Y31061109D01*
X92993667Y30996521D01*
X92848815Y30902517D01*
X92697334Y30856520D01*
X92581405Y30831107D01*
X92619237Y30816444D01*
X92760834Y30808197D01*
X92973055Y30772557D01*
X93022793Y30700523D01*
X92908748Y30607592D01*
X92782000Y30555354D01*
X92585295Y30473967D01*
X92539016Y30426015D01*
X92646287Y30422523D01*
X92749076Y30439077D01*
X92904271Y30451121D01*
X92936911Y30382695D01*
X92922430Y30321502D01*
X92866553Y30117740D01*
X92817268Y29921234D01*
X92716700Y29685146D01*
X92563108Y29468536D01*
X92340778Y29143257D01*
X92237666Y28798411D01*
X92268310Y28483514D01*
X92271459Y28475017D01*
X92340853Y28277961D01*
X92331984Y28192727D01*
X92225632Y28172435D01*
X92147244Y28172000D01*
X91948326Y28111481D01*
X91698143Y27950620D01*
X91593190Y27862454D01*
X91362472Y27679229D01*
X91210467Y27631866D01*
X91114044Y27720943D01*
X91064732Y27875667D01*
X91049439Y27905616D01*
X91053344Y27792330D01*
X91063540Y27679902D01*
X91100622Y27314803D01*
X90844849Y27447068D01*
X90637976Y27537204D01*
X90484859Y27575541D01*
X90479038Y27575515D01*
X90469825Y27545936D01*
X90589516Y27478126D01*
X90622137Y27463770D01*
X90875273Y27355843D01*
X90664470Y27220220D01*
X90420706Y27096173D01*
X90057967Y26951091D01*
X89622766Y26799818D01*
X89161616Y26657197D01*
X88721031Y26538070D01*
X88347523Y26457281D01*
X88210000Y26436960D01*
X87886642Y26387985D01*
X87603372Y26324214D01*
X87448000Y26270570D01*
X87181474Y26210250D01*
X87024667Y26229679D01*
X86815265Y26268210D01*
X86523466Y26294901D01*
X86371373Y26300894D01*
X86048956Y26333611D01*
X85744576Y26406553D01*
X85640202Y26447407D01*
X85438749Y26573758D01*
X85340198Y26744435D01*
X85305452Y26922521D01*
X85283965Y26986117D01*
X88300053Y26986117D01*
X88321514Y26941816D01*
X88368534Y26880833D01*
X88544504Y26748570D01*
X88718009Y26756999D01*
X88838999Y26899920D01*
X88851654Y26940700D01*
X88875874Y27143098D01*
X88859951Y27258200D01*
X88827453Y27267507D01*
X88809560Y27138876D01*
X88809351Y27132176D01*
X88748366Y26919779D01*
X88604725Y26836817D01*
X88414347Y26902435D01*
X88399422Y26913695D01*
X88300053Y26986117D01*
X85283965Y26986117D01*
X85181644Y27288951D01*
X85025949Y27504114D01*
X84934535Y27616164D01*
X87252253Y27616164D01*
X87273389Y27581978D01*
X87278667Y27581878D01*
X87461481Y27625654D01*
X87530215Y27660693D01*
X87625398Y27743567D01*
X87591455Y27771792D01*
X87461605Y27738862D01*
X87363334Y27693378D01*
X87252253Y27616164D01*
X84934535Y27616164D01*
X84903269Y27654488D01*
X84874376Y27740687D01*
X84892160Y27748667D01*
X84952126Y27825662D01*
X84984987Y28030240D01*
X84987941Y28187775D01*
X88647224Y28187775D01*
X88686467Y28178684D01*
X88817500Y28231084D01*
X88878011Y28287767D01*
X88923683Y28410990D01*
X88843998Y28511498D01*
X88714845Y28576542D01*
X88659510Y28565065D01*
X88669818Y28514962D01*
X88703889Y28510667D01*
X88789518Y28452038D01*
X88789712Y28331574D01*
X88706546Y28232404D01*
X88696834Y28228073D01*
X88647224Y28187775D01*
X84987941Y28187775D01*
X84990474Y28322791D01*
X84968318Y28663704D01*
X84954335Y28761357D01*
X89945667Y28761357D01*
X90265467Y28942065D01*
X90460949Y29068325D01*
X90522622Y29162600D01*
X90487933Y29240054D01*
X90356049Y29340843D01*
X90295133Y29356037D01*
X90270888Y29320367D01*
X90326667Y29272537D01*
X90388713Y29201570D01*
X90341629Y29106905D01*
X90199667Y28975845D01*
X89945667Y28761357D01*
X84954335Y28761357D01*
X84918249Y29013369D01*
X84901323Y29097588D01*
X84862629Y29214922D01*
X89765576Y29214922D01*
X89818667Y29195247D01*
X89999409Y29235227D01*
X90072667Y29272667D01*
X90139164Y29336159D01*
X90077607Y29344175D01*
X89919933Y29296716D01*
X89861000Y29272667D01*
X89765576Y29214922D01*
X84862629Y29214922D01*
X84798327Y29409901D01*
X84720732Y29551209D01*
X91534067Y29551209D01*
X91655451Y29607008D01*
X91824236Y29714048D01*
X91899132Y29790588D01*
X91888563Y29901837D01*
X91772567Y29999323D01*
X91639000Y30030796D01*
X91629770Y29996650D01*
X91704974Y29941834D01*
X91798932Y29870406D01*
X91776689Y29793437D01*
X91662641Y29685628D01*
X91535194Y29571397D01*
X91534067Y29551209D01*
X84720732Y29551209D01*
X84607368Y29757654D01*
X84311879Y30173140D01*
X83813779Y30822770D01*
X83835243Y30849871D01*
X84360619Y30849871D01*
X84453467Y30898533D01*
X84538011Y30958230D01*
X84737978Y31080789D01*
X84885669Y31095866D01*
X84976945Y31059081D01*
X85141457Y30986774D01*
X85219934Y30969390D01*
X85204609Y31005409D01*
X85075013Y31088725D01*
X85055907Y31099230D01*
X84802871Y31171584D01*
X84572273Y31088353D01*
X84393037Y30912106D01*
X84360619Y30849871D01*
X83835243Y30849871D01*
X84062100Y31136301D01*
X84248196Y31337763D01*
X84442419Y31444346D01*
X84723914Y31498787D01*
X84736127Y31500250D01*
X85083899Y31568103D01*
X85438502Y31676789D01*
X85536595Y31716444D01*
X85765263Y31830202D01*
X85884628Y31949596D01*
X85942610Y32138980D01*
X85965128Y32291943D01*
X86035822Y32681970D01*
X86126222Y32950212D01*
X86228598Y33075866D01*
X86258900Y33082667D01*
X86357057Y33017123D01*
X86478488Y32858522D01*
X86483784Y32849834D01*
X86616562Y32637681D01*
X86790262Y32370044D01*
X86868720Y32251877D01*
X87113301Y31886753D01*
X86947838Y31676401D01*
X86806341Y31436514D01*
X86727687Y31217056D01*
X86620368Y30983395D01*
X86456415Y30797699D01*
X86333238Y30684067D01*
X86314716Y30628451D01*
X86322793Y30627334D01*
X86464202Y30700642D01*
X86491198Y30732242D01*
X92226055Y30732242D01*
X92309278Y30718684D01*
X92419092Y30734251D01*
X92420403Y30763153D01*
X92307086Y30783364D01*
X92258125Y30769837D01*
X92226055Y30732242D01*
X86491198Y30732242D01*
X86628496Y30892949D01*
X86784370Y31162824D01*
X86857015Y31334299D01*
X87003220Y31609948D01*
X87171876Y31721437D01*
X87352809Y31667106D01*
X87535845Y31445295D01*
X87535994Y31445041D01*
X87681993Y31243538D01*
X87825635Y31113965D01*
X87854069Y31100354D01*
X87949940Y31074629D01*
X87904138Y31126740D01*
X87868434Y31156292D01*
X87743933Y31295608D01*
X87595537Y31510429D01*
X87557612Y31573355D01*
X87376689Y31884377D01*
X87657973Y32017855D01*
X87924545Y32102137D01*
X88243623Y32148335D01*
X88332834Y32151333D01*
X88707565Y32186349D01*
X89020622Y32304691D01*
X89296002Y32526305D01*
X89557698Y32871136D01*
X89829706Y33359127D01*
X89860758Y33421333D01*
X90077658Y33821440D01*
X90294623Y34154578D01*
X90491637Y34394139D01*
X90648685Y34513515D01*
X90688698Y34522000D01*
X90717361Y34442985D01*
G37*
X90717361Y34442985D02*
X90737157Y34228264D01*
X90746158Y33911321D01*
X90743508Y33569500D01*
X90739795Y33174355D01*
X90746264Y32834424D01*
X90761552Y32589861D01*
X90780193Y32487551D01*
X90767826Y32390206D01*
X90643684Y32256110D01*
X90391056Y32069067D01*
X90256066Y31979551D01*
X89881217Y31735509D01*
X89634967Y31573300D01*
X89503830Y31482644D01*
X89474317Y31453260D01*
X89532941Y31474867D01*
X89666215Y31537184D01*
X89691667Y31549339D01*
X89892024Y31662664D01*
X90187728Y31851840D01*
X90539057Y32090590D01*
X90906289Y32352639D01*
X90908961Y32354595D01*
X91352386Y32666553D01*
X91688814Y32870131D01*
X91935948Y32971512D01*
X92111488Y32976877D01*
X92233134Y32892409D01*
X92272784Y32830939D01*
X92299848Y32735926D01*
X92267659Y32622127D01*
X92158958Y32460870D01*
X91956485Y32223481D01*
X91810096Y32062269D01*
X91572202Y31788343D01*
X91387266Y31547350D01*
X91280683Y31373888D01*
X91264684Y31319163D01*
X91279150Y31229208D01*
X91318640Y31303471D01*
X91319090Y31304667D01*
X91400009Y31461880D01*
X91526770Y31660192D01*
X91639765Y31796660D01*
X91765488Y31854715D01*
X91966753Y31854091D01*
X92098825Y31839910D01*
X92416854Y31827333D01*
X92638442Y31887038D01*
X92707633Y31928885D01*
X92912315Y32032672D01*
X93068567Y32066667D01*
X93236422Y32108081D01*
X93474472Y32213061D01*
X93594774Y32278804D01*
X93809901Y32387789D01*
X93960672Y32432500D01*
X93999452Y32421861D01*
X94006816Y32303304D01*
X93973734Y32089928D01*
X93954267Y32006565D01*
X93855198Y31752709D01*
X93677103Y31541061D01*
X93472361Y31380039D01*
X93240098Y31207581D01*
X93060355Y31061109D01*
X92993667Y30996521D01*
X92848815Y30902517D01*
X92697334Y30856520D01*
X92581405Y30831107D01*
X92619237Y30816444D01*
X92760834Y30808197D01*
X92973055Y30772557D01*
X93022793Y30700523D01*
X92908748Y30607592D01*
X92782000Y30555354D01*
X92585295Y30473967D01*
X92539016Y30426015D01*
X92646287Y30422523D01*
X92749076Y30439077D01*
X92904271Y30451121D01*
X92936911Y30382695D01*
X92922430Y30321502D01*
X92866553Y30117740D01*
X92817268Y29921234D01*
X92716700Y29685146D01*
X92563108Y29468536D01*
X92340778Y29143257D01*
X92237666Y28798411D01*
X92268310Y28483514D01*
X92271459Y28475017D01*
X92340853Y28277961D01*
X92331984Y28192727D01*
X92225632Y28172435D01*
X92147244Y28172000D01*
X91948326Y28111481D01*
X91698143Y27950620D01*
X91593190Y27862454D01*
X91362472Y27679229D01*
X91210467Y27631866D01*
X91114044Y27720943D01*
X91064732Y27875667D01*
X91049439Y27905616D01*
X91053344Y27792330D01*
X91063540Y27679902D01*
X91100622Y27314803D01*
X90844849Y27447068D01*
X90637976Y27537204D01*
X90484859Y27575541D01*
X90479038Y27575515D01*
X90469825Y27545936D01*
X90589516Y27478126D01*
X90622137Y27463770D01*
X90875273Y27355843D01*
X90664470Y27220220D01*
X90420706Y27096173D01*
X90057967Y26951091D01*
X89622766Y26799818D01*
X89161616Y26657197D01*
X88721031Y26538070D01*
X88347523Y26457281D01*
X88210000Y26436960D01*
X87886642Y26387985D01*
X87603372Y26324214D01*
X87448000Y26270570D01*
X87181474Y26210250D01*
X87024667Y26229679D01*
X86815265Y26268210D01*
X86523466Y26294901D01*
X86371373Y26300894D01*
X86048956Y26333611D01*
X85744576Y26406553D01*
X85640202Y26447407D01*
X85438749Y26573758D01*
X85340198Y26744435D01*
X85305452Y26922521D01*
X85283965Y26986117D01*
X88300053Y26986117D01*
X88321514Y26941816D01*
X88368534Y26880833D01*
X88544504Y26748570D01*
X88718009Y26756999D01*
X88838999Y26899920D01*
X88851654Y26940700D01*
X88875874Y27143098D01*
X88859951Y27258200D01*
X88827453Y27267507D01*
X88809560Y27138876D01*
X88809351Y27132176D01*
X88748366Y26919779D01*
X88604725Y26836817D01*
X88414347Y26902435D01*
X88399422Y26913695D01*
X88300053Y26986117D01*
X85283965Y26986117D01*
X85181644Y27288951D01*
X85025949Y27504114D01*
X84934535Y27616164D01*
X87252253Y27616164D01*
X87273389Y27581978D01*
X87278667Y27581878D01*
X87461481Y27625654D01*
X87530215Y27660693D01*
X87625398Y27743567D01*
X87591455Y27771792D01*
X87461605Y27738862D01*
X87363334Y27693378D01*
X87252253Y27616164D01*
X84934535Y27616164D01*
X84903269Y27654488D01*
X84874376Y27740687D01*
X84892160Y27748667D01*
X84952126Y27825662D01*
X84984987Y28030240D01*
X84987941Y28187775D01*
X88647224Y28187775D01*
X88686467Y28178684D01*
X88817500Y28231084D01*
X88878011Y28287767D01*
X88923683Y28410990D01*
X88843998Y28511498D01*
X88714845Y28576542D01*
X88659510Y28565065D01*
X88669818Y28514962D01*
X88703889Y28510667D01*
X88789518Y28452038D01*
X88789712Y28331574D01*
X88706546Y28232404D01*
X88696834Y28228073D01*
X88647224Y28187775D01*
X84987941Y28187775D01*
X84990474Y28322791D01*
X84968318Y28663704D01*
X84954335Y28761357D01*
X89945667Y28761357D01*
X90265467Y28942065D01*
X90460949Y29068325D01*
X90522622Y29162600D01*
X90487933Y29240054D01*
X90356049Y29340843D01*
X90295133Y29356037D01*
X90270888Y29320367D01*
X90326667Y29272537D01*
X90388713Y29201570D01*
X90341629Y29106905D01*
X90199667Y28975845D01*
X89945667Y28761357D01*
X84954335Y28761357D01*
X84918249Y29013369D01*
X84901323Y29097588D01*
X84862629Y29214922D01*
X89765576Y29214922D01*
X89818667Y29195247D01*
X89999409Y29235227D01*
X90072667Y29272667D01*
X90139164Y29336159D01*
X90077607Y29344175D01*
X89919933Y29296716D01*
X89861000Y29272667D01*
X89765576Y29214922D01*
X84862629Y29214922D01*
X84798327Y29409901D01*
X84720732Y29551209D01*
X91534067Y29551209D01*
X91655451Y29607008D01*
X91824236Y29714048D01*
X91899132Y29790588D01*
X91888563Y29901837D01*
X91772567Y29999323D01*
X91639000Y30030796D01*
X91629770Y29996650D01*
X91704974Y29941834D01*
X91798932Y29870406D01*
X91776689Y29793437D01*
X91662641Y29685628D01*
X91535194Y29571397D01*
X91534067Y29551209D01*
X84720732Y29551209D01*
X84607368Y29757654D01*
X84311879Y30173140D01*
X83813779Y30822770D01*
X83835243Y30849871D01*
X84360619Y30849871D01*
X84453467Y30898533D01*
X84538011Y30958230D01*
X84737978Y31080789D01*
X84885669Y31095866D01*
X84976945Y31059081D01*
X85141457Y30986774D01*
X85219934Y30969390D01*
X85204609Y31005409D01*
X85075013Y31088725D01*
X85055907Y31099230D01*
X84802871Y31171584D01*
X84572273Y31088353D01*
X84393037Y30912106D01*
X84360619Y30849871D01*
X83835243Y30849871D01*
X84062100Y31136301D01*
X84248196Y31337763D01*
X84442419Y31444346D01*
X84723914Y31498787D01*
X84736127Y31500250D01*
X85083899Y31568103D01*
X85438502Y31676789D01*
X85536595Y31716444D01*
X85765263Y31830202D01*
X85884628Y31949596D01*
X85942610Y32138980D01*
X85965128Y32291943D01*
X86035822Y32681970D01*
X86126222Y32950212D01*
X86228598Y33075866D01*
X86258900Y33082667D01*
X86357057Y33017123D01*
X86478488Y32858522D01*
X86483784Y32849834D01*
X86616562Y32637681D01*
X86790262Y32370044D01*
X86868720Y32251877D01*
X87113301Y31886753D01*
X86947838Y31676401D01*
X86806341Y31436514D01*
X86727687Y31217056D01*
X86620368Y30983395D01*
X86456415Y30797699D01*
X86333238Y30684067D01*
X86314716Y30628451D01*
X86322793Y30627334D01*
X86464202Y30700642D01*
X86491198Y30732242D01*
X92226055Y30732242D01*
X92309278Y30718684D01*
X92419092Y30734251D01*
X92420403Y30763153D01*
X92307086Y30783364D01*
X92258125Y30769837D01*
X92226055Y30732242D01*
X86491198Y30732242D01*
X86628496Y30892949D01*
X86784370Y31162824D01*
X86857015Y31334299D01*
X87003220Y31609948D01*
X87171876Y31721437D01*
X87352809Y31667106D01*
X87535845Y31445295D01*
X87535994Y31445041D01*
X87681993Y31243538D01*
X87825635Y31113965D01*
X87854069Y31100354D01*
X87949940Y31074629D01*
X87904138Y31126740D01*
X87868434Y31156292D01*
X87743933Y31295608D01*
X87595537Y31510429D01*
X87557612Y31573355D01*
X87376689Y31884377D01*
X87657973Y32017855D01*
X87924545Y32102137D01*
X88243623Y32148335D01*
X88332834Y32151333D01*
X88707565Y32186349D01*
X89020622Y32304691D01*
X89296002Y32526305D01*
X89557698Y32871136D01*
X89829706Y33359127D01*
X89860758Y33421333D01*
X90077658Y33821440D01*
X90294623Y34154578D01*
X90491637Y34394139D01*
X90648685Y34513515D01*
X90688698Y34522000D01*
X90717361Y34442985D01*
G36*
X84763077Y27554349D02*
G01*
X84965373Y27369561D01*
X85143892Y27144188D01*
X85222328Y26949299D01*
X85208522Y26813222D01*
X85110314Y26764283D01*
X84935545Y26830810D01*
X84836485Y26903899D01*
X84623791Y27033569D01*
X84348568Y27145474D01*
X84287031Y27163621D01*
X83936091Y27258120D01*
X84189212Y27460639D01*
X84408886Y27611524D01*
X84583028Y27644772D01*
X84763077Y27554349D01*
G37*
X84763077Y27554349D02*
X84965373Y27369561D01*
X85143892Y27144188D01*
X85222328Y26949299D01*
X85208522Y26813222D01*
X85110314Y26764283D01*
X84935545Y26830810D01*
X84836485Y26903899D01*
X84623791Y27033569D01*
X84348568Y27145474D01*
X84287031Y27163621D01*
X83936091Y27258120D01*
X84189212Y27460639D01*
X84408886Y27611524D01*
X84583028Y27644772D01*
X84763077Y27554349D01*
G36*
X81595291Y29328417D02*
G01*
X81556689Y29272667D01*
X81184846Y28790788D01*
X80861997Y28441582D01*
X80626379Y28252987D01*
X80410522Y28152818D01*
X80184771Y28096128D01*
X80001804Y28090148D01*
X79914303Y28142113D01*
X79912667Y28154992D01*
X79984028Y28225044D01*
X80160075Y28311344D01*
X80203879Y28327953D01*
X80426841Y28442285D01*
X80701430Y28628735D01*
X80902379Y28790783D01*
X81145903Y29000990D01*
X81361812Y29181277D01*
X81479000Y29273988D01*
X81594053Y29353826D01*
X81595291Y29328417D01*
G37*
X81595291Y29328417D02*
X81556689Y29272667D01*
X81184846Y28790788D01*
X80861997Y28441582D01*
X80626379Y28252987D01*
X80410522Y28152818D01*
X80184771Y28096128D01*
X80001804Y28090148D01*
X79914303Y28142113D01*
X79912667Y28154992D01*
X79984028Y28225044D01*
X80160075Y28311344D01*
X80203879Y28327953D01*
X80426841Y28442285D01*
X80701430Y28628735D01*
X80902379Y28790783D01*
X81145903Y29000990D01*
X81361812Y29181277D01*
X81479000Y29273988D01*
X81594053Y29353826D01*
X81595291Y29328417D01*
G36*
X82569268Y31628718D02*
G01*
X82625908Y31557402D01*
X82757786Y31362259D01*
X82763203Y31259915D01*
X82634786Y31222785D01*
X82535720Y31220000D01*
X82360336Y31235009D01*
X82311744Y31312661D01*
X82335964Y31452833D01*
X82398259Y31663703D01*
X82465597Y31718569D01*
X82569268Y31628718D01*
G37*
X82569268Y31628718D02*
X82625908Y31557402D01*
X82757786Y31362259D01*
X82763203Y31259915D01*
X82634786Y31222785D01*
X82535720Y31220000D01*
X82360336Y31235009D01*
X82311744Y31312661D01*
X82335964Y31452833D01*
X82398259Y31663703D01*
X82465597Y31718569D01*
X82569268Y31628718D01*
G36*
X83716459Y28934917D02*
G01*
X83716937Y28925956D01*
X83644141Y28742890D01*
X83423804Y28546591D01*
X83214667Y28423018D01*
X83073679Y28355949D01*
X83059597Y28377343D01*
X83116479Y28451193D01*
X83282699Y28589915D01*
X83379539Y28636251D01*
X83532193Y28746097D01*
X83620163Y28872363D01*
X83689327Y28983028D01*
X83716459Y28934917D01*
G37*
X83716459Y28934917D02*
X83716937Y28925956D01*
X83644141Y28742890D01*
X83423804Y28546591D01*
X83214667Y28423018D01*
X83073679Y28355949D01*
X83059597Y28377343D01*
X83116479Y28451193D01*
X83282699Y28589915D01*
X83379539Y28636251D01*
X83532193Y28746097D01*
X83620163Y28872363D01*
X83689327Y28983028D01*
X83716459Y28934917D01*
G36*
X83420133Y29123565D02*
G01*
X83408946Y29020250D01*
X83334426Y28906561D01*
X83195059Y28784056D01*
X83039768Y28684728D01*
X82917477Y28640572D01*
X82876000Y28671731D01*
X82934839Y28767830D01*
X83075725Y28914004D01*
X83245217Y29058761D01*
X83354938Y29133188D01*
X83420133Y29123565D01*
G37*
X83420133Y29123565D02*
X83408946Y29020250D01*
X83334426Y28906561D01*
X83195059Y28784056D01*
X83039768Y28684728D01*
X82917477Y28640572D01*
X82876000Y28671731D01*
X82934839Y28767830D01*
X83075725Y28914004D01*
X83245217Y29058761D01*
X83354938Y29133188D01*
X83420133Y29123565D01*
%TD*%
D11*
%TO.C,S1*%
X13600076Y16420739D03*
D12*
X18912668Y17844244D03*
X8287484Y14997234D03*
D13*
X17446193Y21385352D03*
X12073044Y22119701D03*
X7786934Y18797162D03*
X12073044Y22119701D03*
%TD*%
D11*
%TO.C,S2*%
X31808842Y25612082D03*
D12*
X37287913Y26091439D03*
X26329771Y25132725D03*
D13*
X36458624Y29833401D03*
X31294623Y31489631D03*
X26496677Y28961843D03*
X31294623Y31489631D03*
%TD*%
D11*
%TO.C,S3*%
X30327194Y42547392D03*
D12*
X35806265Y43026749D03*
X24848123Y42068035D03*
D13*
X34976976Y46768711D03*
X29812975Y48424941D03*
X25015029Y45897153D03*
X29812975Y48424941D03*
%TD*%
D11*
%TO.C,S4*%
X28845546Y59482702D03*
D12*
X34324617Y59962059D03*
X23366475Y59003345D03*
D13*
X33495328Y63704021D03*
X28331327Y65360251D03*
X23533381Y62832463D03*
X28331327Y65360251D03*
%TD*%
D11*
%TO.C,S5*%
X50242658Y32913144D03*
D12*
X55742658Y32913144D03*
X44742658Y32913144D03*
D13*
X55242658Y36713144D03*
X50242658Y38813144D03*
X45242658Y36713144D03*
X50242658Y38813144D03*
%TD*%
D11*
%TO.C,S6*%
X50242658Y49913144D03*
D12*
X55742658Y49913144D03*
X44742658Y49913144D03*
D13*
X55242658Y53713144D03*
X50242658Y55813144D03*
X45242658Y53713144D03*
X50242658Y55813144D03*
%TD*%
D11*
%TO.C,S7*%
X50242658Y66913144D03*
D12*
X55742658Y66913144D03*
X44742658Y66913144D03*
D13*
X55242658Y70713144D03*
X50242658Y72813144D03*
X45242658Y70713144D03*
X50242658Y72813144D03*
%TD*%
D11*
%TO.C,S8*%
X68242658Y27246477D03*
D12*
X73742658Y27246477D03*
X62742658Y27246477D03*
D13*
X73242658Y31046477D03*
X68242658Y33146477D03*
X63242658Y31046477D03*
X68242658Y33146477D03*
%TD*%
D11*
%TO.C,S9*%
X68242658Y44246478D03*
D12*
X73742658Y44246478D03*
X62742658Y44246478D03*
D13*
X73242658Y48046478D03*
X68242658Y50146478D03*
X63242658Y48046478D03*
X68242658Y50146478D03*
%TD*%
D11*
%TO.C,S10*%
X68242658Y61246477D03*
D12*
X73742658Y61246477D03*
X62742658Y61246477D03*
D13*
X73242658Y65046477D03*
X68242658Y67146477D03*
X63242658Y65046477D03*
X68242658Y67146477D03*
%TD*%
D11*
%TO.C,S11*%
X86242658Y44246478D03*
D12*
X91742658Y44246478D03*
X80742658Y44246478D03*
D13*
X91242658Y48046478D03*
X86242658Y50146478D03*
X81242658Y48046478D03*
X86242658Y50146478D03*
%TD*%
D11*
%TO.C,S12*%
X70242658Y6246478D03*
D12*
X75555250Y4822973D03*
X64930066Y7669983D03*
D13*
X76055800Y8622901D03*
X71769690Y11945440D03*
X66396541Y11211091D03*
X71769690Y11945440D03*
%TD*%
D11*
%TO.C,S13*%
X88648853Y-452830D03*
D12*
X93633546Y-2777230D03*
X83664160Y1871570D03*
D13*
X94786341Y878048D03*
X91142301Y4894386D03*
X85723263Y5104231D03*
X91142301Y4894386D03*
%TD*%
%TO.C,C1*%
G36*
G01*
X14951483Y66193592D02*
X16697414Y66346341D01*
G75*
G02*
X16751582Y66300889I4358J-49810D01*
G01*
X16904331Y64554958D01*
G75*
G02*
X16858879Y64500790I-49810J-4358D01*
G01*
X15112948Y64348041D01*
G75*
G02*
X15058780Y64393493I-4358J49810D01*
G01*
X14906031Y66139424D01*
G75*
G02*
X14951483Y66193592I49810J4358D01*
G01*
G37*
D14*
X16126556Y62816856D03*
X16347932Y60286522D03*
X16569308Y57756187D03*
X16790683Y55225853D03*
X17012059Y52695518D03*
X17233434Y50165183D03*
X17454810Y47634849D03*
X17676186Y45104514D03*
X17897561Y42574180D03*
X18118937Y40043845D03*
X18340312Y37513511D03*
X723174Y64018937D03*
X944549Y61488603D03*
X1165925Y58958268D03*
X1387300Y56427934D03*
X1608676Y53897599D03*
X1830052Y51367265D03*
X2051427Y48836930D03*
X2272803Y46306595D03*
X2494178Y43776261D03*
X2715554Y41245926D03*
X2936930Y38715592D03*
X3158305Y36185257D03*
%TD*%
D15*
%TO.C,REF\u002A\u002A*%
X86442658Y61646478D03*
X86442658Y68646478D03*
D16*
X88742658Y58946478D03*
X84142658Y60046478D03*
X84142658Y64046478D03*
X84142658Y67046478D03*
X84142658Y58946478D03*
X88742658Y60046478D03*
X88742658Y64046478D03*
X88742658Y67046478D03*
%TD*%
M02*
