M48
; DRILL file {KiCad (5.1.9)-1} date 06/29/21 12:17:45
; FORMAT={-:-/ absolute / inch / decimal}
; #@! TF.CreationDate,2021-06-29T12:17:45+02:00
; #@! TF.GenerationSoftware,Kicad,Pcbnew,(5.1.9)-1
FMAT,2
INCH
T1C0.0354
T2C0.0430
T3C0.0433
T4C0.0500
T5C0.0591
T6C0.0670
T7C0.1350
%
G90
G05
T2
X0.0224Y2.271
X0.0312Y2.1714
X0.0399Y2.0718
X0.0486Y1.9722
X0.0573Y1.8726
X0.066Y1.773
X0.0747Y1.6733
X0.0834Y1.5737
X0.0922Y1.4741
X0.1009Y1.3745
X0.1096Y1.2749
X0.1183Y1.1752
X0.6202Y2.3233
X0.6289Y2.2237
X0.6376Y2.1241
X0.6463Y2.0245
X0.655Y1.9249
X0.6637Y1.8252
X0.6724Y1.7256
X0.6812Y1.626
X0.6899Y1.5264
X0.6986Y1.4268
X0.7073Y1.3271
X0.716Y1.2275
T3
X0.9398Y1.8684
X1.0018Y1.4845
X1.104Y1.4816
X1.2609Y1.4953
X1.3555Y1.9047
X1.3611Y1.5159
X1.7393Y2.1773
X1.7677Y1.7895
X1.8693Y1.7776
X2.0267Y1.7776
X2.1283Y1.7895
X2.1567Y2.1773
X2.448Y1.9542
X2.4764Y1.5664
X2.5779Y1.5545
X2.7354Y1.5545
X2.837Y1.5664
X2.8653Y1.9542
T4
X0.1054Y0.7194
X0.2741Y0.8502
X0.2741Y0.8502
X0.4857Y0.8212
X0.8965Y2.4989
X1.0131Y1.1654
X1.0854Y2.5984
X1.0854Y2.5984
X1.202Y1.2649
X1.202Y1.2649
X1.2887Y2.5332
X1.4053Y1.1997
X1.7512Y1.4706
X1.7512Y2.8091
X1.948Y1.5532
X1.948Y1.5532
X1.948Y2.8918
X1.948Y2.8918
X2.1449Y1.4706
X2.1449Y2.8091
X2.4598Y1.2475
X2.4598Y2.586
X2.6567Y1.3301
X2.6567Y1.3301
X2.6567Y2.6687
X2.6567Y2.6687
X2.8535Y1.2475
X2.8535Y2.586
X3.1155Y0.3721
X3.1685Y1.7829
X3.327Y0.401
X3.327Y0.401
X3.3653Y1.8656
X3.3653Y1.8656
X3.4958Y0.2702
X3.5622Y1.7829
X3.8764Y0.1316
X4.0897Y0.1234
X4.0897Y0.1234
X4.2332Y-0.0348
T5
X3.3811Y0.7396
X3.6567Y0.7396
T6
X0.1251Y0.5697
X0.5434Y0.6818
X0.8899Y2.3481
X1.0066Y1.0146
X1.3213Y2.3859
X1.438Y1.0524
X1.7315Y1.321
X1.7315Y2.6595
X2.1645Y1.321
X2.1645Y2.6595
X2.4401Y1.0979
X2.4401Y2.4364
X2.8732Y1.0979
X2.8732Y2.4364
X3.0577Y0.2326
X3.1488Y1.6333
X3.4761Y0.1206
X3.5819Y1.6333
X3.7953Y0.0044
X4.1878Y-0.1787
T7
X0.3343Y0.6258
X1.1056Y2.367
X1.2223Y1.0335
X1.948Y1.321
X1.948Y2.6595
X2.6567Y1.0979
X2.6567Y2.4364
X3.2669Y0.1766
X3.3653Y1.6333
X3.9916Y-0.0872
T1
G00X3.2866Y0.8301
M15
G01X3.263Y0.8301
M16
G05
G00X3.2866Y0.649
M15
G01X3.263Y0.649
M16
G05
G00X3.3299Y0.8301
M15
G01X3.3063Y0.8301
M16
G05
G00X3.3299Y0.649
M15
G01X3.3063Y0.649
M16
G05
G00X3.4874Y0.8301
M15
G01X3.4638Y0.8301
M16
G05
G00X3.4874Y0.649
M15
G01X3.4638Y0.649
M16
G05
G00X3.6055Y0.8301
M15
G01X3.5819Y0.8301
M16
G05
G00X3.6055Y0.649
M15
G01X3.5819Y0.649
M16
G05
T0
M30
