%TF.GenerationSoftware,KiCad,Pcbnew,(5.1.9)-1*%
%TF.CreationDate,2021-06-30T20:34:52+02:00*%
%TF.ProjectId,dosidicus_gigas,646f7369-6469-4637-9573-5f6769676173,VERSION_HERE*%
%TF.SameCoordinates,Original*%
%TF.FileFunction,Profile,NP*%
%FSLAX46Y46*%
G04 Gerber Fmt 4.6, Leading zero omitted, Abs format (unit mm)*
G04 Created by KiCad (PCBNEW (5.1.9)-1) date 2021-06-30 20:34:52*
%MOMM*%
%LPD*%
G01*
G04 APERTURE LIST*
%TA.AperFunction,Profile*%
%ADD10C,0.150000*%
%TD*%
%TA.AperFunction,Profile*%
%ADD11C,0.120000*%
%TD*%
G04 APERTURE END LIST*
D10*
X-5834247Y37177289D02*
X6847887Y-10153076D01*
X7566314Y-10863144D02*
G75*
G02*
X6847887Y-10153076I247498J968887D01*
G01*
X7838045Y-10893963D02*
G75*
G02*
X7645471Y-10879986I-24233J999706D01*
G01*
X-5127140Y38402034D02*
X17587531Y44488412D01*
X-5834247Y37177289D02*
G75*
G02*
X-5127140Y38402034I965926J258819D01*
G01*
X16922378Y61572470D02*
X18324907Y45541493D01*
X17831417Y62655821D02*
X38711519Y64482593D01*
X16922377Y61572471D02*
G75*
G02*
X17831417Y62655821I996195J87155D01*
G01*
X57624363Y67040234D02*
X57624363Y69793388D01*
X56624363Y70793388D02*
G75*
G02*
X57624363Y69793388I0J-1000000D01*
G01*
X56624363Y70793388D02*
X40624363Y70793388D01*
X39624363Y69793388D02*
G75*
G02*
X40624363Y70793388I1000000J0D01*
G01*
X39624363Y69793388D02*
X39624363Y65478787D01*
X80416097Y62289548D02*
X80488727Y63119710D01*
X79579688Y64203061D02*
G75*
G02*
X80488727Y63119710I-87156J-996195D01*
G01*
X58537207Y66044039D02*
X79579688Y64203060D01*
X121038800Y10292080D02*
X123588899Y39439840D01*
X97774992Y42702084D02*
X99767382Y42527773D01*
X113714108Y41307592D02*
X122679860Y40523191D01*
X96865953Y43785435D02*
X98173290Y58728355D01*
X97264251Y59811706D02*
G75*
G02*
X98173290Y58728355I-87156J-996195D01*
G01*
X81325136Y61206197D02*
X97264251Y59811705D01*
X104501780Y-17910114D02*
G75*
G02*
X104136564Y-17883606I-111439J993770D01*
G01*
X105330034Y-17258364D02*
G75*
G02*
X104549721Y-17903561I-939693J342020D01*
G01*
X105330034Y-17258364D02*
X108921035Y-7392171D01*
X142840908Y9204925D02*
X122034995Y9204925D01*
X109860727Y-6734191D02*
X128990060Y-6734191D01*
X135885843Y-6734191D02*
X155015176Y-6734191D01*
X257230432Y-10879986D02*
G75*
G02*
X257037858Y-10893963I-168342J985729D01*
G01*
X258028016Y-10153076D02*
G75*
G02*
X257309589Y-10863145I-965926J258819D01*
G01*
X258028016Y-10153076D02*
X270710149Y37177289D01*
X270003043Y38402033D02*
G75*
G02*
X270710149Y37177289I-258819J-965925D01*
G01*
X247288372Y44488412D02*
X270003043Y38402034D01*
X246550996Y45541493D02*
X247953525Y61572470D01*
X247044486Y62655821D02*
G75*
G02*
X247953525Y61572470I-87156J-996195D01*
G01*
X226164384Y64482593D02*
X247044486Y62655821D01*
X225251540Y65478787D02*
X225251540Y69793388D01*
X224251540Y70793388D02*
G75*
G02*
X225251540Y69793388I0J-1000000D01*
G01*
X224251540Y70793388D02*
X208251540Y70793388D01*
X207251540Y69793388D02*
G75*
G02*
X208251540Y70793388I1000000J0D01*
G01*
X207251540Y69793388D02*
X207251540Y67040234D01*
X185296215Y64203060D02*
X206338695Y66044039D01*
X184387177Y63119710D02*
G75*
G02*
X185296215Y64203060I996194J87156D01*
G01*
X184387176Y63119710D02*
X184459806Y62289548D01*
X141287004Y39439840D02*
X143837102Y10292080D01*
X142196043Y40523191D02*
X151161795Y41307592D01*
X165108521Y42527773D02*
X167100910Y42702084D01*
X167611652Y59811705D02*
X183550767Y61206197D01*
X166702614Y58728355D02*
G75*
G02*
X167611652Y59811705I996194J87156D01*
G01*
X166702613Y58728355D02*
X168009949Y43785435D01*
X155954868Y-7392171D02*
X159545869Y-17258364D01*
X160326182Y-17903561D02*
G75*
G02*
X159545869Y-17258364I159380J987217D01*
G01*
X160739339Y-17883607D02*
G75*
G02*
X160374122Y-17910115I-253777J967263D01*
G01*
X100676421Y41444422D02*
X98026886Y11160103D01*
X98935925Y10076753D02*
X108897872Y9205195D01*
X109981223Y10114234D02*
X112630757Y40398553D01*
X164199482Y41444422D02*
X166849016Y11160103D01*
X165939977Y10076753D02*
X155978031Y9205195D01*
X154894680Y10114234D02*
X152245146Y40398553D01*
X104559210Y-17914283D02*
X104501781Y-17910115D01*
X7645471Y-10879986D02*
X7558610Y-10873681D01*
X104136564Y-17883606D02*
X7838045Y-10893963D01*
X7558610Y-10873681D02*
X7566314Y-10863145D01*
X104549721Y-17903561D02*
X104559210Y-17914283D01*
X160316693Y-17914283D02*
X160374122Y-17910115D01*
X257230432Y-10879986D02*
X257317293Y-10873681D01*
X160739339Y-17883606D02*
X257037858Y-10893963D01*
X257317293Y-10873681D02*
X257309589Y-10863145D01*
X160326181Y-17903561D02*
X160316693Y-17914283D01*
X134900730Y-7562276D02*
G75*
G02*
X129975172Y-7562276I-2462779J429788D01*
G01*
X133937951Y-7132488D02*
G75*
G03*
X133937951Y-7132488I-1500000J0D01*
G01*
X108921034Y-7392171D02*
G75*
G02*
X109860727Y-6734191I939693J-342020D01*
G01*
X128990060Y-6734191D02*
G75*
G02*
X129975172Y-7562276I0J-1000000D01*
G01*
X134900731Y-7562276D02*
G75*
G02*
X135885843Y-6734191I985112J-171915D01*
G01*
X155015176Y-6734192D02*
G75*
G02*
X155954868Y-7392171I0J-999999D01*
G01*
X247288373Y44488412D02*
G75*
G02*
X246550996Y45541493I258818J965926D01*
G01*
X226164384Y64482592D02*
G75*
G02*
X225251540Y65478787I87156J996195D01*
G01*
X207251540Y67040233D02*
G75*
G02*
X206338695Y66044039I-1000000J1D01*
G01*
X184459806Y62289548D02*
G75*
G02*
X183550767Y61206197I-996195J-87156D01*
G01*
X168009950Y43785434D02*
G75*
G02*
X167100910Y42702084I-996195J-87155D01*
G01*
X164199482Y41444422D02*
G75*
G02*
X165108521Y42527773I996195J87156D01*
G01*
X166849017Y11160103D02*
G75*
G02*
X165939977Y10076753I-996195J-87155D01*
G01*
X155978031Y9205195D02*
G75*
G02*
X154894680Y10114234I-87156J996195D01*
G01*
X151161796Y41307593D02*
G75*
G02*
X152245146Y40398553I87155J-996195D01*
G01*
X141287004Y39439840D02*
G75*
G02*
X142196043Y40523191I996195J87156D01*
G01*
X143837103Y10292080D02*
G75*
G02*
X142840908Y9204924I-996195J-87156D01*
G01*
X122034996Y9204925D02*
G75*
G02*
X121038800Y10292080I-1J1000000D01*
G01*
X122679860Y40523191D02*
G75*
G02*
X123588899Y39439840I-87156J-996195D01*
G01*
X112630758Y40398554D02*
G75*
G02*
X113714108Y41307592I996194J-87156D01*
G01*
X109981223Y10114234D02*
G75*
G02*
X108897872Y9205195I-996195J87156D01*
G01*
X98935926Y10076753D02*
G75*
G02*
X98026886Y11160103I87155J996195D01*
G01*
X99767382Y42527773D02*
G75*
G02*
X100676421Y41444422I-87156J-996195D01*
G01*
X97774992Y42702084D02*
G75*
G02*
X96865953Y43785435I87156J996195D01*
G01*
X81325135Y61206198D02*
G75*
G02*
X80416097Y62289548I87156J996194D01*
G01*
X58537207Y66044039D02*
G75*
G02*
X57624363Y67040234I87156J996195D01*
G01*
X39624362Y65478787D02*
G75*
G02*
X38711519Y64482593I-999999J0D01*
G01*
X18324907Y45541494D02*
G75*
G02*
X17587531Y44488412I-996195J-87156D01*
G01*
D11*
%TO.C,H1*%
X120805203Y7442778D02*
X117805203Y2246625D01*
X121671229Y6942778D02*
X118671229Y1746625D01*
X116805203Y514575D02*
X113805203Y-4681578D01*
X117671229Y14575D02*
X114671229Y-5181578D01*
X118671229Y1746625D02*
G75*
G02*
X117805203Y2246625I-433013J250000D01*
G01*
X120805203Y7442778D02*
G75*
G02*
X121671229Y6942778I433013J-250000D01*
G01*
X117671229Y14575D02*
G75*
G03*
X116805203Y514575I-433013J250000D01*
G01*
X113805203Y-4681578D02*
G75*
G03*
X114671229Y-5181578I433013J-250000D01*
G01*
%TO.C,H2*%
X123246000Y8214200D02*
X123246000Y2214200D01*
X124246000Y8214200D02*
X124246000Y2214200D01*
X123246000Y214200D02*
X123246000Y-5785800D01*
X124246000Y214200D02*
X124246000Y-5785800D01*
X124246000Y2214200D02*
G75*
G02*
X123246000Y2214200I-500000J0D01*
G01*
X123246000Y8214200D02*
G75*
G02*
X124246000Y8214200I500000J0D01*
G01*
X124246000Y214200D02*
G75*
G03*
X123246000Y214200I-500000J0D01*
G01*
X123246000Y-5785800D02*
G75*
G03*
X124246000Y-5785800I500000J0D01*
G01*
%TO.C,H3*%
X144069797Y7442778D02*
X147069797Y2246625D01*
X143203771Y6942778D02*
X146203771Y1746625D01*
X148069797Y514575D02*
X151069797Y-4681578D01*
X147203771Y14575D02*
X150203771Y-5181578D01*
X146203771Y1746625D02*
G75*
G03*
X147069797Y2246625I433013J250000D01*
G01*
X144069797Y7442778D02*
G75*
G03*
X143203771Y6942778I-433013J-250000D01*
G01*
X147203771Y14575D02*
G75*
G02*
X148069797Y514575I433013J250000D01*
G01*
X151069797Y-4681578D02*
G75*
G02*
X150203771Y-5181578I-433013J-250000D01*
G01*
%TO.C,H4*%
X141630000Y8214200D02*
X141630000Y2214200D01*
X140630000Y8214200D02*
X140630000Y2214200D01*
X141630000Y214200D02*
X141630000Y-5785800D01*
X140630000Y214200D02*
X140630000Y-5785800D01*
X140630000Y2214200D02*
G75*
G03*
X141630000Y2214200I500000J0D01*
G01*
X141630000Y8214200D02*
G75*
G03*
X140630000Y8214200I-500000J0D01*
G01*
X140630000Y214200D02*
G75*
G02*
X141630000Y214200I500000J0D01*
G01*
X141630000Y-5785800D02*
G75*
G02*
X140630000Y-5785800I-500000J0D01*
G01*
%TD*%
M02*
