M48
; DRILL file {KiCad (5.1.9)-1} date 06/30/21 20:34:53
; FORMAT={-:-/ absolute / inch / decimal}
; #@! TF.CreationDate,2021-06-30T20:34:53+02:00
; #@! TF.GenerationSoftware,Kicad,Pcbnew,(5.1.9)-1
FMAT,2
INCH
T1C0.0354
T2C0.0430
T3C0.0500
T4C0.0591
T5C0.0670
T6C0.1350
%
G90
G05
T2
X3.7973Y0.4618
X3.806Y0.5614
X3.8147Y0.661
X3.8234Y0.7607
X3.8321Y0.8603
X3.8408Y0.9599
X3.8496Y1.0595
X3.8583Y1.1591
X3.867Y1.2588
X3.8757Y1.3584
X3.8844Y1.458
X3.8931Y1.5576
X4.395Y0.4095
X4.4037Y0.5091
X4.4124Y0.6087
X4.4211Y0.7084
X4.4298Y0.808
X4.4386Y0.9076
X4.4473Y1.0072
X4.456Y1.1068
X4.4647Y1.2065
X4.4734Y1.3061
X4.4821Y1.4057
X4.4908Y1.5053
X5.9373Y1.5053
X5.9461Y1.4057
X5.9548Y1.3061
X5.9635Y1.2065
X5.9722Y1.1068
X5.9809Y1.0072
X5.9896Y0.9076
X5.9983Y0.808
X6.0071Y0.7084
X6.0158Y0.6087
X6.0245Y0.5091
X6.0332Y0.4095
X6.5351Y1.5576
X6.5438Y1.458
X6.5525Y1.3584
X6.5612Y1.2588
X6.5699Y1.1591
X6.5786Y1.0595
X6.5874Y0.9599
X6.5961Y0.8603
X6.6048Y0.7607
X6.6135Y0.661
X6.6222Y0.5614
X6.6309Y0.4618
T3
X0.1289Y1.4945
X0.3021Y0.848
X0.3404Y1.4656
X0.4753Y0.2016
X0.5136Y0.8191
X0.6869Y0.1727
X1.0247Y2.3922
X1.083Y1.7255
X1.1414Y1.0588
X1.228Y2.327
X1.2863Y1.6603
X1.3447Y0.9935
X1.9143Y2.6848
X1.9143Y2.0155
X1.9143Y1.3462
X2.1112Y2.6021
X2.1112Y1.9328
X2.1112Y1.2635
X2.6937Y1.1197
X2.752Y1.7864
X2.8104Y2.4532
X2.8826Y1.0201
X2.9409Y1.6869
X2.9993Y2.3536
X3.39Y0.9468
X3.4483Y1.6135
X3.5066Y2.2803
X3.5788Y0.8473
X3.6372Y1.514
X3.6955Y2.1808
X3.9943Y-0.0625
X4.151Y-0.2075
X6.4339Y-0.0625
X6.6471Y-0.0729
X6.9216Y2.2803
X6.9799Y1.6135
X7.0382Y0.9468
X7.1249Y2.2151
X7.1832Y1.5483
X7.2415Y0.8816
X7.6178Y2.4532
X7.6761Y1.7864
X7.7345Y1.1197
X7.8211Y2.388
X7.8794Y1.7212
X7.9378Y1.0545
X8.5138Y2.0155
X8.5139Y2.6848
X8.5139Y1.3462
X8.7107Y1.9328
X8.7107Y2.6021
X8.7107Y1.2635
X9.2868Y1.0588
X9.3451Y1.7255
X9.4035Y2.3922
X9.4757Y0.9592
X9.534Y1.626
X9.5924Y2.2927
X9.9529Y0.2016
X10.1216Y0.0708
X10.1261Y0.848
X10.2948Y0.7172
X10.2993Y1.4945
X10.4681Y1.3637
T4
X4.7102Y1.266
X4.7342Y1.5405
X5.69Y1.5402
X5.7141Y1.2657
T5
X-0.0202Y1.2141
X0.1531Y0.5676
X0.3263Y-0.0789
X0.3981Y1.3262
X0.5714Y0.6797
X0.7446Y0.0332
X0.8292Y2.142
X0.8876Y1.4752
X0.9459Y0.8085
X1.2607Y2.1797
X1.319Y1.513
X1.3773Y0.8462
X1.6978Y2.4525
X1.6978Y1.7832
X1.6978Y1.1139
X2.1309Y2.4525
X2.1309Y1.7832
X2.1309Y1.1139
X2.4578Y0.9071
X2.5161Y1.5739
X2.5744Y2.2406
X2.8892Y0.8694
X2.9475Y1.5361
X3.0058Y2.2029
X3.154Y0.7343
X3.2123Y1.401
X3.2707Y2.0677
X3.5854Y0.6965
X3.6438Y1.3633
X3.7021Y2.03
X3.7114Y-0.2067
X4.1184Y-0.3549
X6.3098Y-0.3549
X6.7168Y-0.2067
X6.7261Y2.03
X6.7844Y1.3633
X6.8428Y0.6965
X7.1575Y2.0677
X7.2159Y1.401
X7.2742Y0.7343
X7.4224Y2.2029
X7.4807Y1.5361
X7.539Y0.8694
X7.8538Y2.2406
X7.9121Y1.5739
X7.9704Y0.9071
X8.2973Y1.7832
X8.2973Y2.4525
X8.2973Y1.1139
X8.7304Y1.7832
X8.7304Y2.4525
X8.7304Y1.1139
X9.0509Y0.8462
X9.1092Y1.513
X9.1675Y2.1797
X9.4823Y0.8085
X9.5406Y1.4752
X9.5989Y2.142
X9.6836Y0.0332
X9.8568Y0.6797
X10.0301Y1.3262
X10.1019Y-0.0789
X10.2751Y0.5676
X10.4484Y1.2141
T6
X0.189Y1.2702
X0.3622Y0.6237
X0.5354Y-0.0228
X1.045Y2.1608
X1.1033Y1.4941
X1.1616Y0.8274
X1.9143Y2.4525
X1.9143Y1.7832
X1.9143Y1.1139
X2.6735Y0.8883
X2.7318Y1.555
X2.7901Y2.2218
X3.3697Y0.7154
X3.428Y1.3821
X3.4864Y2.0489
X3.9149Y-0.2808
X6.5133Y-0.2808
X6.9418Y2.0489
X7.0002Y1.3821
X7.0585Y0.7154
X7.6381Y2.2218
X7.6964Y1.555
X7.7547Y0.8883
X8.5138Y1.7832
X8.5139Y2.4525
X8.5139Y1.1139
X9.2666Y0.8274
X9.3249Y1.4941
X9.3832Y2.1608
X9.8928Y-0.0228
X10.066Y0.6237
X10.2392Y1.2702
T1
G00X4.6118Y1.1798
M15
G01X4.6097Y1.1562
M16
G05
G00X4.796Y1.2071
M15
G01X4.7939Y1.1836
M16
G05
G00X4.8097Y1.364
M15
G01X4.8076Y1.3405
M16
G05
G00X4.82Y1.4817
M15
G01X4.8179Y1.4581
M16
G05
G00X5.6321Y1.1636
M15
G01X5.6342Y1.1401
M16
G05
G00X5.7847Y1.4971
M15
G01X5.7868Y1.4736
M16
G05
G00X5.795Y1.3794
M15
G01X5.7971Y1.3559
M16
G05
G00X5.8087Y1.2226
M15
G01X5.8108Y1.199
M16
G05
T0
M30
