%TF.GenerationSoftware,KiCad,Pcbnew,(5.1.9)-1*%
%TF.CreationDate,2021-07-01T17:14:58+02:00*%
%TF.ProjectId,dosidicus_gigas_alu,646f7369-6469-4637-9573-5f6769676173,VERSION_HERE*%
%TF.SameCoordinates,Original*%
%TF.FileFunction,Profile,NP*%
%FSLAX46Y46*%
G04 Gerber Fmt 4.6, Leading zero omitted, Abs format (unit mm)*
G04 Created by KiCad (PCBNEW (5.1.9)-1) date 2021-07-01 17:14:58*
%MOMM*%
%LPD*%
G01*
G04 APERTURE LIST*
%TA.AperFunction,Profile*%
%ADD10C,0.150000*%
%TD*%
G04 APERTURE END LIST*
D10*
X-5834247Y37177289D02*
X6847887Y-10153076D01*
X7566314Y-10863144D02*
G75*
G02*
X6847887Y-10153076I247498J968887D01*
G01*
X7838045Y-10893963D02*
G75*
G02*
X7645471Y-10879986I-24233J999706D01*
G01*
X-5127140Y38402034D02*
X17587531Y44488412D01*
X-5834247Y37177289D02*
G75*
G02*
X-5127140Y38402034I965926J258819D01*
G01*
X16922378Y61572470D02*
X18324907Y45541493D01*
X17831417Y62655821D02*
X38711519Y64482593D01*
X16922377Y61572471D02*
G75*
G02*
X17831417Y62655821I996195J87155D01*
G01*
X57624363Y67040234D02*
X57624363Y69793388D01*
X56624363Y70793388D02*
G75*
G02*
X57624363Y69793388I0J-1000000D01*
G01*
X56624363Y70793388D02*
X40624363Y70793388D01*
X39624363Y69793388D02*
G75*
G02*
X40624363Y70793388I1000000J0D01*
G01*
X39624363Y69793388D02*
X39624363Y65478787D01*
X80416097Y62289548D02*
X80488727Y63119710D01*
X79579688Y64203061D02*
G75*
G02*
X80488727Y63119710I-87156J-996195D01*
G01*
X58537207Y66044039D02*
X79579688Y64203060D01*
X118549554Y-18160137D02*
X123588899Y39439840D01*
X117466203Y-19069176D02*
X102843915Y-17789892D01*
X97774992Y42702084D02*
X122679860Y40523191D01*
X96865953Y43785435D02*
X98173290Y58728355D01*
X97264251Y59811706D02*
G75*
G02*
X98173290Y58728355I-87156J-996195D01*
G01*
X81325136Y61206197D02*
X97264251Y59811705D01*
X7645471Y-10879986D02*
X7558610Y-10873681D01*
X102829152Y-17788710D02*
X7838045Y-10893963D01*
X7558610Y-10873681D02*
X7566314Y-10863145D01*
X102829152Y-17788711D02*
G75*
G02*
X102843915Y-17789892I-72392J-997376D01*
G01*
X118549553Y-18160138D02*
G75*
G02*
X117466203Y-19069176I-996194J87156D01*
G01*
X122679860Y40523191D02*
G75*
G02*
X123588899Y39439840I-87156J-996195D01*
G01*
X97774992Y42702084D02*
G75*
G02*
X96865953Y43785435I87156J996195D01*
G01*
X81325135Y61206198D02*
G75*
G02*
X80416097Y62289548I87156J996194D01*
G01*
X58537207Y66044039D02*
G75*
G02*
X57624363Y67040234I87156J996195D01*
G01*
X39624362Y65478787D02*
G75*
G02*
X38711519Y64482593I-999999J0D01*
G01*
X18324907Y45541494D02*
G75*
G02*
X17587531Y44488412I-996195J-87156D01*
G01*
M02*
