%TF.GenerationSoftware,KiCad,Pcbnew,(5.1.9)-1*%
%TF.CreationDate,2021-07-01T17:14:58+02:00*%
%TF.ProjectId,dosidicus_gigas_alu,646f7369-6469-4637-9573-5f6769676173,VERSION_HERE*%
%TF.SameCoordinates,Original*%
%TF.FileFunction,Soldermask,Bot*%
%TF.FilePolarity,Negative*%
%FSLAX46Y46*%
G04 Gerber Fmt 4.6, Leading zero omitted, Abs format (unit mm)*
G04 Created by KiCad (PCBNEW (5.1.9)-1) date 2021-07-01 17:14:58*
%MOMM*%
%LPD*%
G01*
G04 APERTURE LIST*
%ADD10C,3.529000*%
%ADD11C,1.801800*%
%ADD12C,2.132000*%
%ADD13C,1.852600*%
%ADD14C,1.600000*%
G04 APERTURE END LIST*
D10*
%TO.C,S1*%
X13600100Y-579300D03*
D11*
X18912692Y844205D03*
X8287508Y-2002805D03*
D12*
X17446217Y4385313D03*
X12073068Y5119662D03*
%TD*%
D10*
%TO.C,S2*%
X9200200Y15841500D03*
D11*
X14512792Y17265005D03*
X3887608Y14417995D03*
D12*
X13046317Y20806113D03*
X7673168Y21540462D03*
%TD*%
D10*
%TO.C,S3*%
X4800200Y32262200D03*
D11*
X10112792Y33685705D03*
X-512392Y30838695D03*
D12*
X8646317Y37226813D03*
X3273168Y37961162D03*
%TD*%
D10*
%TO.C,S4*%
X29505100Y21014800D03*
D11*
X34984171Y21494157D03*
X24026029Y20535443D03*
D12*
X34154882Y25236119D03*
X28990881Y26892349D03*
%TD*%
D10*
%TO.C,S5*%
X28023400Y37950100D03*
D11*
X33502471Y38429457D03*
X22544329Y37470743D03*
D12*
X32673182Y42171419D03*
X27509181Y43827649D03*
%TD*%
D10*
%TO.C,S6*%
X26541800Y54885400D03*
D11*
X32020871Y55364757D03*
X21062729Y54406043D03*
D12*
X31191582Y59106719D03*
X26027581Y60762949D03*
%TD*%
D10*
%TO.C,S7*%
X48624400Y28293400D03*
D11*
X54124400Y28293400D03*
X43124400Y28293400D03*
D12*
X53624400Y32093400D03*
X48624400Y34193400D03*
%TD*%
D10*
%TO.C,S8*%
X48624400Y45293400D03*
D11*
X54124400Y45293400D03*
X43124400Y45293400D03*
D12*
X53624400Y49093400D03*
X48624400Y51193400D03*
%TD*%
D10*
%TO.C,S9*%
X48624400Y62293400D03*
D11*
X54124400Y62293400D03*
X43124400Y62293400D03*
D12*
X53624400Y66093400D03*
X48624400Y68193400D03*
%TD*%
D10*
%TO.C,S10*%
X67906000Y22562000D03*
D11*
X73385071Y22082643D03*
X62426929Y23041357D03*
D12*
X73218165Y25911761D03*
X68420219Y28439549D03*
%TD*%
D10*
%TO.C,S11*%
X69387700Y39497300D03*
D11*
X74866771Y39017943D03*
X63908629Y39976657D03*
D12*
X74699865Y42847061D03*
X69901919Y45374849D03*
%TD*%
D10*
%TO.C,S12*%
X70869300Y56432700D03*
D11*
X76348371Y55953343D03*
X65390229Y56912057D03*
D12*
X76181465Y59782461D03*
X71383519Y62310249D03*
%TD*%
D10*
%TO.C,S13*%
X85590600Y18170700D03*
D11*
X91069671Y17691343D03*
X80111529Y18650057D03*
D12*
X90902765Y21520461D03*
X86104819Y24048249D03*
%TD*%
D10*
%TO.C,S14*%
X87072200Y35106000D03*
D11*
X92551271Y34626643D03*
X81593129Y35585357D03*
D12*
X92384365Y38455761D03*
X87586419Y40983549D03*
%TD*%
D10*
%TO.C,S15*%
X88553900Y52041300D03*
D11*
X94032971Y51561943D03*
X83074829Y52520657D03*
D12*
X93866065Y55391061D03*
X89068119Y57918849D03*
%TD*%
D10*
%TO.C,S16*%
X99438000Y-7132500D03*
D11*
X104606309Y-9013611D03*
X94269691Y-5251389D03*
D12*
X105436140Y-5271769D03*
X101455919Y-1588314D03*
%TD*%
%TO.C,C1*%
G36*
G01*
X98093329Y40562517D02*
X99839260Y40409768D01*
G75*
G02*
X99884712Y40355600I-4358J-49810D01*
G01*
X99731963Y38609669D01*
G75*
G02*
X99677795Y38564217I-49810J4358D01*
G01*
X97931864Y38716966D01*
G75*
G02*
X97886412Y38771134I4358J49810D01*
G01*
X98039161Y40517065D01*
G75*
G02*
X98093329Y40562517I49810J-4358D01*
G01*
G37*
D13*
X98664187Y37033032D03*
X98442811Y34502698D03*
X98221435Y31972363D03*
X98000060Y29442029D03*
X97778684Y26911694D03*
X97557309Y24381359D03*
X97335933Y21851025D03*
X97114557Y19320690D03*
X96893182Y16790356D03*
X96671806Y14260021D03*
X96450431Y11729687D03*
X114067569Y38235113D03*
X113846194Y35704779D03*
X113624818Y33174444D03*
X113403443Y30644110D03*
X113182067Y28113775D03*
X112960691Y25583441D03*
X112739316Y23053106D03*
X112517940Y20522771D03*
X112296565Y17992437D03*
X112075189Y15462102D03*
X111853813Y12931768D03*
X111632438Y10401433D03*
%TD*%
D14*
%TO.C,REF\u002A\u002A*%
X118639213Y32156384D03*
X119249303Y39129747D03*
G36*
G01*
X119822228Y29041424D02*
X119874522Y29639140D01*
G75*
G02*
X120795369Y30411823I846765J-74082D01*
G01*
X120795369Y30411823D01*
G75*
G02*
X121568052Y29490976I-74082J-846765D01*
G01*
X121515758Y28893260D01*
G75*
G02*
X120594911Y28120577I-846765J74082D01*
G01*
X120594911Y28120577D01*
G75*
G02*
X119822228Y29041424I74082J846765D01*
G01*
G37*
G36*
G01*
X115335604Y30538154D02*
X115387898Y31135870D01*
G75*
G02*
X116308745Y31908553I846765J-74082D01*
G01*
X116308745Y31908553D01*
G75*
G02*
X117081428Y30987706I-74082J-846765D01*
G01*
X117029134Y30389990D01*
G75*
G02*
X116108287Y29617307I-846765J74082D01*
G01*
X116108287Y29617307D01*
G75*
G02*
X115335604Y30538154I74082J846765D01*
G01*
G37*
G36*
G01*
X115684227Y34522933D02*
X115736521Y35120649D01*
G75*
G02*
X116657368Y35893332I846765J-74082D01*
G01*
X116657368Y35893332D01*
G75*
G02*
X117430051Y34972485I-74082J-846765D01*
G01*
X117377757Y34374769D01*
G75*
G02*
X116456910Y33602086I-846765J74082D01*
G01*
X116456910Y33602086D01*
G75*
G02*
X115684227Y34522933I74082J846765D01*
G01*
G37*
G36*
G01*
X115945694Y37511517D02*
X115997988Y38109233D01*
G75*
G02*
X116918835Y38881916I846765J-74082D01*
G01*
X116918835Y38881916D01*
G75*
G02*
X117691518Y37961069I-74082J-846765D01*
G01*
X117639224Y37363353D01*
G75*
G02*
X116718377Y36590670I-846765J74082D01*
G01*
X116718377Y36590670D01*
G75*
G02*
X115945694Y37511517I74082J846765D01*
G01*
G37*
G36*
G01*
X115239732Y29442340D02*
X115292026Y30040056D01*
G75*
G02*
X116212873Y30812739I846765J-74082D01*
G01*
X116212873Y30812739D01*
G75*
G02*
X116985556Y29891892I-74082J-846765D01*
G01*
X116933262Y29294176D01*
G75*
G02*
X116012415Y28521493I-846765J74082D01*
G01*
X116012415Y28521493D01*
G75*
G02*
X115239732Y29442340I74082J846765D01*
G01*
G37*
G36*
G01*
X119918099Y30137238D02*
X119970393Y30734954D01*
G75*
G02*
X120891240Y31507637I846765J-74082D01*
G01*
X120891240Y31507637D01*
G75*
G02*
X121663923Y30586790I-74082J-846765D01*
G01*
X121611629Y29989074D01*
G75*
G02*
X120690782Y29216391I-846765J74082D01*
G01*
X120690782Y29216391D01*
G75*
G02*
X119918099Y30137238I74082J846765D01*
G01*
G37*
G36*
G01*
X120266722Y34122017D02*
X120319016Y34719733D01*
G75*
G02*
X121239863Y35492416I846765J-74082D01*
G01*
X121239863Y35492416D01*
G75*
G02*
X122012546Y34571569I-74082J-846765D01*
G01*
X121960252Y33973853D01*
G75*
G02*
X121039405Y33201170I-846765J74082D01*
G01*
X121039405Y33201170D01*
G75*
G02*
X120266722Y34122017I74082J846765D01*
G01*
G37*
G36*
G01*
X120528190Y37110601D02*
X120580484Y37708317D01*
G75*
G02*
X121501331Y38481000I846765J-74082D01*
G01*
X121501331Y38481000D01*
G75*
G02*
X122274014Y37560153I-74082J-846765D01*
G01*
X122221720Y36962437D01*
G75*
G02*
X121300873Y36189754I-846765J74082D01*
G01*
X121300873Y36189754D01*
G75*
G02*
X120528190Y37110601I74082J846765D01*
G01*
G37*
%TD*%
M02*
