%TF.GenerationSoftware,KiCad,Pcbnew,(5.1.9)-1*%
%TF.CreationDate,2021-07-01T17:14:58+02:00*%
%TF.ProjectId,dosidicus_gigas_alu,646f7369-6469-4637-9573-5f6769676173,VERSION_HERE*%
%TF.SameCoordinates,Original*%
%TF.FileFunction,Copper,L2,Bot*%
%TF.FilePolarity,Positive*%
%FSLAX46Y46*%
G04 Gerber Fmt 4.6, Leading zero omitted, Abs format (unit mm)*
G04 Created by KiCad (PCBNEW (5.1.9)-1) date 2021-07-01 17:14:58*
%MOMM*%
%LPD*%
G01*
G04 APERTURE LIST*
%TA.AperFunction,ComponentPad*%
%ADD10C,2.032000*%
%TD*%
%TA.AperFunction,ComponentPad*%
%ADD11C,0.100000*%
%TD*%
%TA.AperFunction,ComponentPad*%
%ADD12C,1.752600*%
%TD*%
G04 APERTURE END LIST*
D10*
%TO.P,S1,1*%
%TO.N,P1*%
X17446217Y4385313D03*
%TO.P,S1,2*%
%TO.N,GND*%
X12073068Y5119662D03*
%TD*%
%TO.P,S2,1*%
%TO.N,P3*%
X13046317Y20806113D03*
%TO.P,S2,2*%
%TO.N,GND*%
X7673168Y21540462D03*
%TD*%
%TO.P,S3,1*%
%TO.N,P4*%
X8646317Y37226813D03*
%TO.P,S3,2*%
%TO.N,GND*%
X3273168Y37961162D03*
%TD*%
%TO.P,S4,1*%
%TO.N,P5*%
X34154882Y25236119D03*
%TO.P,S4,2*%
%TO.N,GND*%
X28990881Y26892349D03*
%TD*%
%TO.P,S5,1*%
%TO.N,P6*%
X32673182Y42171419D03*
%TO.P,S5,2*%
%TO.N,GND*%
X27509181Y43827649D03*
%TD*%
%TO.P,S6,1*%
%TO.N,P7*%
X31191582Y59106719D03*
%TO.P,S6,2*%
%TO.N,GND*%
X26027581Y60762949D03*
%TD*%
%TO.P,S7,1*%
%TO.N,P8*%
X53624400Y32093400D03*
%TO.P,S7,2*%
%TO.N,GND*%
X48624400Y34193400D03*
%TD*%
%TO.P,S8,1*%
%TO.N,P9*%
X53624400Y49093400D03*
%TO.P,S8,2*%
%TO.N,GND*%
X48624400Y51193400D03*
%TD*%
%TO.P,S9,1*%
%TO.N,P16*%
X53624400Y66093400D03*
%TO.P,S9,2*%
%TO.N,GND*%
X48624400Y68193400D03*
%TD*%
%TO.P,S10,1*%
%TO.N,P14*%
X73218165Y25911761D03*
%TO.P,S10,2*%
%TO.N,GND*%
X68420219Y28439549D03*
%TD*%
%TO.P,S11,1*%
%TO.N,P15*%
X74699865Y42847061D03*
%TO.P,S11,2*%
%TO.N,GND*%
X69901919Y45374849D03*
%TD*%
%TO.P,S12,1*%
%TO.N,P18*%
X76181465Y59782461D03*
%TO.P,S12,2*%
%TO.N,GND*%
X71383519Y62310249D03*
%TD*%
%TO.P,S13,1*%
%TO.N,P19*%
X90902765Y21520461D03*
%TO.P,S13,2*%
%TO.N,GND*%
X86104819Y24048249D03*
%TD*%
%TO.P,S14,1*%
%TO.N,P20*%
X92384365Y38455761D03*
%TO.P,S14,2*%
%TO.N,GND*%
X87586419Y40983549D03*
%TD*%
%TO.P,S15,1*%
%TO.N,P21*%
X93866065Y55391061D03*
%TO.P,S15,2*%
%TO.N,GND*%
X89068119Y57918849D03*
%TD*%
%TO.P,S16,1*%
%TO.N,P10*%
X105436140Y-5271769D03*
%TO.P,S16,2*%
%TO.N,GND*%
X101455919Y-1588314D03*
%TD*%
%TA.AperFunction,ComponentPad*%
D11*
%TO.P,C1,1*%
%TO.N,RAW*%
G36*
X98088971Y40512707D02*
G01*
X99834902Y40359958D01*
X99682153Y38614027D01*
X97936222Y38766776D01*
X98088971Y40512707D01*
G37*
%TD.AperFunction*%
D12*
%TO.P,C1,2*%
%TO.N,GND*%
X98664187Y37033032D03*
%TO.P,C1,3*%
%TO.N,RST*%
X98442811Y34502698D03*
%TO.P,C1,4*%
%TO.N,VCC*%
X98221435Y31972363D03*
%TO.P,C1,5*%
%TO.N,P21*%
X98000060Y29442029D03*
%TO.P,C1,6*%
%TO.N,P20*%
X97778684Y26911694D03*
%TO.P,C1,7*%
%TO.N,P19*%
X97557309Y24381359D03*
%TO.P,C1,8*%
%TO.N,P18*%
X97335933Y21851025D03*
%TO.P,C1,9*%
%TO.N,P15*%
X97114557Y19320690D03*
%TO.P,C1,10*%
%TO.N,P14*%
X96893182Y16790356D03*
%TO.P,C1,11*%
%TO.N,P16*%
X96671806Y14260021D03*
%TO.P,C1,12*%
%TO.N,P10*%
X96450431Y11729687D03*
%TO.P,C1,13*%
%TO.N,P1*%
X114067569Y38235113D03*
%TO.P,C1,14*%
%TO.N,P0*%
X113846194Y35704779D03*
%TO.P,C1,15*%
%TO.N,GND*%
X113624818Y33174444D03*
%TO.P,C1,16*%
X113403443Y30644110D03*
%TO.P,C1,17*%
%TO.N,P2*%
X113182067Y28113775D03*
%TO.P,C1,18*%
%TO.N,P3*%
X112960691Y25583441D03*
%TO.P,C1,19*%
%TO.N,P4*%
X112739316Y23053106D03*
%TO.P,C1,20*%
%TO.N,P5*%
X112517940Y20522771D03*
%TO.P,C1,21*%
%TO.N,P6*%
X112296565Y17992437D03*
%TO.P,C1,22*%
%TO.N,P7*%
X112075189Y15462102D03*
%TO.P,C1,23*%
%TO.N,P8*%
X111853813Y12931768D03*
%TO.P,C1,24*%
%TO.N,P9*%
X111632438Y10401433D03*
%TD*%
%TO.P,REF\u002A\u002A,1*%
%TO.N,GND*%
%TA.AperFunction,ComponentPad*%
G36*
G01*
X119872037Y29037067D02*
X119924331Y29634783D01*
G75*
G02*
X120791012Y30362014I796956J-69725D01*
G01*
X120791012Y30362014D01*
G75*
G02*
X121518243Y29495333I-69725J-796956D01*
G01*
X121465949Y28897617D01*
G75*
G02*
X120599268Y28170386I-796956J69725D01*
G01*
X120599268Y28170386D01*
G75*
G02*
X119872037Y29037067I69725J796956D01*
G01*
G37*
%TD.AperFunction*%
%TO.P,REF\u002A\u002A,2*%
%TA.AperFunction,ComponentPad*%
G36*
G01*
X115385413Y30533797D02*
X115437707Y31131513D01*
G75*
G02*
X116304388Y31858744I796956J-69725D01*
G01*
X116304388Y31858744D01*
G75*
G02*
X117031619Y30992063I-69725J-796956D01*
G01*
X116979325Y30394347D01*
G75*
G02*
X116112644Y29667116I-796956J69725D01*
G01*
X116112644Y29667116D01*
G75*
G02*
X115385413Y30533797I69725J796956D01*
G01*
G37*
%TD.AperFunction*%
%TO.P,REF\u002A\u002A,3*%
%TO.N,P2*%
%TA.AperFunction,ComponentPad*%
G36*
G01*
X115734036Y34518576D02*
X115786330Y35116292D01*
G75*
G02*
X116653011Y35843523I796956J-69725D01*
G01*
X116653011Y35843523D01*
G75*
G02*
X117380242Y34976842I-69725J-796956D01*
G01*
X117327948Y34379126D01*
G75*
G02*
X116461267Y33651895I-796956J69725D01*
G01*
X116461267Y33651895D01*
G75*
G02*
X115734036Y34518576I69725J796956D01*
G01*
G37*
%TD.AperFunction*%
%TO.P,REF\u002A\u002A,4*%
%TO.N,VCC*%
%TA.AperFunction,ComponentPad*%
G36*
G01*
X115995503Y37507160D02*
X116047797Y38104876D01*
G75*
G02*
X116914478Y38832107I796956J-69725D01*
G01*
X116914478Y38832107D01*
G75*
G02*
X117641709Y37965426I-69725J-796956D01*
G01*
X117589415Y37367710D01*
G75*
G02*
X116722734Y36640479I-796956J69725D01*
G01*
X116722734Y36640479D01*
G75*
G02*
X115995503Y37507160I69725J796956D01*
G01*
G37*
%TD.AperFunction*%
%TO.P,REF\u002A\u002A,1*%
%TO.N,GND*%
%TA.AperFunction,ComponentPad*%
G36*
G01*
X115289541Y29437983D02*
X115341835Y30035699D01*
G75*
G02*
X116208516Y30762930I796956J-69725D01*
G01*
X116208516Y30762930D01*
G75*
G02*
X116935747Y29896249I-69725J-796956D01*
G01*
X116883453Y29298533D01*
G75*
G02*
X116016772Y28571302I-796956J69725D01*
G01*
X116016772Y28571302D01*
G75*
G02*
X115289541Y29437983I69725J796956D01*
G01*
G37*
%TD.AperFunction*%
%TO.P,REF\u002A\u002A,2*%
%TA.AperFunction,ComponentPad*%
G36*
G01*
X119967908Y30132881D02*
X120020202Y30730597D01*
G75*
G02*
X120886883Y31457828I796956J-69725D01*
G01*
X120886883Y31457828D01*
G75*
G02*
X121614114Y30591147I-69725J-796956D01*
G01*
X121561820Y29993431D01*
G75*
G02*
X120695139Y29266200I-796956J69725D01*
G01*
X120695139Y29266200D01*
G75*
G02*
X119967908Y30132881I69725J796956D01*
G01*
G37*
%TD.AperFunction*%
%TO.P,REF\u002A\u002A,3*%
%TO.N,P2*%
%TA.AperFunction,ComponentPad*%
G36*
G01*
X120316531Y34117660D02*
X120368825Y34715376D01*
G75*
G02*
X121235506Y35442607I796956J-69725D01*
G01*
X121235506Y35442607D01*
G75*
G02*
X121962737Y34575926I-69725J-796956D01*
G01*
X121910443Y33978210D01*
G75*
G02*
X121043762Y33250979I-796956J69725D01*
G01*
X121043762Y33250979D01*
G75*
G02*
X120316531Y34117660I69725J796956D01*
G01*
G37*
%TD.AperFunction*%
%TO.P,REF\u002A\u002A,4*%
%TO.N,VCC*%
%TA.AperFunction,ComponentPad*%
G36*
G01*
X120577999Y37106244D02*
X120630293Y37703960D01*
G75*
G02*
X121496974Y38431191I796956J-69725D01*
G01*
X121496974Y38431191D01*
G75*
G02*
X122224205Y37564510I-69725J-796956D01*
G01*
X122171911Y36966794D01*
G75*
G02*
X121305230Y36239563I-796956J69725D01*
G01*
X121305230Y36239563D01*
G75*
G02*
X120577999Y37106244I69725J796956D01*
G01*
G37*
%TD.AperFunction*%
%TD*%
M02*
