%TF.GenerationSoftware,KiCad,Pcbnew,(5.1.9)-1*%
%TF.CreationDate,2021-07-01T17:14:58+02:00*%
%TF.ProjectId,dosidicus_gigas_alu,646f7369-6469-4637-9573-5f6769676173,VERSION_HERE*%
%TF.SameCoordinates,Original*%
%TF.FileFunction,Legend,Top*%
%TF.FilePolarity,Positive*%
%FSLAX46Y46*%
G04 Gerber Fmt 4.6, Leading zero omitted, Abs format (unit mm)*
G04 Created by KiCad (PCBNEW (5.1.9)-1) date 2021-07-01 17:14:58*
%MOMM*%
%LPD*%
G01*
G04 APERTURE LIST*
%ADD10C,0.150000*%
G04 APERTURE END LIST*
D10*
%TO.C,C1*%
X100040042Y38187512D02*
X97509707Y38408887D01*
X100261417Y40717846D02*
X97731083Y40939222D01*
X100261417Y40717846D02*
X100040042Y38187512D01*
X115664800Y41919927D02*
X97952458Y43469556D01*
X112786917Y9025578D02*
X115664800Y41919927D01*
X95074576Y10575207D02*
X112786917Y9025578D01*
X97952458Y43469556D02*
X95074576Y10575207D01*
X101113009Y39005202D02*
X100880560Y39407946D01*
X100657606Y39045045D02*
X100727331Y39842000D01*
X101030933Y39815439D01*
X101103513Y39770848D01*
X101138143Y39729577D01*
X101169453Y39650357D01*
X101159493Y39536506D01*
X101114902Y39463926D01*
X101073631Y39429296D01*
X100994411Y39397986D01*
X100690808Y39424547D01*
X101436533Y39206342D02*
X101816036Y39173140D01*
X101340711Y38985281D02*
X101676088Y39758995D01*
X101872015Y38938798D01*
X102131491Y39719152D02*
X102251518Y38905596D01*
X102453122Y39461569D01*
X102555120Y38879034D01*
X102814596Y39659388D01*
X100901113Y37238854D02*
X100828533Y37283445D01*
X100714682Y37293405D01*
X100597511Y37265416D01*
X100514970Y37196156D01*
X100470380Y37123575D01*
X100419148Y36975094D01*
X100409188Y36861243D01*
X100433857Y36706122D01*
X100465167Y36626901D01*
X100534427Y36544360D01*
X100644958Y36496449D01*
X100720858Y36489809D01*
X100838029Y36517799D01*
X100879300Y36552429D01*
X100902541Y36818081D01*
X100750740Y36831362D01*
X101214212Y36446646D02*
X101283936Y37243602D01*
X101669615Y36406804D01*
X101739340Y37203759D01*
X102049118Y36373601D02*
X102118842Y37170557D01*
X102308594Y37153956D01*
X102419124Y37106045D01*
X102488384Y37023504D01*
X102519694Y36944283D01*
X102544364Y36789162D01*
X102534403Y36675311D01*
X102483172Y36526830D01*
X102438581Y36454250D01*
X102356040Y36384990D01*
X102238869Y36357000D01*
X102049118Y36373601D01*
X100784109Y33934572D02*
X100551660Y34337317D01*
X100328706Y33974415D02*
X100398431Y34771371D01*
X100702033Y34744809D01*
X100774613Y34700218D01*
X100809243Y34658948D01*
X100840553Y34579727D01*
X100830592Y34465876D01*
X100786002Y34393296D01*
X100744731Y34358666D01*
X100665510Y34327356D01*
X100361908Y34353918D01*
X101091032Y33945961D02*
X101201562Y33898050D01*
X101391314Y33881449D01*
X101470534Y33912759D01*
X101511805Y33947389D01*
X101556396Y34019969D01*
X101563036Y34095870D01*
X101531726Y34175090D01*
X101497096Y34216361D01*
X101424516Y34260952D01*
X101276035Y34312183D01*
X101203455Y34356774D01*
X101168825Y34398044D01*
X101137515Y34477265D01*
X101144155Y34553165D01*
X101188746Y34625746D01*
X101230016Y34660376D01*
X101309237Y34691686D01*
X101498989Y34675084D01*
X101609519Y34627174D01*
X101840541Y34645202D02*
X102295944Y34605360D01*
X101998518Y33828325D02*
X102068243Y34625281D01*
X100006278Y32255978D02*
X100202206Y31435780D01*
X100537582Y32209495D01*
X101195553Y31425355D02*
X101154283Y31390725D01*
X101037112Y31362736D01*
X100961211Y31369376D01*
X100850681Y31417287D01*
X100781420Y31499828D01*
X100750111Y31579049D01*
X100725441Y31734170D01*
X100735402Y31848021D01*
X100786633Y31996502D01*
X100831224Y32069082D01*
X100913765Y32138342D01*
X101030936Y32166332D01*
X101106836Y32159691D01*
X101217367Y32111781D01*
X101251997Y32070510D01*
X101992509Y31355631D02*
X101951238Y31321001D01*
X101834067Y31293011D01*
X101758167Y31299652D01*
X101647636Y31347562D01*
X101578376Y31430103D01*
X101547066Y31509324D01*
X101522397Y31664446D01*
X101532358Y31778296D01*
X101583589Y31926777D01*
X101628179Y31999358D01*
X101710720Y32068618D01*
X101827892Y32096607D01*
X101903792Y32089967D01*
X102014323Y32042056D01*
X102048953Y32000785D01*
X99810054Y28920386D02*
X99879779Y29717342D01*
X100183381Y29690780D01*
X100255962Y29646190D01*
X100290592Y29604919D01*
X100321901Y29525699D01*
X100311941Y29411848D01*
X100267350Y29339267D01*
X100226080Y29304637D01*
X100146859Y29273327D01*
X99843257Y29299889D01*
X100632144Y29575037D02*
X100673415Y29609667D01*
X100752635Y29640977D01*
X100942387Y29624376D01*
X101014967Y29579785D01*
X101049597Y29538515D01*
X101080907Y29459294D01*
X101074266Y29383394D01*
X101026356Y29272863D01*
X100531110Y28857302D01*
X101024463Y28814139D01*
X101783469Y28747735D02*
X101328065Y28787578D01*
X101555767Y28767656D02*
X101625492Y29564612D01*
X101539630Y29457402D01*
X101457089Y29388142D01*
X101377869Y29356832D01*
X99588678Y26390052D02*
X99658403Y27187008D01*
X99962005Y27160446D01*
X100034586Y27115856D01*
X100069216Y27074585D01*
X100100525Y26995365D01*
X100090565Y26881514D01*
X100045974Y26808933D01*
X100004704Y26774303D01*
X99925483Y26742993D01*
X99621881Y26769555D01*
X100410768Y27044703D02*
X100452039Y27079333D01*
X100531259Y27110643D01*
X100721011Y27094042D01*
X100793591Y27049451D01*
X100828221Y27008181D01*
X100859531Y26928960D01*
X100852890Y26853060D01*
X100804980Y26742529D01*
X100309734Y26326968D01*
X100803087Y26283805D01*
X101366165Y27037598D02*
X101442066Y27030958D01*
X101514646Y26986367D01*
X101549276Y26945097D01*
X101580586Y26865876D01*
X101605256Y26710755D01*
X101588654Y26521003D01*
X101537423Y26372522D01*
X101492833Y26299942D01*
X101451562Y26265312D01*
X101372341Y26234002D01*
X101296441Y26240643D01*
X101223860Y26285233D01*
X101189230Y26326504D01*
X101157921Y26405725D01*
X101133251Y26560846D01*
X101149852Y26750597D01*
X101201083Y26899078D01*
X101245674Y26971658D01*
X101286945Y27006289D01*
X101366165Y27037598D01*
X99367303Y23859717D02*
X99437028Y24656673D01*
X99740630Y24630111D01*
X99813211Y24585521D01*
X99847841Y24544250D01*
X99879150Y24465030D01*
X99869190Y24351179D01*
X99824599Y24278598D01*
X99783329Y24243968D01*
X99704108Y24212658D01*
X99400506Y24239220D01*
X100581712Y23753470D02*
X100126309Y23793313D01*
X100354011Y23773392D02*
X100423735Y24570348D01*
X100337874Y24463137D01*
X100255333Y24393877D01*
X100176112Y24362567D01*
X100961215Y23720268D02*
X101113016Y23706987D01*
X101192237Y23738297D01*
X101233507Y23772927D01*
X101319369Y23880138D01*
X101370600Y24028619D01*
X101397161Y24332221D01*
X101365852Y24411442D01*
X101331222Y24452712D01*
X101258641Y24497303D01*
X101106840Y24510584D01*
X101027619Y24479274D01*
X100986349Y24444644D01*
X100941758Y24372063D01*
X100925157Y24182312D01*
X100956467Y24103091D01*
X100991097Y24061821D01*
X101063677Y24017230D01*
X101215478Y24003949D01*
X101294699Y24035259D01*
X101335970Y24069889D01*
X101380560Y24142469D01*
X99145927Y21329383D02*
X99215652Y22126339D01*
X99519254Y22099777D01*
X99591835Y22055187D01*
X99626465Y22013916D01*
X99657774Y21934696D01*
X99647814Y21820845D01*
X99603223Y21748264D01*
X99561953Y21713634D01*
X99482732Y21682324D01*
X99179130Y21708886D01*
X100360336Y21223136D02*
X99904933Y21262979D01*
X100132635Y21243058D02*
X100202359Y22040014D01*
X100116498Y21932803D01*
X100033957Y21863543D01*
X99954736Y21832233D01*
X100855582Y21638697D02*
X100783002Y21683288D01*
X100748372Y21724558D01*
X100717062Y21803779D01*
X100720382Y21841729D01*
X100764973Y21914310D01*
X100806243Y21948940D01*
X100885464Y21980250D01*
X101037265Y21966969D01*
X101109846Y21922378D01*
X101144476Y21881108D01*
X101175785Y21801887D01*
X101172465Y21763936D01*
X101127874Y21691356D01*
X101086604Y21656726D01*
X101007383Y21625416D01*
X100855582Y21638697D01*
X100776361Y21607387D01*
X100735091Y21572757D01*
X100690500Y21500177D01*
X100677219Y21348376D01*
X100708529Y21269155D01*
X100743159Y21227885D01*
X100815739Y21183294D01*
X100967541Y21170013D01*
X101046761Y21201323D01*
X101088032Y21235953D01*
X101132623Y21308533D01*
X101145903Y21460334D01*
X101114594Y21539555D01*
X101079964Y21580826D01*
X101007383Y21625416D01*
X98924551Y18799048D02*
X98994276Y19596004D01*
X99297878Y19569442D01*
X99370459Y19524852D01*
X99405089Y19483581D01*
X99436398Y19404361D01*
X99426438Y19290510D01*
X99381847Y19217929D01*
X99340577Y19183299D01*
X99261356Y19151989D01*
X98957754Y19178551D01*
X100138960Y18692801D02*
X99683557Y18732644D01*
X99911259Y18712723D02*
X99980983Y19509679D01*
X99895122Y19402468D01*
X99812581Y19333208D01*
X99733360Y19301898D01*
X100929740Y19426673D02*
X100550237Y19459875D01*
X100479085Y19083693D01*
X100520355Y19118323D01*
X100599576Y19149633D01*
X100789327Y19133032D01*
X100861908Y19088441D01*
X100896538Y19047170D01*
X100927848Y18967950D01*
X100911247Y18778198D01*
X100866656Y18705618D01*
X100825385Y18670988D01*
X100746165Y18639678D01*
X100556413Y18656279D01*
X100483833Y18700870D01*
X100449203Y18742140D01*
X98703176Y16268714D02*
X98772901Y17065670D01*
X99076503Y17039108D01*
X99149084Y16994518D01*
X99183714Y16953247D01*
X99215023Y16874027D01*
X99205063Y16760176D01*
X99160472Y16687595D01*
X99119202Y16652965D01*
X99039981Y16621655D01*
X98736379Y16648217D01*
X99917585Y16162467D02*
X99462182Y16202310D01*
X99689884Y16182389D02*
X99759608Y16979345D01*
X99673747Y16872134D01*
X99591206Y16802874D01*
X99511985Y16771564D01*
X100647173Y16634007D02*
X100600690Y16102704D01*
X100483984Y16954211D02*
X100244429Y16401558D01*
X100737782Y16358395D01*
X98481800Y13738379D02*
X98551525Y14535335D01*
X98855127Y14508773D01*
X98927708Y14464183D01*
X98962338Y14422912D01*
X98993647Y14343692D01*
X98983687Y14229841D01*
X98939096Y14157260D01*
X98897826Y14122630D01*
X98818605Y14091320D01*
X98515003Y14117882D01*
X99696209Y13632132D02*
X99240806Y13671975D01*
X99468508Y13652054D02*
X99538232Y14449010D01*
X99452371Y14341799D01*
X99369830Y14272539D01*
X99290609Y14241229D01*
X100449039Y14369324D02*
X100297238Y14382605D01*
X100218017Y14351295D01*
X100176746Y14316665D01*
X100090885Y14209455D01*
X100039654Y14060974D01*
X100013092Y13757372D01*
X100044402Y13678151D01*
X100079032Y13636881D01*
X100151612Y13592290D01*
X100303414Y13579009D01*
X100382634Y13610319D01*
X100423905Y13644949D01*
X100468496Y13717529D01*
X100485097Y13907281D01*
X100453787Y13986501D01*
X100419157Y14027772D01*
X100346576Y14072363D01*
X100194775Y14085643D01*
X100115555Y14054334D01*
X100074284Y14019704D01*
X100029693Y13947123D01*
X98260425Y11208045D02*
X98330150Y12005001D01*
X98633752Y11978439D01*
X98706333Y11933849D01*
X98740963Y11892578D01*
X98772272Y11813358D01*
X98762312Y11699507D01*
X98717721Y11626926D01*
X98676451Y11592296D01*
X98597230Y11560986D01*
X98293628Y11587548D01*
X99474834Y11101798D02*
X99019431Y11141641D01*
X99247133Y11121720D02*
X99316857Y11918676D01*
X99230996Y11811465D01*
X99148455Y11742205D01*
X99069234Y11710895D01*
X100037912Y11855591D02*
X100113813Y11848951D01*
X100186393Y11804360D01*
X100221023Y11763090D01*
X100252333Y11683869D01*
X100277003Y11528748D01*
X100260401Y11338996D01*
X100209170Y11190515D01*
X100164580Y11117935D01*
X100123309Y11083305D01*
X100044088Y11051995D01*
X99968188Y11058636D01*
X99895607Y11103226D01*
X99860977Y11144497D01*
X99829668Y11223718D01*
X99804998Y11378839D01*
X99821599Y11568590D01*
X99872830Y11717071D01*
X99917421Y11789651D01*
X99958692Y11824282D01*
X100037912Y11855591D01*
X110259025Y38205029D02*
X110328750Y39001985D01*
X110632352Y38975423D01*
X110704933Y38930833D01*
X110739563Y38889562D01*
X110770872Y38810342D01*
X110760912Y38696491D01*
X110716321Y38623910D01*
X110675051Y38589280D01*
X110595830Y38557970D01*
X110292228Y38584532D01*
X111277507Y38918980D02*
X111353407Y38912339D01*
X111425988Y38867749D01*
X111460618Y38826478D01*
X111491928Y38747257D01*
X111516597Y38592136D01*
X111499996Y38402385D01*
X111448765Y38253904D01*
X111404174Y38181323D01*
X111362904Y38146693D01*
X111283683Y38115384D01*
X111207782Y38122024D01*
X111135202Y38166615D01*
X111100572Y38207885D01*
X111069262Y38287106D01*
X111044593Y38442227D01*
X111061194Y38631979D01*
X111112425Y38780460D01*
X111157016Y38853040D01*
X111198286Y38887670D01*
X111277507Y38918980D01*
X112232440Y38032378D02*
X111777036Y38072221D01*
X112004738Y38052299D02*
X112074463Y38849255D01*
X111988601Y38742045D01*
X111906060Y38672785D01*
X111826840Y38641475D01*
X110037650Y35674695D02*
X110107375Y36471651D01*
X110410977Y36445089D01*
X110483558Y36400499D01*
X110518188Y36359228D01*
X110549497Y36280008D01*
X110539537Y36166157D01*
X110494946Y36093576D01*
X110453676Y36058946D01*
X110374455Y36027636D01*
X110070853Y36054198D01*
X111056132Y36388646D02*
X111132032Y36382005D01*
X111204613Y36337415D01*
X111239243Y36296144D01*
X111270553Y36216923D01*
X111295222Y36061802D01*
X111278621Y35872051D01*
X111227390Y35723570D01*
X111182799Y35650989D01*
X111141529Y35616359D01*
X111062308Y35585050D01*
X110986407Y35591690D01*
X110913827Y35636281D01*
X110879197Y35677551D01*
X110847887Y35756772D01*
X110823218Y35911893D01*
X110839819Y36101645D01*
X110891050Y36250126D01*
X110935641Y36322706D01*
X110976911Y36357336D01*
X111056132Y36388646D01*
X111815137Y36322241D02*
X111891038Y36315601D01*
X111963618Y36271010D01*
X111998248Y36229740D01*
X112029558Y36150519D01*
X112054228Y35995398D01*
X112037626Y35805646D01*
X111986395Y35657165D01*
X111941805Y35584585D01*
X111900534Y35549955D01*
X111821313Y35518645D01*
X111745413Y35525286D01*
X111672832Y35569876D01*
X111638202Y35611147D01*
X111606893Y35690368D01*
X111582223Y35845489D01*
X111598824Y36035240D01*
X111650055Y36183721D01*
X111694646Y36256301D01*
X111735917Y36290932D01*
X111815137Y36322241D01*
X110243206Y33871824D02*
X110170626Y33916415D01*
X110056775Y33926375D01*
X109939604Y33898386D01*
X109857063Y33829126D01*
X109812473Y33756545D01*
X109761241Y33608064D01*
X109751281Y33494213D01*
X109775950Y33339092D01*
X109807260Y33259871D01*
X109876520Y33177330D01*
X109987051Y33129419D01*
X110062951Y33122779D01*
X110180122Y33150769D01*
X110221393Y33185399D01*
X110244634Y33451051D01*
X110092833Y33464332D01*
X110556305Y33079616D02*
X110626029Y33876572D01*
X111011708Y33039774D01*
X111081433Y33836729D01*
X111391211Y33006571D02*
X111460935Y33803527D01*
X111650687Y33786926D01*
X111761217Y33739015D01*
X111830477Y33656474D01*
X111861787Y33577253D01*
X111886457Y33422132D01*
X111876496Y33308281D01*
X111825265Y33159800D01*
X111780674Y33087220D01*
X111698133Y33017960D01*
X111580962Y32989970D01*
X111391211Y33006571D01*
X110021831Y31341490D02*
X109949251Y31386081D01*
X109835400Y31396041D01*
X109718229Y31368052D01*
X109635688Y31298792D01*
X109591098Y31226211D01*
X109539866Y31077730D01*
X109529906Y30963879D01*
X109554575Y30808758D01*
X109585885Y30729537D01*
X109655145Y30646996D01*
X109765676Y30599085D01*
X109841576Y30592445D01*
X109958747Y30620435D01*
X110000018Y30655065D01*
X110023259Y30920717D01*
X109871458Y30933998D01*
X110334930Y30549282D02*
X110404654Y31346238D01*
X110790333Y30509440D01*
X110860058Y31306395D01*
X111169836Y30476237D02*
X111239560Y31273193D01*
X111429312Y31256592D01*
X111539842Y31208681D01*
X111609102Y31126140D01*
X111640412Y31046919D01*
X111665082Y30891798D01*
X111655121Y30777947D01*
X111603890Y30629466D01*
X111559299Y30556886D01*
X111476758Y30487626D01*
X111359587Y30459636D01*
X111169836Y30476237D01*
X109373523Y28083691D02*
X109443248Y28880647D01*
X109746850Y28854085D01*
X109819431Y28809495D01*
X109854061Y28768224D01*
X109885370Y28689004D01*
X109875410Y28575153D01*
X109830819Y28502572D01*
X109789549Y28467942D01*
X109710328Y28436632D01*
X109406726Y28463194D01*
X110392005Y28797642D02*
X110467905Y28791001D01*
X110540486Y28746411D01*
X110575116Y28705140D01*
X110606426Y28625919D01*
X110631095Y28470798D01*
X110614494Y28281047D01*
X110563263Y28132566D01*
X110518672Y28059985D01*
X110477402Y28025355D01*
X110398181Y27994046D01*
X110322280Y28000686D01*
X110249700Y28045277D01*
X110215070Y28086547D01*
X110183760Y28165768D01*
X110159091Y28320889D01*
X110175692Y28510641D01*
X110226923Y28659122D01*
X110271514Y28731702D01*
X110312784Y28766332D01*
X110392005Y28797642D01*
X110954619Y28671938D02*
X110995889Y28706568D01*
X111075110Y28737878D01*
X111264861Y28721277D01*
X111337442Y28676686D01*
X111372072Y28635416D01*
X111403381Y28556195D01*
X111396741Y28480294D01*
X111348830Y28369764D01*
X110853584Y27954203D01*
X111346938Y27911040D01*
X109152147Y25553357D02*
X109221872Y26350313D01*
X109525474Y26323751D01*
X109598055Y26279161D01*
X109632685Y26237890D01*
X109663994Y26158670D01*
X109654034Y26044819D01*
X109609443Y25972238D01*
X109568173Y25937608D01*
X109488952Y25906298D01*
X109185350Y25932860D01*
X110170629Y26267308D02*
X110246529Y26260667D01*
X110319110Y26216077D01*
X110353740Y26174806D01*
X110385050Y26095585D01*
X110409719Y25940464D01*
X110393118Y25750713D01*
X110341887Y25602232D01*
X110297296Y25529651D01*
X110256026Y25495021D01*
X110176805Y25463712D01*
X110100904Y25470352D01*
X110028324Y25514943D01*
X109993694Y25556213D01*
X109962384Y25635434D01*
X109937715Y25790555D01*
X109954316Y25980307D01*
X110005547Y26128788D01*
X110050138Y26201368D01*
X110091408Y26235998D01*
X110170629Y26267308D01*
X110701933Y26220825D02*
X111195286Y26177662D01*
X110903073Y25897301D01*
X111016923Y25887341D01*
X111089504Y25842750D01*
X111124134Y25801479D01*
X111155444Y25722259D01*
X111138843Y25532507D01*
X111094252Y25459927D01*
X111052981Y25425297D01*
X110973761Y25393987D01*
X110746059Y25413908D01*
X110673479Y25458499D01*
X110638849Y25499769D01*
X108930772Y23023022D02*
X109000497Y23819978D01*
X109304099Y23793416D01*
X109376680Y23748826D01*
X109411310Y23707555D01*
X109442619Y23628335D01*
X109432659Y23514484D01*
X109388068Y23441903D01*
X109346798Y23407273D01*
X109267577Y23375963D01*
X108963975Y23402525D01*
X109949254Y23736973D02*
X110025154Y23730332D01*
X110097735Y23685742D01*
X110132365Y23644471D01*
X110163675Y23565250D01*
X110188344Y23410129D01*
X110171743Y23220378D01*
X110120512Y23071897D01*
X110075921Y22999316D01*
X110034651Y22964686D01*
X109955430Y22933377D01*
X109879529Y22940017D01*
X109806949Y22984608D01*
X109772319Y23025878D01*
X109741009Y23105099D01*
X109716340Y23260220D01*
X109732941Y23449972D01*
X109784172Y23598453D01*
X109828763Y23671033D01*
X109870033Y23705663D01*
X109949254Y23736973D01*
X110874769Y23388315D02*
X110828286Y22857012D01*
X110711580Y23708519D02*
X110472025Y23155866D01*
X110965378Y23112703D01*
X108709396Y20492688D02*
X108779121Y21289644D01*
X109082723Y21263082D01*
X109155304Y21218492D01*
X109189934Y21177221D01*
X109221243Y21098001D01*
X109211283Y20984150D01*
X109166692Y20911569D01*
X109125422Y20876939D01*
X109046201Y20845629D01*
X108742599Y20872191D01*
X109727878Y21206639D02*
X109803778Y21199998D01*
X109876359Y21155408D01*
X109910989Y21114137D01*
X109942299Y21034916D01*
X109966968Y20879795D01*
X109950367Y20690044D01*
X109899136Y20541563D01*
X109854545Y20468982D01*
X109813275Y20434352D01*
X109734054Y20403043D01*
X109658153Y20409683D01*
X109585573Y20454274D01*
X109550943Y20495544D01*
X109519633Y20574765D01*
X109494964Y20729886D01*
X109511565Y20919638D01*
X109562796Y21068119D01*
X109607387Y21140699D01*
X109648657Y21175329D01*
X109727878Y21206639D01*
X110714585Y21120313D02*
X110335082Y21153515D01*
X110263930Y20777333D01*
X110305200Y20811963D01*
X110384421Y20843273D01*
X110574172Y20826672D01*
X110646753Y20782081D01*
X110681383Y20740810D01*
X110712693Y20661590D01*
X110696092Y20471838D01*
X110651501Y20399258D01*
X110610230Y20364628D01*
X110531010Y20333318D01*
X110341258Y20349919D01*
X110268678Y20394510D01*
X110234048Y20435780D01*
X108488021Y17962353D02*
X108557746Y18759309D01*
X108861348Y18732747D01*
X108933929Y18688157D01*
X108968559Y18646886D01*
X108999868Y18567666D01*
X108989908Y18453815D01*
X108945317Y18381234D01*
X108904047Y18346604D01*
X108824826Y18315294D01*
X108521224Y18341856D01*
X109506503Y18676304D02*
X109582403Y18669663D01*
X109654984Y18625073D01*
X109689614Y18583802D01*
X109720924Y18504581D01*
X109745593Y18349460D01*
X109728992Y18159709D01*
X109677761Y18011228D01*
X109633170Y17938647D01*
X109591900Y17904017D01*
X109512679Y17872708D01*
X109436778Y17879348D01*
X109364198Y17923939D01*
X109329568Y17965209D01*
X109298258Y18044430D01*
X109273589Y18199551D01*
X109290190Y18389303D01*
X109341421Y18537784D01*
X109386012Y18610364D01*
X109427282Y18644994D01*
X109506503Y18676304D01*
X110455260Y18593298D02*
X110303459Y18606579D01*
X110224238Y18575269D01*
X110182967Y18540639D01*
X110097106Y18433429D01*
X110045875Y18284948D01*
X110019313Y17981346D01*
X110050623Y17902125D01*
X110085253Y17860855D01*
X110157833Y17816264D01*
X110309635Y17802983D01*
X110388855Y17834293D01*
X110430126Y17868923D01*
X110474717Y17941503D01*
X110491318Y18131255D01*
X110460008Y18210475D01*
X110425378Y18251746D01*
X110352797Y18296337D01*
X110200996Y18309617D01*
X110121776Y18278308D01*
X110080505Y18243678D01*
X110035914Y18171097D01*
X108266645Y15432019D02*
X108336370Y16228975D01*
X108639972Y16202413D01*
X108712553Y16157823D01*
X108747183Y16116552D01*
X108778492Y16037332D01*
X108768532Y15923481D01*
X108723941Y15850900D01*
X108682671Y15816270D01*
X108603450Y15784960D01*
X108299848Y15811522D01*
X109285127Y16145970D02*
X109361027Y16139329D01*
X109433608Y16094739D01*
X109468238Y16053468D01*
X109499548Y15974247D01*
X109524217Y15819126D01*
X109507616Y15629375D01*
X109456385Y15480894D01*
X109411794Y15408313D01*
X109370524Y15373683D01*
X109291303Y15342374D01*
X109215402Y15349014D01*
X109142822Y15393605D01*
X109108192Y15434875D01*
X109076882Y15514096D01*
X109052213Y15669217D01*
X109068814Y15858969D01*
X109120045Y16007450D01*
X109164636Y16080030D01*
X109205906Y16114660D01*
X109285127Y16145970D01*
X109816431Y16099487D02*
X110347735Y16053004D01*
X109936457Y15285930D01*
X108045269Y12901684D02*
X108114994Y13698640D01*
X108418596Y13672078D01*
X108491177Y13627488D01*
X108525807Y13586217D01*
X108557116Y13506997D01*
X108547156Y13393146D01*
X108502565Y13320565D01*
X108461295Y13285935D01*
X108382074Y13254625D01*
X108078472Y13281187D01*
X109063751Y13615635D02*
X109139651Y13608994D01*
X109212232Y13564404D01*
X109246862Y13523133D01*
X109278172Y13443912D01*
X109302841Y13288791D01*
X109286240Y13099040D01*
X109235009Y12950559D01*
X109190418Y12877978D01*
X109149148Y12843348D01*
X109069927Y12812039D01*
X108994026Y12818679D01*
X108921446Y12863270D01*
X108886816Y12904540D01*
X108855506Y12983761D01*
X108830837Y13138882D01*
X108847438Y13328634D01*
X108898669Y13477115D01*
X108943260Y13549695D01*
X108984530Y13584325D01*
X109063751Y13615635D01*
X109754924Y13210998D02*
X109682344Y13255589D01*
X109647714Y13296859D01*
X109616404Y13376080D01*
X109619724Y13414030D01*
X109664315Y13486611D01*
X109705585Y13521241D01*
X109784806Y13552551D01*
X109936607Y13539270D01*
X110009188Y13494679D01*
X110043818Y13453409D01*
X110075127Y13374188D01*
X110071807Y13336237D01*
X110027216Y13263657D01*
X109985946Y13229027D01*
X109906725Y13197717D01*
X109754924Y13210998D01*
X109675703Y13179688D01*
X109634433Y13145058D01*
X109589842Y13072478D01*
X109576561Y12920677D01*
X109607871Y12841456D01*
X109642501Y12800186D01*
X109715081Y12755595D01*
X109866883Y12742314D01*
X109946103Y12773624D01*
X109987374Y12808254D01*
X110031965Y12880834D01*
X110045245Y13032635D01*
X110013936Y13111856D01*
X109979306Y13153127D01*
X109906725Y13197717D01*
X107823894Y10371350D02*
X107893619Y11168306D01*
X108197221Y11141744D01*
X108269802Y11097154D01*
X108304432Y11055883D01*
X108335741Y10976663D01*
X108325781Y10862812D01*
X108281190Y10790231D01*
X108239920Y10755601D01*
X108160699Y10724291D01*
X107857097Y10750853D01*
X108842376Y11085301D02*
X108918276Y11078660D01*
X108990857Y11034070D01*
X109025487Y10992799D01*
X109056797Y10913578D01*
X109081466Y10758457D01*
X109064865Y10568706D01*
X109013634Y10420225D01*
X108969043Y10347644D01*
X108927773Y10313014D01*
X108848552Y10281705D01*
X108772651Y10288345D01*
X108700071Y10332936D01*
X108665441Y10374206D01*
X108634131Y10453427D01*
X108609462Y10608548D01*
X108626063Y10798300D01*
X108677294Y10946781D01*
X108721885Y11019361D01*
X108763155Y11053991D01*
X108842376Y11085301D01*
X109417806Y10231901D02*
X109569607Y10218620D01*
X109648828Y10249930D01*
X109690098Y10284560D01*
X109775960Y10391771D01*
X109827191Y10540252D01*
X109853752Y10843854D01*
X109822443Y10923075D01*
X109787813Y10964345D01*
X109715232Y11008936D01*
X109563431Y11022217D01*
X109484210Y10990907D01*
X109442940Y10956277D01*
X109398349Y10883696D01*
X109381748Y10693945D01*
X109413058Y10614724D01*
X109447688Y10573454D01*
X109520268Y10528863D01*
X109672069Y10515582D01*
X109751290Y10546892D01*
X109792561Y10581522D01*
X109837151Y10654102D01*
%TD*%
M02*
