<?xml version="1.0" standalone="no"?>
 <!DOCTYPE svg PUBLIC "-//W3C//DTD SVG 1.1//EN" 
 "http://www.w3.org/Graphics/SVG/1.1/DTD/svg11.dtd"> 
<svg
  xmlns:svg="http://www.w3.org/2000/svg"
  xmlns="http://www.w3.org/2000/svg"
  xmlns:xlink="http://www.w3.org/1999/xlink"
  version="1.1"
  width="12.999720cm" height="9.570720cm" viewBox="0 0 51180 37680">
<title>SVG Picture created as architeuthis_dux-brd.svg date 2021/09/03 16:47:32 </title>
  <desc>Picture generated by PCBNEW </desc>
<g style="fill:#000000; fill-opacity:1;stroke:#000000; stroke-opacity:1;
stroke-linecap:round; stroke-linejoin:round;"
 transform="translate(0 0) scale(1 1)">
</g>
<g style="fill:#000000; fill-opacity:0.0; 
stroke:#000000; stroke-width:-0.000393701; stroke-opacity:1; 
stroke-linecap:round; stroke-linejoin:round;">
<g >
</g>
<g style="fill:#000000; fill-opacity:1.0; 
stroke:#000000; stroke-width:0; stroke-opacity:1; 
stroke-linecap:round; stroke-linejoin:round;">
<circle cx="17585.6" cy="12474" r="866.142" /> 
</g>
<g style="fill:#000000; fill-opacity:1.0; 
stroke:#000000; stroke-width:39.3701; stroke-opacity:1; 
stroke-linecap:round; stroke-linejoin:round;">
</g>
<g style="fill:#000000; fill-opacity:1.0; 
stroke:#000000; stroke-width:0; stroke-opacity:1; 
stroke-linecap:round; stroke-linejoin:round;">
<circle cx="24403.4" cy="20599.1" r="866.142" /> 
</g>
<g style="fill:#000000; fill-opacity:1.0; 
stroke:#000000; stroke-width:39.3701; stroke-opacity:1; 
stroke-linecap:round; stroke-linejoin:round;">
</g>
<g style="fill:#000000; fill-opacity:1.0; 
stroke:#000000; stroke-width:0; stroke-opacity:1; 
stroke-linecap:round; stroke-linejoin:round;">
<circle cx="25710.7" cy="5656.19" r="866.142" /> 
</g>
<g style="fill:#000000; fill-opacity:1.0; 
stroke:#000000; stroke-width:39.3701; stroke-opacity:1; 
stroke-linecap:round; stroke-linejoin:round;">
</g>
<g >
</g>
<g >
</g>
<g >
</g>
</g>
<g style="fill:#FFFFFF; fill-opacity:1.0; 
stroke:#FFFFFF; stroke-width:39.3701; stroke-opacity:1; 
stroke-linecap:round; stroke-linejoin:round;">
</g>
<g style="fill:#FFFFFF; fill-opacity:1.0; 
stroke:#FFFFFF; stroke-width:0; stroke-opacity:1; 
stroke-linecap:round; stroke-linejoin:round;">
<circle cx="17585.6" cy="12474" r="433.071" /> 
</g>
<g style="fill:#FFFFFF; fill-opacity:1.0; 
stroke:#FFFFFF; stroke-width:39.3701; stroke-opacity:1; 
stroke-linecap:round; stroke-linejoin:round;">
</g>
<g style="fill:#FFFFFF; fill-opacity:1.0; 
stroke:#FFFFFF; stroke-width:0; stroke-opacity:1; 
stroke-linecap:round; stroke-linejoin:round;">
<circle cx="24403.4" cy="20599.1" r="433.071" /> 
</g>
<g style="fill:#FFFFFF; fill-opacity:1.0; 
stroke:#FFFFFF; stroke-width:39.3701; stroke-opacity:1; 
stroke-linecap:round; stroke-linejoin:round;">
</g>
<g style="fill:#FFFFFF; fill-opacity:1.0; 
stroke:#FFFFFF; stroke-width:0; stroke-opacity:1; 
stroke-linecap:round; stroke-linejoin:round;">
<circle cx="25710.7" cy="5656.19" r="433.071" /> 
</g>
<g style="fill:#FFFFFF; fill-opacity:1.0; 
stroke:#FFFFFF; stroke-width:39.3701; stroke-opacity:1; 
stroke-linecap:round; stroke-linejoin:round;">
</g>
<g style="fill:#000000; fill-opacity:1.0; 
stroke:#000000; stroke-width:39.3701; stroke-opacity:1; 
stroke-linecap:round; stroke-linejoin:round;">
</g>
<g style="fill:#000000; fill-opacity:1.0; 
stroke:#000000; stroke-width:59.0551; stroke-opacity:1; 
stroke-linecap:round; stroke-linejoin:round;">
</g>
<g style="fill:#000000; fill-opacity:0.0; 
stroke:#000000; stroke-width:59.0551; stroke-opacity:1; 
stroke-linecap:round; stroke-linejoin:round;">
<path d="M5344 31854
L5103 31715
" />
<path d="M4553.25 30998.4 A1181.1 1181.1 0.0 0 0 5103.56 31715.6" />
<path d="M69 14265
L4553 30998
" />
<path d="M10829 25519
L11778 29062
" />
<path d="M11660.7 29958.6 A1181.1 1181.1 0.0 0 0 11778.7 29062.4" />
<path d="M11660 29958
L11521 30199
" />
<path d="M10804.3 30750 A1181.1 1181.1 0.0 0 0 11521.5 30199.7" />
<path d="M10804 30750
L6240 31972
" />
<path d="M5344.65 31854.8 A1181.1 1181.1 0.0 0 0 6240.89 31972.8" />
<path d="M187.766 13369.6 A1181.1 1181.1 0.0 0 0 69.7729 14265.9" />
<path d="M187 13369
L326 13128
" />
<path d="M1044.13 12578.2 A1181.1 1181.1 0.0 0 0 326.962 13128.5" />
<path d="M1044 12578
L9033 10437
" />
<path d="M8854 4657
L9323 10022
" />
<path d="M9125.99 3795.34 A1181.1 1181.1 0.0 0 0 8854.16 4657.47" />
<path d="M9126 3795
L9304 3582
" />
<path d="M10106.8 3164.67 A1181.1 1181.1 0.0 0 0 9304.93 3582.08" />
<path d="M10106 3164
L17346 2531
" />
<path d="M17705 2139
L17705 1407
" />
<path d="M18051.4 572.314 A1181.1 1181.1 0.0 0 0 17705.4 1407.48" />
<path d="M18051 572
L18247 375
" />
<path d="M19083.4 29.528 A1181.1 1181.1 0.0 0 0 18248.2 375.465" />
<path d="M19083 29
L23807 29
" />
<path d="M24642.9 375.465 A1181.1 1181.1 0.0 0 0 23807.8 29.528" />
<path d="M24643 375
L24839 572
" />
<path d="M25185.7 1407.48 A1181.1 1181.1 0.0 0 0 24839.8 572.315" />
<path d="M25185 1407
L25185 1524
" />
<path d="M25545 1916
L32848 2555
" />
<path d="M33650.1 2972.93 A1181.1 1181.1 0.0 0 0 32848.3 2555.52" />
<path d="M33650 2973
L33828 3185
" />
<path d="M34036.8 3548.71 A1181.1 1181.1 0.0 0 0 33829.1 3186.19" />
<path d="M46541 32823
L47767 18812
" />
<path d="M40992 11106
L50797 11964
" />
<path d="M50640 18273
L51155 12390
" />
<path d="M50214 18631
L48194 18454
" />
<path d="M34373 3808
L39810 4284
" />
<path d="M40612.6 4701.81 A1181.1 1181.1 0.0 0 0 39810.7 4284.4" />
<path d="M40612 4702
L40791 4914
" />
<path d="M41063.3 5777.2 A1181.1 1181.1 0.0 0 0 40791.5 4915.07" />
<path d="M40634 10679
L41063 5777
" />
<path d="M11344 25047
L37360 34516
" />
<path d="M46388.1 33584.4 A1181.1 1181.1 0.0 0 0 46541.9 32891.7" />
<path d="M46388 33584
L44419 36993
" />
<path d="M43702.4 37544.2 A1181.1 1181.1 0.0 0 0 44419.6 36993.9" />
<path d="M43702 37544
L43433 37616
" />
<path d="M42537.3 37498.3 A1181.1 1181.1 0.0 0 0 43433.5 37616.3" />
<path d="M37422 34545
L42537 37498
" />
<path d="M69.7733 14265.9 A393.702 393.702 0.0 0 0 69.7733 14265.9" />
<path d="M9033.27 10437.6 A393.7 393.7 0.0 0 0 9323.57 10023" />
<path d="M17346 2531.32 A393.7 393.7 0.0 0 0 17705.4 2139.11" />
<path d="M25185.7 1524.37 A393.701 393.701 0.0 0 0 25545.1 1916.57" />
<path d="M34036.8 3548.71 A393.7 393.7 0.0 0 0 34373.3 3808.69" />
<path d="M40634.4 10679.7 A393.7 393.7 0.0 0 0 40992.3 11106.3" />
<path d="M51155.3 12390.6 A393.7 393.7 0.0 0 0 50797.4 11964.1" />
<path d="M50214.1 18631.5 A393.701 393.701 0.0 0 0 50640.6 18273.6" />
<path d="M48194.2 18454.8 A393.701 393.701 0.0 0 0 47767.7 18812.7" />
<path d="M46541.9 32823.3 A393.7 393.7 0.0 0 0 46541.9 32891.7" />
<path d="M37422.9 34545.5 A393.701 393.701 0.0 0 0 37360.7 34516.5" />
<path d="M11344.2 25047.3 A393.701 393.701 0.0 0 0 10829.3 25519.1" />
<path d="M6240.89 31972.8 A393.701 393.701 0.0 0 0 6240.89 31972.8" />
<g >
</g>
<g >
</g>
</g> 
</svg>
