<?xml version="1.0" standalone="no"?>
 <!DOCTYPE svg PUBLIC "-//W3C//DTD SVG 1.1//EN" 
 "http://www.w3.org/Graphics/SVG/1.1/DTD/svg11.dtd"> 
<svg
  xmlns:svg="http://www.w3.org/2000/svg"
  xmlns="http://www.w3.org/2000/svg"
  xmlns:xlink="http://www.w3.org/1999/xlink"
  version="1.1"
  width="12.999720cm" height="9.570720cm" viewBox="0 0 51180 37680">
<title>SVG Picture created as architeuthis_dux-brd.svg date 2021/09/03 13:30:54 </title>
  <desc>Picture generated by PCBNEW </desc>
<g style="fill:#000000; fill-opacity:1;stroke:#000000; stroke-opacity:1;
stroke-linecap:round; stroke-linejoin:round;"
 transform="translate(0 0) scale(1 1)">
</g>
<g style="fill:#000000; fill-opacity:0.0; 
stroke:#000000; stroke-width:-0.000393701; stroke-opacity:1; 
stroke-linecap:round; stroke-linejoin:round;">
</g>
<g style="fill:#000000; fill-opacity:0.0; 
stroke:#000000; stroke-width:59.0551; stroke-opacity:1; 
stroke-linecap:round; stroke-linejoin:round;">
<path d="M4383 26560
L4281 26180
" />
<path d="M5707 31504
L6088 31402
" />
<path d="M4661 26078
L4281 26180
" />
<path d="M5707 31504
L5605 31124
" />
<path d="M10929 29697
L11031 30077
" />
<path d="M9605 24753
L9224 24855
" />
<path d="M10651 30179
L11031 30077
" />
<path d="M9605 24753
L9707 25134
" />
<path d="M3367 25813
L10212 23979
" />
<path d="M10212 23979
L11945 30444
" />
<path d="M11945 30444
L5100 32278
" />
<path d="M5100 32278
L3367 25813
" />
<path d="M10929 29697
L11031 30077
" />
<path d="M9605 24753
L9224 24855
" />
<path d="M10651 30179
L11031 30077
" />
<path d="M9605 24753
L9707 25134
" />
<path d="M4383 26560
L4281 26180
" />
<path d="M5707 31504
L6088 31402
" />
<path d="M4661 26078
L4281 26180
" />
<path d="M5707 31504
L5605 31124
" />
<path d="M11945 30444
L5100 32278
" />
<path d="M5100 32278
L3367 25813
" />
<path d="M3367 25813
L10212 23979
" />
<path d="M10212 23979
L11945 30444
" />
<path d="M2650 20095
L2548 19715
" />
<path d="M3975 25039
L4355 24937
" />
<path d="M2929 19613
L2548 19715
" />
<path d="M3975 25039
L3873 24659
" />
<path d="M9197 23232
L9299 23612
" />
<path d="M7872 18288
L7492 18390
" />
<path d="M8919 23714
L9299 23612
" />
<path d="M7872 18288
L7974 18669
" />
<path d="M1635 19348
L8480 17514
" />
<path d="M8480 17514
L10212 23979
" />
<path d="M10212 23979
L3367 25813
" />
<path d="M3367 25813
L1635 19348
" />
<path d="M9197 23232
L9299 23612
" />
<path d="M7872 18288
L7492 18390
" />
<path d="M8919 23714
L9299 23612
" />
<path d="M7872 18288
L7974 18669
" />
<path d="M2650 20095
L2548 19715
" />
<path d="M3975 25039
L4355 24937
" />
<path d="M2929 19613
L2548 19715
" />
<path d="M3975 25039
L3873 24659
" />
<path d="M10212 23979
L3367 25813
" />
<path d="M3367 25813
L1635 19348
" />
<path d="M1635 19348
L8480 17514
" />
<path d="M8480 17514
L10212 23979
" />
<path d="M918 13630
L816 13250
" />
<path d="M2243 18574
L2623 18472
" />
<path d="M1196 13148
L816 13250
" />
<path d="M2243 18574
L2141 18194
" />
<path d="M7465 16767
L7567 17148
" />
<path d="M6140 11824
L5760 11925
" />
<path d="M7186 17249
L7567 17148
" />
<path d="M6140 11824
L6242 12204
" />
<path d="M-96 12883
L6748 11049
" />
<path d="M6748 11049
L8480 17514
" />
<path d="M8480 17514
L1635 19348
" />
<path d="M1635 19348
L-96 12883
" />
<path d="M7465 16767
L7567 17148
" />
<path d="M6140 11824
L5760 11925
" />
<path d="M7186 17249
L7567 17148
" />
<path d="M6140 11824
L6242 12204
" />
<path d="M918 13630
L816 13250
" />
<path d="M2243 18574
L2623 18472
" />
<path d="M1196 13148
L816 13250
" />
<path d="M2243 18574
L2141 18194
" />
<path d="M8480 17514
L1635 19348
" />
<path d="M1635 19348
L-96 12883
" />
<path d="M-96 12883
L6748 11049
" />
<path d="M6748 11049
L8480 17514
" />
<path d="M10967 17514
L10932 17122
" />
<path d="M11413 22613
L11805 22578
" />
<path d="M11324 17087
L10932 17122
" />
<path d="M11413 22613
L11378 22220
" />
<path d="M16869 21740
L16903 22132
" />
<path d="M16423 16641
L16031 16676
" />
<path d="M16511 22166
L16903 22132
" />
<path d="M16423 16641
L16457 17033
" />
<path d="M10096 16602
L17156 15984
" />
<path d="M17156 15984
L17739 22652
" />
<path d="M17739 22652
L10680 23269
" />
<path d="M10680 23269
L10096 16602
" />
<path d="M16869 21740
L16903 22132
" />
<path d="M16423 16641
L16031 16676
" />
<path d="M16511 22166
L16903 22132
" />
<path d="M16423 16641
L16457 17033
" />
<path d="M10967 17514
L10932 17122
" />
<path d="M11413 22613
L11805 22578
" />
<path d="M11324 17087
L10932 17122
" />
<path d="M11413 22613
L11378 22220
" />
<path d="M17739 22652
L10680 23269
" />
<path d="M10680 23269
L10096 16602
" />
<path d="M10096 16602
L17156 15984
" />
<path d="M17156 15984
L17739 22652
" />
<path d="M10383 10846
L10349 10454
" />
<path d="M10829 15945
L11221 15911
" />
<path d="M10741 10420
L10349 10454
" />
<path d="M10829 15945
L10795 15553
" />
<path d="M16286 15072
L16320 15465
" />
<path d="M15840 9974
L15447 10008
" />
<path d="M15928 15499
L16320 15465
" />
<path d="M15840 9974
L15874 10366
" />
<path d="M9513 9935
L16573 9317
" />
<path d="M16573 9317
L17156 15984
" />
<path d="M17156 15984
L10096 16602
" />
<path d="M10096 16602
L9513 9935
" />
<path d="M16286 15072
L16320 15465
" />
<path d="M15840 9974
L15447 10008
" />
<path d="M15928 15499
L16320 15465
" />
<path d="M15840 9974
L15874 10366
" />
<path d="M10383 10846
L10349 10454
" />
<path d="M10829 15945
L11221 15911
" />
<path d="M10741 10420
L10349 10454
" />
<path d="M10829 15945
L10795 15553
" />
<path d="M17156 15984
L10096 16602
" />
<path d="M10096 16602
L9513 9935
" />
<path d="M9513 9935
L16573 9317
" />
<path d="M16573 9317
L17156 15984
" />
<path d="M9800 4179
L9766 3787
" />
<path d="M10246 9278
L10638 9243
" />
<path d="M10158 3752
L9766 3787
" />
<path d="M10246 9278
L10212 8885
" />
<path d="M15702 8405
L15737 8797
" />
<path d="M15256 3306
L14864 3341
" />
<path d="M15345 8832
L15737 8797
" />
<path d="M15256 3306
L15291 3699
" />
<path d="M8930 3267
L15989 2649
" />
<path d="M15989 2649
L16573 9317
" />
<path d="M16573 9317
L9513 9935
" />
<path d="M9513 9935
L8930 3267
" />
<path d="M15702 8405
L15737 8797
" />
<path d="M15256 3306
L14864 3341
" />
<path d="M15345 8832
L15737 8797
" />
<path d="M15256 3306
L15291 3699
" />
<path d="M9800 4179
L9766 3787
" />
<path d="M10246 9278
L10638 9243
" />
<path d="M10158 3752
L9766 3787
" />
<path d="M10246 9278
L10212 8885
" />
<path d="M16573 9317
L9513 9935
" />
<path d="M9513 9935
L8930 3267
" />
<path d="M8930 3267
L15989 2649
" />
<path d="M15989 2649
L16573 9317
" />
<path d="M18689 14399
L18689 14005
" />
<path d="M18689 19517
L19083 19517
" />
<path d="M19083 14005
L18689 14005
" />
<path d="M18689 19517
L18689 19124
" />
<path d="M24201 19124
L24201 19517
" />
<path d="M24201 14005
L23807 14005
" />
<path d="M23807 19517
L24201 19517
" />
<path d="M24201 14005
L24201 14399
" />
<path d="M17902 13415
L24988 13415
" />
<path d="M24988 13415
L24988 20108
" />
<path d="M24988 20108
L17902 20108
" />
<path d="M17902 20108
L17902 13415
" />
<path d="M24201 19124
L24201 19517
" />
<path d="M24201 14005
L23807 14005
" />
<path d="M23807 19517
L24201 19517
" />
<path d="M24201 14005
L24201 14399
" />
<path d="M18689 14399
L18689 14005
" />
<path d="M18689 19517
L19083 19517
" />
<path d="M19083 14005
L18689 14005
" />
<path d="M18689 19517
L18689 19124
" />
<path d="M24988 20108
L17902 20108
" />
<path d="M17902 20108
L17902 13415
" />
<path d="M17902 13415
L24988 13415
" />
<path d="M24988 13415
L24988 20108
" />
<path d="M18689 7706
L18689 7312
" />
<path d="M18689 12824
L19083 12824
" />
<path d="M19083 7312
L18689 7312
" />
<path d="M18689 12824
L18689 12431
" />
<path d="M24201 12431
L24201 12824
" />
<path d="M24201 7312
L23807 7312
" />
<path d="M23807 12824
L24201 12824
" />
<path d="M24201 7312
L24201 7706
" />
<path d="M17902 6722
L24988 6722
" />
<path d="M24988 6722
L24988 13415
" />
<path d="M24988 13415
L17902 13415
" />
<path d="M17902 13415
L17902 6722
" />
<path d="M24201 12431
L24201 12824
" />
<path d="M24201 7312
L23807 7312
" />
<path d="M23807 12824
L24201 12824
" />
<path d="M24201 7312
L24201 7706
" />
<path d="M18689 7706
L18689 7312
" />
<path d="M18689 12824
L19083 12824
" />
<path d="M19083 7312
L18689 7312
" />
<path d="M18689 12824
L18689 12431
" />
<path d="M24988 13415
L17902 13415
" />
<path d="M17902 13415
L17902 6722
" />
<path d="M17902 6722
L24988 6722
" />
<path d="M24988 6722
L24988 13415
" />
<path d="M18689 1013
L18689 620
" />
<path d="M18689 6131
L19083 6131
" />
<path d="M19083 620
L18689 620
" />
<path d="M18689 6131
L18689 5738
" />
<path d="M24201 5738
L24201 6131
" />
<path d="M24201 620
L23807 620
" />
<path d="M23807 6131
L24201 6131
" />
<path d="M24201 620
L24201 1013
" />
<path d="M17902 29
L24988 29
" />
<path d="M24988 29
L24988 6722
" />
<path d="M24988 6722
L17902 6722
" />
<path d="M17902 6722
L17902 29
" />
<path d="M24201 5738
L24201 6131
" />
<path d="M24201 620
L23807 620
" />
<path d="M23807 6131
L24201 6131
" />
<path d="M24201 620
L24201 1013
" />
<path d="M18689 1013
L18689 620
" />
<path d="M18689 6131
L19083 6131
" />
<path d="M19083 620
L18689 620
" />
<path d="M18689 6131
L18689 5738
" />
<path d="M24988 6722
L17902 6722
" />
<path d="M17902 6722
L17902 29
" />
<path d="M17902 29
L24988 29
" />
<path d="M24988 29
L24988 6722
" />
<path d="M26497 16424
L26531 16032
" />
<path d="M26051 21523
L26443 21557
" />
<path d="M26923 16066
L26531 16032
" />
<path d="M26051 21523
L26085 21131
" />
<path d="M31576 21611
L31541 22003
" />
<path d="M32022 16513
L31630 16478
" />
<path d="M31149 21969
L31541 22003
" />
<path d="M32022 16513
L31988 16905
" />
<path d="M25798 15375
L32858 15993
" />
<path d="M32858 15993
L32274 22660
" />
<path d="M32274 22660
L25215 22043
" />
<path d="M25215 22043
L25798 15375
" />
<path d="M31576 21611
L31541 22003
" />
<path d="M32022 16513
L31630 16478
" />
<path d="M31149 21969
L31541 22003
" />
<path d="M32022 16513
L31988 16905
" />
<path d="M26497 16424
L26531 16032
" />
<path d="M26051 21523
L26443 21557
" />
<path d="M26923 16066
L26531 16032
" />
<path d="M26051 21523
L26085 21131
" />
<path d="M32274 22660
L25215 22043
" />
<path d="M25215 22043
L25798 15375
" />
<path d="M25798 15375
L32858 15993
" />
<path d="M32858 15993
L32274 22660
" />
<path d="M27080 9757
L27114 9365
" />
<path d="M26634 14856
L27026 14890
" />
<path d="M27507 9399
L27114 9365
" />
<path d="M26634 14856
L26668 14463
" />
<path d="M32159 14944
L32125 15336
" />
<path d="M32605 9845
L32213 9811
" />
<path d="M31733 15302
L32125 15336
" />
<path d="M32605 9845
L32571 10237
" />
<path d="M26381 8708
L33441 9325
" />
<path d="M33441 9325
L32858 15993
" />
<path d="M32858 15993
L25798 15375
" />
<path d="M25798 15375
L26381 8708
" />
<path d="M32159 14944
L32125 15336
" />
<path d="M32605 9845
L32213 9811
" />
<path d="M31733 15302
L32125 15336
" />
<path d="M32605 9845
L32571 10237
" />
<path d="M27080 9757
L27114 9365
" />
<path d="M26634 14856
L27026 14890
" />
<path d="M27507 9399
L27114 9365
" />
<path d="M26634 14856
L26668 14463
" />
<path d="M32858 15993
L25798 15375
" />
<path d="M25798 15375
L26381 8708
" />
<path d="M26381 8708
L33441 9325
" />
<path d="M33441 9325
L32858 15993
" />
<path d="M27663 3089
L27698 2697
" />
<path d="M27217 8188
L27610 8222
" />
<path d="M28090 2732
L27698 2697
" />
<path d="M27217 8188
L27252 7796
" />
<path d="M32742 8276
L32708 8668
" />
<path d="M33189 3178
L32796 3143
" />
<path d="M32316 8634
L32708 8668
" />
<path d="M33189 3178
L33154 3570
" />
<path d="M26965 2040
L34024 2658
" />
<path d="M34024 2658
L33441 9325
" />
<path d="M33441 9325
L26381 8708
" />
<path d="M26381 8708
L26965 2040
" />
<path d="M32742 8276
L32708 8668
" />
<path d="M33189 3178
L32796 3143
" />
<path d="M32316 8634
L32708 8668
" />
<path d="M33189 3178
L33154 3570
" />
<path d="M27663 3089
L27698 2697
" />
<path d="M27217 8188
L27610 8222
" />
<path d="M28090 2732
L27698 2697
" />
<path d="M27217 8188
L27252 7796
" />
<path d="M33441 9325
L26381 8708
" />
<path d="M26381 8708
L26965 2040
" />
<path d="M26965 2040
L34024 2658
" />
<path d="M34024 2658
L33441 9325
" />
<path d="M33459 18153
L33493 17761
" />
<path d="M33013 23252
L33405 23286
" />
<path d="M33886 17795
L33493 17761
" />
<path d="M33013 23252
L33047 22860
" />
<path d="M38538 23340
L38504 23732
" />
<path d="M38984 18241
L38592 18207
" />
<path d="M38112 23698
L38504 23732
" />
<path d="M38984 18241
L38950 18634
" />
<path d="M32761 17104
L39820 17722
" />
<path d="M39820 17722
L39237 24389
" />
<path d="M39237 24389
L32177 23772
" />
<path d="M32177 23772
L32761 17104
" />
<path d="M38538 23340
L38504 23732
" />
<path d="M38984 18241
L38592 18207
" />
<path d="M38112 23698
L38504 23732
" />
<path d="M38984 18241
L38950 18634
" />
<path d="M33459 18153
L33493 17761
" />
<path d="M33013 23252
L33405 23286
" />
<path d="M33886 17795
L33493 17761
" />
<path d="M33013 23252
L33047 22860
" />
<path d="M39237 24389
L32177 23772
" />
<path d="M32177 23772
L32761 17104
" />
<path d="M32761 17104
L39820 17722
" />
<path d="M39820 17722
L39237 24389
" />
<path d="M34042 11486
L34077 11094
" />
<path d="M33596 16584
L33989 16619
" />
<path d="M34469 11128
L34077 11094
" />
<path d="M33596 16584
L33631 16192
" />
<path d="M39122 16673
L39087 17065
" />
<path d="M39568 11574
L39175 11540
" />
<path d="M38695 17030
L39087 17065
" />
<path d="M39568 11574
L39533 11966
" />
<path d="M33344 10437
L40404 11054
" />
<path d="M40404 11054
L39820 17722
" />
<path d="M39820 17722
L32761 17104
" />
<path d="M32761 17104
L33344 10437
" />
<path d="M39122 16673
L39087 17065
" />
<path d="M39568 11574
L39175 11540
" />
<path d="M38695 17030
L39087 17065
" />
<path d="M39568 11574
L39533 11966
" />
<path d="M34042 11486
L34077 11094
" />
<path d="M33596 16584
L33989 16619
" />
<path d="M34469 11128
L34077 11094
" />
<path d="M33596 16584
L33631 16192
" />
<path d="M39820 17722
L32761 17104
" />
<path d="M32761 17104
L33344 10437
" />
<path d="M33344 10437
L40404 11054
" />
<path d="M40404 11054
L39820 17722
" />
<path d="M34626 4818
L34660 4426
" />
<path d="M34180 9917
L34572 9951
" />
<path d="M35052 4460
L34660 4426
" />
<path d="M34180 9917
L34214 9525
" />
<path d="M39705 10005
L39671 10397
" />
<path d="M40151 4907
L39759 4872
" />
<path d="M39278 10363
L39671 10397
" />
<path d="M40151 4907
L40117 5299
" />
<path d="M33927 3769
L40987 4387
" />
<path d="M40987 4387
L40404 11054
" />
<path d="M40404 11054
L33344 10437
" />
<path d="M33344 10437
L33927 3769
" />
<path d="M39705 10005
L39671 10397
" />
<path d="M40151 4907
L39759 4872
" />
<path d="M39278 10363
L39671 10397
" />
<path d="M40151 4907
L40117 5299
" />
<path d="M34626 4818
L34660 4426
" />
<path d="M34180 9917
L34572 9951
" />
<path d="M35052 4460
L34660 4426
" />
<path d="M34180 9917
L34214 9525
" />
<path d="M40404 11054
L33344 10437
" />
<path d="M33344 10437
L33927 3769
" />
<path d="M33927 3769
L40987 4387
" />
<path d="M40987 4387
L40404 11054
" />
<path d="M33393 26997
L33528 26627
" />
<path d="M31643 31807
L32013 31941
" />
<path d="M33898 26762
L33528 26627
" />
<path d="M31643 31807
L31778 31437
" />
<path d="M36957 33322
L36822 33692
" />
<path d="M38707 28512
L38337 28378
" />
<path d="M36452 33557
L36822 33692
" />
<path d="M38707 28512
L38573 28882
" />
<path d="M32990 25803
L39649 28227
" />
<path d="M39649 28227
L37360 34516
" />
<path d="M37360 34516
L30701 32092
" />
<path d="M30701 32092
L32990 25803
" />
<path d="M36957 33322
L36822 33692
" />
<path d="M38707 28512
L38337 28378
" />
<path d="M36452 33557
L36822 33692
" />
<path d="M38707 28512
L38573 28882
" />
<path d="M33393 26997
L33528 26627
" />
<path d="M31643 31807
L32013 31941
" />
<path d="M33898 26762
L33528 26627
" />
<path d="M31643 31807
L31778 31437
" />
<path d="M37360 34516
L30701 32092
" />
<path d="M30701 32092
L32990 25803
" />
<path d="M32990 25803
L39649 28227
" />
<path d="M39649 28227
L37360 34516
" />
<path d="M40959 29995
L41155 29654
" />
<path d="M38400 34427
L38741 34624
" />
<path d="M41496 29851
L41155 29654
" />
<path d="M38400 34427
L38596 34086
" />
<path d="M43370 36842
L43173 37183
" />
<path d="M45929 32410
L45588 32213
" />
<path d="M42832 36986
L43173 37183
" />
<path d="M45929 32410
L45732 32751
" />
<path d="M40769 28749
L46906 32292
" />
<path d="M46906 32292
L43560 38088
" />
<path d="M43560 38088
L37422 34545
" />
<path d="M37422 34545
L40769 28749
" />
<path d="M43370 36842
L43173 37183
" />
<path d="M45929 32410
L45588 32213
" />
<path d="M42832 36986
L43173 37183
" />
<path d="M45929 32410
L45732 32751
" />
<path d="M40959 29995
L41155 29654
" />
<path d="M38400 34427
L38741 34624
" />
<path d="M41496 29851
L41155 29654
" />
<path d="M38400 34427
L38596 34086
" />
<path d="M43560 38088
L37422 34545
" />
<path d="M37422 34545
L40769 28749
" />
<path d="M40769 28749
L46906 32292
" />
<path d="M46906 32292
L43560 38088
" />
<path d="M45899 10625
L45725 12617
" />
<path d="M42910 10363
L45899 10625
" />
<path d="M42736 12355
L42910 10363
" />
<path d="M45725 12617
L42736 12355
" />
<path d="M50699 11955
L48502 11763
" />
<path d="M48434 12547
L48502 11763
" />
<path d="M50630 12739
L50699 11955
" />
<path d="M48336 12539
L47921 17284
" />
<path d="M50728 12748
L50313 17494
" />
<path d="M50313 17494
L47921 17284
" />
<path d="M50728 12748
L48336 12539
" />
<g >
</g>
<g >
</g>
<g >
</g>
<g >
</g>
<g >
</g>
<g >
</g>
<g >
</g>
<g >
</g>
<g >
</g>
<g >
</g>
<g >
</g>
<g >
</g>
<g >
</g>
<g >
</g>
<g >
</g>
<g >
</g>
<g >
</g>
<g >
</g>
<g >
</g>
<g >
</g>
<g >
</g>
<g >
</g>
<g >
</g>
<g >
</g>
<g >
</g>
<g >
</g>
<g >
</g>
<g >
</g>
<g >
</g>
<g >
</g>
<g >
</g>
<g >
</g>
<g >
</g>
<g >
</g>
<g >
</g>
<g >
</g>
<g >
</g>
<g >
</g>
<g >
</g>
</g>
<g style="fill:#000000; fill-opacity:0.0; 
stroke:#000000; stroke-width:59.0551; stroke-opacity:1; 
stroke-linecap:round; stroke-linejoin:round;">
<path d="M5344 31854
L5103 31715
" />
<path d="M4553.25 30998.4 A1181.1 1181.1 0.0 0 0 5103.56 31715.6" />
<path d="M69 14265
L4553 30998
" />
<path d="M10829 25519
L11778 29062
" />
<path d="M11660.7 29958.6 A1181.1 1181.1 0.0 0 0 11778.7 29062.4" />
<path d="M11660 29958
L11521 30199
" />
<path d="M10804.3 30750 A1181.1 1181.1 0.0 0 0 11521.5 30199.7" />
<path d="M10804 30750
L6240 31972
" />
<path d="M5344.65 31854.8 A1181.1 1181.1 0.0 0 0 6240.89 31972.8" />
<path d="M187.766 13369.6 A1181.1 1181.1 0.0 0 0 69.7729 14265.9" />
<path d="M187 13369
L326 13128
" />
<path d="M1044.13 12578.2 A1181.1 1181.1 0.0 0 0 326.962 13128.5" />
<path d="M1044 12578
L9033 10437
" />
<path d="M8854 4657
L9323 10022
" />
<path d="M9125.99 3795.34 A1181.1 1181.1 0.0 0 0 8854.16 4657.47" />
<path d="M9126 3795
L9304 3582
" />
<path d="M10106.8 3164.67 A1181.1 1181.1 0.0 0 0 9304.93 3582.08" />
<path d="M10106 3164
L17346 2531
" />
<path d="M17705 2139
L17705 1407
" />
<path d="M18051.4 572.314 A1181.1 1181.1 0.0 0 0 17705.4 1407.48" />
<path d="M18051 572
L18247 375
" />
<path d="M19083.4 29.528 A1181.1 1181.1 0.0 0 0 18248.2 375.465" />
<path d="M19083 29
L23807 29
" />
<path d="M24642.9 375.465 A1181.1 1181.1 0.0 0 0 23807.8 29.528" />
<path d="M24643 375
L24839 572
" />
<path d="M25185.7 1407.48 A1181.1 1181.1 0.0 0 0 24839.8 572.315" />
<path d="M25185 1407
L25185 1524
" />
<path d="M25545 1916
L32848 2555
" />
<path d="M33650.1 2972.93 A1181.1 1181.1 0.0 0 0 32848.3 2555.52" />
<path d="M33650 2973
L33828 3185
" />
<path d="M34036.8 3548.71 A1181.1 1181.1 0.0 0 0 33829.1 3186.19" />
<path d="M46541 32823
L47767 18812
" />
<path d="M40992 11106
L50797 11964
" />
<path d="M50640 18273
L51155 12390
" />
<path d="M50214 18631
L48194 18454
" />
<path d="M34373 3808
L39810 4284
" />
<path d="M40612.6 4701.81 A1181.1 1181.1 0.0 0 0 39810.7 4284.4" />
<path d="M40612 4702
L40791 4914
" />
<path d="M41063.3 5777.2 A1181.1 1181.1 0.0 0 0 40791.5 4915.07" />
<path d="M40634 10679
L41063 5777
" />
<path d="M11344 25047
L37360 34516
" />
<path d="M46388.1 33584.4 A1181.1 1181.1 0.0 0 0 46541.9 32891.7" />
<path d="M46388 33584
L44419 36993
" />
<path d="M43702.4 37544.2 A1181.1 1181.1 0.0 0 0 44419.6 36993.9" />
<path d="M43702 37544
L43433 37616
" />
<path d="M42537.3 37498.3 A1181.1 1181.1 0.0 0 0 43433.5 37616.3" />
<path d="M37422 34545
L42537 37498
" />
<path d="M69.7733 14265.9 A393.702 393.702 0.0 0 0 69.7733 14265.9" />
<path d="M9033.27 10437.6 A393.7 393.7 0.0 0 0 9323.57 10023" />
<path d="M17346 2531.32 A393.7 393.7 0.0 0 0 17705.4 2139.11" />
<path d="M25185.7 1524.37 A393.701 393.701 0.0 0 0 25545.1 1916.57" />
<path d="M34036.8 3548.71 A393.7 393.7 0.0 0 0 34373.3 3808.69" />
<path d="M40634.4 10679.7 A393.7 393.7 0.0 0 0 40992.3 11106.3" />
<path d="M51155.3 12390.6 A393.7 393.7 0.0 0 0 50797.4 11964.1" />
<path d="M50214.1 18631.5 A393.701 393.701 0.0 0 0 50640.6 18273.6" />
<path d="M48194.2 18454.8 A393.701 393.701 0.0 0 0 47767.7 18812.7" />
<path d="M46541.9 32823.3 A393.7 393.7 0.0 0 0 46541.9 32891.7" />
<path d="M37422.9 34545.5 A393.701 393.701 0.0 0 0 37360.7 34516.5" />
<path d="M11344.2 25047.3 A393.701 393.701 0.0 0 0 10829.3 25519.1" />
<path d="M6240.89 31972.8 A393.701 393.701 0.0 0 0 6240.89 31972.8" />
<g >
</g>
<g >
</g>
<g >
</g>
<g >
</g>
<g >
</g>
<g >
</g>
<g >
</g>
<g >
</g>
<g >
</g>
<g >
</g>
<g >
</g>
<g >
</g>
<g >
</g>
<g >
</g>
<g >
</g>
<g >
</g>
<g >
</g>
<g >
</g>
<g >
</g>
<g >
</g>
<g >
</g>
<g >
</g>
<g >
</g>
<g >
</g>
<g >
</g>
<g >
</g>
<g >
</g>
<g >
</g>
<g >
</g>
<g >
</g>
<g >
</g>
<g >
</g>
<g >
</g>
<g >
</g>
<g >
</g>
<g >
</g>
<g >
</g>
<g >
</g>
<g >
</g>
</g> 
</svg>
