M48
; DRILL file {KiCad (5.1.9)-1} date 06/29/21 13:32:06
; FORMAT={-:-/ absolute / inch / decimal}
; #@! TF.CreationDate,2021-06-29T13:32:06+02:00
; #@! TF.GenerationSoftware,Kicad,Pcbnew,(5.1.9)-1
FMAT,2
INCH
T1C0.0354
T2C0.0430
T3C0.0433
T4C0.0591
%
G90
G05
T2
X0.4087Y2.1839
X0.4087Y2.0839
X0.4087Y1.9839
X0.4087Y1.8839
X0.4087Y1.7839
X0.4087Y1.6839
X0.4087Y1.5839
X0.4087Y1.4839
X0.4087Y1.3839
X0.4087Y1.2839
X0.4087Y1.1839
X0.4087Y1.0839
X1.0087Y2.1839
X1.0087Y2.0839
X1.0087Y1.9839
X1.0087Y1.8839
X1.0087Y1.7839
X1.0087Y1.6839
X1.0087Y1.5839
X1.0087Y1.4839
X1.0087Y1.3839
X1.0087Y1.2839
X1.0087Y1.1839
X1.0087Y1.0839
T3
X0.5Y0.8563
X0.5Y0.187
X0.5283Y0.4685
X0.5283Y-0.2008
X0.6299Y0.4567
X0.6299Y-0.2126
X0.7874Y0.4567
X0.7874Y-0.2126
X0.889Y0.4685
X0.889Y-0.2008
X0.9173Y0.8563
X0.9173Y0.187
X1.2087Y2.1949
X1.2087Y1.5256
X1.2087Y0.8563
X1.237Y1.8071
X1.237Y1.1378
X1.237Y0.4685
X1.3386Y1.7953
X1.3386Y1.126
X1.3386Y0.4567
X1.4961Y1.7953
X1.4961Y1.126
X1.4961Y0.4567
X1.5976Y1.8071
X1.5976Y1.1378
X1.5976Y0.4685
X1.626Y2.1949
X1.626Y1.5256
X1.626Y0.8563
X1.9173Y2.418
X1.9173Y1.7487
X1.9173Y1.0794
X1.9457Y2.0302
X1.9457Y1.3609
X1.9457Y0.6916
X2.0472Y2.0184
X2.0472Y1.3491
X2.0472Y0.6798
X2.2047Y2.0184
X2.2047Y1.3491
X2.2047Y0.6798
X2.3063Y2.0302
X2.3063Y1.3609
X2.3063Y0.6916
X2.3346Y2.418
X2.3346Y1.7487
X2.3346Y1.0794
X2.626Y2.1949
X2.626Y1.5256
X2.626Y0.8563
X2.6543Y1.8071
X2.6543Y1.1378
X2.6543Y0.4685
X2.7559Y1.7953
X2.7559Y1.126
X2.7559Y0.4567
X2.8147Y-0.2959
X2.8202Y0.0929
X2.9134Y1.7953
X2.9134Y1.126
X2.9134Y0.4567
X2.9148Y-0.3165
X3.015Y1.8071
X3.015Y1.1378
X3.015Y0.4685
X3.0433Y2.1949
X3.0433Y1.5256
X3.0433Y0.8563
X3.0717Y-0.3302
X3.1739Y-0.3273
X3.236Y0.0566
X3.3346Y1.414
X3.3346Y0.7448
X3.363Y1.0262
X3.363Y0.357
X3.4646Y1.0144
X3.4646Y0.3451
X3.5451Y-0.3927
X3.6181Y-0.0108
X3.622Y1.0144
X3.622Y0.3451
X3.6402Y-0.4304
X3.7236Y1.0262
X3.7236Y0.357
X3.752Y1.414
X3.752Y0.7448
X3.7923Y-0.4712
X3.8935Y-0.4861
X4.0212Y-0.1188
T4
X4.0374Y0.8491
X4.0374Y0.5735
T1
G00X3.9469Y0.7979
M15
G01X3.9469Y0.7743
M16
G05
G00X3.9469Y0.6798
M15
G01X3.9469Y0.6562
M16
G05
G00X3.9469Y0.5223
M15
G01X3.9469Y0.4987
M16
G05
G00X3.9469Y0.479
M15
G01X3.9469Y0.4554
M16
G05
G00X4.128Y0.7979
M15
G01X4.128Y0.7743
M16
G05
G00X4.128Y0.6798
M15
G01X4.128Y0.6562
M16
G05
G00X4.128Y0.5223
M15
G01X4.128Y0.4987
M16
G05
G00X4.128Y0.479
M15
G01X4.128Y0.4554
M16
G05
T0
M30
