%TF.GenerationSoftware,KiCad,Pcbnew,(5.1.9)-1*%
%TF.CreationDate,2021-06-29T13:32:03+02:00*%
%TF.ProjectId,todarodes_sagittatus,746f6461-726f-4646-9573-5f7361676974,VERSION_HERE*%
%TF.SameCoordinates,Original*%
%TF.FileFunction,Profile,NP*%
%FSLAX46Y46*%
G04 Gerber Fmt 4.6, Leading zero omitted, Abs format (unit mm)*
G04 Created by KiCad (PCBNEW (5.1.9)-1) date 2021-06-29 13:32:03*
%MOMM*%
%LPD*%
G01*
G04 APERTURE LIST*
%TA.AperFunction,Profile*%
%ADD10C,0.150000*%
%TD*%
%TA.AperFunction,Profile*%
%ADD11C,0.120000*%
%TD*%
G04 APERTURE END LIST*
D10*
X10000000Y-8500000D02*
X26000000Y-8500000D01*
X27000000Y-7500000D02*
G75*
G02*
X26000000Y-8500000I-1000000J0D01*
G01*
X27000000Y-7500000D02*
X27000000Y7500000D01*
X9000000Y-7500000D02*
X9000000Y58500000D01*
X10000000Y-8500000D02*
G75*
G02*
X9000000Y-7500000I0J1000000D01*
G01*
X28000000Y8500000D02*
X44000000Y8500000D01*
X45000000Y9500000D02*
G75*
G02*
X44000000Y8500000I-1000000J0D01*
G01*
X45000000Y9500000D02*
X45000000Y13166667D01*
X10000000Y59500000D02*
X44000000Y59500000D01*
X46000000Y14166667D02*
X62000000Y14166667D01*
X63000000Y60500000D02*
X63000000Y64166667D01*
X62000000Y65166667D02*
G75*
G02*
X63000000Y64166667I0J-1000000D01*
G01*
X62000000Y65166667D02*
X46000000Y65166667D01*
X45000000Y64166667D02*
G75*
G02*
X46000000Y65166667I1000000J0D01*
G01*
X45000000Y64166667D02*
X45000000Y60500000D01*
X64000000Y8500000D02*
X67365851Y8500000D01*
X63000000Y13166667D02*
X63000000Y9500000D01*
X64000000Y8500000D02*
G75*
G02*
X63000000Y9500000I0J1000000D01*
G01*
X81000000Y40666667D02*
X81000000Y58500000D01*
X80000000Y59500000D02*
G75*
G02*
X81000000Y58500000I0J-1000000D01*
G01*
X64000000Y59500000D02*
X80000000Y59500000D01*
X100000000Y22666667D02*
X105000000Y22666667D01*
X106000000Y213428D02*
X106000000Y21666667D01*
X99000000Y23666667D02*
X99000000Y38666667D01*
X98000000Y39666667D02*
G75*
G02*
X99000000Y38666667I0J-1000000D01*
G01*
X82000000Y39666667D02*
X98000000Y39666667D01*
X67789619Y-10603742D02*
X84724928Y-12085390D01*
X66880580Y-9520392D02*
X68362046Y7412844D01*
X67789618Y-10603742D02*
G75*
G02*
X66880580Y-9520392I87156J996194D01*
G01*
X84896592Y-12115659D02*
X101317331Y-16515583D01*
X102542076Y-15808476D02*
G75*
G02*
X101317331Y-16515583I-965926J258819D01*
G01*
X102542076Y-15808476D02*
X106424361Y-1319588D01*
X106229218Y-423671D02*
G75*
G02*
X106424361Y-1319588I-770782J-637098D01*
G01*
X27000000Y7500000D02*
G75*
G02*
X28000000Y8500000I1000000J0D01*
G01*
X45000000Y13166667D02*
G75*
G02*
X46000000Y14166667I1000000J0D01*
G01*
X62000000Y14166667D02*
G75*
G02*
X63000000Y13166667I0J-1000000D01*
G01*
X67365851Y8500000D02*
G75*
G02*
X68362046Y7412844I0J-1000000D01*
G01*
X84724929Y-12085390D02*
G75*
G02*
X84896592Y-12115659I-87156J-996195D01*
G01*
X106229218Y-423671D02*
G75*
G02*
X106000000Y213428I770782J637099D01*
G01*
X105000000Y22666667D02*
G75*
G02*
X106000000Y21666667I0J-1000000D01*
G01*
X100000000Y22666667D02*
G75*
G02*
X99000000Y23666667I0J1000000D01*
G01*
X82000000Y39666667D02*
G75*
G02*
X81000000Y40666667I0J1000000D01*
G01*
X64000000Y59500000D02*
G75*
G02*
X63000000Y60500000I0J1000000D01*
G01*
X45000000Y60500000D02*
G75*
G02*
X44000000Y59500000I-1000000J0D01*
G01*
X9000000Y58500000D02*
G75*
G02*
X10000000Y59500000I1000000J0D01*
G01*
D11*
%TO.C,S1*%
X12200000Y2950000D02*
X23800000Y2950000D01*
X23800000Y2950000D02*
X23800000Y-2600000D01*
X12200000Y-2600000D02*
X12200000Y2950000D01*
X15750000Y-2600000D02*
X15750000Y-3600000D01*
X15750000Y-3600000D02*
X20250000Y-3600000D01*
X20250000Y-3600000D02*
X20250000Y-2600000D01*
X15750000Y-2600000D02*
X12200000Y-2600000D01*
X20250000Y-2600000D02*
X23800000Y-2600000D01*
%TO.C,S2*%
X12200000Y19950000D02*
X23800000Y19950000D01*
X23800000Y19950000D02*
X23800000Y14400000D01*
X12200000Y14400000D02*
X12200000Y19950000D01*
X15750000Y14400000D02*
X15750000Y13400000D01*
X15750000Y13400000D02*
X20250000Y13400000D01*
X20250000Y13400000D02*
X20250000Y14400000D01*
X15750000Y14400000D02*
X12200000Y14400000D01*
X20250000Y14400000D02*
X23800000Y14400000D01*
%TO.C,S3*%
X30200000Y19950000D02*
X41800000Y19950000D01*
X41800000Y19950000D02*
X41800000Y14400000D01*
X30200000Y14400000D02*
X30200000Y19950000D01*
X33750000Y14400000D02*
X33750000Y13400000D01*
X33750000Y13400000D02*
X38250000Y13400000D01*
X38250000Y13400000D02*
X38250000Y14400000D01*
X33750000Y14400000D02*
X30200000Y14400000D01*
X38250000Y14400000D02*
X41800000Y14400000D01*
%TO.C,S4*%
X30200000Y36950000D02*
X41800000Y36950000D01*
X41800000Y36950000D02*
X41800000Y31400000D01*
X30200000Y31400000D02*
X30200000Y36950000D01*
X33750000Y31400000D02*
X33750000Y30400000D01*
X33750000Y30400000D02*
X38250000Y30400000D01*
X38250000Y30400000D02*
X38250000Y31400000D01*
X33750000Y31400000D02*
X30200000Y31400000D01*
X38250000Y31400000D02*
X41800000Y31400000D01*
%TO.C,S5*%
X30200000Y53950000D02*
X41800000Y53950000D01*
X41800000Y53950000D02*
X41800000Y48400000D01*
X30200000Y48400000D02*
X30200000Y53950000D01*
X33750000Y48400000D02*
X33750000Y47400000D01*
X33750000Y47400000D02*
X38250000Y47400000D01*
X38250000Y47400000D02*
X38250000Y48400000D01*
X33750000Y48400000D02*
X30200000Y48400000D01*
X38250000Y48400000D02*
X41800000Y48400000D01*
%TO.C,S6*%
X48200000Y25616667D02*
X59800000Y25616667D01*
X59800000Y25616667D02*
X59800000Y20066667D01*
X48200000Y20066667D02*
X48200000Y25616667D01*
X51750000Y20066667D02*
X51750000Y19066667D01*
X51750000Y19066667D02*
X56250000Y19066667D01*
X56250000Y19066667D02*
X56250000Y20066667D01*
X51750000Y20066667D02*
X48200000Y20066667D01*
X56250000Y20066667D02*
X59800000Y20066667D01*
%TO.C,S7*%
X48200000Y42616667D02*
X59800000Y42616667D01*
X59800000Y42616667D02*
X59800000Y37066667D01*
X48200000Y37066667D02*
X48200000Y42616667D01*
X51750000Y37066667D02*
X51750000Y36066667D01*
X51750000Y36066667D02*
X56250000Y36066667D01*
X56250000Y36066667D02*
X56250000Y37066667D01*
X51750000Y37066667D02*
X48200000Y37066667D01*
X56250000Y37066667D02*
X59800000Y37066667D01*
%TO.C,S8*%
X48200000Y59616667D02*
X59800000Y59616667D01*
X59800000Y59616667D02*
X59800000Y54066667D01*
X48200000Y54066667D02*
X48200000Y59616667D01*
X51750000Y54066667D02*
X51750000Y53066667D01*
X51750000Y53066667D02*
X56250000Y53066667D01*
X56250000Y53066667D02*
X56250000Y54066667D01*
X51750000Y54066667D02*
X48200000Y54066667D01*
X56250000Y54066667D02*
X59800000Y54066667D01*
%TO.C,S9*%
X66200000Y19950000D02*
X77800000Y19950000D01*
X77800000Y19950000D02*
X77800000Y14400000D01*
X66200000Y14400000D02*
X66200000Y19950000D01*
X69750000Y14400000D02*
X69750000Y13400000D01*
X69750000Y13400000D02*
X74250000Y13400000D01*
X74250000Y13400000D02*
X74250000Y14400000D01*
X69750000Y14400000D02*
X66200000Y14400000D01*
X74250000Y14400000D02*
X77800000Y14400000D01*
%TO.C,S10*%
X66200000Y36950000D02*
X77800000Y36950000D01*
X77800000Y36950000D02*
X77800000Y31400000D01*
X66200000Y31400000D02*
X66200000Y36950000D01*
X69750000Y31400000D02*
X69750000Y30400000D01*
X69750000Y30400000D02*
X74250000Y30400000D01*
X74250000Y30400000D02*
X74250000Y31400000D01*
X69750000Y31400000D02*
X66200000Y31400000D01*
X74250000Y31400000D02*
X77800000Y31400000D01*
%TO.C,S11*%
X66200000Y53950000D02*
X77800000Y53950000D01*
X77800000Y53950000D02*
X77800000Y48400000D01*
X66200000Y48400000D02*
X66200000Y53950000D01*
X69750000Y48400000D02*
X69750000Y47400000D01*
X69750000Y47400000D02*
X74250000Y47400000D01*
X74250000Y47400000D02*
X74250000Y48400000D01*
X69750000Y48400000D02*
X66200000Y48400000D01*
X74250000Y48400000D02*
X77800000Y48400000D01*
%TO.C,S12*%
X84200000Y17116667D02*
X95800000Y17116667D01*
X95800000Y17116667D02*
X95800000Y11566667D01*
X84200000Y11566667D02*
X84200000Y17116667D01*
X87750000Y11566667D02*
X87750000Y10566667D01*
X87750000Y10566667D02*
X92250000Y10566667D01*
X92250000Y10566667D02*
X92250000Y11566667D01*
X87750000Y11566667D02*
X84200000Y11566667D01*
X92250000Y11566667D02*
X95800000Y11566667D01*
%TO.C,S13*%
X84200000Y34116667D02*
X95800000Y34116667D01*
X95800000Y34116667D02*
X95800000Y28566667D01*
X84200000Y28566667D02*
X84200000Y34116667D01*
X87750000Y28566667D02*
X87750000Y27566667D01*
X87750000Y27566667D02*
X92250000Y27566667D01*
X92250000Y27566667D02*
X92250000Y28566667D01*
X87750000Y28566667D02*
X84200000Y28566667D01*
X92250000Y28566667D02*
X95800000Y28566667D01*
%TO.C,S14*%
X70979180Y610945D02*
X82535039Y-400062D01*
X82535039Y-400062D02*
X82051324Y-5928943D01*
X70495466Y-4917936D02*
X70979180Y610945D01*
X74031957Y-5227339D02*
X73944801Y-6223533D01*
X73944801Y-6223533D02*
X78427677Y-6615734D01*
X78427677Y-6615734D02*
X78514833Y-5619540D01*
X74031957Y-5227339D02*
X70495466Y-4917936D01*
X78514833Y-5619540D02*
X82051324Y-5928943D01*
%TO.C,S15*%
X90951032Y-1884029D02*
X102155772Y-4886330D01*
X102155772Y-4886330D02*
X100719326Y-10247219D01*
X89514587Y-7244918D02*
X90951032Y-1884029D01*
X92943623Y-8163725D02*
X92684804Y-9129651D01*
X92684804Y-9129651D02*
X97031471Y-10294337D01*
X97031471Y-10294337D02*
X97290290Y-9328411D01*
X92943623Y-8163725D02*
X89514587Y-7244918D01*
X97290290Y-9328411D02*
X100719326Y-10247219D01*
%TD*%
M02*
