%TF.GenerationSoftware,KiCad,Pcbnew,(5.1.9)-1*%
%TF.CreationDate,2021-06-29T13:32:03+02:00*%
%TF.ProjectId,todarodes_sagittatus,746f6461-726f-4646-9573-5f7361676974,VERSION_HERE*%
%TF.SameCoordinates,Original*%
%TF.FileFunction,Soldermask,Bot*%
%TF.FilePolarity,Negative*%
%FSLAX46Y46*%
G04 Gerber Fmt 4.6, Leading zero omitted, Abs format (unit mm)*
G04 Created by KiCad (PCBNEW (5.1.9)-1) date 2021-06-29 13:32:03*
%MOMM*%
%LPD*%
G01*
G04 APERTURE LIST*
%ADD10C,1.700000*%
%ADD11C,1.852600*%
%ADD12C,1.600000*%
%ADD13O,1.700000X2.300000*%
G04 APERTURE END LIST*
D10*
%TO.C,S1*%
X23300000Y4750000D03*
X12700000Y4750000D03*
X13420000Y-5100000D03*
X20000000Y-5400000D03*
X22580000Y-5100000D03*
X16000000Y-5400000D03*
%TD*%
%TO.C,S2*%
X23300000Y21750000D03*
X12700000Y21750000D03*
X13420000Y11900000D03*
X20000000Y11600000D03*
X22580000Y11900000D03*
X16000000Y11600000D03*
%TD*%
%TO.C,S3*%
X41300000Y21750000D03*
X30700000Y21750000D03*
X31420000Y11900000D03*
X38000000Y11600000D03*
X40580000Y11900000D03*
X34000000Y11600000D03*
%TD*%
%TO.C,S4*%
X41300000Y38750000D03*
X30700000Y38750000D03*
X31420000Y28900000D03*
X38000000Y28600000D03*
X40580000Y28900000D03*
X34000000Y28600000D03*
%TD*%
%TO.C,S5*%
X41300000Y55750000D03*
X30700000Y55750000D03*
X31420000Y45900000D03*
X38000000Y45600000D03*
X40580000Y45900000D03*
X34000000Y45600000D03*
%TD*%
%TO.C,S6*%
X59300000Y27416667D03*
X48700000Y27416667D03*
X49420000Y17566667D03*
X56000000Y17266667D03*
X58580000Y17566667D03*
X52000000Y17266667D03*
%TD*%
%TO.C,S7*%
X59300000Y44416667D03*
X48700000Y44416667D03*
X49420000Y34566667D03*
X56000000Y34266667D03*
X58580000Y34566667D03*
X52000000Y34266667D03*
%TD*%
%TO.C,S8*%
X59300000Y61416667D03*
X48700000Y61416667D03*
X49420000Y51566667D03*
X56000000Y51266667D03*
X58580000Y51566667D03*
X52000000Y51266667D03*
%TD*%
%TO.C,S9*%
X77300000Y21750000D03*
X66700000Y21750000D03*
X67420000Y11900000D03*
X74000000Y11600000D03*
X76580000Y11900000D03*
X70000000Y11600000D03*
%TD*%
%TO.C,S10*%
X77300000Y38750000D03*
X66700000Y38750000D03*
X67420000Y28900000D03*
X74000000Y28600000D03*
X76580000Y28900000D03*
X70000000Y28600000D03*
%TD*%
%TO.C,S11*%
X77300000Y55750000D03*
X66700000Y55750000D03*
X67420000Y45900000D03*
X74000000Y45600000D03*
X76580000Y45900000D03*
X70000000Y45600000D03*
%TD*%
%TO.C,S12*%
X95300000Y18916667D03*
X84700000Y18916667D03*
X85420000Y9066667D03*
X92000000Y8766667D03*
X94580000Y9066667D03*
X88000000Y8766667D03*
%TD*%
%TO.C,S13*%
X95300000Y35916667D03*
X84700000Y35916667D03*
X85420000Y26066667D03*
X92000000Y25766667D03*
X94580000Y26066667D03*
X88000000Y25766667D03*
%TD*%
%TO.C,S14*%
X82193822Y1436666D03*
X71634158Y2360517D03*
X71492934Y-7514753D03*
X78021748Y-8387096D03*
X80618077Y-8313099D03*
X74036970Y-8038473D03*
%TD*%
%TO.C,S15*%
X102138683Y-3018254D03*
X91899870Y-274772D03*
X90045969Y-9975491D03*
X96324115Y-11968299D03*
X98893849Y-12346274D03*
X92460412Y-10933022D03*
%TD*%
%TO.C,C1*%
G36*
G01*
X24743700Y56396300D02*
X26496300Y56396300D01*
G75*
G02*
X26546300Y56346300I0J-50000D01*
G01*
X26546300Y54593700D01*
G75*
G02*
X26496300Y54543700I-50000J0D01*
G01*
X24743700Y54543700D01*
G75*
G02*
X24693700Y54593700I0J50000D01*
G01*
X24693700Y56346300D01*
G75*
G02*
X24743700Y56396300I50000J0D01*
G01*
G37*
D11*
X25620000Y52930000D03*
X25620000Y50390000D03*
X25620000Y47850000D03*
X25620000Y45310000D03*
X25620000Y42770000D03*
X25620000Y40230000D03*
X25620000Y37690000D03*
X25620000Y35150000D03*
X25620000Y32610000D03*
X25620000Y30070000D03*
X25620000Y27530000D03*
X10380000Y55470000D03*
X10380000Y52930000D03*
X10380000Y50390000D03*
X10380000Y47850000D03*
X10380000Y45310000D03*
X10380000Y42770000D03*
X10380000Y40230000D03*
X10380000Y37690000D03*
X10380000Y35150000D03*
X10380000Y32610000D03*
X10380000Y30070000D03*
X10380000Y27530000D03*
%TD*%
D12*
%TO.C,REF\u002A\u002A*%
X102550000Y14566667D03*
X102550000Y21566667D03*
D13*
X104850000Y11866667D03*
X100250000Y12966667D03*
X100250000Y16966667D03*
X100250000Y19966667D03*
X100250000Y11866667D03*
X104850000Y12966667D03*
X104850000Y16966667D03*
X104850000Y19966667D03*
%TD*%
M02*
