%TF.GenerationSoftware,KiCad,Pcbnew,(5.1.9)-1*%
%TF.CreationDate,2021-06-29T13:32:03+02:00*%
%TF.ProjectId,todarodes_sagittatus,746f6461-726f-4646-9573-5f7361676974,VERSION_HERE*%
%TF.SameCoordinates,Original*%
%TF.FileFunction,Copper,L2,Bot*%
%TF.FilePolarity,Positive*%
%FSLAX46Y46*%
G04 Gerber Fmt 4.6, Leading zero omitted, Abs format (unit mm)*
G04 Created by KiCad (PCBNEW (5.1.9)-1) date 2021-06-29 13:32:03*
%MOMM*%
%LPD*%
G01*
G04 APERTURE LIST*
%TA.AperFunction,ComponentPad*%
%ADD10C,1.600000*%
%TD*%
%TA.AperFunction,ComponentPad*%
%ADD11R,1.752600X1.752600*%
%TD*%
%TA.AperFunction,ComponentPad*%
%ADD12C,1.752600*%
%TD*%
%TA.AperFunction,ComponentPad*%
%ADD13O,1.600000X2.200000*%
%TD*%
%TA.AperFunction,Conductor*%
%ADD14C,0.250000*%
%TD*%
G04 APERTURE END LIST*
D10*
%TO.P,S1,3*%
%TO.N,N/C*%
X23300000Y4750000D03*
%TO.P,S1,4*%
X12700000Y4750000D03*
%TO.P,S1,1*%
%TO.N,P8*%
X13420000Y-5100000D03*
%TO.P,S1,2*%
%TO.N,GND*%
X20000000Y-5400000D03*
%TO.P,S1,1*%
%TO.N,P8*%
X22580000Y-5100000D03*
%TO.P,S1,2*%
%TO.N,GND*%
X16000000Y-5400000D03*
%TD*%
%TO.P,S2,3*%
%TO.N,N/C*%
X23300000Y21750000D03*
%TO.P,S2,4*%
X12700000Y21750000D03*
%TO.P,S2,1*%
%TO.N,P9*%
X13420000Y11900000D03*
%TO.P,S2,2*%
%TO.N,GND*%
X20000000Y11600000D03*
%TO.P,S2,1*%
%TO.N,P9*%
X22580000Y11900000D03*
%TO.P,S2,2*%
%TO.N,GND*%
X16000000Y11600000D03*
%TD*%
%TO.P,S3,3*%
%TO.N,N/C*%
X41300000Y21750000D03*
%TO.P,S3,4*%
X30700000Y21750000D03*
%TO.P,S3,1*%
%TO.N,P5*%
X31420000Y11900000D03*
%TO.P,S3,2*%
%TO.N,GND*%
X38000000Y11600000D03*
%TO.P,S3,1*%
%TO.N,P5*%
X40580000Y11900000D03*
%TO.P,S3,2*%
%TO.N,GND*%
X34000000Y11600000D03*
%TD*%
%TO.P,S4,3*%
%TO.N,N/C*%
X41300000Y38750000D03*
%TO.P,S4,4*%
X30700000Y38750000D03*
%TO.P,S4,1*%
%TO.N,P16*%
X31420000Y28900000D03*
%TO.P,S4,2*%
%TO.N,GND*%
X38000000Y28600000D03*
%TO.P,S4,1*%
%TO.N,P16*%
X40580000Y28900000D03*
%TO.P,S4,2*%
%TO.N,GND*%
X34000000Y28600000D03*
%TD*%
%TO.P,S5,3*%
%TO.N,N/C*%
X41300000Y55750000D03*
%TO.P,S5,4*%
X30700000Y55750000D03*
%TO.P,S5,1*%
%TO.N,P21*%
X31420000Y45900000D03*
%TO.P,S5,2*%
%TO.N,GND*%
X38000000Y45600000D03*
%TO.P,S5,1*%
%TO.N,P21*%
X40580000Y45900000D03*
%TO.P,S5,2*%
%TO.N,GND*%
X34000000Y45600000D03*
%TD*%
%TO.P,S6,3*%
%TO.N,N/C*%
X59300000Y27416667D03*
%TO.P,S6,4*%
X48700000Y27416667D03*
%TO.P,S6,1*%
%TO.N,P4*%
X49420000Y17566667D03*
%TO.P,S6,2*%
%TO.N,GND*%
X56000000Y17266667D03*
%TO.P,S6,1*%
%TO.N,P4*%
X58580000Y17566667D03*
%TO.P,S6,2*%
%TO.N,GND*%
X52000000Y17266667D03*
%TD*%
%TO.P,S7,3*%
%TO.N,N/C*%
X59300000Y44416667D03*
%TO.P,S7,4*%
X48700000Y44416667D03*
%TO.P,S7,1*%
%TO.N,P14*%
X49420000Y34566667D03*
%TO.P,S7,2*%
%TO.N,GND*%
X56000000Y34266667D03*
%TO.P,S7,1*%
%TO.N,P14*%
X58580000Y34566667D03*
%TO.P,S7,2*%
%TO.N,GND*%
X52000000Y34266667D03*
%TD*%
%TO.P,S8,3*%
%TO.N,N/C*%
X59300000Y61416667D03*
%TO.P,S8,4*%
X48700000Y61416667D03*
%TO.P,S8,1*%
%TO.N,P20*%
X49420000Y51566667D03*
%TO.P,S8,2*%
%TO.N,GND*%
X56000000Y51266667D03*
%TO.P,S8,1*%
%TO.N,P20*%
X58580000Y51566667D03*
%TO.P,S8,2*%
%TO.N,GND*%
X52000000Y51266667D03*
%TD*%
%TO.P,S9,3*%
%TO.N,N/C*%
X77300000Y21750000D03*
%TO.P,S9,4*%
X66700000Y21750000D03*
%TO.P,S9,1*%
%TO.N,P3*%
X67420000Y11900000D03*
%TO.P,S9,2*%
%TO.N,GND*%
X74000000Y11600000D03*
%TO.P,S9,1*%
%TO.N,P3*%
X76580000Y11900000D03*
%TO.P,S9,2*%
%TO.N,GND*%
X70000000Y11600000D03*
%TD*%
%TO.P,S10,3*%
%TO.N,N/C*%
X77300000Y38750000D03*
%TO.P,S10,4*%
X66700000Y38750000D03*
%TO.P,S10,1*%
%TO.N,P15*%
X67420000Y28900000D03*
%TO.P,S10,2*%
%TO.N,GND*%
X74000000Y28600000D03*
%TO.P,S10,1*%
%TO.N,P15*%
X76580000Y28900000D03*
%TO.P,S10,2*%
%TO.N,GND*%
X70000000Y28600000D03*
%TD*%
%TO.P,S11,3*%
%TO.N,N/C*%
X77300000Y55750000D03*
%TO.P,S11,4*%
X66700000Y55750000D03*
%TO.P,S11,1*%
%TO.N,P19*%
X67420000Y45900000D03*
%TO.P,S11,2*%
%TO.N,GND*%
X74000000Y45600000D03*
%TO.P,S11,1*%
%TO.N,P19*%
X76580000Y45900000D03*
%TO.P,S11,2*%
%TO.N,GND*%
X70000000Y45600000D03*
%TD*%
%TO.P,S12,3*%
%TO.N,N/C*%
X95300000Y18916667D03*
%TO.P,S12,4*%
X84700000Y18916667D03*
%TO.P,S12,1*%
%TO.N,P10*%
X85420000Y9066667D03*
%TO.P,S12,2*%
%TO.N,GND*%
X92000000Y8766667D03*
%TO.P,S12,1*%
%TO.N,P10*%
X94580000Y9066667D03*
%TO.P,S12,2*%
%TO.N,GND*%
X88000000Y8766667D03*
%TD*%
%TO.P,S13,3*%
%TO.N,N/C*%
X95300000Y35916667D03*
%TO.P,S13,4*%
X84700000Y35916667D03*
%TO.P,S13,1*%
%TO.N,P18*%
X85420000Y26066667D03*
%TO.P,S13,2*%
%TO.N,GND*%
X92000000Y25766667D03*
%TO.P,S13,1*%
%TO.N,P18*%
X94580000Y26066667D03*
%TO.P,S13,2*%
%TO.N,GND*%
X88000000Y25766667D03*
%TD*%
%TO.P,S14,3*%
%TO.N,N/C*%
X82193822Y1436666D03*
%TO.P,S14,4*%
X71634158Y2360517D03*
%TO.P,S14,1*%
%TO.N,P7*%
X71492934Y-7514753D03*
%TO.P,S14,2*%
%TO.N,GND*%
X78021748Y-8387096D03*
%TO.P,S14,1*%
%TO.N,P7*%
X80618077Y-8313099D03*
%TO.P,S14,2*%
%TO.N,GND*%
X74036970Y-8038473D03*
%TD*%
%TO.P,S15,3*%
%TO.N,N/C*%
X102138683Y-3018254D03*
%TO.P,S15,4*%
X91899870Y-274772D03*
%TO.P,S15,1*%
%TO.N,P6*%
X90045969Y-9975491D03*
%TO.P,S15,2*%
%TO.N,GND*%
X96324115Y-11968299D03*
%TO.P,S15,1*%
%TO.N,P6*%
X98893849Y-12346274D03*
%TO.P,S15,2*%
%TO.N,GND*%
X92460412Y-10933022D03*
%TD*%
D11*
%TO.P,C1,1*%
%TO.N,RAW*%
X25620000Y55470000D03*
D12*
%TO.P,C1,2*%
%TO.N,GND*%
X25620000Y52930000D03*
%TO.P,C1,3*%
%TO.N,RST*%
X25620000Y50390000D03*
%TO.P,C1,4*%
%TO.N,VCC*%
X25620000Y47850000D03*
%TO.P,C1,5*%
%TO.N,P21*%
X25620000Y45310000D03*
%TO.P,C1,6*%
%TO.N,P20*%
X25620000Y42770000D03*
%TO.P,C1,7*%
%TO.N,P19*%
X25620000Y40230000D03*
%TO.P,C1,8*%
%TO.N,P18*%
X25620000Y37690000D03*
%TO.P,C1,9*%
%TO.N,P15*%
X25620000Y35150000D03*
%TO.P,C1,10*%
%TO.N,P14*%
X25620000Y32610000D03*
%TO.P,C1,11*%
%TO.N,P16*%
X25620000Y30070000D03*
%TO.P,C1,12*%
%TO.N,P10*%
X25620000Y27530000D03*
%TO.P,C1,13*%
%TO.N,P1*%
X10380000Y55470000D03*
%TO.P,C1,14*%
%TO.N,P0*%
X10380000Y52930000D03*
%TO.P,C1,15*%
%TO.N,GND*%
X10380000Y50390000D03*
%TO.P,C1,16*%
X10380000Y47850000D03*
%TO.P,C1,17*%
%TO.N,P2*%
X10380000Y45310000D03*
%TO.P,C1,18*%
%TO.N,P3*%
X10380000Y42770000D03*
%TO.P,C1,19*%
%TO.N,P4*%
X10380000Y40230000D03*
%TO.P,C1,20*%
%TO.N,P5*%
X10380000Y37690000D03*
%TO.P,C1,21*%
%TO.N,P6*%
X10380000Y35150000D03*
%TO.P,C1,22*%
%TO.N,P7*%
X10380000Y32610000D03*
%TO.P,C1,23*%
%TO.N,P8*%
X10380000Y30070000D03*
%TO.P,C1,24*%
%TO.N,P9*%
X10380000Y27530000D03*
%TD*%
D13*
%TO.P,REF\u002A\u002A,1*%
%TO.N,GND*%
X104850000Y11866667D03*
%TO.P,REF\u002A\u002A,2*%
X100250000Y12966667D03*
%TO.P,REF\u002A\u002A,3*%
%TO.N,P2*%
X100250000Y16966667D03*
%TO.P,REF\u002A\u002A,4*%
%TO.N,VCC*%
X100250000Y19966667D03*
%TO.P,REF\u002A\u002A,1*%
%TO.N,GND*%
X100250000Y11866667D03*
%TO.P,REF\u002A\u002A,2*%
X104850000Y12966667D03*
%TO.P,REF\u002A\u002A,3*%
%TO.N,P2*%
X104850000Y16966667D03*
%TO.P,REF\u002A\u002A,4*%
%TO.N,VCC*%
X104850000Y19966667D03*
%TD*%
D14*
%TO.N,P8*%
X21465010Y-3985010D02*
X22580000Y-5100000D01*
X14534990Y-3985010D02*
X21465010Y-3985010D01*
X13420000Y-5100000D02*
X14534990Y-3985010D01*
%TO.N,P9*%
X21465010Y13014990D02*
X22580000Y11900000D01*
X14534990Y13014990D02*
X21465010Y13014990D01*
X13420000Y11900000D02*
X14534990Y13014990D01*
X10380000Y14940000D02*
X10380000Y27530000D01*
X13420000Y11900000D02*
X10380000Y14940000D01*
%TO.N,P5*%
X39465010Y13014990D02*
X40580000Y11900000D01*
X32534990Y13014990D02*
X39465010Y13014990D01*
X31420000Y11900000D02*
X32534990Y13014990D01*
X27860000Y15460000D02*
X31420000Y11900000D01*
X27110040Y21882780D02*
X27110040Y16209960D01*
X24722802Y24270018D02*
X27110040Y21882780D01*
X18089211Y24270019D02*
X24722802Y24270018D01*
X14520020Y31646390D02*
X14520020Y27839210D01*
X14520020Y27839210D02*
X18089211Y24270019D01*
X12220000Y33946410D02*
X14520020Y31646390D01*
X27110040Y16209960D02*
X27860000Y15460000D01*
X12220000Y35850000D02*
X12220000Y33946410D01*
X10380000Y37690000D02*
X12220000Y35850000D01*
%TO.N,P16*%
X39465010Y30014990D02*
X40580000Y28900000D01*
X32534990Y30014990D02*
X39465010Y30014990D01*
X31420000Y28900000D02*
X32534990Y30014990D01*
X26790000Y28900000D02*
X25620000Y30070000D01*
X31420000Y28900000D02*
X26790000Y28900000D01*
%TO.N,P21*%
X39465010Y47014990D02*
X40580000Y45900000D01*
X32534990Y47014990D02*
X39465010Y47014990D01*
X31420000Y45900000D02*
X32534990Y47014990D01*
X26210000Y45900000D02*
X25620000Y45310000D01*
X31420000Y45900000D02*
X26210000Y45900000D01*
%TO.N,P4*%
X57465010Y18681657D02*
X58580000Y17566667D01*
X50534990Y18681657D02*
X57465010Y18681657D01*
X49420000Y17566667D02*
X50534990Y18681657D01*
X12670010Y34132810D02*
X12670010Y37939990D01*
X14970030Y31832790D02*
X12670010Y34132810D01*
X14970030Y28025610D02*
X14970030Y31832790D01*
X18275612Y24720028D02*
X14970030Y28025610D01*
X24909203Y24720027D02*
X18275612Y24720028D01*
X25835400Y23793830D02*
X24909203Y24720027D01*
X43192837Y23793830D02*
X25835400Y23793830D01*
X12670010Y37939990D02*
X10380000Y40230000D01*
X49420000Y17566667D02*
X43192837Y23793830D01*
%TO.N,P14*%
X57465010Y35681657D02*
X58580000Y34566667D01*
X50534990Y35681657D02*
X57465010Y35681657D01*
X49420000Y34566667D02*
X50534990Y35681657D01*
X27900020Y34890020D02*
X25620000Y32610000D01*
X27900020Y40473610D02*
X27900020Y34890020D01*
X28502800Y40689980D02*
X28116390Y40689980D01*
X28502820Y40690000D02*
X28502800Y40689980D01*
X42430000Y40690000D02*
X28502820Y40690000D01*
X43220000Y39900000D02*
X42430000Y40690000D01*
X28116390Y40689980D02*
X27900020Y40473610D01*
X43220000Y35660000D02*
X43220000Y39900000D01*
X44313333Y34566667D02*
X43220000Y35660000D01*
X49420000Y34566667D02*
X44313333Y34566667D01*
%TO.N,P20*%
X57465010Y52681657D02*
X58580000Y51566667D01*
X50534990Y52681657D02*
X57465010Y52681657D01*
X49420000Y51566667D02*
X50534990Y52681657D01*
X25899962Y42490038D02*
X25620000Y42770000D01*
X41590808Y42490038D02*
X25899962Y42490038D01*
X49420000Y50319230D02*
X41590808Y42490038D01*
X49420000Y51566667D02*
X49420000Y50319230D01*
%TO.N,P3*%
X75465010Y13014990D02*
X76580000Y11900000D01*
X68534990Y13014990D02*
X75465010Y13014990D01*
X67420000Y11900000D02*
X68534990Y13014990D01*
X13120020Y40029980D02*
X10380000Y42770000D01*
X15420039Y32019191D02*
X13120020Y34319210D01*
X15420040Y28212010D02*
X15420039Y32019191D01*
X25095602Y25170036D02*
X18462014Y25170036D01*
X45420000Y29220000D02*
X40443840Y24243840D01*
X26021799Y24243839D02*
X25095602Y25170036D01*
X40443840Y24243840D02*
X26021799Y24243839D01*
X61080000Y29220000D02*
X45420000Y29220000D01*
X63246410Y27053590D02*
X61080000Y29220000D01*
X63246410Y16073590D02*
X63246410Y27053590D01*
X13120020Y34319210D02*
X13120020Y40029980D01*
X18462014Y25170036D02*
X15420040Y28212010D01*
X67420000Y11900000D02*
X63246410Y16073590D01*
%TO.N,P15*%
X75465010Y30014990D02*
X76580000Y28900000D01*
X68534990Y30014990D02*
X75465010Y30014990D01*
X67420000Y28900000D02*
X68534990Y30014990D01*
X27450010Y36980010D02*
X26990000Y36520000D01*
X27450010Y40660010D02*
X27450010Y36980010D01*
X28316419Y41140009D02*
X28316400Y41139990D01*
X28316400Y41139990D02*
X27929990Y41139990D01*
X42150010Y41140010D02*
X28316419Y41140009D01*
X47890000Y46880000D02*
X42150010Y41140010D01*
X61130000Y46880000D02*
X47890000Y46880000D01*
X26990000Y36520000D02*
X25620000Y35150000D01*
X62890000Y45120000D02*
X61130000Y46880000D01*
X62890000Y33430000D02*
X62890000Y45120000D01*
X27929990Y41139990D02*
X27450010Y40660010D01*
X67420000Y28900000D02*
X62890000Y33430000D01*
%TO.N,P19*%
X75465010Y47014990D02*
X76580000Y45900000D01*
X68534990Y47014990D02*
X75465010Y47014990D01*
X67420000Y45900000D02*
X68534990Y47014990D01*
X65539981Y47780019D02*
X47517198Y47780018D01*
X67420000Y45900000D02*
X65539981Y47780019D01*
X27430028Y42040028D02*
X25620000Y40230000D01*
X41777208Y42040028D02*
X27430028Y42040028D01*
X47517198Y47780018D02*
X41777208Y42040028D01*
%TO.N,P10*%
X93465010Y10181657D02*
X94580000Y9066667D01*
X86534990Y10181657D02*
X93465010Y10181657D01*
X85420000Y9066667D02*
X86534990Y10181657D01*
X82783333Y9066667D02*
X85420000Y9066667D01*
X25620000Y27530000D02*
X25675001Y27474999D01*
X25620000Y26520066D02*
X25654802Y26520066D01*
X25620000Y27530000D02*
X25620000Y26520066D01*
X85420000Y9066667D02*
X81772563Y9066667D01*
X81772563Y9066667D02*
X81541810Y9297420D01*
X81550007Y23856402D02*
X79616398Y25790008D01*
X81550009Y22787191D02*
X81550007Y23856402D01*
X81541810Y22778990D02*
X81550009Y22787191D01*
X81541810Y9297420D02*
X81541810Y22778990D01*
X75776402Y25790008D02*
X75776400Y25790010D01*
X79616398Y25790008D02*
X75776402Y25790008D01*
X75776402Y25790008D02*
X66419221Y25790008D01*
X66419221Y25790008D02*
X61639198Y30570028D01*
X61639198Y30570028D02*
X44860797Y30570027D01*
X44860797Y30570027D02*
X39884636Y25593866D01*
X26581002Y25593866D02*
X26217434Y25957434D01*
X39884636Y25593866D02*
X26581002Y25593866D01*
X26217434Y25957434D02*
X26581001Y25593867D01*
X25654802Y26520066D02*
X26217434Y25957434D01*
%TO.N,P18*%
X86534990Y27181657D02*
X93465010Y27181657D01*
X93465010Y27181657D02*
X94580000Y26066667D01*
X85420000Y26066667D02*
X86534990Y27181657D01*
X85420000Y26066667D02*
X79590000Y31896667D01*
X79590000Y31896667D02*
X79590000Y41240000D01*
X79590000Y41240000D02*
X78270000Y42560000D01*
X66086410Y42560000D02*
X61316400Y47330010D01*
X78270000Y42560000D02*
X66086410Y42560000D01*
X61316400Y47330010D02*
X47703599Y47330009D01*
X41963608Y41590018D02*
X29867198Y41590018D01*
X47703599Y47330009D02*
X41963608Y41590018D01*
X28130000Y41590000D02*
X27616410Y41590000D01*
X29919982Y41590018D02*
X28130018Y41590018D01*
X29520018Y41590018D02*
X29919982Y41590018D01*
X28130018Y41590018D02*
X28130000Y41590000D01*
X29919982Y41590018D02*
X33430017Y41590018D01*
X27000000Y40973590D02*
X27000000Y39070000D01*
X27616410Y41590000D02*
X27000000Y40973590D01*
X27000000Y39070000D02*
X25620000Y37690000D01*
%TO.N,P7*%
X13620000Y31273590D02*
X12283590Y32610000D01*
X17716410Y23370000D02*
X13620001Y27466409D01*
X24350000Y23370000D02*
X17716410Y23370000D01*
X26210020Y21509980D02*
X24350000Y23370000D01*
X26210020Y12359980D02*
X26210020Y21509980D01*
X71492934Y-7514753D02*
X70010000Y-6031819D01*
X70010000Y8060000D02*
X68877501Y9192499D01*
X68877501Y9192499D02*
X65487501Y9192499D01*
X65487501Y9192499D02*
X64299990Y10380010D01*
X13620001Y27466409D02*
X13620000Y31273590D01*
X64299990Y10380010D02*
X64299990Y13747190D01*
X64299990Y13747190D02*
X63004240Y15042940D01*
X63004240Y15042940D02*
X45897060Y15042940D01*
X12283590Y32610000D02*
X10380000Y32610000D01*
X44030000Y13175881D02*
X44030000Y10290000D01*
X45897060Y15042940D02*
X44030000Y13175881D01*
X44030000Y10290000D02*
X42960000Y9220000D01*
X70010000Y-6031819D02*
X70010000Y8060000D01*
X42960000Y9220000D02*
X29350000Y9220000D01*
X29350000Y9220000D02*
X26210020Y12359980D01*
%TO.N,VCC*%
X104850000Y19966667D02*
X104850000Y19666667D01*
X21330000Y27260000D02*
X21330000Y43560000D01*
X22519944Y26070056D02*
X21330000Y27260000D01*
X25468402Y26070056D02*
X22519944Y26070056D01*
X45047198Y30120018D02*
X40071038Y25143858D01*
X49379982Y30120018D02*
X45047198Y30120018D01*
X100250000Y19966667D02*
X96749990Y16466657D01*
X96749990Y16466657D02*
X96749990Y7546400D01*
X21330000Y43560000D02*
X25620000Y47850000D01*
X94083600Y4880010D02*
X85322810Y4880010D01*
X81099999Y23670001D02*
X79429999Y25339999D01*
X96749990Y7546400D02*
X94083600Y4880010D01*
X85322810Y4880010D02*
X81091800Y9111020D01*
X81091800Y9111020D02*
X81091800Y22965390D01*
X79429999Y25339999D02*
X75590000Y25340000D01*
X26394601Y25143857D02*
X25468402Y26070056D01*
X81091800Y22965390D02*
X81100000Y22973590D01*
X40071038Y25143858D02*
X26394601Y25143857D01*
X81100000Y22973590D02*
X81099999Y23670001D01*
X75590000Y25340000D02*
X66232820Y25340000D01*
X66232820Y25340000D02*
X61452799Y30120019D01*
X61452799Y30120019D02*
X49379982Y30120018D01*
X100250000Y19966667D02*
X104850000Y19966667D01*
%TO.N,P2*%
X13570029Y42119971D02*
X10380000Y45310000D01*
X13570030Y34505610D02*
X13570029Y42119971D01*
X18648414Y25620046D02*
X15870049Y28398411D01*
X40257439Y24693849D02*
X26208200Y24693848D01*
X97200000Y13916667D02*
X97200000Y7360000D01*
X15870049Y28398411D02*
X15870048Y32205592D01*
X94270000Y4430000D02*
X85136410Y4430000D01*
X15870048Y32205592D02*
X13570030Y34505610D01*
X85136410Y4430000D02*
X80641790Y8924620D01*
X45233599Y29670009D02*
X40257439Y24693849D01*
X80641790Y8924620D02*
X80641790Y23151790D01*
X80641790Y23151790D02*
X80649990Y23159990D01*
X66046419Y24889991D02*
X61266400Y29670010D01*
X25282002Y25620046D02*
X18648414Y25620046D01*
X100250000Y16966667D02*
X97200000Y13916667D01*
X97200000Y7360000D02*
X94270000Y4430000D01*
X80649990Y23159990D02*
X80649990Y23483600D01*
X80649990Y23483600D02*
X79243600Y24889990D01*
X26208200Y24693848D02*
X25282002Y25620046D01*
X61266400Y29670010D02*
X45233599Y29670009D01*
X79243600Y24889990D02*
X66046419Y24889991D01*
X100250000Y16966667D02*
X104850000Y16966667D01*
%TO.N,P6*%
X45710657Y15492949D02*
X45523854Y15306146D01*
X46072949Y15492949D02*
X45710657Y15492949D01*
X45523854Y15306146D02*
X45688855Y15471145D01*
X45710660Y15492950D02*
X46072949Y15492949D01*
X43579991Y13362282D02*
X45523854Y15306146D01*
X26660030Y12546380D02*
X29536400Y9670010D01*
X42773600Y9670010D02*
X43579990Y10476400D01*
X26660030Y21696380D02*
X26660030Y12546380D01*
X24536401Y23820009D02*
X26660030Y21696380D01*
X43579990Y10476400D02*
X43579991Y13362282D01*
X17902810Y23820010D02*
X24536401Y23820009D01*
X29536400Y9670010D02*
X42773600Y9670010D01*
X14070010Y27652810D02*
X17902810Y23820010D01*
X14070010Y31459990D02*
X14070010Y27652810D01*
X10380000Y35150000D02*
X14070010Y31459990D01*
X85340000Y-5269522D02*
X90045969Y-9975491D01*
X85340000Y3590000D02*
X85340000Y-5269522D01*
X79287491Y9642509D02*
X85340000Y3590000D01*
X65673901Y9642509D02*
X79287491Y9642509D01*
X64750000Y10566410D02*
X65673901Y9642509D01*
X63190641Y15492949D02*
X64750000Y13933590D01*
X64750000Y13933590D02*
X64750000Y10566410D01*
X46072949Y15492949D02*
X63190641Y15492949D01*
%TD*%
M02*
