%TF.GenerationSoftware,KiCad,Pcbnew,(5.1.9)-1*%
%TF.CreationDate,2021-04-26T16:03:13+02:00*%
%TF.ProjectId,sepia,73657069-612e-46b6-9963-61645f706362,VERSION_HERE*%
%TF.SameCoordinates,Original*%
%TF.FileFunction,Soldermask,Top*%
%TF.FilePolarity,Negative*%
%FSLAX46Y46*%
G04 Gerber Fmt 4.6, Leading zero omitted, Abs format (unit mm)*
G04 Created by KiCad (PCBNEW (5.1.9)-1) date 2021-04-26 16:03:13*
%MOMM*%
%LPD*%
G01*
G04 APERTURE LIST*
%ADD10C,0.010000*%
%ADD11O,2.300000X1.700000*%
%ADD12C,1.600000*%
%ADD13C,1.852600*%
%ADD14C,1.801800*%
%ADD15C,3.100000*%
%ADD16C,3.529000*%
G04 APERTURE END LIST*
D10*
%TO.C,G\u002A\u002A\u002A*%
G36*
X80941929Y-82472785D02*
G01*
X80808435Y-82460697D01*
X80677786Y-82472699D01*
X80530260Y-82509447D01*
X80467849Y-82529315D01*
X80272800Y-82619916D01*
X80104426Y-82752518D01*
X79964830Y-82924660D01*
X79856117Y-83133882D01*
X79795581Y-83315659D01*
X79761340Y-83504721D01*
X79766654Y-83674870D01*
X79813868Y-83832749D01*
X79905325Y-83984996D01*
X80043366Y-84138253D01*
X80106201Y-84196086D01*
X80185689Y-84265428D01*
X80247848Y-84314458D01*
X80306016Y-84350112D01*
X80373533Y-84379320D01*
X80463738Y-84409019D01*
X80583852Y-84444367D01*
X80718508Y-84481966D01*
X80817608Y-84505214D01*
X80893686Y-84516121D01*
X80959280Y-84516698D01*
X81005723Y-84512025D01*
X81216461Y-84467971D01*
X81390897Y-84394921D01*
X81537214Y-84288410D01*
X81652623Y-84158905D01*
X81695230Y-84096740D01*
X81729553Y-84031570D01*
X81760706Y-83950733D01*
X81793802Y-83841564D01*
X81820298Y-83743653D01*
X81855689Y-83582317D01*
X81573653Y-83506746D01*
X81544079Y-83595010D01*
X81473226Y-83708688D01*
X81432805Y-83762142D01*
X81326388Y-83868219D01*
X81215467Y-83925811D01*
X81104723Y-83935010D01*
X80998842Y-83895911D01*
X80902506Y-83808607D01*
X80861740Y-83750759D01*
X80815893Y-83676516D01*
X80674149Y-83714822D01*
X80581575Y-83732859D01*
X80496678Y-83737887D01*
X80457205Y-83733194D01*
X80383273Y-83688932D01*
X80323731Y-83605452D01*
X80282683Y-83493283D01*
X80264231Y-83362956D01*
X80268847Y-83249874D01*
X80294926Y-83149220D01*
X80338594Y-83094123D01*
X80394729Y-83084696D01*
X80458212Y-83121057D01*
X80523921Y-83203318D01*
X80546841Y-83243630D01*
X80618401Y-83380113D01*
X80729604Y-83371490D01*
X80872062Y-83375448D01*
X80987843Y-83414947D01*
X81075680Y-83480027D01*
X81156520Y-83555914D01*
X81210838Y-83509668D01*
X81327726Y-83424615D01*
X81425746Y-83383935D01*
X81503492Y-83387901D01*
X81559565Y-83436779D01*
X81562714Y-83442014D01*
X81573653Y-83506746D01*
X81855689Y-83582317D01*
X81867043Y-83530553D01*
X81883724Y-83350750D01*
X81868945Y-83195596D01*
X81821309Y-83056448D01*
X81739417Y-82924661D01*
X81675490Y-82847989D01*
X81544523Y-82721223D01*
X81404361Y-82625619D01*
X81239883Y-82552287D01*
X81097989Y-82508302D01*
X80941929Y-82472785D01*
G37*
X80941929Y-82472785D02*
X80808435Y-82460697D01*
X80677786Y-82472699D01*
X80530260Y-82509447D01*
X80467849Y-82529315D01*
X80272800Y-82619916D01*
X80104426Y-82752518D01*
X79964830Y-82924660D01*
X79856117Y-83133882D01*
X79795581Y-83315659D01*
X79761340Y-83504721D01*
X79766654Y-83674870D01*
X79813868Y-83832749D01*
X79905325Y-83984996D01*
X80043366Y-84138253D01*
X80106201Y-84196086D01*
X80185689Y-84265428D01*
X80247848Y-84314458D01*
X80306016Y-84350112D01*
X80373533Y-84379320D01*
X80463738Y-84409019D01*
X80583852Y-84444367D01*
X80718508Y-84481966D01*
X80817608Y-84505214D01*
X80893686Y-84516121D01*
X80959280Y-84516698D01*
X81005723Y-84512025D01*
X81216461Y-84467971D01*
X81390897Y-84394921D01*
X81537214Y-84288410D01*
X81652623Y-84158905D01*
X81695230Y-84096740D01*
X81729553Y-84031570D01*
X81760706Y-83950733D01*
X81793802Y-83841564D01*
X81820298Y-83743653D01*
X81855689Y-83582317D01*
X81573653Y-83506746D01*
X81544079Y-83595010D01*
X81473226Y-83708688D01*
X81432805Y-83762142D01*
X81326388Y-83868219D01*
X81215467Y-83925811D01*
X81104723Y-83935010D01*
X80998842Y-83895911D01*
X80902506Y-83808607D01*
X80861740Y-83750759D01*
X80815893Y-83676516D01*
X80674149Y-83714822D01*
X80581575Y-83732859D01*
X80496678Y-83737887D01*
X80457205Y-83733194D01*
X80383273Y-83688932D01*
X80323731Y-83605452D01*
X80282683Y-83493283D01*
X80264231Y-83362956D01*
X80268847Y-83249874D01*
X80294926Y-83149220D01*
X80338594Y-83094123D01*
X80394729Y-83084696D01*
X80458212Y-83121057D01*
X80523921Y-83203318D01*
X80546841Y-83243630D01*
X80618401Y-83380113D01*
X80729604Y-83371490D01*
X80872062Y-83375448D01*
X80987843Y-83414947D01*
X81075680Y-83480027D01*
X81156520Y-83555914D01*
X81210838Y-83509668D01*
X81327726Y-83424615D01*
X81425746Y-83383935D01*
X81503492Y-83387901D01*
X81559565Y-83436779D01*
X81562714Y-83442014D01*
X81573653Y-83506746D01*
X81855689Y-83582317D01*
X81867043Y-83530553D01*
X81883724Y-83350750D01*
X81868945Y-83195596D01*
X81821309Y-83056448D01*
X81739417Y-82924661D01*
X81675490Y-82847989D01*
X81544523Y-82721223D01*
X81404361Y-82625619D01*
X81239883Y-82552287D01*
X81097989Y-82508302D01*
X80941929Y-82472785D01*
G36*
X74629881Y-78088476D02*
G01*
X74450076Y-78052006D01*
X74299981Y-78031108D01*
X74230449Y-78027202D01*
X73931983Y-78044980D01*
X73658901Y-78105546D01*
X73407525Y-78210557D01*
X73174171Y-78361662D01*
X72955159Y-78560518D01*
X72893344Y-78627872D01*
X72732099Y-78810356D01*
X72656180Y-79093690D01*
X72623774Y-79217162D01*
X72603838Y-79306432D01*
X72595341Y-79376274D01*
X72597250Y-79441458D01*
X72608534Y-79516757D01*
X72621838Y-79585300D01*
X72678606Y-79811099D01*
X72752144Y-79997057D01*
X72846307Y-80152467D01*
X72870221Y-80183538D01*
X72963536Y-80283853D01*
X73094029Y-80400798D01*
X73253618Y-80527932D01*
X73434225Y-80658809D01*
X73623963Y-80784581D01*
X73831679Y-80923597D01*
X74000437Y-81054993D01*
X74139354Y-81187560D01*
X74257547Y-81330089D01*
X74364133Y-81491372D01*
X74373722Y-81507539D01*
X74442139Y-81632603D01*
X74518485Y-81786239D01*
X74593559Y-81949195D01*
X74658160Y-82102216D01*
X74659628Y-82105915D01*
X74765265Y-82354323D01*
X74870770Y-82561717D01*
X74982228Y-82737503D01*
X75105726Y-82891081D01*
X75247346Y-83031860D01*
X75273980Y-83055475D01*
X75412431Y-83171309D01*
X75547754Y-83272435D01*
X75687469Y-83362651D01*
X75839087Y-83445754D01*
X76010125Y-83525542D01*
X76208100Y-83605811D01*
X76440526Y-83690361D01*
X76711760Y-83781948D01*
X77015948Y-83885781D01*
X77313868Y-83994642D01*
X77591052Y-84103070D01*
X77830825Y-84204617D01*
X77888528Y-84228269D01*
X77911532Y-84227541D01*
X77910951Y-84199995D01*
X77908195Y-84187655D01*
X77873316Y-84097845D01*
X77806430Y-83994234D01*
X77705578Y-83874862D01*
X77568799Y-83737770D01*
X77394134Y-83581000D01*
X77179620Y-83402592D01*
X76923299Y-83200586D01*
X76911195Y-83191252D01*
X76718361Y-83041633D01*
X76561544Y-82917072D01*
X76435679Y-82812751D01*
X76335697Y-82723852D01*
X76256531Y-82645557D01*
X76193115Y-82573044D01*
X76140380Y-82501499D01*
X76093260Y-82426100D01*
X76077448Y-82398429D01*
X76040114Y-82330779D01*
X76006371Y-82266263D01*
X75973078Y-82197687D01*
X75937093Y-82117855D01*
X75895276Y-82019572D01*
X75844483Y-81895643D01*
X75781574Y-81738873D01*
X75703407Y-81542068D01*
X75702168Y-81538941D01*
X75631072Y-81363744D01*
X75565034Y-81213557D01*
X75498971Y-81081059D01*
X75427801Y-80958929D01*
X75346441Y-80839850D01*
X75249809Y-80716501D01*
X75132821Y-80581562D01*
X74990395Y-80427714D01*
X74817449Y-80247638D01*
X74775675Y-80204672D01*
X74622698Y-80046097D01*
X74501906Y-79916480D01*
X74408891Y-79809546D01*
X74339242Y-79719019D01*
X74288550Y-79638626D01*
X74252405Y-79562088D01*
X74226398Y-79483132D01*
X74206119Y-79395482D01*
X74205742Y-79393606D01*
X74185911Y-79281770D01*
X74179798Y-79196321D01*
X74188003Y-79114565D01*
X74211117Y-79013816D01*
X74216208Y-78994535D01*
X74268215Y-78838844D01*
X74329918Y-78720956D01*
X74398455Y-78644536D01*
X74470968Y-78613245D01*
X74511320Y-78616548D01*
X74553761Y-78647737D01*
X74554428Y-78706630D01*
X74513403Y-78792153D01*
X74495451Y-78819294D01*
X74451819Y-78886276D01*
X74421928Y-78939591D01*
X74415487Y-78955428D01*
X74432712Y-78956849D01*
X74486122Y-78936695D01*
X74567722Y-78898470D01*
X74669516Y-78845674D01*
X74683984Y-78837830D01*
X74903599Y-78729761D01*
X75158607Y-78626196D01*
X75455190Y-78524733D01*
X75617142Y-78475180D01*
X75711354Y-78447302D01*
X75431200Y-78334950D01*
X75240054Y-78263752D01*
X75035620Y-78197103D01*
X74828645Y-78137759D01*
X74629881Y-78088476D01*
G37*
X74629881Y-78088476D02*
X74450076Y-78052006D01*
X74299981Y-78031108D01*
X74230449Y-78027202D01*
X73931983Y-78044980D01*
X73658901Y-78105546D01*
X73407525Y-78210557D01*
X73174171Y-78361662D01*
X72955159Y-78560518D01*
X72893344Y-78627872D01*
X72732099Y-78810356D01*
X72656180Y-79093690D01*
X72623774Y-79217162D01*
X72603838Y-79306432D01*
X72595341Y-79376274D01*
X72597250Y-79441458D01*
X72608534Y-79516757D01*
X72621838Y-79585300D01*
X72678606Y-79811099D01*
X72752144Y-79997057D01*
X72846307Y-80152467D01*
X72870221Y-80183538D01*
X72963536Y-80283853D01*
X73094029Y-80400798D01*
X73253618Y-80527932D01*
X73434225Y-80658809D01*
X73623963Y-80784581D01*
X73831679Y-80923597D01*
X74000437Y-81054993D01*
X74139354Y-81187560D01*
X74257547Y-81330089D01*
X74364133Y-81491372D01*
X74373722Y-81507539D01*
X74442139Y-81632603D01*
X74518485Y-81786239D01*
X74593559Y-81949195D01*
X74658160Y-82102216D01*
X74659628Y-82105915D01*
X74765265Y-82354323D01*
X74870770Y-82561717D01*
X74982228Y-82737503D01*
X75105726Y-82891081D01*
X75247346Y-83031860D01*
X75273980Y-83055475D01*
X75412431Y-83171309D01*
X75547754Y-83272435D01*
X75687469Y-83362651D01*
X75839087Y-83445754D01*
X76010125Y-83525542D01*
X76208100Y-83605811D01*
X76440526Y-83690361D01*
X76711760Y-83781948D01*
X77015948Y-83885781D01*
X77313868Y-83994642D01*
X77591052Y-84103070D01*
X77830825Y-84204617D01*
X77888528Y-84228269D01*
X77911532Y-84227541D01*
X77910951Y-84199995D01*
X77908195Y-84187655D01*
X77873316Y-84097845D01*
X77806430Y-83994234D01*
X77705578Y-83874862D01*
X77568799Y-83737770D01*
X77394134Y-83581000D01*
X77179620Y-83402592D01*
X76923299Y-83200586D01*
X76911195Y-83191252D01*
X76718361Y-83041633D01*
X76561544Y-82917072D01*
X76435679Y-82812751D01*
X76335697Y-82723852D01*
X76256531Y-82645557D01*
X76193115Y-82573044D01*
X76140380Y-82501499D01*
X76093260Y-82426100D01*
X76077448Y-82398429D01*
X76040114Y-82330779D01*
X76006371Y-82266263D01*
X75973078Y-82197687D01*
X75937093Y-82117855D01*
X75895276Y-82019572D01*
X75844483Y-81895643D01*
X75781574Y-81738873D01*
X75703407Y-81542068D01*
X75702168Y-81538941D01*
X75631072Y-81363744D01*
X75565034Y-81213557D01*
X75498971Y-81081059D01*
X75427801Y-80958929D01*
X75346441Y-80839850D01*
X75249809Y-80716501D01*
X75132821Y-80581562D01*
X74990395Y-80427714D01*
X74817449Y-80247638D01*
X74775675Y-80204672D01*
X74622698Y-80046097D01*
X74501906Y-79916480D01*
X74408891Y-79809546D01*
X74339242Y-79719019D01*
X74288550Y-79638626D01*
X74252405Y-79562088D01*
X74226398Y-79483132D01*
X74206119Y-79395482D01*
X74205742Y-79393606D01*
X74185911Y-79281770D01*
X74179798Y-79196321D01*
X74188003Y-79114565D01*
X74211117Y-79013816D01*
X74216208Y-78994535D01*
X74268215Y-78838844D01*
X74329918Y-78720956D01*
X74398455Y-78644536D01*
X74470968Y-78613245D01*
X74511320Y-78616548D01*
X74553761Y-78647737D01*
X74554428Y-78706630D01*
X74513403Y-78792153D01*
X74495451Y-78819294D01*
X74451819Y-78886276D01*
X74421928Y-78939591D01*
X74415487Y-78955428D01*
X74432712Y-78956849D01*
X74486122Y-78936695D01*
X74567722Y-78898470D01*
X74669516Y-78845674D01*
X74683984Y-78837830D01*
X74903599Y-78729761D01*
X75158607Y-78626196D01*
X75455190Y-78524733D01*
X75617142Y-78475180D01*
X75711354Y-78447302D01*
X75431200Y-78334950D01*
X75240054Y-78263752D01*
X75035620Y-78197103D01*
X74828645Y-78137759D01*
X74629881Y-78088476D01*
G36*
X89180515Y-86498159D02*
G01*
X89104034Y-86495891D01*
X88995913Y-86494356D01*
X88865733Y-86493717D01*
X88790395Y-86493799D01*
X88482787Y-86494246D01*
X88218026Y-86492893D01*
X87988163Y-86488833D01*
X87785254Y-86481162D01*
X87601354Y-86468972D01*
X87428515Y-86451358D01*
X87258792Y-86427414D01*
X87084238Y-86396234D01*
X86896907Y-86356912D01*
X86688854Y-86308542D01*
X86452131Y-86250218D01*
X86285791Y-86208231D01*
X85419336Y-85988399D01*
X85539124Y-86345101D01*
X85658913Y-86701803D01*
X85908814Y-86848680D01*
X86158508Y-86991923D01*
X86379868Y-87110141D01*
X86585334Y-87208614D01*
X86787340Y-87292625D01*
X86998322Y-87367457D01*
X87230719Y-87438389D01*
X87419806Y-87490416D01*
X87599747Y-87537236D01*
X87740826Y-87571185D01*
X87852800Y-87594119D01*
X87945427Y-87607889D01*
X88028464Y-87614350D01*
X88078124Y-87615492D01*
X88307860Y-87600596D01*
X88506691Y-87550893D01*
X88680173Y-87463007D01*
X88833857Y-87333557D01*
X88973297Y-87159163D01*
X89060150Y-87017934D01*
X89113207Y-86913236D01*
X89159659Y-86802726D01*
X89196495Y-86696404D01*
X89220704Y-86604265D01*
X89229277Y-86536308D01*
X89219205Y-86502532D01*
X89215776Y-86500998D01*
X89180515Y-86498159D01*
G37*
X89180515Y-86498159D02*
X89104034Y-86495891D01*
X88995913Y-86494356D01*
X88865733Y-86493717D01*
X88790395Y-86493799D01*
X88482787Y-86494246D01*
X88218026Y-86492893D01*
X87988163Y-86488833D01*
X87785254Y-86481162D01*
X87601354Y-86468972D01*
X87428515Y-86451358D01*
X87258792Y-86427414D01*
X87084238Y-86396234D01*
X86896907Y-86356912D01*
X86688854Y-86308542D01*
X86452131Y-86250218D01*
X86285791Y-86208231D01*
X85419336Y-85988399D01*
X85539124Y-86345101D01*
X85658913Y-86701803D01*
X85908814Y-86848680D01*
X86158508Y-86991923D01*
X86379868Y-87110141D01*
X86585334Y-87208614D01*
X86787340Y-87292625D01*
X86998322Y-87367457D01*
X87230719Y-87438389D01*
X87419806Y-87490416D01*
X87599747Y-87537236D01*
X87740826Y-87571185D01*
X87852800Y-87594119D01*
X87945427Y-87607889D01*
X88028464Y-87614350D01*
X88078124Y-87615492D01*
X88307860Y-87600596D01*
X88506691Y-87550893D01*
X88680173Y-87463007D01*
X88833857Y-87333557D01*
X88973297Y-87159163D01*
X89060150Y-87017934D01*
X89113207Y-86913236D01*
X89159659Y-86802726D01*
X89196495Y-86696404D01*
X89220704Y-86604265D01*
X89229277Y-86536308D01*
X89219205Y-86502532D01*
X89215776Y-86500998D01*
X89180515Y-86498159D01*
G36*
X78528846Y-78778068D02*
G01*
X78250719Y-78713480D01*
X77979827Y-78658193D01*
X77730633Y-78615628D01*
X77575653Y-78595094D01*
X77399678Y-78577677D01*
X77203687Y-78562036D01*
X76998451Y-78548688D01*
X76794741Y-78538152D01*
X76603328Y-78530945D01*
X76434983Y-78527583D01*
X76300477Y-78528584D01*
X76244799Y-78531184D01*
X76091802Y-78551963D01*
X75904461Y-78593429D01*
X75693030Y-78651953D01*
X75467765Y-78723905D01*
X75238925Y-78805656D01*
X75016763Y-78893576D01*
X74811538Y-78984035D01*
X74633505Y-79073406D01*
X74515053Y-79143297D01*
X74437963Y-79195220D01*
X74395028Y-79232413D01*
X74377105Y-79266711D01*
X74375052Y-79309950D01*
X74375934Y-79323384D01*
X74396252Y-79411761D01*
X74446730Y-79515937D01*
X74529711Y-79639219D01*
X74647536Y-79784912D01*
X74802547Y-79956322D01*
X74886469Y-80044186D01*
X75071098Y-80236059D01*
X75224288Y-80399246D01*
X75350822Y-80540680D01*
X75455483Y-80667294D01*
X75543056Y-80786020D01*
X75618321Y-80903792D01*
X75686062Y-81027543D01*
X75751061Y-81164203D01*
X75818102Y-81320709D01*
X75889798Y-81498517D01*
X75948670Y-81646795D01*
X76006169Y-81791348D01*
X76057527Y-81920204D01*
X76097973Y-82021387D01*
X76115785Y-82065738D01*
X76165171Y-82178113D01*
X76220820Y-82281259D01*
X76287427Y-82380124D01*
X76369690Y-82479657D01*
X76472302Y-82584808D01*
X76599962Y-82700524D01*
X76757362Y-82831752D01*
X76949199Y-82983442D01*
X77088172Y-83090457D01*
X77327129Y-83276708D01*
X77526399Y-83440376D01*
X77689705Y-83585262D01*
X77820774Y-83715164D01*
X77923328Y-83833883D01*
X78001090Y-83945220D01*
X78057789Y-84052973D01*
X78076522Y-84098891D01*
X78113748Y-84213396D01*
X78124617Y-84295154D01*
X78109021Y-84354911D01*
X78073528Y-84397645D01*
X78034770Y-84424667D01*
X77990368Y-84432103D01*
X77923349Y-84420946D01*
X77877624Y-84409134D01*
X77788998Y-84380934D01*
X77674516Y-84338799D01*
X77554348Y-84290287D01*
X77513748Y-84272791D01*
X77423567Y-84235730D01*
X77295569Y-84186697D01*
X77140223Y-84129519D01*
X76967991Y-84068020D01*
X76789344Y-84006024D01*
X76711399Y-83979573D01*
X76431637Y-83883730D01*
X76194304Y-83798296D01*
X75992876Y-83720108D01*
X75820825Y-83646007D01*
X75671629Y-83572829D01*
X75538761Y-83497412D01*
X75415696Y-83416595D01*
X75295910Y-83327217D01*
X75194685Y-83244585D01*
X75041753Y-83107201D01*
X74912912Y-82970118D01*
X74801241Y-82823208D01*
X74699819Y-82656341D01*
X74601724Y-82459389D01*
X74505903Y-82236645D01*
X74377980Y-81939754D01*
X74256743Y-81692435D01*
X74142331Y-81494947D01*
X74053582Y-81370226D01*
X74005423Y-81317481D01*
X73937433Y-81252099D01*
X73859215Y-81182189D01*
X73780372Y-81115858D01*
X73710507Y-81061213D01*
X73659223Y-81026360D01*
X73637000Y-81018548D01*
X73632366Y-81047248D01*
X73635150Y-81117801D01*
X73644236Y-81221985D01*
X73658512Y-81351573D01*
X73676860Y-81498343D01*
X73698167Y-81654069D01*
X73721318Y-81810528D01*
X73745199Y-81959495D01*
X73768695Y-82092745D01*
X73790689Y-82202056D01*
X73805902Y-82264732D01*
X73866746Y-82450783D01*
X73952845Y-82665015D01*
X74058148Y-82895604D01*
X74176603Y-83130727D01*
X74302157Y-83358559D01*
X74428757Y-83567277D01*
X74550352Y-83745055D01*
X74590668Y-83797857D01*
X74802954Y-84050692D01*
X75045613Y-84312943D01*
X75308967Y-84575606D01*
X75583339Y-84829676D01*
X75859055Y-85066148D01*
X76126435Y-85276017D01*
X76343803Y-85429330D01*
X76425169Y-85480228D01*
X76534550Y-85544474D01*
X76663351Y-85617449D01*
X76802980Y-85694532D01*
X76944843Y-85771105D01*
X77080343Y-85842550D01*
X77200890Y-85904247D01*
X77297887Y-85951576D01*
X77362741Y-85979918D01*
X77377208Y-85984761D01*
X77407510Y-85971861D01*
X77467187Y-85930103D01*
X77548578Y-85865392D01*
X77644016Y-85783639D01*
X77680970Y-85750601D01*
X77791486Y-85652219D01*
X77872308Y-85584734D01*
X77930083Y-85543553D01*
X77971461Y-85524085D01*
X78003095Y-85521733D01*
X78010136Y-85523249D01*
X78057972Y-85550780D01*
X78074451Y-85580765D01*
X78057657Y-85611266D01*
X78006426Y-85672654D01*
X77923880Y-85761609D01*
X77813140Y-85874813D01*
X77677326Y-86008946D01*
X77615241Y-86069102D01*
X77328590Y-86352316D01*
X77077312Y-86615000D01*
X76863036Y-86855311D01*
X76687389Y-87071409D01*
X76551999Y-87261453D01*
X76529967Y-87296060D01*
X76476673Y-87384762D01*
X76435097Y-87463956D01*
X76399985Y-87546758D01*
X76366085Y-87646280D01*
X76328140Y-87775636D01*
X76306417Y-87854116D01*
X76267486Y-87999450D01*
X76241356Y-88107810D01*
X76226241Y-88190880D01*
X76220351Y-88260346D01*
X76221899Y-88327893D01*
X76226237Y-88378170D01*
X76252985Y-88517655D01*
X76301389Y-88657603D01*
X76364305Y-88781316D01*
X76434587Y-88872097D01*
X76439593Y-88876782D01*
X76524074Y-88929176D01*
X76638918Y-88968989D01*
X76764310Y-88991579D01*
X76880438Y-88992305D01*
X76911549Y-88987345D01*
X77036763Y-88950182D01*
X77165988Y-88890029D01*
X77301411Y-88804657D01*
X77445218Y-88691840D01*
X77599594Y-88549353D01*
X77766727Y-88374968D01*
X77948804Y-88166459D01*
X78148007Y-87921600D01*
X78366526Y-87638164D01*
X78606546Y-87313925D01*
X78750837Y-87114153D01*
X78882217Y-86931216D01*
X78987607Y-86785643D01*
X79070398Y-86673351D01*
X79133980Y-86590262D01*
X79181747Y-86532295D01*
X79217086Y-86495374D01*
X79243390Y-86475416D01*
X79264050Y-86468342D01*
X79282457Y-86470073D01*
X79285504Y-86470920D01*
X79311130Y-86498283D01*
X79353283Y-86566683D01*
X79409244Y-86670142D01*
X79476301Y-86802681D01*
X79551736Y-86958321D01*
X79632835Y-87131087D01*
X79716880Y-87314997D01*
X79801157Y-87504075D01*
X79882950Y-87692343D01*
X79959544Y-87873822D01*
X80028221Y-88042533D01*
X80086268Y-88192501D01*
X80130968Y-88317744D01*
X80146678Y-88366644D01*
X80238893Y-88741479D01*
X80282456Y-89103554D01*
X80277434Y-89454495D01*
X80223892Y-89795927D01*
X80208348Y-89859440D01*
X80168293Y-90005799D01*
X80130176Y-90114087D01*
X80085597Y-90195974D01*
X80026159Y-90263125D01*
X79943462Y-90327208D01*
X79829109Y-90399891D01*
X79811707Y-90410442D01*
X79684420Y-90496386D01*
X79606124Y-90571687D01*
X79576545Y-90638083D01*
X79595403Y-90697307D01*
X79662423Y-90751096D01*
X79750905Y-90791523D01*
X79894080Y-90846017D01*
X80216302Y-90653784D01*
X80376733Y-90554195D01*
X80508221Y-90461159D01*
X80615772Y-90367245D01*
X80704393Y-90265026D01*
X80779090Y-90147074D01*
X80844871Y-90005960D01*
X80906741Y-89834254D01*
X80969707Y-89624531D01*
X81010703Y-89475087D01*
X81074989Y-89214291D01*
X81118400Y-88980984D01*
X81141130Y-88762570D01*
X81143368Y-88546450D01*
X81125308Y-88320029D01*
X81087139Y-88070709D01*
X81035893Y-87816973D01*
X80989711Y-87618609D01*
X80938054Y-87424184D01*
X80877999Y-87224807D01*
X80806630Y-87011584D01*
X80721025Y-86775625D01*
X80618264Y-86508039D01*
X80546952Y-86328092D01*
X80473682Y-86142009D01*
X80419728Y-85997893D01*
X80383677Y-85891336D01*
X80364113Y-85817925D01*
X80359621Y-85773251D01*
X80363970Y-85757754D01*
X80406324Y-85725113D01*
X80457554Y-85738284D01*
X80512435Y-85794278D01*
X80555093Y-85867147D01*
X80584220Y-85931113D01*
X80627830Y-86032114D01*
X80681640Y-86159978D01*
X80741365Y-86304533D01*
X80797710Y-86443171D01*
X80974526Y-86910689D01*
X81114764Y-87347367D01*
X81218722Y-87757307D01*
X81286698Y-88144610D01*
X81318988Y-88513382D01*
X81315891Y-88867723D01*
X81277700Y-89211736D01*
X81204716Y-89549524D01*
X81097233Y-89885189D01*
X81054768Y-89994891D01*
X80952959Y-90211760D01*
X80832119Y-90397199D01*
X80684455Y-90559696D01*
X80502173Y-90707740D01*
X80277479Y-90849815D01*
X80261337Y-90858979D01*
X80153243Y-90923162D01*
X80085100Y-90973302D01*
X80050551Y-91016238D01*
X80043238Y-91058811D01*
X80049299Y-91087089D01*
X80081665Y-91112161D01*
X80154958Y-91131236D01*
X80259562Y-91143485D01*
X80385864Y-91148071D01*
X80524256Y-91144162D01*
X80618288Y-91136444D01*
X80744348Y-91117376D01*
X80872266Y-91084851D01*
X81012150Y-91035277D01*
X81174110Y-90965066D01*
X81368258Y-90870625D01*
X81371878Y-90868799D01*
X81487772Y-90806587D01*
X81576193Y-90747452D01*
X81655123Y-90677193D01*
X81742543Y-90581614D01*
X81757276Y-90564478D01*
X81839387Y-90465115D01*
X81896538Y-90384372D01*
X81939120Y-90304385D01*
X81977525Y-90207291D01*
X81995851Y-90154328D01*
X82042989Y-89999201D01*
X82091865Y-89811040D01*
X82139808Y-89602963D01*
X82184142Y-89388089D01*
X82222196Y-89179537D01*
X82251296Y-88990426D01*
X82268768Y-88833873D01*
X82270790Y-88805054D01*
X82274045Y-88360312D01*
X82232157Y-87899582D01*
X82146171Y-87428029D01*
X82017131Y-86950819D01*
X81846083Y-86473114D01*
X81756147Y-86260405D01*
X81690651Y-86105289D01*
X81650000Y-85989965D01*
X81633414Y-85910365D01*
X81640109Y-85862417D01*
X81669305Y-85842054D01*
X81675594Y-85841126D01*
X81727491Y-85852901D01*
X81780781Y-85901978D01*
X81839440Y-85992898D01*
X81882948Y-86077868D01*
X82040540Y-86432030D01*
X82168561Y-86781567D01*
X82272894Y-87144509D01*
X82359008Y-87536716D01*
X82416799Y-87881854D01*
X82452190Y-88205478D01*
X82464657Y-88517735D01*
X82453675Y-88828775D01*
X82418720Y-89148740D01*
X82359266Y-89487779D01*
X82274787Y-89856037D01*
X82230154Y-90027701D01*
X82113176Y-90464350D01*
X82162945Y-90667590D01*
X82198238Y-90898491D01*
X82195435Y-91049776D01*
X82186142Y-91129191D01*
X82172575Y-91197135D01*
X82150325Y-91266228D01*
X82114979Y-91349083D01*
X82062126Y-91458317D01*
X82030704Y-91520928D01*
X81959884Y-91663044D01*
X81910324Y-91768474D01*
X81879367Y-91845345D01*
X81864350Y-91901783D01*
X81862613Y-91945917D01*
X81871496Y-91985876D01*
X81875110Y-91996289D01*
X81896836Y-92036336D01*
X81935636Y-92063833D01*
X82005680Y-92087406D01*
X82039030Y-92096033D01*
X82154631Y-92122213D01*
X82236755Y-92129310D01*
X82300562Y-92112903D01*
X82361215Y-92068572D01*
X82433871Y-91991897D01*
X82446951Y-91977096D01*
X82567602Y-91821606D01*
X82678201Y-91638908D01*
X82781054Y-91423862D01*
X82878462Y-91171325D01*
X82972727Y-90876157D01*
X83027622Y-90680602D01*
X83123726Y-90300468D01*
X83199419Y-89945515D01*
X83254510Y-89608735D01*
X83288803Y-89283121D01*
X83302108Y-88961663D01*
X83294229Y-88637353D01*
X83264973Y-88303183D01*
X83214147Y-87952145D01*
X83141558Y-87577229D01*
X83047012Y-87171429D01*
X82930315Y-86727736D01*
X82917229Y-86680324D01*
X82870770Y-86507751D01*
X82831730Y-86353039D01*
X82801647Y-86223024D01*
X82782058Y-86124552D01*
X82774500Y-86064462D01*
X82775787Y-86050765D01*
X82812460Y-86014922D01*
X82864426Y-86014905D01*
X82913501Y-86048330D01*
X82928371Y-86070769D01*
X82951480Y-86128675D01*
X82984177Y-86228355D01*
X83024410Y-86362132D01*
X83070129Y-86522328D01*
X83119285Y-86701269D01*
X83169827Y-86891278D01*
X83219704Y-87084680D01*
X83266867Y-87273796D01*
X83309266Y-87450954D01*
X83344851Y-87608473D01*
X83365548Y-87707663D01*
X83434887Y-88114065D01*
X83475705Y-88499759D01*
X83488578Y-88881010D01*
X83474090Y-89274083D01*
X83435620Y-89672345D01*
X83417240Y-89784971D01*
X83384031Y-89943431D01*
X83336598Y-90145157D01*
X83275545Y-90387583D01*
X83201475Y-90668142D01*
X83199856Y-90674160D01*
X83127686Y-90937925D01*
X83064215Y-91158627D01*
X83006839Y-91342728D01*
X82952956Y-91496690D01*
X82899963Y-91626977D01*
X82845257Y-91740053D01*
X82786235Y-91842378D01*
X82720296Y-91940419D01*
X82654533Y-92028209D01*
X82580631Y-92126990D01*
X82538674Y-92195266D01*
X82526684Y-92240352D01*
X82542685Y-92269561D01*
X82583826Y-92289900D01*
X82649345Y-92301147D01*
X82740755Y-92303203D01*
X82804933Y-92298892D01*
X82968631Y-92258639D01*
X83140869Y-92175115D01*
X83313782Y-92053129D01*
X83479504Y-91897486D01*
X83502168Y-91872745D01*
X83615529Y-91741438D01*
X83712024Y-91616060D01*
X83795250Y-91488981D01*
X83868802Y-91352572D01*
X83936272Y-91199204D01*
X84001256Y-91021247D01*
X84067350Y-90811070D01*
X84138148Y-90561046D01*
X84162328Y-90471582D01*
X84227257Y-90222154D01*
X84277867Y-90008044D01*
X84316033Y-89816414D01*
X84343625Y-89634433D01*
X84362517Y-89449264D01*
X84374583Y-89248074D01*
X84381694Y-89018028D01*
X84382811Y-88960481D01*
X84379385Y-88499555D01*
X84350494Y-88072442D01*
X84293965Y-87667809D01*
X84207620Y-87274321D01*
X84089284Y-86880644D01*
X83936783Y-86475444D01*
X83879876Y-86340254D01*
X83827093Y-86212872D01*
X83795506Y-86123072D01*
X83783021Y-86063284D01*
X83787552Y-86025941D01*
X83791162Y-86019124D01*
X83828857Y-85988511D01*
X83884100Y-85997785D01*
X83927074Y-86036074D01*
X83979929Y-86117117D01*
X84040207Y-86234388D01*
X84105450Y-86381363D01*
X84173201Y-86551514D01*
X84241000Y-86738318D01*
X84306391Y-86935247D01*
X84366915Y-87135779D01*
X84420114Y-87333387D01*
X84463530Y-87521546D01*
X84469930Y-87552971D01*
X84530492Y-87941888D01*
X84565295Y-88361883D01*
X84574626Y-88800416D01*
X84558776Y-89244950D01*
X84518035Y-89682950D01*
X84452691Y-90101879D01*
X84405990Y-90321228D01*
X84369027Y-90479547D01*
X84343217Y-90596069D01*
X84327600Y-90678331D01*
X84321223Y-90733873D01*
X84323125Y-90770233D01*
X84332349Y-90794950D01*
X84343823Y-90810768D01*
X84383029Y-90850213D01*
X84419594Y-90860990D01*
X84465298Y-90840738D01*
X84531917Y-90787096D01*
X84552342Y-90768977D01*
X84668617Y-90664978D01*
X84835995Y-89931667D01*
X84880581Y-89733421D01*
X84922830Y-89540088D01*
X84960935Y-89360375D01*
X84993085Y-89202985D01*
X85017469Y-89076625D01*
X85032278Y-88990000D01*
X85033301Y-88982861D01*
X85057413Y-88757886D01*
X85065660Y-88535036D01*
X85057121Y-88306868D01*
X85030871Y-88065943D01*
X84985988Y-87804818D01*
X84921549Y-87516052D01*
X84836631Y-87192204D01*
X84791424Y-87032814D01*
X84740517Y-86854819D01*
X84703437Y-86719135D01*
X84679063Y-86619525D01*
X84666272Y-86549749D01*
X84663946Y-86503569D01*
X84670962Y-86474745D01*
X84686201Y-86457039D01*
X84687776Y-86455892D01*
X84722450Y-86437842D01*
X84754549Y-86438121D01*
X84785874Y-86460685D01*
X84818218Y-86509491D01*
X84853380Y-86588495D01*
X84893156Y-86701657D01*
X84939343Y-86852930D01*
X84993737Y-87046275D01*
X85049071Y-87251550D01*
X85117100Y-87516940D01*
X85171620Y-87756401D01*
X85212486Y-87977054D01*
X85239559Y-88186019D01*
X85252692Y-88390417D01*
X85251745Y-88597368D01*
X85236573Y-88813993D01*
X85207034Y-89047412D01*
X85162985Y-89304746D01*
X85104282Y-89593114D01*
X85030783Y-89919639D01*
X84992189Y-90083676D01*
X84942716Y-90295735D01*
X84906338Y-90460712D01*
X84882691Y-90580512D01*
X84871412Y-90657038D01*
X84872140Y-90692195D01*
X84875694Y-90695101D01*
X84933350Y-90671327D01*
X85008193Y-90608271D01*
X85095304Y-90512388D01*
X85189765Y-90390135D01*
X85286653Y-90247965D01*
X85381054Y-90092335D01*
X85468044Y-89929700D01*
X85484416Y-89896286D01*
X85565379Y-89703157D01*
X85638782Y-89480714D01*
X85700516Y-89245458D01*
X85746478Y-89013890D01*
X85772562Y-88802511D01*
X85776646Y-88721859D01*
X85774487Y-88355716D01*
X85749525Y-88003608D01*
X85699844Y-87653744D01*
X85623532Y-87294332D01*
X85518673Y-86913583D01*
X85445765Y-86683604D01*
X85391368Y-86518447D01*
X85339253Y-86359494D01*
X85292658Y-86216676D01*
X85254820Y-86099923D01*
X85228977Y-86019164D01*
X85225049Y-86006655D01*
X85197519Y-85902761D01*
X85181510Y-85797963D01*
X85177515Y-85684166D01*
X85186025Y-85553275D01*
X85207534Y-85397192D01*
X85242534Y-85207823D01*
X85286237Y-85001049D01*
X85335019Y-84772946D01*
X85342151Y-84736159D01*
X81994912Y-83839270D01*
X81937688Y-84016086D01*
X81893510Y-84119327D01*
X81776258Y-84307885D01*
X81626302Y-84461296D01*
X81448865Y-84578203D01*
X81249174Y-84657251D01*
X81032453Y-84697084D01*
X80803928Y-84696346D01*
X80568824Y-84653682D01*
X80332367Y-84567737D01*
X80273982Y-84539497D01*
X80082662Y-84421690D01*
X79908534Y-84275209D01*
X79764853Y-84112102D01*
X79705292Y-84022549D01*
X79616878Y-83838806D01*
X79571692Y-83656788D01*
X79569414Y-83468437D01*
X79609722Y-83265694D01*
X79668337Y-83097777D01*
X79784369Y-82859994D01*
X79924495Y-82665634D01*
X80091257Y-82512115D01*
X80287200Y-82396857D01*
X80405640Y-82349755D01*
X80563899Y-82300813D01*
X80697880Y-82273960D01*
X80824341Y-82268832D01*
X80960041Y-82285065D01*
X81121734Y-82322296D01*
X81162653Y-82333321D01*
X81294388Y-82371064D01*
X81390974Y-82403904D01*
X81466821Y-82438089D01*
X81536342Y-82479865D01*
X81592853Y-82519831D01*
X81762481Y-82666013D01*
X81901195Y-82829481D01*
X82002475Y-83001249D01*
X82057237Y-83160013D01*
X82071428Y-83297586D01*
X82064175Y-83466000D01*
X82037872Y-83651234D01*
X81994912Y-83839270D01*
X85342151Y-84736159D01*
X85371387Y-84585329D01*
X85395814Y-84429545D01*
X85408780Y-84296944D01*
X85410765Y-84178872D01*
X85402244Y-84066681D01*
X85383696Y-83951717D01*
X85355600Y-83825331D01*
X85352001Y-83810583D01*
X85277541Y-83566561D01*
X85178694Y-83353548D01*
X85048158Y-83159657D01*
X84878633Y-82973005D01*
X84782613Y-82883689D01*
X84633145Y-82758011D01*
X84494130Y-82659649D01*
X84353734Y-82583289D01*
X84200121Y-82523615D01*
X84021457Y-82475311D01*
X83805906Y-82433061D01*
X83763337Y-82425864D01*
X83622219Y-82403168D01*
X83516608Y-82389366D01*
X83432010Y-82384369D01*
X83353934Y-82388089D01*
X83267887Y-82400436D01*
X83159376Y-82421320D01*
X83155375Y-82422127D01*
X82891236Y-82475464D01*
X82977552Y-82587402D01*
X83066024Y-82690121D01*
X83160604Y-82770710D01*
X83279352Y-82843545D01*
X83336369Y-82873081D01*
X83425008Y-82925931D01*
X83467050Y-82974883D01*
X83465857Y-83025253D01*
X83449952Y-83052831D01*
X83427470Y-83069700D01*
X83388275Y-83069870D01*
X83320678Y-83052120D01*
X83264890Y-83033491D01*
X83154528Y-82988705D01*
X83057965Y-82932460D01*
X82966176Y-82857034D01*
X82870136Y-82754711D01*
X82760823Y-82617768D01*
X82728371Y-82574542D01*
X82551321Y-82355869D01*
X82365517Y-82167934D01*
X82160817Y-82002675D01*
X81927077Y-81852035D01*
X81654154Y-81707952D01*
X81612692Y-81688060D01*
X81362031Y-81583776D01*
X81122585Y-81517209D01*
X80882026Y-81486925D01*
X80628029Y-81491486D01*
X80348267Y-81529456D01*
X80311194Y-81536417D01*
X80093732Y-81588466D01*
X79906670Y-81657953D01*
X79738407Y-81751721D01*
X79577342Y-81876603D01*
X79411875Y-82039440D01*
X79358555Y-82097931D01*
X79252939Y-82219542D01*
X79169156Y-82326424D01*
X79101453Y-82429466D01*
X79044078Y-82539553D01*
X78991277Y-82667572D01*
X78937297Y-82824409D01*
X78883839Y-82996275D01*
X78835826Y-83154229D01*
X78799632Y-83269959D01*
X78772453Y-83349889D01*
X78751480Y-83400446D01*
X78733909Y-83428052D01*
X78716934Y-83439133D01*
X78697749Y-83440114D01*
X78690353Y-83439304D01*
X78653389Y-83424756D01*
X78632331Y-83388443D01*
X78627346Y-83325035D01*
X78638603Y-83229203D01*
X78666267Y-83095616D01*
X78706164Y-82935519D01*
X78753315Y-82764472D01*
X78796258Y-82631458D01*
X78839306Y-82524430D01*
X78886599Y-82431650D01*
X79003817Y-82247708D01*
X79144825Y-82063350D01*
X79301003Y-81887461D01*
X79463727Y-81728934D01*
X79624378Y-81596654D01*
X79774333Y-81499511D01*
X79806924Y-81482821D01*
X79911190Y-81442271D01*
X80051572Y-81401213D01*
X80213521Y-81362807D01*
X80382484Y-81330209D01*
X80543911Y-81306577D01*
X80669424Y-81295646D01*
X80868808Y-81294291D01*
X81056489Y-81311936D01*
X81243726Y-81351326D01*
X81441775Y-81415207D01*
X81661895Y-81506327D01*
X81802872Y-81572140D01*
X82072120Y-81715543D01*
X82312136Y-81874746D01*
X82539509Y-82061667D01*
X82705067Y-82220476D01*
X82787943Y-82304314D01*
X83044343Y-82252276D01*
X83300744Y-82200237D01*
X83231771Y-82051903D01*
X83166132Y-81924150D01*
X83076793Y-81769096D01*
X82971726Y-81599159D01*
X82858906Y-81426753D01*
X82746306Y-81264295D01*
X82641899Y-81124202D01*
X82611787Y-81086450D01*
X82497773Y-80957848D01*
X82351210Y-80809838D01*
X82181888Y-80651084D01*
X81999594Y-80490251D01*
X81814118Y-80336007D01*
X81635247Y-80197018D01*
X81490912Y-80094095D01*
X81147382Y-79877254D01*
X80761680Y-79661180D01*
X80342319Y-79450074D01*
X79897812Y-79248140D01*
X79436669Y-79059583D01*
X79262020Y-78993487D01*
X79048959Y-78921488D01*
X78799747Y-78848544D01*
X78528846Y-78778068D01*
G37*
X78528846Y-78778068D02*
X78250719Y-78713480D01*
X77979827Y-78658193D01*
X77730633Y-78615628D01*
X77575653Y-78595094D01*
X77399678Y-78577677D01*
X77203687Y-78562036D01*
X76998451Y-78548688D01*
X76794741Y-78538152D01*
X76603328Y-78530945D01*
X76434983Y-78527583D01*
X76300477Y-78528584D01*
X76244799Y-78531184D01*
X76091802Y-78551963D01*
X75904461Y-78593429D01*
X75693030Y-78651953D01*
X75467765Y-78723905D01*
X75238925Y-78805656D01*
X75016763Y-78893576D01*
X74811538Y-78984035D01*
X74633505Y-79073406D01*
X74515053Y-79143297D01*
X74437963Y-79195220D01*
X74395028Y-79232413D01*
X74377105Y-79266711D01*
X74375052Y-79309950D01*
X74375934Y-79323384D01*
X74396252Y-79411761D01*
X74446730Y-79515937D01*
X74529711Y-79639219D01*
X74647536Y-79784912D01*
X74802547Y-79956322D01*
X74886469Y-80044186D01*
X75071098Y-80236059D01*
X75224288Y-80399246D01*
X75350822Y-80540680D01*
X75455483Y-80667294D01*
X75543056Y-80786020D01*
X75618321Y-80903792D01*
X75686062Y-81027543D01*
X75751061Y-81164203D01*
X75818102Y-81320709D01*
X75889798Y-81498517D01*
X75948670Y-81646795D01*
X76006169Y-81791348D01*
X76057527Y-81920204D01*
X76097973Y-82021387D01*
X76115785Y-82065738D01*
X76165171Y-82178113D01*
X76220820Y-82281259D01*
X76287427Y-82380124D01*
X76369690Y-82479657D01*
X76472302Y-82584808D01*
X76599962Y-82700524D01*
X76757362Y-82831752D01*
X76949199Y-82983442D01*
X77088172Y-83090457D01*
X77327129Y-83276708D01*
X77526399Y-83440376D01*
X77689705Y-83585262D01*
X77820774Y-83715164D01*
X77923328Y-83833883D01*
X78001090Y-83945220D01*
X78057789Y-84052973D01*
X78076522Y-84098891D01*
X78113748Y-84213396D01*
X78124617Y-84295154D01*
X78109021Y-84354911D01*
X78073528Y-84397645D01*
X78034770Y-84424667D01*
X77990368Y-84432103D01*
X77923349Y-84420946D01*
X77877624Y-84409134D01*
X77788998Y-84380934D01*
X77674516Y-84338799D01*
X77554348Y-84290287D01*
X77513748Y-84272791D01*
X77423567Y-84235730D01*
X77295569Y-84186697D01*
X77140223Y-84129519D01*
X76967991Y-84068020D01*
X76789344Y-84006024D01*
X76711399Y-83979573D01*
X76431637Y-83883730D01*
X76194304Y-83798296D01*
X75992876Y-83720108D01*
X75820825Y-83646007D01*
X75671629Y-83572829D01*
X75538761Y-83497412D01*
X75415696Y-83416595D01*
X75295910Y-83327217D01*
X75194685Y-83244585D01*
X75041753Y-83107201D01*
X74912912Y-82970118D01*
X74801241Y-82823208D01*
X74699819Y-82656341D01*
X74601724Y-82459389D01*
X74505903Y-82236645D01*
X74377980Y-81939754D01*
X74256743Y-81692435D01*
X74142331Y-81494947D01*
X74053582Y-81370226D01*
X74005423Y-81317481D01*
X73937433Y-81252099D01*
X73859215Y-81182189D01*
X73780372Y-81115858D01*
X73710507Y-81061213D01*
X73659223Y-81026360D01*
X73637000Y-81018548D01*
X73632366Y-81047248D01*
X73635150Y-81117801D01*
X73644236Y-81221985D01*
X73658512Y-81351573D01*
X73676860Y-81498343D01*
X73698167Y-81654069D01*
X73721318Y-81810528D01*
X73745199Y-81959495D01*
X73768695Y-82092745D01*
X73790689Y-82202056D01*
X73805902Y-82264732D01*
X73866746Y-82450783D01*
X73952845Y-82665015D01*
X74058148Y-82895604D01*
X74176603Y-83130727D01*
X74302157Y-83358559D01*
X74428757Y-83567277D01*
X74550352Y-83745055D01*
X74590668Y-83797857D01*
X74802954Y-84050692D01*
X75045613Y-84312943D01*
X75308967Y-84575606D01*
X75583339Y-84829676D01*
X75859055Y-85066148D01*
X76126435Y-85276017D01*
X76343803Y-85429330D01*
X76425169Y-85480228D01*
X76534550Y-85544474D01*
X76663351Y-85617449D01*
X76802980Y-85694532D01*
X76944843Y-85771105D01*
X77080343Y-85842550D01*
X77200890Y-85904247D01*
X77297887Y-85951576D01*
X77362741Y-85979918D01*
X77377208Y-85984761D01*
X77407510Y-85971861D01*
X77467187Y-85930103D01*
X77548578Y-85865392D01*
X77644016Y-85783639D01*
X77680970Y-85750601D01*
X77791486Y-85652219D01*
X77872308Y-85584734D01*
X77930083Y-85543553D01*
X77971461Y-85524085D01*
X78003095Y-85521733D01*
X78010136Y-85523249D01*
X78057972Y-85550780D01*
X78074451Y-85580765D01*
X78057657Y-85611266D01*
X78006426Y-85672654D01*
X77923880Y-85761609D01*
X77813140Y-85874813D01*
X77677326Y-86008946D01*
X77615241Y-86069102D01*
X77328590Y-86352316D01*
X77077312Y-86615000D01*
X76863036Y-86855311D01*
X76687389Y-87071409D01*
X76551999Y-87261453D01*
X76529967Y-87296060D01*
X76476673Y-87384762D01*
X76435097Y-87463956D01*
X76399985Y-87546758D01*
X76366085Y-87646280D01*
X76328140Y-87775636D01*
X76306417Y-87854116D01*
X76267486Y-87999450D01*
X76241356Y-88107810D01*
X76226241Y-88190880D01*
X76220351Y-88260346D01*
X76221899Y-88327893D01*
X76226237Y-88378170D01*
X76252985Y-88517655D01*
X76301389Y-88657603D01*
X76364305Y-88781316D01*
X76434587Y-88872097D01*
X76439593Y-88876782D01*
X76524074Y-88929176D01*
X76638918Y-88968989D01*
X76764310Y-88991579D01*
X76880438Y-88992305D01*
X76911549Y-88987345D01*
X77036763Y-88950182D01*
X77165988Y-88890029D01*
X77301411Y-88804657D01*
X77445218Y-88691840D01*
X77599594Y-88549353D01*
X77766727Y-88374968D01*
X77948804Y-88166459D01*
X78148007Y-87921600D01*
X78366526Y-87638164D01*
X78606546Y-87313925D01*
X78750837Y-87114153D01*
X78882217Y-86931216D01*
X78987607Y-86785643D01*
X79070398Y-86673351D01*
X79133980Y-86590262D01*
X79181747Y-86532295D01*
X79217086Y-86495374D01*
X79243390Y-86475416D01*
X79264050Y-86468342D01*
X79282457Y-86470073D01*
X79285504Y-86470920D01*
X79311130Y-86498283D01*
X79353283Y-86566683D01*
X79409244Y-86670142D01*
X79476301Y-86802681D01*
X79551736Y-86958321D01*
X79632835Y-87131087D01*
X79716880Y-87314997D01*
X79801157Y-87504075D01*
X79882950Y-87692343D01*
X79959544Y-87873822D01*
X80028221Y-88042533D01*
X80086268Y-88192501D01*
X80130968Y-88317744D01*
X80146678Y-88366644D01*
X80238893Y-88741479D01*
X80282456Y-89103554D01*
X80277434Y-89454495D01*
X80223892Y-89795927D01*
X80208348Y-89859440D01*
X80168293Y-90005799D01*
X80130176Y-90114087D01*
X80085597Y-90195974D01*
X80026159Y-90263125D01*
X79943462Y-90327208D01*
X79829109Y-90399891D01*
X79811707Y-90410442D01*
X79684420Y-90496386D01*
X79606124Y-90571687D01*
X79576545Y-90638083D01*
X79595403Y-90697307D01*
X79662423Y-90751096D01*
X79750905Y-90791523D01*
X79894080Y-90846017D01*
X80216302Y-90653784D01*
X80376733Y-90554195D01*
X80508221Y-90461159D01*
X80615772Y-90367245D01*
X80704393Y-90265026D01*
X80779090Y-90147074D01*
X80844871Y-90005960D01*
X80906741Y-89834254D01*
X80969707Y-89624531D01*
X81010703Y-89475087D01*
X81074989Y-89214291D01*
X81118400Y-88980984D01*
X81141130Y-88762570D01*
X81143368Y-88546450D01*
X81125308Y-88320029D01*
X81087139Y-88070709D01*
X81035893Y-87816973D01*
X80989711Y-87618609D01*
X80938054Y-87424184D01*
X80877999Y-87224807D01*
X80806630Y-87011584D01*
X80721025Y-86775625D01*
X80618264Y-86508039D01*
X80546952Y-86328092D01*
X80473682Y-86142009D01*
X80419728Y-85997893D01*
X80383677Y-85891336D01*
X80364113Y-85817925D01*
X80359621Y-85773251D01*
X80363970Y-85757754D01*
X80406324Y-85725113D01*
X80457554Y-85738284D01*
X80512435Y-85794278D01*
X80555093Y-85867147D01*
X80584220Y-85931113D01*
X80627830Y-86032114D01*
X80681640Y-86159978D01*
X80741365Y-86304533D01*
X80797710Y-86443171D01*
X80974526Y-86910689D01*
X81114764Y-87347367D01*
X81218722Y-87757307D01*
X81286698Y-88144610D01*
X81318988Y-88513382D01*
X81315891Y-88867723D01*
X81277700Y-89211736D01*
X81204716Y-89549524D01*
X81097233Y-89885189D01*
X81054768Y-89994891D01*
X80952959Y-90211760D01*
X80832119Y-90397199D01*
X80684455Y-90559696D01*
X80502173Y-90707740D01*
X80277479Y-90849815D01*
X80261337Y-90858979D01*
X80153243Y-90923162D01*
X80085100Y-90973302D01*
X80050551Y-91016238D01*
X80043238Y-91058811D01*
X80049299Y-91087089D01*
X80081665Y-91112161D01*
X80154958Y-91131236D01*
X80259562Y-91143485D01*
X80385864Y-91148071D01*
X80524256Y-91144162D01*
X80618288Y-91136444D01*
X80744348Y-91117376D01*
X80872266Y-91084851D01*
X81012150Y-91035277D01*
X81174110Y-90965066D01*
X81368258Y-90870625D01*
X81371878Y-90868799D01*
X81487772Y-90806587D01*
X81576193Y-90747452D01*
X81655123Y-90677193D01*
X81742543Y-90581614D01*
X81757276Y-90564478D01*
X81839387Y-90465115D01*
X81896538Y-90384372D01*
X81939120Y-90304385D01*
X81977525Y-90207291D01*
X81995851Y-90154328D01*
X82042989Y-89999201D01*
X82091865Y-89811040D01*
X82139808Y-89602963D01*
X82184142Y-89388089D01*
X82222196Y-89179537D01*
X82251296Y-88990426D01*
X82268768Y-88833873D01*
X82270790Y-88805054D01*
X82274045Y-88360312D01*
X82232157Y-87899582D01*
X82146171Y-87428029D01*
X82017131Y-86950819D01*
X81846083Y-86473114D01*
X81756147Y-86260405D01*
X81690651Y-86105289D01*
X81650000Y-85989965D01*
X81633414Y-85910365D01*
X81640109Y-85862417D01*
X81669305Y-85842054D01*
X81675594Y-85841126D01*
X81727491Y-85852901D01*
X81780781Y-85901978D01*
X81839440Y-85992898D01*
X81882948Y-86077868D01*
X82040540Y-86432030D01*
X82168561Y-86781567D01*
X82272894Y-87144509D01*
X82359008Y-87536716D01*
X82416799Y-87881854D01*
X82452190Y-88205478D01*
X82464657Y-88517735D01*
X82453675Y-88828775D01*
X82418720Y-89148740D01*
X82359266Y-89487779D01*
X82274787Y-89856037D01*
X82230154Y-90027701D01*
X82113176Y-90464350D01*
X82162945Y-90667590D01*
X82198238Y-90898491D01*
X82195435Y-91049776D01*
X82186142Y-91129191D01*
X82172575Y-91197135D01*
X82150325Y-91266228D01*
X82114979Y-91349083D01*
X82062126Y-91458317D01*
X82030704Y-91520928D01*
X81959884Y-91663044D01*
X81910324Y-91768474D01*
X81879367Y-91845345D01*
X81864350Y-91901783D01*
X81862613Y-91945917D01*
X81871496Y-91985876D01*
X81875110Y-91996289D01*
X81896836Y-92036336D01*
X81935636Y-92063833D01*
X82005680Y-92087406D01*
X82039030Y-92096033D01*
X82154631Y-92122213D01*
X82236755Y-92129310D01*
X82300562Y-92112903D01*
X82361215Y-92068572D01*
X82433871Y-91991897D01*
X82446951Y-91977096D01*
X82567602Y-91821606D01*
X82678201Y-91638908D01*
X82781054Y-91423862D01*
X82878462Y-91171325D01*
X82972727Y-90876157D01*
X83027622Y-90680602D01*
X83123726Y-90300468D01*
X83199419Y-89945515D01*
X83254510Y-89608735D01*
X83288803Y-89283121D01*
X83302108Y-88961663D01*
X83294229Y-88637353D01*
X83264973Y-88303183D01*
X83214147Y-87952145D01*
X83141558Y-87577229D01*
X83047012Y-87171429D01*
X82930315Y-86727736D01*
X82917229Y-86680324D01*
X82870770Y-86507751D01*
X82831730Y-86353039D01*
X82801647Y-86223024D01*
X82782058Y-86124552D01*
X82774500Y-86064462D01*
X82775787Y-86050765D01*
X82812460Y-86014922D01*
X82864426Y-86014905D01*
X82913501Y-86048330D01*
X82928371Y-86070769D01*
X82951480Y-86128675D01*
X82984177Y-86228355D01*
X83024410Y-86362132D01*
X83070129Y-86522328D01*
X83119285Y-86701269D01*
X83169827Y-86891278D01*
X83219704Y-87084680D01*
X83266867Y-87273796D01*
X83309266Y-87450954D01*
X83344851Y-87608473D01*
X83365548Y-87707663D01*
X83434887Y-88114065D01*
X83475705Y-88499759D01*
X83488578Y-88881010D01*
X83474090Y-89274083D01*
X83435620Y-89672345D01*
X83417240Y-89784971D01*
X83384031Y-89943431D01*
X83336598Y-90145157D01*
X83275545Y-90387583D01*
X83201475Y-90668142D01*
X83199856Y-90674160D01*
X83127686Y-90937925D01*
X83064215Y-91158627D01*
X83006839Y-91342728D01*
X82952956Y-91496690D01*
X82899963Y-91626977D01*
X82845257Y-91740053D01*
X82786235Y-91842378D01*
X82720296Y-91940419D01*
X82654533Y-92028209D01*
X82580631Y-92126990D01*
X82538674Y-92195266D01*
X82526684Y-92240352D01*
X82542685Y-92269561D01*
X82583826Y-92289900D01*
X82649345Y-92301147D01*
X82740755Y-92303203D01*
X82804933Y-92298892D01*
X82968631Y-92258639D01*
X83140869Y-92175115D01*
X83313782Y-92053129D01*
X83479504Y-91897486D01*
X83502168Y-91872745D01*
X83615529Y-91741438D01*
X83712024Y-91616060D01*
X83795250Y-91488981D01*
X83868802Y-91352572D01*
X83936272Y-91199204D01*
X84001256Y-91021247D01*
X84067350Y-90811070D01*
X84138148Y-90561046D01*
X84162328Y-90471582D01*
X84227257Y-90222154D01*
X84277867Y-90008044D01*
X84316033Y-89816414D01*
X84343625Y-89634433D01*
X84362517Y-89449264D01*
X84374583Y-89248074D01*
X84381694Y-89018028D01*
X84382811Y-88960481D01*
X84379385Y-88499555D01*
X84350494Y-88072442D01*
X84293965Y-87667809D01*
X84207620Y-87274321D01*
X84089284Y-86880644D01*
X83936783Y-86475444D01*
X83879876Y-86340254D01*
X83827093Y-86212872D01*
X83795506Y-86123072D01*
X83783021Y-86063284D01*
X83787552Y-86025941D01*
X83791162Y-86019124D01*
X83828857Y-85988511D01*
X83884100Y-85997785D01*
X83927074Y-86036074D01*
X83979929Y-86117117D01*
X84040207Y-86234388D01*
X84105450Y-86381363D01*
X84173201Y-86551514D01*
X84241000Y-86738318D01*
X84306391Y-86935247D01*
X84366915Y-87135779D01*
X84420114Y-87333387D01*
X84463530Y-87521546D01*
X84469930Y-87552971D01*
X84530492Y-87941888D01*
X84565295Y-88361883D01*
X84574626Y-88800416D01*
X84558776Y-89244950D01*
X84518035Y-89682950D01*
X84452691Y-90101879D01*
X84405990Y-90321228D01*
X84369027Y-90479547D01*
X84343217Y-90596069D01*
X84327600Y-90678331D01*
X84321223Y-90733873D01*
X84323125Y-90770233D01*
X84332349Y-90794950D01*
X84343823Y-90810768D01*
X84383029Y-90850213D01*
X84419594Y-90860990D01*
X84465298Y-90840738D01*
X84531917Y-90787096D01*
X84552342Y-90768977D01*
X84668617Y-90664978D01*
X84835995Y-89931667D01*
X84880581Y-89733421D01*
X84922830Y-89540088D01*
X84960935Y-89360375D01*
X84993085Y-89202985D01*
X85017469Y-89076625D01*
X85032278Y-88990000D01*
X85033301Y-88982861D01*
X85057413Y-88757886D01*
X85065660Y-88535036D01*
X85057121Y-88306868D01*
X85030871Y-88065943D01*
X84985988Y-87804818D01*
X84921549Y-87516052D01*
X84836631Y-87192204D01*
X84791424Y-87032814D01*
X84740517Y-86854819D01*
X84703437Y-86719135D01*
X84679063Y-86619525D01*
X84666272Y-86549749D01*
X84663946Y-86503569D01*
X84670962Y-86474745D01*
X84686201Y-86457039D01*
X84687776Y-86455892D01*
X84722450Y-86437842D01*
X84754549Y-86438121D01*
X84785874Y-86460685D01*
X84818218Y-86509491D01*
X84853380Y-86588495D01*
X84893156Y-86701657D01*
X84939343Y-86852930D01*
X84993737Y-87046275D01*
X85049071Y-87251550D01*
X85117100Y-87516940D01*
X85171620Y-87756401D01*
X85212486Y-87977054D01*
X85239559Y-88186019D01*
X85252692Y-88390417D01*
X85251745Y-88597368D01*
X85236573Y-88813993D01*
X85207034Y-89047412D01*
X85162985Y-89304746D01*
X85104282Y-89593114D01*
X85030783Y-89919639D01*
X84992189Y-90083676D01*
X84942716Y-90295735D01*
X84906338Y-90460712D01*
X84882691Y-90580512D01*
X84871412Y-90657038D01*
X84872140Y-90692195D01*
X84875694Y-90695101D01*
X84933350Y-90671327D01*
X85008193Y-90608271D01*
X85095304Y-90512388D01*
X85189765Y-90390135D01*
X85286653Y-90247965D01*
X85381054Y-90092335D01*
X85468044Y-89929700D01*
X85484416Y-89896286D01*
X85565379Y-89703157D01*
X85638782Y-89480714D01*
X85700516Y-89245458D01*
X85746478Y-89013890D01*
X85772562Y-88802511D01*
X85776646Y-88721859D01*
X85774487Y-88355716D01*
X85749525Y-88003608D01*
X85699844Y-87653744D01*
X85623532Y-87294332D01*
X85518673Y-86913583D01*
X85445765Y-86683604D01*
X85391368Y-86518447D01*
X85339253Y-86359494D01*
X85292658Y-86216676D01*
X85254820Y-86099923D01*
X85228977Y-86019164D01*
X85225049Y-86006655D01*
X85197519Y-85902761D01*
X85181510Y-85797963D01*
X85177515Y-85684166D01*
X85186025Y-85553275D01*
X85207534Y-85397192D01*
X85242534Y-85207823D01*
X85286237Y-85001049D01*
X85335019Y-84772946D01*
X85342151Y-84736159D01*
X81994912Y-83839270D01*
X81937688Y-84016086D01*
X81893510Y-84119327D01*
X81776258Y-84307885D01*
X81626302Y-84461296D01*
X81448865Y-84578203D01*
X81249174Y-84657251D01*
X81032453Y-84697084D01*
X80803928Y-84696346D01*
X80568824Y-84653682D01*
X80332367Y-84567737D01*
X80273982Y-84539497D01*
X80082662Y-84421690D01*
X79908534Y-84275209D01*
X79764853Y-84112102D01*
X79705292Y-84022549D01*
X79616878Y-83838806D01*
X79571692Y-83656788D01*
X79569414Y-83468437D01*
X79609722Y-83265694D01*
X79668337Y-83097777D01*
X79784369Y-82859994D01*
X79924495Y-82665634D01*
X80091257Y-82512115D01*
X80287200Y-82396857D01*
X80405640Y-82349755D01*
X80563899Y-82300813D01*
X80697880Y-82273960D01*
X80824341Y-82268832D01*
X80960041Y-82285065D01*
X81121734Y-82322296D01*
X81162653Y-82333321D01*
X81294388Y-82371064D01*
X81390974Y-82403904D01*
X81466821Y-82438089D01*
X81536342Y-82479865D01*
X81592853Y-82519831D01*
X81762481Y-82666013D01*
X81901195Y-82829481D01*
X82002475Y-83001249D01*
X82057237Y-83160013D01*
X82071428Y-83297586D01*
X82064175Y-83466000D01*
X82037872Y-83651234D01*
X81994912Y-83839270D01*
X85342151Y-84736159D01*
X85371387Y-84585329D01*
X85395814Y-84429545D01*
X85408780Y-84296944D01*
X85410765Y-84178872D01*
X85402244Y-84066681D01*
X85383696Y-83951717D01*
X85355600Y-83825331D01*
X85352001Y-83810583D01*
X85277541Y-83566561D01*
X85178694Y-83353548D01*
X85048158Y-83159657D01*
X84878633Y-82973005D01*
X84782613Y-82883689D01*
X84633145Y-82758011D01*
X84494130Y-82659649D01*
X84353734Y-82583289D01*
X84200121Y-82523615D01*
X84021457Y-82475311D01*
X83805906Y-82433061D01*
X83763337Y-82425864D01*
X83622219Y-82403168D01*
X83516608Y-82389366D01*
X83432010Y-82384369D01*
X83353934Y-82388089D01*
X83267887Y-82400436D01*
X83159376Y-82421320D01*
X83155375Y-82422127D01*
X82891236Y-82475464D01*
X82977552Y-82587402D01*
X83066024Y-82690121D01*
X83160604Y-82770710D01*
X83279352Y-82843545D01*
X83336369Y-82873081D01*
X83425008Y-82925931D01*
X83467050Y-82974883D01*
X83465857Y-83025253D01*
X83449952Y-83052831D01*
X83427470Y-83069700D01*
X83388275Y-83069870D01*
X83320678Y-83052120D01*
X83264890Y-83033491D01*
X83154528Y-82988705D01*
X83057965Y-82932460D01*
X82966176Y-82857034D01*
X82870136Y-82754711D01*
X82760823Y-82617768D01*
X82728371Y-82574542D01*
X82551321Y-82355869D01*
X82365517Y-82167934D01*
X82160817Y-82002675D01*
X81927077Y-81852035D01*
X81654154Y-81707952D01*
X81612692Y-81688060D01*
X81362031Y-81583776D01*
X81122585Y-81517209D01*
X80882026Y-81486925D01*
X80628029Y-81491486D01*
X80348267Y-81529456D01*
X80311194Y-81536417D01*
X80093732Y-81588466D01*
X79906670Y-81657953D01*
X79738407Y-81751721D01*
X79577342Y-81876603D01*
X79411875Y-82039440D01*
X79358555Y-82097931D01*
X79252939Y-82219542D01*
X79169156Y-82326424D01*
X79101453Y-82429466D01*
X79044078Y-82539553D01*
X78991277Y-82667572D01*
X78937297Y-82824409D01*
X78883839Y-82996275D01*
X78835826Y-83154229D01*
X78799632Y-83269959D01*
X78772453Y-83349889D01*
X78751480Y-83400446D01*
X78733909Y-83428052D01*
X78716934Y-83439133D01*
X78697749Y-83440114D01*
X78690353Y-83439304D01*
X78653389Y-83424756D01*
X78632331Y-83388443D01*
X78627346Y-83325035D01*
X78638603Y-83229203D01*
X78666267Y-83095616D01*
X78706164Y-82935519D01*
X78753315Y-82764472D01*
X78796258Y-82631458D01*
X78839306Y-82524430D01*
X78886599Y-82431650D01*
X79003817Y-82247708D01*
X79144825Y-82063350D01*
X79301003Y-81887461D01*
X79463727Y-81728934D01*
X79624378Y-81596654D01*
X79774333Y-81499511D01*
X79806924Y-81482821D01*
X79911190Y-81442271D01*
X80051572Y-81401213D01*
X80213521Y-81362807D01*
X80382484Y-81330209D01*
X80543911Y-81306577D01*
X80669424Y-81295646D01*
X80868808Y-81294291D01*
X81056489Y-81311936D01*
X81243726Y-81351326D01*
X81441775Y-81415207D01*
X81661895Y-81506327D01*
X81802872Y-81572140D01*
X82072120Y-81715543D01*
X82312136Y-81874746D01*
X82539509Y-82061667D01*
X82705067Y-82220476D01*
X82787943Y-82304314D01*
X83044343Y-82252276D01*
X83300744Y-82200237D01*
X83231771Y-82051903D01*
X83166132Y-81924150D01*
X83076793Y-81769096D01*
X82971726Y-81599159D01*
X82858906Y-81426753D01*
X82746306Y-81264295D01*
X82641899Y-81124202D01*
X82611787Y-81086450D01*
X82497773Y-80957848D01*
X82351210Y-80809838D01*
X82181888Y-80651084D01*
X81999594Y-80490251D01*
X81814118Y-80336007D01*
X81635247Y-80197018D01*
X81490912Y-80094095D01*
X81147382Y-79877254D01*
X80761680Y-79661180D01*
X80342319Y-79450074D01*
X79897812Y-79248140D01*
X79436669Y-79059583D01*
X79262020Y-78993487D01*
X79048959Y-78921488D01*
X78799747Y-78848544D01*
X78528846Y-78778068D01*
%TD*%
D11*
%TO.C,REF\u002A\u002A*%
X134721706Y-96449587D03*
X135821706Y-101049587D03*
X139821706Y-101049587D03*
X142821706Y-101049587D03*
X134721706Y-101049587D03*
X135821706Y-96449587D03*
X139821706Y-96449587D03*
X142821706Y-96449587D03*
D12*
X137421706Y-98749587D03*
X137421706Y-98749587D03*
X144421706Y-98749587D03*
%TD*%
%TO.C,*%
G36*
G01*
X143581880Y-63995413D02*
X145334480Y-63995413D01*
G75*
G02*
X145384480Y-64045413I0J-50000D01*
G01*
X145384480Y-65798013D01*
G75*
G02*
X145334480Y-65848013I-50000J0D01*
G01*
X143581880Y-65848013D01*
G75*
G02*
X143531880Y-65798013I0J50000D01*
G01*
X143531880Y-64045413D01*
G75*
G02*
X143581880Y-63995413I50000J0D01*
G01*
G37*
D13*
X144458180Y-67461713D03*
X144458180Y-70001713D03*
X144458180Y-72541713D03*
X144458180Y-75081713D03*
X144458180Y-77621713D03*
X144458180Y-80161713D03*
X144458180Y-82701713D03*
X144458180Y-85241713D03*
X144458180Y-87781713D03*
X144458180Y-90321713D03*
X144458180Y-92861713D03*
X129218180Y-64921713D03*
X129218180Y-67461713D03*
X129218180Y-70001713D03*
X129218180Y-72541713D03*
X129218180Y-75081713D03*
X129218180Y-77621713D03*
X129218180Y-80161713D03*
X129218180Y-82701713D03*
X129218180Y-85241713D03*
X129218180Y-87781713D03*
X129218180Y-90321713D03*
X129218180Y-92861713D03*
%TD*%
D14*
%TO.C,S1*%
X41292162Y-103164571D03*
X51917346Y-100317561D03*
D15*
X50463812Y-96824749D03*
D16*
X46604754Y-101741066D03*
D15*
X45064781Y-95993807D03*
X40804553Y-99412939D03*
G36*
G01*
X47260653Y-96751284D02*
X46587724Y-94239877D01*
G75*
G02*
X46623079Y-94178640I48296J12941D01*
G01*
X49134486Y-93505711D01*
G75*
G02*
X49195723Y-93541066I12941J-48296D01*
G01*
X49868652Y-96052473D01*
G75*
G02*
X49833297Y-96113710I-48296J-12941D01*
G01*
X47321890Y-96786639D01*
G75*
G02*
X47260653Y-96751284I-12941J48296D01*
G01*
G37*
G36*
G01*
X36673611Y-101865681D02*
X36000682Y-99354274D01*
G75*
G02*
X36036037Y-99293037I48296J12941D01*
G01*
X38547444Y-98620108D01*
G75*
G02*
X38608681Y-98655463I12941J-48296D01*
G01*
X39281610Y-101166870D01*
G75*
G02*
X39246255Y-101228107I-48296J-12941D01*
G01*
X36734848Y-101901036D01*
G75*
G02*
X36673611Y-101865681I-12941J48296D01*
G01*
G37*
%TD*%
D14*
%TO.C,S2*%
X36892238Y-86743832D03*
X47517422Y-83896822D03*
D15*
X46063888Y-80404010D03*
D16*
X42204830Y-85320327D03*
D15*
X40664857Y-79573068D03*
X36404629Y-82992200D03*
G36*
G01*
X42860729Y-80330545D02*
X42187800Y-77819138D01*
G75*
G02*
X42223155Y-77757901I48296J12941D01*
G01*
X44734562Y-77084972D01*
G75*
G02*
X44795799Y-77120327I12941J-48296D01*
G01*
X45468728Y-79631734D01*
G75*
G02*
X45433373Y-79692971I-48296J-12941D01*
G01*
X42921966Y-80365900D01*
G75*
G02*
X42860729Y-80330545I-12941J48296D01*
G01*
G37*
G36*
G01*
X32273687Y-85444942D02*
X31600758Y-82933535D01*
G75*
G02*
X31636113Y-82872298I48296J12941D01*
G01*
X34147520Y-82199369D01*
G75*
G02*
X34208757Y-82234724I12941J-48296D01*
G01*
X34881686Y-84746131D01*
G75*
G02*
X34846331Y-84807368I-48296J-12941D01*
G01*
X32334924Y-85480297D01*
G75*
G02*
X32273687Y-85444942I-12941J48296D01*
G01*
G37*
%TD*%
D14*
%TO.C,S3*%
X57338180Y-75391713D03*
X68338180Y-75391713D03*
D15*
X67838180Y-71641713D03*
D16*
X62838180Y-75391713D03*
D15*
X62838180Y-69441713D03*
X57838180Y-71641713D03*
G36*
G01*
X64763180Y-70741713D02*
X64763180Y-68141713D01*
G75*
G02*
X64813180Y-68091713I50000J0D01*
G01*
X67413180Y-68091713D01*
G75*
G02*
X67463180Y-68141713I0J-50000D01*
G01*
X67463180Y-70741713D01*
G75*
G02*
X67413180Y-70791713I-50000J0D01*
G01*
X64813180Y-70791713D01*
G75*
G02*
X64763180Y-70741713I0J50000D01*
G01*
G37*
G36*
G01*
X53213180Y-72941713D02*
X53213180Y-70341713D01*
G75*
G02*
X53263180Y-70291713I50000J0D01*
G01*
X55863180Y-70291713D01*
G75*
G02*
X55913180Y-70341713I0J-50000D01*
G01*
X55913180Y-72941713D01*
G75*
G02*
X55863180Y-72991713I-50000J0D01*
G01*
X53263180Y-72991713D01*
G75*
G02*
X53213180Y-72941713I0J50000D01*
G01*
G37*
%TD*%
D14*
%TO.C,S4*%
X57338180Y-58391713D03*
X68338180Y-58391713D03*
D15*
X67838180Y-54641713D03*
D16*
X62838180Y-58391713D03*
D15*
X62838180Y-52441713D03*
X57838180Y-54641713D03*
G36*
G01*
X64763180Y-53741713D02*
X64763180Y-51141713D01*
G75*
G02*
X64813180Y-51091713I50000J0D01*
G01*
X67413180Y-51091713D01*
G75*
G02*
X67463180Y-51141713I0J-50000D01*
G01*
X67463180Y-53741713D01*
G75*
G02*
X67413180Y-53791713I-50000J0D01*
G01*
X64813180Y-53791713D01*
G75*
G02*
X64763180Y-53741713I0J50000D01*
G01*
G37*
G36*
G01*
X53213180Y-55941713D02*
X53213180Y-53341713D01*
G75*
G02*
X53263180Y-53291713I50000J0D01*
G01*
X55863180Y-53291713D01*
G75*
G02*
X55913180Y-53341713I0J-50000D01*
G01*
X55913180Y-55941713D01*
G75*
G02*
X55863180Y-55991713I-50000J0D01*
G01*
X53263180Y-55991713D01*
G75*
G02*
X53213180Y-55941713I0J50000D01*
G01*
G37*
%TD*%
D14*
%TO.C,S5*%
X57338180Y-41391713D03*
X68338180Y-41391713D03*
D15*
X67838180Y-37641713D03*
D16*
X62838180Y-41391713D03*
D15*
X62838180Y-35441713D03*
X57838180Y-37641713D03*
G36*
G01*
X64763180Y-36741713D02*
X64763180Y-34141713D01*
G75*
G02*
X64813180Y-34091713I50000J0D01*
G01*
X67413180Y-34091713D01*
G75*
G02*
X67463180Y-34141713I0J-50000D01*
G01*
X67463180Y-36741713D01*
G75*
G02*
X67413180Y-36791713I-50000J0D01*
G01*
X64813180Y-36791713D01*
G75*
G02*
X64763180Y-36741713I0J50000D01*
G01*
G37*
G36*
G01*
X53213180Y-38941713D02*
X53213180Y-36341713D01*
G75*
G02*
X53263180Y-36291713I50000J0D01*
G01*
X55863180Y-36291713D01*
G75*
G02*
X55913180Y-36341713I0J-50000D01*
G01*
X55913180Y-38941713D01*
G75*
G02*
X55863180Y-38991713I-50000J0D01*
G01*
X53263180Y-38991713D01*
G75*
G02*
X53213180Y-38941713I0J50000D01*
G01*
G37*
%TD*%
D14*
%TO.C,S6*%
X75338180Y-66891713D03*
X86338180Y-66891713D03*
D15*
X85838180Y-63141713D03*
D16*
X80838180Y-66891713D03*
D15*
X80838180Y-60941713D03*
X75838180Y-63141713D03*
G36*
G01*
X82763180Y-62241713D02*
X82763180Y-59641713D01*
G75*
G02*
X82813180Y-59591713I50000J0D01*
G01*
X85413180Y-59591713D01*
G75*
G02*
X85463180Y-59641713I0J-50000D01*
G01*
X85463180Y-62241713D01*
G75*
G02*
X85413180Y-62291713I-50000J0D01*
G01*
X82813180Y-62291713D01*
G75*
G02*
X82763180Y-62241713I0J50000D01*
G01*
G37*
G36*
G01*
X71213180Y-64441713D02*
X71213180Y-61841713D01*
G75*
G02*
X71263180Y-61791713I50000J0D01*
G01*
X73863180Y-61791713D01*
G75*
G02*
X73913180Y-61841713I0J-50000D01*
G01*
X73913180Y-64441713D01*
G75*
G02*
X73863180Y-64491713I-50000J0D01*
G01*
X71263180Y-64491713D01*
G75*
G02*
X71213180Y-64441713I0J50000D01*
G01*
G37*
%TD*%
D14*
%TO.C,S7*%
X75338180Y-49891713D03*
X86338180Y-49891713D03*
D15*
X85838180Y-46141713D03*
D16*
X80838180Y-49891713D03*
D15*
X80838180Y-43941713D03*
X75838180Y-46141713D03*
G36*
G01*
X82763180Y-45241713D02*
X82763180Y-42641713D01*
G75*
G02*
X82813180Y-42591713I50000J0D01*
G01*
X85413180Y-42591713D01*
G75*
G02*
X85463180Y-42641713I0J-50000D01*
G01*
X85463180Y-45241713D01*
G75*
G02*
X85413180Y-45291713I-50000J0D01*
G01*
X82813180Y-45291713D01*
G75*
G02*
X82763180Y-45241713I0J50000D01*
G01*
G37*
G36*
G01*
X71213180Y-47441713D02*
X71213180Y-44841713D01*
G75*
G02*
X71263180Y-44791713I50000J0D01*
G01*
X73863180Y-44791713D01*
G75*
G02*
X73913180Y-44841713I0J-50000D01*
G01*
X73913180Y-47441713D01*
G75*
G02*
X73863180Y-47491713I-50000J0D01*
G01*
X71263180Y-47491713D01*
G75*
G02*
X71213180Y-47441713I0J50000D01*
G01*
G37*
%TD*%
D14*
%TO.C,S8*%
X75338180Y-32891713D03*
X86338180Y-32891713D03*
D15*
X85838180Y-29141713D03*
D16*
X80838180Y-32891713D03*
D15*
X80838180Y-26941713D03*
X75838180Y-29141713D03*
G36*
G01*
X82763180Y-28241713D02*
X82763180Y-25641713D01*
G75*
G02*
X82813180Y-25591713I50000J0D01*
G01*
X85413180Y-25591713D01*
G75*
G02*
X85463180Y-25641713I0J-50000D01*
G01*
X85463180Y-28241713D01*
G75*
G02*
X85413180Y-28291713I-50000J0D01*
G01*
X82813180Y-28291713D01*
G75*
G02*
X82763180Y-28241713I0J50000D01*
G01*
G37*
G36*
G01*
X71213180Y-30441713D02*
X71213180Y-27841713D01*
G75*
G02*
X71263180Y-27791713I50000J0D01*
G01*
X73863180Y-27791713D01*
G75*
G02*
X73913180Y-27841713I0J-50000D01*
G01*
X73913180Y-30441713D01*
G75*
G02*
X73863180Y-30491713I-50000J0D01*
G01*
X71263180Y-30491713D01*
G75*
G02*
X71213180Y-30441713I0J50000D01*
G01*
G37*
%TD*%
D14*
%TO.C,S9*%
X93338180Y-75391713D03*
X104338180Y-75391713D03*
D15*
X103838180Y-71641713D03*
D16*
X98838180Y-75391713D03*
D15*
X98838180Y-69441713D03*
X93838180Y-71641713D03*
G36*
G01*
X100763180Y-70741713D02*
X100763180Y-68141713D01*
G75*
G02*
X100813180Y-68091713I50000J0D01*
G01*
X103413180Y-68091713D01*
G75*
G02*
X103463180Y-68141713I0J-50000D01*
G01*
X103463180Y-70741713D01*
G75*
G02*
X103413180Y-70791713I-50000J0D01*
G01*
X100813180Y-70791713D01*
G75*
G02*
X100763180Y-70741713I0J50000D01*
G01*
G37*
G36*
G01*
X89213180Y-72941713D02*
X89213180Y-70341713D01*
G75*
G02*
X89263180Y-70291713I50000J0D01*
G01*
X91863180Y-70291713D01*
G75*
G02*
X91913180Y-70341713I0J-50000D01*
G01*
X91913180Y-72941713D01*
G75*
G02*
X91863180Y-72991713I-50000J0D01*
G01*
X89263180Y-72991713D01*
G75*
G02*
X89213180Y-72941713I0J50000D01*
G01*
G37*
%TD*%
D14*
%TO.C,S10*%
X93338180Y-58391713D03*
X104338180Y-58391713D03*
D15*
X103838180Y-54641713D03*
D16*
X98838180Y-58391713D03*
D15*
X98838180Y-52441713D03*
X93838180Y-54641713D03*
G36*
G01*
X100763180Y-53741713D02*
X100763180Y-51141713D01*
G75*
G02*
X100813180Y-51091713I50000J0D01*
G01*
X103413180Y-51091713D01*
G75*
G02*
X103463180Y-51141713I0J-50000D01*
G01*
X103463180Y-53741713D01*
G75*
G02*
X103413180Y-53791713I-50000J0D01*
G01*
X100813180Y-53791713D01*
G75*
G02*
X100763180Y-53741713I0J50000D01*
G01*
G37*
G36*
G01*
X89213180Y-55941713D02*
X89213180Y-53341713D01*
G75*
G02*
X89263180Y-53291713I50000J0D01*
G01*
X91863180Y-53291713D01*
G75*
G02*
X91913180Y-53341713I0J-50000D01*
G01*
X91913180Y-55941713D01*
G75*
G02*
X91863180Y-55991713I-50000J0D01*
G01*
X89263180Y-55991713D01*
G75*
G02*
X89213180Y-55941713I0J50000D01*
G01*
G37*
%TD*%
D14*
%TO.C,S11*%
X93338180Y-41391713D03*
X104338180Y-41391713D03*
D15*
X103838180Y-37641713D03*
D16*
X98838180Y-41391713D03*
D15*
X98838180Y-35441713D03*
X93838180Y-37641713D03*
G36*
G01*
X100763180Y-36741713D02*
X100763180Y-34141713D01*
G75*
G02*
X100813180Y-34091713I50000J0D01*
G01*
X103413180Y-34091713D01*
G75*
G02*
X103463180Y-34141713I0J-50000D01*
G01*
X103463180Y-36741713D01*
G75*
G02*
X103413180Y-36791713I-50000J0D01*
G01*
X100813180Y-36791713D01*
G75*
G02*
X100763180Y-36741713I0J50000D01*
G01*
G37*
G36*
G01*
X89213180Y-38941713D02*
X89213180Y-36341713D01*
G75*
G02*
X89263180Y-36291713I50000J0D01*
G01*
X91863180Y-36291713D01*
G75*
G02*
X91913180Y-36341713I0J-50000D01*
G01*
X91913180Y-38941713D01*
G75*
G02*
X91863180Y-38991713I-50000J0D01*
G01*
X89263180Y-38991713D01*
G75*
G02*
X89213180Y-38941713I0J50000D01*
G01*
G37*
%TD*%
D14*
%TO.C,S12*%
X111338180Y-83891713D03*
X122338180Y-83891713D03*
D15*
X121838180Y-80141713D03*
D16*
X116838180Y-83891713D03*
D15*
X116838180Y-77941713D03*
X111838180Y-80141713D03*
G36*
G01*
X118763180Y-79241713D02*
X118763180Y-76641713D01*
G75*
G02*
X118813180Y-76591713I50000J0D01*
G01*
X121413180Y-76591713D01*
G75*
G02*
X121463180Y-76641713I0J-50000D01*
G01*
X121463180Y-79241713D01*
G75*
G02*
X121413180Y-79291713I-50000J0D01*
G01*
X118813180Y-79291713D01*
G75*
G02*
X118763180Y-79241713I0J50000D01*
G01*
G37*
G36*
G01*
X107213180Y-81441713D02*
X107213180Y-78841713D01*
G75*
G02*
X107263180Y-78791713I50000J0D01*
G01*
X109863180Y-78791713D01*
G75*
G02*
X109913180Y-78841713I0J-50000D01*
G01*
X109913180Y-81441713D01*
G75*
G02*
X109863180Y-81491713I-50000J0D01*
G01*
X107263180Y-81491713D01*
G75*
G02*
X107213180Y-81441713I0J50000D01*
G01*
G37*
%TD*%
D14*
%TO.C,S13*%
X111338180Y-66891713D03*
X122338180Y-66891713D03*
D15*
X121838180Y-63141713D03*
D16*
X116838180Y-66891713D03*
D15*
X116838180Y-60941713D03*
X111838180Y-63141713D03*
G36*
G01*
X118763180Y-62241713D02*
X118763180Y-59641713D01*
G75*
G02*
X118813180Y-59591713I50000J0D01*
G01*
X121413180Y-59591713D01*
G75*
G02*
X121463180Y-59641713I0J-50000D01*
G01*
X121463180Y-62241713D01*
G75*
G02*
X121413180Y-62291713I-50000J0D01*
G01*
X118813180Y-62291713D01*
G75*
G02*
X118763180Y-62241713I0J50000D01*
G01*
G37*
G36*
G01*
X107213180Y-64441713D02*
X107213180Y-61841713D01*
G75*
G02*
X107263180Y-61791713I50000J0D01*
G01*
X109863180Y-61791713D01*
G75*
G02*
X109913180Y-61841713I0J-50000D01*
G01*
X109913180Y-64441713D01*
G75*
G02*
X109863180Y-64491713I-50000J0D01*
G01*
X107263180Y-64491713D01*
G75*
G02*
X107213180Y-64441713I0J50000D01*
G01*
G37*
%TD*%
D14*
%TO.C,S14*%
X111338180Y-49891713D03*
X122338180Y-49891713D03*
D15*
X121838180Y-46141713D03*
D16*
X116838180Y-49891713D03*
D15*
X116838180Y-43941713D03*
X111838180Y-46141713D03*
G36*
G01*
X118763180Y-45241713D02*
X118763180Y-42641713D01*
G75*
G02*
X118813180Y-42591713I50000J0D01*
G01*
X121413180Y-42591713D01*
G75*
G02*
X121463180Y-42641713I0J-50000D01*
G01*
X121463180Y-45241713D01*
G75*
G02*
X121413180Y-45291713I-50000J0D01*
G01*
X118813180Y-45291713D01*
G75*
G02*
X118763180Y-45241713I0J50000D01*
G01*
G37*
G36*
G01*
X107213180Y-47441713D02*
X107213180Y-44841713D01*
G75*
G02*
X107263180Y-44791713I50000J0D01*
G01*
X109863180Y-44791713D01*
G75*
G02*
X109913180Y-44841713I0J-50000D01*
G01*
X109913180Y-47441713D01*
G75*
G02*
X109863180Y-47491713I-50000J0D01*
G01*
X107263180Y-47491713D01*
G75*
G02*
X107213180Y-47441713I0J50000D01*
G01*
G37*
%TD*%
D14*
%TO.C,S15*%
X98025588Y-103718208D03*
X108650772Y-106565218D03*
D15*
X109138381Y-102813586D03*
D16*
X103338180Y-105141713D03*
D15*
X104878153Y-99394454D03*
X99479122Y-100225396D03*
G36*
G01*
X106401096Y-101148385D02*
X107074025Y-98636978D01*
G75*
G02*
X107135262Y-98601623I48296J-12941D01*
G01*
X109646669Y-99274552D01*
G75*
G02*
X109682024Y-99335789I-12941J-48296D01*
G01*
X109009095Y-101847196D01*
G75*
G02*
X108947858Y-101882551I-48296J12941D01*
G01*
X106436451Y-101209622D01*
G75*
G02*
X106401096Y-101148385I12941J48296D01*
G01*
G37*
G36*
G01*
X94675251Y-100284062D02*
X95348180Y-97772655D01*
G75*
G02*
X95409417Y-97737300I48296J-12941D01*
G01*
X97920824Y-98410229D01*
G75*
G02*
X97956179Y-98471466I-12941J-48296D01*
G01*
X97283250Y-100982873D01*
G75*
G02*
X97222013Y-101018228I-48296J12941D01*
G01*
X94710606Y-100345299D01*
G75*
G02*
X94675251Y-100284062I12941J48296D01*
G01*
G37*
%TD*%
D14*
%TO.C,S16*%
X115412253Y-108376951D03*
X126037437Y-111223961D03*
D15*
X126525046Y-107472329D03*
D16*
X120724845Y-109800456D03*
D15*
X122264818Y-104053197D03*
X116865787Y-104884139D03*
G36*
G01*
X123787761Y-105807128D02*
X124460690Y-103295721D01*
G75*
G02*
X124521927Y-103260366I48296J-12941D01*
G01*
X127033334Y-103933295D01*
G75*
G02*
X127068689Y-103994532I-12941J-48296D01*
G01*
X126395760Y-106505939D01*
G75*
G02*
X126334523Y-106541294I-48296J12941D01*
G01*
X123823116Y-105868365D01*
G75*
G02*
X123787761Y-105807128I12941J48296D01*
G01*
G37*
G36*
G01*
X112061916Y-104942805D02*
X112734845Y-102431398D01*
G75*
G02*
X112796082Y-102396043I48296J-12941D01*
G01*
X115307489Y-103068972D01*
G75*
G02*
X115342844Y-103130209I-12941J-48296D01*
G01*
X114669915Y-105641616D01*
G75*
G02*
X114608678Y-105676971I-48296J12941D01*
G01*
X112097271Y-105004042D01*
G75*
G02*
X112061916Y-104942805I12941J48296D01*
G01*
G37*
%TD*%
D14*
%TO.C,S17*%
X132798918Y-113035694D03*
X143424102Y-115882704D03*
D15*
X143911711Y-112131072D03*
D16*
X138111510Y-114459199D03*
D15*
X139651483Y-108711940D03*
X134252452Y-109542882D03*
G36*
G01*
X141174426Y-110465871D02*
X141847355Y-107954464D01*
G75*
G02*
X141908592Y-107919109I48296J-12941D01*
G01*
X144419999Y-108592038D01*
G75*
G02*
X144455354Y-108653275I-12941J-48296D01*
G01*
X143782425Y-111164682D01*
G75*
G02*
X143721188Y-111200037I-48296J12941D01*
G01*
X141209781Y-110527108D01*
G75*
G02*
X141174426Y-110465871I12941J48296D01*
G01*
G37*
G36*
G01*
X129448581Y-109601548D02*
X130121510Y-107090141D01*
G75*
G02*
X130182747Y-107054786I48296J-12941D01*
G01*
X132694154Y-107727715D01*
G75*
G02*
X132729509Y-107788952I-12941J-48296D01*
G01*
X132056580Y-110300359D01*
G75*
G02*
X131995343Y-110335714I-48296J12941D01*
G01*
X129483936Y-109662785D01*
G75*
G02*
X129448581Y-109601548I12941J48296D01*
G01*
G37*
%TD*%
M02*
